<svg width="300" height="131" viewBox="0 0 300 131" fill="none" xmlns="http://www.w3.org/2000/svg">
    <path d="M19.3323 13.73V12.875C19.3323 12.615 19.4073 12.285 19.5573 11.885L20.0523 10.475C20.0823 10.395 20.1373 10.355 20.2173 10.355C20.3273 10.355 20.3823 10.415 20.3823 10.535V13.73C20.3823 13.86 20.3173 13.925 20.1873 13.925H19.5273C19.3973 13.925 19.3323 13.86 19.3323 13.73ZM17.0223 13.73V12.875C17.0223 12.665 17.0973 12.335 17.2473 11.885L17.7423 10.475C17.7923 10.395 17.8523 10.355 17.9223 10.355C18.0223 10.355 18.0723 10.415 18.0723 10.535V13.73C18.0723 13.86 18.0073 13.925 17.8773 13.925H17.2323C17.0923 13.925 17.0223 13.86 17.0223 13.73ZM23.262 20H22.602C22.462 20 22.392 19.93 22.392 19.79V10.565C22.392 10.425 22.462 10.355 22.602 10.355H23.217C23.337 10.355 23.417 10.395 23.457 10.475L27.597 17.75H27.657V10.565C27.657 10.425 27.727 10.355 27.867 10.355H28.527C28.667 10.355 28.737 10.425 28.737 10.565V19.79C28.737 19.93 28.667 20 28.527 20H27.972C27.862 20 27.757 19.935 27.657 19.805L23.532 12.605H23.472V19.79C23.472 19.93 23.402 20 23.262 20ZM33.2979 19.04H34.8279C35.6679 19.04 36.0879 18.605 36.0879 17.735V12.62C36.0879 11.75 35.6679 11.315 34.8279 11.315H33.2979C32.4679 11.315 32.0529 11.75 32.0529 12.62V17.735C32.0529 18.605 32.4679 19.04 33.2979 19.04ZM34.9629 20H33.1779C32.4879 20 31.9429 19.805 31.5429 19.415C31.1529 19.025 30.9579 18.48 30.9579 17.78V12.575C30.9579 11.875 31.1529 11.33 31.5429 10.94C31.9429 10.55 32.4879 10.355 33.1779 10.355H34.9629C35.6529 10.355 36.1929 10.555 36.5829 10.955C36.9829 11.345 37.1829 11.885 37.1829 12.575V17.78C37.1829 18.47 36.9829 19.015 36.5829 19.415C36.1929 19.805 35.6529 20 34.9629 20ZM41.7539 20H41.0789C40.9389 20 40.8689 19.93 40.8689 19.79V11.45C40.8689 11.36 40.8189 11.315 40.7189 11.315H38.6789C38.5289 11.315 38.4539 11.245 38.4539 11.105V10.565C38.4539 10.425 38.5289 10.355 38.6789 10.355H44.1539C44.3039 10.355 44.3789 10.425 44.3789 10.565V11.105C44.3789 11.245 44.3039 11.315 44.1539 11.315H42.1139C42.0139 11.315 41.9639 11.36 41.9639 11.45V19.79C41.9639 19.93 41.8939 20 41.7539 20ZM46.6852 20H46.0102C45.8702 20 45.8002 19.93 45.8002 19.79V10.565C45.8002 10.425 45.8702 10.355 46.0102 10.355H49.4602C50.1502 10.355 50.6952 10.555 51.0952 10.955C51.4952 11.345 51.6952 11.885 51.6952 12.575V13.94C51.6952 14.5 51.5602 14.965 51.2902 15.335C51.0202 15.695 50.6452 15.935 50.1652 16.055V16.115L51.9052 19.76C51.9952 19.92 51.9452 20 51.7552 20H51.0802C50.9102 20 50.7852 19.93 50.7052 19.79L49.0252 16.16H47.0452C46.9452 16.16 46.8952 16.205 46.8952 16.295V19.79C46.8952 19.93 46.8252 20 46.6852 20ZM47.0452 15.245H49.3102C50.1702 15.245 50.6002 14.815 50.6002 13.955V12.62C50.6002 11.75 50.1702 11.315 49.3102 11.315H47.0452C46.9452 11.315 46.8952 11.36 46.8952 11.45V15.11C46.8952 15.2 46.9452 15.245 47.0452 15.245ZM58.7769 20H54.0669C53.9269 20 53.8569 19.93 53.8569 19.79V10.565C53.8569 10.425 53.9269 10.355 54.0669 10.355H58.7769C58.9169 10.355 58.9869 10.425 58.9869 10.565V11.105C58.9869 11.245 58.9169 11.315 58.7769 11.315H55.1019C55.0019 11.315 54.9519 11.36 54.9519 11.45V14.48C54.9519 14.57 55.0019 14.615 55.1019 14.615H58.3119C58.4519 14.615 58.5219 14.685 58.5219 14.825V15.365C58.5219 15.505 58.4519 15.575 58.3119 15.575H55.1019C55.0019 15.575 54.9519 15.62 54.9519 15.71V18.905C54.9519 18.995 55.0019 19.04 55.1019 19.04H58.7769C58.9169 19.04 58.9869 19.11 58.9869 19.25V19.79C58.9869 19.93 58.9169 20 58.7769 20ZM65.7425 20H65.0825C64.9425 20 64.8725 19.93 64.8725 19.79V10.565C64.8725 10.425 64.9425 10.355 65.0825 10.355H65.6975C65.8175 10.355 65.8975 10.395 65.9375 10.475L70.0775 17.75H70.1375V10.565C70.1375 10.425 70.2075 10.355 70.3475 10.355H71.0075C71.1475 10.355 71.2175 10.425 71.2175 10.565V19.79C71.2175 19.93 71.1475 20 71.0075 20H70.4525C70.3425 20 70.2375 19.935 70.1375 19.805L66.0125 12.605H65.9525V19.79C65.9525 19.93 65.8825 20 65.7425 20ZM75.7783 19.04H77.3083C78.1483 19.04 78.5683 18.605 78.5683 17.735V12.62C78.5683 11.75 78.1483 11.315 77.3083 11.315H75.7783C74.9483 11.315 74.5333 11.75 74.5333 12.62V17.735C74.5333 18.605 74.9483 19.04 75.7783 19.04ZM77.4433 20H75.6583C74.9683 20 74.4233 19.805 74.0233 19.415C73.6333 19.025 73.4383 18.48 73.4383 17.78V12.575C73.4383 11.875 73.6333 11.33 74.0233 10.94C74.4233 10.55 74.9683 10.355 75.6583 10.355H77.4433C78.1333 10.355 78.6733 10.555 79.0633 10.955C79.4633 11.345 79.6633 11.885 79.6633 12.575V17.78C79.6633 18.47 79.4633 19.015 79.0633 19.415C78.6733 19.805 78.1333 20 77.4433 20ZM87.0093 10.355H87.6843C87.8243 10.355 87.8943 10.42 87.8943 10.55V17.78C87.8943 18.48 87.6993 19.025 87.3093 19.415C86.9193 19.805 86.3793 20 85.6893 20H84.0243C83.3343 20 82.7893 19.805 82.3893 19.415C81.9993 19.025 81.8043 18.48 81.8043 17.78V10.565C81.8043 10.425 81.8743 10.355 82.0143 10.355H82.6893C82.8293 10.355 82.8993 10.425 82.8993 10.565V17.735C82.8993 18.605 83.3143 19.04 84.1443 19.04H85.5543C86.3943 19.04 86.8143 18.605 86.8143 17.735V10.565C86.8143 10.425 86.8793 10.355 87.0093 10.355ZM93.335 20H92.27C92.14 20 92.055 19.93 92.015 19.79L89.36 10.58C89.33 10.43 89.395 10.355 89.555 10.355H90.29C90.42 10.355 90.5 10.425 90.53 10.565L92.765 18.77H92.825L95.06 10.565C95.09 10.425 95.17 10.355 95.3 10.355H96.05C96.2 10.355 96.26 10.43 96.23 10.58L93.575 19.79C93.535 19.93 93.455 20 93.335 20ZM102.693 20H97.9829C97.8429 20 97.7729 19.93 97.7729 19.79V10.565C97.7729 10.425 97.8429 10.355 97.9829 10.355H102.693C102.833 10.355 102.903 10.425 102.903 10.565V11.105C102.903 11.245 102.833 11.315 102.693 11.315H99.0179C98.9179 11.315 98.8679 11.36 98.8679 11.45V14.48C98.8679 14.57 98.9179 14.615 99.0179 14.615H102.228C102.368 14.615 102.438 14.685 102.438 14.825V15.365C102.438 15.505 102.368 15.575 102.228 15.575H99.0179C98.9179 15.575 98.8679 15.62 98.8679 15.71V18.905C98.8679 18.995 98.9179 19.04 99.0179 19.04H102.693C102.833 19.04 102.903 19.11 102.903 19.25V19.79C102.903 19.93 102.833 20 102.693 20ZM110.005 20H105.19C105.05 20 104.98 19.93 104.98 19.79V10.565C104.98 10.425 105.05 10.355 105.19 10.355H105.865C106.005 10.355 106.075 10.425 106.075 10.565V18.875C106.075 18.965 106.125 19.01 106.225 19.01H110.005C110.145 19.01 110.215 19.085 110.215 19.235V19.79C110.215 19.93 110.145 20 110.005 20ZM116.773 20H111.958C111.818 20 111.748 19.93 111.748 19.79V10.565C111.748 10.425 111.818 10.355 111.958 10.355H112.633C112.773 10.355 112.843 10.425 112.843 10.565V18.875C112.843 18.965 112.893 19.01 112.993 19.01H116.773C116.913 19.01 116.983 19.085 116.983 19.235V19.79C116.983 19.93 116.913 20 116.773 20ZM123.435 20H118.725C118.585 20 118.515 19.93 118.515 19.79V10.565C118.515 10.425 118.585 10.355 118.725 10.355H123.435C123.575 10.355 123.645 10.425 123.645 10.565V11.105C123.645 11.245 123.575 11.315 123.435 11.315H119.76C119.66 11.315 119.61 11.36 119.61 11.45V14.48C119.61 14.57 119.66 14.615 119.76 14.615H122.97C123.11 14.615 123.18 14.685 123.18 14.825V15.365C123.18 15.505 123.11 15.575 122.97 15.575H119.76C119.66 15.575 119.61 15.62 119.61 15.71V18.905C119.61 18.995 119.66 19.04 119.76 19.04H123.435C123.575 19.04 123.645 19.11 123.645 19.25V19.79C123.645 19.93 123.575 20 123.435 20ZM133.401 20H131.601C130.911 20 130.366 19.805 129.966 19.415C129.576 19.025 129.381 18.48 129.381 17.78V12.575C129.381 11.875 129.576 11.33 129.966 10.94C130.366 10.55 130.911 10.355 131.601 10.355H133.401C134.091 10.355 134.631 10.55 135.021 10.94C135.421 11.33 135.621 11.875 135.621 12.575V13.31C135.621 13.45 135.551 13.52 135.411 13.52H134.736C134.596 13.52 134.526 13.45 134.526 13.31V12.62C134.526 11.75 134.106 11.315 133.266 11.315H131.721C130.891 11.315 130.476 11.75 130.476 12.62V17.735C130.476 18.605 130.891 19.04 131.721 19.04H133.266C134.106 19.04 134.526 18.605 134.526 17.735V17.045C134.526 16.905 134.596 16.835 134.736 16.835H135.411C135.551 16.835 135.621 16.905 135.621 17.045V17.78C135.621 18.48 135.421 19.025 135.021 19.415C134.631 19.805 134.091 20 133.401 20ZM137.766 20H137.016C136.886 20 136.841 19.93 136.881 19.79L139.686 10.565C139.726 10.425 139.821 10.355 139.971 10.355H141.051C141.201 10.355 141.296 10.425 141.336 10.565L144.141 19.79C144.181 19.93 144.136 20 144.006 20H143.241C143.131 20 143.061 19.93 143.031 19.79L142.326 17.6H138.696L137.991 19.79C137.951 19.93 137.876 20 137.766 20ZM140.481 11.48L138.936 16.67H142.086L140.541 11.48H140.481ZM146.617 20H145.957C145.817 20 145.747 19.93 145.747 19.79V10.565C145.747 10.425 145.817 10.355 145.957 10.355H146.572C146.692 10.355 146.772 10.395 146.812 10.475L150.952 17.75H151.012V10.565C151.012 10.425 151.082 10.355 151.222 10.355H151.882C152.022 10.355 152.092 10.425 152.092 10.565V19.79C152.092 19.93 152.022 20 151.882 20H151.327C151.217 20 151.112 19.935 151.012 19.805L146.887 12.605H146.827V19.79C146.827 19.93 146.757 20 146.617 20ZM156.817 20H156.142C156.002 20 155.932 19.93 155.932 19.79V11.45C155.932 11.36 155.882 11.315 155.782 11.315H153.742C153.592 11.315 153.517 11.245 153.517 11.105V10.565C153.517 10.425 153.592 10.355 153.742 10.355H159.217C159.367 10.355 159.442 10.425 159.442 10.565V11.105C159.442 11.245 159.367 11.315 159.217 11.315H157.177C157.077 11.315 157.027 11.36 157.027 11.45V19.79C157.027 19.93 156.957 20 156.817 20ZM162.034 10.565V19.79C162.034 19.93 161.964 20 161.824 20H161.149C161.009 20 160.939 19.93 160.939 19.79V10.565C160.939 10.425 161.009 10.355 161.149 10.355H161.824C161.964 10.355 162.034 10.425 162.034 10.565ZM165.352 20H164.692C164.552 20 164.482 19.93 164.482 19.79V10.565C164.482 10.425 164.552 10.355 164.692 10.355H165.307C165.427 10.355 165.507 10.395 165.547 10.475L169.687 17.75H169.747V10.565C169.747 10.425 169.817 10.355 169.957 10.355H170.617C170.757 10.355 170.827 10.425 170.827 10.565V19.79C170.827 19.93 170.757 20 170.617 20H170.062C169.952 20 169.847 19.935 169.747 19.805L165.622 12.605H165.562V19.79C165.562 19.93 165.492 20 165.352 20ZM178.118 20H173.408C173.268 20 173.198 19.93 173.198 19.79V10.565C173.198 10.425 173.268 10.355 173.408 10.355H178.118C178.258 10.355 178.328 10.425 178.328 10.565V11.105C178.328 11.245 178.258 11.315 178.118 11.315H174.443C174.343 11.315 174.293 11.36 174.293 11.45V14.48C174.293 14.57 174.343 14.615 174.443 14.615H177.653C177.793 14.615 177.863 14.685 177.863 14.825V15.365C177.863 15.505 177.793 15.575 177.653 15.575H174.443C174.343 15.575 174.293 15.62 174.293 15.71V18.905C174.293 18.995 174.343 19.04 174.443 19.04H178.118C178.258 19.04 178.328 19.11 178.328 19.25V19.79C178.328 19.93 178.258 20 178.118 20ZM185.098 20H184.423C184.283 20 184.213 19.93 184.213 19.79V10.565C184.213 10.425 184.283 10.355 184.423 10.355H187.933C188.623 10.355 189.163 10.555 189.553 10.955C189.943 11.345 190.138 11.885 190.138 12.575V14.24C190.138 14.94 189.943 15.485 189.553 15.875C189.163 16.265 188.623 16.46 187.933 16.46H185.458C185.358 16.46 185.308 16.505 185.308 16.595V19.79C185.308 19.93 185.238 20 185.098 20ZM185.458 15.485H187.783C188.623 15.485 189.043 15.055 189.043 14.195V12.62C189.043 11.75 188.623 11.315 187.783 11.315H185.458C185.358 11.315 185.308 11.36 185.308 11.45V15.35C185.308 15.44 185.358 15.485 185.458 15.485ZM192.994 20H192.319C192.179 20 192.109 19.93 192.109 19.79V10.565C192.109 10.425 192.179 10.355 192.319 10.355H195.769C196.459 10.355 197.004 10.555 197.404 10.955C197.804 11.345 198.004 11.885 198.004 12.575V13.94C198.004 14.5 197.869 14.965 197.599 15.335C197.329 15.695 196.954 15.935 196.474 16.055V16.115L198.214 19.76C198.304 19.92 198.254 20 198.064 20H197.389C197.219 20 197.094 19.93 197.014 19.79L195.334 16.16H193.354C193.254 16.16 193.204 16.205 193.204 16.295V19.79C193.204 19.93 193.134 20 192.994 20ZM193.354 15.245H195.619C196.479 15.245 196.909 14.815 196.909 13.955V12.62C196.909 11.75 196.479 11.315 195.619 11.315H193.354C193.254 11.315 193.204 11.36 193.204 11.45V15.11C193.204 15.2 193.254 15.245 193.354 15.245ZM203.435 7.46H204.335C204.405 7.46 204.45 7.48 204.47 7.52C204.49 7.56 204.48 7.61 204.44 7.67L203.12 9.245C203.04 9.345 202.945 9.395 202.835 9.395H202.34C202.2 9.395 202.17 9.325 202.25 9.185L203.105 7.655C203.175 7.525 203.285 7.46 203.435 7.46ZM205.085 20H200.375C200.235 20 200.165 19.93 200.165 19.79V10.565C200.165 10.425 200.235 10.355 200.375 10.355H205.085C205.225 10.355 205.295 10.425 205.295 10.565V11.105C205.295 11.245 205.225 11.315 205.085 11.315H201.41C201.31 11.315 201.26 11.36 201.26 11.45V14.48C201.26 14.57 201.31 14.615 201.41 14.615H204.62C204.76 14.615 204.83 14.685 204.83 14.825V15.365C204.83 15.505 204.76 15.575 204.62 15.575H201.41C201.31 15.575 201.26 15.62 201.26 15.71V18.905C201.26 18.995 201.31 19.04 201.41 19.04H205.085C205.225 19.04 205.295 19.11 205.295 19.25V19.79C205.295 19.93 205.225 20 205.085 20ZM208.258 20H207.583C207.443 20 207.373 19.93 207.373 19.79V10.565C207.373 10.425 207.443 10.355 207.583 10.355H212.248C212.388 10.355 212.458 10.425 212.458 10.565V11.105C212.458 11.245 212.388 11.315 212.248 11.315H208.618C208.518 11.315 208.468 11.36 208.468 11.45V14.72C208.468 14.81 208.518 14.855 208.618 14.855H211.828C211.968 14.855 212.038 14.925 212.038 15.065V15.605C212.038 15.745 211.968 15.815 211.828 15.815H208.618C208.518 15.815 208.468 15.865 208.468 15.965V19.79C208.468 19.93 208.398 20 208.258 20ZM217.498 7.46H218.398C218.468 7.46 218.513 7.48 218.533 7.52C218.553 7.56 218.543 7.61 218.503 7.67L217.183 9.245C217.103 9.345 217.008 9.395 216.898 9.395H216.403C216.263 9.395 216.233 9.325 216.313 9.185L217.168 7.655C217.238 7.525 217.348 7.46 217.498 7.46ZM219.148 20H214.438C214.298 20 214.228 19.93 214.228 19.79V10.565C214.228 10.425 214.298 10.355 214.438 10.355H219.148C219.288 10.355 219.358 10.425 219.358 10.565V11.105C219.358 11.245 219.288 11.315 219.148 11.315H215.473C215.373 11.315 215.323 11.36 215.323 11.45V14.48C215.323 14.57 215.373 14.615 215.473 14.615H218.683C218.823 14.615 218.893 14.685 218.893 14.825V15.365C218.893 15.505 218.823 15.575 218.683 15.575H215.473C215.373 15.575 215.323 15.62 215.323 15.71V18.905C215.323 18.995 215.373 19.04 215.473 19.04H219.148C219.288 19.04 219.358 19.11 219.358 19.25V19.79C219.358 19.93 219.288 20 219.148 20ZM222.32 20H221.645C221.505 20 221.435 19.93 221.435 19.79V10.565C221.435 10.425 221.505 10.355 221.645 10.355H225.095C225.785 10.355 226.33 10.555 226.73 10.955C227.13 11.345 227.33 11.885 227.33 12.575V13.94C227.33 14.5 227.195 14.965 226.925 15.335C226.655 15.695 226.28 15.935 225.8 16.055V16.115L227.54 19.76C227.63 19.92 227.58 20 227.39 20H226.715C226.545 20 226.42 19.93 226.34 19.79L224.66 16.16H222.68C222.58 16.16 222.53 16.205 222.53 16.295V19.79C222.53 19.93 222.46 20 222.32 20ZM222.68 15.245H224.945C225.805 15.245 226.235 14.815 226.235 13.955V12.62C226.235 11.75 225.805 11.315 224.945 11.315H222.68C222.58 11.315 222.53 11.36 222.53 11.45V15.11C222.53 15.2 222.58 15.245 222.68 15.245ZM232.762 7.46H233.662C233.732 7.46 233.777 7.48 233.797 7.52C233.817 7.56 233.807 7.61 233.767 7.67L232.447 9.245C232.367 9.345 232.272 9.395 232.162 9.395H231.667C231.527 9.395 231.497 9.325 231.577 9.185L232.432 7.655C232.502 7.525 232.612 7.46 232.762 7.46ZM234.412 20H229.702C229.562 20 229.492 19.93 229.492 19.79V10.565C229.492 10.425 229.562 10.355 229.702 10.355H234.412C234.552 10.355 234.622 10.425 234.622 10.565V11.105C234.622 11.245 234.552 11.315 234.412 11.315H230.737C230.637 11.315 230.587 11.36 230.587 11.45V14.48C230.587 14.57 230.637 14.615 230.737 14.615H233.947C234.087 14.615 234.157 14.685 234.157 14.825V15.365C234.157 15.505 234.087 15.575 233.947 15.575H230.737C230.637 15.575 230.587 15.62 230.587 15.71V18.905C230.587 18.995 230.637 19.04 230.737 19.04H234.412C234.552 19.04 234.622 19.11 234.622 19.25V19.79C234.622 19.93 234.552 20 234.412 20ZM241.619 20H236.909C236.769 20 236.699 19.93 236.699 19.79V10.565C236.699 10.425 236.769 10.355 236.909 10.355H241.619C241.759 10.355 241.829 10.425 241.829 10.565V11.105C241.829 11.245 241.759 11.315 241.619 11.315H237.944C237.844 11.315 237.794 11.36 237.794 11.45V14.48C237.794 14.57 237.844 14.615 237.944 14.615H241.154C241.294 14.615 241.364 14.685 241.364 14.825V15.365C241.364 15.505 241.294 15.575 241.154 15.575H237.944C237.844 15.575 237.794 15.62 237.794 15.71V18.905C237.794 18.995 237.844 19.04 237.944 19.04H241.619C241.759 19.04 241.829 19.11 241.829 19.25V19.79C241.829 19.93 241.759 20 241.619 20ZM249.904 19.04H251.434C252.274 19.04 252.694 18.605 252.694 17.735V12.62C252.694 11.75 252.274 11.315 251.434 11.315H249.904C249.074 11.315 248.659 11.75 248.659 12.62V17.735C248.659 18.605 249.074 19.04 249.904 19.04ZM251.569 20H249.784C249.094 20 248.549 19.805 248.149 19.415C247.759 19.025 247.564 18.48 247.564 17.78V12.575C247.564 11.875 247.759 11.33 248.149 10.94C248.549 10.55 249.094 10.355 249.784 10.355H251.569C252.259 10.355 252.799 10.555 253.189 10.955C253.589 11.345 253.789 11.885 253.789 12.575V17.78C253.789 18.47 253.589 19.015 253.189 19.415C252.799 19.805 252.259 20 251.569 20ZM261.135 10.355H261.81C261.95 10.355 262.02 10.42 262.02 10.55V17.78C262.02 18.48 261.825 19.025 261.435 19.415C261.045 19.805 260.505 20 259.815 20H258.15C257.46 20 256.915 19.805 256.515 19.415C256.125 19.025 255.93 18.48 255.93 17.78V10.565C255.93 10.425 256 10.355 256.14 10.355H256.815C256.955 10.355 257.025 10.425 257.025 10.565V17.735C257.025 18.605 257.44 19.04 258.27 19.04H259.68C260.52 19.04 260.94 18.605 260.94 17.735V10.565C260.94 10.425 261.005 10.355 261.135 10.355ZM273.145 20H268.33C268.19 20 268.12 19.93 268.12 19.79V10.565C268.12 10.425 268.19 10.355 268.33 10.355H269.005C269.145 10.355 269.215 10.425 269.215 10.565V18.875C269.215 18.965 269.265 19.01 269.365 19.01H273.145C273.285 19.01 273.355 19.085 273.355 19.235V19.79C273.355 19.93 273.285 20 273.145 20ZM275.007 20H274.257C274.127 20 274.082 19.93 274.122 19.79L276.927 10.565C276.967 10.425 277.062 10.355 277.212 10.355H278.292C278.442 10.355 278.537 10.425 278.577 10.565L281.382 19.79C281.422 19.93 281.377 20 281.247 20H280.482C280.372 20 280.302 19.93 280.272 19.79L279.567 17.6H275.937L275.232 19.79C275.192 19.93 275.117 20 275.007 20ZM277.722 11.48L276.177 16.67H279.327L277.782 11.48H277.722ZM39.1746 40H37.3746C36.6846 40 36.1396 39.805 35.7396 39.415C35.3496 39.025 35.1546 38.48 35.1546 37.78V32.575C35.1546 31.875 35.3496 31.33 35.7396 30.94C36.1396 30.55 36.6846 30.355 37.3746 30.355H39.1746C39.8646 30.355 40.4046 30.55 40.7946 30.94C41.1946 31.33 41.3946 31.875 41.3946 32.575V33.31C41.3946 33.45 41.3246 33.52 41.1846 33.52H40.5096C40.3696 33.52 40.2996 33.45 40.2996 33.31V32.62C40.2996 31.75 39.8796 31.315 39.0396 31.315H37.4946C36.6646 31.315 36.2496 31.75 36.2496 32.62V37.735C36.2496 38.605 36.6646 39.04 37.4946 39.04H39.0396C39.8796 39.04 40.2996 38.605 40.2996 37.735V37.045C40.2996 36.905 40.3696 36.835 40.5096 36.835H41.1846C41.3246 36.835 41.3946 36.905 41.3946 37.045V37.78C41.3946 38.48 41.1946 39.025 40.7946 39.415C40.4046 39.805 39.8646 40 39.1746 40ZM43.5399 40H42.7899C42.6599 40 42.6149 39.93 42.6549 39.79L45.4599 30.565C45.4999 30.425 45.5949 30.355 45.7449 30.355H46.8249C46.9749 30.355 47.0699 30.425 47.1099 30.565L49.9149 39.79C49.9549 39.93 49.9099 40 49.7799 40H49.0149C48.9049 40 48.8349 39.93 48.8049 39.79L48.0999 37.6H44.4699L43.7649 39.79C43.7249 39.93 43.6499 40 43.5399 40ZM46.2549 31.48L44.7099 36.67H47.8599L46.3149 31.48H46.2549ZM52.4054 40H51.7304C51.5904 40 51.5204 39.93 51.5204 39.79V30.565C51.5204 30.425 51.5904 30.355 51.7304 30.355H55.1804C55.8704 30.355 56.4154 30.555 56.8154 30.955C57.2154 31.345 57.4154 31.885 57.4154 32.575V33.94C57.4154 34.5 57.2804 34.965 57.0104 35.335C56.7404 35.695 56.3654 35.935 55.8854 36.055V36.115L57.6254 39.76C57.7154 39.92 57.6654 40 57.4754 40H56.8004C56.6304 40 56.5054 39.93 56.4254 39.79L54.7454 36.16H52.7654C52.6654 36.16 52.6154 36.205 52.6154 36.295V39.79C52.6154 39.93 52.5454 40 52.4054 40ZM52.7654 35.245H55.0304C55.8904 35.245 56.3204 34.815 56.3204 33.955V32.62C56.3204 31.75 55.8904 31.315 55.0304 31.315H52.7654C52.6654 31.315 52.6154 31.36 52.6154 31.45V35.11C52.6154 35.2 52.6654 35.245 52.7654 35.245ZM61.9321 40H61.2571C61.1171 40 61.0471 39.93 61.0471 39.79V31.45C61.0471 31.36 60.9971 31.315 60.8971 31.315H58.8571C58.7071 31.315 58.6321 31.245 58.6321 31.105V30.565C58.6321 30.425 58.7071 30.355 58.8571 30.355H64.3321C64.4821 30.355 64.5571 30.425 64.5571 30.565V31.105C64.5571 31.245 64.4821 31.315 64.3321 31.315H62.2921C62.1921 31.315 62.1421 31.36 62.1421 31.45V39.79C62.1421 39.93 62.0721 40 61.9321 40ZM70.8985 40H66.1885C66.0485 40 65.9785 39.93 65.9785 39.79V30.565C65.9785 30.425 66.0485 30.355 66.1885 30.355H70.8985C71.0385 30.355 71.1085 30.425 71.1085 30.565V31.105C71.1085 31.245 71.0385 31.315 70.8985 31.315H67.2235C67.1235 31.315 67.0735 31.36 67.0735 31.45V34.48C67.0735 34.57 67.1235 34.615 67.2235 34.615H70.4335C70.5735 34.615 70.6435 34.685 70.6435 34.825V35.365C70.6435 35.505 70.5735 35.575 70.4335 35.575H67.2235C67.1235 35.575 67.0735 35.62 67.0735 35.71V38.905C67.0735 38.995 67.1235 39.04 67.2235 39.04H70.8985C71.0385 39.04 71.1085 39.11 71.1085 39.25V39.79C71.1085 39.93 71.0385 40 70.8985 40ZM76.8891 37.78V37.3C76.8891 37.16 76.9591 37.09 77.0991 37.09H77.7741C77.9141 37.09 77.9841 37.16 77.9841 37.3V37.69C77.9841 38.59 78.4291 39.04 79.3191 39.04H80.6391C81.5291 39.04 81.9741 38.58 81.9741 37.66V37.15C81.9741 36.43 81.3791 35.96 80.1891 35.74C79.6891 35.65 79.1891 35.545 78.6891 35.425C78.1891 35.305 77.7641 35.075 77.4141 34.735C77.0641 34.385 76.8891 33.91 76.8891 33.31V32.575C76.8891 31.885 77.0841 31.345 77.4741 30.955C77.8741 30.555 78.4191 30.355 79.1091 30.355H80.7741C81.4541 30.355 81.9941 30.555 82.3941 30.955C82.7941 31.345 82.9941 31.885 82.9941 32.575V32.95C82.9941 33.1 82.9291 33.175 82.7991 33.175H82.1091C81.9791 33.175 81.9141 33.1 81.9141 32.95V32.68C81.9141 31.77 81.4691 31.315 80.5791 31.315H79.3041C78.4141 31.315 77.9691 31.79 77.9691 32.74V33.34C77.9691 33.85 78.3041 34.2 78.9741 34.39C79.2741 34.47 79.6041 34.545 79.9641 34.615C80.3241 34.675 80.6841 34.76 81.0441 34.87C81.4141 34.97 81.7491 35.1 82.0491 35.26C82.3491 35.41 82.5891 35.645 82.7691 35.965C82.9591 36.275 83.0541 36.655 83.0541 37.105V37.78C83.0541 38.47 82.8541 39.015 82.4541 39.415C82.0541 39.805 81.5141 40 80.8341 40H79.1091C78.4291 40 77.8891 39.805 77.4891 39.415C77.0891 39.015 76.8891 38.47 76.8891 37.78ZM90.2344 40H85.5244C85.3844 40 85.3144 39.93 85.3144 39.79V30.565C85.3144 30.425 85.3844 30.355 85.5244 30.355H90.2344C90.3744 30.355 90.4444 30.425 90.4444 30.565V31.105C90.4444 31.245 90.3744 31.315 90.2344 31.315H86.5594C86.4594 31.315 86.4094 31.36 86.4094 31.45V34.48C86.4094 34.57 86.4594 34.615 86.5594 34.615H89.7694C89.9094 34.615 89.9794 34.685 89.9794 34.825V35.365C89.9794 35.505 89.9094 35.575 89.7694 35.575H86.5594C86.4594 35.575 86.4094 35.62 86.4094 35.71V38.905C86.4094 38.995 86.4594 39.04 86.5594 39.04H90.2344C90.3744 39.04 90.4444 39.11 90.4444 39.25V39.79C90.4444 39.93 90.3744 40 90.2344 40ZM97.215 40H96.54C96.4 40 96.33 39.93 96.33 39.79V30.565C96.33 30.425 96.4 30.355 96.54 30.355H99.99C100.68 30.355 101.225 30.555 101.625 30.955C102.025 31.345 102.225 31.885 102.225 32.575V33.94C102.225 34.5 102.09 34.965 101.82 35.335C101.55 35.695 101.175 35.935 100.695 36.055V36.115L102.435 39.76C102.525 39.92 102.475 40 102.285 40H101.61C101.44 40 101.315 39.93 101.235 39.79L99.555 36.16H97.575C97.475 36.16 97.425 36.205 97.425 36.295V39.79C97.425 39.93 97.355 40 97.215 40ZM97.575 35.245H99.84C100.7 35.245 101.13 34.815 101.13 33.955V32.62C101.13 31.75 100.7 31.315 99.84 31.315H97.575C97.475 31.315 97.425 31.36 97.425 31.45V35.11C97.425 35.2 97.475 35.245 97.575 35.245ZM109.307 40H104.597C104.457 40 104.387 39.93 104.387 39.79V30.565C104.387 30.425 104.457 30.355 104.597 30.355H109.307C109.447 30.355 109.517 30.425 109.517 30.565V31.105C109.517 31.245 109.447 31.315 109.307 31.315H105.632C105.532 31.315 105.482 31.36 105.482 31.45V34.48C105.482 34.57 105.532 34.615 105.632 34.615H108.842C108.982 34.615 109.052 34.685 109.052 34.825V35.365C109.052 35.505 108.982 35.575 108.842 35.575H105.632C105.532 35.575 105.482 35.62 105.482 35.71V38.905C105.482 38.995 105.532 39.04 105.632 39.04H109.307C109.447 39.04 109.517 39.11 109.517 39.25V39.79C109.517 39.93 109.447 40 109.307 40ZM112.464 40H111.804C111.664 40 111.594 39.93 111.594 39.79V30.565C111.594 30.425 111.664 30.355 111.804 30.355H112.419C112.539 30.355 112.619 30.395 112.659 30.475L116.799 37.75H116.859V30.565C116.859 30.425 116.929 30.355 117.069 30.355H117.729C117.869 30.355 117.939 30.425 117.939 30.565V39.79C117.939 39.93 117.869 40 117.729 40H117.174C117.064 40 116.959 39.935 116.859 39.805L112.734 32.605H112.674V39.79C112.674 39.93 112.604 40 112.464 40ZM122.5 39.04H124.03C124.87 39.04 125.29 38.605 125.29 37.735V32.62C125.29 31.75 124.87 31.315 124.03 31.315H122.5C121.67 31.315 121.255 31.75 121.255 32.62V37.735C121.255 38.605 121.67 39.04 122.5 39.04ZM124.165 40H122.38C121.69 40 121.145 39.805 120.745 39.415C120.355 39.025 120.16 38.48 120.16 37.78V32.575C120.16 31.875 120.355 31.33 120.745 30.94C121.145 30.55 121.69 30.355 122.38 30.355H124.165C124.855 30.355 125.395 30.555 125.785 30.955C126.185 31.345 126.385 31.885 126.385 32.575V37.78C126.385 38.47 126.185 39.015 125.785 39.415C125.395 39.805 124.855 40 124.165 40ZM133.731 30.355H134.406C134.546 30.355 134.616 30.42 134.616 30.55V37.78C134.616 38.48 134.421 39.025 134.031 39.415C133.641 39.805 133.101 40 132.411 40H130.746C130.056 40 129.511 39.805 129.111 39.415C128.721 39.025 128.526 38.48 128.526 37.78V30.565C128.526 30.425 128.596 30.355 128.736 30.355H129.411C129.551 30.355 129.621 30.425 129.621 30.565V37.735C129.621 38.605 130.036 39.04 130.866 39.04H132.276C133.116 39.04 133.536 38.605 133.536 37.735V30.565C133.536 30.425 133.601 30.355 133.731 30.355ZM140.056 40H138.991C138.861 40 138.776 39.93 138.736 39.79L136.081 30.58C136.051 30.43 136.116 30.355 136.276 30.355H137.011C137.141 30.355 137.221 30.425 137.251 30.565L139.486 38.77H139.546L141.781 30.565C141.811 30.425 141.891 30.355 142.021 30.355H142.771C142.921 30.355 142.981 30.43 142.951 30.58L140.296 39.79C140.256 39.93 140.176 40 140.056 40ZM149.414 40H144.704C144.564 40 144.494 39.93 144.494 39.79V30.565C144.494 30.425 144.564 30.355 144.704 30.355H149.414C149.554 30.355 149.624 30.425 149.624 30.565V31.105C149.624 31.245 149.554 31.315 149.414 31.315H145.739C145.639 31.315 145.589 31.36 145.589 31.45V34.48C145.589 34.57 145.639 34.615 145.739 34.615H148.949C149.089 34.615 149.159 34.685 149.159 34.825V35.365C149.159 35.505 149.089 35.575 148.949 35.575H145.739C145.639 35.575 145.589 35.62 145.589 35.71V38.905C145.589 38.995 145.639 39.04 145.739 39.04H149.414C149.554 39.04 149.624 39.11 149.624 39.25V39.79C149.624 39.93 149.554 40 149.414 40ZM156.726 40H151.911C151.771 40 151.701 39.93 151.701 39.79V30.565C151.701 30.425 151.771 30.355 151.911 30.355H152.586C152.726 30.355 152.796 30.425 152.796 30.565V38.875C152.796 38.965 152.846 39.01 152.946 39.01H156.726C156.866 39.01 156.936 39.085 156.936 39.235V39.79C156.936 39.93 156.866 40 156.726 40ZM163.494 40H158.679C158.539 40 158.469 39.93 158.469 39.79V30.565C158.469 30.425 158.539 30.355 158.679 30.355H159.354C159.494 30.355 159.564 30.425 159.564 30.565V38.875C159.564 38.965 159.614 39.01 159.714 39.01H163.494C163.634 39.01 163.704 39.085 163.704 39.235V39.79C163.704 39.93 163.634 40 163.494 40ZM170.156 40H165.446C165.306 40 165.236 39.93 165.236 39.79V30.565C165.236 30.425 165.306 30.355 165.446 30.355H170.156C170.296 30.355 170.366 30.425 170.366 30.565V31.105C170.366 31.245 170.296 31.315 170.156 31.315H166.481C166.381 31.315 166.331 31.36 166.331 31.45V34.48C166.331 34.57 166.381 34.615 166.481 34.615H169.691C169.831 34.615 169.901 34.685 169.901 34.825V35.365C169.901 35.505 169.831 35.575 169.691 35.575H166.481C166.381 35.575 166.331 35.62 166.331 35.71V38.905C166.331 38.995 166.381 39.04 166.481 39.04H170.156C170.296 39.04 170.366 39.11 170.366 39.25V39.79C170.366 39.93 170.296 40 170.156 40ZM176.147 37.78V37.3C176.147 37.16 176.217 37.09 176.357 37.09H177.032C177.172 37.09 177.242 37.16 177.242 37.3V37.69C177.242 38.59 177.687 39.04 178.577 39.04H179.897C180.787 39.04 181.232 38.58 181.232 37.66V37.15C181.232 36.43 180.637 35.96 179.447 35.74C178.947 35.65 178.447 35.545 177.947 35.425C177.447 35.305 177.022 35.075 176.672 34.735C176.322 34.385 176.147 33.91 176.147 33.31V32.575C176.147 31.885 176.342 31.345 176.732 30.955C177.132 30.555 177.677 30.355 178.367 30.355H180.032C180.712 30.355 181.252 30.555 181.652 30.955C182.052 31.345 182.252 31.885 182.252 32.575V32.95C182.252 33.1 182.187 33.175 182.057 33.175H181.367C181.237 33.175 181.172 33.1 181.172 32.95V32.68C181.172 31.77 180.727 31.315 179.837 31.315H178.562C177.672 31.315 177.227 31.79 177.227 32.74V33.34C177.227 33.85 177.562 34.2 178.232 34.39C178.532 34.47 178.862 34.545 179.222 34.615C179.582 34.675 179.942 34.76 180.302 34.87C180.672 34.97 181.007 35.1 181.307 35.26C181.607 35.41 181.847 35.645 182.027 35.965C182.217 36.275 182.312 36.655 182.312 37.105V37.78C182.312 38.47 182.112 39.015 181.712 39.415C181.312 39.805 180.772 40 180.092 40H178.367C177.687 40 177.147 39.805 176.747 39.415C176.347 39.015 176.147 38.47 176.147 37.78ZM184.692 40H183.942C183.812 40 183.767 39.93 183.807 39.79L186.612 30.565C186.652 30.425 186.747 30.355 186.897 30.355H187.977C188.127 30.355 188.222 30.425 188.262 30.565L191.067 39.79C191.107 39.93 191.062 40 190.932 40H190.167C190.057 40 189.987 39.93 189.957 39.79L189.252 37.6H185.622L184.917 39.79C184.877 39.93 184.802 40 184.692 40ZM187.407 31.48L185.862 36.67H189.012L187.467 31.48H187.407ZM193.543 40H192.883C192.743 40 192.673 39.93 192.673 39.79V30.565C192.673 30.425 192.743 30.355 192.883 30.355H193.498C193.618 30.355 193.698 30.395 193.738 30.475L197.878 37.75H197.938V30.565C197.938 30.425 198.008 30.355 198.148 30.355H198.808C198.948 30.355 199.018 30.425 199.018 30.565V39.79C199.018 39.93 198.948 40 198.808 40H198.253C198.143 40 198.038 39.935 197.938 39.805L193.813 32.605H193.753V39.79C193.753 39.93 193.683 40 193.543 40ZM201.284 37.78V37.3C201.284 37.16 201.354 37.09 201.494 37.09H202.169C202.309 37.09 202.379 37.16 202.379 37.3V37.69C202.379 38.59 202.824 39.04 203.714 39.04H205.034C205.924 39.04 206.369 38.58 206.369 37.66V37.15C206.369 36.43 205.774 35.96 204.584 35.74C204.084 35.65 203.584 35.545 203.084 35.425C202.584 35.305 202.159 35.075 201.809 34.735C201.459 34.385 201.284 33.91 201.284 33.31V32.575C201.284 31.885 201.479 31.345 201.869 30.955C202.269 30.555 202.814 30.355 203.504 30.355H205.169C205.849 30.355 206.389 30.555 206.789 30.955C207.189 31.345 207.389 31.885 207.389 32.575V32.95C207.389 33.1 207.324 33.175 207.194 33.175H206.504C206.374 33.175 206.309 33.1 206.309 32.95V32.68C206.309 31.77 205.864 31.315 204.974 31.315H203.699C202.809 31.315 202.364 31.79 202.364 32.74V33.34C202.364 33.85 202.699 34.2 203.369 34.39C203.669 34.47 203.999 34.545 204.359 34.615C204.719 34.675 205.079 34.76 205.439 34.87C205.809 34.97 206.144 35.1 206.444 35.26C206.744 35.41 206.984 35.645 207.164 35.965C207.354 36.275 207.449 36.655 207.449 37.105V37.78C207.449 38.47 207.249 39.015 206.849 39.415C206.449 39.805 205.909 40 205.229 40H203.504C202.824 40 202.284 39.805 201.884 39.415C201.484 39.015 201.284 38.47 201.284 37.78ZM217.388 40H215.588C214.898 40 214.353 39.805 213.953 39.415C213.563 39.025 213.368 38.48 213.368 37.78V32.575C213.368 31.875 213.563 31.33 213.953 30.94C214.353 30.55 214.898 30.355 215.588 30.355H217.388C218.078 30.355 218.618 30.55 219.008 30.94C219.408 31.33 219.608 31.875 219.608 32.575V33.31C219.608 33.45 219.538 33.52 219.398 33.52H218.723C218.583 33.52 218.513 33.45 218.513 33.31V32.62C218.513 31.75 218.093 31.315 217.253 31.315H215.708C214.878 31.315 214.463 31.75 214.463 32.62V37.735C214.463 38.605 214.878 39.04 215.708 39.04H217.253C218.093 39.04 218.513 38.605 218.513 37.735V37.045C218.513 36.905 218.583 36.835 218.723 36.835H219.398C219.538 36.835 219.608 36.905 219.608 37.045V37.78C219.608 38.48 219.408 39.025 219.008 39.415C218.618 39.805 218.078 40 217.388 40ZM226.553 40H221.843C221.703 40 221.633 39.93 221.633 39.79V30.565C221.633 30.425 221.703 30.355 221.843 30.355H226.553C226.693 30.355 226.763 30.425 226.763 30.565V31.105C226.763 31.245 226.693 31.315 226.553 31.315H222.878C222.778 31.315 222.728 31.36 222.728 31.45V34.48C222.728 34.57 222.778 34.615 222.878 34.615H226.088C226.228 34.615 226.298 34.685 226.298 34.825V35.365C226.298 35.505 226.228 35.575 226.088 35.575H222.878C222.778 35.575 222.728 35.62 222.728 35.71V38.905C222.728 38.995 222.778 39.04 222.878 39.04H226.553C226.693 39.04 226.763 39.11 226.763 39.25V39.79C226.763 39.93 226.693 40 226.553 40ZM228.735 37.78V37.3C228.735 37.16 228.805 37.09 228.945 37.09H229.62C229.76 37.09 229.83 37.16 229.83 37.3V37.69C229.83 38.59 230.275 39.04 231.165 39.04H232.485C233.375 39.04 233.82 38.58 233.82 37.66V37.15C233.82 36.43 233.225 35.96 232.035 35.74C231.535 35.65 231.035 35.545 230.535 35.425C230.035 35.305 229.61 35.075 229.26 34.735C228.91 34.385 228.735 33.91 228.735 33.31V32.575C228.735 31.885 228.93 31.345 229.32 30.955C229.72 30.555 230.265 30.355 230.955 30.355H232.62C233.3 30.355 233.84 30.555 234.24 30.955C234.64 31.345 234.84 31.885 234.84 32.575V32.95C234.84 33.1 234.775 33.175 234.645 33.175H233.955C233.825 33.175 233.76 33.1 233.76 32.95V32.68C233.76 31.77 233.315 31.315 232.425 31.315H231.15C230.26 31.315 229.815 31.79 229.815 32.74V33.34C229.815 33.85 230.15 34.2 230.82 34.39C231.12 34.47 231.45 34.545 231.81 34.615C232.17 34.675 232.53 34.76 232.89 34.87C233.26 34.97 233.595 35.1 233.895 35.26C234.195 35.41 234.435 35.645 234.615 35.965C234.805 36.275 234.9 36.655 234.9 37.105V37.78C234.9 38.47 234.7 39.015 234.3 39.415C233.9 39.805 233.36 40 232.68 40H230.955C230.275 40 229.735 39.805 229.335 39.415C228.935 39.015 228.735 38.47 228.735 37.78ZM237.055 37.78V37.3C237.055 37.16 237.125 37.09 237.265 37.09H237.94C238.08 37.09 238.15 37.16 238.15 37.3V37.69C238.15 38.59 238.595 39.04 239.485 39.04H240.805C241.695 39.04 242.14 38.58 242.14 37.66V37.15C242.14 36.43 241.545 35.96 240.355 35.74C239.855 35.65 239.355 35.545 238.855 35.425C238.355 35.305 237.93 35.075 237.58 34.735C237.23 34.385 237.055 33.91 237.055 33.31V32.575C237.055 31.885 237.25 31.345 237.64 30.955C238.04 30.555 238.585 30.355 239.275 30.355H240.94C241.62 30.355 242.16 30.555 242.56 30.955C242.96 31.345 243.16 31.885 243.16 32.575V32.95C243.16 33.1 243.095 33.175 242.965 33.175H242.275C242.145 33.175 242.08 33.1 242.08 32.95V32.68C242.08 31.77 241.635 31.315 240.745 31.315H239.47C238.58 31.315 238.135 31.79 238.135 32.74V33.34C238.135 33.85 238.47 34.2 239.14 34.39C239.44 34.47 239.77 34.545 240.13 34.615C240.49 34.675 240.85 34.76 241.21 34.87C241.58 34.97 241.915 35.1 242.215 35.26C242.515 35.41 242.755 35.645 242.935 35.965C243.125 36.275 243.22 36.655 243.22 37.105V37.78C243.22 38.47 243.02 39.015 242.62 39.415C242.22 39.805 241.68 40 241 40H239.275C238.595 40 238.055 39.805 237.655 39.415C237.255 39.015 237.055 38.47 237.055 37.78ZM250.4 40H245.69C245.55 40 245.48 39.93 245.48 39.79V30.565C245.48 30.425 245.55 30.355 245.69 30.355H250.4C250.54 30.355 250.61 30.425 250.61 30.565V31.105C250.61 31.245 250.54 31.315 250.4 31.315H246.725C246.625 31.315 246.575 31.36 246.575 31.45V34.48C246.575 34.57 246.625 34.615 246.725 34.615H249.935C250.075 34.615 250.145 34.685 250.145 34.825V35.365C250.145 35.505 250.075 35.575 249.935 35.575H246.725C246.625 35.575 246.575 35.62 246.575 35.71V38.905C246.575 38.995 246.625 39.04 246.725 39.04H250.4C250.54 39.04 250.61 39.11 250.61 39.25V39.79C250.61 39.93 250.54 40 250.4 40ZM256.481 32.305V30.565C256.481 30.425 256.551 30.355 256.691 30.355H257.486C257.626 30.355 257.696 30.425 257.696 30.565V32.305C257.696 33.255 257.666 34.18 257.606 35.08C257.546 35.98 257.506 36.49 257.486 36.61C257.466 36.73 257.401 36.79 257.291 36.79H256.886C256.756 36.79 256.686 36.715 256.676 36.565C256.636 36.175 256.591 35.49 256.541 34.51C256.501 33.53 256.481 32.795 256.481 32.305ZM257.666 37.975V39.79C257.666 39.93 257.596 40 257.456 40H256.736C256.606 40 256.541 39.925 256.541 39.775V37.975C256.541 37.845 256.606 37.78 256.736 37.78H257.456C257.596 37.78 257.666 37.845 257.666 37.975ZM260.746 30.55V31.42C260.746 31.65 260.676 31.975 260.536 32.395L260.026 33.82C259.996 33.89 259.941 33.925 259.861 33.925C259.751 33.925 259.696 33.865 259.696 33.745V30.565C259.696 30.425 259.766 30.355 259.906 30.355H260.551C260.681 30.355 260.746 30.42 260.746 30.55ZM263.056 30.55V31.42C263.056 31.67 262.981 31.995 262.831 32.395L262.336 33.82C262.306 33.89 262.241 33.925 262.141 33.925C262.051 33.925 262.006 33.865 262.006 33.745V30.565C262.006 30.425 262.071 30.355 262.201 30.355H262.861C262.991 30.355 263.056 30.42 263.056 30.55Z" fill="#686666"/>
    <path d="M73.906 49.5H77.266C78.136 49.5 78.906 49.71 79.576 50.13C80.256 50.55 80.786 51.155 81.166 51.945C81.546 52.735 81.736 53.67 81.736 54.75C81.736 55.83 81.546 56.765 81.166 57.555C80.786 58.345 80.256 58.95 79.576 59.37C78.906 59.79 78.136 60 77.266 60H73.906V49.5ZM77.011 58.755C78.061 58.755 78.856 58.405 79.396 57.705C79.946 57.005 80.221 56.02 80.221 54.75C80.221 53.48 79.946 52.495 79.396 51.795C78.856 51.095 78.061 50.745 77.011 50.745H75.271V58.755H77.011ZM86.0295 60.15C85.2895 60.15 84.6545 59.98 84.1245 59.64C83.6045 59.29 83.2095 58.82 82.9395 58.23C82.6795 57.64 82.5495 56.985 82.5495 56.265C82.5495 55.575 82.6695 54.945 82.9095 54.375C83.1595 53.795 83.5145 53.34 83.9745 53.01C84.4445 52.67 84.9995 52.5 85.6395 52.5C86.4595 52.5 87.1245 52.775 87.6345 53.325C88.1545 53.875 88.4145 54.635 88.4145 55.605C88.4145 55.775 88.3945 56.01 88.3545 56.31H83.8845C83.9145 57.18 84.1295 57.84 84.5295 58.29C84.9395 58.74 85.4695 58.965 86.1195 58.965C86.4295 58.965 86.7545 58.93 87.0945 58.86C87.4445 58.78 87.7495 58.67 88.0095 58.53L88.1295 59.7C87.5795 60 86.8795 60.15 86.0295 60.15ZM87.0795 55.395C87.0795 54.895 86.9545 54.49 86.7045 54.18C86.4645 53.86 86.1145 53.7 85.6545 53.7C85.2045 53.7 84.8295 53.84 84.5295 54.12C84.2395 54.4 84.0445 54.825 83.9445 55.395H87.0795ZM84.5595 50.325L86.7645 48.915V50.385L84.5595 51.24V50.325ZM92.5163 60.15C91.3963 60.15 90.5463 59.8 89.9663 59.1C89.3863 58.39 89.0963 57.48 89.0963 56.37C89.0963 55.22 89.3863 54.29 89.9663 53.58C90.5463 52.86 91.4063 52.5 92.5463 52.5C93.1563 52.5 93.7013 52.625 94.1813 52.875L93.9713 54.03C93.5213 53.79 93.0513 53.67 92.5613 53.67C91.8913 53.67 91.3663 53.905 90.9863 54.375C90.6163 54.835 90.4313 55.48 90.4313 56.31C90.4313 57.14 90.6213 57.795 91.0013 58.275C91.3913 58.755 91.9263 58.995 92.6063 58.995C93.1263 58.995 93.5863 58.875 93.9863 58.635L94.1663 59.805C93.9663 59.905 93.7163 59.985 93.4163 60.045C93.1163 60.115 92.8163 60.15 92.5163 60.15ZM97.9603 60.15C97.3003 60.15 96.7303 59.985 96.2503 59.655C95.7703 59.315 95.4003 58.855 95.1403 58.275C94.8903 57.695 94.7653 57.045 94.7653 56.325C94.7653 55.605 94.8903 54.955 95.1403 54.375C95.4003 53.795 95.7703 53.34 96.2503 53.01C96.7303 52.67 97.3003 52.5 97.9603 52.5C98.6103 52.5 99.1753 52.67 99.6553 53.01C100.135 53.34 100.5 53.795 100.75 54.375C101 54.955 101.125 55.605 101.125 56.325C101.125 57.045 101 57.695 100.75 58.275C100.5 58.855 100.135 59.315 99.6553 59.655C99.1753 59.985 98.6103 60.15 97.9603 60.15ZM97.9603 58.995C98.5403 58.995 98.9903 58.76 99.3103 58.29C99.6303 57.82 99.7903 57.165 99.7903 56.325C99.7903 55.485 99.6303 54.835 99.3103 54.375C98.9903 53.905 98.5403 53.67 97.9603 53.67C97.3603 53.67 96.9003 53.905 96.5803 54.375C96.2603 54.835 96.1003 55.485 96.1003 56.325C96.1003 57.175 96.2603 57.835 96.5803 58.305C96.9003 58.765 97.3603 58.995 97.9603 58.995ZM107.585 52.65V60H106.475L106.385 59.1C106.185 59.43 105.915 59.69 105.575 59.88C105.235 60.06 104.86 60.15 104.45 60.15C103.68 60.15 103.105 59.895 102.725 59.385C102.355 58.865 102.17 58.125 102.17 57.165V52.65H103.475V57C103.475 57.66 103.57 58.155 103.76 58.485C103.96 58.805 104.29 58.965 104.75 58.965C105.07 58.965 105.36 58.875 105.62 58.695C105.88 58.515 106.1 58.265 106.28 57.945V52.65H107.585ZM108.66 52.65H110.055L111.765 58.455L113.445 52.65H114.84L112.41 60H111.105L108.66 52.65ZM115.753 52.65H116.818L116.983 53.88C117.313 53.4 117.623 53.05 117.913 52.83C118.213 52.61 118.528 52.5 118.858 52.5C118.988 52.5 119.103 52.515 119.203 52.545L119.068 54.03C118.938 54 118.788 53.985 118.618 53.985C118.288 53.985 117.978 54.07 117.688 54.24C117.398 54.4 117.188 54.59 117.058 54.81V60H115.753V52.65ZM120.192 49.5H121.497V50.985H120.192V49.5ZM120.192 52.65H121.497V60H120.192V52.65ZM123.239 52.65H124.304L124.469 53.88C124.799 53.4 125.109 53.05 125.399 52.83C125.699 52.61 126.014 52.5 126.344 52.5C126.474 52.5 126.589 52.515 126.689 52.545L126.554 54.03C126.424 54 126.274 53.985 126.104 53.985C125.774 53.985 125.464 54.07 125.174 54.24C124.884 54.4 124.674 54.59 124.544 54.81V60H123.239V52.65ZM132.453 60.15C131.593 60.15 130.848 59.95 130.218 59.55L130.383 58.23C131.023 58.73 131.683 58.98 132.363 58.98C132.723 58.98 133.003 58.905 133.203 58.755C133.413 58.605 133.518 58.385 133.518 58.095C133.518 57.875 133.468 57.695 133.368 57.555C133.278 57.415 133.123 57.28 132.903 57.15C132.683 57.02 132.343 56.85 131.883 56.64C131.343 56.39 130.948 56.105 130.698 55.785C130.448 55.465 130.323 55.05 130.323 54.54C130.323 53.94 130.533 53.45 130.953 53.07C131.373 52.69 131.938 52.5 132.648 52.5C133.368 52.5 133.998 52.66 134.538 52.98L134.373 54.195C134.103 54.015 133.848 53.885 133.608 53.805C133.368 53.715 133.083 53.67 132.753 53.67C132.403 53.67 132.128 53.745 131.928 53.895C131.728 54.045 131.628 54.255 131.628 54.525C131.628 54.795 131.713 55 131.883 55.14C132.063 55.28 132.408 55.465 132.918 55.695C133.628 56.015 134.128 56.34 134.418 56.67C134.708 56.99 134.853 57.415 134.853 57.945C134.853 58.635 134.638 59.175 134.208 59.565C133.778 59.955 133.193 60.15 132.453 60.15ZM141.233 52.65V60H140.123L140.033 59.1C139.833 59.43 139.563 59.69 139.223 59.88C138.883 60.06 138.508 60.15 138.098 60.15C137.328 60.15 136.753 59.895 136.373 59.385C136.003 58.865 135.818 58.125 135.818 57.165V52.65H137.123V57C137.123 57.66 137.218 58.155 137.408 58.485C137.608 58.805 137.938 58.965 138.398 58.965C138.718 58.965 139.008 58.875 139.268 58.695C139.528 58.515 139.748 58.265 139.928 57.945V52.65H141.233ZM143.102 52.65H144.167L144.332 53.88C144.662 53.4 144.972 53.05 145.262 52.83C145.562 52.61 145.877 52.5 146.207 52.5C146.337 52.5 146.452 52.515 146.552 52.545L146.417 54.03C146.287 54 146.137 53.985 145.967 53.985C145.637 53.985 145.327 54.07 145.037 54.24C144.747 54.4 144.537 54.59 144.407 54.81V60H143.102V52.65Z" fill="#8F8F8F"/>
    <path d="M151.825 60V49.5H156.385C157.405 49.5 158.225 49.78 158.845 50.34C159.465 50.89 159.775 51.62 159.775 52.53C159.775 53.44 159.46 54.175 158.83 54.735C158.21 55.295 157.395 55.575 156.385 55.575H152.98V60H151.825ZM156.295 50.535H152.98V54.57H156.295C157.005 54.57 157.57 54.39 157.99 54.03C158.41 53.66 158.62 53.165 158.62 52.545C158.62 51.925 158.41 51.435 157.99 51.075C157.57 50.715 157.005 50.535 156.295 50.535ZM167.144 59.205C166.724 59.515 166.284 59.75 165.824 59.91C165.374 60.06 164.879 60.135 164.339 60.135C163.799 60.135 163.289 60.035 162.809 59.835C162.339 59.635 161.929 59.36 161.579 59.01C161.239 58.66 160.969 58.25 160.769 57.78C160.569 57.3 160.469 56.785 160.469 56.235C160.469 55.695 160.564 55.19 160.754 54.72C160.954 54.25 161.219 53.84 161.549 53.49C161.879 53.14 162.269 52.865 162.719 52.665C163.179 52.465 163.664 52.365 164.174 52.365C164.674 52.365 165.139 52.465 165.569 52.665C166.009 52.865 166.384 53.14 166.694 53.49C167.014 53.84 167.264 54.25 167.444 54.72C167.634 55.19 167.729 55.695 167.729 56.235V56.58H161.564C161.644 57.32 161.949 57.935 162.479 58.425C163.009 58.915 163.644 59.16 164.384 59.16C164.774 59.16 165.154 59.1 165.524 58.98C165.894 58.86 166.204 58.69 166.454 58.47L167.144 59.205ZM164.144 53.34C163.494 53.34 162.929 53.56 162.449 54C161.979 54.44 161.694 55.005 161.594 55.695H166.619C166.519 55.035 166.234 54.48 165.764 54.03C165.304 53.57 164.764 53.34 164.144 53.34ZM169.918 58.32V53.43H168.298V52.485H169.918V50.58L171.013 50.295V52.485H173.278V53.43H171.013V58.035C171.013 58.435 171.103 58.725 171.283 58.905C171.463 59.075 171.758 59.16 172.168 59.16C172.378 59.16 172.563 59.145 172.723 59.115C172.893 59.085 173.073 59.035 173.263 58.965V59.94C173.073 60.01 172.858 60.06 172.618 60.09C172.388 60.12 172.163 60.135 171.943 60.135C171.293 60.135 170.793 59.98 170.443 59.67C170.093 59.36 169.918 58.91 169.918 58.32ZM175.021 51.045C174.821 51.045 174.646 50.97 174.496 50.82C174.346 50.67 174.271 50.495 174.271 50.295C174.271 50.085 174.346 49.91 174.496 49.77C174.646 49.62 174.821 49.545 175.021 49.545C175.231 49.545 175.406 49.62 175.546 49.77C175.696 49.91 175.771 50.085 175.771 50.295C175.771 50.495 175.696 50.67 175.546 50.82C175.406 50.97 175.231 51.045 175.021 51.045ZM175.576 52.485V60H174.466V52.485H175.576ZM178.399 58.32V53.43H176.779V52.485H178.399V50.58L179.494 50.295V52.485H181.759V53.43H179.494V58.035C179.494 58.435 179.584 58.725 179.764 58.905C179.944 59.075 180.239 59.16 180.649 59.16C180.859 59.16 181.044 59.145 181.204 59.115C181.374 59.085 181.554 59.035 181.744 58.965V59.94C181.554 60.01 181.339 60.06 181.099 60.09C180.869 60.12 180.644 60.135 180.424 60.135C179.774 60.135 179.274 59.98 178.924 59.67C178.574 59.36 178.399 58.91 178.399 58.32ZM189.044 59.205C188.624 59.515 188.184 59.75 187.724 59.91C187.274 60.06 186.779 60.135 186.239 60.135C185.699 60.135 185.189 60.035 184.709 59.835C184.239 59.635 183.829 59.36 183.479 59.01C183.139 58.66 182.869 58.25 182.669 57.78C182.469 57.3 182.369 56.785 182.369 56.235C182.369 55.695 182.464 55.19 182.654 54.72C182.854 54.25 183.119 53.84 183.449 53.49C183.779 53.14 184.169 52.865 184.619 52.665C185.079 52.465 185.564 52.365 186.074 52.365C186.574 52.365 187.039 52.465 187.469 52.665C187.909 52.865 188.284 53.14 188.594 53.49C188.914 53.84 189.164 54.25 189.344 54.72C189.534 55.19 189.629 55.695 189.629 56.235V56.58H183.464C183.544 57.32 183.849 57.935 184.379 58.425C184.909 58.915 185.544 59.16 186.284 59.16C186.674 59.16 187.054 59.1 187.424 58.98C187.794 58.86 188.104 58.69 188.354 58.47L189.044 59.205ZM186.044 53.34C185.394 53.34 184.829 53.56 184.349 54C183.879 54.44 183.594 55.005 183.494 55.695H188.519C188.419 55.035 188.134 54.48 187.664 54.03C187.204 53.57 186.664 53.34 186.044 53.34ZM194.613 60V49.5H202.128V50.52H195.768V54.27H199.938V55.275H195.768V60H194.613ZM204.771 60.135C203.951 60.135 203.281 59.925 202.761 59.505C202.251 59.085 201.996 58.54 201.996 57.87C201.996 57.17 202.266 56.615 202.806 56.205C203.346 55.785 204.076 55.575 204.996 55.575C205.396 55.575 205.781 55.62 206.151 55.71C206.531 55.8 206.881 55.925 207.201 56.085V55.095C207.201 54.495 207.031 54.045 206.691 53.745C206.351 53.435 205.856 53.28 205.206 53.28C204.836 53.28 204.461 53.335 204.081 53.445C203.711 53.545 203.301 53.71 202.851 53.94L202.431 53.085C202.971 52.825 203.471 52.635 203.931 52.515C204.391 52.395 204.851 52.335 205.311 52.335C206.261 52.335 206.991 52.56 207.501 53.01C208.021 53.46 208.281 54.105 208.281 54.945V60H207.201V59.265C206.861 59.555 206.486 59.775 206.076 59.925C205.676 60.065 205.241 60.135 204.771 60.135ZM203.061 57.84C203.061 58.26 203.236 58.605 203.586 58.875C203.946 59.135 204.406 59.265 204.966 59.265C205.416 59.265 205.826 59.195 206.196 59.055C206.566 58.915 206.901 58.695 207.201 58.395V56.985C206.891 56.775 206.556 56.625 206.196 56.535C205.846 56.435 205.456 56.385 205.026 56.385C204.426 56.385 203.946 56.52 203.586 56.79C203.236 57.05 203.061 57.4 203.061 57.84ZM210.69 51.045C210.49 51.045 210.315 50.97 210.165 50.82C210.015 50.67 209.94 50.495 209.94 50.295C209.94 50.085 210.015 49.91 210.165 49.77C210.315 49.62 210.49 49.545 210.69 49.545C210.9 49.545 211.075 49.62 211.215 49.77C211.365 49.91 211.44 50.085 211.44 50.295C211.44 50.495 211.365 50.67 211.215 50.82C211.075 50.97 210.9 51.045 210.69 51.045ZM211.245 52.485V60H210.135V52.485H211.245ZM213.138 60V52.485H214.248V53.31C214.528 52.99 214.853 52.75 215.223 52.59C215.593 52.42 216.003 52.335 216.453 52.335C216.973 52.335 217.438 52.46 217.848 52.71C218.268 52.95 218.593 53.28 218.823 53.7C219.133 53.24 219.503 52.9 219.933 52.68C220.373 52.45 220.863 52.335 221.403 52.335C222.213 52.335 222.873 52.605 223.383 53.145C223.903 53.685 224.163 54.385 224.163 55.245V60H223.068V55.47C223.068 54.81 222.893 54.285 222.543 53.895C222.193 53.505 221.718 53.31 221.118 53.31C220.708 53.31 220.333 53.415 219.993 53.625C219.653 53.835 219.363 54.14 219.123 54.54C219.143 54.65 219.158 54.765 219.168 54.885C219.188 54.995 219.198 55.115 219.198 55.245V60H218.103V55.47C218.103 54.81 217.928 54.285 217.578 53.895C217.228 53.505 216.758 53.31 216.168 53.31C215.768 53.31 215.403 53.405 215.073 53.595C214.753 53.775 214.478 54.045 214.248 54.405V60H213.138Z" fill="#C54B25"/>
    <path d="M127.02 82.1411C127.02 81.9995 127.008 81.897 126.983 81.8335C126.964 81.77 126.954 81.7114 126.954 81.6577C126.954 81.5845 126.993 81.5234 127.071 81.4746C127.149 81.4258 127.242 81.4014 127.35 81.4014C127.599 81.4014 127.799 81.4673 127.95 81.5991C128.106 81.7261 128.185 81.8823 128.185 82.0679V86.9678C128.355 86.9482 128.548 86.8994 128.763 86.8213C128.983 86.7432 129.208 86.6357 129.437 86.499C129.667 86.3574 129.889 86.1841 130.104 85.979C130.323 85.7739 130.519 85.5347 130.689 85.2612C130.86 84.9878 130.997 84.6802 131.1 84.3384C131.207 83.9917 131.261 83.6084 131.261 83.1885C131.261 82.9053 131.214 82.6123 131.122 82.3096C131.034 82.0068 130.892 81.731 130.697 81.4819C130.501 81.2329 130.248 81.0278 129.935 80.8667C129.627 80.7056 129.254 80.625 128.814 80.625C128.214 80.625 127.699 80.7178 127.269 80.9033C126.839 81.0889 126.488 81.3379 126.214 81.6504C125.946 81.9629 125.748 82.3267 125.621 82.7417C125.494 83.1519 125.431 83.5864 125.431 84.0454C125.431 84.3774 125.458 84.6582 125.511 84.8877C125.57 85.1123 125.633 85.2979 125.702 85.4443C125.77 85.5859 125.833 85.6909 125.892 85.7593C125.951 85.8276 125.985 85.8667 125.995 85.8765C126.078 85.8521 126.136 85.8618 126.17 85.9058C126.205 85.9497 126.222 86.0083 126.222 86.0815C126.222 86.1499 126.197 86.2524 126.148 86.3892C126.104 86.5259 126.043 86.6553 125.965 86.7773C125.887 86.8945 125.797 86.9849 125.694 87.0483C125.592 87.1069 125.487 87.0947 125.379 87.0117C125.321 86.958 125.23 86.8604 125.108 86.7188C124.986 86.5771 124.864 86.3892 124.742 86.1548C124.625 85.9155 124.52 85.6299 124.427 85.2979C124.334 84.9609 124.288 84.5728 124.288 84.1333C124.288 83.4302 124.398 82.7954 124.618 82.229C124.837 81.6577 125.145 81.1694 125.541 80.7642C125.941 80.3589 126.417 80.0464 126.969 79.8267C127.521 79.6069 128.131 79.4971 128.8 79.4971C129.347 79.4971 129.842 79.5874 130.287 79.7681C130.736 79.9487 131.117 80.2026 131.429 80.5298C131.747 80.8521 131.991 81.2378 132.162 81.687C132.333 82.1362 132.418 82.627 132.418 83.1592C132.418 83.8135 132.301 84.4189 132.066 84.9756C131.832 85.5273 131.52 86.0181 131.129 86.4478C130.738 86.8774 130.287 87.2339 129.774 87.5171C129.266 87.8003 128.736 87.9932 128.185 88.0957V90.0732C128.185 90.2002 128.143 90.2881 128.06 90.3369C127.977 90.3906 127.879 90.4175 127.767 90.4175C127.679 90.4175 127.591 90.4053 127.503 90.3809C127.416 90.3564 127.335 90.3247 127.262 90.2856C127.193 90.2466 127.135 90.2002 127.086 90.1465C127.042 90.0977 127.02 90.0439 127.02 89.9854V82.1411ZM136.358 85.6348C136.358 85.9131 136.31 86.1987 136.212 86.4917C136.119 86.7847 135.978 87.063 135.787 87.3267C135.602 87.5854 135.37 87.8198 135.091 88.0298C134.818 88.2349 134.5 88.3911 134.139 88.4985C134.188 88.6255 134.251 88.7476 134.33 88.8647C134.413 88.9771 134.51 89.0747 134.623 89.1577C134.735 89.2407 134.864 89.3066 135.011 89.3555C135.162 89.4043 135.335 89.4287 135.531 89.4287C135.824 89.4287 136.075 89.375 136.285 89.2676C136.495 89.1553 136.671 89.0088 136.812 88.8281C136.959 88.6475 137.076 88.4448 137.164 88.2202C137.252 87.9956 137.318 87.7686 137.362 87.5391C137.396 87.373 137.464 87.2632 137.567 87.2095C137.674 87.1509 137.782 87.1362 137.889 87.1655C138.001 87.1948 138.097 87.2583 138.175 87.356C138.258 87.4487 138.292 87.561 138.277 87.6929C138.258 87.8442 138.224 88.0176 138.175 88.2129C138.131 88.4082 138.062 88.606 137.97 88.8062C137.877 89.0063 137.757 89.2041 137.611 89.3994C137.469 89.5898 137.293 89.7607 137.083 89.9121C136.874 90.0635 136.627 90.1855 136.344 90.2783C136.061 90.3711 135.736 90.4175 135.37 90.4175C135.028 90.4175 134.696 90.3491 134.374 90.2124C134.056 90.0806 133.773 89.8901 133.524 89.6411C133.28 89.3872 133.082 89.0771 132.931 88.7109C132.784 88.3398 132.711 87.9199 132.711 87.4512C132.711 86.9775 132.777 86.5381 132.909 86.1328C133.041 85.7227 133.214 85.3687 133.429 85.0708C133.644 84.7729 133.888 84.541 134.161 84.375C134.435 84.2041 134.715 84.1187 135.003 84.1187C135.213 84.1187 135.401 84.1553 135.567 84.2285C135.738 84.3018 135.882 84.4067 136 84.5435C136.117 84.6753 136.205 84.834 136.263 85.0195C136.327 85.2051 136.358 85.4102 136.358 85.6348ZM133.941 87.4072C133.941 87.4512 133.944 87.4951 133.949 87.5391C133.954 87.583 133.956 87.6294 133.956 87.6782C134.142 87.5903 134.31 87.478 134.461 87.3413C134.613 87.2046 134.742 87.0483 134.85 86.8726C134.957 86.6968 135.04 86.5063 135.099 86.3013C135.157 86.0913 135.187 85.874 135.187 85.6494C135.187 85.4834 135.157 85.354 135.099 85.2612C135.045 85.1685 134.969 85.1221 134.872 85.1221C134.75 85.1221 134.64 85.1636 134.542 85.2466C134.449 85.3296 134.366 85.4395 134.293 85.5762C134.225 85.708 134.166 85.8594 134.117 86.0303C134.073 86.1963 134.037 86.3647 134.007 86.5356C133.978 86.7065 133.958 86.8701 133.949 87.0264C133.939 87.1777 133.937 87.3047 133.941 87.4072ZM136.007 82.9468C136.119 82.9565 136.244 82.9639 136.38 82.9688C136.498 82.9785 136.639 82.9858 136.805 82.9907C136.971 82.9907 137.157 82.9932 137.362 82.998V80.4565C137.362 80.3491 137.352 80.2637 137.333 80.2002C137.318 80.1367 137.301 80.0879 137.281 80.0537C137.267 80.0146 137.25 79.9854 137.23 79.9658C137.215 79.9414 137.208 79.917 137.208 79.8926C137.208 79.8633 137.223 79.8389 137.252 79.8193C137.281 79.7998 137.32 79.7827 137.369 79.7681C137.418 79.7534 137.469 79.7437 137.523 79.7388C137.582 79.729 137.638 79.7241 137.691 79.7241C137.94 79.7241 138.136 79.79 138.277 79.9219C138.424 80.0488 138.497 80.2026 138.497 80.3833V83.0127C138.956 83.0127 139.439 83.0078 139.947 82.998C140.46 82.9883 140.973 82.9712 141.485 82.9468C141.554 82.8735 141.607 82.8467 141.646 82.8662C141.69 82.8857 141.717 82.9321 141.727 83.0054C141.742 83.0786 141.744 83.1689 141.734 83.2764C141.725 83.3838 141.705 83.4888 141.676 83.5913C141.646 83.689 141.605 83.7744 141.551 83.8477C141.502 83.9209 141.446 83.9575 141.383 83.9575C140.782 83.9722 140.25 83.9819 139.786 83.9868C139.327 83.9868 138.897 83.9868 138.497 83.9868V88.7402C138.497 88.9844 138.543 89.1602 138.636 89.2676C138.729 89.375 138.854 89.4287 139.01 89.4287C139.161 89.4287 139.291 89.375 139.398 89.2676C139.51 89.1602 139.605 89.0259 139.684 88.8647C139.767 88.7036 139.833 88.5303 139.881 88.3447C139.935 88.1543 139.979 87.9761 140.013 87.8101C140.042 87.6538 140.091 87.5415 140.16 87.4731C140.228 87.3999 140.299 87.3633 140.372 87.3633C140.431 87.3633 140.492 87.3828 140.555 87.4219C140.619 87.4561 140.675 87.5024 140.724 87.561C140.777 87.6196 140.819 87.6855 140.848 87.7588C140.882 87.832 140.899 87.9053 140.899 87.9785C140.899 87.9883 140.899 88.0005 140.899 88.0151C140.899 88.0298 140.895 88.0518 140.885 88.0811C140.821 88.3301 140.733 88.5913 140.621 88.8647C140.514 89.1382 140.372 89.3896 140.196 89.6191C140.025 89.8486 139.82 90.0391 139.581 90.1904C139.342 90.3418 139.061 90.4175 138.739 90.4175C138.539 90.4175 138.353 90.3857 138.182 90.3223C138.016 90.2637 137.872 90.166 137.75 90.0293C137.628 89.8975 137.533 89.7266 137.464 89.5166C137.396 89.3066 137.362 89.0527 137.362 88.7549V83.9868C137.196 83.9868 137.047 83.9868 136.915 83.9868C136.788 83.9819 136.681 83.9771 136.593 83.9722C136.49 83.9673 136.4 83.9624 136.322 83.9575C136.205 83.9575 136.102 83.9062 136.014 83.8037C135.921 83.6963 135.858 83.5791 135.824 83.4521C135.785 83.3252 135.78 83.2104 135.809 83.1079C135.833 83.0005 135.899 82.9468 136.007 82.9468ZM140.877 82.7856C140.755 82.7856 140.638 82.7612 140.526 82.7124C140.418 82.6636 140.323 82.5977 140.24 82.5146C140.162 82.4316 140.099 82.3364 140.05 82.229C140.001 82.1167 139.977 81.9971 139.977 81.8701C139.977 81.7383 140.001 81.6162 140.05 81.5039C140.099 81.3916 140.162 81.2964 140.24 81.2183C140.323 81.1353 140.418 81.0718 140.526 81.0278C140.638 80.979 140.755 80.9546 140.877 80.9546C141.009 80.9546 141.131 80.979 141.244 81.0278C141.356 81.0718 141.451 81.1353 141.529 81.2183C141.612 81.2964 141.676 81.3916 141.72 81.5039C141.769 81.6162 141.793 81.7383 141.793 81.8701C141.793 81.9971 141.769 82.1167 141.72 82.229C141.676 82.3364 141.612 82.4316 141.529 82.5146C141.451 82.5977 141.356 82.6636 141.244 82.7124C141.131 82.7612 141.009 82.7856 140.877 82.7856ZM141.222 88.7402C141.222 88.7744 141.224 88.8306 141.229 88.9087C141.234 88.9819 141.249 89.0576 141.273 89.1357C141.297 89.2139 141.336 89.2822 141.39 89.3408C141.444 89.3994 141.52 89.4287 141.617 89.4287C141.764 89.4287 141.891 89.375 141.998 89.2676C142.11 89.1602 142.206 89.0259 142.284 88.8647C142.367 88.7036 142.435 88.5303 142.489 88.3447C142.542 88.1543 142.586 87.9761 142.621 87.8101C142.65 87.6587 142.694 87.5488 142.752 87.4805C142.816 87.4121 142.882 87.3755 142.95 87.3706C143.023 87.3608 143.094 87.3779 143.163 87.4219C143.236 87.4658 143.299 87.5244 143.353 87.5977C143.412 87.666 143.453 87.7441 143.478 87.832C143.507 87.9199 143.512 88.0029 143.492 88.0811C143.424 88.3301 143.333 88.5913 143.221 88.8647C143.114 89.1382 142.975 89.3896 142.804 89.6191C142.633 89.8486 142.428 90.0391 142.188 90.1904C141.949 90.3418 141.668 90.4175 141.346 90.4175C141.146 90.4175 140.968 90.3784 140.812 90.3003C140.655 90.2271 140.523 90.127 140.416 90C140.309 89.873 140.226 89.7241 140.167 89.5532C140.113 89.3823 140.086 89.2017 140.086 89.0112V85.0049C140.086 84.8633 140.074 84.7607 140.05 84.6973C140.03 84.6338 140.021 84.5752 140.021 84.5215C140.021 84.4482 140.06 84.3896 140.138 84.3457C140.216 84.2969 140.309 84.2725 140.416 84.2725C140.665 84.2725 140.86 84.3384 141.002 84.4702C141.148 84.5972 141.222 84.751 141.222 84.9316V88.7402ZM141.324 82.9468C141.437 82.9565 141.561 82.9639 141.698 82.9688C141.815 82.9785 141.957 82.9858 142.123 82.9907C142.289 82.9907 142.474 82.9932 142.679 82.998V80.4565C142.679 80.3491 142.669 80.2637 142.65 80.2002C142.635 80.1367 142.618 80.0879 142.599 80.0537C142.584 80.0146 142.567 79.9854 142.547 79.9658C142.533 79.9414 142.525 79.917 142.525 79.8926C142.525 79.8633 142.54 79.8389 142.569 79.8193C142.599 79.7998 142.638 79.7827 142.687 79.7681C142.735 79.7534 142.787 79.7437 142.84 79.7388C142.899 79.729 142.955 79.7241 143.009 79.7241C143.258 79.7241 143.453 79.79 143.595 79.9219C143.741 80.0488 143.814 80.2026 143.814 80.3833V83.0127C144.273 83.0127 144.757 83.0078 145.265 82.998C145.777 82.9883 146.29 82.9712 146.803 82.9468C146.871 82.8735 146.925 82.8467 146.964 82.8662C147.008 82.8857 147.035 82.9321 147.044 83.0054C147.059 83.0786 147.062 83.1689 147.052 83.2764C147.042 83.3838 147.022 83.4888 146.993 83.5913C146.964 83.689 146.922 83.7744 146.869 83.8477C146.82 83.9209 146.764 83.9575 146.7 83.9575C146.1 83.9722 145.567 83.9819 145.104 83.9868C144.645 83.9868 144.215 83.9868 143.814 83.9868V88.7402C143.814 88.9844 143.861 89.1602 143.954 89.2676C144.046 89.375 144.171 89.4287 144.327 89.4287C144.479 89.4287 144.608 89.375 144.715 89.2676C144.828 89.1602 144.923 89.0259 145.001 88.8647C145.084 88.7036 145.15 88.5303 145.199 88.3447C145.252 88.1543 145.296 87.9761 145.331 87.8101C145.36 87.6538 145.409 87.5415 145.477 87.4731C145.545 87.3999 145.616 87.3633 145.689 87.3633C145.748 87.3633 145.809 87.3828 145.873 87.4219C145.936 87.4561 145.992 87.5024 146.041 87.561C146.095 87.6196 146.136 87.6855 146.166 87.7588C146.2 87.832 146.217 87.9053 146.217 87.9785C146.217 87.9883 146.217 88.0005 146.217 88.0151C146.217 88.0298 146.212 88.0518 146.202 88.0811C146.139 88.3301 146.051 88.5913 145.938 88.8647C145.831 89.1382 145.689 89.3896 145.514 89.6191C145.343 89.8486 145.138 90.0391 144.898 90.1904C144.659 90.3418 144.378 90.4175 144.056 90.4175C143.856 90.4175 143.67 90.3857 143.5 90.3223C143.333 90.2637 143.189 90.166 143.067 90.0293C142.945 89.8975 142.85 89.7266 142.782 89.5166C142.713 89.3066 142.679 89.0527 142.679 88.7549V83.9868C142.513 83.9868 142.364 83.9868 142.232 83.9868C142.105 83.9819 141.998 83.9771 141.91 83.9722C141.808 83.9673 141.717 83.9624 141.639 83.9575C141.522 83.9575 141.419 83.9062 141.332 83.8037C141.239 83.6963 141.175 83.5791 141.141 83.4521C141.102 83.3252 141.097 83.2104 141.126 83.1079C141.151 83.0005 141.217 82.9468 141.324 82.9468ZM148.854 85.6348C148.854 85.9131 148.805 86.1987 148.707 86.4917C148.614 86.7847 148.473 87.063 148.282 87.3267C148.097 87.5854 147.865 87.8198 147.586 88.0298C147.313 88.2349 146.996 88.3911 146.634 88.4985C146.683 88.6255 146.747 88.7476 146.825 88.8647C146.908 88.9771 147.005 89.0747 147.118 89.1577C147.23 89.2407 147.359 89.3066 147.506 89.3555C147.657 89.4043 147.831 89.4287 148.026 89.4287C148.319 89.4287 148.57 89.375 148.78 89.2676C148.99 89.1553 149.166 89.0088 149.308 88.8281C149.454 88.6475 149.571 88.4448 149.659 88.2202C149.747 87.9956 149.813 87.7686 149.857 87.5391C149.891 87.373 149.959 87.2632 150.062 87.2095C150.169 87.1509 150.277 87.1362 150.384 87.1655C150.497 87.1948 150.592 87.2583 150.67 87.356C150.753 87.4487 150.787 87.561 150.772 87.6929C150.753 87.8442 150.719 88.0176 150.67 88.2129C150.626 88.4082 150.558 88.606 150.465 88.8062C150.372 89.0063 150.252 89.2041 150.106 89.3994C149.964 89.5898 149.789 89.7607 149.579 89.9121C149.369 90.0635 149.122 90.1855 148.839 90.2783C148.556 90.3711 148.231 90.4175 147.865 90.4175C147.523 90.4175 147.191 90.3491 146.869 90.2124C146.551 90.0806 146.268 89.8901 146.019 89.6411C145.775 89.3872 145.577 89.0771 145.426 88.7109C145.279 88.3398 145.206 87.9199 145.206 87.4512C145.206 86.9775 145.272 86.5381 145.404 86.1328C145.536 85.7227 145.709 85.3687 145.924 85.0708C146.139 84.7729 146.383 84.541 146.656 84.375C146.93 84.2041 147.21 84.1187 147.499 84.1187C147.708 84.1187 147.896 84.1553 148.062 84.2285C148.233 84.3018 148.377 84.4067 148.495 84.5435C148.612 84.6753 148.7 84.834 148.758 85.0195C148.822 85.2051 148.854 85.4102 148.854 85.6348ZM146.437 87.4072C146.437 87.4512 146.439 87.4951 146.444 87.5391C146.449 87.583 146.451 87.6294 146.451 87.6782C146.637 87.5903 146.805 87.478 146.957 87.3413C147.108 87.2046 147.237 87.0483 147.345 86.8726C147.452 86.6968 147.535 86.5063 147.594 86.3013C147.652 86.0913 147.682 85.874 147.682 85.6494C147.682 85.4834 147.652 85.354 147.594 85.2612C147.54 85.1685 147.464 85.1221 147.367 85.1221C147.245 85.1221 147.135 85.1636 147.037 85.2466C146.944 85.3296 146.861 85.4395 146.788 85.5762C146.72 85.708 146.661 85.8594 146.612 86.0303C146.568 86.1963 146.532 86.3647 146.502 86.5356C146.473 86.7065 146.454 86.8701 146.444 87.0264C146.434 87.1777 146.432 87.3047 146.437 87.4072ZM155.511 89.1577C155.511 89.4897 155.489 89.7729 155.445 90.0073C155.406 90.2417 155.35 90.4321 155.277 90.5786C155.204 90.7251 155.113 90.8325 155.006 90.9009C154.903 90.9692 154.791 91.0034 154.669 91.0034C154.576 91.0034 154.474 90.9717 154.361 90.9082C154.249 90.8447 154.142 90.7666 154.039 90.6738C153.941 90.5811 153.858 90.4858 153.79 90.3882C153.727 90.2905 153.695 90.2051 153.695 90.1318C153.695 90.083 153.7 90.0513 153.709 90.0366C153.724 90.0269 153.741 90.022 153.761 90.022C153.785 90.0269 153.812 90.0342 153.841 90.0439C153.875 90.0537 153.912 90.0586 153.951 90.0586C154.088 90.0586 154.186 89.9731 154.244 89.8022C154.308 89.6265 154.339 89.3481 154.339 88.9673V86.6089H153.563C153.485 86.6089 153.412 86.5845 153.343 86.5356C153.28 86.4868 153.224 86.4258 153.175 86.3525C153.126 86.2793 153.087 86.1987 153.058 86.1108C153.033 86.0229 153.021 85.9399 153.021 85.8618C153.021 85.7788 153.038 85.708 153.072 85.6494C153.111 85.5908 153.17 85.5615 153.248 85.5615H154.339V80.6836C153.812 80.7178 153.331 80.7959 152.896 80.918C152.462 81.04 152.088 81.2256 151.776 81.4746C151.463 81.7236 151.219 82.0483 151.043 82.4487C150.873 82.8442 150.787 83.3374 150.787 83.9282C150.787 84.187 150.812 84.4214 150.86 84.6313C150.914 84.8364 150.982 85.022 151.065 85.188C151.148 85.354 151.239 85.5005 151.336 85.6274C151.439 85.7544 151.539 85.8667 151.637 85.9644C151.72 85.9399 151.778 85.9497 151.812 85.9937C151.847 86.0376 151.864 86.0986 151.864 86.1768C151.864 86.2744 151.842 86.377 151.798 86.4844C151.759 86.5869 151.705 86.6821 151.637 86.77C151.568 86.853 151.49 86.9238 151.402 86.9824C151.319 87.0361 151.234 87.063 151.146 87.063C151.107 87.063 151.068 87.0581 151.029 87.0483C150.995 87.0386 150.958 87.0166 150.919 86.9824C150.812 86.9043 150.682 86.7773 150.531 86.6016C150.379 86.4209 150.235 86.1987 150.099 85.9351C149.962 85.6714 149.845 85.3711 149.747 85.0342C149.649 84.6924 149.601 84.3237 149.601 83.9282C149.601 82.4878 150.06 81.3892 150.978 80.6323C151.9 79.8755 153.26 79.4971 155.057 79.4971C155.194 79.4971 155.365 79.4995 155.57 79.5044C155.78 79.5044 156.002 79.5044 156.236 79.5044C156.471 79.5044 156.708 79.5068 156.947 79.5117C157.191 79.5166 157.416 79.519 157.621 79.519C157.831 79.519 158.009 79.5215 158.155 79.5264C158.307 79.5264 158.409 79.5264 158.463 79.5264C158.536 79.5264 158.597 79.5215 158.646 79.5117C158.695 79.4971 158.734 79.4824 158.763 79.4678C158.797 79.4531 158.822 79.4409 158.836 79.4312C158.856 79.4165 158.873 79.4092 158.888 79.4092C158.912 79.4092 158.937 79.4263 158.961 79.4604C158.985 79.4897 159.007 79.5288 159.027 79.5776C159.046 79.6216 159.061 79.6729 159.071 79.7314C159.085 79.79 159.093 79.8486 159.093 79.9072C159.093 79.9951 159.078 80.0879 159.049 80.1855C159.024 80.2783 158.983 80.3638 158.924 80.4419C158.866 80.5151 158.792 80.5762 158.705 80.625C158.622 80.6738 158.521 80.6982 158.404 80.6982C158.36 80.6982 158.28 80.6982 158.163 80.6982C158.045 80.6934 157.904 80.6909 157.738 80.6909C157.577 80.686 157.398 80.6836 157.203 80.6836C157.008 80.6787 156.81 80.6763 156.61 80.6763C156.415 80.6714 156.222 80.6689 156.031 80.6689C155.841 80.6641 155.667 80.6592 155.511 80.6543V85.5615H157.386C157.464 85.5029 157.523 85.4883 157.562 85.5176C157.601 85.5469 157.623 85.6006 157.628 85.6787C157.638 85.7568 157.633 85.8496 157.613 85.957C157.599 86.0645 157.572 86.167 157.533 86.2646C157.499 86.3574 157.457 86.438 157.408 86.5063C157.359 86.5747 157.306 86.6089 157.247 86.6089H155.511V89.1577ZM162.696 89.4287C162.848 89.4287 162.977 89.375 163.084 89.2676C163.197 89.1602 163.292 89.0259 163.37 88.8647C163.453 88.7036 163.519 88.5303 163.568 88.3447C163.622 88.1543 163.666 87.9761 163.7 87.8101C163.734 87.6538 163.783 87.5415 163.846 87.4731C163.915 87.3999 163.988 87.3633 164.066 87.3633C164.125 87.3633 164.183 87.3828 164.242 87.4219C164.305 87.4561 164.361 87.5024 164.41 87.561C164.464 87.6196 164.505 87.6855 164.535 87.7588C164.569 87.832 164.586 87.9053 164.586 87.9785C164.586 87.9883 164.586 88.0005 164.586 88.0151C164.586 88.0298 164.581 88.0518 164.571 88.0811C164.508 88.3301 164.42 88.5913 164.308 88.8647C164.2 89.1382 164.061 89.3896 163.89 89.6191C163.719 89.8486 163.512 90.0391 163.268 90.1904C163.028 90.3418 162.748 90.4175 162.425 90.4175C162.162 90.4175 161.932 90.3613 161.737 90.249C161.542 90.1367 161.388 89.9878 161.275 89.8022C161.124 89.9731 160.941 90.1172 160.726 90.2344C160.516 90.3564 160.27 90.4175 159.986 90.4175C159.693 90.4175 159.435 90.3589 159.21 90.2417C158.99 90.1245 158.805 89.9658 158.653 89.7656C158.502 89.5605 158.387 89.3213 158.309 89.0479C158.236 88.7695 158.199 88.4717 158.199 88.1543C158.199 87.5293 158.299 86.9678 158.5 86.4697C158.7 85.9717 158.966 85.5493 159.298 85.2026C159.63 84.8511 160.008 84.5825 160.433 84.397C160.863 84.2114 161.307 84.1187 161.766 84.1187C161.971 84.1187 162.137 84.1748 162.264 84.2871C162.391 84.3994 162.455 84.5532 162.455 84.7485C162.455 84.8755 162.44 84.9658 162.411 85.0195C162.386 85.0684 162.337 85.0928 162.264 85.0928C162.196 85.0928 162.125 85.0879 162.052 85.0781C161.979 85.0684 161.903 85.0635 161.825 85.0635C161.542 85.0635 161.253 85.127 160.96 85.2539C160.667 85.376 160.401 85.5664 160.162 85.8252C159.928 86.0791 159.735 86.4038 159.583 86.7993C159.432 87.1899 159.356 87.6562 159.356 88.1982C159.356 88.5938 159.432 88.8989 159.583 89.1138C159.735 89.3237 159.942 89.4287 160.206 89.4287C160.411 89.4287 160.582 89.353 160.719 89.2017C160.855 89.0454 160.965 88.8623 161.048 88.6523V86.3379C161.048 86.2646 161.043 86.2036 161.034 86.1548C161.029 86.106 161.021 86.0645 161.012 86.0303C161.007 85.9961 161.002 85.9668 160.997 85.9424C160.992 85.9131 160.99 85.8862 160.99 85.8618C160.99 85.7837 161.026 85.7227 161.1 85.6787C161.178 85.6299 161.271 85.6055 161.378 85.6055C161.627 85.6055 161.825 85.6714 161.971 85.8032C162.118 85.9302 162.191 86.084 162.191 86.2646V88.7402C162.191 88.8232 162.201 88.9062 162.22 88.9893C162.24 89.0674 162.269 89.1406 162.308 89.209C162.347 89.2725 162.398 89.3262 162.462 89.3701C162.53 89.4092 162.608 89.4287 162.696 89.4287ZM164.564 82.7856C164.442 82.7856 164.325 82.7612 164.212 82.7124C164.105 82.6636 164.01 82.5977 163.927 82.5146C163.849 82.4316 163.785 82.3364 163.736 82.229C163.688 82.1167 163.663 81.9971 163.663 81.8701C163.663 81.7383 163.688 81.6162 163.736 81.5039C163.785 81.3916 163.849 81.2964 163.927 81.2183C164.01 81.1353 164.105 81.0718 164.212 81.0278C164.325 80.979 164.442 80.9546 164.564 80.9546C164.696 80.9546 164.818 80.979 164.93 81.0278C165.042 81.0718 165.138 81.1353 165.216 81.2183C165.299 81.2964 165.362 81.3916 165.406 81.5039C165.455 81.6162 165.479 81.7383 165.479 81.8701C165.479 81.9971 165.455 82.1167 165.406 82.229C165.362 82.3364 165.299 82.4316 165.216 82.5146C165.138 82.5977 165.042 82.6636 164.93 82.7124C164.818 82.7612 164.696 82.7856 164.564 82.7856ZM164.908 88.7402C164.908 88.7744 164.911 88.8306 164.916 88.9087C164.92 88.9819 164.935 89.0576 164.959 89.1357C164.984 89.2139 165.023 89.2822 165.077 89.3408C165.13 89.3994 165.206 89.4287 165.304 89.4287C165.45 89.4287 165.577 89.375 165.685 89.2676C165.797 89.1602 165.892 89.0259 165.97 88.8647C166.053 88.7036 166.122 88.5303 166.175 88.3447C166.229 88.1543 166.273 87.9761 166.307 87.8101C166.336 87.6587 166.38 87.5488 166.439 87.4805C166.502 87.4121 166.568 87.3755 166.637 87.3706C166.71 87.3608 166.781 87.3779 166.849 87.4219C166.922 87.4658 166.986 87.5244 167.04 87.5977C167.098 87.666 167.14 87.7441 167.164 87.832C167.193 87.9199 167.198 88.0029 167.179 88.0811C167.11 88.3301 167.02 88.5913 166.908 88.8647C166.8 89.1382 166.661 89.3896 166.49 89.6191C166.319 89.8486 166.114 90.0391 165.875 90.1904C165.636 90.3418 165.355 90.4175 165.033 90.4175C164.833 90.4175 164.654 90.3784 164.498 90.3003C164.342 90.2271 164.21 90.127 164.103 90C163.995 89.873 163.912 89.7241 163.854 89.5532C163.8 89.3823 163.773 89.2017 163.773 89.0112V85.0049C163.773 84.8633 163.761 84.7607 163.736 84.6973C163.717 84.6338 163.707 84.5752 163.707 84.5215C163.707 84.4482 163.746 84.3896 163.824 84.3457C163.902 84.2969 163.995 84.2725 164.103 84.2725C164.352 84.2725 164.547 84.3384 164.688 84.4702C164.835 84.5972 164.908 84.751 164.908 84.9316V88.7402ZM175.316 88.0811C175.248 88.3301 175.157 88.5913 175.045 88.8647C174.938 89.1382 174.798 89.3896 174.627 89.6191C174.457 89.8486 174.251 90.0391 174.012 90.1904C173.773 90.3418 173.492 90.4175 173.17 90.4175C172.97 90.4175 172.792 90.3784 172.635 90.3003C172.484 90.2271 172.352 90.127 172.24 90C172.132 89.873 172.049 89.7241 171.991 89.5532C171.937 89.3823 171.91 89.2017 171.91 89.0112V85.9644C171.91 85.8472 171.908 85.7373 171.903 85.6348C171.898 85.5322 171.886 85.4419 171.866 85.3638C171.847 85.2856 171.817 85.2246 171.778 85.1807C171.744 85.1318 171.695 85.1074 171.632 85.1074C171.529 85.1074 171.405 85.1807 171.258 85.3271C171.112 85.4736 170.97 85.6641 170.833 85.8984C170.697 86.1328 170.575 86.3989 170.467 86.6968C170.36 86.9897 170.296 87.2852 170.277 87.583V89.7729C170.277 89.8462 170.274 89.9219 170.27 90C170.27 90.0732 170.255 90.1392 170.226 90.1978C170.201 90.2612 170.16 90.3125 170.101 90.3516C170.047 90.3955 169.967 90.4175 169.859 90.4175C169.786 90.4175 169.706 90.4077 169.618 90.3882C169.535 90.3735 169.457 90.3418 169.383 90.293C169.315 90.249 169.256 90.1831 169.208 90.0952C169.164 90.0122 169.142 89.8999 169.142 89.7583V85.9644C169.142 85.8472 169.137 85.7373 169.127 85.6348C169.122 85.5322 169.11 85.4419 169.09 85.3638C169.071 85.2856 169.042 85.2246 169.002 85.1807C168.968 85.1318 168.919 85.1074 168.856 85.1074C168.753 85.1074 168.629 85.1807 168.482 85.3271C168.341 85.4736 168.199 85.6641 168.058 85.8984C167.921 86.1328 167.799 86.3989 167.691 86.6968C167.589 86.9897 167.525 87.2852 167.501 87.583V89.7729C167.501 89.8462 167.499 89.9219 167.494 90C167.494 90.0732 167.479 90.1392 167.45 90.1978C167.425 90.2612 167.384 90.3125 167.325 90.3516C167.271 90.3955 167.191 90.4175 167.083 90.4175C167.01 90.4175 166.93 90.4077 166.842 90.3882C166.759 90.3735 166.681 90.3418 166.607 90.293C166.539 90.249 166.48 90.1831 166.432 90.0952C166.388 90.0122 166.366 89.8999 166.366 89.7583V85.0049C166.366 84.8633 166.354 84.7607 166.329 84.6973C166.31 84.6338 166.3 84.5752 166.3 84.5215C166.3 84.4482 166.339 84.3896 166.417 84.3457C166.495 84.2969 166.588 84.2725 166.695 84.2725C166.944 84.2725 167.14 84.3384 167.281 84.4702C167.428 84.5972 167.501 84.751 167.501 84.9316V85.5615C167.599 85.3564 167.704 85.166 167.816 84.9902C167.933 84.8145 168.058 84.6631 168.189 84.5361C168.321 84.4043 168.46 84.3018 168.607 84.2285C168.758 84.1553 168.919 84.1187 169.09 84.1187C169.315 84.1187 169.5 84.1602 169.647 84.2432C169.798 84.3262 169.918 84.436 170.006 84.5728C170.099 84.7095 170.165 84.8633 170.204 85.0342C170.243 85.2002 170.267 85.3662 170.277 85.5322C170.37 85.332 170.472 85.1465 170.584 84.9756C170.697 84.8047 170.819 84.6558 170.951 84.5288C171.083 84.4019 171.222 84.3018 171.368 84.2285C171.52 84.1553 171.681 84.1187 171.852 84.1187C172.096 84.1187 172.296 84.165 172.452 84.2578C172.608 84.3506 172.73 84.4702 172.818 84.6167C172.906 84.7632 172.967 84.9268 173.001 85.1074C173.036 85.2881 173.053 85.4639 173.053 85.6348V88.7402C173.053 88.7744 173.055 88.8306 173.06 88.9087C173.065 88.9819 173.08 89.0576 173.104 89.1357C173.128 89.2139 173.165 89.2822 173.214 89.3408C173.268 89.3994 173.343 89.4287 173.441 89.4287C173.592 89.4287 173.722 89.375 173.829 89.2676C173.941 89.1602 174.037 89.0259 174.115 88.8647C174.198 88.7036 174.266 88.5303 174.32 88.3447C174.374 88.1543 174.417 87.9761 174.452 87.8101C174.481 87.6538 174.527 87.5415 174.591 87.4731C174.659 87.3999 174.732 87.3633 174.811 87.3633C174.869 87.3633 174.928 87.3828 174.986 87.4219C175.05 87.4561 175.106 87.5024 175.155 87.561C175.208 87.6196 175.25 87.6855 175.279 87.7588C175.313 87.832 175.331 87.9053 175.331 87.9785C175.331 87.9883 175.331 88.0005 175.331 88.0151C175.331 88.0298 175.326 88.0518 175.316 88.0811Z" fill="black"/>
    <path d="M112.653 115.53H109.533C109.413 115.53 109.353 115.475 109.353 115.365V115.035C109.353 114.925 109.413 114.87 109.533 114.87H112.653C112.773 114.87 112.833 114.925 112.833 115.035V115.365C112.833 115.475 112.773 115.53 112.653 115.53ZM115.286 120H114.851C114.751 120 114.701 119.94 114.701 119.82V110.535C114.701 110.415 114.751 110.355 114.851 110.355H118.301C118.951 110.355 119.466 110.545 119.846 110.925C120.226 111.305 120.416 111.825 120.416 112.485V114.24C120.416 114.9 120.226 115.42 119.846 115.8C119.466 116.18 118.951 116.37 118.301 116.37H115.601C115.501 116.37 115.451 116.41 115.451 116.49V119.82C115.451 119.94 115.396 120 115.286 120ZM115.601 115.68H118.241C118.701 115.68 119.051 115.555 119.291 115.305C119.531 115.045 119.651 114.68 119.651 114.21V112.515C119.651 112.035 119.531 111.67 119.291 111.42C119.051 111.16 118.701 111.03 118.241 111.03H115.601C115.501 111.03 115.451 111.075 115.451 111.165V115.56C115.451 115.64 115.501 115.68 115.601 115.68ZM127.352 120H122.717C122.617 120 122.567 119.94 122.567 119.82V110.535C122.567 110.415 122.617 110.355 122.717 110.355H127.352C127.472 110.355 127.532 110.41 127.532 110.52V110.865C127.532 110.975 127.472 111.03 127.352 111.03H123.467C123.367 111.03 123.317 111.075 123.317 111.165V114.615C123.317 114.705 123.367 114.75 123.467 114.75H126.932C127.042 114.75 127.097 114.805 127.097 114.915V115.26C127.097 115.37 127.042 115.425 126.932 115.425H123.467C123.367 115.425 123.317 115.47 123.317 115.56V119.19C123.317 119.28 123.367 119.325 123.467 119.325H127.352C127.472 119.325 127.532 119.38 127.532 119.49V119.835C127.532 119.945 127.472 120 127.352 120ZM131.889 120H131.454C131.344 120 131.289 119.94 131.289 119.82V111.165C131.289 111.075 131.239 111.03 131.139 111.03H128.964C128.844 111.03 128.784 110.975 128.784 110.865V110.52C128.784 110.41 128.844 110.355 128.964 110.355H134.364C134.484 110.355 134.544 110.41 134.544 110.52V110.865C134.544 110.975 134.484 111.03 134.364 111.03H132.189C132.089 111.03 132.039 111.075 132.039 111.165V119.82C132.039 119.94 131.989 120 131.889 120ZM136.913 110.535V119.82C136.913 119.94 136.858 120 136.748 120H136.313C136.213 120 136.163 119.94 136.163 119.82V110.535C136.163 110.415 136.213 110.355 136.313 110.355H136.748C136.858 110.355 136.913 110.415 136.913 110.535ZM141.645 120H141.21C141.1 120 141.045 119.94 141.045 119.82V111.165C141.045 111.075 140.995 111.03 140.895 111.03H138.72C138.6 111.03 138.54 110.975 138.54 110.865V110.52C138.54 110.41 138.6 110.355 138.72 110.355H144.12C144.24 110.355 144.3 110.41 144.3 110.52V110.865C144.3 110.975 144.24 111.03 144.12 111.03H141.945C141.845 111.03 141.795 111.075 141.795 111.165V119.82C141.795 119.94 141.745 120 141.645 120ZM150.629 120H145.994C145.894 120 145.844 119.94 145.844 119.82V110.535C145.844 110.415 145.894 110.355 145.994 110.355H150.629C150.749 110.355 150.809 110.41 150.809 110.52V110.865C150.809 110.975 150.749 111.03 150.629 111.03H146.744C146.644 111.03 146.594 111.075 146.594 111.165V114.615C146.594 114.705 146.644 114.75 146.744 114.75H150.209C150.319 114.75 150.374 114.805 150.374 114.915V115.26C150.374 115.37 150.319 115.425 150.209 115.425H146.744C146.644 115.425 146.594 115.47 146.594 115.56V119.19C146.594 119.28 146.644 119.325 146.744 119.325H150.629C150.749 119.325 150.809 119.38 150.809 119.49V119.835C150.809 119.945 150.749 120 150.629 120ZM157.65 120H157.215C157.115 120 157.065 119.94 157.065 119.82V110.535C157.065 110.415 157.115 110.355 157.215 110.355H161.835C161.955 110.355 162.015 110.41 162.015 110.52V110.865C162.015 110.975 161.955 111.03 161.835 111.03H157.965C157.865 111.03 157.815 111.075 157.815 111.165V114.81C157.815 114.89 157.865 114.93 157.965 114.93H161.43C161.54 114.93 161.595 114.985 161.595 115.095V115.455C161.595 115.565 161.54 115.62 161.43 115.62H157.965C157.865 115.62 157.815 115.66 157.815 115.74V119.82C157.815 119.94 157.76 120 157.65 120ZM163.694 120H163.229C163.119 120 163.084 119.94 163.124 119.82L166.109 110.535C166.139 110.415 166.209 110.355 166.319 110.355H167.024C167.124 110.355 167.194 110.415 167.234 110.535L170.219 119.82C170.249 119.94 170.214 120 170.114 120H169.634C169.534 120 169.469 119.94 169.439 119.82L168.629 117.42H164.699L163.889 119.82C163.849 119.94 163.784 120 163.694 120ZM166.634 111.18L164.909 116.745H168.434L166.694 111.18H166.634ZM172.772 110.535V119.82C172.772 119.94 172.717 120 172.607 120H172.172C172.072 120 172.022 119.94 172.022 119.82V110.535C172.022 110.415 172.072 110.355 172.172 110.355H172.607C172.717 110.355 172.772 110.415 172.772 110.535ZM182.334 110.355H183.144C183.244 110.355 183.294 110.415 183.294 110.535V119.82C183.294 119.94 183.244 120 183.144 120H182.709C182.599 120 182.544 119.94 182.544 119.82V111.51H182.484L179.829 117.735C179.769 117.845 179.694 117.9 179.604 117.9H179.109C179.009 117.9 178.939 117.845 178.899 117.735L176.199 111.495H176.139V119.82C176.139 119.94 176.089 120 175.989 120H175.554C175.454 120 175.404 119.94 175.404 119.82V110.535C175.404 110.415 175.454 110.355 175.554 110.355H176.364C176.434 110.355 176.479 110.385 176.499 110.445L179.319 117.03H179.379L182.199 110.445C182.219 110.385 182.264 110.355 182.334 110.355ZM188.474 115.53H185.354C185.234 115.53 185.174 115.475 185.174 115.365V115.035C185.174 114.925 185.234 114.87 185.354 114.87H188.474C188.594 114.87 188.654 114.925 188.654 115.035V115.365C188.654 115.475 188.594 115.53 188.474 115.53Z" fill="#4E4444"/>
</svg>
