<svg width="300" height="131" viewBox="0 0 300 131" fill="none" xmlns="http://www.w3.org/2000/svg">
    <path d="M30.0183 13.73V12.875C30.0183 12.615 30.0933 12.285 30.2433 11.885L30.7383 10.475C30.7683 10.395 30.8233 10.355 30.9033 10.355C31.0133 10.355 31.0683 10.415 31.0683 10.535V13.73C31.0683 13.86 31.0033 13.925 30.8733 13.925H30.2133C30.0833 13.925 30.0183 13.86 30.0183 13.73ZM27.7083 13.73V12.875C27.7083 12.665 27.7833 12.335 27.9333 11.885L28.4283 10.475C28.4783 10.395 28.5383 10.355 28.6083 10.355C28.7083 10.355 28.7583 10.415 28.7583 10.535V13.73C28.7583 13.86 28.6933 13.925 28.5633 13.925H27.9183C27.7783 13.925 27.7083 13.86 27.7083 13.73ZM38.2081 10.355H38.8831C39.0231 10.355 39.0931 10.42 39.0931 10.55V17.78C39.0931 18.48 38.8981 19.025 38.5081 19.415C38.1181 19.805 37.5781 20 36.8881 20H35.2231C34.5331 20 33.9881 19.805 33.5881 19.415C33.1981 19.025 33.0031 18.48 33.0031 17.78V10.565C33.0031 10.425 33.0731 10.355 33.2131 10.355H33.8881C34.0281 10.355 34.0981 10.425 34.0981 10.565V17.735C34.0981 18.605 34.5131 19.04 35.3431 19.04H36.7531C37.5931 19.04 38.0131 18.605 38.0131 17.735V10.565C38.0131 10.425 38.0781 10.355 38.2081 10.355ZM42.2537 20H41.5937C41.4537 20 41.3837 19.93 41.3837 19.79V10.565C41.3837 10.425 41.4537 10.355 41.5937 10.355H42.2087C42.3287 10.355 42.4087 10.395 42.4487 10.475L46.5887 17.75H46.6487V10.565C46.6487 10.425 46.7187 10.355 46.8587 10.355H47.5187C47.6587 10.355 47.7287 10.425 47.7287 10.565V19.79C47.7287 19.93 47.6587 20 47.5187 20H46.9637C46.8537 20 46.7487 19.935 46.6487 19.805L42.5237 12.605H42.4637V19.79C42.4637 19.93 42.3937 20 42.2537 20ZM53.8031 17.78V17.3C53.8031 17.16 53.8731 17.09 54.0131 17.09H54.6881C54.8281 17.09 54.8981 17.16 54.8981 17.3V17.69C54.8981 18.59 55.3431 19.04 56.2331 19.04H57.5531C58.4431 19.04 58.8881 18.58 58.8881 17.66V17.15C58.8881 16.43 58.2931 15.96 57.1031 15.74C56.6031 15.65 56.1031 15.545 55.6031 15.425C55.1031 15.305 54.6781 15.075 54.3281 14.735C53.9781 14.385 53.8031 13.91 53.8031 13.31V12.575C53.8031 11.885 53.9981 11.345 54.3881 10.955C54.7881 10.555 55.3331 10.355 56.0231 10.355H57.6881C58.3681 10.355 58.9081 10.555 59.3081 10.955C59.7081 11.345 59.9081 11.885 59.9081 12.575V12.95C59.9081 13.1 59.8431 13.175 59.7131 13.175H59.0231C58.8931 13.175 58.8281 13.1 58.8281 12.95V12.68C58.8281 11.77 58.3831 11.315 57.4931 11.315H56.2181C55.3281 11.315 54.8831 11.79 54.8831 12.74V13.34C54.8831 13.85 55.2181 14.2 55.8881 14.39C56.1881 14.47 56.5181 14.545 56.8781 14.615C57.2381 14.675 57.5981 14.76 57.9581 14.87C58.3281 14.97 58.6631 15.1 58.9631 15.26C59.2631 15.41 59.5031 15.645 59.6831 15.965C59.8731 16.275 59.9681 16.655 59.9681 17.105V17.78C59.9681 18.47 59.7681 19.015 59.3681 19.415C58.9681 19.805 58.4281 20 57.7481 20H56.0231C55.3431 20 54.8031 19.805 54.4031 19.415C54.0031 19.015 53.8031 18.47 53.8031 17.78ZM67.3585 10.355H68.0335C68.1735 10.355 68.2435 10.42 68.2435 10.55V17.78C68.2435 18.48 68.0485 19.025 67.6585 19.415C67.2685 19.805 66.7285 20 66.0385 20H64.3735C63.6835 20 63.1385 19.805 62.7385 19.415C62.3485 19.025 62.1535 18.48 62.1535 17.78V10.565C62.1535 10.425 62.2235 10.355 62.3635 10.355H63.0385C63.1785 10.355 63.2485 10.425 63.2485 10.565V17.735C63.2485 18.605 63.6635 19.04 64.4935 19.04H65.9035C66.7435 19.04 67.1635 18.605 67.1635 17.735V10.565C67.1635 10.425 67.2285 10.355 67.3585 10.355ZM71.4191 20H70.7441C70.6041 20 70.5341 19.93 70.5341 19.79V10.565C70.5341 10.425 70.6041 10.355 70.7441 10.355H74.2541C74.9441 10.355 75.4841 10.555 75.8741 10.955C76.2641 11.345 76.4591 11.885 76.4591 12.575V14.24C76.4591 14.94 76.2641 15.485 75.8741 15.875C75.4841 16.265 74.9441 16.46 74.2541 16.46H71.7791C71.6791 16.46 71.6291 16.505 71.6291 16.595V19.79C71.6291 19.93 71.5591 20 71.4191 20ZM71.7791 15.485H74.1041C74.9441 15.485 75.3641 15.055 75.3641 14.195V12.62C75.3641 11.75 74.9441 11.315 74.1041 11.315H71.7791C71.6791 11.315 71.6291 11.36 71.6291 11.45V15.35C71.6291 15.44 71.6791 15.485 71.7791 15.485ZM83.3496 20H78.6396C78.4996 20 78.4296 19.93 78.4296 19.79V10.565C78.4296 10.425 78.4996 10.355 78.6396 10.355H83.3496C83.4896 10.355 83.5596 10.425 83.5596 10.565V11.105C83.5596 11.245 83.4896 11.315 83.3496 11.315H79.6746C79.5746 11.315 79.5246 11.36 79.5246 11.45V14.48C79.5246 14.57 79.5746 14.615 79.6746 14.615H82.8846C83.0246 14.615 83.0946 14.685 83.0946 14.825V15.365C83.0946 15.505 83.0246 15.575 82.8846 15.575H79.6746C79.5746 15.575 79.5246 15.62 79.5246 15.71V18.905C79.5246 18.995 79.5746 19.04 79.6746 19.04H83.3496C83.4896 19.04 83.5596 19.11 83.5596 19.25V19.79C83.5596 19.93 83.4896 20 83.3496 20ZM86.5217 20H85.8467C85.7067 20 85.6367 19.93 85.6367 19.79V10.565C85.6367 10.425 85.7067 10.355 85.8467 10.355H89.2967C89.9867 10.355 90.5317 10.555 90.9317 10.955C91.3317 11.345 91.5317 11.885 91.5317 12.575V13.94C91.5317 14.5 91.3967 14.965 91.1267 15.335C90.8567 15.695 90.4817 15.935 90.0017 16.055V16.115L91.7417 19.76C91.8317 19.92 91.7817 20 91.5917 20H90.9167C90.7467 20 90.6217 19.93 90.5417 19.79L88.8617 16.16H86.8817C86.7817 16.16 86.7317 16.205 86.7317 16.295V19.79C86.7317 19.93 86.6617 20 86.5217 20ZM86.8817 15.245H89.1467C90.0067 15.245 90.4367 14.815 90.4367 13.955V12.62C90.4367 11.75 90.0067 11.315 89.1467 11.315H86.8817C86.7817 11.315 86.7317 11.36 86.7317 11.45V15.11C86.7317 15.2 86.7817 15.245 86.8817 15.245ZM94.9383 19.07H97.3983C98.2583 19.07 98.6883 18.645 98.6883 17.795V16.82C98.6883 15.97 98.2283 15.545 97.3083 15.545H94.9383C94.8383 15.545 94.7883 15.59 94.7883 15.68V18.92C94.7883 19.02 94.8383 19.07 94.9383 19.07ZM94.9383 14.63H97.2483C98.1283 14.63 98.5683 14.205 98.5683 13.355V12.56C98.5683 11.71 98.1433 11.285 97.2933 11.285H94.9383C94.8383 11.285 94.7883 11.335 94.7883 11.435V14.495C94.7883 14.585 94.8383 14.63 94.9383 14.63ZM93.6933 19.79V10.565C93.6933 10.425 93.7633 10.355 93.9033 10.355H97.4283C98.1183 10.355 98.6583 10.55 99.0483 10.94C99.4383 11.32 99.6333 11.855 99.6333 12.545V13.37C99.6333 14.26 99.2133 14.835 98.3733 15.095C98.7533 15.125 99.0783 15.295 99.3483 15.605C99.6183 15.905 99.7533 16.305 99.7533 16.805V17.81C99.7533 18.5 99.5533 19.04 99.1533 19.43C98.7633 19.81 98.2233 20 97.5333 20H93.9033C93.7633 20 93.6933 19.93 93.6933 19.79ZM106.846 20H102.136C101.996 20 101.926 19.93 101.926 19.79V10.565C101.926 10.425 101.996 10.355 102.136 10.355H106.846C106.986 10.355 107.056 10.425 107.056 10.565V11.105C107.056 11.245 106.986 11.315 106.846 11.315H103.171C103.071 11.315 103.021 11.36 103.021 11.45V14.48C103.021 14.57 103.071 14.615 103.171 14.615H106.381C106.521 14.615 106.591 14.685 106.591 14.825V15.365C106.591 15.505 106.521 15.575 106.381 15.575H103.171C103.071 15.575 103.021 15.62 103.021 15.71V18.905C103.021 18.995 103.071 19.04 103.171 19.04H106.846C106.986 19.04 107.056 19.11 107.056 19.25V19.79C107.056 19.93 106.986 20 106.846 20ZM119.721 10.355H120.936C121.076 10.355 121.146 10.425 121.146 10.565V19.79C121.146 19.93 121.076 20 120.936 20H120.276C120.136 20 120.066 19.93 120.066 19.79V11.825H120.006L117.681 17.705C117.621 17.835 117.531 17.9 117.411 17.9H116.691C116.561 17.9 116.476 17.835 116.436 17.705L114.066 11.81H114.006V19.79C114.006 19.93 113.941 20 113.811 20H113.151C113.011 20 112.941 19.93 112.941 19.79V10.565C112.941 10.425 113.011 10.355 113.151 10.355H114.366C114.456 10.355 114.516 10.395 114.546 10.475L117.006 16.685H117.081L119.541 10.475C119.561 10.395 119.621 10.355 119.721 10.355ZM125.708 19.04H127.238C128.078 19.04 128.498 18.605 128.498 17.735V12.62C128.498 11.75 128.078 11.315 127.238 11.315H125.708C124.878 11.315 124.463 11.75 124.463 12.62V17.735C124.463 18.605 124.878 19.04 125.708 19.04ZM127.373 20H125.588C124.898 20 124.353 19.805 123.953 19.415C123.563 19.025 123.368 18.48 123.368 17.78V12.575C123.368 11.875 123.563 11.33 123.953 10.94C124.353 10.55 124.898 10.355 125.588 10.355H127.373C128.063 10.355 128.603 10.555 128.993 10.955C129.393 11.345 129.593 11.885 129.593 12.575V17.78C129.593 18.47 129.393 19.015 128.993 19.415C128.603 19.805 128.063 20 127.373 20ZM138.589 10.355H139.804C139.944 10.355 140.014 10.425 140.014 10.565V19.79C140.014 19.93 139.944 20 139.804 20H139.144C139.004 20 138.934 19.93 138.934 19.79V11.825H138.874L136.549 17.705C136.489 17.835 136.399 17.9 136.279 17.9H135.559C135.429 17.9 135.344 17.835 135.304 17.705L132.934 11.81H132.874V19.79C132.874 19.93 132.809 20 132.679 20H132.019C131.879 20 131.809 19.93 131.809 19.79V10.565C131.809 10.425 131.879 10.355 132.019 10.355H133.234C133.324 10.355 133.384 10.395 133.414 10.475L135.874 16.685H135.949L138.409 10.475C138.429 10.395 138.489 10.355 138.589 10.355ZM147.305 20H142.595C142.455 20 142.385 19.93 142.385 19.79V10.565C142.385 10.425 142.455 10.355 142.595 10.355H147.305C147.445 10.355 147.515 10.425 147.515 10.565V11.105C147.515 11.245 147.445 11.315 147.305 11.315H143.63C143.53 11.315 143.48 11.36 143.48 11.45V14.48C143.48 14.57 143.53 14.615 143.63 14.615H146.84C146.98 14.615 147.05 14.685 147.05 14.825V15.365C147.05 15.505 146.98 15.575 146.84 15.575H143.63C143.53 15.575 143.48 15.62 143.48 15.71V18.905C143.48 18.995 143.53 19.04 143.63 19.04H147.305C147.445 19.04 147.515 19.11 147.515 19.25V19.79C147.515 19.93 147.445 20 147.305 20ZM150.462 20H149.802C149.662 20 149.592 19.93 149.592 19.79V10.565C149.592 10.425 149.662 10.355 149.802 10.355H150.417C150.537 10.355 150.617 10.395 150.657 10.475L154.797 17.75H154.857V10.565C154.857 10.425 154.927 10.355 155.067 10.355H155.727C155.867 10.355 155.937 10.425 155.937 10.565V19.79C155.937 19.93 155.867 20 155.727 20H155.172C155.062 20 154.957 19.935 154.857 19.805L150.732 12.605H150.672V19.79C150.672 19.93 150.602 20 150.462 20ZM160.663 20H159.988C159.848 20 159.778 19.93 159.778 19.79V11.45C159.778 11.36 159.728 11.315 159.628 11.315H157.588C157.438 11.315 157.363 11.245 157.363 11.105V10.565C157.363 10.425 157.438 10.355 157.588 10.355H163.063C163.213 10.355 163.288 10.425 163.288 10.565V11.105C163.288 11.245 163.213 11.315 163.063 11.315H161.023C160.923 11.315 160.873 11.36 160.873 11.45V19.79C160.873 19.93 160.803 20 160.663 20ZM169.763 19.04H172.283C173.123 19.04 173.543 18.605 173.543 17.735V12.62C173.543 11.75 173.123 11.315 172.283 11.315H169.763C169.663 11.315 169.613 11.36 169.613 11.45V18.905C169.613 18.995 169.663 19.04 169.763 19.04ZM168.518 19.79V10.565C168.518 10.425 168.588 10.355 168.728 10.355H172.418C173.108 10.355 173.648 10.555 174.038 10.955C174.438 11.345 174.638 11.885 174.638 12.575V17.78C174.638 18.47 174.438 19.015 174.038 19.415C173.648 19.805 173.108 20 172.418 20H168.728C168.588 20 168.518 19.93 168.518 19.79ZM181.772 20H177.062C176.922 20 176.852 19.93 176.852 19.79V10.565C176.852 10.425 176.922 10.355 177.062 10.355H181.772C181.912 10.355 181.982 10.425 181.982 10.565V11.105C181.982 11.245 181.912 11.315 181.772 11.315H178.097C177.997 11.315 177.947 11.36 177.947 11.45V14.48C177.947 14.57 177.997 14.615 178.097 14.615H181.307C181.447 14.615 181.517 14.685 181.517 14.825V15.365C181.517 15.505 181.447 15.575 181.307 15.575H178.097C177.997 15.575 177.947 15.62 177.947 15.71V18.905C177.947 18.995 177.997 19.04 178.097 19.04H181.772C181.912 19.04 181.982 19.11 181.982 19.25V19.79C181.982 19.93 181.912 20 181.772 20ZM189.113 19.04H191.633C192.473 19.04 192.893 18.605 192.893 17.735V12.62C192.893 11.75 192.473 11.315 191.633 11.315H189.113C189.013 11.315 188.963 11.36 188.963 11.45V18.905C188.963 18.995 189.013 19.04 189.113 19.04ZM187.868 19.79V10.565C187.868 10.425 187.938 10.355 188.078 10.355H191.768C192.458 10.355 192.998 10.555 193.388 10.955C193.788 11.345 193.988 11.885 193.988 12.575V17.78C193.988 18.47 193.788 19.015 193.388 19.415C192.998 19.805 192.458 20 191.768 20H188.078C187.938 20 187.868 19.93 187.868 19.79ZM199.473 7.46H200.373C200.443 7.46 200.488 7.48 200.508 7.52C200.528 7.56 200.518 7.61 200.478 7.67L199.158 9.245C199.078 9.345 198.983 9.395 198.873 9.395H198.378C198.238 9.395 198.208 9.325 198.288 9.185L199.143 7.655C199.213 7.525 199.323 7.46 199.473 7.46ZM201.123 20H196.413C196.273 20 196.203 19.93 196.203 19.79V10.565C196.203 10.425 196.273 10.355 196.413 10.355H201.123C201.263 10.355 201.333 10.425 201.333 10.565V11.105C201.333 11.245 201.263 11.315 201.123 11.315H197.448C197.348 11.315 197.298 11.36 197.298 11.45V14.48C197.298 14.57 197.348 14.615 197.448 14.615H200.658C200.798 14.615 200.868 14.685 200.868 14.825V15.365C200.868 15.505 200.798 15.575 200.658 15.575H197.448C197.348 15.575 197.298 15.62 197.298 15.71V18.905C197.298 18.995 197.348 19.04 197.448 19.04H201.123C201.263 19.04 201.333 19.11 201.333 19.25V19.79C201.333 19.93 201.263 20 201.123 20ZM205.765 20H205.09C204.95 20 204.88 19.93 204.88 19.79V11.45C204.88 11.36 204.83 11.315 204.73 11.315H202.69C202.54 11.315 202.465 11.245 202.465 11.105V10.565C202.465 10.425 202.54 10.355 202.69 10.355H208.165C208.315 10.355 208.39 10.425 208.39 10.565V11.105C208.39 11.245 208.315 11.315 208.165 11.315H206.125C206.025 11.315 205.975 11.36 205.975 11.45V19.79C205.975 19.93 205.905 20 205.765 20ZM214.731 20H210.021C209.881 20 209.811 19.93 209.811 19.79V10.565C209.811 10.425 209.881 10.355 210.021 10.355H214.731C214.871 10.355 214.941 10.425 214.941 10.565V11.105C214.941 11.245 214.871 11.315 214.731 11.315H211.056C210.956 11.315 210.906 11.36 210.906 11.45V14.48C210.906 14.57 210.956 14.615 211.056 14.615H214.266C214.406 14.615 214.476 14.685 214.476 14.825V15.365C214.476 15.505 214.406 15.575 214.266 15.575H211.056C210.956 15.575 210.906 15.62 210.906 15.71V18.905C210.906 18.995 210.956 19.04 211.056 19.04H214.731C214.871 19.04 214.941 19.11 214.941 19.25V19.79C214.941 19.93 214.871 20 214.731 20ZM217.888 20H217.228C217.088 20 217.018 19.93 217.018 19.79V10.565C217.018 10.425 217.088 10.355 217.228 10.355H217.843C217.963 10.355 218.043 10.395 218.083 10.475L222.223 17.75H222.283V10.565C222.283 10.425 222.353 10.355 222.493 10.355H223.153C223.293 10.355 223.363 10.425 223.363 10.565V19.79C223.363 19.93 223.293 20 223.153 20H222.598C222.488 20 222.383 19.935 222.283 19.805L218.158 12.605H218.098V19.79C218.098 19.93 218.028 20 217.888 20ZM228.089 20H227.414C227.274 20 227.204 19.93 227.204 19.79V11.45C227.204 11.36 227.154 11.315 227.054 11.315H225.014C224.864 11.315 224.789 11.245 224.789 11.105V10.565C224.789 10.425 224.864 10.355 225.014 10.355H230.489C230.639 10.355 230.714 10.425 230.714 10.565V11.105C230.714 11.245 230.639 11.315 230.489 11.315H228.449C228.349 11.315 228.299 11.36 228.299 11.45V19.79C228.299 19.93 228.229 20 228.089 20ZM237.056 20H232.346C232.206 20 232.136 19.93 232.136 19.79V10.565C232.136 10.425 232.206 10.355 232.346 10.355H237.056C237.196 10.355 237.266 10.425 237.266 10.565V11.105C237.266 11.245 237.196 11.315 237.056 11.315H233.381C233.281 11.315 233.231 11.36 233.231 11.45V14.48C233.231 14.57 233.281 14.615 233.381 14.615H236.591C236.731 14.615 236.801 14.685 236.801 14.825V15.365C236.801 15.505 236.731 15.575 236.591 15.575H233.381C233.281 15.575 233.231 15.62 233.231 15.71V18.905C233.231 18.995 233.281 19.04 233.381 19.04H237.056C237.196 19.04 237.266 19.11 237.266 19.25V19.79C237.266 19.93 237.196 20 237.056 20ZM248.071 20H243.361C243.221 20 243.151 19.93 243.151 19.79V10.565C243.151 10.425 243.221 10.355 243.361 10.355H248.071C248.211 10.355 248.281 10.425 248.281 10.565V11.105C248.281 11.245 248.211 11.315 248.071 11.315H244.396C244.296 11.315 244.246 11.36 244.246 11.45V14.48C244.246 14.57 244.296 14.615 244.396 14.615H247.606C247.746 14.615 247.816 14.685 247.816 14.825V15.365C247.816 15.505 247.746 15.575 247.606 15.575H244.396C244.296 15.575 244.246 15.62 244.246 15.71V18.905C244.246 18.995 244.296 19.04 244.396 19.04H248.071C248.211 19.04 248.281 19.11 248.281 19.25V19.79C248.281 19.93 248.211 20 248.071 20ZM252.713 20H252.038C251.898 20 251.828 19.93 251.828 19.79V11.45C251.828 11.36 251.778 11.315 251.678 11.315H249.638C249.488 11.315 249.413 11.245 249.413 11.105V10.565C249.413 10.425 249.488 10.355 249.638 10.355H255.113C255.263 10.355 255.338 10.425 255.338 10.565V11.105C255.338 11.245 255.263 11.315 255.113 11.315H253.073C252.973 11.315 252.923 11.36 252.923 11.45V19.79C252.923 19.93 252.853 20 252.713 20ZM261.813 19.04H264.333C265.173 19.04 265.593 18.605 265.593 17.735V12.62C265.593 11.75 265.173 11.315 264.333 11.315H261.813C261.713 11.315 261.663 11.36 261.663 11.45V18.905C261.663 18.995 261.713 19.04 261.813 19.04ZM260.568 19.79V10.565C260.568 10.425 260.638 10.355 260.778 10.355H264.468C265.158 10.355 265.698 10.555 266.088 10.955C266.488 11.345 266.688 11.885 266.688 12.575V17.78C266.688 18.47 266.488 19.015 266.088 19.415C265.698 19.805 265.158 20 264.468 20H260.778C260.638 20 260.568 19.93 260.568 19.79ZM273.823 20H269.113C268.973 20 268.903 19.93 268.903 19.79V10.565C268.903 10.425 268.973 10.355 269.113 10.355H273.823C273.963 10.355 274.033 10.425 274.033 10.565V11.105C274.033 11.245 273.963 11.315 273.823 11.315H270.148C270.048 11.315 269.998 11.36 269.998 11.45V14.48C269.998 14.57 270.048 14.615 270.148 14.615H273.358C273.498 14.615 273.568 14.685 273.568 14.825V15.365C273.568 15.505 273.498 15.575 273.358 15.575H270.148C270.048 15.575 269.998 15.62 269.998 15.71V18.905C269.998 18.995 270.048 19.04 270.148 19.04H273.823C273.963 19.04 274.033 19.11 274.033 19.25V19.79C274.033 19.93 273.963 20 273.823 20ZM57.3491 40H55.7291C55.0391 40 54.4941 39.805 54.0941 39.415C53.7041 39.025 53.5091 38.48 53.5091 37.78V32.575C53.5091 31.875 53.7041 31.33 54.0941 30.94C54.4941 30.55 55.0391 30.355 55.7291 30.355H57.3491C58.0391 30.355 58.5791 30.555 58.9691 30.955C59.3591 31.345 59.5541 31.885 59.5541 32.575V33.19C59.5541 33.34 59.4841 33.415 59.3441 33.415H58.6691C58.5291 33.415 58.4591 33.34 58.4591 33.19V32.62C58.4591 31.75 58.0441 31.315 57.2141 31.315H55.8491C55.0191 31.315 54.6041 31.75 54.6041 32.62V37.735C54.6041 38.605 55.0191 39.04 55.8491 39.04H57.2141C58.0441 39.04 58.4591 38.605 58.4591 37.735V36.055C58.4591 35.955 58.4141 35.905 58.3241 35.905H56.8391C56.6991 35.905 56.6291 35.84 56.6291 35.71V35.155C56.6291 35.015 56.6991 34.945 56.8391 34.945H59.2541C59.4541 34.945 59.5541 35.05 59.5541 35.26V37.78C59.5541 38.48 59.3591 39.025 58.9691 39.415C58.5791 39.805 58.0391 40 57.3491 40ZM61.8944 40H61.1444C61.0144 40 60.9694 39.93 61.0094 39.79L63.8144 30.565C63.8544 30.425 63.9494 30.355 64.0994 30.355H65.1794C65.3294 30.355 65.4244 30.425 65.4644 30.565L68.2694 39.79C68.3094 39.93 68.2644 40 68.1344 40H67.3694C67.2594 40 67.1894 39.93 67.1594 39.79L66.4544 37.6H62.8244L62.1194 39.79C62.0794 39.93 62.0044 40 61.8944 40ZM64.6094 31.48L63.0644 36.67H66.2144L64.6694 31.48H64.6094ZM69.7699 37.78V37.3C69.7699 37.16 69.8399 37.09 69.9799 37.09H70.6549C70.7949 37.09 70.8649 37.16 70.8649 37.3V37.69C70.8649 38.59 71.3099 39.04 72.1999 39.04H73.5199C74.4099 39.04 74.8549 38.58 74.8549 37.66V37.15C74.8549 36.43 74.2599 35.96 73.0699 35.74C72.5699 35.65 72.0699 35.545 71.5699 35.425C71.0699 35.305 70.6449 35.075 70.2949 34.735C69.9449 34.385 69.7699 33.91 69.7699 33.31V32.575C69.7699 31.885 69.9649 31.345 70.3549 30.955C70.7549 30.555 71.2999 30.355 71.9899 30.355H73.6549C74.3349 30.355 74.8749 30.555 75.2749 30.955C75.6749 31.345 75.8749 31.885 75.8749 32.575V32.95C75.8749 33.1 75.8099 33.175 75.6799 33.175H74.9899C74.8599 33.175 74.7949 33.1 74.7949 32.95V32.68C74.7949 31.77 74.3499 31.315 73.4599 31.315H72.1849C71.2949 31.315 70.8499 31.79 70.8499 32.74V33.34C70.8499 33.85 71.1849 34.2 71.8549 34.39C72.1549 34.47 72.4849 34.545 72.8449 34.615C73.2049 34.675 73.5649 34.76 73.9249 34.87C74.2949 34.97 74.6299 35.1 74.9299 35.26C75.2299 35.41 75.4699 35.645 75.6499 35.965C75.8399 36.275 75.9349 36.655 75.9349 37.105V37.78C75.9349 38.47 75.7349 39.015 75.3349 39.415C74.9349 39.805 74.3949 40 73.7149 40H71.9899C71.3099 40 70.7699 39.805 70.3699 39.415C69.9699 39.015 69.7699 38.47 69.7699 37.78ZM80.5503 40H79.8753C79.7353 40 79.6653 39.93 79.6653 39.79V31.45C79.6653 31.36 79.6153 31.315 79.5153 31.315H77.4753C77.3253 31.315 77.2503 31.245 77.2503 31.105V30.565C77.2503 30.425 77.3253 30.355 77.4753 30.355H82.9503C83.1003 30.355 83.1753 30.425 83.1753 30.565V31.105C83.1753 31.245 83.1003 31.315 82.9503 31.315H80.9103C80.8103 31.315 80.7603 31.36 80.7603 31.45V39.79C80.7603 39.93 80.6903 40 80.5503 40ZM85.4816 40H84.8066C84.6666 40 84.5966 39.93 84.5966 39.79V30.565C84.5966 30.425 84.6666 30.355 84.8066 30.355H88.2566C88.9466 30.355 89.4916 30.555 89.8916 30.955C90.2916 31.345 90.4916 31.885 90.4916 32.575V33.94C90.4916 34.5 90.3566 34.965 90.0866 35.335C89.8166 35.695 89.4416 35.935 88.9616 36.055V36.115L90.7016 39.76C90.7916 39.92 90.7416 40 90.5516 40H89.8766C89.7066 40 89.5816 39.93 89.5016 39.79L87.8216 36.16H85.8416C85.7416 36.16 85.6916 36.205 85.6916 36.295V39.79C85.6916 39.93 85.6216 40 85.4816 40ZM85.8416 35.245H88.1066C88.9666 35.245 89.3966 34.815 89.3966 33.955V32.62C89.3966 31.75 88.9666 31.315 88.1066 31.315H85.8416C85.7416 31.315 85.6916 31.36 85.6916 31.45V35.11C85.6916 35.2 85.7416 35.245 85.8416 35.245ZM94.8433 39.04H96.3733C97.2133 39.04 97.6333 38.605 97.6333 37.735V32.62C97.6333 31.75 97.2133 31.315 96.3733 31.315H94.8433C94.0133 31.315 93.5983 31.75 93.5983 32.62V37.735C93.5983 38.605 94.0133 39.04 94.8433 39.04ZM96.5083 40H94.7233C94.0333 40 93.4883 39.805 93.0883 39.415C92.6983 39.025 92.5033 38.48 92.5033 37.78V32.575C92.5033 31.875 92.6983 31.33 93.0883 30.94C93.4883 30.55 94.0333 30.355 94.7233 30.355H96.5083C97.1983 30.355 97.7383 30.555 98.1283 30.955C98.5283 31.345 98.7283 31.885 98.7283 32.575V37.78C98.7283 38.47 98.5283 39.015 98.1283 39.415C97.7383 39.805 97.1983 40 96.5083 40ZM101.814 40H101.154C101.014 40 100.944 39.93 100.944 39.79V30.565C100.944 30.425 101.014 30.355 101.154 30.355H101.769C101.889 30.355 101.969 30.395 102.009 30.475L106.149 37.75H106.209V30.565C106.209 30.425 106.279 30.355 106.419 30.355H107.079C107.219 30.355 107.289 30.425 107.289 30.565V39.79C107.289 39.93 107.219 40 107.079 40H106.524C106.414 40 106.309 39.935 106.209 39.805L102.084 32.605H102.024V39.79C102.024 39.93 101.954 40 101.814 40ZM111.85 39.04H113.38C114.22 39.04 114.64 38.605 114.64 37.735V32.62C114.64 31.75 114.22 31.315 113.38 31.315H111.85C111.02 31.315 110.605 31.75 110.605 32.62V37.735C110.605 38.605 111.02 39.04 111.85 39.04ZM113.515 40H111.73C111.04 40 110.495 39.805 110.095 39.415C109.705 39.025 109.51 38.48 109.51 37.78V32.575C109.51 31.875 109.705 31.33 110.095 30.94C110.495 30.55 111.04 30.355 111.73 30.355H113.515C114.205 30.355 114.745 30.555 115.135 30.955C115.535 31.345 115.735 31.885 115.735 32.575V37.78C115.735 38.47 115.535 39.015 115.135 39.415C114.745 39.805 114.205 40 113.515 40ZM124.731 30.355H125.946C126.086 30.355 126.156 30.425 126.156 30.565V39.79C126.156 39.93 126.086 40 125.946 40H125.286C125.146 40 125.076 39.93 125.076 39.79V31.825H125.016L122.691 37.705C122.631 37.835 122.541 37.9 122.421 37.9H121.701C121.571 37.9 121.486 37.835 121.446 37.705L119.076 31.81H119.016V39.79C119.016 39.93 118.951 40 118.821 40H118.161C118.021 40 117.951 39.93 117.951 39.79V30.565C117.951 30.425 118.021 30.355 118.161 30.355H119.376C119.466 30.355 119.526 30.395 119.556 30.475L122.016 36.685H122.091L124.551 30.475C124.571 30.395 124.631 30.355 124.731 30.355ZM129.697 30.565V39.79C129.697 39.93 129.627 40 129.487 40H128.812C128.672 40 128.602 39.93 128.602 39.79V30.565C128.602 30.425 128.672 30.355 128.812 30.355H129.487C129.627 30.355 129.697 30.425 129.697 30.565ZM137.065 40H132.355C132.215 40 132.145 39.93 132.145 39.79V30.565C132.145 30.425 132.215 30.355 132.355 30.355H137.065C137.205 30.355 137.275 30.425 137.275 30.565V31.105C137.275 31.245 137.205 31.315 137.065 31.315H133.39C133.29 31.315 133.24 31.36 133.24 31.45V34.48C133.24 34.57 133.29 34.615 133.39 34.615H136.6C136.74 34.615 136.81 34.685 136.81 34.825V35.365C136.81 35.505 136.74 35.575 136.6 35.575H133.39C133.29 35.575 133.24 35.62 133.24 35.71V38.905C133.24 38.995 133.29 39.04 133.39 39.04H137.065C137.205 39.04 137.275 39.11 137.275 39.25V39.79C137.275 39.93 137.205 40 137.065 40ZM143.056 37.78V37.3C143.056 37.16 143.126 37.09 143.266 37.09H143.941C144.081 37.09 144.151 37.16 144.151 37.3V37.69C144.151 38.59 144.596 39.04 145.486 39.04H146.806C147.696 39.04 148.141 38.58 148.141 37.66V37.15C148.141 36.43 147.546 35.96 146.356 35.74C145.856 35.65 145.356 35.545 144.856 35.425C144.356 35.305 143.931 35.075 143.581 34.735C143.231 34.385 143.056 33.91 143.056 33.31V32.575C143.056 31.885 143.251 31.345 143.641 30.955C144.041 30.555 144.586 30.355 145.276 30.355H146.941C147.621 30.355 148.161 30.555 148.561 30.955C148.961 31.345 149.161 31.885 149.161 32.575V32.95C149.161 33.1 149.096 33.175 148.966 33.175H148.276C148.146 33.175 148.081 33.1 148.081 32.95V32.68C148.081 31.77 147.636 31.315 146.746 31.315H145.471C144.581 31.315 144.136 31.79 144.136 32.74V33.34C144.136 33.85 144.471 34.2 145.141 34.39C145.441 34.47 145.771 34.545 146.131 34.615C146.491 34.675 146.851 34.76 147.211 34.87C147.581 34.97 147.916 35.1 148.216 35.26C148.516 35.41 148.756 35.645 148.936 35.965C149.126 36.275 149.221 36.655 149.221 37.105V37.78C149.221 38.47 149.021 39.015 148.621 39.415C148.221 39.805 147.681 40 147.001 40H145.276C144.596 40 144.056 39.805 143.656 39.415C143.256 39.015 143.056 38.47 143.056 37.78ZM156.611 30.355H157.286C157.426 30.355 157.496 30.42 157.496 30.55V37.78C157.496 38.48 157.301 39.025 156.911 39.415C156.521 39.805 155.981 40 155.291 40H153.626C152.936 40 152.391 39.805 151.991 39.415C151.601 39.025 151.406 38.48 151.406 37.78V30.565C151.406 30.425 151.476 30.355 151.616 30.355H152.291C152.431 30.355 152.501 30.425 152.501 30.565V37.735C152.501 38.605 152.916 39.04 153.746 39.04H155.156C155.996 39.04 156.416 38.605 156.416 37.735V30.565C156.416 30.425 156.481 30.355 156.611 30.355ZM160.672 40H159.997C159.857 40 159.787 39.93 159.787 39.79V30.565C159.787 30.425 159.857 30.355 159.997 30.355H163.447C164.137 30.355 164.682 30.555 165.082 30.955C165.482 31.345 165.682 31.885 165.682 32.575V33.94C165.682 34.5 165.547 34.965 165.277 35.335C165.007 35.695 164.632 35.935 164.152 36.055V36.115L165.892 39.76C165.982 39.92 165.932 40 165.742 40H165.067C164.897 40 164.772 39.93 164.692 39.79L163.012 36.16H161.032C160.932 36.16 160.882 36.205 160.882 36.295V39.79C160.882 39.93 160.812 40 160.672 40ZM161.032 35.245H163.297C164.157 35.245 164.587 34.815 164.587 33.955V32.62C164.587 31.75 164.157 31.315 163.297 31.315H161.032C160.932 31.315 160.882 31.36 160.882 31.45V35.11C160.882 35.2 160.932 35.245 161.032 35.245ZM176.677 40H171.862C171.722 40 171.652 39.93 171.652 39.79V30.565C171.652 30.425 171.722 30.355 171.862 30.355H172.537C172.677 30.355 172.747 30.425 172.747 30.565V38.875C172.747 38.965 172.797 39.01 172.897 39.01H176.677C176.817 39.01 176.887 39.085 176.887 39.235V39.79C176.887 39.93 176.817 40 176.677 40ZM178.54 40H177.79C177.66 40 177.615 39.93 177.655 39.79L180.46 30.565C180.5 30.425 180.595 30.355 180.745 30.355H181.825C181.975 30.355 182.07 30.425 182.11 30.565L184.915 39.79C184.955 39.93 184.91 40 184.78 40H184.015C183.905 40 183.835 39.93 183.805 39.79L183.1 37.6H179.47L178.765 39.79C178.725 39.93 178.65 40 178.54 40ZM181.255 31.48L179.71 36.67H182.86L181.315 31.48H181.255ZM191.214 40H190.539C190.399 40 190.329 39.93 190.329 39.79V30.565C190.329 30.425 190.399 30.355 190.539 30.355H193.989C194.679 30.355 195.224 30.555 195.624 30.955C196.024 31.345 196.224 31.885 196.224 32.575V33.94C196.224 34.5 196.089 34.965 195.819 35.335C195.549 35.695 195.174 35.935 194.694 36.055V36.115L196.434 39.76C196.524 39.92 196.474 40 196.284 40H195.609C195.439 40 195.314 39.93 195.234 39.79L193.554 36.16H191.574C191.474 36.16 191.424 36.205 191.424 36.295V39.79C191.424 39.93 191.354 40 191.214 40ZM191.574 35.245H193.839C194.699 35.245 195.129 34.815 195.129 33.955V32.62C195.129 31.75 194.699 31.315 193.839 31.315H191.574C191.474 31.315 191.424 31.36 191.424 31.45V35.11C191.424 35.2 191.474 35.245 191.574 35.245ZM201.656 27.46H202.556C202.626 27.46 202.671 27.48 202.691 27.52C202.711 27.56 202.701 27.61 202.661 27.67L201.341 29.245C201.261 29.345 201.166 29.395 201.056 29.395H200.561C200.421 29.395 200.391 29.325 200.471 29.185L201.326 27.655C201.396 27.525 201.506 27.46 201.656 27.46ZM203.306 40H198.596C198.456 40 198.386 39.93 198.386 39.79V30.565C198.386 30.425 198.456 30.355 198.596 30.355H203.306C203.446 30.355 203.516 30.425 203.516 30.565V31.105C203.516 31.245 203.446 31.315 203.306 31.315H199.631C199.531 31.315 199.481 31.36 199.481 31.45V34.48C199.481 34.57 199.531 34.615 199.631 34.615H202.841C202.981 34.615 203.051 34.685 203.051 34.825V35.365C203.051 35.505 202.981 35.575 202.841 35.575H199.631C199.531 35.575 199.481 35.62 199.481 35.71V38.905C199.481 38.995 199.531 39.04 199.631 39.04H203.306C203.446 39.04 203.516 39.11 203.516 39.25V39.79C203.516 39.93 203.446 40 203.306 40ZM209.283 40H207.663C206.973 40 206.428 39.805 206.028 39.415C205.638 39.025 205.443 38.48 205.443 37.78V32.575C205.443 31.875 205.638 31.33 206.028 30.94C206.428 30.55 206.973 30.355 207.663 30.355H209.283C209.973 30.355 210.513 30.555 210.903 30.955C211.293 31.345 211.488 31.885 211.488 32.575V33.19C211.488 33.34 211.418 33.415 211.278 33.415H210.603C210.463 33.415 210.393 33.34 210.393 33.19V32.62C210.393 31.75 209.978 31.315 209.148 31.315H207.783C206.953 31.315 206.538 31.75 206.538 32.62V37.735C206.538 38.605 206.953 39.04 207.783 39.04H209.148C209.978 39.04 210.393 38.605 210.393 37.735V36.055C210.393 35.955 210.348 35.905 210.258 35.905H208.773C208.633 35.905 208.563 35.84 208.563 35.71V35.155C208.563 35.015 208.633 34.945 208.773 34.945H211.188C211.388 34.945 211.488 35.05 211.488 35.26V37.78C211.488 38.48 211.293 39.025 210.903 39.415C210.513 39.805 209.973 40 209.283 40ZM214.878 30.565V39.79C214.878 39.93 214.808 40 214.668 40H213.993C213.853 40 213.783 39.93 213.783 39.79V30.565C213.783 30.425 213.853 30.355 213.993 30.355H214.668C214.808 30.355 214.878 30.425 214.878 30.565ZM219.516 39.04H221.046C221.886 39.04 222.306 38.605 222.306 37.735V32.62C222.306 31.75 221.886 31.315 221.046 31.315H219.516C218.686 31.315 218.271 31.75 218.271 32.62V37.735C218.271 38.605 218.686 39.04 219.516 39.04ZM221.181 40H219.396C218.706 40 218.161 39.805 217.761 39.415C217.371 39.025 217.176 38.48 217.176 37.78V32.575C217.176 31.875 217.371 31.33 217.761 30.94C218.161 30.55 218.706 30.355 219.396 30.355H221.181C221.871 30.355 222.411 30.555 222.801 30.955C223.201 31.345 223.401 31.885 223.401 32.575V37.78C223.401 38.47 223.201 39.015 222.801 39.415C222.411 39.805 221.871 40 221.181 40ZM226.487 40H225.827C225.687 40 225.617 39.93 225.617 39.79V30.565C225.617 30.425 225.687 30.355 225.827 30.355H226.442C226.562 30.355 226.642 30.395 226.682 30.475L230.822 37.75H230.882V30.565C230.882 30.425 230.952 30.355 231.092 30.355H231.752C231.892 30.355 231.962 30.425 231.962 30.565V39.79C231.962 39.93 231.892 40 231.752 40H231.197C231.087 40 230.982 39.935 230.882 39.805L226.757 32.605H226.697V39.79C226.697 39.93 226.627 40 226.487 40ZM238.127 32.305V30.565C238.127 30.425 238.197 30.355 238.337 30.355H239.132C239.272 30.355 239.342 30.425 239.342 30.565V32.305C239.342 33.255 239.312 34.18 239.252 35.08C239.192 35.98 239.152 36.49 239.132 36.61C239.112 36.73 239.047 36.79 238.937 36.79H238.532C238.402 36.79 238.332 36.715 238.322 36.565C238.282 36.175 238.237 35.49 238.187 34.51C238.147 33.53 238.127 32.795 238.127 32.305ZM239.312 37.975V39.79C239.312 39.93 239.242 40 239.102 40H238.382C238.252 40 238.187 39.925 238.187 39.775V37.975C238.187 37.845 238.252 37.78 238.382 37.78H239.102C239.242 37.78 239.312 37.845 239.312 37.975ZM242.391 30.55V31.42C242.391 31.65 242.321 31.975 242.181 32.395L241.671 33.82C241.641 33.89 241.586 33.925 241.506 33.925C241.396 33.925 241.341 33.865 241.341 33.745V30.565C241.341 30.425 241.411 30.355 241.551 30.355H242.196C242.326 30.355 242.391 30.42 242.391 30.55ZM244.701 30.55V31.42C244.701 31.67 244.626 31.995 244.476 32.395L243.981 33.82C243.951 33.89 243.886 33.925 243.786 33.925C243.696 33.925 243.651 33.865 243.651 33.745V30.565C243.651 30.425 243.716 30.355 243.846 30.355H244.506C244.636 30.355 244.701 30.42 244.701 30.55Z" fill="#686666"/>
    <path d="M72.3826 49.5H75.7426C76.6126 49.5 77.3826 49.71 78.0526 50.13C78.7326 50.55 79.2626 51.155 79.6426 51.945C80.0226 52.735 80.2126 53.67 80.2126 54.75C80.2126 55.83 80.0226 56.765 79.6426 57.555C79.2626 58.345 78.7326 58.95 78.0526 59.37C77.3826 59.79 76.6126 60 75.7426 60H72.3826V49.5ZM75.4876 58.755C76.5376 58.755 77.3326 58.405 77.8726 57.705C78.4226 57.005 78.6976 56.02 78.6976 54.75C78.6976 53.48 78.4226 52.495 77.8726 51.795C77.3326 51.095 76.5376 50.745 75.4876 50.745H73.7476V58.755H75.4876ZM84.5061 60.15C83.7661 60.15 83.1311 59.98 82.6011 59.64C82.0811 59.29 81.6861 58.82 81.4161 58.23C81.1561 57.64 81.0261 56.985 81.0261 56.265C81.0261 55.575 81.1461 54.945 81.3861 54.375C81.6361 53.795 81.9911 53.34 82.4511 53.01C82.9211 52.67 83.4761 52.5 84.1161 52.5C84.9361 52.5 85.6011 52.775 86.1111 53.325C86.6311 53.875 86.8911 54.635 86.8911 55.605C86.8911 55.775 86.8711 56.01 86.8311 56.31H82.3611C82.3911 57.18 82.6061 57.84 83.0061 58.29C83.4161 58.74 83.9461 58.965 84.5961 58.965C84.9061 58.965 85.2311 58.93 85.5711 58.86C85.9211 58.78 86.2261 58.67 86.4861 58.53L86.6061 59.7C86.0561 60 85.3561 60.15 84.5061 60.15ZM85.5561 55.395C85.5561 54.895 85.4311 54.49 85.1811 54.18C84.9411 53.86 84.5911 53.7 84.1311 53.7C83.6811 53.7 83.3061 53.84 83.0061 54.12C82.7161 54.4 82.5211 54.825 82.4211 55.395H85.5561ZM83.0361 50.325L85.2411 48.915V50.385L83.0361 51.24V50.325ZM90.9929 60.15C89.8729 60.15 89.0229 59.8 88.4429 59.1C87.8629 58.39 87.5729 57.48 87.5729 56.37C87.5729 55.22 87.8629 54.29 88.4429 53.58C89.0229 52.86 89.8829 52.5 91.0229 52.5C91.6329 52.5 92.1779 52.625 92.6579 52.875L92.4479 54.03C91.9979 53.79 91.5279 53.67 91.0379 53.67C90.3679 53.67 89.8429 53.905 89.4629 54.375C89.0929 54.835 88.9079 55.48 88.9079 56.31C88.9079 57.14 89.0979 57.795 89.4779 58.275C89.8679 58.755 90.4029 58.995 91.0829 58.995C91.6029 58.995 92.0629 58.875 92.4629 58.635L92.6429 59.805C92.4429 59.905 92.1929 59.985 91.8929 60.045C91.5929 60.115 91.2929 60.15 90.9929 60.15ZM96.4368 60.15C95.7768 60.15 95.2068 59.985 94.7268 59.655C94.2468 59.315 93.8768 58.855 93.6168 58.275C93.3668 57.695 93.2418 57.045 93.2418 56.325C93.2418 55.605 93.3668 54.955 93.6168 54.375C93.8768 53.795 94.2468 53.34 94.7268 53.01C95.2068 52.67 95.7768 52.5 96.4368 52.5C97.0868 52.5 97.6518 52.67 98.1318 53.01C98.6118 53.34 98.9768 53.795 99.2268 54.375C99.4768 54.955 99.6018 55.605 99.6018 56.325C99.6018 57.045 99.4768 57.695 99.2268 58.275C98.9768 58.855 98.6118 59.315 98.1318 59.655C97.6518 59.985 97.0868 60.15 96.4368 60.15ZM96.4368 58.995C97.0168 58.995 97.4668 58.76 97.7868 58.29C98.1068 57.82 98.2668 57.165 98.2668 56.325C98.2668 55.485 98.1068 54.835 97.7868 54.375C97.4668 53.905 97.0168 53.67 96.4368 53.67C95.8368 53.67 95.3768 53.905 95.0568 54.375C94.7368 54.835 94.5768 55.485 94.5768 56.325C94.5768 57.175 94.7368 57.835 95.0568 58.305C95.3768 58.765 95.8368 58.995 96.4368 58.995ZM106.062 52.65V60H104.952L104.862 59.1C104.662 59.43 104.392 59.69 104.052 59.88C103.712 60.06 103.337 60.15 102.927 60.15C102.157 60.15 101.582 59.895 101.202 59.385C100.832 58.865 100.647 58.125 100.647 57.165V52.65H101.952V57C101.952 57.66 102.047 58.155 102.237 58.485C102.437 58.805 102.767 58.965 103.227 58.965C103.547 58.965 103.837 58.875 104.097 58.695C104.357 58.515 104.577 58.265 104.757 57.945V52.65H106.062ZM107.136 52.65H108.531L110.241 58.455L111.921 52.65H113.316L110.886 60H109.581L107.136 52.65ZM114.23 52.65H115.295L115.46 53.88C115.79 53.4 116.1 53.05 116.39 52.83C116.69 52.61 117.005 52.5 117.335 52.5C117.465 52.5 117.58 52.515 117.68 52.545L117.545 54.03C117.415 54 117.265 53.985 117.095 53.985C116.765 53.985 116.455 54.07 116.165 54.24C115.875 54.4 115.665 54.59 115.535 54.81V60H114.23V52.65ZM118.669 49.5H119.974V50.985H118.669V49.5ZM118.669 52.65H119.974V60H118.669V52.65ZM121.715 52.65H122.78L122.945 53.88C123.275 53.4 123.585 53.05 123.875 52.83C124.175 52.61 124.49 52.5 124.82 52.5C124.95 52.5 125.065 52.515 125.165 52.545L125.03 54.03C124.9 54 124.75 53.985 124.58 53.985C124.25 53.985 123.94 54.07 123.65 54.24C123.36 54.4 123.15 54.59 123.02 54.81V60H121.715V52.65ZM130.929 60.15C130.069 60.15 129.324 59.95 128.694 59.55L128.859 58.23C129.499 58.73 130.159 58.98 130.839 58.98C131.199 58.98 131.479 58.905 131.679 58.755C131.889 58.605 131.994 58.385 131.994 58.095C131.994 57.875 131.944 57.695 131.844 57.555C131.754 57.415 131.599 57.28 131.379 57.15C131.159 57.02 130.819 56.85 130.359 56.64C129.819 56.39 129.424 56.105 129.174 55.785C128.924 55.465 128.799 55.05 128.799 54.54C128.799 53.94 129.009 53.45 129.429 53.07C129.849 52.69 130.414 52.5 131.124 52.5C131.844 52.5 132.474 52.66 133.014 52.98L132.849 54.195C132.579 54.015 132.324 53.885 132.084 53.805C131.844 53.715 131.559 53.67 131.229 53.67C130.879 53.67 130.604 53.745 130.404 53.895C130.204 54.045 130.104 54.255 130.104 54.525C130.104 54.795 130.189 55 130.359 55.14C130.539 55.28 130.884 55.465 131.394 55.695C132.104 56.015 132.604 56.34 132.894 56.67C133.184 56.99 133.329 57.415 133.329 57.945C133.329 58.635 133.114 59.175 132.684 59.565C132.254 59.955 131.669 60.15 130.929 60.15ZM139.709 52.65V60H138.599L138.509 59.1C138.309 59.43 138.039 59.69 137.699 59.88C137.359 60.06 136.984 60.15 136.574 60.15C135.804 60.15 135.229 59.895 134.849 59.385C134.479 58.865 134.294 58.125 134.294 57.165V52.65H135.599V57C135.599 57.66 135.694 58.155 135.884 58.485C136.084 58.805 136.414 58.965 136.874 58.965C137.194 58.965 137.484 58.875 137.744 58.695C138.004 58.515 138.224 58.265 138.404 57.945V52.65H139.709ZM141.579 52.65H142.644L142.809 53.88C143.139 53.4 143.449 53.05 143.739 52.83C144.039 52.61 144.354 52.5 144.684 52.5C144.814 52.5 144.929 52.515 145.029 52.545L144.894 54.03C144.764 54 144.614 53.985 144.444 53.985C144.114 53.985 143.804 54.07 143.514 54.24C143.224 54.4 143.014 54.59 142.884 54.81V60H141.579V52.65Z" fill="#8F8F8F"/>
    <path d="M149.311 58.2L150.076 57.405C150.616 57.975 151.191 58.41 151.801 58.71C152.421 59 153.071 59.145 153.751 59.145C154.571 59.145 155.246 58.95 155.776 58.56C156.306 58.17 156.571 57.675 156.571 57.075C156.571 56.535 156.381 56.12 156.001 55.83C155.631 55.54 155.016 55.325 154.156 55.185L152.641 54.945C151.631 54.785 150.886 54.49 150.406 54.06C149.926 53.62 149.686 53.03 149.686 52.29C149.686 51.42 150.026 50.715 150.706 50.175C151.386 49.635 152.276 49.365 153.376 49.365C154.106 49.365 154.831 49.485 155.551 49.725C156.271 49.965 156.926 50.31 157.516 50.76L156.856 51.66C156.286 51.23 155.706 50.905 155.116 50.685C154.526 50.465 153.931 50.355 153.331 50.355C152.581 50.355 151.971 50.53 151.501 50.88C151.041 51.22 150.811 51.66 150.811 52.2C150.811 52.69 150.976 53.065 151.306 53.325C151.636 53.585 152.181 53.775 152.941 53.895L154.441 54.135C155.581 54.325 156.411 54.65 156.931 55.11C157.461 55.57 157.726 56.205 157.726 57.015C157.726 57.475 157.626 57.9 157.426 58.29C157.236 58.67 156.961 59 156.601 59.28C156.251 59.55 155.826 59.765 155.326 59.925C154.836 60.075 154.296 60.15 153.706 60.15C152.876 60.15 152.076 59.985 151.306 59.655C150.546 59.315 149.881 58.83 149.311 58.2ZM160.151 52.485V57.015C160.151 57.675 160.341 58.2 160.721 58.59C161.101 58.98 161.611 59.175 162.251 59.175C162.701 59.175 163.101 59.075 163.451 58.875C163.811 58.665 164.101 58.375 164.321 58.005V52.485H165.431V60H164.321V59.13C164.031 59.47 163.686 59.725 163.286 59.895C162.896 60.065 162.456 60.15 161.966 60.15C161.106 60.15 160.406 59.88 159.866 59.34C159.326 58.8 159.056 58.1 159.056 57.24V52.485H160.151ZM173.183 60V59.205C172.863 59.505 172.493 59.735 172.073 59.895C171.663 60.045 171.223 60.12 170.753 60.12C170.223 60.12 169.728 60.02 169.268 59.82C168.808 59.62 168.408 59.35 168.068 59.01C167.728 58.66 167.458 58.245 167.258 57.765C167.068 57.285 166.973 56.775 166.973 56.235C166.973 55.695 167.068 55.19 167.258 54.72C167.458 54.24 167.728 53.83 168.068 53.49C168.408 53.14 168.808 52.865 169.268 52.665C169.738 52.465 170.238 52.365 170.768 52.365C171.198 52.365 171.618 52.44 172.028 52.59C172.448 52.73 172.828 52.94 173.168 53.22V49.5L174.278 49.245V60H173.183ZM168.068 56.22C168.068 56.63 168.138 57.015 168.278 57.375C168.428 57.735 168.628 58.045 168.878 58.305C169.128 58.565 169.423 58.77 169.763 58.92C170.103 59.07 170.468 59.145 170.858 59.145C171.328 59.145 171.763 59.055 172.163 58.875C172.573 58.685 172.908 58.425 173.168 58.095V54.375C172.908 54.055 172.573 53.805 172.163 53.625C171.753 53.435 171.318 53.34 170.858 53.34C170.078 53.34 169.418 53.615 168.878 54.165C168.338 54.715 168.068 55.4 168.068 56.22ZM184.578 59.1C185.228 59.1 185.848 58.975 186.438 58.725C187.028 58.465 187.523 58.11 187.923 57.66L188.673 58.44C188.153 58.98 187.533 59.405 186.813 59.715C186.093 60.015 185.338 60.165 184.548 60.165C183.788 60.165 183.073 60.025 182.403 59.745C181.743 59.465 181.168 59.085 180.678 58.605C180.188 58.115 179.803 57.54 179.523 56.88C179.243 56.21 179.103 55.5 179.103 54.75C179.103 54 179.243 53.295 179.523 52.635C179.803 51.965 180.188 51.39 180.678 50.91C181.168 50.42 181.743 50.035 182.403 49.755C183.073 49.475 183.788 49.335 184.548 49.335C185.358 49.335 186.123 49.49 186.843 49.8C187.573 50.1 188.193 50.52 188.703 51.06L187.938 51.87C187.528 51.41 187.018 51.05 186.408 50.79C185.808 50.53 185.188 50.4 184.548 50.4C183.948 50.4 183.383 50.515 182.853 50.745C182.333 50.965 181.883 51.27 181.503 51.66C181.123 52.04 180.823 52.5 180.603 53.04C180.383 53.57 180.273 54.14 180.273 54.75C180.273 55.36 180.383 55.935 180.603 56.475C180.823 57.005 181.123 57.465 181.503 57.855C181.893 58.235 182.348 58.54 182.868 58.77C183.398 58.99 183.968 59.1 184.578 59.1ZM190.986 52.485V57.015C190.986 57.675 191.176 58.2 191.556 58.59C191.936 58.98 192.446 59.175 193.086 59.175C193.536 59.175 193.936 59.075 194.286 58.875C194.646 58.665 194.936 58.375 195.156 58.005V52.485H196.266V60H195.156V59.13C194.866 59.47 194.521 59.725 194.121 59.895C193.731 60.065 193.291 60.15 192.801 60.15C191.941 60.15 191.241 59.88 190.701 59.34C190.161 58.8 189.891 58.1 189.891 57.24V52.485H190.986ZM198.708 51.045C198.508 51.045 198.333 50.97 198.183 50.82C198.033 50.67 197.958 50.495 197.958 50.295C197.958 50.085 198.033 49.91 198.183 49.77C198.333 49.62 198.508 49.545 198.708 49.545C198.918 49.545 199.093 49.62 199.233 49.77C199.383 49.91 199.458 50.085 199.458 50.295C199.458 50.495 199.383 50.67 199.233 50.82C199.093 50.97 198.918 51.045 198.708 51.045ZM199.263 52.485V60H198.153V52.485H199.263ZM200.391 58.965L201.066 58.245C201.406 58.565 201.786 58.815 202.206 58.995C202.636 59.165 203.071 59.25 203.511 59.25C204.111 59.25 204.601 59.125 204.981 58.875C205.361 58.625 205.551 58.3 205.551 57.9C205.551 57.58 205.436 57.33 205.206 57.15C204.986 56.96 204.636 56.83 204.156 56.76L202.851 56.58C202.101 56.47 201.541 56.25 201.171 55.92C200.811 55.58 200.631 55.125 200.631 54.555C200.631 53.925 200.896 53.405 201.426 52.995C201.956 52.575 202.631 52.365 203.451 52.365C203.991 52.365 204.501 52.445 204.981 52.605C205.471 52.765 205.946 53.015 206.406 53.355L205.821 54.105C205.401 53.825 204.991 53.615 204.591 53.475C204.201 53.335 203.801 53.265 203.391 53.265C202.881 53.265 202.461 53.38 202.131 53.61C201.811 53.84 201.651 54.14 201.651 54.51C201.651 54.83 201.761 55.08 201.981 55.26C202.201 55.43 202.556 55.55 203.046 55.62L204.351 55.8C205.101 55.9 205.661 56.125 206.031 56.475C206.411 56.815 206.601 57.27 206.601 57.84C206.601 58.16 206.521 58.465 206.361 58.755C206.211 59.035 205.996 59.28 205.716 59.49C205.446 59.69 205.126 59.85 204.756 59.97C204.386 60.08 203.986 60.135 203.556 60.135C202.936 60.135 202.351 60.035 201.801 59.835C201.261 59.625 200.791 59.335 200.391 58.965ZM208.405 51.045C208.205 51.045 208.03 50.97 207.88 50.82C207.73 50.67 207.655 50.495 207.655 50.295C207.655 50.085 207.73 49.91 207.88 49.77C208.03 49.62 208.205 49.545 208.405 49.545C208.615 49.545 208.79 49.62 208.93 49.77C209.08 49.91 209.155 50.085 209.155 50.295C209.155 50.495 209.08 50.67 208.93 50.82C208.79 50.97 208.615 51.045 208.405 51.045ZM208.96 52.485V60H207.85V52.485H208.96ZM210.853 60V52.485H211.963V53.37C212.253 53.03 212.598 52.775 212.998 52.605C213.398 52.425 213.843 52.335 214.333 52.335C215.183 52.335 215.878 52.605 216.418 53.145C216.958 53.685 217.228 54.385 217.228 55.245V60H216.133V55.47C216.133 54.81 215.943 54.285 215.563 53.895C215.183 53.505 214.673 53.31 214.033 53.31C213.583 53.31 213.178 53.41 212.818 53.61C212.468 53.81 212.183 54.095 211.963 54.465V60H210.853ZM225.416 59.205C224.996 59.515 224.556 59.75 224.096 59.91C223.646 60.06 223.151 60.135 222.611 60.135C222.071 60.135 221.561 60.035 221.081 59.835C220.611 59.635 220.201 59.36 219.851 59.01C219.511 58.66 219.241 58.25 219.041 57.78C218.841 57.3 218.741 56.785 218.741 56.235C218.741 55.695 218.836 55.19 219.026 54.72C219.226 54.25 219.491 53.84 219.821 53.49C220.151 53.14 220.541 52.865 220.991 52.665C221.451 52.465 221.936 52.365 222.446 52.365C222.946 52.365 223.411 52.465 223.841 52.665C224.281 52.865 224.656 53.14 224.966 53.49C225.286 53.84 225.536 54.25 225.716 54.72C225.906 55.19 226.001 55.695 226.001 56.235V56.58H219.836C219.916 57.32 220.221 57.935 220.751 58.425C221.281 58.915 221.916 59.16 222.656 59.16C223.046 59.16 223.426 59.1 223.796 58.98C224.166 58.86 224.476 58.69 224.726 58.47L225.416 59.205ZM222.416 53.34C221.766 53.34 221.201 53.56 220.721 54C220.251 54.44 219.966 55.005 219.866 55.695H224.891C224.791 55.035 224.506 54.48 224.036 54.03C223.576 53.57 223.036 53.34 222.416 53.34Z" fill="#C54B25"/>
    <path d="M127.203 95.542C126.886 95.542 126.622 95.5054 126.412 95.4321C126.202 95.3638 126.036 95.2856 125.914 95.1978C125.792 95.1099 125.707 95.0269 125.658 94.9487C125.609 94.8657 125.584 94.812 125.584 94.7876C125.584 94.6997 125.604 94.6069 125.643 94.5093C125.682 94.4067 125.731 94.314 125.79 94.231C125.848 94.1431 125.912 94.0698 125.98 94.0112C126.048 93.9526 126.109 93.9233 126.163 93.9233C126.231 93.9233 126.288 93.9673 126.332 94.0552C126.341 94.0649 126.366 94.0894 126.405 94.1284C126.444 94.1675 126.498 94.209 126.566 94.2529C126.639 94.292 126.727 94.3286 126.83 94.3628C126.937 94.397 127.062 94.4141 127.203 94.4141C127.511 94.4141 127.762 94.3213 127.958 94.1357C128.153 93.9453 128.25 93.689 128.25 93.3667C128.25 93.1421 128.197 92.9419 128.089 92.7661C127.987 92.5903 127.85 92.4268 127.679 92.2754C127.508 92.124 127.313 91.9775 127.093 91.8359C126.874 91.6895 126.649 91.5381 126.419 91.3818C126.19 91.2256 125.965 91.0571 125.746 90.8765C125.526 90.6958 125.331 90.4883 125.16 90.2539C124.989 90.0195 124.85 89.7559 124.742 89.4629C124.64 89.165 124.588 88.8257 124.588 88.4448C124.588 88.1177 124.645 87.7881 124.757 87.4561C124.869 87.124 125.023 86.8091 125.218 86.5112C125.418 86.2085 125.653 85.9277 125.921 85.6689C126.19 85.4053 126.48 85.1782 126.793 84.9878C127.105 84.7925 127.43 84.6411 127.767 84.5337C128.109 84.4214 128.451 84.3652 128.792 84.3652C129.085 84.3652 129.349 84.4116 129.583 84.5044C129.818 84.5972 130.016 84.729 130.177 84.8999C130.338 85.0659 130.462 85.2686 130.55 85.5078C130.638 85.7422 130.682 86.0059 130.682 86.2988C130.682 86.5771 130.633 86.8506 130.536 87.1191C130.438 87.3877 130.309 87.6416 130.147 87.8809C129.986 88.1201 129.803 88.3423 129.598 88.5474C129.398 88.7476 129.19 88.9233 128.976 89.0747C128.766 89.2212 128.561 89.3359 128.36 89.4189C128.16 89.502 127.984 89.5435 127.833 89.5435C127.701 89.5435 127.582 89.5142 127.474 89.4556C127.372 89.3921 127.284 89.3164 127.21 89.2285C127.142 89.1357 127.088 89.0405 127.049 88.9429C127.01 88.8403 126.991 88.75 126.991 88.6719C126.991 88.6084 126.998 88.5669 127.013 88.5474C127.032 88.5278 127.057 88.5205 127.086 88.5254C127.12 88.5254 127.162 88.5327 127.21 88.5474C127.259 88.5571 127.315 88.562 127.379 88.562C127.584 88.562 127.811 88.4912 128.06 88.3496C128.309 88.208 128.543 88.0273 128.763 87.8076C128.983 87.5879 129.166 87.3462 129.312 87.0825C129.464 86.8188 129.54 86.5625 129.54 86.3135C129.54 86.0596 129.476 85.8594 129.349 85.7129C129.227 85.5664 129.017 85.4932 128.719 85.4932C128.534 85.4932 128.331 85.5298 128.111 85.603C127.896 85.6714 127.679 85.769 127.459 85.896C127.24 86.0229 127.027 86.1768 126.822 86.3574C126.617 86.5381 126.437 86.7383 126.28 86.958C126.124 87.1729 125.997 87.4072 125.899 87.6611C125.807 87.9102 125.76 88.1714 125.76 88.4448C125.76 88.7329 125.812 88.9917 125.914 89.2212C126.021 89.4458 126.161 89.6509 126.332 89.8364C126.507 90.022 126.705 90.1929 126.925 90.3491C127.145 90.5054 127.369 90.6616 127.599 90.8179C127.828 90.9692 128.053 91.1279 128.272 91.2939C128.492 91.4551 128.688 91.6357 128.858 91.8359C129.034 92.0312 129.173 92.251 129.276 92.4951C129.383 92.7344 129.437 93.0103 129.437 93.3228C129.437 93.6255 129.378 93.9136 129.261 94.187C129.149 94.4556 128.993 94.6899 128.792 94.8901C128.592 95.0903 128.355 95.249 128.082 95.3662C127.809 95.4834 127.516 95.542 127.203 95.542ZM134.886 95.4175C134.715 95.4175 134.559 95.3906 134.417 95.3369C134.281 95.2832 134.159 95.2075 134.051 95.1099C133.949 95.0171 133.863 94.9072 133.795 94.7803C133.727 94.6484 133.68 94.5068 133.656 94.3555C133.475 94.6729 133.263 94.9316 133.019 95.1318C132.774 95.332 132.486 95.4321 132.154 95.4321C131.905 95.4321 131.681 95.3809 131.48 95.2783C131.285 95.1758 131.119 95.0317 130.982 94.8462C130.846 94.6558 130.741 94.4287 130.667 94.165C130.599 93.8965 130.565 93.5986 130.565 93.2715C130.565 92.876 130.592 92.478 130.646 92.0776C130.704 91.6772 130.768 91.3159 130.836 90.9937C130.914 90.6177 131.004 90.2539 131.107 89.9023C131.131 89.8389 131.148 89.7754 131.158 89.7119C131.173 89.6436 131.202 89.5825 131.246 89.5288C131.29 89.4751 131.358 89.4312 131.451 89.397C131.549 89.3628 131.698 89.3457 131.898 89.3457C132.083 89.3457 132.203 89.3799 132.257 89.4482C132.311 89.5117 132.33 89.5874 132.315 89.6753C132.306 89.7632 132.276 89.8535 132.228 89.9463C132.184 90.0391 132.154 90.1147 132.14 90.1733C132.071 90.4517 132.01 90.7056 131.957 90.9351C131.903 91.1646 131.856 91.3965 131.817 91.6309C131.783 91.8604 131.756 92.1021 131.737 92.356C131.717 92.605 131.708 92.8857 131.708 93.1982C131.708 93.6084 131.766 93.9185 131.883 94.1284C132.005 94.3384 132.176 94.4434 132.396 94.4434C132.547 94.4434 132.687 94.3872 132.813 94.2749C132.945 94.1626 133.062 94.0137 133.165 93.8281C133.272 93.6377 133.365 93.4229 133.443 93.1836C133.521 92.9395 133.583 92.6855 133.626 92.4219V90.0049C133.626 89.8975 133.617 89.812 133.597 89.7485C133.583 89.6851 133.565 89.6362 133.546 89.6021C133.531 89.563 133.514 89.5337 133.495 89.5142C133.48 89.4897 133.473 89.4629 133.473 89.4336C133.473 89.4092 133.487 89.3872 133.517 89.3677C133.546 89.3481 133.585 89.3311 133.634 89.3164C133.683 89.3018 133.734 89.292 133.788 89.2871C133.846 89.2773 133.902 89.2725 133.956 89.2725C134.205 89.2725 134.4 89.3384 134.542 89.4702C134.688 89.5972 134.762 89.751 134.762 89.9316V93.7402C134.762 93.7744 134.764 93.8306 134.769 93.9087C134.774 93.9819 134.789 94.0576 134.813 94.1357C134.837 94.2139 134.876 94.2822 134.93 94.3408C134.984 94.3994 135.06 94.4287 135.157 94.4287C135.309 94.4287 135.438 94.375 135.545 94.2676C135.658 94.1602 135.753 94.0259 135.831 93.8647C135.914 93.7036 135.98 93.5303 136.029 93.3447C136.083 93.1543 136.126 92.9761 136.161 92.8101C136.19 92.6538 136.239 92.5415 136.307 92.4731C136.375 92.3999 136.446 92.3633 136.52 92.3633C136.578 92.3633 136.639 92.3828 136.703 92.4219C136.766 92.4561 136.822 92.5024 136.871 92.561C136.925 92.6196 136.966 92.6855 136.996 92.7588C137.03 92.832 137.047 92.9053 137.047 92.9785C137.047 92.9883 137.047 93.0005 137.047 93.0151C137.047 93.0298 137.042 93.0518 137.032 93.0811C136.964 93.3301 136.874 93.5913 136.761 93.8647C136.654 94.1382 136.515 94.3896 136.344 94.6191C136.173 94.8486 135.968 95.0391 135.729 95.1904C135.489 95.3418 135.208 95.4175 134.886 95.4175ZM137.904 95.4175C137.611 95.4175 137.345 95.3662 137.105 95.2637C136.866 95.1611 136.661 95.0098 136.49 94.8096C136.324 94.6045 136.195 94.353 136.102 94.0552C136.014 93.7524 135.97 93.4033 135.97 93.0078C135.97 92.4316 136.051 91.9189 136.212 91.4697C136.373 91.0156 136.593 90.6274 136.871 90.3052C137.149 89.978 137.472 89.7192 137.838 89.5288C138.204 89.3335 138.592 89.2065 139.002 89.1479V85.7568C139.002 85.6494 138.993 85.564 138.973 85.5005C138.958 85.437 138.941 85.3882 138.922 85.354C138.907 85.3149 138.89 85.2856 138.871 85.2661C138.856 85.2417 138.849 85.2173 138.849 85.1929C138.849 85.1636 138.863 85.1392 138.893 85.1196C138.922 85.1001 138.961 85.083 139.01 85.0684C139.059 85.0537 139.11 85.0439 139.164 85.0391C139.222 85.0293 139.278 85.0244 139.332 85.0244C139.581 85.0244 139.776 85.0903 139.918 85.2222C140.064 85.3491 140.138 85.5029 140.138 85.6836V93.7402C140.138 93.8232 140.147 93.9062 140.167 93.9893C140.187 94.0674 140.216 94.1406 140.255 94.209C140.299 94.2725 140.353 94.3262 140.416 94.3701C140.484 94.4092 140.562 94.4287 140.65 94.4287C140.802 94.4287 140.931 94.375 141.039 94.2676C141.151 94.1602 141.246 94.0259 141.324 93.8647C141.407 93.7036 141.473 93.5303 141.522 93.3447C141.576 93.1543 141.62 92.9761 141.654 92.8101C141.683 92.6538 141.732 92.5415 141.8 92.4731C141.869 92.3999 141.939 92.3633 142.013 92.3633C142.071 92.3633 142.132 92.3828 142.196 92.4219C142.259 92.4561 142.315 92.5024 142.364 92.561C142.418 92.6196 142.459 92.6855 142.489 92.7588C142.523 92.832 142.54 92.9053 142.54 92.9785C142.54 92.9883 142.54 93.0005 142.54 93.0151C142.54 93.0298 142.535 93.0518 142.525 93.0811C142.462 93.3301 142.374 93.5913 142.262 93.8647C142.154 94.1382 142.013 94.3896 141.837 94.6191C141.666 94.8486 141.461 95.0391 141.222 95.1904C140.982 95.3418 140.702 95.4175 140.379 95.4175C140.121 95.4175 139.894 95.3638 139.698 95.2563C139.503 95.1489 139.349 95.0073 139.237 94.8315C139.071 95.0024 138.878 95.1416 138.658 95.249C138.443 95.3613 138.192 95.4175 137.904 95.4175ZM138.131 94.4287C138.326 94.4287 138.495 94.3726 138.636 94.2603C138.783 94.1479 138.905 94.0088 139.002 93.8428V90.1367C138.758 90.1807 138.521 90.2637 138.292 90.3857C138.067 90.5029 137.867 90.6689 137.691 90.8838C137.521 91.0986 137.384 91.3721 137.281 91.7041C137.179 92.0312 137.127 92.4292 137.127 92.8979C137.127 93.1714 137.154 93.4058 137.208 93.6011C137.267 93.7915 137.34 93.9478 137.428 94.0698C137.521 94.1919 137.628 94.2822 137.75 94.3408C137.872 94.3994 137.999 94.4287 138.131 94.4287ZM144.583 88.7598C144.769 88.7598 144.964 88.728 145.169 88.6646C145.375 88.5962 145.577 88.5059 145.777 88.3936C145.982 88.2764 146.175 88.1396 146.356 87.9834C146.542 87.8223 146.703 87.6489 146.839 87.4634C146.981 87.2729 147.093 87.0752 147.176 86.8701C147.259 86.6602 147.301 86.4502 147.301 86.2402C147.301 86.1523 147.284 86.0596 147.25 85.9619C147.22 85.8643 147.169 85.7739 147.096 85.6909C147.027 85.6079 146.935 85.5396 146.817 85.4858C146.7 85.4272 146.556 85.3979 146.385 85.3979C146.053 85.3979 145.736 85.4761 145.433 85.6323C145.135 85.7886 144.857 86.001 144.598 86.2695C144.339 86.5381 144.103 86.853 143.888 87.2144C143.678 87.5708 143.497 87.9517 143.346 88.3569C143.199 88.7622 143.084 89.1797 143.001 89.6094C142.923 90.0391 142.884 90.4565 142.884 90.8618C142.884 91.3257 142.926 91.7773 143.009 92.2168C143.092 92.6514 143.224 93.0371 143.404 93.374C143.59 93.7109 143.832 93.9819 144.129 94.187C144.427 94.3872 144.793 94.4873 145.228 94.4873C145.545 94.4873 145.831 94.4409 146.085 94.3481C146.339 94.2554 146.556 94.1553 146.737 94.0479C146.917 93.9355 147.057 93.833 147.154 93.7402C147.252 93.6426 147.306 93.5913 147.315 93.5864C147.379 93.479 147.45 93.4155 147.528 93.396C147.611 93.3765 147.689 93.3862 147.762 93.4253C147.84 93.4644 147.911 93.5254 147.975 93.6084C148.038 93.6865 148.087 93.772 148.121 93.8647C148.16 93.9575 148.177 94.0503 148.172 94.1431C148.167 94.2358 148.136 94.3115 148.077 94.3701C148.067 94.3799 148.031 94.4165 147.967 94.48C147.904 94.5435 147.813 94.6216 147.696 94.7144C147.579 94.8071 147.435 94.9048 147.264 95.0073C147.093 95.1147 146.9 95.2124 146.686 95.3003C146.471 95.3931 146.231 95.4688 145.968 95.5273C145.709 95.5859 145.428 95.6152 145.125 95.6152C144.588 95.6152 144.107 95.5029 143.683 95.2783C143.258 95.0537 142.896 94.7363 142.599 94.3262C142.306 93.9111 142.081 93.4106 141.925 92.8247C141.769 92.2388 141.69 91.5845 141.69 90.8618C141.69 90.3735 141.742 89.873 141.844 89.3604C141.947 88.8477 142.096 88.3496 142.291 87.8662C142.491 87.3779 142.733 86.9189 143.016 86.4893C143.299 86.0547 143.622 85.6763 143.983 85.354C144.344 85.0317 144.742 84.7778 145.177 84.5923C145.611 84.4019 146.078 84.3066 146.576 84.3066C146.844 84.3066 147.096 84.3481 147.33 84.4312C147.564 84.5142 147.765 84.6387 147.931 84.8047C148.102 84.9707 148.236 85.1782 148.333 85.4272C148.431 85.6714 148.48 85.957 148.48 86.2842C148.48 86.5918 148.419 86.8921 148.297 87.1851C148.18 87.478 148.021 87.7563 147.821 88.02C147.621 88.2788 147.386 88.5181 147.118 88.7378C146.854 88.9575 146.573 89.1479 146.275 89.3091C145.982 89.4653 145.685 89.5874 145.382 89.6753C145.079 89.7632 144.789 89.8071 144.51 89.8071C144.325 89.8071 144.166 89.751 144.034 89.6387C143.907 89.5215 143.844 89.3384 143.844 89.0894C143.844 89.0356 143.846 88.9819 143.851 88.9282C143.861 88.8696 143.873 88.8184 143.888 88.7744C143.902 88.7256 143.919 88.6865 143.939 88.6572C143.963 88.6279 143.988 88.6133 144.012 88.6133C144.037 88.6133 144.059 88.6206 144.078 88.6353C144.103 88.6499 144.132 88.667 144.166 88.6865C144.205 88.7061 144.256 88.7231 144.32 88.7378C144.383 88.7524 144.471 88.7598 144.583 88.7598ZM153.167 95.4175C152.997 95.4175 152.84 95.3906 152.699 95.3369C152.562 95.2832 152.44 95.2075 152.333 95.1099C152.23 95.0171 152.145 94.9072 152.076 94.7803C152.008 94.6484 151.961 94.5068 151.937 94.3555C151.756 94.6729 151.544 94.9316 151.3 95.1318C151.056 95.332 150.768 95.4321 150.436 95.4321C150.187 95.4321 149.962 95.3809 149.762 95.2783C149.566 95.1758 149.4 95.0317 149.264 94.8462C149.127 94.6558 149.022 94.4287 148.949 94.165C148.88 93.8965 148.846 93.5986 148.846 93.2715C148.846 92.876 148.873 92.478 148.927 92.0776C148.985 91.6772 149.049 91.3159 149.117 90.9937C149.195 90.6177 149.286 90.2539 149.388 89.9023C149.413 89.8389 149.43 89.7754 149.439 89.7119C149.454 89.6436 149.483 89.5825 149.527 89.5288C149.571 89.4751 149.64 89.4312 149.732 89.397C149.83 89.3628 149.979 89.3457 150.179 89.3457C150.365 89.3457 150.484 89.3799 150.538 89.4482C150.592 89.5117 150.611 89.5874 150.597 89.6753C150.587 89.7632 150.558 89.8535 150.509 89.9463C150.465 90.0391 150.436 90.1147 150.421 90.1733C150.353 90.4517 150.292 90.7056 150.238 90.9351C150.184 91.1646 150.138 91.3965 150.099 91.6309C150.064 91.8604 150.038 92.1021 150.018 92.356C149.999 92.605 149.989 92.8857 149.989 93.1982C149.989 93.6084 150.047 93.9185 150.165 94.1284C150.287 94.3384 150.458 94.4434 150.677 94.4434C150.829 94.4434 150.968 94.3872 151.095 94.2749C151.227 94.1626 151.344 94.0137 151.446 93.8281C151.554 93.6377 151.646 93.4229 151.725 93.1836C151.803 92.9395 151.864 92.6855 151.908 92.4219V90.0049C151.908 89.8975 151.898 89.812 151.878 89.7485C151.864 89.6851 151.847 89.6362 151.827 89.6021C151.812 89.563 151.795 89.5337 151.776 89.5142C151.761 89.4897 151.754 89.4629 151.754 89.4336C151.754 89.4092 151.769 89.3872 151.798 89.3677C151.827 89.3481 151.866 89.3311 151.915 89.3164C151.964 89.3018 152.015 89.292 152.069 89.2871C152.127 89.2773 152.184 89.2725 152.237 89.2725C152.486 89.2725 152.682 89.3384 152.823 89.4702C152.97 89.5972 153.043 89.751 153.043 89.9316V93.7402C153.043 93.7744 153.045 93.8306 153.05 93.9087C153.055 93.9819 153.07 94.0576 153.094 94.1357C153.119 94.2139 153.158 94.2822 153.211 94.3408C153.265 94.3994 153.341 94.4287 153.438 94.4287C153.59 94.4287 153.719 94.375 153.827 94.2676C153.939 94.1602 154.034 94.0259 154.112 93.8647C154.195 93.7036 154.261 93.5303 154.31 93.3447C154.364 93.1543 154.408 92.9761 154.442 92.8101C154.471 92.6538 154.52 92.5415 154.588 92.4731C154.657 92.3999 154.728 92.3633 154.801 92.3633C154.859 92.3633 154.92 92.3828 154.984 92.4219C155.047 92.4561 155.104 92.5024 155.152 92.561C155.206 92.6196 155.248 92.6855 155.277 92.7588C155.311 92.832 155.328 92.9053 155.328 92.9785C155.328 92.9883 155.328 93.0005 155.328 93.0151C155.328 93.0298 155.323 93.0518 155.313 93.0811C155.245 93.3301 155.155 93.5913 155.042 93.8647C154.935 94.1382 154.796 94.3896 154.625 94.6191C154.454 94.8486 154.249 95.0391 154.01 95.1904C153.771 95.3418 153.49 95.4175 153.167 95.4175ZM155.299 87.7856C155.177 87.7856 155.06 87.7612 154.947 87.7124C154.84 87.6636 154.745 87.5977 154.662 87.5146C154.583 87.4316 154.52 87.3364 154.471 87.229C154.422 87.1167 154.398 86.9971 154.398 86.8701C154.398 86.7383 154.422 86.6162 154.471 86.5039C154.52 86.3916 154.583 86.2964 154.662 86.2183C154.745 86.1353 154.84 86.0718 154.947 86.0278C155.06 85.979 155.177 85.9546 155.299 85.9546C155.431 85.9546 155.553 85.979 155.665 86.0278C155.777 86.0718 155.873 86.1353 155.951 86.2183C156.034 86.2964 156.097 86.3916 156.141 86.5039C156.19 86.6162 156.214 86.7383 156.214 86.8701C156.214 86.9971 156.19 87.1167 156.141 87.229C156.097 87.3364 156.034 87.4316 155.951 87.5146C155.873 87.5977 155.777 87.6636 155.665 87.7124C155.553 87.7612 155.431 87.7856 155.299 87.7856ZM155.643 93.7402C155.643 93.7744 155.646 93.8306 155.65 93.9087C155.655 93.9819 155.67 94.0576 155.694 94.1357C155.719 94.2139 155.758 94.2822 155.812 94.3408C155.865 94.3994 155.941 94.4287 156.039 94.4287C156.185 94.4287 156.312 94.375 156.419 94.2676C156.532 94.1602 156.627 94.0259 156.705 93.8647C156.788 93.7036 156.856 93.5303 156.91 93.3447C156.964 93.1543 157.008 92.9761 157.042 92.8101C157.071 92.6587 157.115 92.5488 157.174 92.4805C157.237 92.4121 157.303 92.3755 157.372 92.3706C157.445 92.3608 157.516 92.3779 157.584 92.4219C157.657 92.4658 157.721 92.5244 157.774 92.5977C157.833 92.666 157.875 92.7441 157.899 92.832C157.928 92.9199 157.933 93.0029 157.914 93.0811C157.845 93.3301 157.755 93.5913 157.643 93.8647C157.535 94.1382 157.396 94.3896 157.225 94.6191C157.054 94.8486 156.849 95.0391 156.61 95.1904C156.371 95.3418 156.09 95.4175 155.768 95.4175C155.567 95.4175 155.389 95.3784 155.233 95.3003C155.077 95.2271 154.945 95.127 154.837 95C154.73 94.873 154.647 94.7241 154.588 94.5532C154.535 94.3823 154.508 94.2017 154.508 94.0112V90.0049C154.508 89.8633 154.496 89.7607 154.471 89.6973C154.452 89.6338 154.442 89.5752 154.442 89.5215C154.442 89.4482 154.481 89.3896 154.559 89.3457C154.637 89.2969 154.73 89.2725 154.837 89.2725C155.086 89.2725 155.282 89.3384 155.423 89.4702C155.57 89.5972 155.643 89.751 155.643 89.9316V93.7402ZM157.95 92.9419C157.911 93.0981 157.838 93.1958 157.73 93.2349C157.623 93.269 157.516 93.2642 157.408 93.2202C157.306 93.1763 157.218 93.1006 157.145 92.9932C157.076 92.8857 157.057 92.7686 157.086 92.6416C157.159 92.3096 157.264 91.9434 157.401 91.543C157.542 91.1377 157.682 90.7349 157.818 90.3345C157.745 90.2222 157.687 90.1099 157.643 89.9976C157.599 89.8804 157.577 89.7583 157.577 89.6313C157.577 89.5044 157.623 89.3726 157.716 89.2358C157.813 89.0942 157.928 88.9648 158.06 88.8477C158.197 88.7305 158.336 88.6353 158.478 88.562C158.624 88.4839 158.749 88.4448 158.851 88.4448C159.032 88.4448 159.166 88.5059 159.254 88.6279C159.347 88.75 159.393 88.9136 159.393 89.1187C159.393 89.231 159.374 89.3433 159.334 89.4556C159.3 89.563 159.261 89.6655 159.217 89.7632C159.173 89.856 159.132 89.9365 159.093 90.0049C159.059 90.0732 159.039 90.1172 159.034 90.1367C159.21 90.4492 159.393 90.7251 159.583 90.9644C159.774 91.2036 159.947 91.4404 160.104 91.6748C160.265 91.9092 160.396 92.1582 160.499 92.4219C160.602 92.6855 160.653 92.9956 160.653 93.3521C160.653 93.4399 160.646 93.5303 160.631 93.623C160.621 93.7158 160.604 93.8037 160.58 93.8867C160.755 93.8525 160.909 93.7988 161.041 93.7256C161.178 93.6523 161.295 93.5693 161.393 93.4766C161.495 93.3789 161.578 93.2739 161.642 93.1616C161.71 93.0493 161.766 92.9321 161.81 92.8101C161.864 92.6685 161.917 92.5659 161.971 92.5024C162.025 92.439 162.086 92.4072 162.154 92.4072C162.218 92.4072 162.281 92.4292 162.345 92.4731C162.413 92.5122 162.472 92.5635 162.521 92.627C162.574 92.6904 162.616 92.7563 162.645 92.8247C162.679 92.8931 162.696 92.9541 162.696 93.0078C162.696 93.0811 162.677 93.1689 162.638 93.2715C162.599 93.374 162.545 93.479 162.477 93.5864C162.413 93.6938 162.34 93.7988 162.257 93.9014C162.174 93.999 162.088 94.0845 162 94.1577C161.766 94.3481 161.49 94.5093 161.173 94.6411C160.855 94.7681 160.462 94.8486 159.994 94.8828C159.813 95.0391 159.598 95.166 159.349 95.2637C159.105 95.3662 158.829 95.4175 158.521 95.4175C158.365 95.4175 158.204 95.3979 158.038 95.3589C157.877 95.3198 157.721 95.2686 157.569 95.2051C157.423 95.1465 157.289 95.0806 157.167 95.0073C157.044 94.9341 156.947 94.8608 156.874 94.7876C156.688 94.6118 156.568 94.436 156.515 94.2603C156.461 94.0796 156.449 93.9185 156.478 93.7769C156.502 93.6353 156.554 93.5205 156.632 93.4326C156.71 93.3398 156.791 93.2935 156.874 93.2935C156.922 93.2935 156.998 93.3154 157.101 93.3594C157.208 93.3984 157.33 93.4521 157.467 93.5205C157.604 93.584 157.752 93.6523 157.914 93.7256C158.075 93.7988 158.236 93.8696 158.397 93.938C158.558 94.0015 158.714 94.0552 158.866 94.0991C159.022 94.1382 159.164 94.1577 159.291 94.1577C159.374 94.0601 159.449 93.9307 159.518 93.7695C159.586 93.6084 159.62 93.4326 159.62 93.2422C159.62 93.0078 159.588 92.7905 159.525 92.5903C159.461 92.3901 159.378 92.2046 159.276 92.0337C159.173 91.8628 159.056 91.7041 158.924 91.5576C158.797 91.4062 158.668 91.2646 158.536 91.1328C158.419 91.4209 158.316 91.7065 158.229 91.9897C158.141 92.2681 158.048 92.5854 157.95 92.9419ZM162.682 87.7856C162.56 87.7856 162.442 87.7612 162.33 87.7124C162.223 87.6636 162.127 87.5977 162.044 87.5146C161.966 87.4316 161.903 87.3364 161.854 87.229C161.805 87.1167 161.781 86.9971 161.781 86.8701C161.781 86.7383 161.805 86.6162 161.854 86.5039C161.903 86.3916 161.966 86.2964 162.044 86.2183C162.127 86.1353 162.223 86.0718 162.33 86.0278C162.442 85.979 162.56 85.9546 162.682 85.9546C162.813 85.9546 162.936 85.979 163.048 86.0278C163.16 86.0718 163.255 86.1353 163.333 86.2183C163.417 86.2964 163.48 86.3916 163.524 86.5039C163.573 86.6162 163.597 86.7383 163.597 86.8701C163.597 86.9971 163.573 87.1167 163.524 87.229C163.48 87.3364 163.417 87.4316 163.333 87.5146C163.255 87.5977 163.16 87.6636 163.048 87.7124C162.936 87.7612 162.813 87.7856 162.682 87.7856ZM163.026 93.7402C163.026 93.7744 163.028 93.8306 163.033 93.9087C163.038 93.9819 163.053 94.0576 163.077 94.1357C163.102 94.2139 163.141 94.2822 163.194 94.3408C163.248 94.3994 163.324 94.4287 163.421 94.4287C163.568 94.4287 163.695 94.375 163.802 94.2676C163.915 94.1602 164.01 94.0259 164.088 93.8647C164.171 93.7036 164.239 93.5303 164.293 93.3447C164.347 93.1543 164.391 92.9761 164.425 92.8101C164.454 92.6587 164.498 92.5488 164.557 92.4805C164.62 92.4121 164.686 92.3755 164.754 92.3706C164.828 92.3608 164.898 92.3779 164.967 92.4219C165.04 92.4658 165.104 92.5244 165.157 92.5977C165.216 92.666 165.257 92.7441 165.282 92.832C165.311 92.9199 165.316 93.0029 165.296 93.0811C165.228 93.3301 165.138 93.5913 165.025 93.8647C164.918 94.1382 164.779 94.3896 164.608 94.6191C164.437 94.8486 164.232 95.0391 163.993 95.1904C163.753 95.3418 163.473 95.4175 163.15 95.4175C162.95 95.4175 162.772 95.3784 162.616 95.3003C162.459 95.2271 162.328 95.127 162.22 95C162.113 94.873 162.03 94.7241 161.971 94.5532C161.917 94.3823 161.891 94.2017 161.891 94.0112V90.0049C161.891 89.8633 161.878 89.7607 161.854 89.6973C161.834 89.6338 161.825 89.5752 161.825 89.5215C161.825 89.4482 161.864 89.3896 161.942 89.3457C162.02 89.2969 162.113 89.2725 162.22 89.2725C162.469 89.2725 162.665 89.3384 162.806 89.4702C162.953 89.5972 163.026 89.751 163.026 89.9316V93.7402ZM164.483 90.0049C164.483 89.8633 164.471 89.7607 164.447 89.6973C164.427 89.6338 164.417 89.5752 164.417 89.5215C164.417 89.4482 164.457 89.3896 164.535 89.3457C164.613 89.2969 164.706 89.2725 164.813 89.2725C165.062 89.2725 165.257 89.3384 165.399 89.4702C165.545 89.5972 165.619 89.751 165.619 89.9316V90.6055C165.721 90.3955 165.831 90.2002 165.948 90.0195C166.07 89.8389 166.2 89.6826 166.336 89.5508C166.478 89.4141 166.627 89.3091 166.783 89.2358C166.944 89.1577 167.118 89.1187 167.303 89.1187C167.552 89.1187 167.757 89.165 167.918 89.2578C168.08 89.3506 168.207 89.4702 168.299 89.6167C168.392 89.7632 168.456 89.9268 168.49 90.1074C168.529 90.2881 168.548 90.4639 168.548 90.6348V93.7402C168.548 93.7744 168.551 93.8306 168.556 93.9087C168.561 93.9819 168.575 94.0576 168.6 94.1357C168.624 94.2139 168.661 94.2822 168.709 94.3408C168.763 94.3994 168.839 94.4287 168.937 94.4287C169.088 94.4287 169.217 94.375 169.325 94.2676C169.437 94.1602 169.532 94.0259 169.61 93.8647C169.693 93.7036 169.759 93.5303 169.808 93.3447C169.862 93.1543 169.906 92.9761 169.94 92.8101C169.969 92.6538 170.018 92.5415 170.086 92.4731C170.155 92.3999 170.226 92.3633 170.299 92.3633C170.357 92.3633 170.418 92.3828 170.482 92.4219C170.545 92.4561 170.602 92.5024 170.65 92.561C170.704 92.6196 170.746 92.6855 170.775 92.7588C170.809 92.832 170.826 92.9053 170.826 92.9785C170.826 92.9883 170.826 93.0005 170.826 93.0151C170.826 93.0298 170.821 93.0518 170.812 93.0811C170.748 93.3301 170.66 93.5913 170.548 93.8647C170.44 94.1382 170.299 94.3896 170.123 94.6191C169.952 94.8486 169.747 95.0391 169.508 95.1904C169.269 95.3418 168.988 95.4175 168.666 95.4175C168.465 95.4175 168.287 95.3784 168.131 95.3003C167.979 95.2271 167.848 95.127 167.735 95C167.628 94.873 167.545 94.7241 167.486 94.5532C167.433 94.3823 167.406 94.2017 167.406 94.0112V90.9644C167.406 90.8472 167.403 90.7373 167.398 90.6348C167.394 90.5322 167.379 90.4419 167.354 90.3638C167.335 90.2856 167.303 90.2246 167.259 90.1807C167.22 90.1318 167.164 90.1074 167.091 90.1074C166.983 90.1074 166.852 90.1807 166.695 90.3271C166.539 90.4736 166.385 90.6641 166.234 90.8984C166.083 91.1328 165.948 91.3989 165.831 91.6968C165.719 91.9897 165.648 92.2852 165.619 92.583V94.7729C165.619 94.8462 165.616 94.9219 165.611 95C165.611 95.0732 165.597 95.1392 165.567 95.1978C165.543 95.2612 165.501 95.3125 165.443 95.3516C165.389 95.3955 165.309 95.4175 165.201 95.4175C165.128 95.4175 165.047 95.4077 164.959 95.3882C164.876 95.3735 164.798 95.3418 164.725 95.293C164.657 95.249 164.598 95.1831 164.549 95.0952C164.505 95.0122 164.483 94.8999 164.483 94.7583V90.0049ZM173.353 90.6348C173.353 90.9131 173.304 91.1987 173.207 91.4917C173.114 91.7847 172.972 92.063 172.782 92.3267C172.596 92.5854 172.364 92.8198 172.086 93.0298C171.812 93.2349 171.495 93.3911 171.134 93.4985C171.183 93.6255 171.246 93.7476 171.324 93.8647C171.407 93.9771 171.505 94.0747 171.617 94.1577C171.729 94.2407 171.859 94.3066 172.005 94.3555C172.157 94.4043 172.33 94.4287 172.525 94.4287C172.818 94.4287 173.07 94.375 173.28 94.2676C173.49 94.1553 173.666 94.0088 173.807 93.8281C173.954 93.6475 174.071 93.4448 174.159 93.2202C174.247 92.9956 174.312 92.7686 174.356 92.5391C174.391 92.373 174.459 92.2632 174.562 92.2095C174.669 92.1509 174.776 92.1362 174.884 92.1655C174.996 92.1948 175.091 92.2583 175.169 92.356C175.252 92.4487 175.287 92.561 175.272 92.6929C175.252 92.8442 175.218 93.0176 175.169 93.2129C175.125 93.4082 175.057 93.606 174.964 93.8062C174.872 94.0063 174.752 94.2041 174.605 94.3994C174.464 94.5898 174.288 94.7607 174.078 94.9121C173.868 95.0635 173.622 95.1855 173.338 95.2783C173.055 95.3711 172.73 95.4175 172.364 95.4175C172.022 95.4175 171.69 95.3491 171.368 95.2124C171.051 95.0806 170.768 94.8901 170.519 94.6411C170.274 94.3872 170.077 94.0771 169.925 93.7109C169.779 93.3398 169.706 92.9199 169.706 92.4512C169.706 91.9775 169.771 91.5381 169.903 91.1328C170.035 90.7227 170.208 90.3687 170.423 90.0708C170.638 89.7729 170.882 89.541 171.156 89.375C171.429 89.2041 171.71 89.1187 171.998 89.1187C172.208 89.1187 172.396 89.1553 172.562 89.2285C172.733 89.3018 172.877 89.4067 172.994 89.5435C173.111 89.6753 173.199 89.834 173.258 90.0195C173.321 90.2051 173.353 90.4102 173.353 90.6348ZM170.936 92.4072C170.936 92.4512 170.938 92.4951 170.943 92.5391C170.948 92.583 170.951 92.6294 170.951 92.6782C171.136 92.5903 171.305 92.478 171.456 92.3413C171.607 92.2046 171.737 92.0483 171.844 91.8726C171.952 91.6968 172.035 91.5063 172.093 91.3013C172.152 91.0913 172.181 90.874 172.181 90.6494C172.181 90.4834 172.152 90.354 172.093 90.2612C172.04 90.1685 171.964 90.1221 171.866 90.1221C171.744 90.1221 171.634 90.1636 171.537 90.2466C171.444 90.3296 171.361 90.4395 171.288 90.5762C171.219 90.708 171.161 90.8594 171.112 91.0303C171.068 91.1963 171.031 91.3647 171.002 91.5356C170.973 91.7065 170.953 91.8701 170.943 92.0264C170.934 92.1777 170.931 92.3047 170.936 92.4072Z" fill="black"/>
    <path d="M109.878 120.53H106.758C106.638 120.53 106.578 120.475 106.578 120.365V120.035C106.578 119.925 106.638 119.87 106.758 119.87H109.878C109.998 119.87 110.058 119.925 110.058 120.035V120.365C110.058 120.475 109.998 120.53 109.878 120.53ZM111.865 122.87V122.33C111.865 122.22 111.92 122.165 112.03 122.165H112.465C112.575 122.165 112.63 122.22 112.63 122.33V122.825C112.63 123.825 113.115 124.325 114.085 124.325H115.645C116.615 124.325 117.1 123.82 117.1 122.81V122.18C117.1 121.74 116.92 121.395 116.56 121.145C116.2 120.895 115.765 120.715 115.255 120.605C114.745 120.495 114.23 120.38 113.71 120.26C113.2 120.14 112.765 119.92 112.405 119.6C112.045 119.28 111.865 118.85 111.865 118.31V117.485C111.865 116.825 112.055 116.305 112.435 115.925C112.815 115.545 113.33 115.355 113.98 115.355H115.72C116.37 115.355 116.885 115.545 117.265 115.925C117.645 116.305 117.835 116.825 117.835 117.485V117.905C117.835 118.015 117.78 118.07 117.67 118.07H117.235C117.125 118.07 117.07 118.015 117.07 117.905V117.53C117.07 116.53 116.585 116.03 115.615 116.03H114.07C113.11 116.03 112.63 116.54 112.63 117.56V118.31C112.63 119 113.245 119.465 114.475 119.705C114.985 119.805 115.495 119.92 116.005 120.05C116.525 120.18 116.965 120.415 117.325 120.755C117.685 121.095 117.865 121.555 117.865 122.135V122.87C117.865 123.53 117.675 124.05 117.295 124.43C116.915 124.81 116.4 125 115.75 125H113.98C113.33 125 112.815 124.81 112.435 124.43C112.055 124.05 111.865 123.53 111.865 122.87ZM125.568 115.355H125.988C126.098 115.355 126.153 115.41 126.153 115.52V122.87C126.153 123.53 125.963 124.05 125.583 124.43C125.213 124.81 124.703 125 124.053 125H122.373C121.723 125 121.208 124.81 120.828 124.43C120.458 124.05 120.273 123.53 120.273 122.87V115.535C120.273 115.415 120.323 115.355 120.423 115.355H120.858C120.968 115.355 121.023 115.415 121.023 115.535V122.84C121.023 123.31 121.143 123.675 121.383 123.935C121.623 124.195 121.973 124.325 122.433 124.325H123.978C124.438 124.325 124.788 124.2 125.028 123.95C125.278 123.69 125.403 123.32 125.403 122.84V115.535C125.403 115.415 125.458 115.355 125.568 115.355ZM129.525 124.325H132.405C132.865 124.325 133.215 124.2 133.455 123.95C133.705 123.69 133.83 123.32 133.83 122.84V117.515C133.83 117.035 133.705 116.67 133.455 116.42C133.215 116.16 132.865 116.03 132.405 116.03H129.525C129.425 116.03 129.375 116.075 129.375 116.165V124.19C129.375 124.28 129.425 124.325 129.525 124.325ZM128.625 124.82V115.535C128.625 115.415 128.675 115.355 128.775 115.355H132.48C133.13 115.355 133.64 115.545 134.01 115.925C134.39 116.305 134.58 116.825 134.58 117.485V122.87C134.58 123.53 134.39 124.05 134.01 124.43C133.64 124.81 133.13 125 132.48 125H128.775C128.675 125 128.625 124.94 128.625 124.82ZM144.813 125H142.923C142.273 125 141.758 124.81 141.378 124.43C141.008 124.05 140.823 123.53 140.823 122.87V117.485C140.823 116.825 141.008 116.305 141.378 115.925C141.758 115.545 142.273 115.355 142.923 115.355H144.813C145.463 115.355 145.973 115.545 146.343 115.925C146.723 116.305 146.913 116.825 146.913 117.485V118.22C146.913 118.34 146.858 118.4 146.748 118.4H146.328C146.218 118.4 146.163 118.34 146.163 118.22V117.515C146.163 117.035 146.038 116.67 145.788 116.42C145.548 116.16 145.198 116.03 144.738 116.03H142.983C142.523 116.03 142.173 116.16 141.933 116.42C141.693 116.68 141.573 117.045 141.573 117.515V122.84C141.573 123.31 141.693 123.675 141.933 123.935C142.173 124.195 142.523 124.325 142.983 124.325H144.738C145.198 124.325 145.548 124.2 145.788 123.95C146.038 123.69 146.163 123.32 146.163 122.84V122.135C146.163 122.015 146.218 121.955 146.328 121.955H146.748C146.858 121.955 146.913 122.015 146.913 122.135V122.87C146.913 123.53 146.723 124.05 146.343 124.43C145.973 124.81 145.463 125 144.813 125ZM154.323 115.355H154.743C154.853 115.355 154.908 115.41 154.908 115.52V122.87C154.908 123.53 154.718 124.05 154.338 124.43C153.968 124.81 153.458 125 152.808 125H151.128C150.478 125 149.963 124.81 149.583 124.43C149.213 124.05 149.028 123.53 149.028 122.87V115.535C149.028 115.415 149.078 115.355 149.178 115.355H149.613C149.723 115.355 149.778 115.415 149.778 115.535V122.84C149.778 123.31 149.898 123.675 150.138 123.935C150.378 124.195 150.728 124.325 151.188 124.325H152.733C153.193 124.325 153.543 124.2 153.783 123.95C154.033 123.69 154.158 123.32 154.158 122.84V115.535C154.158 115.415 154.213 115.355 154.323 115.355ZM158.204 115.535V124.82C158.204 124.94 158.149 125 158.039 125H157.604C157.504 125 157.454 124.94 157.454 124.82V115.535C157.454 115.415 157.504 115.355 157.604 115.355H158.039C158.149 115.355 158.204 115.415 158.204 115.535ZM160.777 122.87V122.33C160.777 122.22 160.832 122.165 160.942 122.165H161.377C161.487 122.165 161.542 122.22 161.542 122.33V122.825C161.542 123.825 162.027 124.325 162.997 124.325H164.557C165.527 124.325 166.012 123.82 166.012 122.81V122.18C166.012 121.74 165.832 121.395 165.472 121.145C165.112 120.895 164.677 120.715 164.167 120.605C163.657 120.495 163.142 120.38 162.622 120.26C162.112 120.14 161.677 119.92 161.317 119.6C160.957 119.28 160.777 118.85 160.777 118.31V117.485C160.777 116.825 160.967 116.305 161.347 115.925C161.727 115.545 162.242 115.355 162.892 115.355H164.632C165.282 115.355 165.797 115.545 166.177 115.925C166.557 116.305 166.747 116.825 166.747 117.485V117.905C166.747 118.015 166.692 118.07 166.582 118.07H166.147C166.037 118.07 165.982 118.015 165.982 117.905V117.53C165.982 116.53 165.497 116.03 164.527 116.03H162.982C162.022 116.03 161.542 116.54 161.542 117.56V118.31C161.542 119 162.157 119.465 163.387 119.705C163.897 119.805 164.407 119.92 164.917 120.05C165.437 120.18 165.877 120.415 166.237 120.755C166.597 121.095 166.777 121.555 166.777 122.135V122.87C166.777 123.53 166.587 124.05 166.207 124.43C165.827 124.81 165.312 125 164.662 125H162.892C162.242 125 161.727 124.81 161.347 124.43C160.967 124.05 160.777 123.53 160.777 122.87ZM170.084 115.535V124.82C170.084 124.94 170.029 125 169.919 125H169.484C169.384 125 169.334 124.94 169.334 124.82V115.535C169.334 115.415 169.384 115.355 169.484 115.355H169.919C170.029 115.355 170.084 115.415 170.084 115.535ZM173.301 125H172.866C172.766 125 172.716 124.94 172.716 124.82V115.535C172.716 115.415 172.766 115.355 172.866 115.355H173.271C173.361 115.355 173.421 115.385 173.451 115.445L178.056 123.365H178.116V115.535C178.116 115.415 178.171 115.355 178.281 115.355H178.701C178.811 115.355 178.866 115.415 178.866 115.535V124.82C178.866 124.94 178.811 125 178.701 125H178.356C178.266 125 178.186 124.945 178.116 124.835L173.526 116.975H173.466V124.82C173.466 124.94 173.411 125 173.301 125ZM186.188 125H181.553C181.453 125 181.403 124.94 181.403 124.82V115.535C181.403 115.415 181.453 115.355 181.553 115.355H186.188C186.308 115.355 186.368 115.41 186.368 115.52V115.865C186.368 115.975 186.308 116.03 186.188 116.03H182.303C182.203 116.03 182.153 116.075 182.153 116.165V119.615C182.153 119.705 182.203 119.75 182.303 119.75H185.768C185.878 119.75 185.933 119.805 185.933 119.915V120.26C185.933 120.37 185.878 120.425 185.768 120.425H182.303C182.203 120.425 182.153 120.47 182.153 120.56V124.19C182.153 124.28 182.203 124.325 182.303 124.325H186.188C186.308 124.325 186.368 124.38 186.368 124.49V124.835C186.368 124.945 186.308 125 186.188 125ZM191.25 120.53H188.13C188.01 120.53 187.95 120.475 187.95 120.365V120.035C187.95 119.925 188.01 119.87 188.13 119.87H191.25C191.37 119.87 191.43 119.925 191.43 120.035V120.365C191.43 120.475 191.37 120.53 191.25 120.53Z" fill="#4E4444"/>
</svg>