<svg width="300" height="131" viewBox="0 0 300 131" fill="none" xmlns="http://www.w3.org/2000/svg">
    <path d="M12.3376 13.73V12.875C12.3376 12.615 12.4126 12.285 12.5626 11.885L13.0576 10.475C13.0876 10.395 13.1426 10.355 13.2226 10.355C13.3326 10.355 13.3876 10.415 13.3876 10.535V13.73C13.3876 13.86 13.3226 13.925 13.1926 13.925H12.5326C12.4026 13.925 12.3376 13.86 12.3376 13.73ZM10.0276 13.73V12.875C10.0276 12.665 10.1026 12.335 10.2526 11.885L10.7476 10.475C10.7976 10.395 10.8576 10.355 10.9276 10.355C11.0276 10.355 11.0776 10.415 11.0776 10.535V13.73C11.0776 13.86 11.0126 13.925 10.8826 13.925H10.2376C10.0976 13.925 10.0276 13.86 10.0276 13.73ZM20.5274 10.355H21.2024C21.3424 10.355 21.4124 10.42 21.4124 10.55V17.78C21.4124 18.48 21.2174 19.025 20.8274 19.415C20.4374 19.805 19.8974 20 19.2074 20H17.5424C16.8524 20 16.3074 19.805 15.9074 19.415C15.5174 19.025 15.3224 18.48 15.3224 17.78V10.565C15.3224 10.425 15.3924 10.355 15.5324 10.355H16.2074C16.3474 10.355 16.4174 10.425 16.4174 10.565V17.735C16.4174 18.605 16.8324 19.04 17.6624 19.04H19.0724C19.9124 19.04 20.3324 18.605 20.3324 17.735V10.565C20.3324 10.425 20.3974 10.355 20.5274 10.355ZM24.5731 20H23.9131C23.7731 20 23.7031 19.93 23.7031 19.79V10.565C23.7031 10.425 23.7731 10.355 23.9131 10.355H24.5281C24.6481 10.355 24.7281 10.395 24.7681 10.475L28.9081 17.75H28.9681V10.565C28.9681 10.425 29.0381 10.355 29.1781 10.355H29.8381C29.9781 10.355 30.0481 10.425 30.0481 10.565V19.79C30.0481 19.93 29.9781 20 29.8381 20H29.2831C29.1731 20 29.0681 19.935 28.9681 19.805L24.8431 12.605H24.7831V19.79C24.7831 19.93 24.7131 20 24.5731 20ZM37.3389 20H32.6289C32.4889 20 32.4189 19.93 32.4189 19.79V10.565C32.4189 10.425 32.4889 10.355 32.6289 10.355H37.3389C37.4789 10.355 37.5489 10.425 37.5489 10.565V11.105C37.5489 11.245 37.4789 11.315 37.3389 11.315H33.6639C33.5639 11.315 33.5139 11.36 33.5139 11.45V14.48C33.5139 14.57 33.5639 14.615 33.6639 14.615H36.8739C37.0139 14.615 37.0839 14.685 37.0839 14.825V15.365C37.0839 15.505 37.0139 15.575 36.8739 15.575H33.6639C33.5639 15.575 33.5139 15.62 33.5139 15.71V18.905C33.5139 18.995 33.5639 19.04 33.6639 19.04H37.3389C37.4789 19.04 37.5489 19.11 37.5489 19.25V19.79C37.5489 19.93 37.4789 20 37.3389 20ZM46.5845 20H45.5195C45.3895 20 45.3045 19.93 45.2645 19.79L42.6095 10.58C42.5795 10.43 42.6445 10.355 42.8045 10.355H43.5395C43.6695 10.355 43.7495 10.425 43.7795 10.565L46.0145 18.77H46.0745L48.3095 10.565C48.3395 10.425 48.4195 10.355 48.5495 10.355H49.2995C49.4495 10.355 49.5095 10.43 49.4795 10.58L46.8245 19.79C46.7845 19.93 46.7045 20 46.5845 20ZM51.9074 20H51.2324C51.0924 20 51.0224 19.93 51.0224 19.79V10.565C51.0224 10.425 51.0924 10.355 51.2324 10.355H54.6824C55.3724 10.355 55.9174 10.555 56.3174 10.955C56.7174 11.345 56.9174 11.885 56.9174 12.575V13.94C56.9174 14.5 56.7824 14.965 56.5124 15.335C56.2424 15.695 55.8674 15.935 55.3874 16.055V16.115L57.1274 19.76C57.2174 19.92 57.1674 20 56.9774 20H56.3024C56.1324 20 56.0074 19.93 55.9274 19.79L54.2474 16.16H52.2674C52.1674 16.16 52.1174 16.205 52.1174 16.295V19.79C52.1174 19.93 52.0474 20 51.9074 20ZM52.2674 15.245H54.5324C55.3924 15.245 55.8224 14.815 55.8224 13.955V12.62C55.8224 11.75 55.3924 11.315 54.5324 11.315H52.2674C52.1674 11.315 52.1174 11.36 52.1174 11.45V15.11C52.1174 15.2 52.1674 15.245 52.2674 15.245ZM59.199 20H58.449C58.319 20 58.274 19.93 58.314 19.79L61.119 10.565C61.159 10.425 61.254 10.355 61.404 10.355H62.484C62.634 10.355 62.729 10.425 62.769 10.565L65.574 19.79C65.614 19.93 65.569 20 65.439 20H64.674C64.564 20 64.494 19.93 64.464 19.79L63.759 17.6H60.129L59.424 19.79C59.384 19.93 59.309 20 59.199 20ZM61.914 11.48L60.369 16.67H63.519L61.974 11.48H61.914ZM68.3496 10.565V19.79C68.3496 19.93 68.2796 20 68.1396 20H67.4646C67.3246 20 67.2546 19.93 67.2546 19.79V10.565C67.2546 10.425 67.3246 10.355 67.4646 10.355H68.1396C68.2796 10.355 68.3496 10.425 68.3496 10.565ZM75.8514 19.07H78.3114C79.1714 19.07 79.6014 18.645 79.6014 17.795V16.82C79.6014 15.97 79.1414 15.545 78.2214 15.545H75.8514C75.7514 15.545 75.7014 15.59 75.7014 15.68V18.92C75.7014 19.02 75.7514 19.07 75.8514 19.07ZM75.8514 14.63H78.1614C79.0414 14.63 79.4814 14.205 79.4814 13.355V12.56C79.4814 11.71 79.0564 11.285 78.2064 11.285H75.8514C75.7514 11.285 75.7014 11.335 75.7014 11.435V14.495C75.7014 14.585 75.7514 14.63 75.8514 14.63ZM74.6064 19.79V10.565C74.6064 10.425 74.6764 10.355 74.8164 10.355H78.3414C79.0314 10.355 79.5714 10.55 79.9614 10.94C80.3514 11.32 80.5464 11.855 80.5464 12.545V13.37C80.5464 14.26 80.1264 14.835 79.2864 15.095C79.6664 15.125 79.9914 15.295 80.2614 15.605C80.5314 15.905 80.6664 16.305 80.6664 16.805V17.81C80.6664 18.5 80.4664 19.04 80.0664 19.43C79.6764 19.81 79.1364 20 78.4464 20H74.8164C74.6764 20 74.6064 19.93 74.6064 19.79ZM87.7588 20H83.0488C82.9088 20 82.8388 19.93 82.8388 19.79V10.565C82.8388 10.425 82.9088 10.355 83.0488 10.355H87.7588C87.8988 10.355 87.9688 10.425 87.9688 10.565V11.105C87.9688 11.245 87.8988 11.315 87.7588 11.315H84.0838C83.9838 11.315 83.9338 11.36 83.9338 11.45V14.48C83.9338 14.57 83.9838 14.615 84.0838 14.615H87.2938C87.4338 14.615 87.5038 14.685 87.5038 14.825V15.365C87.5038 15.505 87.4338 15.575 87.2938 15.575H84.0838C83.9838 15.575 83.9338 15.62 83.9338 15.71V18.905C83.9338 18.995 83.9838 19.04 84.0838 19.04H87.7588C87.8988 19.04 87.9688 19.11 87.9688 19.25V19.79C87.9688 19.93 87.8988 20 87.7588 20ZM95.0708 20H90.2558C90.1158 20 90.0458 19.93 90.0458 19.79V10.565C90.0458 10.425 90.1158 10.355 90.2558 10.355H90.9308C91.0708 10.355 91.1408 10.425 91.1408 10.565V18.875C91.1408 18.965 91.1908 19.01 91.2908 19.01H95.0708C95.2108 19.01 95.2808 19.085 95.2808 19.235V19.79C95.2808 19.93 95.2108 20 95.0708 20ZM101.838 20H97.0234C96.8834 20 96.8134 19.93 96.8134 19.79V10.565C96.8134 10.425 96.8834 10.355 97.0234 10.355H97.6984C97.8384 10.355 97.9084 10.425 97.9084 10.565V18.875C97.9084 18.965 97.9584 19.01 98.0584 19.01H101.838C101.978 19.01 102.048 19.085 102.048 19.235V19.79C102.048 19.93 101.978 20 101.838 20ZM108.501 20H103.791C103.651 20 103.581 19.93 103.581 19.79V10.565C103.581 10.425 103.651 10.355 103.791 10.355H108.501C108.641 10.355 108.711 10.425 108.711 10.565V11.105C108.711 11.245 108.641 11.315 108.501 11.315H104.826C104.726 11.315 104.676 11.36 104.676 11.45V14.48C104.676 14.57 104.726 14.615 104.826 14.615H108.036C108.176 14.615 108.246 14.685 108.246 14.825V15.365C108.246 15.505 108.176 15.575 108.036 15.575H104.826C104.726 15.575 104.676 15.62 104.676 15.71V18.905C104.676 18.995 104.726 19.04 104.826 19.04H108.501C108.641 19.04 108.711 19.11 108.711 19.25V19.79C108.711 19.93 108.641 20 108.501 20ZM118.467 20H116.667C115.977 20 115.432 19.805 115.032 19.415C114.642 19.025 114.447 18.48 114.447 17.78V12.575C114.447 11.875 114.642 11.33 115.032 10.94C115.432 10.55 115.977 10.355 116.667 10.355H118.467C119.157 10.355 119.697 10.55 120.087 10.94C120.487 11.33 120.687 11.875 120.687 12.575V13.31C120.687 13.45 120.617 13.52 120.477 13.52H119.802C119.662 13.52 119.592 13.45 119.592 13.31V12.62C119.592 11.75 119.172 11.315 118.332 11.315H116.787C115.957 11.315 115.542 11.75 115.542 12.62V17.735C115.542 18.605 115.957 19.04 116.787 19.04H118.332C119.172 19.04 119.592 18.605 119.592 17.735V17.045C119.592 16.905 119.662 16.835 119.802 16.835H120.477C120.617 16.835 120.687 16.905 120.687 17.045V17.78C120.687 18.48 120.487 19.025 120.087 19.415C119.697 19.805 119.157 20 118.467 20ZM127.842 10.355H128.517C128.657 10.355 128.727 10.42 128.727 10.55V17.78C128.727 18.48 128.532 19.025 128.142 19.415C127.752 19.805 127.212 20 126.522 20H124.857C124.167 20 123.622 19.805 123.222 19.415C122.832 19.025 122.637 18.48 122.637 17.78V10.565C122.637 10.425 122.707 10.355 122.847 10.355H123.522C123.662 10.355 123.732 10.425 123.732 10.565V17.735C123.732 18.605 124.147 19.04 124.977 19.04H126.387C127.227 19.04 127.647 18.605 127.647 17.735V10.565C127.647 10.425 127.712 10.355 127.842 10.355ZM132.188 10.565V19.79C132.188 19.93 132.118 20 131.978 20H131.303C131.163 20 131.093 19.93 131.093 19.79V10.565C131.093 10.425 131.163 10.355 131.303 10.355H131.978C132.118 10.355 132.188 10.425 132.188 10.565ZM134.531 17.78V17.3C134.531 17.16 134.601 17.09 134.741 17.09H135.416C135.556 17.09 135.626 17.16 135.626 17.3V17.69C135.626 18.59 136.071 19.04 136.961 19.04H138.281C139.171 19.04 139.616 18.58 139.616 17.66V17.15C139.616 16.43 139.021 15.96 137.831 15.74C137.331 15.65 136.831 15.545 136.331 15.425C135.831 15.305 135.406 15.075 135.056 14.735C134.706 14.385 134.531 13.91 134.531 13.31V12.575C134.531 11.885 134.726 11.345 135.116 10.955C135.516 10.555 136.061 10.355 136.751 10.355H138.416C139.096 10.355 139.636 10.555 140.036 10.955C140.436 11.345 140.636 11.885 140.636 12.575V12.95C140.636 13.1 140.571 13.175 140.441 13.175H139.751C139.621 13.175 139.556 13.1 139.556 12.95V12.68C139.556 11.77 139.111 11.315 138.221 11.315H136.946C136.056 11.315 135.611 11.79 135.611 12.74V13.34C135.611 13.85 135.946 14.2 136.616 14.39C136.916 14.47 137.246 14.545 137.606 14.615C137.966 14.675 138.326 14.76 138.686 14.87C139.056 14.97 139.391 15.1 139.691 15.26C139.991 15.41 140.231 15.645 140.411 15.965C140.601 16.275 140.696 16.655 140.696 17.105V17.78C140.696 18.47 140.496 19.015 140.096 19.415C139.696 19.805 139.156 20 138.476 20H136.751C136.071 20 135.531 19.805 135.131 19.415C134.731 19.015 134.531 18.47 134.531 17.78ZM144.126 10.565V19.79C144.126 19.93 144.056 20 143.916 20H143.241C143.101 20 143.031 19.93 143.031 19.79V10.565C143.031 10.425 143.101 10.355 143.241 10.355H143.916C144.056 10.355 144.126 10.425 144.126 10.565ZM147.444 20H146.784C146.644 20 146.574 19.93 146.574 19.79V10.565C146.574 10.425 146.644 10.355 146.784 10.355H147.399C147.519 10.355 147.599 10.395 147.639 10.475L151.779 17.75H151.839V10.565C151.839 10.425 151.909 10.355 152.049 10.355H152.709C152.849 10.355 152.919 10.425 152.919 10.565V19.79C152.919 19.93 152.849 20 152.709 20H152.154C152.044 20 151.939 19.935 151.839 19.805L147.714 12.605H147.654V19.79C147.654 19.93 147.584 20 147.444 20ZM160.21 20H155.5C155.36 20 155.29 19.93 155.29 19.79V10.565C155.29 10.425 155.36 10.355 155.5 10.355H160.21C160.35 10.355 160.42 10.425 160.42 10.565V11.105C160.42 11.245 160.35 11.315 160.21 11.315H156.535C156.435 11.315 156.385 11.36 156.385 11.45V14.48C156.385 14.57 156.435 14.615 156.535 14.615H159.745C159.885 14.615 159.955 14.685 159.955 14.825V15.365C159.955 15.505 159.885 15.575 159.745 15.575H156.535C156.435 15.575 156.385 15.62 156.385 15.71V18.905C156.385 18.995 156.435 19.04 156.535 19.04H160.21C160.35 19.04 160.42 19.11 160.42 19.25V19.79C160.42 19.93 160.35 20 160.21 20ZM167.551 19.04H170.071C170.911 19.04 171.331 18.605 171.331 17.735V12.62C171.331 11.75 170.911 11.315 170.071 11.315H167.551C167.451 11.315 167.401 11.36 167.401 11.45V18.905C167.401 18.995 167.451 19.04 167.551 19.04ZM166.306 19.79V10.565C166.306 10.425 166.376 10.355 166.516 10.355H170.206C170.896 10.355 171.436 10.555 171.826 10.955C172.226 11.345 172.426 11.885 172.426 12.575V17.78C172.426 18.47 172.226 19.015 171.826 19.415C171.436 19.805 170.896 20 170.206 20H166.516C166.376 20 166.306 19.93 166.306 19.79ZM179.561 20H174.851C174.711 20 174.641 19.93 174.641 19.79V10.565C174.641 10.425 174.711 10.355 174.851 10.355H179.561C179.701 10.355 179.771 10.425 179.771 10.565V11.105C179.771 11.245 179.701 11.315 179.561 11.315H175.886C175.786 11.315 175.736 11.36 175.736 11.45V14.48C175.736 14.57 175.786 14.615 175.886 14.615H179.096C179.236 14.615 179.306 14.685 179.306 14.825V15.365C179.306 15.505 179.236 15.575 179.096 15.575H175.886C175.786 15.575 175.736 15.62 175.736 15.71V18.905C175.736 18.995 175.786 19.04 175.886 19.04H179.561C179.701 19.04 179.771 19.11 179.771 19.25V19.79C179.771 19.93 179.701 20 179.561 20ZM190.681 20H185.866C185.726 20 185.656 19.93 185.656 19.79V10.565C185.656 10.425 185.726 10.355 185.866 10.355H186.541C186.681 10.355 186.751 10.425 186.751 10.565V18.875C186.751 18.965 186.801 19.01 186.901 19.01H190.681C190.821 19.01 190.891 19.085 190.891 19.235V19.79C190.891 19.93 190.821 20 190.681 20ZM192.544 20H191.794C191.664 20 191.619 19.93 191.659 19.79L194.464 10.565C194.504 10.425 194.599 10.355 194.749 10.355H195.829C195.979 10.355 196.074 10.425 196.114 10.565L198.919 19.79C198.959 19.93 198.914 20 198.784 20H198.019C197.909 20 197.839 19.93 197.809 19.79L197.104 17.6H193.474L192.769 19.79C192.729 19.93 192.654 20 192.544 20ZM195.259 11.48L193.714 16.67H196.864L195.319 11.48H195.259ZM205.218 20H204.543C204.403 20 204.333 19.93 204.333 19.79V10.565C204.333 10.425 204.403 10.355 204.543 10.355H207.993C208.683 10.355 209.228 10.555 209.628 10.955C210.028 11.345 210.228 11.885 210.228 12.575V13.94C210.228 14.5 210.093 14.965 209.823 15.335C209.553 15.695 209.178 15.935 208.698 16.055V16.115L210.438 19.76C210.528 19.92 210.478 20 210.288 20H209.613C209.443 20 209.318 19.93 209.238 19.79L207.558 16.16H205.578C205.478 16.16 205.428 16.205 205.428 16.295V19.79C205.428 19.93 205.358 20 205.218 20ZM205.578 15.245H207.843C208.703 15.245 209.133 14.815 209.133 13.955V12.62C209.133 11.75 208.703 11.315 207.843 11.315H205.578C205.478 11.315 205.428 11.36 205.428 11.45V15.11C205.428 15.2 205.478 15.245 205.578 15.245ZM215.66 7.46H216.56C216.63 7.46 216.675 7.48 216.695 7.52C216.715 7.56 216.705 7.61 216.665 7.67L215.345 9.245C215.265 9.345 215.17 9.395 215.06 9.395H214.565C214.425 9.395 214.395 9.325 214.475 9.185L215.33 7.655C215.4 7.525 215.51 7.46 215.66 7.46ZM217.31 20H212.6C212.46 20 212.39 19.93 212.39 19.79V10.565C212.39 10.425 212.46 10.355 212.6 10.355H217.31C217.45 10.355 217.52 10.425 217.52 10.565V11.105C217.52 11.245 217.45 11.315 217.31 11.315H213.635C213.535 11.315 213.485 11.36 213.485 11.45V14.48C213.485 14.57 213.535 14.615 213.635 14.615H216.845C216.985 14.615 217.055 14.685 217.055 14.825V15.365C217.055 15.505 216.985 15.575 216.845 15.575H213.635C213.535 15.575 213.485 15.62 213.485 15.71V18.905C213.485 18.995 213.535 19.04 213.635 19.04H217.31C217.45 19.04 217.52 19.11 217.52 19.25V19.79C217.52 19.93 217.45 20 217.31 20ZM223.287 20H221.667C220.977 20 220.432 19.805 220.032 19.415C219.642 19.025 219.447 18.48 219.447 17.78V12.575C219.447 11.875 219.642 11.33 220.032 10.94C220.432 10.55 220.977 10.355 221.667 10.355H223.287C223.977 10.355 224.517 10.555 224.907 10.955C225.297 11.345 225.492 11.885 225.492 12.575V13.19C225.492 13.34 225.422 13.415 225.282 13.415H224.607C224.467 13.415 224.397 13.34 224.397 13.19V12.62C224.397 11.75 223.982 11.315 223.152 11.315H221.787C220.957 11.315 220.542 11.75 220.542 12.62V17.735C220.542 18.605 220.957 19.04 221.787 19.04H223.152C223.982 19.04 224.397 18.605 224.397 17.735V16.055C224.397 15.955 224.352 15.905 224.262 15.905H222.777C222.637 15.905 222.567 15.84 222.567 15.71V15.155C222.567 15.015 222.637 14.945 222.777 14.945H225.192C225.392 14.945 225.492 15.05 225.492 15.26V17.78C225.492 18.48 225.297 19.025 224.907 19.415C224.517 19.805 223.977 20 223.287 20ZM228.882 10.565V19.79C228.882 19.93 228.812 20 228.672 20H227.997C227.857 20 227.787 19.93 227.787 19.79V10.565C227.787 10.425 227.857 10.355 227.997 10.355H228.672C228.812 10.355 228.882 10.425 228.882 10.565ZM233.52 19.04H235.05C235.89 19.04 236.31 18.605 236.31 17.735V12.62C236.31 11.75 235.89 11.315 235.05 11.315H233.52C232.69 11.315 232.275 11.75 232.275 12.62V17.735C232.275 18.605 232.69 19.04 233.52 19.04ZM235.185 20H233.4C232.71 20 232.165 19.805 231.765 19.415C231.375 19.025 231.18 18.48 231.18 17.78V12.575C231.18 11.875 231.375 11.33 231.765 10.94C232.165 10.55 232.71 10.355 233.4 10.355H235.185C235.875 10.355 236.415 10.555 236.805 10.955C237.205 11.345 237.405 11.885 237.405 12.575V17.78C237.405 18.47 237.205 19.015 236.805 19.415C236.415 19.805 235.875 20 235.185 20ZM240.491 20H239.831C239.691 20 239.621 19.93 239.621 19.79V10.565C239.621 10.425 239.691 10.355 239.831 10.355H240.446C240.566 10.355 240.646 10.395 240.686 10.475L244.826 17.75H244.886V10.565C244.886 10.425 244.956 10.355 245.096 10.355H245.756C245.896 10.355 245.966 10.425 245.966 10.565V19.79C245.966 19.93 245.896 20 245.756 20H245.201C245.091 20 244.986 19.935 244.886 19.805L240.761 12.605H240.701V19.79C240.701 19.93 240.631 20 240.491 20ZM257.065 20H252.355C252.215 20 252.145 19.93 252.145 19.79V10.565C252.145 10.425 252.215 10.355 252.355 10.355H257.065C257.205 10.355 257.275 10.425 257.275 10.565V11.105C257.275 11.245 257.205 11.315 257.065 11.315H253.39C253.29 11.315 253.24 11.36 253.24 11.45V14.48C253.24 14.57 253.29 14.615 253.39 14.615H256.6C256.74 14.615 256.81 14.685 256.81 14.825V15.365C256.81 15.505 256.74 15.575 256.6 15.575H253.39C253.29 15.575 253.24 15.62 253.24 15.71V18.905C253.24 18.995 253.29 19.04 253.39 19.04H257.065C257.205 19.04 257.275 19.11 257.275 19.25V19.79C257.275 19.93 257.205 20 257.065 20ZM261.707 20H261.032C260.892 20 260.822 19.93 260.822 19.79V11.45C260.822 11.36 260.772 11.315 260.672 11.315H258.632C258.482 11.315 258.407 11.245 258.407 11.105V10.565C258.407 10.425 258.482 10.355 258.632 10.355H264.107C264.257 10.355 264.332 10.425 264.332 10.565V11.105C264.332 11.245 264.257 11.315 264.107 11.315H262.067C261.967 11.315 261.917 11.36 261.917 11.45V19.79C261.917 19.93 261.847 20 261.707 20ZM274.692 10.355H275.367C275.507 10.355 275.577 10.42 275.577 10.55V17.78C275.577 18.48 275.382 19.025 274.992 19.415C274.602 19.805 274.062 20 273.372 20H271.707C271.017 20 270.472 19.805 270.072 19.415C269.682 19.025 269.487 18.48 269.487 17.78V10.565C269.487 10.425 269.557 10.355 269.697 10.355H270.372C270.512 10.355 270.582 10.425 270.582 10.565V17.735C270.582 18.605 270.997 19.04 271.827 19.04H273.237C274.077 19.04 274.497 18.605 274.497 17.735V10.565C274.497 10.425 274.562 10.355 274.692 10.355ZM278.738 20H278.078C277.938 20 277.868 19.93 277.868 19.79V10.565C277.868 10.425 277.938 10.355 278.078 10.355H278.693C278.813 10.355 278.893 10.395 278.933 10.475L283.073 17.75H283.133V10.565C283.133 10.425 283.203 10.355 283.343 10.355H284.003C284.143 10.355 284.213 10.425 284.213 10.565V19.79C284.213 19.93 284.143 20 284.003 20H283.448C283.338 20 283.233 19.935 283.133 19.805L279.008 12.605H278.948V19.79C278.948 19.93 278.878 20 278.738 20ZM291.504 20H286.794C286.654 20 286.584 19.93 286.584 19.79V10.565C286.584 10.425 286.654 10.355 286.794 10.355H291.504C291.644 10.355 291.714 10.425 291.714 10.565V11.105C291.714 11.245 291.644 11.315 291.504 11.315H287.829C287.729 11.315 287.679 11.36 287.679 11.45V14.48C287.679 14.57 287.729 14.615 287.829 14.615H291.039C291.179 14.615 291.249 14.685 291.249 14.825V15.365C291.249 15.505 291.179 15.575 291.039 15.575H287.829C287.729 15.575 287.679 15.62 287.679 15.71V18.905C287.679 18.995 287.729 19.04 287.829 19.04H291.504C291.644 19.04 291.714 19.11 291.714 19.25V19.79C291.714 19.93 291.644 20 291.504 20ZM104.551 27.46H105.451C105.521 27.46 105.566 27.48 105.586 27.52C105.606 27.56 105.596 27.61 105.556 27.67L104.236 29.245C104.156 29.345 104.061 29.395 103.951 29.395H103.456C103.316 29.395 103.286 29.325 103.366 29.185L104.221 27.655C104.291 27.525 104.401 27.46 104.551 27.46ZM106.201 40H101.491C101.351 40 101.281 39.93 101.281 39.79V30.565C101.281 30.425 101.351 30.355 101.491 30.355H106.201C106.341 30.355 106.411 30.425 106.411 30.565V31.105C106.411 31.245 106.341 31.315 106.201 31.315H102.526C102.426 31.315 102.376 31.36 102.376 31.45V34.48C102.376 34.57 102.426 34.615 102.526 34.615H105.736C105.876 34.615 105.946 34.685 105.946 34.825V35.365C105.946 35.505 105.876 35.575 105.736 35.575H102.526C102.426 35.575 102.376 35.62 102.376 35.71V38.905C102.376 38.995 102.426 39.04 102.526 39.04H106.201C106.341 39.04 106.411 39.11 106.411 39.25V39.79C106.411 39.93 106.341 40 106.201 40ZM110.738 39.04H112.268C113.108 39.04 113.528 38.605 113.528 37.735V32.62C113.528 31.75 113.108 31.315 112.268 31.315H110.738C109.908 31.315 109.493 31.75 109.493 32.62V37.735C109.493 38.605 109.908 39.04 110.738 39.04ZM113.618 41.995H113.003C112.823 41.995 112.693 41.925 112.613 41.785L111.533 40H110.603C109.923 40 109.383 39.805 108.983 39.415C108.593 39.025 108.398 38.48 108.398 37.78V32.575C108.398 31.885 108.593 31.345 108.983 30.955C109.383 30.555 109.923 30.355 110.603 30.355H112.388C113.078 30.355 113.618 30.55 114.008 30.94C114.408 31.33 114.608 31.875 114.608 32.575V37.78C114.608 38.42 114.438 38.935 114.098 39.325C113.758 39.705 113.288 39.92 112.688 39.97L113.753 41.755C113.793 41.825 113.798 41.88 113.768 41.92C113.738 41.97 113.688 41.995 113.618 41.995ZM122.012 30.355H122.687C122.827 30.355 122.897 30.42 122.897 30.55V37.78C122.897 38.48 122.702 39.025 122.312 39.415C121.922 39.805 121.382 40 120.692 40H119.027C118.337 40 117.792 39.805 117.392 39.415C117.002 39.025 116.807 38.48 116.807 37.78V30.565C116.807 30.425 116.877 30.355 117.017 30.355H117.692C117.832 30.355 117.902 30.425 117.902 30.565V37.735C117.902 38.605 118.317 39.04 119.147 39.04H120.557C121.397 39.04 121.817 38.605 121.817 37.735V30.565C121.817 30.425 121.882 30.355 122.012 30.355ZM126.357 30.565V39.79C126.357 39.93 126.287 40 126.147 40H125.472C125.332 40 125.262 39.93 125.262 39.79V30.565C125.262 30.425 125.332 30.355 125.472 30.355H126.147C126.287 30.355 126.357 30.425 126.357 30.565ZM129.691 40H129.016C128.876 40 128.806 39.93 128.806 39.79V30.565C128.806 30.425 128.876 30.355 129.016 30.355H132.526C133.216 30.355 133.756 30.555 134.146 30.955C134.536 31.345 134.731 31.885 134.731 32.575V34.24C134.731 34.94 134.536 35.485 134.146 35.875C133.756 36.265 133.216 36.46 132.526 36.46H130.051C129.951 36.46 129.901 36.505 129.901 36.595V39.79C129.901 39.93 129.831 40 129.691 40ZM130.051 35.485H132.376C133.216 35.485 133.636 35.055 133.636 34.195V32.62C133.636 31.75 133.216 31.315 132.376 31.315H130.051C129.951 31.315 129.901 31.36 129.901 31.45V35.35C129.901 35.44 129.951 35.485 130.051 35.485ZM141.621 40H136.911C136.771 40 136.701 39.93 136.701 39.79V30.565C136.701 30.425 136.771 30.355 136.911 30.355H141.621C141.761 30.355 141.831 30.425 141.831 30.565V31.105C141.831 31.245 141.761 31.315 141.621 31.315H137.946C137.846 31.315 137.796 31.36 137.796 31.45V34.48C137.796 34.57 137.846 34.615 137.946 34.615H141.156C141.296 34.615 141.366 34.685 141.366 34.825V35.365C141.366 35.505 141.296 35.575 141.156 35.575H137.946C137.846 35.575 137.796 35.62 137.796 35.71V38.905C137.796 38.995 137.846 39.04 137.946 39.04H141.621C141.761 39.04 141.831 39.11 141.831 39.25V39.79C141.831 39.93 141.761 40 141.621 40ZM147.837 40H147.087C146.957 40 146.912 39.93 146.952 39.79L149.757 30.565C149.797 30.425 149.892 30.355 150.042 30.355H151.122C151.272 30.355 151.367 30.425 151.407 30.565L154.212 39.79C154.252 39.93 154.207 40 154.077 40H153.312C153.202 40 153.132 39.93 153.102 39.79L152.397 37.6H148.767L148.062 39.79C148.022 39.93 147.947 40 147.837 40ZM150.552 31.48L149.007 36.67H152.157L150.612 31.48H150.552ZM160.947 30.355H161.622C161.762 30.355 161.832 30.42 161.832 30.55V37.78C161.832 38.48 161.637 39.025 161.247 39.415C160.857 39.805 160.317 40 159.627 40H157.962C157.272 40 156.727 39.805 156.327 39.415C155.937 39.025 155.742 38.48 155.742 37.78V30.565C155.742 30.425 155.812 30.355 155.952 30.355H156.627C156.767 30.355 156.837 30.425 156.837 30.565V37.735C156.837 38.605 157.252 39.04 158.082 39.04H159.492C160.332 39.04 160.752 38.605 160.752 37.735V30.565C160.752 30.425 160.817 30.355 160.947 30.355ZM170.287 40H169.612C169.472 40 169.402 39.93 169.402 39.79V31.45C169.402 31.36 169.352 31.315 169.252 31.315H167.212C167.062 31.315 166.987 31.245 166.987 31.105V30.565C166.987 30.425 167.062 30.355 167.212 30.355H172.687C172.837 30.355 172.912 30.425 172.912 30.565V31.105C172.912 31.245 172.837 31.315 172.687 31.315H170.647C170.547 31.315 170.497 31.36 170.497 31.45V39.79C170.497 39.93 170.427 40 170.287 40ZM176.523 39.04H178.053C178.893 39.04 179.313 38.605 179.313 37.735V32.62C179.313 31.75 178.893 31.315 178.053 31.315H176.523C175.693 31.315 175.278 31.75 175.278 32.62V37.735C175.278 38.605 175.693 39.04 176.523 39.04ZM178.188 40H176.403C175.713 40 175.168 39.805 174.768 39.415C174.378 39.025 174.183 38.48 174.183 37.78V32.575C174.183 31.875 174.378 31.33 174.768 30.94C175.168 30.55 175.713 30.355 176.403 30.355H178.188C178.878 30.355 179.418 30.555 179.808 30.955C180.208 31.345 180.408 31.885 180.408 32.575V37.78C180.408 38.47 180.208 39.015 179.808 39.415C179.418 39.805 178.878 40 178.188 40ZM183.509 40H182.834C182.694 40 182.624 39.93 182.624 39.79V30.565C182.624 30.425 182.694 30.355 182.834 30.355H186.344C187.034 30.355 187.574 30.555 187.964 30.955C188.354 31.345 188.549 31.885 188.549 32.575V34.24C188.549 34.94 188.354 35.485 187.964 35.875C187.574 36.265 187.034 36.46 186.344 36.46H183.869C183.769 36.46 183.719 36.505 183.719 36.595V39.79C183.719 39.93 183.649 40 183.509 40ZM183.869 35.485H186.194C187.034 35.485 187.454 35.055 187.454 34.195V32.62C187.454 31.75 187.034 31.315 186.194 31.315H183.869C183.769 31.315 183.719 31.36 183.719 31.45V35.35C183.719 35.44 183.769 35.485 183.869 35.485ZM194.313 32.305V30.565C194.313 30.425 194.383 30.355 194.523 30.355H195.318C195.458 30.355 195.528 30.425 195.528 30.565V32.305C195.528 33.255 195.498 34.18 195.438 35.08C195.378 35.98 195.338 36.49 195.318 36.61C195.298 36.73 195.233 36.79 195.123 36.79H194.718C194.588 36.79 194.518 36.715 194.508 36.565C194.468 36.175 194.423 35.49 194.373 34.51C194.333 33.53 194.313 32.795 194.313 32.305ZM195.498 37.975V39.79C195.498 39.93 195.428 40 195.288 40H194.568C194.438 40 194.373 39.925 194.373 39.775V37.975C194.373 37.845 194.438 37.78 194.568 37.78H195.288C195.428 37.78 195.498 37.845 195.498 37.975ZM198.578 30.55V31.42C198.578 31.65 198.508 31.975 198.368 32.395L197.858 33.82C197.828 33.89 197.773 33.925 197.693 33.925C197.583 33.925 197.528 33.865 197.528 33.745V30.565C197.528 30.425 197.598 30.355 197.738 30.355H198.383C198.513 30.355 198.578 30.42 198.578 30.55ZM200.888 30.55V31.42C200.888 31.67 200.813 31.995 200.663 32.395L200.168 33.82C200.138 33.89 200.073 33.925 199.973 33.925C199.883 33.925 199.838 33.865 199.838 33.745V30.565C199.838 30.425 199.903 30.355 200.033 30.355H200.693C200.823 30.355 200.888 30.42 200.888 30.55Z" fill="#686666"/>
    <path d="M76.323 49.5H79.683C80.553 49.5 81.323 49.71 81.993 50.13C82.673 50.55 83.203 51.155 83.583 51.945C83.963 52.735 84.153 53.67 84.153 54.75C84.153 55.83 83.963 56.765 83.583 57.555C83.203 58.345 82.673 58.95 81.993 59.37C81.323 59.79 80.553 60 79.683 60H76.323V49.5ZM79.428 58.755C80.478 58.755 81.273 58.405 81.813 57.705C82.363 57.005 82.638 56.02 82.638 54.75C82.638 53.48 82.363 52.495 81.813 51.795C81.273 51.095 80.478 50.745 79.428 50.745H77.688V58.755H79.428ZM88.4465 60.15C87.7065 60.15 87.0715 59.98 86.5415 59.64C86.0215 59.29 85.6265 58.82 85.3565 58.23C85.0965 57.64 84.9665 56.985 84.9665 56.265C84.9665 55.575 85.0865 54.945 85.3265 54.375C85.5765 53.795 85.9315 53.34 86.3915 53.01C86.8615 52.67 87.4165 52.5 88.0565 52.5C88.8765 52.5 89.5415 52.775 90.0515 53.325C90.5715 53.875 90.8315 54.635 90.8315 55.605C90.8315 55.775 90.8115 56.01 90.7715 56.31H86.3015C86.3315 57.18 86.5465 57.84 86.9465 58.29C87.3565 58.74 87.8865 58.965 88.5365 58.965C88.8465 58.965 89.1715 58.93 89.5115 58.86C89.8615 58.78 90.1665 58.67 90.4265 58.53L90.5465 59.7C89.9965 60 89.2965 60.15 88.4465 60.15ZM89.4965 55.395C89.4965 54.895 89.3715 54.49 89.1215 54.18C88.8815 53.86 88.5315 53.7 88.0715 53.7C87.6215 53.7 87.2465 53.84 86.9465 54.12C86.6565 54.4 86.4615 54.825 86.3615 55.395H89.4965ZM86.9765 50.325L89.1815 48.915V50.385L86.9765 51.24V50.325ZM94.9333 60.15C93.8133 60.15 92.9633 59.8 92.3833 59.1C91.8033 58.39 91.5133 57.48 91.5133 56.37C91.5133 55.22 91.8033 54.29 92.3833 53.58C92.9633 52.86 93.8233 52.5 94.9633 52.5C95.5733 52.5 96.1183 52.625 96.5983 52.875L96.3883 54.03C95.9383 53.79 95.4683 53.67 94.9783 53.67C94.3083 53.67 93.7833 53.905 93.4033 54.375C93.0333 54.835 92.8483 55.48 92.8483 56.31C92.8483 57.14 93.0383 57.795 93.4183 58.275C93.8083 58.755 94.3433 58.995 95.0233 58.995C95.5433 58.995 96.0033 58.875 96.4033 58.635L96.5833 59.805C96.3833 59.905 96.1333 59.985 95.8333 60.045C95.5333 60.115 95.2333 60.15 94.9333 60.15ZM100.377 60.15C99.7173 60.15 99.1473 59.985 98.6673 59.655C98.1873 59.315 97.8173 58.855 97.5573 58.275C97.3073 57.695 97.1823 57.045 97.1823 56.325C97.1823 55.605 97.3073 54.955 97.5573 54.375C97.8173 53.795 98.1873 53.34 98.6673 53.01C99.1473 52.67 99.7173 52.5 100.377 52.5C101.027 52.5 101.592 52.67 102.072 53.01C102.552 53.34 102.917 53.795 103.167 54.375C103.417 54.955 103.542 55.605 103.542 56.325C103.542 57.045 103.417 57.695 103.167 58.275C102.917 58.855 102.552 59.315 102.072 59.655C101.592 59.985 101.027 60.15 100.377 60.15ZM100.377 58.995C100.957 58.995 101.407 58.76 101.727 58.29C102.047 57.82 102.207 57.165 102.207 56.325C102.207 55.485 102.047 54.835 101.727 54.375C101.407 53.905 100.957 53.67 100.377 53.67C99.7773 53.67 99.3173 53.905 98.9973 54.375C98.6773 54.835 98.5173 55.485 98.5173 56.325C98.5173 57.175 98.6773 57.835 98.9973 58.305C99.3173 58.765 99.7773 58.995 100.377 58.995ZM110.002 52.65V60H108.892L108.802 59.1C108.602 59.43 108.332 59.69 107.992 59.88C107.652 60.06 107.277 60.15 106.867 60.15C106.097 60.15 105.522 59.895 105.142 59.385C104.772 58.865 104.587 58.125 104.587 57.165V52.65H105.892V57C105.892 57.66 105.987 58.155 106.177 58.485C106.377 58.805 106.707 58.965 107.167 58.965C107.487 58.965 107.777 58.875 108.037 58.695C108.297 58.515 108.517 58.265 108.697 57.945V52.65H110.002ZM111.077 52.65H112.472L114.182 58.455L115.862 52.65H117.257L114.827 60H113.522L111.077 52.65ZM118.17 52.65H119.235L119.4 53.88C119.73 53.4 120.04 53.05 120.33 52.83C120.63 52.61 120.945 52.5 121.275 52.5C121.405 52.5 121.52 52.515 121.62 52.545L121.485 54.03C121.355 54 121.205 53.985 121.035 53.985C120.705 53.985 120.395 54.07 120.105 54.24C119.815 54.4 119.605 54.59 119.475 54.81V60H118.17V52.65ZM122.609 49.5H123.914V50.985H122.609V49.5ZM122.609 52.65H123.914V60H122.609V52.65ZM125.656 52.65H126.721L126.886 53.88C127.216 53.4 127.526 53.05 127.816 52.83C128.116 52.61 128.431 52.5 128.761 52.5C128.891 52.5 129.006 52.515 129.106 52.545L128.971 54.03C128.841 54 128.691 53.985 128.521 53.985C128.191 53.985 127.881 54.07 127.591 54.24C127.301 54.4 127.091 54.59 126.961 54.81V60H125.656V52.65ZM134.87 60.15C134.01 60.15 133.265 59.95 132.635 59.55L132.8 58.23C133.44 58.73 134.1 58.98 134.78 58.98C135.14 58.98 135.42 58.905 135.62 58.755C135.83 58.605 135.935 58.385 135.935 58.095C135.935 57.875 135.885 57.695 135.785 57.555C135.695 57.415 135.54 57.28 135.32 57.15C135.1 57.02 134.76 56.85 134.3 56.64C133.76 56.39 133.365 56.105 133.115 55.785C132.865 55.465 132.74 55.05 132.74 54.54C132.74 53.94 132.95 53.45 133.37 53.07C133.79 52.69 134.355 52.5 135.065 52.5C135.785 52.5 136.415 52.66 136.955 52.98L136.79 54.195C136.52 54.015 136.265 53.885 136.025 53.805C135.785 53.715 135.5 53.67 135.17 53.67C134.82 53.67 134.545 53.745 134.345 53.895C134.145 54.045 134.045 54.255 134.045 54.525C134.045 54.795 134.13 55 134.3 55.14C134.48 55.28 134.825 55.465 135.335 55.695C136.045 56.015 136.545 56.34 136.835 56.67C137.125 56.99 137.27 57.415 137.27 57.945C137.27 58.635 137.055 59.175 136.625 59.565C136.195 59.955 135.61 60.15 134.87 60.15ZM143.65 52.65V60H142.54L142.45 59.1C142.25 59.43 141.98 59.69 141.64 59.88C141.3 60.06 140.925 60.15 140.515 60.15C139.745 60.15 139.17 59.895 138.79 59.385C138.42 58.865 138.235 58.125 138.235 57.165V52.65H139.54V57C139.54 57.66 139.635 58.155 139.825 58.485C140.025 58.805 140.355 58.965 140.815 58.965C141.135 58.965 141.425 58.875 141.685 58.695C141.945 58.515 142.165 58.265 142.345 57.945V52.65H143.65ZM145.519 52.65H146.584L146.749 53.88C147.079 53.4 147.389 53.05 147.679 52.83C147.979 52.61 148.294 52.5 148.624 52.5C148.754 52.5 148.869 52.515 148.969 52.545L148.834 54.03C148.704 54 148.554 53.985 148.384 53.985C148.054 53.985 147.744 54.07 147.454 54.24C147.164 54.4 146.954 54.59 146.824 54.81V60H145.519V52.65Z" fill="#8F8F8F"/>
    <path d="M154.242 49.5H155.397L161.712 58.02V49.5H162.807V60H161.787L155.337 51.255V60H154.242V49.5ZM171.231 59.205C170.811 59.515 170.371 59.75 169.911 59.91C169.461 60.06 168.966 60.135 168.426 60.135C167.886 60.135 167.376 60.035 166.896 59.835C166.426 59.635 166.016 59.36 165.666 59.01C165.326 58.66 165.056 58.25 164.856 57.78C164.656 57.3 164.556 56.785 164.556 56.235C164.556 55.695 164.651 55.19 164.841 54.72C165.041 54.25 165.306 53.84 165.636 53.49C165.966 53.14 166.356 52.865 166.806 52.665C167.266 52.465 167.751 52.365 168.261 52.365C168.761 52.365 169.226 52.465 169.656 52.665C170.096 52.865 170.471 53.14 170.781 53.49C171.101 53.84 171.351 54.25 171.531 54.72C171.721 55.19 171.816 55.695 171.816 56.235V56.58H165.651C165.731 57.32 166.036 57.935 166.566 58.425C167.096 58.915 167.731 59.16 168.471 59.16C168.861 59.16 169.241 59.1 169.611 58.98C169.981 58.86 170.291 58.69 170.541 58.47L171.231 59.205ZM168.231 53.34C167.581 53.34 167.016 53.56 166.536 54C166.066 54.44 165.781 55.005 165.681 55.695H170.706C170.606 55.035 170.321 54.48 169.851 54.03C169.391 53.57 168.851 53.34 168.231 53.34ZM175.681 60H174.601L172.486 52.485H173.581L175.201 58.485L177.076 52.485H178.066L179.926 58.485L181.561 52.485H182.611L180.481 60H179.416L177.556 53.985L175.681 60ZM186.301 50.535V49.5H195.046V50.535H191.251V60H190.096V50.535H186.301ZM197.93 60.135C197.11 60.135 196.44 59.925 195.92 59.505C195.41 59.085 195.155 58.54 195.155 57.87C195.155 57.17 195.425 56.615 195.965 56.205C196.505 55.785 197.235 55.575 198.155 55.575C198.555 55.575 198.94 55.62 199.31 55.71C199.69 55.8 200.04 55.925 200.36 56.085V55.095C200.36 54.495 200.19 54.045 199.85 53.745C199.51 53.435 199.015 53.28 198.365 53.28C197.995 53.28 197.62 53.335 197.24 53.445C196.87 53.545 196.46 53.71 196.01 53.94L195.59 53.085C196.13 52.825 196.63 52.635 197.09 52.515C197.55 52.395 198.01 52.335 198.47 52.335C199.42 52.335 200.15 52.56 200.66 53.01C201.18 53.46 201.44 54.105 201.44 54.945V60H200.36V59.265C200.02 59.555 199.645 59.775 199.235 59.925C198.835 60.065 198.4 60.135 197.93 60.135ZM196.22 57.84C196.22 58.26 196.395 58.605 196.745 58.875C197.105 59.135 197.565 59.265 198.125 59.265C198.575 59.265 198.985 59.195 199.355 59.055C199.725 58.915 200.06 58.695 200.36 58.395V56.985C200.05 56.775 199.715 56.625 199.355 56.535C199.005 56.435 198.615 56.385 198.185 56.385C197.585 56.385 197.105 56.52 196.745 56.79C196.395 57.05 196.22 57.4 196.22 57.84ZM210.6 56.235C210.6 56.775 210.5 57.285 210.3 57.765C210.11 58.245 209.845 58.66 209.505 59.01C209.165 59.35 208.76 59.62 208.29 59.82C207.83 60.02 207.335 60.12 206.805 60.12C206.365 60.12 205.935 60.045 205.515 59.895C205.105 59.745 204.73 59.53 204.39 59.25V60H203.295V49.5L204.405 49.245V53.28C204.715 52.98 205.075 52.755 205.485 52.605C205.905 52.445 206.35 52.365 206.82 52.365C207.35 52.365 207.845 52.465 208.305 52.665C208.765 52.865 209.165 53.14 209.505 53.49C209.845 53.83 210.11 54.24 210.3 54.72C210.5 55.19 210.6 55.695 210.6 56.235ZM206.715 53.34C206.245 53.34 205.805 53.435 205.395 53.625C204.995 53.805 204.665 54.06 204.405 54.39V58.11C204.665 58.43 205 58.685 205.41 58.875C205.82 59.055 206.255 59.145 206.715 59.145C207.505 59.145 208.165 58.87 208.695 58.32C209.235 57.76 209.505 57.07 209.505 56.25C209.505 55.84 209.43 55.46 209.28 55.11C209.14 54.75 208.945 54.44 208.695 54.18C208.445 53.92 208.15 53.715 207.81 53.565C207.47 53.415 207.105 53.34 206.715 53.34ZM213.252 49.245V60H212.142V49.5L213.252 49.245ZM221.475 59.205C221.055 59.515 220.615 59.75 220.155 59.91C219.705 60.06 219.21 60.135 218.67 60.135C218.13 60.135 217.62 60.035 217.14 59.835C216.67 59.635 216.26 59.36 215.91 59.01C215.57 58.66 215.3 58.25 215.1 57.78C214.9 57.3 214.8 56.785 214.8 56.235C214.8 55.695 214.895 55.19 215.085 54.72C215.285 54.25 215.55 53.84 215.88 53.49C216.21 53.14 216.6 52.865 217.05 52.665C217.51 52.465 217.995 52.365 218.505 52.365C219.005 52.365 219.47 52.465 219.9 52.665C220.34 52.865 220.715 53.14 221.025 53.49C221.345 53.84 221.595 54.25 221.775 54.72C221.965 55.19 222.06 55.695 222.06 56.235V56.58H215.895C215.975 57.32 216.28 57.935 216.81 58.425C217.34 58.915 217.975 59.16 218.715 59.16C219.105 59.16 219.485 59.1 219.855 58.98C220.225 58.86 220.535 58.69 220.785 58.47L221.475 59.205ZM218.475 53.34C217.825 53.34 217.26 53.56 216.78 54C216.31 54.44 216.025 55.005 215.925 55.695H220.95C220.85 55.035 220.565 54.48 220.095 54.03C219.635 53.57 219.095 53.34 218.475 53.34Z" fill="#C54B25"/>
    <path d="M130.118 85.0049C130.118 84.8633 130.106 84.7607 130.082 84.6973C130.062 84.6338 130.052 84.5752 130.052 84.5215C130.052 84.4482 130.091 84.3896 130.169 84.3457C130.248 84.2969 130.34 84.2725 130.448 84.2725C130.697 84.2725 130.892 84.3384 131.034 84.4702C131.18 84.5972 131.253 84.751 131.253 84.9316V85.6055C131.356 85.3955 131.466 85.2002 131.583 85.0195C131.705 84.8389 131.834 84.6826 131.971 84.5508C132.113 84.4141 132.262 84.3091 132.418 84.2358C132.579 84.1577 132.752 84.1187 132.938 84.1187C133.187 84.1187 133.392 84.165 133.553 84.2578C133.714 84.3506 133.841 84.4702 133.934 84.6167C134.027 84.7632 134.09 84.9268 134.125 85.1074C134.164 85.2881 134.183 85.4639 134.183 85.6348V88.7402C134.183 88.7744 134.186 88.8306 134.19 88.9087C134.195 88.9819 134.21 89.0576 134.234 89.1357C134.259 89.2139 134.295 89.2822 134.344 89.3408C134.398 89.3994 134.474 89.4287 134.571 89.4287C134.723 89.4287 134.852 89.375 134.959 89.2676C135.072 89.1602 135.167 89.0259 135.245 88.8647C135.328 88.7036 135.394 88.5303 135.443 88.3447C135.497 88.1543 135.541 87.9761 135.575 87.8101C135.604 87.6538 135.653 87.5415 135.721 87.4731C135.79 87.3999 135.86 87.3633 135.934 87.3633C135.992 87.3633 136.053 87.3828 136.117 87.4219C136.18 87.4561 136.236 87.5024 136.285 87.561C136.339 87.6196 136.38 87.6855 136.41 87.7588C136.444 87.832 136.461 87.9053 136.461 87.9785C136.461 87.9883 136.461 88.0005 136.461 88.0151C136.461 88.0298 136.456 88.0518 136.446 88.0811C136.383 88.3301 136.295 88.5913 136.183 88.8647C136.075 89.1382 135.934 89.3896 135.758 89.6191C135.587 89.8486 135.382 90.0391 135.143 90.1904C134.903 90.3418 134.623 90.4175 134.3 90.4175C134.1 90.4175 133.922 90.3784 133.766 90.3003C133.614 90.2271 133.482 90.127 133.37 90C133.263 89.873 133.18 89.7241 133.121 89.5532C133.067 89.3823 133.041 89.2017 133.041 89.0112V85.9644C133.041 85.8472 133.038 85.7373 133.033 85.6348C133.028 85.5322 133.014 85.4419 132.989 85.3638C132.97 85.2856 132.938 85.2246 132.894 85.1807C132.855 85.1318 132.799 85.1074 132.726 85.1074C132.618 85.1074 132.486 85.1807 132.33 85.3271C132.174 85.4736 132.02 85.6641 131.869 85.8984C131.717 86.1328 131.583 86.3989 131.466 86.6968C131.354 86.9897 131.283 87.2852 131.253 87.583V89.7729C131.253 89.8462 131.251 89.9219 131.246 90C131.246 90.0732 131.231 90.1392 131.202 90.1978C131.178 90.2612 131.136 90.3125 131.078 90.3516C131.024 90.3955 130.943 90.4175 130.836 90.4175C130.763 90.4175 130.682 90.4077 130.594 90.3882C130.511 90.3735 130.433 90.3418 130.36 90.293C130.292 90.249 130.233 90.1831 130.184 90.0952C130.14 90.0122 130.118 89.8999 130.118 89.7583V85.0049ZM138.988 85.6348C138.988 85.9131 138.939 86.1987 138.841 86.4917C138.749 86.7847 138.607 87.063 138.417 87.3267C138.231 87.5854 137.999 87.8198 137.721 88.0298C137.447 88.2349 137.13 88.3911 136.769 88.4985C136.817 88.6255 136.881 88.7476 136.959 88.8647C137.042 88.9771 137.14 89.0747 137.252 89.1577C137.364 89.2407 137.494 89.3066 137.64 89.3555C137.792 89.4043 137.965 89.4287 138.16 89.4287C138.453 89.4287 138.705 89.375 138.915 89.2676C139.125 89.1553 139.3 89.0088 139.442 88.8281C139.588 88.6475 139.706 88.4448 139.793 88.2202C139.881 87.9956 139.947 87.7686 139.991 87.5391C140.025 87.373 140.094 87.2632 140.196 87.2095C140.304 87.1509 140.411 87.1362 140.519 87.1655C140.631 87.1948 140.726 87.2583 140.804 87.356C140.887 87.4487 140.921 87.561 140.907 87.6929C140.887 87.8442 140.853 88.0176 140.804 88.2129C140.76 88.4082 140.692 88.606 140.599 88.8062C140.506 89.0063 140.387 89.2041 140.24 89.3994C140.099 89.5898 139.923 89.7607 139.713 89.9121C139.503 90.0635 139.256 90.1855 138.973 90.2783C138.69 90.3711 138.365 90.4175 137.999 90.4175C137.657 90.4175 137.325 90.3491 137.003 90.2124C136.686 90.0806 136.402 89.8901 136.153 89.6411C135.909 89.3872 135.711 89.0771 135.56 88.7109C135.414 88.3398 135.34 87.9199 135.34 87.4512C135.34 86.9775 135.406 86.5381 135.538 86.1328C135.67 85.7227 135.843 85.3687 136.058 85.0708C136.273 84.7729 136.517 84.541 136.791 84.375C137.064 84.2041 137.345 84.1187 137.633 84.1187C137.843 84.1187 138.031 84.1553 138.197 84.2285C138.368 84.3018 138.512 84.4067 138.629 84.5435C138.746 84.6753 138.834 84.834 138.893 85.0195C138.956 85.2051 138.988 85.4102 138.988 85.6348ZM136.571 87.4072C136.571 87.4512 136.573 87.4951 136.578 87.5391C136.583 87.583 136.585 87.6294 136.585 87.6782C136.771 87.5903 136.939 87.478 137.091 87.3413C137.242 87.2046 137.372 87.0483 137.479 86.8726C137.586 86.6968 137.669 86.5063 137.728 86.3013C137.787 86.0913 137.816 85.874 137.816 85.6494C137.816 85.4834 137.787 85.354 137.728 85.2612C137.674 85.1685 137.599 85.1221 137.501 85.1221C137.379 85.1221 137.269 85.1636 137.171 85.2466C137.079 85.3296 136.996 85.4395 136.922 85.5762C136.854 85.708 136.795 85.8594 136.747 86.0303C136.703 86.1963 136.666 86.3647 136.637 86.5356C136.607 86.7065 136.588 86.8701 136.578 87.0264C136.568 87.1777 136.566 87.3047 136.571 87.4072ZM142.613 85.0049C142.613 84.8633 142.604 84.7607 142.584 84.6973C142.564 84.6338 142.555 84.5752 142.555 84.5215C142.555 84.4482 142.591 84.3896 142.665 84.3457C142.743 84.2969 142.835 84.2725 142.943 84.2725C143.192 84.2725 143.39 84.3384 143.536 84.4702C143.683 84.5972 143.756 84.751 143.756 84.9316V88.3667C143.761 88.5229 143.773 88.667 143.792 88.7988C143.817 88.9307 143.856 89.043 143.91 89.1357C143.963 89.2285 144.037 89.3018 144.129 89.3555C144.222 89.4043 144.342 89.4287 144.488 89.4287C144.63 89.4287 144.747 89.4019 144.84 89.3481C144.938 89.2896 145.016 89.2114 145.074 89.1138C145.133 89.0161 145.174 88.9038 145.199 88.7769C145.223 88.645 145.235 88.5083 145.235 88.3667V85.0049C145.235 84.8633 145.226 84.7607 145.206 84.6973C145.187 84.6338 145.177 84.5752 145.177 84.5215C145.177 84.4482 145.216 84.3896 145.294 84.3457C145.372 84.2969 145.465 84.2725 145.572 84.2725C145.821 84.2725 146.017 84.3384 146.158 84.4702C146.305 84.5972 146.378 84.751 146.378 84.9316V88.3667C146.378 88.6011 146.354 88.8403 146.305 89.0845C146.261 89.3237 146.173 89.5435 146.041 89.7437C145.909 89.939 145.724 90.1001 145.484 90.2271C145.245 90.354 144.933 90.4175 144.547 90.4175C144.386 90.4175 144.234 90.3979 144.093 90.3589C143.951 90.3198 143.822 90.2661 143.705 90.1978C143.587 90.1343 143.485 90.061 143.397 89.978C143.309 89.8901 143.238 89.7974 143.185 89.6997C143.136 89.7974 143.062 89.8901 142.965 89.978C142.872 90.061 142.765 90.1343 142.643 90.1978C142.521 90.2661 142.389 90.3198 142.247 90.3589C142.105 90.3979 141.964 90.4175 141.822 90.4175C141.544 90.4175 141.305 90.3857 141.104 90.3223C140.909 90.2588 140.743 90.1709 140.606 90.0586C140.47 89.9512 140.36 89.8267 140.277 89.6851C140.199 89.5435 140.138 89.397 140.094 89.2456C140.05 89.0942 140.021 88.9404 140.006 88.7842C139.996 88.6279 139.991 88.4839 139.991 88.3521V85.0049C139.991 84.8633 139.979 84.7607 139.955 84.6973C139.935 84.6338 139.925 84.5752 139.925 84.5215C139.925 84.4482 139.964 84.3896 140.042 84.3457C140.121 84.2969 140.213 84.2725 140.321 84.2725C140.57 84.2725 140.765 84.3384 140.907 84.4702C141.053 84.5972 141.126 84.751 141.126 84.9316V88.3667C141.126 88.4985 141.134 88.6304 141.148 88.7622C141.168 88.8892 141.202 89.0015 141.251 89.0991C141.305 89.1968 141.38 89.2773 141.478 89.3408C141.576 89.3994 141.705 89.4287 141.866 89.4287C142.008 89.4287 142.125 89.4019 142.218 89.3481C142.315 89.2896 142.394 89.2114 142.452 89.1138C142.511 89.0161 142.552 88.9038 142.577 88.7769C142.601 88.645 142.613 88.5083 142.613 88.3667V85.0049ZM146.107 82.9468C146.219 82.9565 146.344 82.9639 146.48 82.9688C146.598 82.9785 146.739 82.9858 146.905 82.9907C147.071 82.9907 147.257 82.9932 147.462 82.998V80.4565C147.462 80.3491 147.452 80.2637 147.433 80.2002C147.418 80.1367 147.401 80.0879 147.381 80.0537C147.367 80.0146 147.35 79.9854 147.33 79.9658C147.315 79.9414 147.308 79.917 147.308 79.8926C147.308 79.8633 147.323 79.8389 147.352 79.8193C147.381 79.7998 147.42 79.7827 147.469 79.7681C147.518 79.7534 147.569 79.7437 147.623 79.7388C147.682 79.729 147.738 79.7241 147.792 79.7241C148.041 79.7241 148.236 79.79 148.377 79.9219C148.524 80.0488 148.597 80.2026 148.597 80.3833V83.0127C149.056 83.0127 149.54 83.0078 150.047 82.998C150.56 82.9883 151.073 82.9712 151.585 82.9468C151.654 82.8735 151.708 82.8467 151.747 82.8662C151.791 82.8857 151.817 82.9321 151.827 83.0054C151.842 83.0786 151.844 83.1689 151.834 83.2764C151.825 83.3838 151.805 83.4888 151.776 83.5913C151.747 83.689 151.705 83.7744 151.651 83.8477C151.603 83.9209 151.546 83.9575 151.483 83.9575C150.882 83.9722 150.35 83.9819 149.886 83.9868C149.427 83.9868 148.998 83.9868 148.597 83.9868V88.7402C148.597 88.9844 148.644 89.1602 148.736 89.2676C148.829 89.375 148.954 89.4287 149.11 89.4287C149.261 89.4287 149.391 89.375 149.498 89.2676C149.61 89.1602 149.706 89.0259 149.784 88.8647C149.867 88.7036 149.933 88.5303 149.981 88.3447C150.035 88.1543 150.079 87.9761 150.113 87.8101C150.143 87.6538 150.191 87.5415 150.26 87.4731C150.328 87.3999 150.399 87.3633 150.472 87.3633C150.531 87.3633 150.592 87.3828 150.655 87.4219C150.719 87.4561 150.775 87.5024 150.824 87.561C150.877 87.6196 150.919 87.6855 150.948 87.7588C150.982 87.832 151 87.9053 151 87.9785C151 87.9883 151 88.0005 151 88.0151C151 88.0298 150.995 88.0518 150.985 88.0811C150.921 88.3301 150.833 88.5913 150.721 88.8647C150.614 89.1382 150.472 89.3896 150.296 89.6191C150.125 89.8486 149.92 90.0391 149.681 90.1904C149.442 90.3418 149.161 90.4175 148.839 90.4175C148.639 90.4175 148.453 90.3857 148.282 90.3223C148.116 90.2637 147.972 90.166 147.85 90.0293C147.728 89.8975 147.633 89.7266 147.564 89.5166C147.496 89.3066 147.462 89.0527 147.462 88.7549V83.9868C147.296 83.9868 147.147 83.9868 147.015 83.9868C146.888 83.9819 146.781 83.9771 146.693 83.9722C146.59 83.9673 146.5 83.9624 146.422 83.9575C146.305 83.9575 146.202 83.9062 146.114 83.8037C146.021 83.6963 145.958 83.5791 145.924 83.4521C145.885 83.3252 145.88 83.2104 145.909 83.1079C145.934 83.0005 146 82.9468 146.107 82.9468ZM154.427 89.4287C154.579 89.4287 154.708 89.375 154.815 89.2676C154.928 89.1602 155.023 89.0259 155.101 88.8647C155.184 88.7036 155.25 88.5303 155.299 88.3447C155.353 88.1543 155.396 87.9761 155.431 87.8101C155.465 87.6538 155.514 87.5415 155.577 87.4731C155.646 87.3999 155.719 87.3633 155.797 87.3633C155.855 87.3633 155.914 87.3828 155.973 87.4219C156.036 87.4561 156.092 87.5024 156.141 87.561C156.195 87.6196 156.236 87.6855 156.266 87.7588C156.3 87.832 156.317 87.9053 156.317 87.9785C156.317 87.9883 156.317 88.0005 156.317 88.0151C156.317 88.0298 156.312 88.0518 156.302 88.0811C156.239 88.3301 156.151 88.5913 156.039 88.8647C155.931 89.1382 155.792 89.3896 155.621 89.6191C155.45 89.8486 155.243 90.0391 154.999 90.1904C154.759 90.3418 154.479 90.4175 154.156 90.4175C153.893 90.4175 153.663 90.3613 153.468 90.249C153.272 90.1367 153.119 89.9878 153.006 89.8022C152.855 89.9731 152.672 90.1172 152.457 90.2344C152.247 90.3564 152 90.4175 151.717 90.4175C151.424 90.4175 151.166 90.3589 150.941 90.2417C150.721 90.1245 150.536 89.9658 150.384 89.7656C150.233 89.5605 150.118 89.3213 150.04 89.0479C149.967 88.7695 149.93 88.4717 149.93 88.1543C149.93 87.5293 150.03 86.9678 150.23 86.4697C150.431 85.9717 150.697 85.5493 151.029 85.2026C151.361 84.8511 151.739 84.5825 152.164 84.397C152.594 84.2114 153.038 84.1187 153.497 84.1187C153.702 84.1187 153.868 84.1748 153.995 84.2871C154.122 84.3994 154.186 84.5532 154.186 84.7485C154.186 84.8755 154.171 84.9658 154.142 85.0195C154.117 85.0684 154.068 85.0928 153.995 85.0928C153.927 85.0928 153.856 85.0879 153.783 85.0781C153.709 85.0684 153.634 85.0635 153.556 85.0635C153.272 85.0635 152.984 85.127 152.691 85.2539C152.398 85.376 152.132 85.5664 151.893 85.8252C151.659 86.0791 151.466 86.4038 151.314 86.7993C151.163 87.1899 151.087 87.6562 151.087 88.1982C151.087 88.5938 151.163 88.8989 151.314 89.1138C151.466 89.3237 151.673 89.4287 151.937 89.4287C152.142 89.4287 152.313 89.353 152.45 89.2017C152.586 89.0454 152.696 88.8623 152.779 88.6523V86.3379C152.779 86.2646 152.774 86.2036 152.765 86.1548C152.76 86.106 152.752 86.0645 152.743 86.0303C152.738 85.9961 152.733 85.9668 152.728 85.9424C152.723 85.9131 152.721 85.8862 152.721 85.8618C152.721 85.7837 152.757 85.7227 152.831 85.6787C152.909 85.6299 153.001 85.6055 153.109 85.6055C153.358 85.6055 153.556 85.6714 153.702 85.8032C153.849 85.9302 153.922 86.084 153.922 86.2646V88.7402C153.922 88.8232 153.932 88.9062 153.951 88.9893C153.971 89.0674 154 89.1406 154.039 89.209C154.078 89.2725 154.129 89.3262 154.193 89.3701C154.261 89.4092 154.339 89.4287 154.427 89.4287ZM157.137 86.1768C157.137 85.874 157.169 85.6128 157.232 85.3931C157.301 85.1685 157.394 84.9854 157.511 84.8438C157.628 84.6973 157.762 84.5898 157.914 84.5215C158.07 84.4531 158.236 84.4189 158.412 84.4189C158.612 84.4189 158.807 84.4678 158.998 84.5654C159.188 84.6631 159.356 84.812 159.503 85.0122C159.654 85.2124 159.774 85.4663 159.862 85.7739C159.955 86.0815 160.001 86.4453 160.001 86.8652C160.001 87.1582 159.981 87.4512 159.942 87.7441C159.908 88.0322 159.852 88.3081 159.774 88.5718C159.828 88.5913 159.879 88.6035 159.928 88.6084C159.981 88.6084 160.035 88.6084 160.089 88.6084C160.25 88.6084 160.392 88.5791 160.514 88.5205C160.641 88.4619 160.748 88.3838 160.836 88.2861C160.929 88.1885 161.002 88.0737 161.056 87.9419C161.109 87.8101 161.148 87.6709 161.173 87.5244C161.183 87.4658 161.214 87.417 161.268 87.3779C161.327 87.3389 161.393 87.312 161.466 87.2974C161.539 87.2827 161.615 87.2827 161.693 87.2974C161.776 87.312 161.847 87.3462 161.905 87.3999C161.964 87.4487 162.005 87.5195 162.03 87.6123C162.059 87.7002 162.059 87.8149 162.03 87.9565C161.986 88.1616 161.913 88.3545 161.81 88.5352C161.712 88.7109 161.588 88.8672 161.437 89.0039C161.285 89.1406 161.107 89.248 160.902 89.3262C160.697 89.4043 160.467 89.4434 160.213 89.4434C160.077 89.4434 159.945 89.436 159.818 89.4214C159.691 89.4067 159.566 89.3799 159.444 89.3408C159.259 89.6631 159.017 89.9219 158.719 90.1172C158.421 90.3174 158.053 90.4175 157.613 90.4175C157.267 90.4175 156.961 90.3564 156.698 90.2344C156.439 90.1123 156.219 89.9414 156.039 89.7217C155.863 89.4971 155.729 89.231 155.636 88.9233C155.548 88.6157 155.504 88.2788 155.504 87.9126V80.7568C155.504 80.6494 155.494 80.564 155.475 80.5005C155.46 80.437 155.443 80.3882 155.423 80.354C155.409 80.3149 155.392 80.2856 155.372 80.2661C155.357 80.2417 155.35 80.2173 155.35 80.1929C155.35 80.1636 155.365 80.1392 155.394 80.1196C155.423 80.1001 155.462 80.083 155.511 80.0684C155.56 80.0537 155.611 80.0439 155.665 80.0391C155.724 80.0293 155.78 80.0244 155.833 80.0244C156.083 80.0244 156.278 80.0903 156.419 80.2222C156.566 80.3491 156.639 80.5029 156.639 80.6836V87.7075C156.639 87.9565 156.661 88.186 156.705 88.396C156.749 88.606 156.815 88.7891 156.903 88.9453C156.991 89.0967 157.101 89.2163 157.232 89.3042C157.369 89.3872 157.528 89.4287 157.708 89.4287C157.894 89.4287 158.053 89.3823 158.185 89.2896C158.316 89.1919 158.426 89.0625 158.514 88.9014C158.299 88.75 158.106 88.5742 157.936 88.374C157.77 88.1689 157.625 87.9492 157.503 87.7148C157.386 87.4756 157.296 87.2266 157.232 86.9678C157.169 86.7041 157.137 86.4404 157.137 86.1768ZM158.067 86.1182C158.067 86.4795 158.131 86.8213 158.258 87.1436C158.39 87.4658 158.565 87.7441 158.785 87.9785C158.814 87.8027 158.834 87.6294 158.844 87.4585C158.854 87.2827 158.858 87.124 158.858 86.9824C158.858 86.4795 158.805 86.0913 158.697 85.8179C158.595 85.5444 158.475 85.4077 158.338 85.4077C158.241 85.4077 158.17 85.4736 158.126 85.6055C158.087 85.7324 158.067 85.9033 158.067 86.1182ZM162.308 85.5615C162.362 85.459 162.413 85.3223 162.462 85.1514C162.516 84.9756 162.564 84.7827 162.608 84.5728C162.657 84.3628 162.701 84.1431 162.74 83.9136C162.779 83.6841 162.813 83.4595 162.843 83.2397C162.872 83.02 162.894 82.8149 162.909 82.6245C162.928 82.4292 162.938 82.2632 162.938 82.1265C162.938 81.6284 162.901 81.2646 162.828 81.0352C162.755 80.8008 162.657 80.6836 162.535 80.6836C162.496 80.6836 162.462 80.7031 162.433 80.7422C162.403 80.7812 162.379 80.8325 162.359 80.896C162.34 80.9546 162.325 81.0205 162.315 81.0938C162.311 81.1621 162.308 81.2256 162.308 81.2842V85.5615ZM164.439 87.8247C164.469 87.6782 164.513 87.5732 164.571 87.5098C164.635 87.4414 164.701 87.4048 164.769 87.3999C164.842 87.3901 164.916 87.4072 164.989 87.4512C165.062 87.4902 165.125 87.5439 165.179 87.6123C165.233 87.6807 165.272 87.7588 165.296 87.8467C165.326 87.9297 165.331 88.0127 165.311 88.0957C165.243 88.2959 165.145 88.5303 165.018 88.7988C164.891 89.0674 164.73 89.3213 164.535 89.5605C164.339 89.7998 164.11 90.0024 163.846 90.1685C163.583 90.3345 163.28 90.4175 162.938 90.4175C162.65 90.4175 162.396 90.3687 162.176 90.271C161.957 90.1782 161.771 90.0464 161.62 89.8755C161.473 89.6997 161.361 89.4922 161.283 89.2529C161.209 89.0088 161.173 88.7378 161.173 88.4399V81.6138C161.173 81.3354 161.207 81.0791 161.275 80.8447C161.349 80.6055 161.446 80.4028 161.568 80.2368C161.695 80.0659 161.842 79.9341 162.008 79.8413C162.174 79.7437 162.35 79.6948 162.535 79.6948C162.755 79.6948 162.94 79.7363 163.092 79.8193C163.243 79.8975 163.368 80.0024 163.465 80.1343C163.563 80.2661 163.639 80.4175 163.692 80.5884C163.751 80.7593 163.792 80.9351 163.817 81.1157C163.841 81.2915 163.856 81.4673 163.861 81.6431C163.866 81.814 163.868 81.9702 163.868 82.1118C163.868 82.478 163.834 82.8638 163.766 83.269C163.697 83.6694 163.609 84.0649 163.502 84.4556C163.399 84.8462 163.285 85.2222 163.158 85.5835C163.036 85.9399 162.916 86.2573 162.799 86.5356C162.687 86.814 162.584 87.041 162.491 87.2168C162.403 87.3926 162.342 87.4951 162.308 87.5244V88.396C162.308 88.6987 162.372 88.9478 162.499 89.1431C162.625 89.3335 162.828 89.4287 163.106 89.4287C163.277 89.4287 163.436 89.3774 163.583 89.2749C163.734 89.1675 163.866 89.0356 163.978 88.8794C164.095 88.7183 164.193 88.5449 164.271 88.3594C164.349 88.1689 164.405 87.9907 164.439 87.8247ZM167.933 85.6348C167.933 85.9131 167.884 86.1987 167.787 86.4917C167.694 86.7847 167.552 87.063 167.362 87.3267C167.176 87.5854 166.944 87.8198 166.666 88.0298C166.393 88.2349 166.075 88.3911 165.714 88.4985C165.763 88.6255 165.826 88.7476 165.904 88.8647C165.987 88.9771 166.085 89.0747 166.197 89.1577C166.31 89.2407 166.439 89.3066 166.585 89.3555C166.737 89.4043 166.91 89.4287 167.105 89.4287C167.398 89.4287 167.65 89.375 167.86 89.2676C168.07 89.1553 168.246 89.0088 168.387 88.8281C168.534 88.6475 168.651 88.4448 168.739 88.2202C168.827 87.9956 168.893 87.7686 168.937 87.5391C168.971 87.373 169.039 87.2632 169.142 87.2095C169.249 87.1509 169.356 87.1362 169.464 87.1655C169.576 87.1948 169.671 87.2583 169.75 87.356C169.833 87.4487 169.867 87.561 169.852 87.6929C169.833 87.8442 169.798 88.0176 169.75 88.2129C169.706 88.4082 169.637 88.606 169.544 88.8062C169.452 89.0063 169.332 89.2041 169.186 89.3994C169.044 89.5898 168.868 89.7607 168.658 89.9121C168.448 90.0635 168.202 90.1855 167.918 90.2783C167.635 90.3711 167.311 90.4175 166.944 90.4175C166.603 90.4175 166.271 90.3491 165.948 90.2124C165.631 90.0806 165.348 89.8901 165.099 89.6411C164.854 89.3872 164.657 89.0771 164.505 88.7109C164.359 88.3398 164.286 87.9199 164.286 87.4512C164.286 86.9775 164.352 86.5381 164.483 86.1328C164.615 85.7227 164.789 85.3687 165.003 85.0708C165.218 84.7729 165.462 84.541 165.736 84.375C166.009 84.2041 166.29 84.1187 166.578 84.1187C166.788 84.1187 166.976 84.1553 167.142 84.2285C167.313 84.3018 167.457 84.4067 167.574 84.5435C167.691 84.6753 167.779 84.834 167.838 85.0195C167.901 85.2051 167.933 85.4102 167.933 85.6348ZM165.516 87.4072C165.516 87.4512 165.519 87.4951 165.523 87.5391C165.528 87.583 165.531 87.6294 165.531 87.6782C165.716 87.5903 165.885 87.478 166.036 87.3413C166.188 87.2046 166.317 87.0483 166.424 86.8726C166.532 86.6968 166.615 86.5063 166.673 86.3013C166.732 86.0913 166.761 85.874 166.761 85.6494C166.761 85.4834 166.732 85.354 166.673 85.2612C166.62 85.1685 166.544 85.1221 166.446 85.1221C166.324 85.1221 166.214 85.1636 166.117 85.2466C166.024 85.3296 165.941 85.4395 165.868 85.5762C165.799 85.708 165.741 85.8594 165.692 86.0303C165.648 86.1963 165.611 86.3647 165.582 86.5356C165.553 86.7065 165.533 86.8701 165.523 87.0264C165.514 87.1777 165.511 87.3047 165.516 87.4072Z" fill="black"/>
    <path d="M114.082 115.53H110.962C110.842 115.53 110.782 115.475 110.782 115.365V115.035C110.782 114.925 110.842 114.87 110.962 114.87H114.082C114.202 114.87 114.262 114.925 114.262 115.035V115.365C114.262 115.475 114.202 115.53 114.082 115.53ZM116.714 120H116.279C116.179 120 116.129 119.94 116.129 119.82V110.535C116.129 110.415 116.179 110.355 116.279 110.355H116.684C116.774 110.355 116.834 110.385 116.864 110.445L121.469 118.365H121.529V110.535C121.529 110.415 121.584 110.355 121.694 110.355H122.114C122.224 110.355 122.279 110.415 122.279 110.535V119.82C122.279 119.94 122.224 120 122.114 120H121.769C121.679 120 121.599 119.945 121.529 119.835L116.939 111.975H116.879V119.82C116.879 119.94 116.824 120 116.714 120ZM129.601 120H124.966C124.866 120 124.816 119.94 124.816 119.82V110.535C124.816 110.415 124.866 110.355 124.966 110.355H129.601C129.721 110.355 129.781 110.41 129.781 110.52V110.865C129.781 110.975 129.721 111.03 129.601 111.03H125.716C125.616 111.03 125.566 111.075 125.566 111.165V114.615C125.566 114.705 125.616 114.75 125.716 114.75H129.181C129.291 114.75 129.346 114.805 129.346 114.915V115.26C129.346 115.37 129.291 115.425 129.181 115.425H125.716C125.616 115.425 125.566 115.47 125.566 115.56V119.19C125.566 119.28 125.616 119.325 125.716 119.325H129.601C129.721 119.325 129.781 119.38 129.781 119.49V119.835C129.781 119.945 129.721 120 129.601 120ZM134.258 120H133.508C133.398 120 133.328 119.94 133.298 119.82L131.243 110.535C131.213 110.415 131.263 110.355 131.393 110.355H131.888C131.998 110.355 132.063 110.415 132.083 110.535L133.868 119.145H133.943L136.223 110.52C136.243 110.41 136.308 110.355 136.418 110.355H136.988C137.108 110.355 137.178 110.41 137.198 110.52L139.493 119.145H139.568L141.338 110.535C141.358 110.415 141.428 110.355 141.548 110.355H142.058C142.178 110.355 142.223 110.415 142.193 110.535L140.138 119.82C140.118 119.94 140.053 120 139.943 120H139.178C139.068 120 138.998 119.94 138.968 119.82L136.748 111.36H136.688L134.453 119.82C134.423 119.94 134.358 120 134.258 120ZM150.046 120H149.611C149.501 120 149.446 119.94 149.446 119.82V111.165C149.446 111.075 149.396 111.03 149.296 111.03H147.121C147.001 111.03 146.941 110.975 146.941 110.865V110.52C146.941 110.41 147.001 110.355 147.121 110.355H152.521C152.641 110.355 152.701 110.41 152.701 110.52V110.865C152.701 110.975 152.641 111.03 152.521 111.03H150.346C150.246 111.03 150.196 111.075 150.196 111.165V119.82C150.196 119.94 150.146 120 150.046 120ZM153.99 120H153.525C153.415 120 153.38 119.94 153.42 119.82L156.405 110.535C156.435 110.415 156.505 110.355 156.615 110.355H157.32C157.42 110.355 157.49 110.415 157.53 110.535L160.515 119.82C160.545 119.94 160.51 120 160.41 120H159.93C159.83 120 159.765 119.94 159.735 119.82L158.925 117.42H154.995L154.185 119.82C154.145 119.94 154.08 120 153.99 120ZM156.93 111.18L155.205 116.745H158.73L156.99 111.18H156.93ZM163.143 119.34H165.933C166.883 119.34 167.358 118.86 167.358 117.9V116.865C167.358 115.915 166.838 115.44 165.798 115.44H163.143C163.043 115.44 162.993 115.48 162.993 115.56V119.205C162.993 119.295 163.043 119.34 163.143 119.34ZM163.143 114.78H165.783C166.253 114.78 166.613 114.655 166.863 114.405C167.123 114.155 167.253 113.8 167.253 113.34V112.455C167.253 111.495 166.778 111.015 165.828 111.015H163.143C163.043 111.015 162.993 111.06 162.993 111.15V114.645C162.993 114.735 163.043 114.78 163.143 114.78ZM162.243 119.82V110.535C162.243 110.415 162.293 110.355 162.393 110.355H165.888C166.538 110.355 167.053 110.54 167.433 110.91C167.813 111.28 168.003 111.79 168.003 112.44V113.355C168.003 114.265 167.573 114.85 166.713 115.11C167.083 115.13 167.408 115.3 167.688 115.62C167.968 115.94 168.108 116.355 168.108 116.865V117.915C168.108 118.565 167.918 119.075 167.538 119.445C167.158 119.815 166.643 120 165.993 120H162.393C162.293 120 162.243 119.94 162.243 119.82ZM175.351 120H170.581C170.481 120 170.431 119.94 170.431 119.82V110.535C170.431 110.415 170.481 110.355 170.581 110.355H171.016C171.126 110.355 171.181 110.415 171.181 110.535V119.16C171.181 119.25 171.231 119.295 171.331 119.295H175.351C175.471 119.295 175.531 119.35 175.531 119.46V119.835C175.531 119.945 175.471 120 175.351 120ZM181.984 120H177.349C177.249 120 177.199 119.94 177.199 119.82V110.535C177.199 110.415 177.249 110.355 177.349 110.355H181.984C182.104 110.355 182.164 110.41 182.164 110.52V110.865C182.164 110.975 182.104 111.03 181.984 111.03H178.099C177.999 111.03 177.949 111.075 177.949 111.165V114.615C177.949 114.705 177.999 114.75 178.099 114.75H181.564C181.674 114.75 181.729 114.805 181.729 114.915V115.26C181.729 115.37 181.674 115.425 181.564 115.425H178.099C177.999 115.425 177.949 115.47 177.949 115.56V119.19C177.949 119.28 177.999 119.325 178.099 119.325H181.984C182.104 119.325 182.164 119.38 182.164 119.49V119.835C182.164 119.945 182.104 120 181.984 120ZM187.046 115.53H183.926C183.806 115.53 183.746 115.475 183.746 115.365V115.035C183.746 114.925 183.806 114.87 183.926 114.87H187.046C187.166 114.87 187.226 114.925 187.226 115.035V115.365C187.226 115.475 187.166 115.53 187.046 115.53Z" fill="#4E4444"/>
</svg>