<svg width="300" height="131" viewBox="0 0 300 131" fill="none" xmlns="http://www.w3.org/2000/svg">
    <path d="M19.0246 13.73V12.875C19.0246 12.615 19.0996 12.285 19.2496 11.885L19.7446 10.475C19.7746 10.395 19.8296 10.355 19.9096 10.355C20.0196 10.355 20.0746 10.415 20.0746 10.535V13.73C20.0746 13.86 20.0096 13.925 19.8796 13.925H19.2196C19.0896 13.925 19.0246 13.86 19.0246 13.73ZM16.7146 13.73V12.875C16.7146 12.665 16.7896 12.335 16.9396 11.885L17.4346 10.475C17.4846 10.395 17.5446 10.355 17.6146 10.355C17.7146 10.355 17.7646 10.415 17.7646 10.535V13.73C17.7646 13.86 17.6996 13.925 17.5696 13.925H16.9246C16.7846 13.925 16.7146 13.86 16.7146 13.73ZM27.2144 10.355H27.8894C28.0294 10.355 28.0994 10.42 28.0994 10.55V17.78C28.0994 18.48 27.9044 19.025 27.5144 19.415C27.1244 19.805 26.5844 20 25.8944 20H24.2294C23.5394 20 22.9944 19.805 22.5944 19.415C22.2044 19.025 22.0094 18.48 22.0094 17.78V10.565C22.0094 10.425 22.0794 10.355 22.2194 10.355H22.8944C23.0344 10.355 23.1044 10.425 23.1044 10.565V17.735C23.1044 18.605 23.5194 19.04 24.3494 19.04H25.7594C26.5994 19.04 27.0194 18.605 27.0194 17.735V10.565C27.0194 10.425 27.0844 10.355 27.2144 10.355ZM31.2601 20H30.6001C30.4601 20 30.3901 19.93 30.3901 19.79V10.565C30.3901 10.425 30.4601 10.355 30.6001 10.355H31.2151C31.3351 10.355 31.4151 10.395 31.4551 10.475L35.5951 17.75H35.6551V10.565C35.6551 10.425 35.7251 10.355 35.8651 10.355H36.5251C36.6651 10.355 36.7351 10.425 36.7351 10.565V19.79C36.7351 19.93 36.6651 20 36.5251 20H35.9701C35.8601 20 35.7551 19.935 35.6551 19.805L31.5301 12.605H31.4701V19.79C31.4701 19.93 31.4001 20 31.2601 20ZM46.0645 20H44.9995C44.8695 20 44.7845 19.93 44.7445 19.79L42.0895 10.58C42.0595 10.43 42.1245 10.355 42.2845 10.355H43.0195C43.1495 10.355 43.2295 10.425 43.2595 10.565L45.4945 18.77H45.5545L47.7895 10.565C47.8195 10.425 47.8995 10.355 48.0295 10.355H48.7795C48.9295 10.355 48.9895 10.43 48.9595 10.58L46.3045 19.79C46.2645 19.93 46.1845 20 46.0645 20ZM52.6924 19.04H54.2224C55.0624 19.04 55.4824 18.605 55.4824 17.735V12.62C55.4824 11.75 55.0624 11.315 54.2224 11.315H52.6924C51.8624 11.315 51.4474 11.75 51.4474 12.62V17.735C51.4474 18.605 51.8624 19.04 52.6924 19.04ZM54.3574 20H52.5724C51.8824 20 51.3374 19.805 50.9374 19.415C50.5474 19.025 50.3524 18.48 50.3524 17.78V12.575C50.3524 11.875 50.5474 11.33 50.9374 10.94C51.3374 10.55 51.8824 10.355 52.5724 10.355H54.3574C55.0474 10.355 55.5874 10.555 55.9774 10.955C56.3774 11.345 56.5774 11.885 56.5774 12.575V17.78C56.5774 18.47 56.3774 19.015 55.9774 19.415C55.5874 19.805 55.0474 20 54.3574 20ZM61.6884 20H61.0134C60.8734 20 60.8034 19.93 60.8034 19.79V16.385L57.9534 10.58C57.9234 10.51 57.9234 10.455 57.9534 10.415C57.9834 10.375 58.0284 10.355 58.0884 10.355H58.9284C59.0384 10.355 59.1234 10.425 59.1834 10.565L61.3284 15.11H61.4034L63.5334 10.565C63.5734 10.425 63.6534 10.355 63.7734 10.355H64.6284C64.7984 10.355 64.8434 10.43 64.7634 10.58L61.8984 16.385V19.79C61.8984 19.93 61.8284 20 61.6884 20ZM66.4134 20H65.6634C65.5334 20 65.4884 19.93 65.5284 19.79L68.3334 10.565C68.3734 10.425 68.4684 10.355 68.6184 10.355H69.6984C69.8484 10.355 69.9434 10.425 69.9834 10.565L72.7884 19.79C72.8284 19.93 72.7834 20 72.6534 20H71.8884C71.7784 20 71.7084 19.93 71.6784 19.79L70.9734 17.6H67.3434L66.6384 19.79C66.5984 19.93 66.5234 20 66.4134 20ZM69.1284 11.48L67.5834 16.67H70.7334L69.1884 11.48H69.1284ZM78.084 20H76.464C75.774 20 75.229 19.805 74.829 19.415C74.439 19.025 74.244 18.48 74.244 17.78V12.575C74.244 11.875 74.439 11.33 74.829 10.94C75.229 10.55 75.774 10.355 76.464 10.355H78.084C78.774 10.355 79.314 10.555 79.704 10.955C80.094 11.345 80.289 11.885 80.289 12.575V13.19C80.289 13.34 80.219 13.415 80.079 13.415H79.404C79.264 13.415 79.194 13.34 79.194 13.19V12.62C79.194 11.75 78.779 11.315 77.949 11.315H76.584C75.754 11.315 75.339 11.75 75.339 12.62V17.735C75.339 18.605 75.754 19.04 76.584 19.04H77.949C78.779 19.04 79.194 18.605 79.194 17.735V16.055C79.194 15.955 79.149 15.905 79.059 15.905H77.574C77.434 15.905 77.364 15.84 77.364 15.71V15.155C77.364 15.015 77.434 14.945 77.574 14.945H79.989C80.189 14.945 80.289 15.05 80.289 15.26V17.78C80.289 18.48 80.094 19.025 79.704 19.415C79.314 19.805 78.774 20 78.084 20ZM87.4292 20H82.7192C82.5792 20 82.5092 19.93 82.5092 19.79V10.565C82.5092 10.425 82.5792 10.355 82.7192 10.355H87.4292C87.5692 10.355 87.6392 10.425 87.6392 10.565V11.105C87.6392 11.245 87.5692 11.315 87.4292 11.315H83.7542C83.6542 11.315 83.6042 11.36 83.6042 11.45V14.48C83.6042 14.57 83.6542 14.615 83.7542 14.615H86.9642C87.1042 14.615 87.1742 14.685 87.1742 14.825V15.365C87.1742 15.505 87.1042 15.575 86.9642 15.575H83.7542C83.6542 15.575 83.6042 15.62 83.6042 15.71V18.905C83.6042 18.995 83.6542 19.04 83.7542 19.04H87.4292C87.5692 19.04 87.6392 19.11 87.6392 19.25V19.79C87.6392 19.93 87.5692 20 87.4292 20ZM98.4448 20H93.7348C93.5948 20 93.5248 19.93 93.5248 19.79V10.565C93.5248 10.425 93.5948 10.355 93.7348 10.355H98.4448C98.5848 10.355 98.6548 10.425 98.6548 10.565V11.105C98.6548 11.245 98.5848 11.315 98.4448 11.315H94.7698C94.6698 11.315 94.6198 11.36 94.6198 11.45V14.48C94.6198 14.57 94.6698 14.615 94.7698 14.615H97.9798C98.1198 14.615 98.1898 14.685 98.1898 14.825V15.365C98.1898 15.505 98.1198 15.575 97.9798 15.575H94.7698C94.6698 15.575 94.6198 15.62 94.6198 15.71V18.905C94.6198 18.995 94.6698 19.04 94.7698 19.04H98.4448C98.5848 19.04 98.6548 19.11 98.6548 19.25V19.79C98.6548 19.93 98.5848 20 98.4448 20ZM101.602 20H100.942C100.802 20 100.732 19.93 100.732 19.79V10.565C100.732 10.425 100.802 10.355 100.942 10.355H101.557C101.677 10.355 101.757 10.395 101.797 10.475L105.937 17.75H105.997V10.565C105.997 10.425 106.067 10.355 106.207 10.355H106.867C107.007 10.355 107.077 10.425 107.077 10.565V19.79C107.077 19.93 107.007 20 106.867 20H106.312C106.202 20 106.097 19.935 105.997 19.805L101.872 12.605H101.812V19.79C101.812 19.93 101.742 20 101.602 20ZM110.618 10.565V19.79C110.618 19.93 110.548 20 110.408 20H109.733C109.593 20 109.523 19.93 109.523 19.79V10.565C109.523 10.425 109.593 10.355 109.733 10.355H110.408C110.548 10.355 110.618 10.425 110.618 10.565ZM116.216 20H115.151C115.021 20 114.936 19.93 114.896 19.79L112.241 10.58C112.211 10.43 112.276 10.355 112.436 10.355H113.171C113.301 10.355 113.381 10.425 113.411 10.565L115.646 18.77H115.706L117.941 10.565C117.971 10.425 118.051 10.355 118.181 10.355H118.931C119.081 10.355 119.141 10.43 119.111 10.58L116.456 19.79C116.416 19.93 116.336 20 116.216 20ZM121.539 20H120.864C120.724 20 120.654 19.93 120.654 19.79V10.565C120.654 10.425 120.724 10.355 120.864 10.355H124.314C125.004 10.355 125.549 10.555 125.949 10.955C126.349 11.345 126.549 11.885 126.549 12.575V13.94C126.549 14.5 126.414 14.965 126.144 15.335C125.874 15.695 125.499 15.935 125.019 16.055V16.115L126.759 19.76C126.849 19.92 126.799 20 126.609 20H125.934C125.764 20 125.639 19.93 125.559 19.79L123.879 16.16H121.899C121.799 16.16 121.749 16.205 121.749 16.295V19.79C121.749 19.93 121.679 20 121.539 20ZM121.899 15.245H124.164C125.024 15.245 125.454 14.815 125.454 13.955V12.62C125.454 11.75 125.024 11.315 124.164 11.315H121.899C121.799 11.315 121.749 11.36 121.749 11.45V15.11C121.749 15.2 121.799 15.245 121.899 15.245ZM128.83 20H128.08C127.95 20 127.905 19.93 127.945 19.79L130.75 10.565C130.79 10.425 130.885 10.355 131.035 10.355H132.115C132.265 10.355 132.36 10.425 132.4 10.565L135.205 19.79C135.245 19.93 135.2 20 135.07 20H134.305C134.195 20 134.125 19.93 134.095 19.79L133.39 17.6H129.76L129.055 19.79C129.015 19.93 128.94 20 128.83 20ZM131.545 11.48L130 16.67H133.15L131.605 11.48H131.545ZM137.681 20H137.021C136.881 20 136.811 19.93 136.811 19.79V10.565C136.811 10.425 136.881 10.355 137.021 10.355H137.636C137.756 10.355 137.836 10.395 137.876 10.475L142.016 17.75H142.076V10.565C142.076 10.425 142.146 10.355 142.286 10.355H142.946C143.086 10.355 143.156 10.425 143.156 10.565V19.79C143.156 19.93 143.086 20 142.946 20H142.391C142.281 20 142.176 19.935 142.076 19.805L137.951 12.605H137.891V19.79C137.891 19.93 137.821 20 137.681 20ZM147.882 20H147.207C147.067 20 146.997 19.93 146.997 19.79V11.45C146.997 11.36 146.947 11.315 146.847 11.315H144.807C144.657 11.315 144.582 11.245 144.582 11.105V10.565C144.582 10.425 144.657 10.355 144.807 10.355H150.282C150.432 10.355 150.507 10.425 150.507 10.565V11.105C150.507 11.245 150.432 11.315 150.282 11.315H148.242C148.142 11.315 148.092 11.36 148.092 11.45V19.79C148.092 19.93 148.022 20 147.882 20ZM158.887 20H157.822C157.692 20 157.607 19.93 157.567 19.79L154.912 10.58C154.882 10.43 154.947 10.355 155.107 10.355H155.842C155.972 10.355 156.052 10.425 156.082 10.565L158.317 18.77H158.377L160.612 10.565C160.642 10.425 160.722 10.355 160.852 10.355H161.602C161.752 10.355 161.812 10.43 161.782 10.58L159.127 19.79C159.087 19.93 159.007 20 158.887 20ZM168.245 20H163.535C163.395 20 163.325 19.93 163.325 19.79V10.565C163.325 10.425 163.395 10.355 163.535 10.355H168.245C168.385 10.355 168.455 10.425 168.455 10.565V11.105C168.455 11.245 168.385 11.315 168.245 11.315H164.57C164.47 11.315 164.42 11.36 164.42 11.45V14.48C164.42 14.57 164.47 14.615 164.57 14.615H167.78C167.92 14.615 167.99 14.685 167.99 14.825V15.365C167.99 15.505 167.92 15.575 167.78 15.575H164.57C164.47 15.575 164.42 15.62 164.42 15.71V18.905C164.42 18.995 164.47 19.04 164.57 19.04H168.245C168.385 19.04 168.455 19.11 168.455 19.25V19.79C168.455 19.93 168.385 20 168.245 20ZM171.417 20H170.742C170.602 20 170.532 19.93 170.532 19.79V10.565C170.532 10.425 170.602 10.355 170.742 10.355H174.192C174.882 10.355 175.427 10.555 175.827 10.955C176.227 11.345 176.427 11.885 176.427 12.575V13.94C176.427 14.5 176.292 14.965 176.022 15.335C175.752 15.695 175.377 15.935 174.897 16.055V16.115L176.637 19.76C176.727 19.92 176.677 20 176.487 20H175.812C175.642 20 175.517 19.93 175.437 19.79L173.757 16.16H171.777C171.677 16.16 171.627 16.205 171.627 16.295V19.79C171.627 19.93 171.557 20 171.417 20ZM171.777 15.245H174.042C174.902 15.245 175.332 14.815 175.332 13.955V12.62C175.332 11.75 174.902 11.315 174.042 11.315H171.777C171.677 11.315 171.627 11.36 171.627 11.45V15.11C171.627 15.2 171.677 15.245 171.777 15.245ZM178.483 17.78V17.3C178.483 17.16 178.553 17.09 178.693 17.09H179.368C179.508 17.09 179.578 17.16 179.578 17.3V17.69C179.578 18.59 180.023 19.04 180.913 19.04H182.233C183.123 19.04 183.568 18.58 183.568 17.66V17.15C183.568 16.43 182.973 15.96 181.783 15.74C181.283 15.65 180.783 15.545 180.283 15.425C179.783 15.305 179.358 15.075 179.008 14.735C178.658 14.385 178.483 13.91 178.483 13.31V12.575C178.483 11.885 178.678 11.345 179.068 10.955C179.468 10.555 180.013 10.355 180.703 10.355H182.368C183.048 10.355 183.588 10.555 183.988 10.955C184.388 11.345 184.588 11.885 184.588 12.575V12.95C184.588 13.1 184.523 13.175 184.393 13.175H183.703C183.573 13.175 183.508 13.1 183.508 12.95V12.68C183.508 11.77 183.063 11.315 182.173 11.315H180.898C180.008 11.315 179.563 11.79 179.563 12.74V13.34C179.563 13.85 179.898 14.2 180.568 14.39C180.868 14.47 181.198 14.545 181.558 14.615C181.918 14.675 182.278 14.76 182.638 14.87C183.008 14.97 183.343 15.1 183.643 15.26C183.943 15.41 184.183 15.645 184.363 15.965C184.553 16.275 184.648 16.655 184.648 17.105V17.78C184.648 18.47 184.448 19.015 184.048 19.415C183.648 19.805 183.108 20 182.428 20H180.703C180.023 20 179.483 19.805 179.083 19.415C178.683 19.015 178.483 18.47 178.483 17.78ZM195.847 10.355H196.522C196.662 10.355 196.732 10.42 196.732 10.55V17.78C196.732 18.48 196.537 19.025 196.147 19.415C195.757 19.805 195.217 20 194.527 20H192.862C192.172 20 191.627 19.805 191.227 19.415C190.837 19.025 190.642 18.48 190.642 17.78V10.565C190.642 10.425 190.712 10.355 190.852 10.355H191.527C191.667 10.355 191.737 10.425 191.737 10.565V17.735C191.737 18.605 192.152 19.04 192.982 19.04H194.392C195.232 19.04 195.652 18.605 195.652 17.735V10.565C195.652 10.425 195.717 10.355 195.847 10.355ZM199.893 20H199.233C199.093 20 199.023 19.93 199.023 19.79V10.565C199.023 10.425 199.093 10.355 199.233 10.355H199.848C199.968 10.355 200.048 10.395 200.088 10.475L204.228 17.75H204.288V10.565C204.288 10.425 204.358 10.355 204.498 10.355H205.158C205.298 10.355 205.368 10.425 205.368 10.565V19.79C205.368 19.93 205.298 20 205.158 20H204.603C204.493 20 204.388 19.935 204.288 19.805L200.163 12.605H200.103V19.79C200.103 19.93 200.033 20 199.893 20ZM212.659 20H207.949C207.809 20 207.739 19.93 207.739 19.79V10.565C207.739 10.425 207.809 10.355 207.949 10.355H212.659C212.799 10.355 212.869 10.425 212.869 10.565V11.105C212.869 11.245 212.799 11.315 212.659 11.315H208.984C208.884 11.315 208.834 11.36 208.834 11.45V14.48C208.834 14.57 208.884 14.615 208.984 14.615H212.194C212.334 14.615 212.404 14.685 212.404 14.825V15.365C212.404 15.505 212.334 15.575 212.194 15.575H208.984C208.884 15.575 208.834 15.62 208.834 15.71V18.905C208.834 18.995 208.884 19.04 208.984 19.04H212.659C212.799 19.04 212.869 19.11 212.869 19.25V19.79C212.869 19.93 212.799 20 212.659 20ZM222.624 20H220.824C220.134 20 219.589 19.805 219.189 19.415C218.799 19.025 218.604 18.48 218.604 17.78V12.575C218.604 11.875 218.799 11.33 219.189 10.94C219.589 10.55 220.134 10.355 220.824 10.355H222.624C223.314 10.355 223.854 10.55 224.244 10.94C224.644 11.33 224.844 11.875 224.844 12.575V13.31C224.844 13.45 224.774 13.52 224.634 13.52H223.959C223.819 13.52 223.749 13.45 223.749 13.31V12.62C223.749 11.75 223.329 11.315 222.489 11.315H220.944C220.114 11.315 219.699 11.75 219.699 12.62V17.735C219.699 18.605 220.114 19.04 220.944 19.04H222.489C223.329 19.04 223.749 18.605 223.749 17.735V17.045C223.749 16.905 223.819 16.835 223.959 16.835H224.634C224.774 16.835 224.844 16.905 224.844 17.045V17.78C224.844 18.48 224.644 19.025 224.244 19.415C223.854 19.805 223.314 20 222.624 20ZM232 10.355H232.675C232.815 10.355 232.885 10.42 232.885 10.55V17.78C232.885 18.48 232.69 19.025 232.3 19.415C231.91 19.805 231.37 20 230.68 20H229.015C228.325 20 227.78 19.805 227.38 19.415C226.99 19.025 226.795 18.48 226.795 17.78V10.565C226.795 10.425 226.865 10.355 227.005 10.355H227.68C227.82 10.355 227.89 10.425 227.89 10.565V17.735C227.89 18.605 228.305 19.04 229.135 19.04H230.545C231.385 19.04 231.805 18.605 231.805 17.735V10.565C231.805 10.425 231.87 10.355 232 10.355ZM236.345 10.565V19.79C236.345 19.93 236.275 20 236.135 20H235.46C235.32 20 235.25 19.93 235.25 19.79V10.565C235.25 10.425 235.32 10.355 235.46 10.355H236.135C236.275 10.355 236.345 10.425 236.345 10.565ZM238.688 17.78V17.3C238.688 17.16 238.758 17.09 238.898 17.09H239.573C239.713 17.09 239.783 17.16 239.783 17.3V17.69C239.783 18.59 240.228 19.04 241.118 19.04H242.438C243.328 19.04 243.773 18.58 243.773 17.66V17.15C243.773 16.43 243.178 15.96 241.988 15.74C241.488 15.65 240.988 15.545 240.488 15.425C239.988 15.305 239.563 15.075 239.213 14.735C238.863 14.385 238.688 13.91 238.688 13.31V12.575C238.688 11.885 238.883 11.345 239.273 10.955C239.673 10.555 240.218 10.355 240.908 10.355H242.573C243.253 10.355 243.793 10.555 244.193 10.955C244.593 11.345 244.793 11.885 244.793 12.575V12.95C244.793 13.1 244.728 13.175 244.598 13.175H243.908C243.778 13.175 243.713 13.1 243.713 12.95V12.68C243.713 11.77 243.268 11.315 242.378 11.315H241.103C240.213 11.315 239.768 11.79 239.768 12.74V13.34C239.768 13.85 240.103 14.2 240.773 14.39C241.073 14.47 241.403 14.545 241.763 14.615C242.123 14.675 242.483 14.76 242.843 14.87C243.213 14.97 243.548 15.1 243.848 15.26C244.148 15.41 244.388 15.645 244.568 15.965C244.758 16.275 244.853 16.655 244.853 17.105V17.78C244.853 18.47 244.653 19.015 244.253 19.415C243.853 19.805 243.313 20 242.633 20H240.908C240.228 20 239.688 19.805 239.288 19.415C238.888 19.015 238.688 18.47 238.688 17.78ZM248.284 10.565V19.79C248.284 19.93 248.214 20 248.074 20H247.399C247.259 20 247.189 19.93 247.189 19.79V10.565C247.189 10.425 247.259 10.355 247.399 10.355H248.074C248.214 10.355 248.284 10.425 248.284 10.565ZM251.602 20H250.942C250.802 20 250.732 19.93 250.732 19.79V10.565C250.732 10.425 250.802 10.355 250.942 10.355H251.557C251.677 10.355 251.757 10.395 251.797 10.475L255.937 17.75H255.997V10.565C255.997 10.425 256.067 10.355 256.207 10.355H256.867C257.007 10.355 257.077 10.425 257.077 10.565V19.79C257.077 19.93 257.007 20 256.867 20H256.312C256.202 20 256.097 19.935 255.997 19.805L251.872 12.605H251.812V19.79C251.812 19.93 251.742 20 251.602 20ZM264.368 20H259.658C259.518 20 259.448 19.93 259.448 19.79V10.565C259.448 10.425 259.518 10.355 259.658 10.355H264.368C264.508 10.355 264.578 10.425 264.578 10.565V11.105C264.578 11.245 264.508 11.315 264.368 11.315H260.693C260.593 11.315 260.543 11.36 260.543 11.45V14.48C260.543 14.57 260.593 14.615 260.693 14.615H263.903C264.043 14.615 264.113 14.685 264.113 14.825V15.365C264.113 15.505 264.043 15.575 263.903 15.575H260.693C260.593 15.575 260.543 15.62 260.543 15.71V18.905C260.543 18.995 260.593 19.04 260.693 19.04H264.368C264.508 19.04 264.578 19.11 264.578 19.25V19.79C264.578 19.93 264.508 20 264.368 20ZM271.708 19.04H274.228C275.068 19.04 275.488 18.605 275.488 17.735V12.62C275.488 11.75 275.068 11.315 274.228 11.315H271.708C271.608 11.315 271.558 11.36 271.558 11.45V18.905C271.558 18.995 271.608 19.04 271.708 19.04ZM270.463 19.79V10.565C270.463 10.425 270.533 10.355 270.673 10.355H274.363C275.053 10.355 275.593 10.555 275.983 10.955C276.383 11.345 276.583 11.885 276.583 12.575V17.78C276.583 18.47 276.383 19.015 275.983 19.415C275.593 19.805 275.053 20 274.363 20H270.673C270.533 20 270.463 19.93 270.463 19.79ZM283.928 10.355H284.603C284.743 10.355 284.813 10.42 284.813 10.55V17.78C284.813 18.48 284.618 19.025 284.228 19.415C283.838 19.805 283.298 20 282.608 20H280.943C280.253 20 279.708 19.805 279.308 19.415C278.918 19.025 278.723 18.48 278.723 17.78V10.565C278.723 10.425 278.793 10.355 278.933 10.355H279.608C279.748 10.355 279.818 10.425 279.818 10.565V17.735C279.818 18.605 280.233 19.04 281.063 19.04H282.473C283.313 19.04 283.733 18.605 283.733 17.735V10.565C283.733 10.425 283.798 10.355 283.928 10.355ZM54.9972 30.355H56.2122C56.3522 30.355 56.4222 30.425 56.4222 30.565V39.79C56.4222 39.93 56.3522 40 56.2122 40H55.5522C55.4122 40 55.3422 39.93 55.3422 39.79V31.825H55.2822L52.9572 37.705C52.8972 37.835 52.8072 37.9 52.6872 37.9H51.9672C51.8372 37.9 51.7522 37.835 51.7122 37.705L49.3422 31.81H49.2822V39.79C49.2822 39.93 49.2172 40 49.0872 40H48.4272C48.2872 40 48.2172 39.93 48.2172 39.79V30.565C48.2172 30.425 48.2872 30.355 48.4272 30.355H49.6422C49.7322 30.355 49.7922 30.395 49.8222 30.475L52.2822 36.685H52.3572L54.8172 30.475C54.8372 30.395 54.8972 30.355 54.9972 30.355ZM60.9834 39.04H62.5134C63.3534 39.04 63.7734 38.605 63.7734 37.735V32.62C63.7734 31.75 63.3534 31.315 62.5134 31.315H60.9834C60.1534 31.315 59.7384 31.75 59.7384 32.62V37.735C59.7384 38.605 60.1534 39.04 60.9834 39.04ZM62.6484 40H60.8634C60.1734 40 59.6284 39.805 59.2284 39.415C58.8384 39.025 58.6434 38.48 58.6434 37.78V32.575C58.6434 31.875 58.8384 31.33 59.2284 30.94C59.6284 30.55 60.1734 30.355 60.8634 30.355H62.6484C63.3384 30.355 63.8784 30.555 64.2684 30.955C64.6684 31.345 64.8684 31.885 64.8684 32.575V37.78C64.8684 38.47 64.6684 39.015 64.2684 39.415C63.8784 39.805 63.3384 40 62.6484 40ZM67.9544 40H67.2944C67.1544 40 67.0844 39.93 67.0844 39.79V30.565C67.0844 30.425 67.1544 30.355 67.2944 30.355H67.9094C68.0294 30.355 68.1094 30.395 68.1494 30.475L72.2894 37.75H72.3494V30.565C72.3494 30.425 72.4194 30.355 72.5594 30.355H73.2194C73.3594 30.355 73.4294 30.425 73.4294 30.565V39.79C73.4294 39.93 73.3594 40 73.2194 40H72.6644C72.5544 40 72.4494 39.935 72.3494 39.805L68.2244 32.605H68.1644V39.79C68.1644 39.93 68.0944 40 67.9544 40ZM77.0452 39.04H79.5652C80.4052 39.04 80.8252 38.605 80.8252 37.735V32.62C80.8252 31.75 80.4052 31.315 79.5652 31.315H77.0452C76.9452 31.315 76.8952 31.36 76.8952 31.45V38.905C76.8952 38.995 76.9452 39.04 77.0452 39.04ZM75.8002 39.79V30.565C75.8002 30.425 75.8702 30.355 76.0102 30.355H79.7002C80.3902 30.355 80.9302 30.555 81.3202 30.955C81.7202 31.345 81.9202 31.885 81.9202 32.575V37.78C81.9202 38.47 81.7202 39.015 81.3202 39.415C80.9302 39.805 80.3902 40 79.7002 40H76.0102C75.8702 40 75.8002 39.93 75.8002 39.79ZM89.0552 40H84.3452C84.2052 40 84.1352 39.93 84.1352 39.79V30.565C84.1352 30.425 84.2052 30.355 84.3452 30.355H89.0552C89.1952 30.355 89.2652 30.425 89.2652 30.565V31.105C89.2652 31.245 89.1952 31.315 89.0552 31.315H85.3802C85.2802 31.315 85.2302 31.36 85.2302 31.45V34.48C85.2302 34.57 85.2802 34.615 85.3802 34.615H88.5902C88.7302 34.615 88.8002 34.685 88.8002 34.825V35.365C88.8002 35.505 88.7302 35.575 88.5902 35.575H85.3802C85.2802 35.575 85.2302 35.62 85.2302 35.71V38.905C85.2302 38.995 85.2802 39.04 85.3802 39.04H89.0552C89.1952 39.04 89.2652 39.11 89.2652 39.25V39.79C89.2652 39.93 89.1952 40 89.0552 40ZM97.3408 39.04H98.8708C99.7108 39.04 100.131 38.605 100.131 37.735V32.62C100.131 31.75 99.7108 31.315 98.8708 31.315H97.3408C96.5108 31.315 96.0958 31.75 96.0958 32.62V37.735C96.0958 38.605 96.5108 39.04 97.3408 39.04ZM99.0058 40H97.2208C96.5308 40 95.9858 39.805 95.5858 39.415C95.1958 39.025 95.0008 38.48 95.0008 37.78V32.575C95.0008 31.875 95.1958 31.33 95.5858 30.94C95.9858 30.55 96.5308 30.355 97.2208 30.355H99.0058C99.6958 30.355 100.236 30.555 100.626 30.955C101.026 31.345 101.226 31.885 101.226 32.575V37.78C101.226 38.47 101.026 39.015 100.626 39.415C100.236 39.805 99.6958 40 99.0058 40ZM108.572 30.355H109.247C109.387 30.355 109.457 30.42 109.457 30.55V37.78C109.457 38.48 109.262 39.025 108.872 39.415C108.482 39.805 107.942 40 107.252 40H105.587C104.897 40 104.352 39.805 103.952 39.415C103.562 39.025 103.367 38.48 103.367 37.78V30.565C103.367 30.425 103.437 30.355 103.577 30.355H104.252C104.392 30.355 104.462 30.425 104.462 30.565V37.735C104.462 38.605 104.877 39.04 105.707 39.04H107.117C107.957 39.04 108.377 38.605 108.377 37.735V30.565C108.377 30.425 108.442 30.355 108.572 30.355ZM114.898 40H113.833C113.703 40 113.618 39.93 113.578 39.79L110.923 30.58C110.893 30.43 110.958 30.355 111.118 30.355H111.853C111.983 30.355 112.063 30.425 112.093 30.565L114.328 38.77H114.388L116.623 30.565C116.653 30.425 116.733 30.355 116.863 30.355H117.613C117.763 30.355 117.823 30.43 117.793 30.58L115.138 39.79C115.098 39.93 115.018 40 114.898 40ZM124.255 40H119.545C119.405 40 119.335 39.93 119.335 39.79V30.565C119.335 30.425 119.405 30.355 119.545 30.355H124.255C124.395 30.355 124.465 30.425 124.465 30.565V31.105C124.465 31.245 124.395 31.315 124.255 31.315H120.58C120.48 31.315 120.43 31.36 120.43 31.45V34.48C120.43 34.57 120.48 34.615 120.58 34.615H123.79C123.93 34.615 124 34.685 124 34.825V35.365C124 35.505 123.93 35.575 123.79 35.575H120.58C120.48 35.575 120.43 35.62 120.43 35.71V38.905C120.43 38.995 120.48 39.04 120.58 39.04H124.255C124.395 39.04 124.465 39.11 124.465 39.25V39.79C124.465 39.93 124.395 40 124.255 40ZM127.427 40H126.752C126.612 40 126.542 39.93 126.542 39.79V30.565C126.542 30.425 126.612 30.355 126.752 30.355H130.202C130.892 30.355 131.437 30.555 131.837 30.955C132.237 31.345 132.437 31.885 132.437 32.575V33.94C132.437 34.5 132.302 34.965 132.032 35.335C131.762 35.695 131.387 35.935 130.907 36.055V36.115L132.647 39.76C132.737 39.92 132.687 40 132.497 40H131.822C131.652 40 131.527 39.93 131.447 39.79L129.767 36.16H127.787C127.687 36.16 127.637 36.205 127.637 36.295V39.79C127.637 39.93 127.567 40 127.427 40ZM127.787 35.245H130.052C130.912 35.245 131.342 34.815 131.342 33.955V32.62C131.342 31.75 130.912 31.315 130.052 31.315H127.787C127.687 31.315 127.637 31.36 127.637 31.45V35.11C127.637 35.2 127.687 35.245 127.787 35.245ZM136.954 40H136.279C136.139 40 136.069 39.93 136.069 39.79V31.45C136.069 31.36 136.019 31.315 135.919 31.315H133.879C133.729 31.315 133.654 31.245 133.654 31.105V30.565C133.654 30.425 133.729 30.355 133.879 30.355H139.354C139.504 30.355 139.579 30.425 139.579 30.565V31.105C139.579 31.245 139.504 31.315 139.354 31.315H137.314C137.214 31.315 137.164 31.36 137.164 31.45V39.79C137.164 39.93 137.094 40 136.954 40ZM145.92 40H141.21C141.07 40 141 39.93 141 39.79V30.565C141 30.425 141.07 30.355 141.21 30.355H145.92C146.06 30.355 146.13 30.425 146.13 30.565V31.105C146.13 31.245 146.06 31.315 145.92 31.315H142.245C142.145 31.315 142.095 31.36 142.095 31.45V34.48C142.095 34.57 142.145 34.615 142.245 34.615H145.455C145.595 34.615 145.665 34.685 145.665 34.825V35.365C145.665 35.505 145.595 35.575 145.455 35.575H142.245C142.145 35.575 142.095 35.62 142.095 35.71V38.905C142.095 38.995 142.145 39.04 142.245 39.04H145.92C146.06 39.04 146.13 39.11 146.13 39.25V39.79C146.13 39.93 146.06 40 145.92 40ZM156.936 40H152.226C152.086 40 152.016 39.93 152.016 39.79V30.565C152.016 30.425 152.086 30.355 152.226 30.355H156.936C157.076 30.355 157.146 30.425 157.146 30.565V31.105C157.146 31.245 157.076 31.315 156.936 31.315H153.261C153.161 31.315 153.111 31.36 153.111 31.45V34.48C153.111 34.57 153.161 34.615 153.261 34.615H156.471C156.611 34.615 156.681 34.685 156.681 34.825V35.365C156.681 35.505 156.611 35.575 156.471 35.575H153.261C153.161 35.575 153.111 35.62 153.111 35.71V38.905C153.111 38.995 153.161 39.04 153.261 39.04H156.936C157.076 39.04 157.146 39.11 157.146 39.25V39.79C157.146 39.93 157.076 40 156.936 40ZM161.578 40H160.903C160.763 40 160.693 39.93 160.693 39.79V31.45C160.693 31.36 160.643 31.315 160.543 31.315H158.503C158.353 31.315 158.278 31.245 158.278 31.105V30.565C158.278 30.425 158.353 30.355 158.503 30.355H163.978C164.128 30.355 164.203 30.425 164.203 30.565V31.105C164.203 31.245 164.128 31.315 163.978 31.315H161.938C161.838 31.315 161.788 31.36 161.788 31.45V39.79C161.788 39.93 161.718 40 161.578 40ZM173.123 40H171.503C170.813 40 170.268 39.805 169.868 39.415C169.478 39.025 169.283 38.48 169.283 37.78V32.575C169.283 31.875 169.478 31.33 169.868 30.94C170.268 30.55 170.813 30.355 171.503 30.355H173.123C173.813 30.355 174.353 30.555 174.743 30.955C175.133 31.345 175.328 31.885 175.328 32.575V33.19C175.328 33.34 175.258 33.415 175.118 33.415H174.443C174.303 33.415 174.233 33.34 174.233 33.19V32.62C174.233 31.75 173.818 31.315 172.988 31.315H171.623C170.793 31.315 170.378 31.75 170.378 32.62V37.735C170.378 38.605 170.793 39.04 171.623 39.04H172.988C173.818 39.04 174.233 38.605 174.233 37.735V36.055C174.233 35.955 174.188 35.905 174.098 35.905H172.613C172.473 35.905 172.403 35.84 172.403 35.71V35.155C172.403 35.015 172.473 34.945 172.613 34.945H175.028C175.228 34.945 175.328 35.05 175.328 35.26V37.78C175.328 38.48 175.133 39.025 174.743 39.415C174.353 39.805 173.813 40 173.123 40ZM180.818 27.46H181.718C181.788 27.46 181.833 27.48 181.853 27.52C181.873 27.56 181.863 27.61 181.823 27.67L180.503 29.245C180.423 29.345 180.328 29.395 180.218 29.395H179.723C179.583 29.395 179.553 29.325 179.633 29.185L180.488 27.655C180.558 27.525 180.668 27.46 180.818 27.46ZM182.468 40H177.758C177.618 40 177.548 39.93 177.548 39.79V30.565C177.548 30.425 177.618 30.355 177.758 30.355H182.468C182.608 30.355 182.678 30.425 182.678 30.565V31.105C182.678 31.245 182.608 31.315 182.468 31.315H178.793C178.693 31.315 178.643 31.36 178.643 31.45V34.48C178.643 34.57 178.693 34.615 178.793 34.615H182.003C182.143 34.615 182.213 34.685 182.213 34.825V35.365C182.213 35.505 182.143 35.575 182.003 35.575H178.793C178.693 35.575 178.643 35.62 178.643 35.71V38.905C178.643 38.995 178.693 39.04 178.793 39.04H182.468C182.608 39.04 182.678 39.11 182.678 39.25V39.79C182.678 39.93 182.608 40 182.468 40ZM185.625 40H184.965C184.825 40 184.755 39.93 184.755 39.79V30.565C184.755 30.425 184.825 30.355 184.965 30.355H185.58C185.7 30.355 185.78 30.395 185.82 30.475L189.96 37.75H190.02V30.565C190.02 30.425 190.09 30.355 190.23 30.355H190.89C191.03 30.355 191.1 30.425 191.1 30.565V39.79C191.1 39.93 191.03 40 190.89 40H190.335C190.225 40 190.12 39.935 190.02 39.805L185.895 32.605H185.835V39.79C185.835 39.93 185.765 40 185.625 40ZM196.741 27.46H197.641C197.711 27.46 197.756 27.48 197.776 27.52C197.796 27.56 197.786 27.61 197.746 27.67L196.426 29.245C196.346 29.345 196.251 29.395 196.141 29.395H195.646C195.506 29.395 195.476 29.325 195.556 29.185L196.411 27.655C196.481 27.525 196.591 27.46 196.741 27.46ZM198.391 40H193.681C193.541 40 193.471 39.93 193.471 39.79V30.565C193.471 30.425 193.541 30.355 193.681 30.355H198.391C198.531 30.355 198.601 30.425 198.601 30.565V31.105C198.601 31.245 198.531 31.315 198.391 31.315H194.716C194.616 31.315 194.566 31.36 194.566 31.45V34.48C194.566 34.57 194.616 34.615 194.716 34.615H197.926C198.066 34.615 198.136 34.685 198.136 34.825V35.365C198.136 35.505 198.066 35.575 197.926 35.575H194.716C194.616 35.575 194.566 35.62 194.566 35.71V38.905C194.566 38.995 194.616 39.04 194.716 39.04H198.391C198.531 39.04 198.601 39.11 198.601 39.25V39.79C198.601 39.93 198.531 40 198.391 40ZM201.563 40H200.888C200.748 40 200.678 39.93 200.678 39.79V30.565C200.678 30.425 200.748 30.355 200.888 30.355H204.338C205.028 30.355 205.573 30.555 205.973 30.955C206.373 31.345 206.573 31.885 206.573 32.575V33.94C206.573 34.5 206.438 34.965 206.168 35.335C205.898 35.695 205.523 35.935 205.043 36.055V36.115L206.783 39.76C206.873 39.92 206.823 40 206.633 40H205.958C205.788 40 205.663 39.93 205.583 39.79L203.903 36.16H201.923C201.823 36.16 201.773 36.205 201.773 36.295V39.79C201.773 39.93 201.703 40 201.563 40ZM201.923 35.245H204.188C205.048 35.245 205.478 34.815 205.478 33.955V32.62C205.478 31.75 205.048 31.315 204.188 31.315H201.923C201.823 31.315 201.773 31.36 201.773 31.45V35.11C201.773 35.2 201.823 35.245 201.923 35.245ZM213.655 40H208.945C208.805 40 208.735 39.93 208.735 39.79V30.565C208.735 30.425 208.805 30.355 208.945 30.355H213.655C213.795 30.355 213.865 30.425 213.865 30.565V31.105C213.865 31.245 213.795 31.315 213.655 31.315H209.98C209.88 31.315 209.83 31.36 209.83 31.45V34.48C209.83 34.57 209.88 34.615 209.98 34.615H213.19C213.33 34.615 213.4 34.685 213.4 34.825V35.365C213.4 35.505 213.33 35.575 213.19 35.575H209.98C209.88 35.575 209.83 35.62 209.83 35.71V38.905C209.83 38.995 209.88 39.04 209.98 39.04H213.655C213.795 39.04 213.865 39.11 213.865 39.25V39.79C213.865 39.93 213.795 40 213.655 40ZM221.072 30.355H221.747C221.887 30.355 221.957 30.42 221.957 30.55V37.78C221.957 38.48 221.762 39.025 221.372 39.415C220.982 39.805 220.442 40 219.752 40H218.087C217.397 40 216.852 39.805 216.452 39.415C216.062 39.025 215.867 38.48 215.867 37.78V30.565C215.867 30.425 215.937 30.355 216.077 30.355H216.752C216.892 30.355 216.962 30.425 216.962 30.565V37.735C216.962 38.605 217.377 39.04 218.207 39.04H219.617C220.457 39.04 220.877 38.605 220.877 37.735V30.565C220.877 30.425 220.942 30.355 221.072 30.355ZM224.143 37.78V37.3C224.143 37.16 224.213 37.09 224.353 37.09H225.028C225.168 37.09 225.238 37.16 225.238 37.3V37.69C225.238 38.59 225.683 39.04 226.573 39.04H227.893C228.783 39.04 229.228 38.58 229.228 37.66V37.15C229.228 36.43 228.633 35.96 227.443 35.74C226.943 35.65 226.443 35.545 225.943 35.425C225.443 35.305 225.018 35.075 224.668 34.735C224.318 34.385 224.143 33.91 224.143 33.31V32.575C224.143 31.885 224.338 31.345 224.728 30.955C225.128 30.555 225.673 30.355 226.363 30.355H228.028C228.708 30.355 229.248 30.555 229.648 30.955C230.048 31.345 230.248 31.885 230.248 32.575V32.95C230.248 33.1 230.183 33.175 230.053 33.175H229.363C229.233 33.175 229.168 33.1 229.168 32.95V32.68C229.168 31.77 228.723 31.315 227.833 31.315H226.558C225.668 31.315 225.223 31.79 225.223 32.74V33.34C225.223 33.85 225.558 34.2 226.228 34.39C226.528 34.47 226.858 34.545 227.218 34.615C227.578 34.675 227.938 34.76 228.298 34.87C228.668 34.97 229.003 35.1 229.303 35.26C229.603 35.41 229.843 35.645 230.023 35.965C230.213 36.275 230.308 36.655 230.308 37.105V37.78C230.308 38.47 230.108 39.015 229.708 39.415C229.308 39.805 228.768 40 228.088 40H226.363C225.683 40 225.143 39.805 224.743 39.415C224.343 39.015 224.143 38.47 224.143 37.78ZM237.488 40H232.778C232.638 40 232.568 39.93 232.568 39.79V30.565C232.568 30.425 232.638 30.355 232.778 30.355H237.488C237.628 30.355 237.698 30.425 237.698 30.565V31.105C237.698 31.245 237.628 31.315 237.488 31.315H233.813C233.713 31.315 233.663 31.36 233.663 31.45V34.48C233.663 34.57 233.713 34.615 233.813 34.615H237.023C237.163 34.615 237.233 34.685 237.233 34.825V35.365C237.233 35.505 237.163 35.575 237.023 35.575H233.813C233.713 35.575 233.663 35.62 233.663 35.71V38.905C233.663 38.995 233.713 39.04 233.813 39.04H237.488C237.628 39.04 237.698 39.11 237.698 39.25V39.79C237.698 39.93 237.628 40 237.488 40ZM243.568 32.305V30.565C243.568 30.425 243.638 30.355 243.778 30.355H244.573C244.713 30.355 244.783 30.425 244.783 30.565V32.305C244.783 33.255 244.753 34.18 244.693 35.08C244.633 35.98 244.593 36.49 244.573 36.61C244.553 36.73 244.488 36.79 244.378 36.79H243.973C243.843 36.79 243.773 36.715 243.763 36.565C243.723 36.175 243.678 35.49 243.628 34.51C243.588 33.53 243.568 32.795 243.568 32.305ZM244.753 37.975V39.79C244.753 39.93 244.683 40 244.543 40H243.823C243.693 40 243.628 39.925 243.628 39.775V37.975C243.628 37.845 243.693 37.78 243.823 37.78H244.543C244.683 37.78 244.753 37.845 244.753 37.975ZM247.833 30.55V31.42C247.833 31.65 247.763 31.975 247.623 32.395L247.113 33.82C247.083 33.89 247.028 33.925 246.948 33.925C246.838 33.925 246.783 33.865 246.783 33.745V30.565C246.783 30.425 246.853 30.355 246.993 30.355H247.638C247.768 30.355 247.833 30.42 247.833 30.55ZM250.143 30.55V31.42C250.143 31.67 250.068 31.995 249.918 32.395L249.423 33.82C249.393 33.89 249.328 33.925 249.228 33.925C249.138 33.925 249.093 33.865 249.093 33.745V30.565C249.093 30.425 249.158 30.355 249.288 30.355H249.948C250.078 30.355 250.143 30.42 250.143 30.55Z" fill="#686666"/>
    <path d="M80.4246 49.5H83.7846C84.6546 49.5 85.4246 49.71 86.0946 50.13C86.7746 50.55 87.3046 51.155 87.6846 51.945C88.0646 52.735 88.2546 53.67 88.2546 54.75C88.2546 55.83 88.0646 56.765 87.6846 57.555C87.3046 58.345 86.7746 58.95 86.0946 59.37C85.4246 59.79 84.6546 60 83.7846 60H80.4246V49.5ZM83.5296 58.755C84.5796 58.755 85.3746 58.405 85.9146 57.705C86.4646 57.005 86.7396 56.02 86.7396 54.75C86.7396 53.48 86.4646 52.495 85.9146 51.795C85.3746 51.095 84.5796 50.745 83.5296 50.745H81.7896V58.755H83.5296ZM92.5481 60.15C91.8081 60.15 91.1731 59.98 90.6431 59.64C90.1231 59.29 89.7281 58.82 89.4581 58.23C89.1981 57.64 89.0681 56.985 89.0681 56.265C89.0681 55.575 89.1881 54.945 89.4281 54.375C89.6781 53.795 90.0331 53.34 90.4931 53.01C90.9631 52.67 91.5181 52.5 92.1581 52.5C92.9781 52.5 93.6431 52.775 94.1531 53.325C94.6731 53.875 94.9331 54.635 94.9331 55.605C94.9331 55.775 94.9131 56.01 94.8731 56.31H90.4031C90.4331 57.18 90.6481 57.84 91.0481 58.29C91.4581 58.74 91.9881 58.965 92.6381 58.965C92.9481 58.965 93.2731 58.93 93.6131 58.86C93.9631 58.78 94.2681 58.67 94.5281 58.53L94.6481 59.7C94.0981 60 93.3981 60.15 92.5481 60.15ZM93.5981 55.395C93.5981 54.895 93.4731 54.49 93.2231 54.18C92.9831 53.86 92.6331 53.7 92.1731 53.7C91.7231 53.7 91.3481 53.84 91.0481 54.12C90.7581 54.4 90.5631 54.825 90.4631 55.395H93.5981ZM91.0781 50.325L93.2831 48.915V50.385L91.0781 51.24V50.325ZM99.0349 60.15C97.9149 60.15 97.0649 59.8 96.4849 59.1C95.9049 58.39 95.6149 57.48 95.6149 56.37C95.6149 55.22 95.9049 54.29 96.4849 53.58C97.0649 52.86 97.9249 52.5 99.0649 52.5C99.6749 52.5 100.22 52.625 100.7 52.875L100.49 54.03C100.04 53.79 99.5699 53.67 99.0799 53.67C98.4099 53.67 97.8849 53.905 97.5049 54.375C97.1349 54.835 96.9499 55.48 96.9499 56.31C96.9499 57.14 97.1399 57.795 97.5199 58.275C97.9099 58.755 98.4449 58.995 99.1249 58.995C99.6449 58.995 100.105 58.875 100.505 58.635L100.685 59.805C100.485 59.905 100.235 59.985 99.9349 60.045C99.6349 60.115 99.3349 60.15 99.0349 60.15ZM104.479 60.15C103.819 60.15 103.249 59.985 102.769 59.655C102.289 59.315 101.919 58.855 101.659 58.275C101.409 57.695 101.284 57.045 101.284 56.325C101.284 55.605 101.409 54.955 101.659 54.375C101.919 53.795 102.289 53.34 102.769 53.01C103.249 52.67 103.819 52.5 104.479 52.5C105.129 52.5 105.694 52.67 106.174 53.01C106.654 53.34 107.019 53.795 107.269 54.375C107.519 54.955 107.644 55.605 107.644 56.325C107.644 57.045 107.519 57.695 107.269 58.275C107.019 58.855 106.654 59.315 106.174 59.655C105.694 59.985 105.129 60.15 104.479 60.15ZM104.479 58.995C105.059 58.995 105.509 58.76 105.829 58.29C106.149 57.82 106.309 57.165 106.309 56.325C106.309 55.485 106.149 54.835 105.829 54.375C105.509 53.905 105.059 53.67 104.479 53.67C103.879 53.67 103.419 53.905 103.099 54.375C102.779 54.835 102.619 55.485 102.619 56.325C102.619 57.175 102.779 57.835 103.099 58.305C103.419 58.765 103.879 58.995 104.479 58.995ZM114.104 52.65V60H112.994L112.904 59.1C112.704 59.43 112.434 59.69 112.094 59.88C111.754 60.06 111.379 60.15 110.969 60.15C110.199 60.15 109.624 59.895 109.244 59.385C108.874 58.865 108.689 58.125 108.689 57.165V52.65H109.994V57C109.994 57.66 110.089 58.155 110.279 58.485C110.479 58.805 110.809 58.965 111.269 58.965C111.589 58.965 111.879 58.875 112.139 58.695C112.399 58.515 112.619 58.265 112.799 57.945V52.65H114.104ZM115.178 52.65H116.573L118.283 58.455L119.963 52.65H121.358L118.928 60H117.623L115.178 52.65ZM122.272 52.65H123.337L123.502 53.88C123.832 53.4 124.142 53.05 124.432 52.83C124.732 52.61 125.047 52.5 125.377 52.5C125.507 52.5 125.622 52.515 125.722 52.545L125.587 54.03C125.457 54 125.307 53.985 125.137 53.985C124.807 53.985 124.497 54.07 124.207 54.24C123.917 54.4 123.707 54.59 123.577 54.81V60H122.272V52.65ZM126.711 49.5H128.016V50.985H126.711V49.5ZM126.711 52.65H128.016V60H126.711V52.65ZM129.757 52.65H130.822L130.987 53.88C131.317 53.4 131.627 53.05 131.917 52.83C132.217 52.61 132.532 52.5 132.862 52.5C132.992 52.5 133.107 52.515 133.207 52.545L133.072 54.03C132.942 54 132.792 53.985 132.622 53.985C132.292 53.985 131.982 54.07 131.692 54.24C131.402 54.4 131.192 54.59 131.062 54.81V60H129.757V52.65ZM138.971 60.15C138.111 60.15 137.366 59.95 136.736 59.55L136.901 58.23C137.541 58.73 138.201 58.98 138.881 58.98C139.241 58.98 139.521 58.905 139.721 58.755C139.931 58.605 140.036 58.385 140.036 58.095C140.036 57.875 139.986 57.695 139.886 57.555C139.796 57.415 139.641 57.28 139.421 57.15C139.201 57.02 138.861 56.85 138.401 56.64C137.861 56.39 137.466 56.105 137.216 55.785C136.966 55.465 136.841 55.05 136.841 54.54C136.841 53.94 137.051 53.45 137.471 53.07C137.891 52.69 138.456 52.5 139.166 52.5C139.886 52.5 140.516 52.66 141.056 52.98L140.891 54.195C140.621 54.015 140.366 53.885 140.126 53.805C139.886 53.715 139.601 53.67 139.271 53.67C138.921 53.67 138.646 53.745 138.446 53.895C138.246 54.045 138.146 54.255 138.146 54.525C138.146 54.795 138.231 55 138.401 55.14C138.581 55.28 138.926 55.465 139.436 55.695C140.146 56.015 140.646 56.34 140.936 56.67C141.226 56.99 141.371 57.415 141.371 57.945C141.371 58.635 141.156 59.175 140.726 59.565C140.296 59.955 139.711 60.15 138.971 60.15ZM147.751 52.65V60H146.641L146.551 59.1C146.351 59.43 146.081 59.69 145.741 59.88C145.401 60.06 145.026 60.15 144.616 60.15C143.846 60.15 143.271 59.895 142.891 59.385C142.521 58.865 142.336 58.125 142.336 57.165V52.65H143.641V57C143.641 57.66 143.736 58.155 143.926 58.485C144.126 58.805 144.456 58.965 144.916 58.965C145.236 58.965 145.526 58.875 145.786 58.695C146.046 58.515 146.266 58.265 146.446 57.945V52.65H147.751ZM149.621 52.65H150.686L150.851 53.88C151.181 53.4 151.491 53.05 151.781 52.83C152.081 52.61 152.396 52.5 152.726 52.5C152.856 52.5 152.971 52.515 153.071 52.545L152.936 54.03C152.806 54 152.656 53.985 152.486 53.985C152.156 53.985 151.846 54.07 151.556 54.24C151.266 54.4 151.056 54.59 150.926 54.81V60H149.621V52.65Z" fill="#8F8F8F"/>
    <path d="M158.343 60V49.5H159.498V58.965H165.753V60H158.343ZM165.911 49.215H167.111L165.911 52.38H165.041L165.911 49.215ZM170.128 60.135C169.308 60.135 168.638 59.925 168.118 59.505C167.608 59.085 167.353 58.54 167.353 57.87C167.353 57.17 167.623 56.615 168.163 56.205C168.703 55.785 169.433 55.575 170.353 55.575C170.753 55.575 171.138 55.62 171.508 55.71C171.888 55.8 172.238 55.925 172.558 56.085V55.095C172.558 54.495 172.388 54.045 172.048 53.745C171.708 53.435 171.213 53.28 170.562 53.28C170.193 53.28 169.818 53.335 169.438 53.445C169.068 53.545 168.658 53.71 168.208 53.94L167.788 53.085C168.328 52.825 168.828 52.635 169.288 52.515C169.748 52.395 170.208 52.335 170.667 52.335C171.618 52.335 172.348 52.56 172.858 53.01C173.378 53.46 173.638 54.105 173.638 54.945V60H172.558V59.265C172.218 59.555 171.843 59.775 171.433 59.925C171.033 60.065 170.598 60.135 170.128 60.135ZM168.418 57.84C168.418 58.26 168.593 58.605 168.943 58.875C169.303 59.135 169.763 59.265 170.323 59.265C170.773 59.265 171.183 59.195 171.553 59.055C171.923 58.915 172.258 58.695 172.558 58.395V56.985C172.248 56.775 171.913 56.625 171.553 56.535C171.203 56.435 170.813 56.385 170.383 56.385C169.783 56.385 169.303 56.52 168.943 56.79C168.593 57.05 168.418 57.4 168.418 57.84ZM174.727 58.965L175.402 58.245C175.742 58.565 176.122 58.815 176.542 58.995C176.972 59.165 177.407 59.25 177.847 59.25C178.447 59.25 178.937 59.125 179.317 58.875C179.697 58.625 179.887 58.3 179.887 57.9C179.887 57.58 179.772 57.33 179.542 57.15C179.322 56.96 178.972 56.83 178.492 56.76L177.187 56.58C176.437 56.47 175.877 56.25 175.507 55.92C175.147 55.58 174.967 55.125 174.967 54.555C174.967 53.925 175.232 53.405 175.762 52.995C176.292 52.575 176.967 52.365 177.787 52.365C178.327 52.365 178.837 52.445 179.317 52.605C179.807 52.765 180.282 53.015 180.742 53.355L180.157 54.105C179.737 53.825 179.327 53.615 178.927 53.475C178.537 53.335 178.137 53.265 177.727 53.265C177.217 53.265 176.797 53.38 176.467 53.61C176.147 53.84 175.987 54.14 175.987 54.51C175.987 54.83 176.097 55.08 176.317 55.26C176.537 55.43 176.892 55.55 177.382 55.62L178.687 55.8C179.437 55.9 179.997 56.125 180.367 56.475C180.747 56.815 180.937 57.27 180.937 57.84C180.937 58.16 180.857 58.465 180.697 58.755C180.547 59.035 180.332 59.28 180.052 59.49C179.782 59.69 179.462 59.85 179.092 59.97C178.722 60.08 178.322 60.135 177.892 60.135C177.272 60.135 176.687 60.035 176.137 59.835C175.597 59.625 175.127 59.335 174.727 58.965ZM181.538 58.965L182.213 58.245C182.553 58.565 182.933 58.815 183.353 58.995C183.783 59.165 184.218 59.25 184.658 59.25C185.258 59.25 185.748 59.125 186.128 58.875C186.508 58.625 186.698 58.3 186.698 57.9C186.698 57.58 186.583 57.33 186.353 57.15C186.133 56.96 185.783 56.83 185.303 56.76L183.998 56.58C183.248 56.47 182.688 56.25 182.318 55.92C181.958 55.58 181.778 55.125 181.778 54.555C181.778 53.925 182.043 53.405 182.573 52.995C183.103 52.575 183.778 52.365 184.598 52.365C185.138 52.365 185.648 52.445 186.128 52.605C186.618 52.765 187.093 53.015 187.553 53.355L186.968 54.105C186.548 53.825 186.138 53.615 185.738 53.475C185.348 53.335 184.948 53.265 184.538 53.265C184.028 53.265 183.608 53.38 183.278 53.61C182.958 53.84 182.798 54.14 182.798 54.51C182.798 54.83 182.908 55.08 183.128 55.26C183.348 55.43 183.703 55.55 184.193 55.62L185.498 55.8C186.248 55.9 186.808 56.125 187.178 56.475C187.558 56.815 187.748 57.27 187.748 57.84C187.748 58.16 187.668 58.465 187.508 58.755C187.358 59.035 187.143 59.28 186.863 59.49C186.593 59.69 186.273 59.85 185.903 59.97C185.533 60.08 185.133 60.135 184.703 60.135C184.083 60.135 183.498 60.035 182.948 59.835C182.408 59.625 181.938 59.335 181.538 58.965ZM189.553 51.045C189.353 51.045 189.178 50.97 189.028 50.82C188.878 50.67 188.803 50.495 188.803 50.295C188.803 50.085 188.878 49.91 189.028 49.77C189.178 49.62 189.353 49.545 189.553 49.545C189.763 49.545 189.938 49.62 190.078 49.77C190.228 49.91 190.303 50.085 190.303 50.295C190.303 50.495 190.228 50.67 190.078 50.82C189.938 50.97 189.763 51.045 189.553 51.045ZM190.108 52.485V60H188.998V52.485H190.108ZM198.331 59.205C197.911 59.515 197.471 59.75 197.011 59.91C196.561 60.06 196.066 60.135 195.526 60.135C194.986 60.135 194.476 60.035 193.996 59.835C193.526 59.635 193.116 59.36 192.766 59.01C192.426 58.66 192.156 58.25 191.956 57.78C191.756 57.3 191.656 56.785 191.656 56.235C191.656 55.695 191.751 55.19 191.941 54.72C192.141 54.25 192.406 53.84 192.736 53.49C193.066 53.14 193.456 52.865 193.906 52.665C194.366 52.465 194.851 52.365 195.361 52.365C195.861 52.365 196.326 52.465 196.756 52.665C197.196 52.865 197.571 53.14 197.881 53.49C198.201 53.84 198.451 54.25 198.631 54.72C198.821 55.19 198.916 55.695 198.916 56.235V56.58H192.751C192.831 57.32 193.136 57.935 193.666 58.425C194.196 58.915 194.831 59.16 195.571 59.16C195.961 59.16 196.341 59.1 196.711 58.98C197.081 58.86 197.391 58.69 197.641 58.47L198.331 59.205ZM195.331 53.34C194.681 53.34 194.116 53.56 193.636 54C193.166 54.44 192.881 55.005 192.781 55.695H197.806C197.706 55.035 197.421 54.48 196.951 54.03C196.491 53.57 195.951 53.34 195.331 53.34ZM201.104 58.32V53.43H199.484V52.485H201.104V50.58L202.199 50.295V52.485H204.464V53.43H202.199V58.035C202.199 58.435 202.289 58.725 202.469 58.905C202.649 59.075 202.944 59.16 203.354 59.16C203.564 59.16 203.749 59.145 203.909 59.115C204.079 59.085 204.259 59.035 204.449 58.965V59.94C204.259 60.01 204.044 60.06 203.804 60.09C203.574 60.12 203.349 60.135 203.129 60.135C202.479 60.135 201.979 59.98 201.629 59.67C201.279 59.36 201.104 58.91 201.104 58.32ZM206.729 58.32V53.43H205.109V52.485H206.729V50.58L207.824 50.295V52.485H210.089V53.43H207.824V58.035C207.824 58.435 207.914 58.725 208.094 58.905C208.274 59.075 208.569 59.16 208.979 59.16C209.189 59.16 209.374 59.145 209.534 59.115C209.704 59.085 209.884 59.035 210.074 58.965V59.94C209.884 60.01 209.669 60.06 209.429 60.09C209.199 60.12 208.974 60.135 208.754 60.135C208.104 60.135 207.604 59.98 207.254 59.67C206.904 59.36 206.729 58.91 206.729 58.32ZM217.374 59.205C216.954 59.515 216.514 59.75 216.054 59.91C215.604 60.06 215.109 60.135 214.569 60.135C214.029 60.135 213.519 60.035 213.039 59.835C212.569 59.635 212.159 59.36 211.809 59.01C211.469 58.66 211.199 58.25 210.999 57.78C210.799 57.3 210.699 56.785 210.699 56.235C210.699 55.695 210.794 55.19 210.984 54.72C211.184 54.25 211.449 53.84 211.779 53.49C212.109 53.14 212.499 52.865 212.949 52.665C213.409 52.465 213.894 52.365 214.404 52.365C214.904 52.365 215.369 52.465 215.799 52.665C216.239 52.865 216.614 53.14 216.924 53.49C217.244 53.84 217.494 54.25 217.674 54.72C217.864 55.19 217.959 55.695 217.959 56.235V56.58H211.794C211.874 57.32 212.179 57.935 212.709 58.425C213.239 58.915 213.874 59.16 214.614 59.16C215.004 59.16 215.384 59.1 215.754 58.98C216.124 58.86 216.434 58.69 216.684 58.47L217.374 59.205ZM214.374 53.34C213.724 53.34 213.159 53.56 212.679 54C212.209 54.44 211.924 55.005 211.824 55.695H216.849C216.749 55.035 216.464 54.48 215.994 54.03C215.534 53.57 214.994 53.34 214.374 53.34Z" fill="#C54B25"/>
    <path d="M133.546 95.5566C133.326 95.5566 133.116 95.52 132.916 95.4468C132.716 95.3735 132.525 95.2759 132.345 95.1538C132.169 95.0366 131.998 94.9048 131.832 94.7583C131.666 94.6069 131.507 94.4531 131.356 94.2969C131.283 94.4531 131.195 94.5996 131.092 94.7363C130.995 94.8682 130.88 94.9854 130.748 95.0879C130.616 95.1904 130.47 95.271 130.309 95.3296C130.147 95.3882 129.972 95.4175 129.781 95.4175C129.532 95.4175 129.31 95.3735 129.115 95.2856C128.924 95.2026 128.763 95.0903 128.631 94.9487C128.5 94.8071 128.397 94.6436 128.324 94.458C128.255 94.2725 128.221 94.0771 128.221 93.8721C128.221 93.6279 128.268 93.4058 128.36 93.2056C128.453 93.0005 128.578 92.8271 128.734 92.6855C128.895 92.5391 129.078 92.4268 129.283 92.3486C129.488 92.2656 129.703 92.2241 129.928 92.2241C130.011 92.2241 130.091 92.2314 130.169 92.2461C130.252 92.2559 130.333 92.2729 130.411 92.2974C130.323 91.9751 130.211 91.6626 130.074 91.3599C129.938 91.0522 129.803 90.7397 129.671 90.4224C129.544 90.105 129.432 89.7705 129.334 89.4189C129.242 89.0674 129.195 88.6816 129.195 88.2617C129.195 87.9395 129.234 87.6196 129.312 87.3022C129.391 86.9849 129.5 86.6821 129.642 86.394C129.789 86.1011 129.967 85.8301 130.177 85.5811C130.387 85.332 130.624 85.1172 130.887 84.9365C131.151 84.751 131.439 84.6069 131.751 84.5044C132.069 84.4019 132.406 84.3506 132.762 84.3506C133.099 84.3506 133.404 84.4019 133.678 84.5044C133.951 84.6069 134.186 84.7485 134.381 84.9292C134.581 85.105 134.735 85.3174 134.842 85.5664C134.95 85.8105 135.003 86.0791 135.003 86.3721C135.003 86.665 134.959 86.9458 134.872 87.2144C134.784 87.4829 134.664 87.7344 134.513 87.9688C134.361 88.2031 134.186 88.4155 133.985 88.606C133.785 88.7964 133.573 88.96 133.348 89.0967C133.124 89.2334 132.894 89.3384 132.66 89.4116C132.425 89.4849 132.201 89.5215 131.986 89.5215C131.883 89.5215 131.786 89.5044 131.693 89.4702C131.605 89.436 131.524 89.3848 131.451 89.3164C131.383 89.248 131.327 89.1602 131.283 89.0527C131.244 88.9453 131.224 88.8184 131.224 88.6719C131.224 88.54 131.263 88.4741 131.341 88.4741C131.366 88.4741 131.397 88.4912 131.437 88.5254C131.48 88.5596 131.544 88.5767 131.627 88.5767C131.876 88.5767 132.13 88.5156 132.389 88.3936C132.647 88.2715 132.882 88.1152 133.092 87.9248C133.307 87.7295 133.48 87.5146 133.612 87.2803C133.749 87.041 133.817 86.8091 133.817 86.5845C133.817 86.438 133.795 86.3013 133.751 86.1743C133.707 86.0425 133.639 85.9277 133.546 85.8301C133.458 85.7275 133.346 85.6494 133.209 85.5957C133.072 85.5371 132.909 85.5078 132.718 85.5078C132.372 85.5078 132.057 85.5859 131.773 85.7422C131.49 85.8936 131.246 86.0986 131.041 86.3574C130.836 86.6113 130.677 86.9092 130.565 87.251C130.453 87.5879 130.396 87.9419 130.396 88.313C130.396 88.5718 130.426 88.8281 130.484 89.082C130.543 89.3311 130.616 89.5801 130.704 89.8291C130.792 90.0732 130.887 90.3223 130.99 90.5762C131.097 90.8252 131.195 91.084 131.283 91.3525C131.375 91.6162 131.454 91.8896 131.517 92.1729C131.581 92.4512 131.617 92.7441 131.627 93.0518C131.788 93.208 131.942 93.3643 132.088 93.5205C132.24 93.6768 132.389 93.8208 132.535 93.9526C132.682 94.0796 132.828 94.1846 132.975 94.2676C133.121 94.3457 133.272 94.3848 133.429 94.3848C133.639 94.3848 133.812 94.3384 133.949 94.2456C134.085 94.1528 134.195 94.0381 134.278 93.9014C134.361 93.7598 134.42 93.6084 134.454 93.4473C134.488 93.2861 134.505 93.1396 134.505 93.0078C134.505 92.9395 134.5 92.8857 134.491 92.8467C134.481 92.8027 134.476 92.7661 134.476 92.7368C134.476 92.6636 134.537 92.627 134.659 92.627C134.923 92.627 135.125 92.6953 135.267 92.832C135.409 92.9639 135.479 93.1226 135.479 93.3081C135.479 93.6011 135.433 93.8818 135.34 94.1504C135.248 94.4189 135.116 94.6582 134.945 94.8682C134.779 95.0781 134.576 95.2441 134.337 95.3662C134.098 95.4932 133.834 95.5566 133.546 95.5566ZM129.825 93.2568C129.674 93.2568 129.544 93.3081 129.437 93.4106C129.334 93.5132 129.283 93.6475 129.283 93.8135C129.283 93.9551 129.327 94.0845 129.415 94.2017C129.508 94.314 129.64 94.3701 129.811 94.3701C129.913 94.3701 130.003 94.3481 130.082 94.3042C130.165 94.2554 130.235 94.1919 130.294 94.1138C130.353 94.0356 130.399 93.9478 130.433 93.8501C130.472 93.7476 130.499 93.6401 130.514 93.5278C130.401 93.4448 130.289 93.3789 130.177 93.3301C130.064 93.2812 129.947 93.2568 129.825 93.2568ZM136.9 84.7241C136.998 84.7241 137.091 84.7437 137.179 84.7827C137.271 84.8169 137.352 84.8706 137.42 84.9438C137.489 85.0171 137.542 85.1099 137.582 85.2222C137.621 85.3296 137.64 85.459 137.64 85.6104C137.64 85.752 137.599 85.918 137.516 86.1084C137.433 86.2939 137.333 86.4722 137.215 86.6431C137.098 86.814 136.974 86.9604 136.842 87.0825C136.715 87.1997 136.605 87.2583 136.512 87.2583C136.449 87.2583 136.39 87.2437 136.336 87.2144C136.283 87.1802 136.236 87.1411 136.197 87.0972C136.163 87.0483 136.134 86.9971 136.109 86.9434C136.09 86.8896 136.08 86.8408 136.08 86.7969C136.08 86.7578 136.09 86.7358 136.109 86.731C136.129 86.7212 136.153 86.7065 136.183 86.687C136.236 86.6724 136.312 86.6113 136.41 86.5039C136.512 86.3916 136.617 86.2646 136.725 86.123C136.568 86.084 136.437 86.0034 136.329 85.8813C136.222 85.7544 136.168 85.6079 136.168 85.4419C136.168 85.3394 136.188 85.2466 136.227 85.1636C136.266 85.0757 136.319 85 136.388 84.9365C136.456 84.8682 136.534 84.8169 136.622 84.7827C136.71 84.7437 136.803 84.7241 136.9 84.7241ZM142.987 94.4287C143.138 94.4287 143.268 94.375 143.375 94.2676C143.487 94.1602 143.583 94.0259 143.661 93.8647C143.744 93.7036 143.81 93.5303 143.858 93.3447C143.912 93.1543 143.956 92.9761 143.99 92.8101C144.024 92.6538 144.073 92.5415 144.137 92.4731C144.205 92.3999 144.278 92.3633 144.356 92.3633C144.415 92.3633 144.474 92.3828 144.532 92.4219C144.596 92.4561 144.652 92.5024 144.701 92.561C144.754 92.6196 144.796 92.6855 144.825 92.7588C144.859 92.832 144.876 92.9053 144.876 92.9785C144.876 92.9883 144.876 93.0005 144.876 93.0151C144.876 93.0298 144.872 93.0518 144.862 93.0811C144.798 93.3301 144.71 93.5913 144.598 93.8647C144.491 94.1382 144.352 94.3896 144.181 94.6191C144.01 94.8486 143.802 95.0391 143.558 95.1904C143.319 95.3418 143.038 95.4175 142.716 95.4175C142.452 95.4175 142.223 95.3613 142.027 95.249C141.832 95.1367 141.678 94.9878 141.566 94.8022C141.415 94.9731 141.231 95.1172 141.017 95.2344C140.807 95.3564 140.56 95.4175 140.277 95.4175C139.984 95.4175 139.725 95.3589 139.5 95.2417C139.281 95.1245 139.095 94.9658 138.944 94.7656C138.792 94.5605 138.678 94.3213 138.6 94.0479C138.526 93.7695 138.49 93.4717 138.49 93.1543C138.49 92.5293 138.59 91.9678 138.79 91.4697C138.99 90.9717 139.256 90.5493 139.588 90.2026C139.92 89.8511 140.299 89.5825 140.724 89.397C141.153 89.2114 141.598 89.1187 142.057 89.1187C142.262 89.1187 142.428 89.1748 142.555 89.2871C142.682 89.3994 142.745 89.5532 142.745 89.7485C142.745 89.8755 142.73 89.9658 142.701 90.0195C142.677 90.0684 142.628 90.0928 142.555 90.0928C142.486 90.0928 142.416 90.0879 142.342 90.0781C142.269 90.0684 142.193 90.0635 142.115 90.0635C141.832 90.0635 141.544 90.127 141.251 90.2539C140.958 90.376 140.692 90.5664 140.453 90.8252C140.218 91.0791 140.025 91.4038 139.874 91.7993C139.723 92.1899 139.647 92.6562 139.647 93.1982C139.647 93.5938 139.723 93.8989 139.874 94.1138C140.025 94.3237 140.233 94.4287 140.497 94.4287C140.702 94.4287 140.873 94.353 141.009 94.2017C141.146 94.0454 141.256 93.8623 141.339 93.6523V91.3379C141.339 91.2646 141.334 91.2036 141.324 91.1548C141.319 91.106 141.312 91.0645 141.302 91.0303C141.297 90.9961 141.292 90.9668 141.288 90.9424C141.283 90.9131 141.28 90.8862 141.28 90.8618C141.28 90.7837 141.317 90.7227 141.39 90.6787C141.468 90.6299 141.561 90.6055 141.668 90.6055C141.917 90.6055 142.115 90.6714 142.262 90.8032C142.408 90.9302 142.481 91.084 142.481 91.2646V93.7402C142.481 93.8232 142.491 93.9062 142.511 93.9893C142.53 94.0674 142.56 94.1406 142.599 94.209C142.638 94.2725 142.689 94.3262 142.752 94.3701C142.821 94.4092 142.899 94.4287 142.987 94.4287ZM144.913 92.9419C144.874 93.0981 144.801 93.1958 144.693 93.2349C144.586 93.269 144.479 93.2642 144.371 93.2202C144.269 93.1763 144.181 93.1006 144.107 92.9932C144.039 92.8857 144.02 92.7686 144.049 92.6416C144.122 92.3096 144.227 91.9434 144.364 91.543C144.505 91.1377 144.645 90.7349 144.781 90.3345C144.708 90.2222 144.649 90.1099 144.605 89.9976C144.562 89.8804 144.54 89.7583 144.54 89.6313C144.54 89.5044 144.586 89.3726 144.679 89.2358C144.776 89.0942 144.891 88.9648 145.023 88.8477C145.16 88.7305 145.299 88.6353 145.44 88.562C145.587 88.4839 145.711 88.4448 145.814 88.4448C145.995 88.4448 146.129 88.5059 146.217 88.6279C146.31 88.75 146.356 88.9136 146.356 89.1187C146.356 89.231 146.336 89.3433 146.297 89.4556C146.263 89.563 146.224 89.6655 146.18 89.7632C146.136 89.856 146.095 89.9365 146.056 90.0049C146.021 90.0732 146.002 90.1172 145.997 90.1367C146.173 90.4492 146.356 90.7251 146.546 90.9644C146.737 91.2036 146.91 91.4404 147.066 91.6748C147.228 91.9092 147.359 92.1582 147.462 92.4219C147.564 92.6855 147.616 92.9956 147.616 93.3521C147.616 93.4399 147.608 93.5303 147.594 93.623C147.584 93.7158 147.567 93.8037 147.542 93.8867C147.718 93.8525 147.872 93.7988 148.004 93.7256C148.141 93.6523 148.258 93.5693 148.355 93.4766C148.458 93.3789 148.541 93.2739 148.604 93.1616C148.673 93.0493 148.729 92.9321 148.773 92.8101C148.827 92.6685 148.88 92.5659 148.934 92.5024C148.988 92.439 149.049 92.4072 149.117 92.4072C149.181 92.4072 149.244 92.4292 149.308 92.4731C149.376 92.5122 149.435 92.5635 149.483 92.627C149.537 92.6904 149.579 92.7563 149.608 92.8247C149.642 92.8931 149.659 92.9541 149.659 93.0078C149.659 93.0811 149.64 93.1689 149.601 93.2715C149.562 93.374 149.508 93.479 149.439 93.5864C149.376 93.6938 149.303 93.7988 149.22 93.9014C149.137 93.999 149.051 94.0845 148.963 94.1577C148.729 94.3481 148.453 94.5093 148.136 94.6411C147.818 94.7681 147.425 94.8486 146.957 94.8828C146.776 95.0391 146.561 95.166 146.312 95.2637C146.068 95.3662 145.792 95.4175 145.484 95.4175C145.328 95.4175 145.167 95.3979 145.001 95.3589C144.84 95.3198 144.684 95.2686 144.532 95.2051C144.386 95.1465 144.251 95.0806 144.129 95.0073C144.007 94.9341 143.91 94.8608 143.836 94.7876C143.651 94.6118 143.531 94.436 143.478 94.2603C143.424 94.0796 143.412 93.9185 143.441 93.7769C143.465 93.6353 143.517 93.5205 143.595 93.4326C143.673 93.3398 143.753 93.2935 143.836 93.2935C143.885 93.2935 143.961 93.3154 144.063 93.3594C144.171 93.3984 144.293 93.4521 144.43 93.5205C144.566 93.584 144.715 93.6523 144.876 93.7256C145.038 93.7988 145.199 93.8696 145.36 93.938C145.521 94.0015 145.677 94.0552 145.829 94.0991C145.985 94.1382 146.126 94.1577 146.253 94.1577C146.336 94.0601 146.412 93.9307 146.48 93.7695C146.549 93.6084 146.583 93.4326 146.583 93.2422C146.583 93.0078 146.551 92.7905 146.488 92.5903C146.424 92.3901 146.341 92.2046 146.239 92.0337C146.136 91.8628 146.019 91.7041 145.887 91.5576C145.76 91.4062 145.631 91.2646 145.499 91.1328C145.382 91.4209 145.279 91.7065 145.191 91.9897C145.104 92.2681 145.011 92.5854 144.913 92.9419ZM149.703 92.9419C149.664 93.0981 149.591 93.1958 149.483 93.2349C149.376 93.269 149.269 93.2642 149.161 93.2202C149.059 93.1763 148.971 93.1006 148.897 92.9932C148.829 92.8857 148.81 92.7686 148.839 92.6416C148.912 92.3096 149.017 91.9434 149.154 91.543C149.295 91.1377 149.435 90.7349 149.571 90.3345C149.498 90.2222 149.439 90.1099 149.396 89.9976C149.352 89.8804 149.33 89.7583 149.33 89.6313C149.33 89.5044 149.376 89.3726 149.469 89.2358C149.566 89.0942 149.681 88.9648 149.813 88.8477C149.95 88.7305 150.089 88.6353 150.23 88.562C150.377 88.4839 150.501 88.4448 150.604 88.4448C150.785 88.4448 150.919 88.5059 151.007 88.6279C151.1 88.75 151.146 88.9136 151.146 89.1187C151.146 89.231 151.126 89.3433 151.087 89.4556C151.053 89.563 151.014 89.6655 150.97 89.7632C150.926 89.856 150.885 89.9365 150.846 90.0049C150.812 90.0732 150.792 90.1172 150.787 90.1367C150.963 90.4492 151.146 90.7251 151.336 90.9644C151.527 91.2036 151.7 91.4404 151.856 91.6748C152.018 91.9092 152.149 92.1582 152.252 92.4219C152.354 92.6855 152.406 92.9956 152.406 93.3521C152.406 93.4399 152.398 93.5303 152.384 93.623C152.374 93.7158 152.357 93.8037 152.333 93.8867C152.508 93.8525 152.662 93.7988 152.794 93.7256C152.931 93.6523 153.048 93.5693 153.146 93.4766C153.248 93.3789 153.331 93.2739 153.395 93.1616C153.463 93.0493 153.519 92.9321 153.563 92.8101C153.617 92.6685 153.67 92.5659 153.724 92.5024C153.778 92.439 153.839 92.4072 153.907 92.4072C153.971 92.4072 154.034 92.4292 154.098 92.4731C154.166 92.5122 154.225 92.5635 154.273 92.627C154.327 92.6904 154.369 92.7563 154.398 92.8247C154.432 92.8931 154.449 92.9541 154.449 93.0078C154.449 93.0811 154.43 93.1689 154.391 93.2715C154.352 93.374 154.298 93.479 154.229 93.5864C154.166 93.6938 154.093 93.7988 154.01 93.9014C153.927 93.999 153.841 94.0845 153.753 94.1577C153.519 94.3481 153.243 94.5093 152.926 94.6411C152.608 94.7681 152.215 94.8486 151.747 94.8828C151.566 95.0391 151.351 95.166 151.102 95.2637C150.858 95.3662 150.582 95.4175 150.274 95.4175C150.118 95.4175 149.957 95.3979 149.791 95.3589C149.63 95.3198 149.474 95.2686 149.322 95.2051C149.176 95.1465 149.042 95.0806 148.919 95.0073C148.797 94.9341 148.7 94.8608 148.626 94.7876C148.441 94.6118 148.321 94.436 148.268 94.2603C148.214 94.0796 148.202 93.9185 148.231 93.7769C148.255 93.6353 148.307 93.5205 148.385 93.4326C148.463 93.3398 148.543 93.2935 148.626 93.2935C148.675 93.2935 148.751 93.3154 148.854 93.3594C148.961 93.3984 149.083 93.4521 149.22 93.5205C149.356 93.584 149.505 93.6523 149.667 93.7256C149.828 93.7988 149.989 93.8696 150.15 93.938C150.311 94.0015 150.467 94.0552 150.619 94.0991C150.775 94.1382 150.917 94.1577 151.043 94.1577C151.126 94.0601 151.202 93.9307 151.271 93.7695C151.339 93.6084 151.373 93.4326 151.373 93.2422C151.373 93.0078 151.341 92.7905 151.278 92.5903C151.214 92.3901 151.131 92.2046 151.029 92.0337C150.926 91.8628 150.809 91.7041 150.677 91.5576C150.55 91.4062 150.421 91.2646 150.289 91.1328C150.172 91.4209 150.069 91.7065 149.981 91.9897C149.894 92.2681 149.801 92.5854 149.703 92.9419ZM154.435 87.7856C154.312 87.7856 154.195 87.7612 154.083 87.7124C153.976 87.6636 153.88 87.5977 153.797 87.5146C153.719 87.4316 153.656 87.3364 153.607 87.229C153.558 87.1167 153.534 86.9971 153.534 86.8701C153.534 86.7383 153.558 86.6162 153.607 86.5039C153.656 86.3916 153.719 86.2964 153.797 86.2183C153.88 86.1353 153.976 86.0718 154.083 86.0278C154.195 85.979 154.312 85.9546 154.435 85.9546C154.566 85.9546 154.688 85.979 154.801 86.0278C154.913 86.0718 155.008 86.1353 155.086 86.2183C155.169 86.2964 155.233 86.3916 155.277 86.5039C155.326 86.6162 155.35 86.7383 155.35 86.8701C155.35 86.9971 155.326 87.1167 155.277 87.229C155.233 87.3364 155.169 87.4316 155.086 87.5146C155.008 87.5977 154.913 87.6636 154.801 87.7124C154.688 87.7612 154.566 87.7856 154.435 87.7856ZM154.779 93.7402C154.779 93.7744 154.781 93.8306 154.786 93.9087C154.791 93.9819 154.806 94.0576 154.83 94.1357C154.854 94.2139 154.894 94.2822 154.947 94.3408C155.001 94.3994 155.077 94.4287 155.174 94.4287C155.321 94.4287 155.448 94.375 155.555 94.2676C155.667 94.1602 155.763 94.0259 155.841 93.8647C155.924 93.7036 155.992 93.5303 156.046 93.3447C156.1 93.1543 156.144 92.9761 156.178 92.8101C156.207 92.6587 156.251 92.5488 156.31 92.4805C156.373 92.4121 156.439 92.3755 156.507 92.3706C156.581 92.3608 156.651 92.3779 156.72 92.4219C156.793 92.4658 156.856 92.5244 156.91 92.5977C156.969 92.666 157.01 92.7441 157.035 92.832C157.064 92.9199 157.069 93.0029 157.049 93.0811C156.981 93.3301 156.891 93.5913 156.778 93.8647C156.671 94.1382 156.532 94.3896 156.361 94.6191C156.19 94.8486 155.985 95.0391 155.746 95.1904C155.506 95.3418 155.226 95.4175 154.903 95.4175C154.703 95.4175 154.525 95.3784 154.369 95.3003C154.212 95.2271 154.081 95.127 153.973 95C153.866 94.873 153.783 94.7241 153.724 94.5532C153.67 94.3823 153.644 94.2017 153.644 94.0112V90.0049C153.644 89.8633 153.631 89.7607 153.607 89.6973C153.587 89.6338 153.578 89.5752 153.578 89.5215C153.578 89.4482 153.617 89.3896 153.695 89.3457C153.773 89.2969 153.866 89.2725 153.973 89.2725C154.222 89.2725 154.417 89.3384 154.559 89.4702C154.706 89.5972 154.779 89.751 154.779 89.9316V93.7402ZM159.686 90.6348C159.686 90.9131 159.637 91.1987 159.54 91.4917C159.447 91.7847 159.305 92.063 159.115 92.3267C158.929 92.5854 158.697 92.8198 158.419 93.0298C158.146 93.2349 157.828 93.3911 157.467 93.4985C157.516 93.6255 157.579 93.7476 157.657 93.8647C157.74 93.9771 157.838 94.0747 157.95 94.1577C158.062 94.2407 158.192 94.3066 158.338 94.3555C158.49 94.4043 158.663 94.4287 158.858 94.4287C159.151 94.4287 159.403 94.375 159.613 94.2676C159.823 94.1553 159.999 94.0088 160.14 93.8281C160.287 93.6475 160.404 93.4448 160.492 93.2202C160.58 92.9956 160.646 92.7686 160.689 92.5391C160.724 92.373 160.792 92.2632 160.895 92.2095C161.002 92.1509 161.109 92.1362 161.217 92.1655C161.329 92.1948 161.424 92.2583 161.502 92.356C161.585 92.4487 161.62 92.561 161.605 92.6929C161.585 92.8442 161.551 93.0176 161.502 93.2129C161.458 93.4082 161.39 93.606 161.297 93.8062C161.205 94.0063 161.085 94.2041 160.938 94.3994C160.797 94.5898 160.621 94.7607 160.411 94.9121C160.201 95.0635 159.955 95.1855 159.671 95.2783C159.388 95.3711 159.063 95.4175 158.697 95.4175C158.355 95.4175 158.023 95.3491 157.701 95.2124C157.384 95.0806 157.101 94.8901 156.852 94.6411C156.607 94.3872 156.41 94.0771 156.258 93.7109C156.112 93.3398 156.039 92.9199 156.039 92.4512C156.039 91.9775 156.104 91.5381 156.236 91.1328C156.368 90.7227 156.542 90.3687 156.756 90.0708C156.971 89.7729 157.215 89.541 157.489 89.375C157.762 89.2041 158.043 89.1187 158.331 89.1187C158.541 89.1187 158.729 89.1553 158.895 89.2285C159.066 89.3018 159.21 89.4067 159.327 89.5435C159.444 89.6753 159.532 89.834 159.591 90.0195C159.654 90.2051 159.686 90.4102 159.686 90.6348ZM157.269 92.4072C157.269 92.4512 157.271 92.4951 157.276 92.5391C157.281 92.583 157.284 92.6294 157.284 92.6782C157.469 92.5903 157.638 92.478 157.789 92.3413C157.94 92.2046 158.07 92.0483 158.177 91.8726C158.285 91.6968 158.368 91.5063 158.426 91.3013C158.485 91.0913 158.514 90.874 158.514 90.6494C158.514 90.4834 158.485 90.354 158.426 90.2612C158.373 90.1685 158.297 90.1221 158.199 90.1221C158.077 90.1221 157.967 90.1636 157.87 90.2466C157.777 90.3296 157.694 90.4395 157.621 90.5762C157.552 90.708 157.494 90.8594 157.445 91.0303C157.401 91.1963 157.364 91.3647 157.335 91.5356C157.306 91.7065 157.286 91.8701 157.276 92.0264C157.267 92.1777 157.264 92.3047 157.269 92.4072ZM159.334 87.9468C159.447 87.9565 159.571 87.9639 159.708 87.9688C159.825 87.9785 159.967 87.9858 160.133 87.9907C160.299 87.9907 160.484 87.9932 160.689 87.998V85.4565C160.689 85.3491 160.68 85.2637 160.66 85.2002C160.646 85.1367 160.628 85.0879 160.609 85.0537C160.594 85.0146 160.577 84.9854 160.558 84.9658C160.543 84.9414 160.536 84.917 160.536 84.8926C160.536 84.8633 160.55 84.8389 160.58 84.8193C160.609 84.7998 160.648 84.7827 160.697 84.7681C160.746 84.7534 160.797 84.7437 160.851 84.7388C160.909 84.729 160.965 84.7241 161.019 84.7241C161.268 84.7241 161.463 84.79 161.605 84.9219C161.751 85.0488 161.825 85.2026 161.825 85.3833V88.0127C162.284 88.0127 162.767 88.0078 163.275 87.998C163.788 87.9883 164.3 87.9712 164.813 87.9468C164.881 87.8735 164.935 87.8467 164.974 87.8662C165.018 87.8857 165.045 87.9321 165.055 88.0054C165.069 88.0786 165.072 88.1689 165.062 88.2764C165.052 88.3838 165.033 88.4888 165.003 88.5913C164.974 88.689 164.933 88.7744 164.879 88.8477C164.83 88.9209 164.774 88.9575 164.71 88.9575C164.11 88.9722 163.578 88.9819 163.114 88.9868C162.655 88.9868 162.225 88.9868 161.825 88.9868V93.7402C161.825 93.9844 161.871 94.1602 161.964 94.2676C162.057 94.375 162.181 94.4287 162.337 94.4287C162.489 94.4287 162.618 94.375 162.726 94.2676C162.838 94.1602 162.933 94.0259 163.011 93.8647C163.094 93.7036 163.16 93.5303 163.209 93.3447C163.263 93.1543 163.307 92.9761 163.341 92.8101C163.37 92.6538 163.419 92.5415 163.487 92.4731C163.556 92.3999 163.626 92.3633 163.7 92.3633C163.758 92.3633 163.819 92.3828 163.883 92.4219C163.946 92.4561 164.002 92.5024 164.051 92.561C164.105 92.6196 164.146 92.6855 164.176 92.7588C164.21 92.832 164.227 92.9053 164.227 92.9785C164.227 92.9883 164.227 93.0005 164.227 93.0151C164.227 93.0298 164.222 93.0518 164.212 93.0811C164.149 93.3301 164.061 93.5913 163.949 93.8647C163.841 94.1382 163.7 94.3896 163.524 94.6191C163.353 94.8486 163.148 95.0391 162.909 95.1904C162.669 95.3418 162.389 95.4175 162.066 95.4175C161.866 95.4175 161.681 95.3857 161.51 95.3223C161.344 95.2637 161.2 95.166 161.078 95.0293C160.956 94.8975 160.86 94.7266 160.792 94.5166C160.724 94.3066 160.689 94.0527 160.689 93.7549V88.9868C160.523 88.9868 160.375 88.9868 160.243 88.9868C160.116 88.9819 160.008 88.9771 159.92 88.9722C159.818 88.9673 159.728 88.9624 159.649 88.9575C159.532 88.9575 159.43 88.9062 159.342 88.8037C159.249 88.6963 159.186 88.5791 159.151 88.4521C159.112 88.3252 159.107 88.2104 159.137 88.1079C159.161 88.0005 159.227 87.9468 159.334 87.9468ZM162.059 87.9468C162.171 87.9565 162.296 87.9639 162.433 87.9688C162.55 87.9785 162.691 87.9858 162.857 87.9907C163.023 87.9907 163.209 87.9932 163.414 87.998V85.4565C163.414 85.3491 163.404 85.2637 163.385 85.2002C163.37 85.1367 163.353 85.0879 163.333 85.0537C163.319 85.0146 163.302 84.9854 163.282 84.9658C163.268 84.9414 163.26 84.917 163.26 84.8926C163.26 84.8633 163.275 84.8389 163.304 84.8193C163.333 84.7998 163.373 84.7827 163.421 84.7681C163.47 84.7534 163.521 84.7437 163.575 84.7388C163.634 84.729 163.69 84.7241 163.744 84.7241C163.993 84.7241 164.188 84.79 164.33 84.9219C164.476 85.0488 164.549 85.2026 164.549 85.3833V88.0127C165.008 88.0127 165.492 88.0078 166 87.998C166.512 87.9883 167.025 87.9712 167.538 87.9468C167.606 87.8735 167.66 87.8467 167.699 87.8662C167.743 87.8857 167.77 87.9321 167.779 88.0054C167.794 88.0786 167.796 88.1689 167.787 88.2764C167.777 88.3838 167.757 88.4888 167.728 88.5913C167.699 88.689 167.657 88.7744 167.604 88.8477C167.555 88.9209 167.499 88.9575 167.435 88.9575C166.834 88.9722 166.302 88.9819 165.838 88.9868C165.379 88.9868 164.95 88.9868 164.549 88.9868V93.7402C164.549 93.9844 164.596 94.1602 164.688 94.2676C164.781 94.375 164.906 94.4287 165.062 94.4287C165.213 94.4287 165.343 94.375 165.45 94.2676C165.562 94.1602 165.658 94.0259 165.736 93.8647C165.819 93.7036 165.885 93.5303 165.934 93.3447C165.987 93.1543 166.031 92.9761 166.065 92.8101C166.095 92.6538 166.144 92.5415 166.212 92.4731C166.28 92.3999 166.351 92.3633 166.424 92.3633C166.483 92.3633 166.544 92.3828 166.607 92.4219C166.671 92.4561 166.727 92.5024 166.776 92.561C166.83 92.6196 166.871 92.6855 166.9 92.7588C166.935 92.832 166.952 92.9053 166.952 92.9785C166.952 92.9883 166.952 93.0005 166.952 93.0151C166.952 93.0298 166.947 93.0518 166.937 93.0811C166.874 93.3301 166.786 93.5913 166.673 93.8647C166.566 94.1382 166.424 94.3896 166.249 94.6191C166.078 94.8486 165.873 95.0391 165.633 95.1904C165.394 95.3418 165.113 95.4175 164.791 95.4175C164.591 95.4175 164.405 95.3857 164.234 95.3223C164.068 95.2637 163.924 95.166 163.802 95.0293C163.68 94.8975 163.585 94.7266 163.517 94.5166C163.448 94.3066 163.414 94.0527 163.414 93.7549V88.9868C163.248 88.9868 163.099 88.9868 162.967 88.9868C162.84 88.9819 162.733 88.9771 162.645 88.9722C162.542 88.9673 162.452 88.9624 162.374 88.9575C162.257 88.9575 162.154 88.9062 162.066 88.8037C161.974 88.6963 161.91 88.5791 161.876 88.4521C161.837 88.3252 161.832 88.2104 161.861 88.1079C161.886 88.0005 161.952 87.9468 162.059 87.9468ZM169.588 90.6348C169.588 90.9131 169.54 91.1987 169.442 91.4917C169.349 91.7847 169.208 92.063 169.017 92.3267C168.832 92.5854 168.6 92.8198 168.321 93.0298C168.048 93.2349 167.73 93.3911 167.369 93.4985C167.418 93.6255 167.481 93.7476 167.56 93.8647C167.643 93.9771 167.74 94.0747 167.853 94.1577C167.965 94.2407 168.094 94.3066 168.241 94.3555C168.392 94.4043 168.565 94.4287 168.761 94.4287C169.054 94.4287 169.305 94.375 169.515 94.2676C169.725 94.1553 169.901 94.0088 170.042 93.8281C170.189 93.6475 170.306 93.4448 170.394 93.2202C170.482 92.9956 170.548 92.7686 170.592 92.5391C170.626 92.373 170.694 92.2632 170.797 92.2095C170.904 92.1509 171.012 92.1362 171.119 92.1655C171.231 92.1948 171.327 92.2583 171.405 92.356C171.488 92.4487 171.522 92.561 171.507 92.6929C171.488 92.8442 171.454 93.0176 171.405 93.2129C171.361 93.4082 171.292 93.606 171.2 93.8062C171.107 94.0063 170.987 94.2041 170.841 94.3994C170.699 94.5898 170.523 94.7607 170.313 94.9121C170.104 95.0635 169.857 95.1855 169.574 95.2783C169.291 95.3711 168.966 95.4175 168.6 95.4175C168.258 95.4175 167.926 95.3491 167.604 95.2124C167.286 95.0806 167.003 94.8901 166.754 94.6411C166.51 94.3872 166.312 94.0771 166.161 93.7109C166.014 93.3398 165.941 92.9199 165.941 92.4512C165.941 91.9775 166.007 91.5381 166.139 91.1328C166.271 90.7227 166.444 90.3687 166.659 90.0708C166.874 89.7729 167.118 89.541 167.391 89.375C167.665 89.2041 167.945 89.1187 168.233 89.1187C168.443 89.1187 168.631 89.1553 168.797 89.2285C168.968 89.3018 169.112 89.4067 169.229 89.5435C169.347 89.6753 169.435 89.834 169.493 90.0195C169.557 90.2051 169.588 90.4102 169.588 90.6348ZM167.171 92.4072C167.171 92.4512 167.174 92.4951 167.179 92.5391C167.184 92.583 167.186 92.6294 167.186 92.6782C167.372 92.5903 167.54 92.478 167.691 92.3413C167.843 92.2046 167.972 92.0483 168.08 91.8726C168.187 91.6968 168.27 91.5063 168.329 91.3013C168.387 91.0913 168.417 90.874 168.417 90.6494C168.417 90.4834 168.387 90.354 168.329 90.2612C168.275 90.1685 168.199 90.1221 168.102 90.1221C167.979 90.1221 167.87 90.1636 167.772 90.2466C167.679 90.3296 167.596 90.4395 167.523 90.5762C167.455 90.708 167.396 90.8594 167.347 91.0303C167.303 91.1963 167.267 91.3647 167.237 91.5356C167.208 91.7065 167.188 91.8701 167.179 92.0264C167.169 92.1777 167.167 92.3047 167.171 92.4072Z" fill="black"/>
    <path d="M115.832 120.53H112.712C112.592 120.53 112.532 120.475 112.532 120.365V120.035C112.532 119.925 112.592 119.87 112.712 119.87H115.832C115.952 119.87 116.012 119.925 116.012 120.035V120.365C116.012 120.475 115.952 120.53 115.832 120.53ZM122.8 125H118.03C117.93 125 117.88 124.94 117.88 124.82V115.535C117.88 115.415 117.93 115.355 118.03 115.355H118.465C118.575 115.355 118.63 115.415 118.63 115.535V124.16C118.63 124.25 118.68 124.295 118.78 124.295H122.8C122.92 124.295 122.98 124.35 122.98 124.46V124.835C122.98 124.945 122.92 125 122.8 125ZM125.113 115.52V116.555C125.113 116.715 125.058 117.015 124.948 117.455L124.558 118.82C124.548 118.89 124.503 118.925 124.423 118.925C124.353 118.925 124.318 118.88 124.318 118.79V115.52C124.318 115.41 124.373 115.355 124.483 115.355H124.948C125.058 115.355 125.113 115.41 125.113 115.52ZM127.073 125H126.608C126.498 125 126.463 124.94 126.503 124.82L129.488 115.535C129.518 115.415 129.588 115.355 129.698 115.355H130.403C130.503 115.355 130.573 115.415 130.613 115.535L133.598 124.82C133.628 124.94 133.593 125 133.493 125H133.013C132.913 125 132.848 124.94 132.818 124.82L132.008 122.42H128.078L127.268 124.82C127.228 124.94 127.163 125 127.073 125ZM130.013 116.18L128.288 121.745H131.813L130.073 116.18H130.013ZM135.266 122.87V122.33C135.266 122.22 135.321 122.165 135.431 122.165H135.866C135.976 122.165 136.031 122.22 136.031 122.33V122.825C136.031 123.825 136.516 124.325 137.486 124.325H139.046C140.016 124.325 140.501 123.82 140.501 122.81V122.18C140.501 121.74 140.321 121.395 139.961 121.145C139.601 120.895 139.166 120.715 138.656 120.605C138.146 120.495 137.631 120.38 137.111 120.26C136.601 120.14 136.166 119.92 135.806 119.6C135.446 119.28 135.266 118.85 135.266 118.31V117.485C135.266 116.825 135.456 116.305 135.836 115.925C136.216 115.545 136.731 115.355 137.381 115.355H139.121C139.771 115.355 140.286 115.545 140.666 115.925C141.046 116.305 141.236 116.825 141.236 117.485V117.905C141.236 118.015 141.181 118.07 141.071 118.07H140.636C140.526 118.07 140.471 118.015 140.471 117.905V117.53C140.471 116.53 139.986 116.03 139.016 116.03H137.471C136.511 116.03 136.031 116.54 136.031 117.56V118.31C136.031 119 136.646 119.465 137.876 119.705C138.386 119.805 138.896 119.92 139.406 120.05C139.926 120.18 140.366 120.415 140.726 120.755C141.086 121.095 141.266 121.555 141.266 122.135V122.87C141.266 123.53 141.076 124.05 140.696 124.43C140.316 124.81 139.801 125 139.151 125H137.381C136.731 125 136.216 124.81 135.836 124.43C135.456 124.05 135.266 123.53 135.266 122.87ZM143.689 122.87V122.33C143.689 122.22 143.744 122.165 143.854 122.165H144.289C144.399 122.165 144.454 122.22 144.454 122.33V122.825C144.454 123.825 144.939 124.325 145.909 124.325H147.469C148.439 124.325 148.924 123.82 148.924 122.81V122.18C148.924 121.74 148.744 121.395 148.384 121.145C148.024 120.895 147.589 120.715 147.079 120.605C146.569 120.495 146.054 120.38 145.534 120.26C145.024 120.14 144.589 119.92 144.229 119.6C143.869 119.28 143.689 118.85 143.689 118.31V117.485C143.689 116.825 143.879 116.305 144.259 115.925C144.639 115.545 145.154 115.355 145.804 115.355H147.544C148.194 115.355 148.709 115.545 149.089 115.925C149.469 116.305 149.659 116.825 149.659 117.485V117.905C149.659 118.015 149.604 118.07 149.494 118.07H149.059C148.949 118.07 148.894 118.015 148.894 117.905V117.53C148.894 116.53 148.409 116.03 147.439 116.03H145.894C144.934 116.03 144.454 116.54 144.454 117.56V118.31C144.454 119 145.069 119.465 146.299 119.705C146.809 119.805 147.319 119.92 147.829 120.05C148.349 120.18 148.789 120.415 149.149 120.755C149.509 121.095 149.689 121.555 149.689 122.135V122.87C149.689 123.53 149.499 124.05 149.119 124.43C148.739 124.81 148.224 125 147.574 125H145.804C145.154 125 144.639 124.81 144.259 124.43C143.879 124.05 143.689 123.53 143.689 122.87ZM152.997 115.535V124.82C152.997 124.94 152.942 125 152.832 125H152.397C152.297 125 152.247 124.94 152.247 124.82V115.535C152.247 115.415 152.297 115.355 152.397 115.355H152.832C152.942 115.355 152.997 115.415 152.997 115.535ZM160.414 125H155.779C155.679 125 155.629 124.94 155.629 124.82V115.535C155.629 115.415 155.679 115.355 155.779 115.355H160.414C160.534 115.355 160.594 115.41 160.594 115.52V115.865C160.594 115.975 160.534 116.03 160.414 116.03H156.529C156.429 116.03 156.379 116.075 156.379 116.165V119.615C156.379 119.705 156.429 119.75 156.529 119.75H159.994C160.104 119.75 160.159 119.805 160.159 119.915V120.26C160.159 120.37 160.104 120.425 159.994 120.425H156.529C156.429 120.425 156.379 120.47 156.379 120.56V124.19C156.379 124.28 156.429 124.325 156.529 124.325H160.414C160.534 124.325 160.594 124.38 160.594 124.49V124.835C160.594 124.945 160.534 125 160.414 125ZM164.951 125H164.516C164.406 125 164.351 124.94 164.351 124.82V116.165C164.351 116.075 164.301 116.03 164.201 116.03H162.026C161.906 116.03 161.846 115.975 161.846 115.865V115.52C161.846 115.41 161.906 115.355 162.026 115.355H167.426C167.546 115.355 167.606 115.41 167.606 115.52V115.865C167.606 115.975 167.546 116.03 167.426 116.03H165.251C165.151 116.03 165.101 116.075 165.101 116.165V124.82C165.101 124.94 165.051 125 164.951 125ZM171.25 125H170.815C170.705 125 170.65 124.94 170.65 124.82V116.165C170.65 116.075 170.6 116.03 170.5 116.03H168.325C168.205 116.03 168.145 115.975 168.145 115.865V115.52C168.145 115.41 168.205 115.355 168.325 115.355H173.725C173.845 115.355 173.905 115.41 173.905 115.52V115.865C173.905 115.975 173.845 116.03 173.725 116.03H171.55C171.45 116.03 171.4 116.075 171.4 116.165V124.82C171.4 124.94 171.35 125 171.25 125ZM180.233 125H175.598C175.498 125 175.448 124.94 175.448 124.82V115.535C175.448 115.415 175.498 115.355 175.598 115.355H180.233C180.353 115.355 180.413 115.41 180.413 115.52V115.865C180.413 115.975 180.353 116.03 180.233 116.03H176.348C176.248 116.03 176.198 116.075 176.198 116.165V119.615C176.198 119.705 176.248 119.75 176.348 119.75H179.813C179.923 119.75 179.978 119.805 179.978 119.915V120.26C179.978 120.37 179.923 120.425 179.813 120.425H176.348C176.248 120.425 176.198 120.47 176.198 120.56V124.19C176.198 124.28 176.248 124.325 176.348 124.325H180.233C180.353 124.325 180.413 124.38 180.413 124.49V124.835C180.413 124.945 180.353 125 180.233 125ZM185.295 120.53H182.175C182.055 120.53 181.995 120.475 181.995 120.365V120.035C181.995 119.925 182.055 119.87 182.175 119.87H185.295C185.415 119.87 185.475 119.925 185.475 120.035V120.365C185.475 120.475 185.415 120.53 185.295 120.53Z" fill="#4E4444"/>
</svg>