<svg width="300" height="131" viewBox="0 0 300 131" fill="none" xmlns="http://www.w3.org/2000/svg">
    <path d="M20.1252 13.73V12.875C20.1252 12.615 20.2002 12.285 20.3502 11.885L20.8452 10.475C20.8752 10.395 20.9302 10.355 21.0102 10.355C21.1202 10.355 21.1752 10.415 21.1752 10.535V13.73C21.1752 13.86 21.1102 13.925 20.9802 13.925H20.3202C20.1902 13.925 20.1252 13.86 20.1252 13.73ZM17.8152 13.73V12.875C17.8152 12.665 17.8902 12.335 18.0402 11.885L18.5352 10.475C18.5852 10.395 18.6452 10.355 18.7152 10.355C18.8152 10.355 18.8652 10.415 18.8652 10.535V13.73C18.8652 13.86 18.8002 13.925 18.6702 13.925H18.0252C17.8852 13.925 17.8152 13.86 17.8152 13.73ZM28.315 10.355H28.99C29.13 10.355 29.2 10.42 29.2 10.55V17.78C29.2 18.48 29.005 19.025 28.615 19.415C28.225 19.805 27.685 20 26.995 20H25.33C24.64 20 24.095 19.805 23.695 19.415C23.305 19.025 23.11 18.48 23.11 17.78V10.565C23.11 10.425 23.18 10.355 23.32 10.355H23.995C24.135 10.355 24.205 10.425 24.205 10.565V17.735C24.205 18.605 24.62 19.04 25.45 19.04H26.86C27.7 19.04 28.12 18.605 28.12 17.735V10.565C28.12 10.425 28.185 10.355 28.315 10.355ZM32.3607 20H31.7007C31.5607 20 31.4907 19.93 31.4907 19.79V10.565C31.4907 10.425 31.5607 10.355 31.7007 10.355H32.3157C32.4357 10.355 32.5157 10.395 32.5557 10.475L36.6957 17.75H36.7557V10.565C36.7557 10.425 36.8257 10.355 36.9657 10.355H37.6257C37.7657 10.355 37.8357 10.425 37.8357 10.565V19.79C37.8357 19.93 37.7657 20 37.6257 20H37.0707C36.9607 20 36.8557 19.935 36.7557 19.805L32.6307 12.605H32.5707V19.79C32.5707 19.93 32.5007 20 32.3607 20ZM45.1265 20H40.4165C40.2765 20 40.2065 19.93 40.2065 19.79V10.565C40.2065 10.425 40.2765 10.355 40.4165 10.355H45.1265C45.2665 10.355 45.3365 10.425 45.3365 10.565V11.105C45.3365 11.245 45.2665 11.315 45.1265 11.315H41.4515C41.3515 11.315 41.3015 11.36 41.3015 11.45V14.48C41.3015 14.57 41.3515 14.615 41.4515 14.615H44.6615C44.8015 14.615 44.8715 14.685 44.8715 14.825V15.365C44.8715 15.505 44.8015 15.575 44.6615 15.575H41.4515C41.3515 15.575 41.3015 15.62 41.3015 15.71V18.905C41.3015 18.995 41.3515 19.04 41.4515 19.04H45.1265C45.2665 19.04 45.3365 19.11 45.3365 19.25V19.79C45.3365 19.93 45.2665 20 45.1265 20ZM51.3421 20H50.5921C50.4621 20 50.4171 19.93 50.4571 19.79L53.2621 10.565C53.3021 10.425 53.3971 10.355 53.5471 10.355H54.6271C54.7771 10.355 54.8721 10.425 54.9121 10.565L57.7171 19.79C57.7571 19.93 57.7121 20 57.5821 20H56.8171C56.7071 20 56.6371 19.93 56.6071 19.79L55.9021 17.6H52.2721L51.5671 19.79C51.5271 19.93 51.4521 20 51.3421 20ZM54.0571 11.48L52.5121 16.67H55.6621L54.1171 11.48H54.0571ZM60.5677 19.04H63.0877C63.9277 19.04 64.3477 18.605 64.3477 17.735V12.62C64.3477 11.75 63.9277 11.315 63.0877 11.315H60.5677C60.4677 11.315 60.4177 11.36 60.4177 11.45V18.905C60.4177 18.995 60.4677 19.04 60.5677 19.04ZM59.3227 19.79V10.565C59.3227 10.425 59.3927 10.355 59.5327 10.355H63.2227C63.9127 10.355 64.4527 10.555 64.8427 10.955C65.2427 11.345 65.4427 11.885 65.4427 12.575V17.78C65.4427 18.47 65.2427 19.015 64.8427 19.415C64.4527 19.805 63.9127 20 63.2227 20H59.5327C59.3927 20 59.3227 19.93 59.3227 19.79ZM68.5427 20H67.8677C67.7277 20 67.6577 19.93 67.6577 19.79V10.565C67.6577 10.425 67.7277 10.355 67.8677 10.355H71.3177C72.0077 10.355 72.5527 10.555 72.9527 10.955C73.3527 11.345 73.5527 11.885 73.5527 12.575V13.94C73.5527 14.5 73.4177 14.965 73.1477 15.335C72.8777 15.695 72.5027 15.935 72.0227 16.055V16.115L73.7627 19.76C73.8527 19.92 73.8027 20 73.6127 20H72.9377C72.7677 20 72.6427 19.93 72.5627 19.79L70.8827 16.16H68.9027C68.8027 16.16 68.7527 16.205 68.7527 16.295V19.79C68.7527 19.93 68.6827 20 68.5427 20ZM68.9027 15.245H71.1677C72.0277 15.245 72.4577 14.815 72.4577 13.955V12.62C72.4577 11.75 72.0277 11.315 71.1677 11.315H68.9027C68.8027 11.315 68.7527 11.36 68.7527 11.45V15.11C68.7527 15.2 68.8027 15.245 68.9027 15.245ZM80.6343 20H75.9243C75.7843 20 75.7143 19.93 75.7143 19.79V10.565C75.7143 10.425 75.7843 10.355 75.9243 10.355H80.6343C80.7743 10.355 80.8443 10.425 80.8443 10.565V11.105C80.8443 11.245 80.7743 11.315 80.6343 11.315H76.9593C76.8593 11.315 76.8093 11.36 76.8093 11.45V14.48C76.8093 14.57 76.8593 14.615 76.9593 14.615H80.1693C80.3093 14.615 80.3793 14.685 80.3793 14.825V15.365C80.3793 15.505 80.3093 15.575 80.1693 15.575H76.9593C76.8593 15.575 76.8093 15.62 76.8093 15.71V18.905C76.8093 18.995 76.8593 19.04 76.9593 19.04H80.6343C80.7743 19.04 80.8443 19.11 80.8443 19.25V19.79C80.8443 19.93 80.7743 20 80.6343 20ZM82.8163 17.78V17.3C82.8163 17.16 82.8863 17.09 83.0263 17.09H83.7013C83.8413 17.09 83.9113 17.16 83.9113 17.3V17.69C83.9113 18.59 84.3563 19.04 85.2463 19.04H86.5663C87.4563 19.04 87.9013 18.58 87.9013 17.66V17.15C87.9013 16.43 87.3063 15.96 86.1163 15.74C85.6163 15.65 85.1163 15.545 84.6163 15.425C84.1163 15.305 83.6913 15.075 83.3413 14.735C82.9913 14.385 82.8163 13.91 82.8163 13.31V12.575C82.8163 11.885 83.0113 11.345 83.4013 10.955C83.8013 10.555 84.3463 10.355 85.0363 10.355H86.7013C87.3813 10.355 87.9213 10.555 88.3213 10.955C88.7213 11.345 88.9213 11.885 88.9213 12.575V12.95C88.9213 13.1 88.8563 13.175 88.7263 13.175H88.0363C87.9063 13.175 87.8413 13.1 87.8413 12.95V12.68C87.8413 11.77 87.3963 11.315 86.5063 11.315H85.2313C84.3413 11.315 83.8963 11.79 83.8963 12.74V13.34C83.8963 13.85 84.2313 14.2 84.9013 14.39C85.2013 14.47 85.5313 14.545 85.8913 14.615C86.2513 14.675 86.6113 14.76 86.9713 14.87C87.3413 14.97 87.6763 15.1 87.9763 15.26C88.2763 15.41 88.5163 15.645 88.6963 15.965C88.8863 16.275 88.9813 16.655 88.9813 17.105V17.78C88.9813 18.47 88.7813 19.015 88.3813 19.415C87.9813 19.805 87.4413 20 86.7613 20H85.0363C84.3563 20 83.8163 19.805 83.4163 19.415C83.0163 19.015 82.8163 18.47 82.8163 17.78ZM91.1366 17.78V17.3C91.1366 17.16 91.2066 17.09 91.3466 17.09H92.0216C92.1616 17.09 92.2316 17.16 92.2316 17.3V17.69C92.2316 18.59 92.6766 19.04 93.5666 19.04H94.8866C95.7766 19.04 96.2216 18.58 96.2216 17.66V17.15C96.2216 16.43 95.6266 15.96 94.4366 15.74C93.9366 15.65 93.4366 15.545 92.9366 15.425C92.4366 15.305 92.0116 15.075 91.6616 14.735C91.3116 14.385 91.1366 13.91 91.1366 13.31V12.575C91.1366 11.885 91.3316 11.345 91.7216 10.955C92.1216 10.555 92.6666 10.355 93.3566 10.355H95.0216C95.7016 10.355 96.2416 10.555 96.6416 10.955C97.0416 11.345 97.2416 11.885 97.2416 12.575V12.95C97.2416 13.1 97.1766 13.175 97.0466 13.175H96.3566C96.2266 13.175 96.1616 13.1 96.1616 12.95V12.68C96.1616 11.77 95.7166 11.315 94.8266 11.315H93.5516C92.6616 11.315 92.2166 11.79 92.2166 12.74V13.34C92.2166 13.85 92.5516 14.2 93.2216 14.39C93.5216 14.47 93.8516 14.545 94.2116 14.615C94.5716 14.675 94.9316 14.76 95.2916 14.87C95.6616 14.97 95.9966 15.1 96.2966 15.26C96.5966 15.41 96.8366 15.645 97.0166 15.965C97.2066 16.275 97.3016 16.655 97.3016 17.105V17.78C97.3016 18.47 97.1016 19.015 96.7016 19.415C96.3016 19.805 95.7616 20 95.0816 20H93.3566C92.6766 20 92.1366 19.805 91.7366 19.415C91.3366 19.015 91.1366 18.47 91.1366 17.78ZM104.482 20H99.772C99.632 20 99.562 19.93 99.562 19.79V10.565C99.562 10.425 99.632 10.355 99.772 10.355H104.482C104.622 10.355 104.692 10.425 104.692 10.565V11.105C104.692 11.245 104.622 11.315 104.482 11.315H100.807C100.707 11.315 100.657 11.36 100.657 11.45V14.48C100.657 14.57 100.707 14.615 100.807 14.615H104.017C104.157 14.615 104.227 14.685 104.227 14.825V15.365C104.227 15.505 104.157 15.575 104.017 15.575H100.807C100.707 15.575 100.657 15.62 100.657 15.71V18.905C100.657 18.995 100.707 19.04 100.807 19.04H104.482C104.622 19.04 104.692 19.11 104.692 19.25V19.79C104.692 19.93 104.622 20 104.482 20ZM110.698 20H109.948C109.818 20 109.773 19.93 109.813 19.79L112.618 10.565C112.658 10.425 112.753 10.355 112.903 10.355H113.983C114.133 10.355 114.228 10.425 114.268 10.565L117.073 19.79C117.113 19.93 117.068 20 116.938 20H116.173C116.063 20 115.993 19.93 115.963 19.79L115.258 17.6H111.628L110.923 19.79C110.883 19.93 110.808 20 110.698 20ZM113.413 11.48L111.868 16.67H115.018L113.473 11.48H113.413ZM127.407 20H122.697C122.557 20 122.487 19.93 122.487 19.79V10.565C122.487 10.425 122.557 10.355 122.697 10.355H127.407C127.547 10.355 127.617 10.425 127.617 10.565V11.105C127.617 11.245 127.547 11.315 127.407 11.315H123.732C123.632 11.315 123.582 11.36 123.582 11.45V14.48C123.582 14.57 123.632 14.615 123.732 14.615H126.942C127.082 14.615 127.152 14.685 127.152 14.825V15.365C127.152 15.505 127.082 15.575 126.942 15.575H123.732C123.632 15.575 123.582 15.62 123.582 15.71V18.905C123.582 18.995 123.632 19.04 123.732 19.04H127.407C127.547 19.04 127.617 19.11 127.617 19.25V19.79C127.617 19.93 127.547 20 127.407 20ZM129.589 17.78V17.3C129.589 17.16 129.659 17.09 129.799 17.09H130.474C130.614 17.09 130.684 17.16 130.684 17.3V17.69C130.684 18.59 131.129 19.04 132.019 19.04H133.339C134.229 19.04 134.674 18.58 134.674 17.66V17.15C134.674 16.43 134.079 15.96 132.889 15.74C132.389 15.65 131.889 15.545 131.389 15.425C130.889 15.305 130.464 15.075 130.114 14.735C129.764 14.385 129.589 13.91 129.589 13.31V12.575C129.589 11.885 129.784 11.345 130.174 10.955C130.574 10.555 131.119 10.355 131.809 10.355H133.474C134.154 10.355 134.694 10.555 135.094 10.955C135.494 11.345 135.694 11.885 135.694 12.575V12.95C135.694 13.1 135.629 13.175 135.499 13.175H134.809C134.679 13.175 134.614 13.1 134.614 12.95V12.68C134.614 11.77 134.169 11.315 133.279 11.315H132.004C131.114 11.315 130.669 11.79 130.669 12.74V13.34C130.669 13.85 131.004 14.2 131.674 14.39C131.974 14.47 132.304 14.545 132.664 14.615C133.024 14.675 133.384 14.76 133.744 14.87C134.114 14.97 134.449 15.1 134.749 15.26C135.049 15.41 135.289 15.645 135.469 15.965C135.659 16.275 135.754 16.655 135.754 17.105V17.78C135.754 18.47 135.554 19.015 135.154 19.415C134.754 19.805 134.214 20 133.534 20H131.809C131.129 20 130.589 19.805 130.189 19.415C129.789 19.015 129.589 18.47 129.589 17.78ZM137.909 17.78V17.3C137.909 17.16 137.979 17.09 138.119 17.09H138.794C138.934 17.09 139.004 17.16 139.004 17.3V17.69C139.004 18.59 139.449 19.04 140.339 19.04H141.659C142.549 19.04 142.994 18.58 142.994 17.66V17.15C142.994 16.43 142.399 15.96 141.209 15.74C140.709 15.65 140.209 15.545 139.709 15.425C139.209 15.305 138.784 15.075 138.434 14.735C138.084 14.385 137.909 13.91 137.909 13.31V12.575C137.909 11.885 138.104 11.345 138.494 10.955C138.894 10.555 139.439 10.355 140.129 10.355H141.794C142.474 10.355 143.014 10.555 143.414 10.955C143.814 11.345 144.014 11.885 144.014 12.575V12.95C144.014 13.1 143.949 13.175 143.819 13.175H143.129C142.999 13.175 142.934 13.1 142.934 12.95V12.68C142.934 11.77 142.489 11.315 141.599 11.315H140.324C139.434 11.315 138.989 11.79 138.989 12.74V13.34C138.989 13.85 139.324 14.2 139.994 14.39C140.294 14.47 140.624 14.545 140.984 14.615C141.344 14.675 141.704 14.76 142.064 14.87C142.434 14.97 142.769 15.1 143.069 15.26C143.369 15.41 143.609 15.645 143.789 15.965C143.979 16.275 144.074 16.655 144.074 17.105V17.78C144.074 18.47 143.874 19.015 143.474 19.415C143.074 19.805 142.534 20 141.854 20H140.129C139.449 20 138.909 19.805 138.509 19.415C138.109 19.015 137.909 18.47 137.909 17.78ZM146.454 20H145.704C145.574 20 145.529 19.93 145.569 19.79L148.374 10.565C148.414 10.425 148.509 10.355 148.659 10.355H149.739C149.889 10.355 149.984 10.425 150.024 10.565L152.829 19.79C152.869 19.93 152.824 20 152.694 20H151.929C151.819 20 151.749 19.93 151.719 19.79L151.014 17.6H147.384L146.679 19.79C146.639 19.93 146.564 20 146.454 20ZM149.169 11.48L147.624 16.67H150.774L149.229 11.48H149.169ZM157.33 20H156.655C156.515 20 156.445 19.93 156.445 19.79V16.385L153.595 10.58C153.565 10.51 153.565 10.455 153.595 10.415C153.625 10.375 153.67 10.355 153.73 10.355H154.57C154.68 10.355 154.765 10.425 154.825 10.565L156.97 15.11H157.045L159.175 10.565C159.215 10.425 159.295 10.355 159.415 10.355H160.27C160.44 10.355 160.485 10.43 160.405 10.58L157.54 16.385V19.79C157.54 19.93 157.47 20 157.33 20ZM166.855 20H162.145C162.005 20 161.935 19.93 161.935 19.79V10.565C161.935 10.425 162.005 10.355 162.145 10.355H166.855C166.995 10.355 167.065 10.425 167.065 10.565V11.105C167.065 11.245 166.995 11.315 166.855 11.315H163.18C163.08 11.315 163.03 11.36 163.03 11.45V14.48C163.03 14.57 163.08 14.615 163.18 14.615H166.39C166.53 14.615 166.6 14.685 166.6 14.825V15.365C166.6 15.505 166.53 15.575 166.39 15.575H163.18C163.08 15.575 163.03 15.62 163.03 15.71V18.905C163.03 18.995 163.08 19.04 163.18 19.04H166.855C166.995 19.04 167.065 19.11 167.065 19.25V19.79C167.065 19.93 166.995 20 166.855 20ZM170.027 20H169.352C169.212 20 169.142 19.93 169.142 19.79V10.565C169.142 10.425 169.212 10.355 169.352 10.355H172.802C173.492 10.355 174.037 10.555 174.437 10.955C174.837 11.345 175.037 11.885 175.037 12.575V13.94C175.037 14.5 174.902 14.965 174.632 15.335C174.362 15.695 173.987 15.935 173.507 16.055V16.115L175.247 19.76C175.337 19.92 175.287 20 175.097 20H174.422C174.252 20 174.127 19.93 174.047 19.79L172.367 16.16H170.387C170.287 16.16 170.237 16.205 170.237 16.295V19.79C170.237 19.93 170.167 20 170.027 20ZM170.387 15.245H172.652C173.512 15.245 173.942 14.815 173.942 13.955V12.62C173.942 11.75 173.512 11.315 172.652 11.315H170.387C170.287 11.315 170.237 11.36 170.237 11.45V15.11C170.237 15.2 170.287 15.245 170.387 15.245ZM182.252 19.04H184.772C185.612 19.04 186.032 18.605 186.032 17.735V12.62C186.032 11.75 185.612 11.315 184.772 11.315H182.252C182.152 11.315 182.102 11.36 182.102 11.45V18.905C182.102 18.995 182.152 19.04 182.252 19.04ZM181.007 19.79V10.565C181.007 10.425 181.077 10.355 181.217 10.355H184.907C185.597 10.355 186.137 10.555 186.527 10.955C186.927 11.345 187.127 11.885 187.127 12.575V17.78C187.127 18.47 186.927 19.015 186.527 19.415C186.137 19.805 185.597 20 184.907 20H181.217C181.077 20 181.007 19.93 181.007 19.79ZM190.032 10.55V11.42C190.032 11.65 189.962 11.975 189.822 12.395L189.312 13.82C189.282 13.89 189.227 13.925 189.147 13.925C189.037 13.925 188.982 13.865 188.982 13.745V10.565C188.982 10.425 189.052 10.355 189.192 10.355H189.837C189.967 10.355 190.032 10.42 190.032 10.55ZM197.182 10.355H197.857C197.997 10.355 198.067 10.42 198.067 10.55V17.78C198.067 18.48 197.872 19.025 197.482 19.415C197.092 19.805 196.552 20 195.862 20H194.197C193.507 20 192.962 19.805 192.562 19.415C192.172 19.025 191.977 18.48 191.977 17.78V10.565C191.977 10.425 192.047 10.355 192.187 10.355H192.862C193.002 10.355 193.072 10.425 193.072 10.565V17.735C193.072 18.605 193.487 19.04 194.317 19.04H195.727C196.567 19.04 196.987 18.605 196.987 17.735V10.565C196.987 10.425 197.052 10.355 197.182 10.355ZM201.243 20H200.568C200.428 20 200.358 19.93 200.358 19.79V10.565C200.358 10.425 200.428 10.355 200.568 10.355H204.018C204.708 10.355 205.253 10.555 205.653 10.955C206.053 11.345 206.253 11.885 206.253 12.575V13.94C206.253 14.5 206.118 14.965 205.848 15.335C205.578 15.695 205.203 15.935 204.723 16.055V16.115L206.463 19.76C206.553 19.92 206.503 20 206.313 20H205.638C205.468 20 205.343 19.93 205.263 19.79L203.583 16.16H201.603C201.503 16.16 201.453 16.205 201.453 16.295V19.79C201.453 19.93 201.383 20 201.243 20ZM201.603 15.245H203.868C204.728 15.245 205.158 14.815 205.158 13.955V12.62C205.158 11.75 204.728 11.315 203.868 11.315H201.603C201.503 11.315 201.453 11.36 201.453 11.45V15.11C201.453 15.2 201.503 15.245 201.603 15.245ZM212.104 20H210.484C209.794 20 209.249 19.805 208.849 19.415C208.459 19.025 208.264 18.48 208.264 17.78V12.575C208.264 11.875 208.459 11.33 208.849 10.94C209.249 10.55 209.794 10.355 210.484 10.355H212.104C212.794 10.355 213.334 10.555 213.724 10.955C214.114 11.345 214.309 11.885 214.309 12.575V13.19C214.309 13.34 214.239 13.415 214.099 13.415H213.424C213.284 13.415 213.214 13.34 213.214 13.19V12.62C213.214 11.75 212.799 11.315 211.969 11.315H210.604C209.774 11.315 209.359 11.75 209.359 12.62V17.735C209.359 18.605 209.774 19.04 210.604 19.04H211.969C212.799 19.04 213.214 18.605 213.214 17.735V16.055C213.214 15.955 213.169 15.905 213.079 15.905H211.594C211.454 15.905 211.384 15.84 211.384 15.71V15.155C211.384 15.015 211.454 14.945 211.594 14.945H214.009C214.209 14.945 214.309 15.05 214.309 15.26V17.78C214.309 18.48 214.114 19.025 213.724 19.415C213.334 19.805 212.794 20 212.104 20ZM221.45 20H216.74C216.6 20 216.53 19.93 216.53 19.79V10.565C216.53 10.425 216.6 10.355 216.74 10.355H221.45C221.59 10.355 221.66 10.425 221.66 10.565V11.105C221.66 11.245 221.59 11.315 221.45 11.315H217.775C217.675 11.315 217.625 11.36 217.625 11.45V14.48C217.625 14.57 217.675 14.615 217.775 14.615H220.985C221.125 14.615 221.195 14.685 221.195 14.825V15.365C221.195 15.505 221.125 15.575 220.985 15.575H217.775C217.675 15.575 217.625 15.62 217.625 15.71V18.905C217.625 18.995 217.675 19.04 217.775 19.04H221.45C221.59 19.04 221.66 19.11 221.66 19.25V19.79C221.66 19.93 221.59 20 221.45 20ZM224.607 20H223.947C223.807 20 223.737 19.93 223.737 19.79V10.565C223.737 10.425 223.807 10.355 223.947 10.355H224.562C224.682 10.355 224.762 10.395 224.802 10.475L228.942 17.75H229.002V10.565C229.002 10.425 229.072 10.355 229.212 10.355H229.872C230.012 10.355 230.082 10.425 230.082 10.565V19.79C230.082 19.93 230.012 20 229.872 20H229.317C229.207 20 229.102 19.935 229.002 19.805L224.877 12.605H224.817V19.79C224.817 19.93 224.747 20 224.607 20ZM236.323 20H234.523C233.833 20 233.288 19.805 232.888 19.415C232.498 19.025 232.303 18.48 232.303 17.78V12.575C232.303 11.875 232.498 11.33 232.888 10.94C233.288 10.55 233.833 10.355 234.523 10.355H236.323C237.013 10.355 237.553 10.55 237.943 10.94C238.343 11.33 238.543 11.875 238.543 12.575V13.31C238.543 13.45 238.473 13.52 238.333 13.52H237.658C237.518 13.52 237.448 13.45 237.448 13.31V12.62C237.448 11.75 237.028 11.315 236.188 11.315H234.643C233.813 11.315 233.398 11.75 233.398 12.62V17.735C233.398 18.605 233.813 19.04 234.643 19.04H236.188C237.028 19.04 237.448 18.605 237.448 17.735V17.045C237.448 16.905 237.518 16.835 237.658 16.835H238.333C238.473 16.835 238.543 16.905 238.543 17.045V17.78C238.543 18.48 238.343 19.025 237.943 19.415C237.553 19.805 237.013 20 236.323 20ZM245.488 20H240.778C240.638 20 240.568 19.93 240.568 19.79V10.565C240.568 10.425 240.638 10.355 240.778 10.355H245.488C245.628 10.355 245.698 10.425 245.698 10.565V11.105C245.698 11.245 245.628 11.315 245.488 11.315H241.813C241.713 11.315 241.663 11.36 241.663 11.45V14.48C241.663 14.57 241.713 14.615 241.813 14.615H245.023C245.163 14.615 245.233 14.685 245.233 14.825V15.365C245.233 15.505 245.163 15.575 245.023 15.575H241.813C241.713 15.575 241.663 15.62 241.663 15.71V18.905C241.663 18.995 241.713 19.04 241.813 19.04H245.488C245.628 19.04 245.698 19.11 245.698 19.25V19.79C245.698 19.93 245.628 20 245.488 20ZM248.63 17.975V19.16C248.63 19.38 248.555 19.67 248.405 20.03L247.805 21.44C247.755 21.52 247.695 21.56 247.625 21.56C247.525 21.56 247.475 21.495 247.475 21.365V17.975C247.475 17.845 247.54 17.78 247.67 17.78H248.435C248.565 17.78 248.63 17.845 248.63 17.975ZM257.648 20H256.583C256.453 20 256.368 19.93 256.328 19.79L253.673 10.58C253.643 10.43 253.708 10.355 253.868 10.355H254.603C254.733 10.355 254.813 10.425 254.843 10.565L257.078 18.77H257.138L259.373 10.565C259.403 10.425 259.483 10.355 259.613 10.355H260.363C260.513 10.355 260.573 10.43 260.543 10.58L257.888 19.79C257.848 19.93 257.768 20 257.648 20ZM264.276 19.04H265.806C266.646 19.04 267.066 18.605 267.066 17.735V12.62C267.066 11.75 266.646 11.315 265.806 11.315H264.276C263.446 11.315 263.031 11.75 263.031 12.62V17.735C263.031 18.605 263.446 19.04 264.276 19.04ZM265.941 20H264.156C263.466 20 262.921 19.805 262.521 19.415C262.131 19.025 261.936 18.48 261.936 17.78V12.575C261.936 11.875 262.131 11.33 262.521 10.94C262.921 10.55 263.466 10.355 264.156 10.355H265.941C266.631 10.355 267.171 10.555 267.561 10.955C267.961 11.345 268.161 11.885 268.161 12.575V17.78C268.161 18.47 267.961 19.015 267.561 19.415C267.171 19.805 266.631 20 265.941 20ZM275.507 10.355H276.182C276.322 10.355 276.392 10.42 276.392 10.55V17.78C276.392 18.48 276.197 19.025 275.807 19.415C275.417 19.805 274.877 20 274.187 20H272.522C271.832 20 271.287 19.805 270.887 19.415C270.497 19.025 270.302 18.48 270.302 17.78V10.565C270.302 10.425 270.372 10.355 270.512 10.355H271.187C271.327 10.355 271.397 10.425 271.397 10.565V17.735C271.397 18.605 271.812 19.04 272.642 19.04H274.052C274.892 19.04 275.312 18.605 275.312 17.735V10.565C275.312 10.425 275.377 10.355 275.507 10.355ZM278.578 17.78V17.3C278.578 17.16 278.648 17.09 278.788 17.09H279.463C279.603 17.09 279.673 17.16 279.673 17.3V17.69C279.673 18.59 280.118 19.04 281.008 19.04H282.328C283.218 19.04 283.663 18.58 283.663 17.66V17.15C283.663 16.43 283.068 15.96 281.878 15.74C281.378 15.65 280.878 15.545 280.378 15.425C279.878 15.305 279.453 15.075 279.103 14.735C278.753 14.385 278.578 13.91 278.578 13.31V12.575C278.578 11.885 278.773 11.345 279.163 10.955C279.563 10.555 280.108 10.355 280.798 10.355H282.463C283.143 10.355 283.683 10.555 284.083 10.955C284.483 11.345 284.683 11.885 284.683 12.575V12.95C284.683 13.1 284.618 13.175 284.488 13.175H283.798C283.668 13.175 283.603 13.1 283.603 12.95V12.68C283.603 11.77 283.158 11.315 282.268 11.315H280.993C280.103 11.315 279.658 11.79 279.658 12.74V13.34C279.658 13.85 279.993 14.2 280.663 14.39C280.963 14.47 281.293 14.545 281.653 14.615C282.013 14.675 282.373 14.76 282.733 14.87C283.103 14.97 283.438 15.1 283.738 15.26C284.038 15.41 284.278 15.645 284.458 15.965C284.648 16.275 284.743 16.655 284.743 17.105V17.78C284.743 18.47 284.543 19.015 284.143 19.415C283.743 19.805 283.203 20 282.523 20H280.798C280.118 20 279.578 19.805 279.178 19.415C278.778 19.015 278.578 18.47 278.578 17.78ZM84.4578 40H83.7978C83.6578 40 83.5878 39.93 83.5878 39.79V30.565C83.5878 30.425 83.6578 30.355 83.7978 30.355H84.4128C84.5328 30.355 84.6128 30.395 84.6528 30.475L88.7928 37.75H88.8528V30.565C88.8528 30.425 88.9228 30.355 89.0628 30.355H89.7228C89.8628 30.355 89.9328 30.425 89.9328 30.565V39.79C89.9328 39.93 89.8628 40 89.7228 40H89.1678C89.0578 40 88.9528 39.935 88.8528 39.805L84.7278 32.605H84.6678V39.79C84.6678 39.93 84.5978 40 84.4578 40ZM97.2237 40H92.5137C92.3737 40 92.3037 39.93 92.3037 39.79V30.565C92.3037 30.425 92.3737 30.355 92.5137 30.355H97.2237C97.3637 30.355 97.4337 30.425 97.4337 30.565V31.105C97.4337 31.245 97.3637 31.315 97.2237 31.315H93.5487C93.4487 31.315 93.3987 31.36 93.3987 31.45V34.48C93.3987 34.57 93.4487 34.615 93.5487 34.615H96.7587C96.8987 34.615 96.9687 34.685 96.9687 34.825V35.365C96.9687 35.505 96.8987 35.575 96.7587 35.575H93.5487C93.4487 35.575 93.3987 35.62 93.3987 35.71V38.905C93.3987 38.995 93.4487 39.04 93.5487 39.04H97.2237C97.3637 39.04 97.4337 39.11 97.4337 39.25V39.79C97.4337 39.93 97.3637 40 97.2237 40ZM103.214 37.78V37.3C103.214 37.16 103.284 37.09 103.424 37.09H104.099C104.239 37.09 104.309 37.16 104.309 37.3V37.69C104.309 38.59 104.754 39.04 105.644 39.04H106.964C107.854 39.04 108.299 38.58 108.299 37.66V37.15C108.299 36.43 107.704 35.96 106.514 35.74C106.014 35.65 105.514 35.545 105.014 35.425C104.514 35.305 104.089 35.075 103.739 34.735C103.389 34.385 103.214 33.91 103.214 33.31V32.575C103.214 31.885 103.409 31.345 103.799 30.955C104.199 30.555 104.744 30.355 105.434 30.355H107.099C107.779 30.355 108.319 30.555 108.719 30.955C109.119 31.345 109.319 31.885 109.319 32.575V32.95C109.319 33.1 109.254 33.175 109.124 33.175H108.434C108.304 33.175 108.239 33.1 108.239 32.95V32.68C108.239 31.77 107.794 31.315 106.904 31.315H105.629C104.739 31.315 104.294 31.79 104.294 32.74V33.34C104.294 33.85 104.629 34.2 105.299 34.39C105.599 34.47 105.929 34.545 106.289 34.615C106.649 34.675 107.009 34.76 107.369 34.87C107.739 34.97 108.074 35.1 108.374 35.26C108.674 35.41 108.914 35.645 109.094 35.965C109.284 36.275 109.379 36.655 109.379 37.105V37.78C109.379 38.47 109.179 39.015 108.779 39.415C108.379 39.805 107.839 40 107.159 40H105.434C104.754 40 104.214 39.805 103.814 39.415C103.414 39.015 103.214 38.47 103.214 37.78ZM116.56 40H111.85C111.71 40 111.64 39.93 111.64 39.79V30.565C111.64 30.425 111.71 30.355 111.85 30.355H116.56C116.7 30.355 116.77 30.425 116.77 30.565V31.105C116.77 31.245 116.7 31.315 116.56 31.315H112.885C112.785 31.315 112.735 31.36 112.735 31.45V34.48C112.735 34.57 112.785 34.615 112.885 34.615H116.095C116.235 34.615 116.305 34.685 116.305 34.825V35.365C116.305 35.505 116.235 35.575 116.095 35.575H112.885C112.785 35.575 112.735 35.62 112.735 35.71V38.905C112.735 38.995 112.785 39.04 112.885 39.04H116.56C116.7 39.04 116.77 39.11 116.77 39.25V39.79C116.77 39.93 116.7 40 116.56 40ZM119.732 40H119.057C118.917 40 118.847 39.93 118.847 39.79V30.565C118.847 30.425 118.917 30.355 119.057 30.355H122.507C123.197 30.355 123.742 30.555 124.142 30.955C124.542 31.345 124.742 31.885 124.742 32.575V33.94C124.742 34.5 124.607 34.965 124.337 35.335C124.067 35.695 123.692 35.935 123.212 36.055V36.115L124.952 39.76C125.042 39.92 124.992 40 124.802 40H124.127C123.957 40 123.832 39.93 123.752 39.79L122.072 36.16H120.092C119.992 36.16 119.942 36.205 119.942 36.295V39.79C119.942 39.93 119.872 40 119.732 40ZM120.092 35.245H122.357C123.217 35.245 123.647 34.815 123.647 33.955V32.62C123.647 31.75 123.217 31.315 122.357 31.315H120.092C119.992 31.315 119.942 31.36 119.942 31.45V35.11C119.942 35.2 119.992 35.245 120.092 35.245ZM131.823 40H127.113C126.973 40 126.903 39.93 126.903 39.79V30.565C126.903 30.425 126.973 30.355 127.113 30.355H131.823C131.963 30.355 132.033 30.425 132.033 30.565V31.105C132.033 31.245 131.963 31.315 131.823 31.315H128.148C128.048 31.315 127.998 31.36 127.998 31.45V34.48C127.998 34.57 128.048 34.615 128.148 34.615H131.358C131.498 34.615 131.568 34.685 131.568 34.825V35.365C131.568 35.505 131.498 35.575 131.358 35.575H128.148C128.048 35.575 127.998 35.62 127.998 35.71V38.905C127.998 38.995 128.048 39.04 128.148 39.04H131.823C131.963 39.04 132.033 39.11 132.033 39.25V39.79C132.033 39.93 131.963 40 131.823 40ZM133.585 39.79V39.25C133.585 39.07 133.615 38.94 133.675 38.86L138.325 31.435V31.375H133.99C133.85 31.375 133.78 31.305 133.78 31.165V30.565C133.78 30.425 133.85 30.355 133.99 30.355H139.3C139.44 30.355 139.51 30.425 139.51 30.565V31.285C139.51 31.445 139.47 31.585 139.39 31.705L134.86 38.92V38.98H139.45C139.59 38.98 139.66 39.045 139.66 39.175V39.775C139.66 39.925 139.59 40 139.45 40H133.795C133.655 40 133.585 39.93 133.585 39.79ZM146.201 40H145.526C145.386 40 145.316 39.93 145.316 39.79V30.565C145.316 30.425 145.386 30.355 145.526 30.355H149.036C149.726 30.355 150.266 30.555 150.656 30.955C151.046 31.345 151.241 31.885 151.241 32.575V34.24C151.241 34.94 151.046 35.485 150.656 35.875C150.266 36.265 149.726 36.46 149.036 36.46H146.561C146.461 36.46 146.411 36.505 146.411 36.595V39.79C146.411 39.93 146.341 40 146.201 40ZM146.561 35.485H148.886C149.726 35.485 150.146 35.055 150.146 34.195V32.62C150.146 31.75 149.726 31.315 148.886 31.315H146.561C146.461 31.315 146.411 31.36 146.411 31.45V35.35C146.411 35.44 146.461 35.485 146.561 35.485ZM153.332 40H152.582C152.452 40 152.407 39.93 152.447 39.79L155.252 30.565C155.292 30.425 155.387 30.355 155.537 30.355H156.617C156.767 30.355 156.862 30.425 156.902 30.565L159.707 39.79C159.747 39.93 159.702 40 159.572 40H158.807C158.697 40 158.627 39.93 158.597 39.79L157.892 37.6H154.262L153.557 39.79C153.517 39.93 153.442 40 153.332 40ZM156.047 31.48L154.502 36.67H157.652L156.107 31.48H156.047ZM161.207 37.78V37.3C161.207 37.16 161.277 37.09 161.417 37.09H162.092C162.232 37.09 162.302 37.16 162.302 37.3V37.69C162.302 38.59 162.747 39.04 163.637 39.04H164.957C165.847 39.04 166.292 38.58 166.292 37.66V37.15C166.292 36.43 165.697 35.96 164.507 35.74C164.007 35.65 163.507 35.545 163.007 35.425C162.507 35.305 162.082 35.075 161.732 34.735C161.382 34.385 161.207 33.91 161.207 33.31V32.575C161.207 31.885 161.402 31.345 161.792 30.955C162.192 30.555 162.737 30.355 163.427 30.355H165.092C165.772 30.355 166.312 30.555 166.712 30.955C167.112 31.345 167.312 31.885 167.312 32.575V32.95C167.312 33.1 167.247 33.175 167.117 33.175H166.427C166.297 33.175 166.232 33.1 166.232 32.95V32.68C166.232 31.77 165.787 31.315 164.897 31.315H163.622C162.732 31.315 162.287 31.79 162.287 32.74V33.34C162.287 33.85 162.622 34.2 163.292 34.39C163.592 34.47 163.922 34.545 164.282 34.615C164.642 34.675 165.002 34.76 165.362 34.87C165.732 34.97 166.067 35.1 166.367 35.26C166.667 35.41 166.907 35.645 167.087 35.965C167.277 36.275 167.372 36.655 167.372 37.105V37.78C167.372 38.47 167.172 39.015 166.772 39.415C166.372 39.805 165.832 40 165.152 40H163.427C162.747 40 162.207 39.805 161.807 39.415C161.407 39.015 161.207 38.47 161.207 37.78ZM174.686 39.04H177.206C178.046 39.04 178.466 38.605 178.466 37.735V32.62C178.466 31.75 178.046 31.315 177.206 31.315H174.686C174.586 31.315 174.536 31.36 174.536 31.45V38.905C174.536 38.995 174.586 39.04 174.686 39.04ZM173.441 39.79V30.565C173.441 30.425 173.511 30.355 173.651 30.355H177.341C178.031 30.355 178.571 30.555 178.961 30.955C179.361 31.345 179.561 31.885 179.561 32.575V37.78C179.561 38.47 179.361 39.015 178.961 39.415C178.571 39.805 178.031 40 177.341 40H173.651C173.511 40 173.441 39.93 173.441 39.79ZM186.696 40H181.986C181.846 40 181.776 39.93 181.776 39.79V30.565C181.776 30.425 181.846 30.355 181.986 30.355H186.696C186.836 30.355 186.906 30.425 186.906 30.565V31.105C186.906 31.245 186.836 31.315 186.696 31.315H183.021C182.921 31.315 182.871 31.36 182.871 31.45V34.48C182.871 34.57 182.921 34.615 183.021 34.615H186.231C186.371 34.615 186.441 34.685 186.441 34.825V35.365C186.441 35.505 186.371 35.575 186.231 35.575H183.021C182.921 35.575 182.871 35.62 182.871 35.71V38.905C182.871 38.995 182.921 39.04 183.021 39.04H186.696C186.836 39.04 186.906 39.11 186.906 39.25V39.79C186.906 39.93 186.836 40 186.696 40ZM192.853 40H191.053C190.363 40 189.818 39.805 189.418 39.415C189.028 39.025 188.833 38.48 188.833 37.78V32.575C188.833 31.875 189.028 31.33 189.418 30.94C189.818 30.55 190.363 30.355 191.053 30.355H192.853C193.543 30.355 194.083 30.55 194.473 30.94C194.873 31.33 195.073 31.875 195.073 32.575V33.31C195.073 33.45 195.003 33.52 194.863 33.52H194.188C194.048 33.52 193.978 33.45 193.978 33.31V32.62C193.978 31.75 193.558 31.315 192.718 31.315H191.173C190.343 31.315 189.928 31.75 189.928 32.62V37.735C189.928 38.605 190.343 39.04 191.173 39.04H192.718C193.558 39.04 193.978 38.605 193.978 37.735V37.045C193.978 36.905 194.048 36.835 194.188 36.835H194.863C195.003 36.835 195.073 36.905 195.073 37.045V37.78C195.073 38.48 194.873 39.025 194.473 39.415C194.083 39.805 193.543 40 192.853 40ZM202.229 30.355H202.904C203.044 30.355 203.114 30.42 203.114 30.55V37.78C203.114 38.48 202.919 39.025 202.529 39.415C202.139 39.805 201.599 40 200.909 40H199.244C198.554 40 198.009 39.805 197.609 39.415C197.219 39.025 197.024 38.48 197.024 37.78V30.565C197.024 30.425 197.094 30.355 197.234 30.355H197.909C198.049 30.355 198.119 30.425 198.119 30.565V37.735C198.119 38.605 198.534 39.04 199.364 39.04H200.774C201.614 39.04 202.034 38.605 202.034 37.735V30.565C202.034 30.425 202.099 30.355 202.229 30.355ZM209.198 32.305V30.565C209.198 30.425 209.268 30.355 209.408 30.355H210.203C210.343 30.355 210.413 30.425 210.413 30.565V32.305C210.413 33.255 210.383 34.18 210.323 35.08C210.263 35.98 210.223 36.49 210.203 36.61C210.183 36.73 210.118 36.79 210.008 36.79H209.603C209.473 36.79 209.403 36.715 209.393 36.565C209.353 36.175 209.308 35.49 209.258 34.51C209.218 33.53 209.198 32.795 209.198 32.305ZM210.383 37.975V39.79C210.383 39.93 210.313 40 210.173 40H209.453C209.323 40 209.258 39.925 209.258 39.775V37.975C209.258 37.845 209.323 37.78 209.453 37.78H210.173C210.313 37.78 210.383 37.845 210.383 37.975ZM213.462 30.55V31.42C213.462 31.65 213.392 31.975 213.252 32.395L212.742 33.82C212.712 33.89 212.657 33.925 212.577 33.925C212.467 33.925 212.412 33.865 212.412 33.745V30.565C212.412 30.425 212.482 30.355 212.622 30.355H213.267C213.397 30.355 213.462 30.42 213.462 30.55ZM215.772 30.55V31.42C215.772 31.67 215.697 31.995 215.547 32.395L215.052 33.82C215.022 33.89 214.957 33.925 214.857 33.925C214.767 33.925 214.722 33.865 214.722 33.745V30.565C214.722 30.425 214.787 30.355 214.917 30.355H215.577C215.707 30.355 215.772 30.42 215.772 30.55Z" fill="#686666"/>
    <path d="M58.1609 49.5H61.5209C62.3909 49.5 63.1609 49.71 63.8309 50.13C64.5109 50.55 65.0409 51.155 65.4209 51.945C65.8009 52.735 65.9909 53.67 65.9909 54.75C65.9909 55.83 65.8009 56.765 65.4209 57.555C65.0409 58.345 64.5109 58.95 63.8309 59.37C63.1609 59.79 62.3909 60 61.5209 60H58.1609V49.5ZM61.2659 58.755C62.3159 58.755 63.1109 58.405 63.6509 57.705C64.2009 57.005 64.4759 56.02 64.4759 54.75C64.4759 53.48 64.2009 52.495 63.6509 51.795C63.1109 51.095 62.3159 50.745 61.2659 50.745H59.5259V58.755H61.2659ZM70.2844 60.15C69.5444 60.15 68.9094 59.98 68.3794 59.64C67.8594 59.29 67.4644 58.82 67.1944 58.23C66.9344 57.64 66.8044 56.985 66.8044 56.265C66.8044 55.575 66.9244 54.945 67.1644 54.375C67.4144 53.795 67.7694 53.34 68.2294 53.01C68.6994 52.67 69.2544 52.5 69.8944 52.5C70.7144 52.5 71.3794 52.775 71.8894 53.325C72.4094 53.875 72.6694 54.635 72.6694 55.605C72.6694 55.775 72.6494 56.01 72.6094 56.31H68.1394C68.1694 57.18 68.3844 57.84 68.7844 58.29C69.1944 58.74 69.7244 58.965 70.3744 58.965C70.6844 58.965 71.0094 58.93 71.3494 58.86C71.6994 58.78 72.0044 58.67 72.2644 58.53L72.3844 59.7C71.8344 60 71.1344 60.15 70.2844 60.15ZM71.3344 55.395C71.3344 54.895 71.2094 54.49 70.9594 54.18C70.7194 53.86 70.3694 53.7 69.9094 53.7C69.4594 53.7 69.0844 53.84 68.7844 54.12C68.4944 54.4 68.2994 54.825 68.1994 55.395H71.3344ZM68.8144 50.325L71.0194 48.915V50.385L68.8144 51.24V50.325ZM76.7712 60.15C75.6512 60.15 74.8012 59.8 74.2212 59.1C73.6412 58.39 73.3512 57.48 73.3512 56.37C73.3512 55.22 73.6412 54.29 74.2212 53.58C74.8012 52.86 75.6612 52.5 76.8012 52.5C77.4112 52.5 77.9562 52.625 78.4362 52.875L78.2262 54.03C77.7762 53.79 77.3062 53.67 76.8162 53.67C76.1462 53.67 75.6212 53.905 75.2412 54.375C74.8712 54.835 74.6862 55.48 74.6862 56.31C74.6862 57.14 74.8762 57.795 75.2562 58.275C75.6462 58.755 76.1812 58.995 76.8612 58.995C77.3812 58.995 77.8412 58.875 78.2412 58.635L78.4212 59.805C78.2212 59.905 77.9712 59.985 77.6712 60.045C77.3712 60.115 77.0712 60.15 76.7712 60.15ZM82.2152 60.15C81.5552 60.15 80.9852 59.985 80.5052 59.655C80.0252 59.315 79.6552 58.855 79.3952 58.275C79.1452 57.695 79.0202 57.045 79.0202 56.325C79.0202 55.605 79.1452 54.955 79.3952 54.375C79.6552 53.795 80.0252 53.34 80.5052 53.01C80.9852 52.67 81.5552 52.5 82.2152 52.5C82.8652 52.5 83.4302 52.67 83.9102 53.01C84.3902 53.34 84.7552 53.795 85.0052 54.375C85.2552 54.955 85.3802 55.605 85.3802 56.325C85.3802 57.045 85.2552 57.695 85.0052 58.275C84.7552 58.855 84.3902 59.315 83.9102 59.655C83.4302 59.985 82.8652 60.15 82.2152 60.15ZM82.2152 58.995C82.7952 58.995 83.2452 58.76 83.5652 58.29C83.8852 57.82 84.0452 57.165 84.0452 56.325C84.0452 55.485 83.8852 54.835 83.5652 54.375C83.2452 53.905 82.7952 53.67 82.2152 53.67C81.6152 53.67 81.1552 53.905 80.8352 54.375C80.5152 54.835 80.3552 55.485 80.3552 56.325C80.3552 57.175 80.5152 57.835 80.8352 58.305C81.1552 58.765 81.6152 58.995 82.2152 58.995ZM91.8404 52.65V60H90.7304L90.6404 59.1C90.4404 59.43 90.1704 59.69 89.8304 59.88C89.4904 60.06 89.1154 60.15 88.7054 60.15C87.9354 60.15 87.3604 59.895 86.9804 59.385C86.6104 58.865 86.4254 58.125 86.4254 57.165V52.65H87.7304V57C87.7304 57.66 87.8254 58.155 88.0154 58.485C88.2154 58.805 88.5454 58.965 89.0054 58.965C89.3254 58.965 89.6154 58.875 89.8754 58.695C90.1354 58.515 90.3554 58.265 90.5354 57.945V52.65H91.8404ZM92.9145 52.65H94.3095L96.0195 58.455L97.6995 52.65H99.0945L96.6645 60H95.3595L92.9145 52.65ZM100.008 52.65H101.073L101.238 53.88C101.568 53.4 101.878 53.05 102.168 52.83C102.468 52.61 102.783 52.5 103.113 52.5C103.243 52.5 103.358 52.515 103.458 52.545L103.323 54.03C103.193 54 103.043 53.985 102.873 53.985C102.543 53.985 102.233 54.07 101.943 54.24C101.653 54.4 101.443 54.59 101.313 54.81V60H100.008V52.65ZM104.447 49.5H105.752V50.985H104.447V49.5ZM104.447 52.65H105.752V60H104.447V52.65ZM107.494 52.65H108.559L108.724 53.88C109.054 53.4 109.364 53.05 109.654 52.83C109.954 52.61 110.269 52.5 110.599 52.5C110.729 52.5 110.844 52.515 110.944 52.545L110.809 54.03C110.679 54 110.529 53.985 110.359 53.985C110.029 53.985 109.719 54.07 109.429 54.24C109.139 54.4 108.929 54.59 108.799 54.81V60H107.494V52.65ZM116.708 60.15C115.848 60.15 115.103 59.95 114.473 59.55L114.638 58.23C115.278 58.73 115.938 58.98 116.618 58.98C116.978 58.98 117.258 58.905 117.458 58.755C117.668 58.605 117.773 58.385 117.773 58.095C117.773 57.875 117.723 57.695 117.623 57.555C117.533 57.415 117.378 57.28 117.158 57.15C116.938 57.02 116.598 56.85 116.138 56.64C115.598 56.39 115.203 56.105 114.953 55.785C114.703 55.465 114.578 55.05 114.578 54.54C114.578 53.94 114.788 53.45 115.208 53.07C115.628 52.69 116.193 52.5 116.903 52.5C117.623 52.5 118.253 52.66 118.793 52.98L118.628 54.195C118.358 54.015 118.103 53.885 117.863 53.805C117.623 53.715 117.338 53.67 117.008 53.67C116.658 53.67 116.383 53.745 116.183 53.895C115.983 54.045 115.883 54.255 115.883 54.525C115.883 54.795 115.968 55 116.138 55.14C116.318 55.28 116.663 55.465 117.173 55.695C117.883 56.015 118.383 56.34 118.673 56.67C118.963 56.99 119.108 57.415 119.108 57.945C119.108 58.635 118.893 59.175 118.463 59.565C118.033 59.955 117.448 60.15 116.708 60.15ZM125.488 52.65V60H124.378L124.288 59.1C124.088 59.43 123.818 59.69 123.478 59.88C123.138 60.06 122.763 60.15 122.353 60.15C121.583 60.15 121.008 59.895 120.628 59.385C120.258 58.865 120.073 58.125 120.073 57.165V52.65H121.378V57C121.378 57.66 121.473 58.155 121.663 58.485C121.863 58.805 122.193 58.965 122.653 58.965C122.973 58.965 123.263 58.875 123.523 58.695C123.783 58.515 124.003 58.265 124.183 57.945V52.65H125.488ZM127.357 52.65H128.422L128.587 53.88C128.917 53.4 129.227 53.05 129.517 52.83C129.817 52.61 130.132 52.5 130.462 52.5C130.592 52.5 130.707 52.515 130.807 52.545L130.672 54.03C130.542 54 130.392 53.985 130.222 53.985C129.892 53.985 129.582 54.07 129.292 54.24C129.002 54.4 128.792 54.59 128.662 54.81V60H127.357V52.65Z" fill="#8F8F8F"/>
    <path d="M141.06 59.1C141.71 59.1 142.33 58.975 142.92 58.725C143.51 58.465 144.005 58.11 144.405 57.66L145.155 58.44C144.635 58.98 144.015 59.405 143.295 59.715C142.575 60.015 141.82 60.165 141.03 60.165C140.27 60.165 139.555 60.025 138.885 59.745C138.225 59.465 137.65 59.085 137.16 58.605C136.67 58.115 136.285 57.54 136.005 56.88C135.725 56.21 135.585 55.5 135.585 54.75C135.585 54 135.725 53.295 136.005 52.635C136.285 51.965 136.67 51.39 137.16 50.91C137.65 50.42 138.225 50.035 138.885 49.755C139.555 49.475 140.27 49.335 141.03 49.335C141.84 49.335 142.605 49.49 143.325 49.8C144.055 50.1 144.675 50.52 145.185 51.06L144.42 51.87C144.01 51.41 143.5 51.05 142.89 50.79C142.29 50.53 141.67 50.4 141.03 50.4C140.43 50.4 139.865 50.515 139.335 50.745C138.815 50.965 138.365 51.27 137.985 51.66C137.605 52.04 137.305 52.5 137.085 53.04C136.865 53.57 136.755 54.14 136.755 54.75C136.755 55.36 136.865 55.935 137.085 56.475C137.305 57.005 137.605 57.465 137.985 57.855C138.375 58.235 138.83 58.54 139.35 58.77C139.88 58.99 140.45 59.1 141.06 59.1ZM146.057 56.235C146.057 55.695 146.157 55.185 146.357 54.705C146.557 54.225 146.827 53.81 147.167 53.46C147.517 53.11 147.927 52.835 148.397 52.635C148.867 52.435 149.367 52.335 149.897 52.335C150.427 52.335 150.922 52.435 151.382 52.635C151.852 52.835 152.257 53.11 152.597 53.46C152.947 53.81 153.222 54.225 153.422 54.705C153.622 55.185 153.722 55.695 153.722 56.235C153.722 56.785 153.622 57.3 153.422 57.78C153.222 58.26 152.947 58.675 152.597 59.025C152.257 59.375 151.852 59.65 151.382 59.85C150.922 60.05 150.427 60.15 149.897 60.15C149.367 60.15 148.867 60.05 148.397 59.85C147.927 59.65 147.517 59.375 147.167 59.025C146.827 58.675 146.557 58.26 146.357 57.78C146.157 57.3 146.057 56.785 146.057 56.235ZM149.897 59.16C150.277 59.16 150.632 59.085 150.962 58.935C151.302 58.785 151.592 58.58 151.832 58.32C152.082 58.05 152.277 57.74 152.417 57.39C152.557 57.03 152.627 56.645 152.627 56.235C152.627 55.825 152.557 55.445 152.417 55.095C152.277 54.735 152.082 54.425 151.832 54.165C151.592 53.905 151.302 53.7 150.962 53.55C150.632 53.4 150.277 53.325 149.897 53.325C149.517 53.325 149.157 53.4 148.817 53.55C148.487 53.7 148.197 53.905 147.947 54.165C147.707 54.425 147.512 54.735 147.362 55.095C147.222 55.445 147.152 55.825 147.152 56.235C147.152 56.645 147.222 57.03 147.362 57.39C147.502 57.74 147.692 58.05 147.932 58.32C148.182 58.58 148.477 58.785 148.817 58.935C149.157 59.085 149.517 59.16 149.897 59.16ZM155.819 51.045C155.619 51.045 155.444 50.97 155.294 50.82C155.144 50.67 155.069 50.495 155.069 50.295C155.069 50.085 155.144 49.91 155.294 49.77C155.444 49.62 155.619 49.545 155.819 49.545C156.029 49.545 156.204 49.62 156.344 49.77C156.494 49.91 156.569 50.085 156.569 50.295C156.569 50.495 156.494 50.67 156.344 50.82C156.204 50.97 156.029 51.045 155.819 51.045ZM156.374 52.485V60H155.264V52.485H156.374ZM158.267 60V52.485H159.377V53.37C159.667 53.03 160.012 52.775 160.412 52.605C160.812 52.425 161.257 52.335 161.747 52.335C162.597 52.335 163.292 52.605 163.832 53.145C164.372 53.685 164.642 54.385 164.642 55.245V60H163.547V55.47C163.547 54.81 163.357 54.285 162.977 53.895C162.597 53.505 162.087 53.31 161.447 53.31C160.997 53.31 160.592 53.41 160.232 53.61C159.882 53.81 159.597 54.095 159.377 54.465V60H158.267ZM169.932 60V49.5H177.447V50.52H171.087V54.27H175.257V55.275H171.087V60H169.932ZM177.258 56.235C177.258 55.695 177.358 55.185 177.558 54.705C177.758 54.225 178.028 53.81 178.368 53.46C178.718 53.11 179.128 52.835 179.598 52.635C180.068 52.435 180.568 52.335 181.098 52.335C181.628 52.335 182.123 52.435 182.583 52.635C183.053 52.835 183.458 53.11 183.798 53.46C184.148 53.81 184.423 54.225 184.623 54.705C184.823 55.185 184.923 55.695 184.923 56.235C184.923 56.785 184.823 57.3 184.623 57.78C184.423 58.26 184.148 58.675 183.798 59.025C183.458 59.375 183.053 59.65 182.583 59.85C182.123 60.05 181.628 60.15 181.098 60.15C180.568 60.15 180.068 60.05 179.598 59.85C179.128 59.65 178.718 59.375 178.368 59.025C178.028 58.675 177.758 58.26 177.558 57.78C177.358 57.3 177.258 56.785 177.258 56.235ZM181.098 59.16C181.478 59.16 181.833 59.085 182.163 58.935C182.503 58.785 182.793 58.58 183.033 58.32C183.283 58.05 183.478 57.74 183.618 57.39C183.758 57.03 183.828 56.645 183.828 56.235C183.828 55.825 183.758 55.445 183.618 55.095C183.478 54.735 183.283 54.425 183.033 54.165C182.793 53.905 182.503 53.7 182.163 53.55C181.833 53.4 181.478 53.325 181.098 53.325C180.718 53.325 180.358 53.4 180.018 53.55C179.688 53.7 179.398 53.905 179.148 54.165C178.908 54.425 178.713 54.735 178.563 55.095C178.423 55.445 178.353 55.825 178.353 56.235C178.353 56.645 178.423 57.03 178.563 57.39C178.703 57.74 178.893 58.05 179.133 58.32C179.383 58.58 179.678 58.785 180.018 58.935C180.358 59.085 180.718 59.16 181.098 59.16ZM187.531 52.485V57.015C187.531 57.675 187.721 58.2 188.101 58.59C188.481 58.98 188.991 59.175 189.631 59.175C190.081 59.175 190.481 59.075 190.831 58.875C191.191 58.665 191.481 58.375 191.701 58.005V52.485H192.811V60H191.701V59.13C191.411 59.47 191.066 59.725 190.666 59.895C190.276 60.065 189.836 60.15 189.346 60.15C188.486 60.15 187.786 59.88 187.246 59.34C186.706 58.8 186.436 58.1 186.436 57.24V52.485H187.531ZM194.698 60V52.485H195.808V53.55C196.028 53.16 196.318 52.86 196.678 52.65C197.038 52.43 197.448 52.32 197.908 52.32C198.048 52.32 198.173 52.33 198.283 52.35C198.393 52.36 198.503 52.385 198.613 52.425V53.445C198.483 53.405 198.353 53.375 198.223 53.355C198.093 53.325 197.963 53.31 197.833 53.31C197.373 53.31 196.968 53.445 196.618 53.715C196.268 53.975 195.998 54.355 195.808 54.855V60H194.698ZM202.851 59.13C203.251 59.13 203.636 59.05 204.006 58.89C204.376 58.73 204.721 58.495 205.041 58.185L205.731 58.935C205.331 59.315 204.881 59.61 204.381 59.82C203.881 60.03 203.361 60.135 202.821 60.135C202.291 60.135 201.791 60.035 201.321 59.835C200.851 59.635 200.446 59.36 200.106 59.01C199.766 58.66 199.496 58.245 199.296 57.765C199.096 57.285 198.996 56.775 198.996 56.235C198.996 55.695 199.096 55.19 199.296 54.72C199.496 54.24 199.766 53.825 200.106 53.475C200.446 53.125 200.851 52.85 201.321 52.65C201.791 52.44 202.291 52.335 202.821 52.335C203.361 52.335 203.886 52.44 204.396 52.65C204.916 52.86 205.371 53.15 205.761 53.52L205.056 54.33C204.756 54.02 204.411 53.78 204.021 53.61C203.631 53.44 203.236 53.355 202.836 53.355C202.456 53.355 202.096 53.43 201.756 53.58C201.416 53.73 201.121 53.935 200.871 54.195C200.631 54.455 200.441 54.76 200.301 55.11C200.161 55.46 200.091 55.835 200.091 56.235C200.091 56.645 200.161 57.03 200.301 57.39C200.451 57.74 200.646 58.045 200.886 58.305C201.136 58.555 201.431 58.755 201.771 58.905C202.111 59.055 202.471 59.13 202.851 59.13ZM207.032 60V49.5L208.142 49.245V53.37C208.432 53.03 208.777 52.775 209.177 52.605C209.577 52.425 210.022 52.335 210.512 52.335C211.362 52.335 212.057 52.605 212.597 53.145C213.137 53.685 213.407 54.385 213.407 55.245V60H212.312V55.47C212.312 54.81 212.122 54.285 211.742 53.895C211.362 53.505 210.852 53.31 210.212 53.31C209.762 53.31 209.357 53.41 208.997 53.61C208.647 53.81 208.362 54.095 208.142 54.465V60H207.032ZM221.594 59.205C221.174 59.515 220.734 59.75 220.274 59.91C219.824 60.06 219.329 60.135 218.789 60.135C218.249 60.135 217.739 60.035 217.259 59.835C216.789 59.635 216.379 59.36 216.029 59.01C215.689 58.66 215.419 58.25 215.219 57.78C215.019 57.3 214.919 56.785 214.919 56.235C214.919 55.695 215.014 55.19 215.204 54.72C215.404 54.25 215.669 53.84 215.999 53.49C216.329 53.14 216.719 52.865 217.169 52.665C217.629 52.465 218.114 52.365 218.624 52.365C219.124 52.365 219.589 52.465 220.019 52.665C220.459 52.865 220.834 53.14 221.144 53.49C221.464 53.84 221.714 54.25 221.894 54.72C222.084 55.19 222.179 55.695 222.179 56.235V56.58H216.014C216.094 57.32 216.399 57.935 216.929 58.425C217.459 58.915 218.094 59.16 218.834 59.16C219.224 59.16 219.604 59.1 219.974 58.98C220.344 58.86 220.654 58.69 220.904 58.47L221.594 59.205ZM218.594 53.34C217.944 53.34 217.379 53.56 216.899 54C216.429 54.44 216.144 55.005 216.044 55.695H221.069C220.969 55.035 220.684 54.48 220.214 54.03C219.754 53.57 219.214 53.34 218.594 53.34ZM224.368 58.32V53.43H222.748V52.485H224.368V50.58L225.463 50.295V52.485H227.728V53.43H225.463V58.035C225.463 58.435 225.553 58.725 225.733 58.905C225.913 59.075 226.208 59.16 226.618 59.16C226.828 59.16 227.013 59.145 227.173 59.115C227.343 59.085 227.523 59.035 227.713 58.965V59.94C227.523 60.01 227.308 60.06 227.068 60.09C226.838 60.12 226.613 60.135 226.393 60.135C225.743 60.135 225.243 59.98 224.893 59.67C224.543 59.36 224.368 58.91 224.368 58.32ZM229.993 58.32V53.43H228.373V52.485H229.993V50.58L231.088 50.295V52.485H233.353V53.43H231.088V58.035C231.088 58.435 231.178 58.725 231.358 58.905C231.538 59.075 231.833 59.16 232.243 59.16C232.453 59.16 232.638 59.145 232.798 59.115C232.968 59.085 233.148 59.035 233.338 58.965V59.94C233.148 60.01 232.933 60.06 232.693 60.09C232.463 60.12 232.238 60.135 232.018 60.135C231.368 60.135 230.868 59.98 230.518 59.67C230.168 59.36 229.993 58.91 229.993 58.32ZM240.637 59.205C240.217 59.515 239.777 59.75 239.317 59.91C238.867 60.06 238.372 60.135 237.832 60.135C237.292 60.135 236.782 60.035 236.302 59.835C235.832 59.635 235.422 59.36 235.072 59.01C234.732 58.66 234.462 58.25 234.262 57.78C234.062 57.3 233.962 56.785 233.962 56.235C233.962 55.695 234.057 55.19 234.247 54.72C234.447 54.25 234.712 53.84 235.042 53.49C235.372 53.14 235.762 52.865 236.212 52.665C236.672 52.465 237.157 52.365 237.667 52.365C238.167 52.365 238.632 52.465 239.062 52.665C239.502 52.865 239.877 53.14 240.187 53.49C240.507 53.84 240.757 54.25 240.937 54.72C241.127 55.19 241.222 55.695 241.222 56.235V56.58H235.057C235.137 57.32 235.442 57.935 235.972 58.425C236.502 58.915 237.137 59.16 237.877 59.16C238.267 59.16 238.647 59.1 239.017 58.98C239.387 58.86 239.697 58.69 239.947 58.47L240.637 59.205ZM237.637 53.34C236.987 53.34 236.422 53.56 235.942 54C235.472 54.44 235.187 55.005 235.087 55.695H240.112C240.012 55.035 239.727 54.48 239.257 54.03C238.797 53.57 238.257 53.34 237.637 53.34Z" fill="#C54B25"/>
    <path d="M118.226 83.7598C118.411 83.7598 118.606 83.728 118.812 83.6646C119.017 83.5962 119.219 83.5059 119.419 83.3936C119.625 83.2764 119.817 83.1396 119.998 82.9834C120.184 82.8223 120.345 82.6489 120.481 82.4634C120.623 82.2729 120.735 82.0752 120.818 81.8701C120.901 81.6602 120.943 81.4502 120.943 81.2402C120.943 81.1523 120.926 81.0596 120.892 80.9619C120.862 80.8643 120.811 80.7739 120.738 80.6909C120.669 80.6079 120.577 80.5396 120.459 80.4858C120.342 80.4272 120.198 80.3979 120.027 80.3979C119.695 80.3979 119.378 80.4761 119.075 80.6323C118.777 80.7886 118.499 81.001 118.24 81.2695C117.981 81.5381 117.745 81.853 117.53 82.2144C117.32 82.5708 117.139 82.9517 116.988 83.3569C116.841 83.7622 116.727 84.1797 116.644 84.6094C116.565 85.0391 116.526 85.4565 116.526 85.8618C116.526 86.3257 116.568 86.7773 116.651 87.2168C116.734 87.6514 116.866 88.0371 117.046 88.374C117.232 88.7109 117.474 88.9819 117.771 89.187C118.069 89.3872 118.436 89.4873 118.87 89.4873C119.188 89.4873 119.473 89.4409 119.727 89.3481C119.981 89.2554 120.198 89.1553 120.379 89.0479C120.56 88.9355 120.699 88.833 120.796 88.7402C120.894 88.6426 120.948 88.5913 120.958 88.5864C121.021 88.479 121.092 88.4155 121.17 88.396C121.253 88.3765 121.331 88.3862 121.404 88.4253C121.482 88.4644 121.553 88.5254 121.617 88.6084C121.68 88.6865 121.729 88.772 121.763 88.8647C121.802 88.9575 121.819 89.0503 121.814 89.1431C121.81 89.2358 121.778 89.3115 121.719 89.3701C121.709 89.3799 121.673 89.4165 121.609 89.48C121.546 89.5435 121.456 89.6216 121.338 89.7144C121.221 89.8071 121.077 89.9048 120.906 90.0073C120.735 90.1147 120.542 90.2124 120.328 90.3003C120.113 90.3931 119.874 90.4688 119.61 90.5273C119.351 90.5859 119.07 90.6152 118.768 90.6152C118.23 90.6152 117.75 90.5029 117.325 90.2783C116.9 90.0537 116.539 89.7363 116.241 89.3262C115.948 88.9111 115.723 88.4106 115.567 87.8247C115.411 87.2388 115.333 86.5845 115.333 85.8618C115.333 85.3735 115.384 84.873 115.486 84.3604C115.589 83.8477 115.738 83.3496 115.933 82.8662C116.133 82.3779 116.375 81.9189 116.658 81.4893C116.941 81.0547 117.264 80.6763 117.625 80.354C117.986 80.0317 118.384 79.7778 118.819 79.5923C119.253 79.4019 119.72 79.3066 120.218 79.3066C120.486 79.3066 120.738 79.3481 120.972 79.4312C121.207 79.5142 121.407 79.6387 121.573 79.8047C121.744 79.9707 121.878 80.1782 121.976 80.4272C122.073 80.6714 122.122 80.957 122.122 81.2842C122.122 81.5918 122.061 81.8921 121.939 82.1851C121.822 82.478 121.663 82.7563 121.463 83.02C121.263 83.2788 121.028 83.5181 120.76 83.7378C120.496 83.9575 120.215 84.1479 119.917 84.3091C119.625 84.4653 119.327 84.5874 119.024 84.6753C118.721 84.7632 118.431 84.8071 118.152 84.8071C117.967 84.8071 117.808 84.751 117.676 84.6387C117.549 84.5215 117.486 84.3384 117.486 84.0894C117.486 84.0356 117.488 83.9819 117.493 83.9282C117.503 83.8696 117.515 83.8184 117.53 83.7744C117.544 83.7256 117.562 83.6865 117.581 83.6572C117.605 83.6279 117.63 83.6133 117.654 83.6133C117.679 83.6133 117.701 83.6206 117.72 83.6353C117.745 83.6499 117.774 83.667 117.808 83.6865C117.847 83.7061 117.898 83.7231 117.962 83.7378C118.025 83.7524 118.113 83.7598 118.226 83.7598ZM128.172 87.5244C128.182 87.4658 128.213 87.417 128.267 87.3779C128.326 87.3389 128.392 87.312 128.465 87.2974C128.538 87.2827 128.614 87.2827 128.692 87.2974C128.775 87.312 128.846 87.3462 128.904 87.3999C128.968 87.4487 129.012 87.5195 129.036 87.6123C129.065 87.7002 129.063 87.8149 129.029 87.9565C128.985 88.1616 128.912 88.3545 128.809 88.5352C128.711 88.7109 128.587 88.8672 128.436 89.0039C128.284 89.1406 128.106 89.248 127.901 89.3262C127.696 89.4043 127.466 89.4434 127.212 89.4434C127.076 89.4434 126.946 89.436 126.824 89.4214C126.707 89.4067 126.592 89.3799 126.48 89.3408C126.294 89.6631 126.055 89.9219 125.762 90.1172C125.469 90.3174 125.108 90.4175 124.678 90.4175C124.297 90.4175 123.97 90.3418 123.697 90.1904C123.423 90.0439 123.196 89.8438 123.016 89.5898C122.835 89.3311 122.701 89.0332 122.613 88.6963C122.53 88.3594 122.488 88.0029 122.488 87.627C122.488 87.0752 122.552 86.582 122.679 86.1475C122.811 85.708 122.962 85.3369 123.133 85.0342C123.304 84.7266 123.472 84.4922 123.638 84.3311C123.809 84.1699 123.936 84.0894 124.019 84.0894C124.117 84.0894 124.205 84.1333 124.283 84.2212C124.366 84.3042 124.424 84.4043 124.458 84.5215C124.498 84.6338 124.507 84.7485 124.488 84.8657C124.473 84.9829 124.417 85.0732 124.319 85.1367C124.261 85.2295 124.19 85.3369 124.107 85.459C124.029 85.5811 123.953 85.7349 123.88 85.9204C123.812 86.1011 123.753 86.3232 123.704 86.5869C123.655 86.8506 123.631 87.168 123.631 87.5391C123.631 87.8564 123.658 88.1323 123.711 88.3667C123.77 88.6011 123.848 88.7988 123.946 88.96C124.048 89.1162 124.163 89.2334 124.29 89.3115C124.422 89.3896 124.561 89.4287 124.708 89.4287C124.922 89.4287 125.098 89.3774 125.235 89.2749C125.376 89.1675 125.496 89.0283 125.594 88.8574C125.242 88.5547 124.974 88.1714 124.788 87.7075C124.607 87.2388 124.517 86.7334 124.517 86.1914C124.517 85.957 124.542 85.7349 124.59 85.5249C124.644 85.3101 124.72 85.1221 124.817 84.9609C124.92 84.7998 125.047 84.6729 125.198 84.5801C125.35 84.4824 125.525 84.4336 125.726 84.4336C125.901 84.4336 126.067 84.4971 126.224 84.624C126.38 84.751 126.517 84.9268 126.634 85.1514C126.751 85.376 126.841 85.6421 126.905 85.9497C126.973 86.2573 127.007 86.5918 127.007 86.9531C127.007 87.2314 126.99 87.5073 126.956 87.7808C126.922 88.0542 126.868 88.3179 126.795 88.5718C126.849 88.5913 126.897 88.6035 126.941 88.6084C126.99 88.6084 127.042 88.6084 127.095 88.6084C127.256 88.6084 127.398 88.5791 127.52 88.5205C127.647 88.4619 127.754 88.3838 127.842 88.2861C127.93 88.1885 128.001 88.0737 128.055 87.9419C128.108 87.8101 128.147 87.6709 128.172 87.5244ZM125.308 86.1328C125.308 86.4697 125.359 86.7896 125.462 87.0923C125.569 87.395 125.708 87.6587 125.879 87.8833C125.909 87.644 125.923 87.4146 125.923 87.1948C125.923 86.9409 125.918 86.7065 125.909 86.4917C125.904 86.272 125.887 86.084 125.857 85.9277C125.833 85.7715 125.796 85.6494 125.748 85.5615C125.704 85.4688 125.643 85.4224 125.564 85.4224C125.394 85.4224 125.308 85.6592 125.308 86.1328ZM128.97 82.7856C128.848 82.7856 128.731 82.7612 128.619 82.7124C128.511 82.6636 128.416 82.5977 128.333 82.5146C128.255 82.4316 128.191 82.3364 128.143 82.229C128.094 82.1167 128.069 81.9971 128.069 81.8701C128.069 81.7383 128.094 81.6162 128.143 81.5039C128.191 81.3916 128.255 81.2964 128.333 81.2183C128.416 81.1353 128.511 81.0718 128.619 81.0278C128.731 80.979 128.848 80.9546 128.97 80.9546C129.102 80.9546 129.224 80.979 129.336 81.0278C129.449 81.0718 129.544 81.1353 129.622 81.2183C129.705 81.2964 129.769 81.3916 129.812 81.5039C129.861 81.6162 129.886 81.7383 129.886 81.8701C129.886 81.9971 129.861 82.1167 129.812 82.229C129.769 82.3364 129.705 82.4316 129.622 82.5146C129.544 82.5977 129.449 82.6636 129.336 82.7124C129.224 82.7612 129.102 82.7856 128.97 82.7856ZM129.314 88.7402C129.314 88.7744 129.317 88.8306 129.322 88.9087C129.327 88.9819 129.341 89.0576 129.366 89.1357C129.39 89.2139 129.429 89.2822 129.483 89.3408C129.537 89.3994 129.612 89.4287 129.71 89.4287C129.856 89.4287 129.983 89.375 130.091 89.2676C130.203 89.1602 130.298 89.0259 130.376 88.8647C130.459 88.7036 130.528 88.5303 130.582 88.3447C130.635 88.1543 130.679 87.9761 130.713 87.8101C130.743 87.6587 130.787 87.5488 130.845 87.4805C130.909 87.4121 130.975 87.3755 131.043 87.3706C131.116 87.3608 131.187 87.3779 131.255 87.4219C131.329 87.4658 131.392 87.5244 131.446 87.5977C131.504 87.666 131.546 87.7441 131.57 87.832C131.6 87.9199 131.604 88.0029 131.585 88.0811C131.517 88.3301 131.426 88.5913 131.314 88.8647C131.207 89.1382 131.067 89.3896 130.896 89.6191C130.726 89.8486 130.521 90.0391 130.281 90.1904C130.042 90.3418 129.761 90.4175 129.439 90.4175C129.239 90.4175 129.061 90.3784 128.904 90.3003C128.748 90.2271 128.616 90.127 128.509 90C128.401 89.873 128.318 89.7241 128.26 89.5532C128.206 89.3823 128.179 89.2017 128.179 89.0112V85.0049C128.179 84.8633 128.167 84.7607 128.143 84.6973C128.123 84.6338 128.113 84.5752 128.113 84.5215C128.113 84.4482 128.152 84.3896 128.23 84.3457C128.309 84.2969 128.401 84.2725 128.509 84.2725C128.758 84.2725 128.953 84.3384 129.095 84.4702C129.241 84.5972 129.314 84.751 129.314 84.9316V88.7402ZM130.772 85.0049C130.772 84.8633 130.76 84.7607 130.735 84.6973C130.716 84.6338 130.706 84.5752 130.706 84.5215C130.706 84.4482 130.745 84.3896 130.823 84.3457C130.901 84.2969 130.994 84.2725 131.102 84.2725C131.351 84.2725 131.546 84.3384 131.688 84.4702C131.834 84.5972 131.907 84.751 131.907 84.9316V85.6055C132.01 85.3955 132.12 85.2002 132.237 85.0195C132.359 84.8389 132.488 84.6826 132.625 84.5508C132.767 84.4141 132.916 84.3091 133.072 84.2358C133.233 84.1577 133.406 84.1187 133.592 84.1187C133.841 84.1187 134.046 84.165 134.207 84.2578C134.368 84.3506 134.495 84.4702 134.588 84.6167C134.681 84.7632 134.744 84.9268 134.778 85.1074C134.817 85.2881 134.837 85.4639 134.837 85.6348V88.7402C134.837 88.7744 134.839 88.8306 134.844 88.9087C134.849 88.9819 134.864 89.0576 134.888 89.1357C134.913 89.2139 134.949 89.2822 134.998 89.3408C135.052 89.3994 135.127 89.4287 135.225 89.4287C135.376 89.4287 135.506 89.375 135.613 89.2676C135.726 89.1602 135.821 89.0259 135.899 88.8647C135.982 88.7036 136.048 88.5303 136.097 88.3447C136.15 88.1543 136.194 87.9761 136.229 87.8101C136.258 87.6538 136.307 87.5415 136.375 87.4731C136.443 87.3999 136.514 87.3633 136.587 87.3633C136.646 87.3633 136.707 87.3828 136.771 87.4219C136.834 87.4561 136.89 87.5024 136.939 87.561C136.993 87.6196 137.034 87.6855 137.063 87.7588C137.098 87.832 137.115 87.9053 137.115 87.9785C137.115 87.9883 137.115 88.0005 137.115 88.0151C137.115 88.0298 137.11 88.0518 137.1 88.0811C137.037 88.3301 136.949 88.5913 136.836 88.8647C136.729 89.1382 136.587 89.3896 136.412 89.6191C136.241 89.8486 136.036 90.0391 135.796 90.1904C135.557 90.3418 135.276 90.4175 134.954 90.4175C134.754 90.4175 134.576 90.3784 134.419 90.3003C134.268 90.2271 134.136 90.127 134.024 90C133.917 89.873 133.833 89.7241 133.775 89.5532C133.721 89.3823 133.694 89.2017 133.694 89.0112V85.9644C133.694 85.8472 133.692 85.7373 133.687 85.6348C133.682 85.5322 133.667 85.4419 133.643 85.3638C133.624 85.2856 133.592 85.2246 133.548 85.1807C133.509 85.1318 133.453 85.1074 133.379 85.1074C133.272 85.1074 133.14 85.1807 132.984 85.3271C132.828 85.4736 132.674 85.6641 132.522 85.8984C132.371 86.1328 132.237 86.3989 132.12 86.6968C132.007 86.9897 131.937 87.2852 131.907 87.583V89.7729C131.907 89.8462 131.905 89.9219 131.9 90C131.9 90.0732 131.885 90.1392 131.856 90.1978C131.832 90.2612 131.79 90.3125 131.731 90.3516C131.678 90.3955 131.597 90.4175 131.49 90.4175C131.417 90.4175 131.336 90.4077 131.248 90.3882C131.165 90.3735 131.087 90.3418 131.014 90.293C130.945 90.249 130.887 90.1831 130.838 90.0952C130.794 90.0122 130.772 89.8999 130.772 89.7583V85.0049ZM141.846 89.1577C141.846 89.4897 141.824 89.7729 141.78 90.0073C141.741 90.2417 141.685 90.4321 141.612 90.5786C141.539 90.7251 141.448 90.8325 141.341 90.9009C141.238 90.9692 141.126 91.0034 141.004 91.0034C140.911 91.0034 140.809 90.9717 140.696 90.9082C140.584 90.8447 140.477 90.7666 140.374 90.6738C140.276 90.5811 140.193 90.4858 140.125 90.3882C140.062 90.2905 140.03 90.2051 140.03 90.1318C140.03 90.083 140.035 90.0513 140.044 90.0366C140.059 90.0269 140.076 90.022 140.096 90.022C140.12 90.0269 140.147 90.0342 140.176 90.0439C140.21 90.0537 140.247 90.0586 140.286 90.0586C140.423 90.0586 140.521 89.9731 140.579 89.8022C140.643 89.6265 140.674 89.3481 140.674 88.9673V86.6089H139.898C139.82 86.6089 139.747 86.5845 139.678 86.5356C139.615 86.4868 139.559 86.4258 139.51 86.3525C139.461 86.2793 139.422 86.1987 139.393 86.1108C139.368 86.0229 139.356 85.9399 139.356 85.8618C139.356 85.7788 139.373 85.708 139.407 85.6494C139.446 85.5908 139.505 85.5615 139.583 85.5615H140.674V80.6836C140.147 80.7178 139.666 80.7959 139.231 80.918C138.797 81.04 138.423 81.2256 138.111 81.4746C137.798 81.7236 137.554 82.0483 137.378 82.4487C137.208 82.8442 137.122 83.3374 137.122 83.9282C137.122 84.187 137.146 84.4214 137.195 84.6313C137.249 84.8364 137.317 85.022 137.4 85.188C137.483 85.354 137.574 85.5005 137.671 85.6274C137.774 85.7544 137.874 85.8667 137.972 85.9644C138.055 85.9399 138.113 85.9497 138.147 85.9937C138.182 86.0376 138.199 86.0986 138.199 86.1768C138.199 86.2744 138.177 86.377 138.133 86.4844C138.094 86.5869 138.04 86.6821 137.972 86.77C137.903 86.853 137.825 86.9238 137.737 86.9824C137.654 87.0361 137.569 87.063 137.481 87.063C137.442 87.063 137.403 87.0581 137.364 87.0483C137.33 87.0386 137.293 87.0166 137.254 86.9824C137.146 86.9043 137.017 86.7773 136.866 86.6016C136.714 86.4209 136.57 86.1987 136.434 85.9351C136.297 85.6714 136.18 85.3711 136.082 85.0342C135.984 84.6924 135.936 84.3237 135.936 83.9282C135.936 82.4878 136.395 81.3892 137.312 80.6323C138.235 79.8755 139.595 79.4971 141.392 79.4971C141.529 79.4971 141.7 79.4995 141.905 79.5044C142.115 79.5044 142.337 79.5044 142.571 79.5044C142.806 79.5044 143.042 79.5068 143.282 79.5117C143.526 79.5166 143.75 79.519 143.956 79.519C144.166 79.519 144.344 79.5215 144.49 79.5264C144.642 79.5264 144.744 79.5264 144.798 79.5264C144.871 79.5264 144.932 79.5215 144.981 79.5117C145.03 79.4971 145.069 79.4824 145.098 79.4678C145.132 79.4531 145.157 79.4409 145.171 79.4312C145.191 79.4165 145.208 79.4092 145.223 79.4092C145.247 79.4092 145.271 79.4263 145.296 79.4604C145.32 79.4897 145.342 79.5288 145.362 79.5776C145.381 79.6216 145.396 79.6729 145.406 79.7314C145.42 79.79 145.428 79.8486 145.428 79.9072C145.428 79.9951 145.413 80.0879 145.384 80.1855C145.359 80.2783 145.318 80.3638 145.259 80.4419C145.201 80.5151 145.127 80.5762 145.04 80.625C144.957 80.6738 144.856 80.6982 144.739 80.6982C144.695 80.6982 144.615 80.6982 144.498 80.6982C144.38 80.6934 144.239 80.6909 144.073 80.6909C143.912 80.686 143.733 80.6836 143.538 80.6836C143.343 80.6787 143.145 80.6763 142.945 80.6763C142.75 80.6714 142.557 80.6689 142.366 80.6689C142.176 80.6641 142.002 80.6592 141.846 80.6543V85.5615H143.721C143.799 85.5029 143.858 85.4883 143.897 85.5176C143.936 85.5469 143.958 85.6006 143.963 85.6787C143.973 85.7568 143.968 85.8496 143.948 85.957C143.934 86.0645 143.907 86.167 143.868 86.2646C143.833 86.3574 143.792 86.438 143.743 86.5063C143.694 86.5747 143.641 86.6089 143.582 86.6089H141.846V89.1577ZM150.276 87.5244C150.286 87.4658 150.318 87.417 150.372 87.3779C150.43 87.3389 150.496 87.312 150.569 87.2974C150.643 87.2827 150.718 87.2827 150.796 87.2974C150.879 87.312 150.95 87.3462 151.009 87.3999C151.072 87.4487 151.116 87.5195 151.141 87.6123C151.17 87.7002 151.167 87.8149 151.133 87.9565C151.089 88.1616 151.016 88.3545 150.914 88.5352C150.816 88.7109 150.691 88.8672 150.54 89.0039C150.389 89.1406 150.21 89.248 150.005 89.3262C149.8 89.4043 149.571 89.4434 149.317 89.4434C149.18 89.4434 149.051 89.436 148.929 89.4214C148.812 89.4067 148.697 89.3799 148.584 89.3408C148.399 89.6631 148.16 89.9219 147.867 90.1172C147.574 90.3174 147.212 90.4175 146.783 90.4175C146.402 90.4175 146.075 90.3418 145.801 90.1904C145.528 90.0439 145.301 89.8438 145.12 89.5898C144.939 89.3311 144.805 89.0332 144.717 88.6963C144.634 88.3594 144.593 88.0029 144.593 87.627C144.593 87.0752 144.656 86.582 144.783 86.1475C144.915 85.708 145.066 85.3369 145.237 85.0342C145.408 84.7266 145.577 84.4922 145.743 84.3311C145.914 84.1699 146.041 84.0894 146.124 84.0894C146.221 84.0894 146.309 84.1333 146.387 84.2212C146.47 84.3042 146.529 84.4043 146.563 84.5215C146.602 84.6338 146.612 84.7485 146.592 84.8657C146.578 84.9829 146.521 85.0732 146.424 85.1367C146.365 85.2295 146.294 85.3369 146.211 85.459C146.133 85.5811 146.058 85.7349 145.984 85.9204C145.916 86.1011 145.857 86.3232 145.809 86.5869C145.76 86.8506 145.735 87.168 145.735 87.5391C145.735 87.8564 145.762 88.1323 145.816 88.3667C145.875 88.6011 145.953 88.7988 146.05 88.96C146.153 89.1162 146.268 89.2334 146.395 89.3115C146.526 89.3896 146.666 89.4287 146.812 89.4287C147.027 89.4287 147.203 89.3774 147.339 89.2749C147.481 89.1675 147.601 89.0283 147.698 88.8574C147.347 88.5547 147.078 88.1714 146.893 87.7075C146.712 87.2388 146.622 86.7334 146.622 86.1914C146.622 85.957 146.646 85.7349 146.695 85.5249C146.749 85.3101 146.824 85.1221 146.922 84.9609C147.024 84.7998 147.151 84.6729 147.303 84.5801C147.454 84.4824 147.63 84.4336 147.83 84.4336C148.006 84.4336 148.172 84.4971 148.328 84.624C148.484 84.751 148.621 84.9268 148.738 85.1514C148.855 85.376 148.946 85.6421 149.009 85.9497C149.078 86.2573 149.112 86.5918 149.112 86.9531C149.112 87.2314 149.095 87.5073 149.061 87.7808C149.026 88.0542 148.973 88.3179 148.899 88.5718C148.953 88.5913 149.002 88.6035 149.046 88.6084C149.095 88.6084 149.146 88.6084 149.2 88.6084C149.361 88.6084 149.502 88.5791 149.625 88.5205C149.751 88.4619 149.859 88.3838 149.947 88.2861C150.035 88.1885 150.105 88.0737 150.159 87.9419C150.213 87.8101 150.252 87.6709 150.276 87.5244ZM147.413 86.1328C147.413 86.4697 147.464 86.7896 147.566 87.0923C147.674 87.395 147.813 87.6587 147.984 87.8833C148.013 87.644 148.028 87.4146 148.028 87.1948C148.028 86.9409 148.023 86.7065 148.013 86.4917C148.008 86.272 147.991 86.084 147.962 85.9277C147.938 85.7715 147.901 85.6494 147.852 85.5615C147.808 85.4688 147.747 85.4224 147.669 85.4224C147.498 85.4224 147.413 85.6592 147.413 86.1328ZM154.407 90.4175C154.236 90.4175 154.08 90.3906 153.938 90.3369C153.802 90.2832 153.68 90.2075 153.572 90.1099C153.47 90.0171 153.384 89.9072 153.316 89.7803C153.248 89.6484 153.201 89.5068 153.177 89.3555C152.996 89.6729 152.784 89.9316 152.54 90.1318C152.295 90.332 152.007 90.4321 151.675 90.4321C151.426 90.4321 151.202 90.3809 151.001 90.2783C150.806 90.1758 150.64 90.0317 150.503 89.8462C150.367 89.6558 150.262 89.4287 150.188 89.165C150.12 88.8965 150.086 88.5986 150.086 88.2715C150.086 87.876 150.113 87.478 150.167 87.0776C150.225 86.6772 150.289 86.3159 150.357 85.9937C150.435 85.6177 150.525 85.2539 150.628 84.9023C150.652 84.8389 150.669 84.7754 150.679 84.7119C150.694 84.6436 150.723 84.5825 150.767 84.5288C150.811 84.4751 150.879 84.4312 150.972 84.397C151.07 84.3628 151.219 84.3457 151.419 84.3457C151.604 84.3457 151.724 84.3799 151.778 84.4482C151.832 84.5117 151.851 84.5874 151.836 84.6753C151.827 84.7632 151.797 84.8535 151.749 84.9463C151.705 85.0391 151.675 85.1147 151.661 85.1733C151.592 85.4517 151.531 85.7056 151.478 85.9351C151.424 86.1646 151.377 86.3965 151.338 86.6309C151.304 86.8604 151.277 87.1021 151.258 87.356C151.238 87.605 151.229 87.8857 151.229 88.1982C151.229 88.6084 151.287 88.9185 151.404 89.1284C151.526 89.3384 151.697 89.4434 151.917 89.4434C152.068 89.4434 152.208 89.3872 152.334 89.2749C152.466 89.1626 152.583 89.0137 152.686 88.8281C152.793 88.6377 152.886 88.4229 152.964 88.1836C153.042 87.9395 153.104 87.6855 153.147 87.4219V85.0049C153.147 84.8975 153.138 84.812 153.118 84.7485C153.104 84.6851 153.086 84.6362 153.067 84.6021C153.052 84.563 153.035 84.5337 153.016 84.5142C153.001 84.4897 152.994 84.4629 152.994 84.4336C152.994 84.4092 153.008 84.3872 153.038 84.3677C153.067 84.3481 153.106 84.3311 153.155 84.3164C153.204 84.3018 153.255 84.292 153.309 84.2871C153.367 84.2773 153.423 84.2725 153.477 84.2725C153.726 84.2725 153.921 84.3384 154.063 84.4702C154.209 84.5972 154.283 84.751 154.283 84.9316V88.7402C154.283 88.7744 154.285 88.8306 154.29 88.9087C154.295 88.9819 154.31 89.0576 154.334 89.1357C154.358 89.2139 154.397 89.2822 154.451 89.3408C154.505 89.3994 154.581 89.4287 154.678 89.4287C154.83 89.4287 154.959 89.375 155.066 89.2676C155.179 89.1602 155.274 89.0259 155.352 88.8647C155.435 88.7036 155.501 88.5303 155.55 88.3447C155.604 88.1543 155.647 87.9761 155.682 87.8101C155.711 87.6538 155.76 87.5415 155.828 87.4731C155.896 87.3999 155.967 87.3633 156.041 87.3633C156.099 87.3633 156.16 87.3828 156.224 87.4219C156.287 87.4561 156.343 87.5024 156.392 87.561C156.446 87.6196 156.487 87.6855 156.517 87.7588C156.551 87.832 156.568 87.9053 156.568 87.9785C156.568 87.9883 156.568 88.0005 156.568 88.0151C156.568 88.0298 156.563 88.0518 156.553 88.0811C156.485 88.3301 156.395 88.5913 156.282 88.8647C156.175 89.1382 156.036 89.3896 155.865 89.6191C155.694 89.8486 155.489 90.0391 155.25 90.1904C155.01 90.3418 154.729 90.4175 154.407 90.4175ZM159.014 90.4175C158.838 90.4175 158.658 90.3906 158.472 90.3369C158.292 90.2832 158.125 90.1904 157.974 90.0586C157.828 89.9268 157.706 89.7534 157.608 89.5386C157.515 89.3188 157.469 89.043 157.469 88.7109C157.469 88.2275 157.532 87.7173 157.659 87.1802C157.791 86.6382 157.979 86.0425 158.223 85.3931H157.081H156.912C156.907 85.5396 156.897 85.7251 156.883 85.9497C156.873 86.1743 156.854 86.4136 156.824 86.6675C156.795 86.9214 156.756 87.1777 156.707 87.4365C156.663 87.6953 156.607 87.9346 156.539 88.1543C156.49 88.3105 156.412 88.4009 156.304 88.4253C156.202 88.4497 156.099 88.4326 155.997 88.374C155.894 88.3105 155.811 88.2202 155.748 88.103C155.684 87.9858 155.669 87.8638 155.704 87.7368C155.743 87.5854 155.777 87.4023 155.806 87.1875C155.835 86.9678 155.857 86.7383 155.872 86.499C155.892 86.2549 155.906 86.0132 155.916 85.7739C155.926 85.5298 155.933 85.3125 155.938 85.1221C155.752 85.0195 155.599 84.8901 155.477 84.7339C155.354 84.5728 155.293 84.3823 155.293 84.1626C155.293 84.0601 155.313 83.9673 155.352 83.8843C155.396 83.7964 155.452 83.7231 155.521 83.6646C155.589 83.6011 155.669 83.5547 155.762 83.5254C155.855 83.4912 155.95 83.4741 156.048 83.4741C156.136 83.4741 156.226 83.4863 156.319 83.5107C156.417 83.5352 156.507 83.5791 156.59 83.6426C156.678 83.7061 156.756 83.7891 156.824 83.8916C156.893 83.9941 156.949 84.1211 156.993 84.2725C157.115 84.2871 157.217 84.2993 157.3 84.3091C157.388 84.314 157.461 84.3188 157.52 84.3237C157.579 84.3286 157.627 84.3311 157.667 84.3311C157.706 84.3311 157.745 84.3311 157.784 84.3311H158.567C158.611 84.3311 158.675 84.3579 158.758 84.4116C158.846 84.4653 158.931 84.5361 159.014 84.624C159.097 84.707 159.166 84.7974 159.219 84.895C159.278 84.9927 159.3 85.0854 159.285 85.1733C159.285 85.2026 159.268 85.2734 159.234 85.3857C159.2 85.498 159.158 85.6396 159.109 85.8105C159.061 85.9814 159.007 86.1792 158.948 86.4038C158.89 86.6235 158.836 86.8555 158.787 87.0996C158.738 87.3438 158.697 87.5977 158.663 87.8613C158.628 88.1201 158.611 88.374 158.611 88.623C158.611 88.7256 158.624 88.8257 158.648 88.9233C158.672 89.021 158.709 89.1089 158.758 89.187C158.807 89.2603 158.868 89.3188 158.941 89.3628C159.019 89.4067 159.109 89.4287 159.212 89.4287C159.383 89.4287 159.529 89.375 159.651 89.2676C159.773 89.1602 159.876 89.0259 159.959 88.8647C160.042 88.7036 160.108 88.5303 160.157 88.3447C160.21 88.1543 160.254 87.9761 160.289 87.8101C160.318 87.6538 160.367 87.5415 160.435 87.4731C160.503 87.3999 160.574 87.3633 160.647 87.3633C160.706 87.3633 160.767 87.3828 160.831 87.4219C160.894 87.4561 160.95 87.5024 160.999 87.561C161.053 87.6196 161.094 87.6855 161.124 87.7588C161.158 87.832 161.175 87.9053 161.175 87.9785C161.175 88.0029 161.172 88.0225 161.167 88.0371C161.163 88.0518 161.16 88.0664 161.16 88.0811C161.092 88.3301 161.001 88.5913 160.889 88.8647C160.782 89.1382 160.643 89.3896 160.472 89.6191C160.301 89.8486 160.096 90.0391 159.856 90.1904C159.617 90.3418 159.336 90.4175 159.014 90.4175ZM162.757 90.4175C162.425 90.4175 162.103 90.3564 161.79 90.2344C161.478 90.1123 161.199 89.9316 160.955 89.6924C160.716 89.4531 160.523 89.1577 160.376 88.8062C160.235 88.4546 160.164 88.0469 160.164 87.583C160.164 87.1533 160.225 86.731 160.347 86.3159C160.469 85.9009 160.638 85.5322 160.853 85.21C161.067 84.8828 161.324 84.6191 161.622 84.4189C161.924 84.2188 162.254 84.1187 162.61 84.1187C162.869 84.1187 163.089 84.1724 163.27 84.2798C163.45 84.3823 163.597 84.5093 163.709 84.6606C163.821 84.8071 163.902 84.9658 163.951 85.1367C164.004 85.3076 164.031 85.459 164.031 85.5908C164.031 85.6885 164.004 85.7764 163.951 85.8545C163.902 85.9326 163.841 85.9985 163.768 86.0522C163.694 86.106 163.614 86.1475 163.526 86.1768C163.438 86.2012 163.36 86.2109 163.292 86.2061C163.223 86.2012 163.167 86.1768 163.123 86.1328C163.084 86.0889 163.072 86.0229 163.086 85.9351C163.067 85.8716 163.047 85.7935 163.028 85.7007C163.013 85.6079 162.984 85.52 162.94 85.437C162.901 85.3491 162.845 85.2759 162.771 85.2173C162.698 85.1538 162.598 85.1221 162.471 85.1221C162.334 85.1221 162.2 85.188 162.068 85.3198C161.941 85.4468 161.827 85.6226 161.724 85.8472C161.626 86.0718 161.546 86.333 161.482 86.6309C161.424 86.9287 161.395 87.2461 161.395 87.583C161.395 87.8809 161.431 88.1445 161.504 88.374C161.583 88.6035 161.69 88.7964 161.827 88.9526C161.963 89.1089 162.125 89.2285 162.31 89.3115C162.5 89.3896 162.706 89.4287 162.925 89.4287C163.218 89.4287 163.472 89.375 163.687 89.2676C163.907 89.1553 164.092 89.0088 164.244 88.8281C164.395 88.6475 164.517 88.4448 164.61 88.2202C164.703 87.9956 164.771 87.7686 164.815 87.5391C164.849 87.373 164.917 87.2632 165.02 87.2095C165.127 87.1509 165.235 87.1362 165.342 87.1655C165.455 87.1948 165.55 87.2583 165.628 87.356C165.711 87.4487 165.745 87.561 165.73 87.6929C165.711 87.8442 165.674 88.0176 165.621 88.2129C165.572 88.4082 165.499 88.606 165.401 88.8062C165.303 89.0063 165.179 89.2041 165.027 89.3994C164.881 89.5898 164.7 89.7607 164.485 89.9121C164.271 90.0635 164.019 90.1855 163.731 90.2783C163.448 90.3711 163.123 90.4175 162.757 90.4175ZM164.815 80.7568C164.815 80.6494 164.805 80.564 164.786 80.5005C164.771 80.437 164.754 80.3882 164.734 80.354C164.72 80.3149 164.703 80.2856 164.683 80.2661C164.668 80.2417 164.661 80.2173 164.661 80.1929C164.661 80.1636 164.676 80.1392 164.705 80.1196C164.734 80.1001 164.773 80.083 164.822 80.0684C164.871 80.0537 164.922 80.0439 164.976 80.0391C165.035 80.0293 165.091 80.0244 165.145 80.0244C165.394 80.0244 165.589 80.0903 165.73 80.2222C165.877 80.3491 165.95 80.5029 165.95 80.6836V85.6055C166.053 85.3955 166.163 85.2002 166.28 85.0195C166.402 84.8389 166.531 84.6826 166.668 84.5508C166.81 84.4141 166.958 84.3091 167.115 84.2358C167.276 84.1577 167.449 84.1187 167.635 84.1187C167.884 84.1187 168.089 84.165 168.25 84.2578C168.411 84.3506 168.538 84.4702 168.631 84.6167C168.724 84.7632 168.787 84.9268 168.821 85.1074C168.86 85.2881 168.88 85.4639 168.88 85.6348V88.7402C168.88 88.7744 168.882 88.8306 168.887 88.9087C168.892 88.9819 168.907 89.0576 168.931 89.1357C168.956 89.2139 168.992 89.2822 169.041 89.3408C169.095 89.3994 169.17 89.4287 169.268 89.4287C169.419 89.4287 169.549 89.375 169.656 89.2676C169.769 89.1602 169.864 89.0259 169.942 88.8647C170.025 88.7036 170.091 88.5303 170.14 88.3447C170.193 88.1543 170.237 87.9761 170.271 87.8101C170.301 87.6587 170.345 87.5488 170.403 87.4805C170.467 87.4121 170.533 87.3755 170.601 87.3706C170.674 87.3608 170.748 87.3779 170.821 87.4219C170.894 87.4658 170.958 87.5244 171.011 87.5977C171.065 87.666 171.104 87.7441 171.128 87.832C171.158 87.9199 171.163 88.0029 171.143 88.0811C171.075 88.3301 170.984 88.5913 170.872 88.8647C170.765 89.1382 170.625 89.3896 170.455 89.6191C170.284 89.8486 170.079 90.0391 169.839 90.1904C169.6 90.3418 169.319 90.4175 168.997 90.4175C168.797 90.4175 168.619 90.3784 168.462 90.3003C168.311 90.2271 168.179 90.127 168.067 90C167.959 89.873 167.876 89.7241 167.818 89.5532C167.764 89.3823 167.737 89.2017 167.737 89.0112V85.9644C167.737 85.8472 167.735 85.7373 167.73 85.6348C167.725 85.5322 167.71 85.4419 167.686 85.3638C167.667 85.2856 167.635 85.2246 167.591 85.1807C167.552 85.1318 167.496 85.1074 167.422 85.1074C167.315 85.1074 167.183 85.1807 167.027 85.3271C166.871 85.4736 166.717 85.6641 166.565 85.8984C166.414 86.1328 166.28 86.3989 166.163 86.6968C166.05 86.9897 165.979 87.2852 165.95 87.583V89.7729C165.95 89.8462 165.948 89.9219 165.943 90C165.943 90.0732 165.928 90.1392 165.899 90.1978C165.875 90.2612 165.833 90.3125 165.774 90.3516C165.721 90.3955 165.64 90.4175 165.533 90.4175C165.459 90.4175 165.379 90.4077 165.291 90.3882C165.208 90.3735 165.13 90.3418 165.057 90.293C164.988 90.249 164.93 90.1831 164.881 90.0952C164.837 90.0122 164.815 89.8999 164.815 89.7583V80.7568ZM173.787 85.6348C173.787 85.9131 173.738 86.1987 173.641 86.4917C173.548 86.7847 173.406 87.063 173.216 87.3267C173.03 87.5854 172.798 87.8198 172.52 88.0298C172.247 88.2349 171.929 88.3911 171.568 88.4985C171.617 88.6255 171.68 88.7476 171.758 88.8647C171.841 88.9771 171.939 89.0747 172.051 89.1577C172.164 89.2407 172.293 89.3066 172.439 89.3555C172.591 89.4043 172.764 89.4287 172.959 89.4287C173.252 89.4287 173.504 89.375 173.714 89.2676C173.924 89.1553 174.1 89.0088 174.241 88.8281C174.388 88.6475 174.505 88.4448 174.593 88.2202C174.681 87.9956 174.747 87.7686 174.791 87.5391C174.825 87.373 174.893 87.2632 174.996 87.2095C175.103 87.1509 175.21 87.1362 175.318 87.1655C175.43 87.1948 175.525 87.2583 175.604 87.356C175.687 87.4487 175.721 87.561 175.706 87.6929C175.687 87.8442 175.652 88.0176 175.604 88.2129C175.56 88.4082 175.491 88.606 175.398 88.8062C175.306 89.0063 175.186 89.2041 175.04 89.3994C174.898 89.5898 174.722 89.7607 174.512 89.9121C174.302 90.0635 174.056 90.1855 173.772 90.2783C173.489 90.3711 173.165 90.4175 172.798 90.4175C172.457 90.4175 172.125 90.3491 171.802 90.2124C171.485 90.0806 171.202 89.8901 170.953 89.6411C170.708 89.3872 170.511 89.0771 170.359 88.7109C170.213 88.3398 170.14 87.9199 170.14 87.4512C170.14 86.9775 170.206 86.5381 170.337 86.1328C170.469 85.7227 170.643 85.3687 170.857 85.0708C171.072 84.7729 171.316 84.541 171.59 84.375C171.863 84.2041 172.144 84.1187 172.432 84.1187C172.642 84.1187 172.83 84.1553 172.996 84.2285C173.167 84.3018 173.311 84.4067 173.428 84.5435C173.545 84.6753 173.633 84.834 173.692 85.0195C173.755 85.2051 173.787 85.4102 173.787 85.6348ZM171.37 87.4072C171.37 87.4512 171.373 87.4951 171.377 87.5391C171.382 87.583 171.385 87.6294 171.385 87.6782C171.57 87.5903 171.739 87.478 171.89 87.3413C172.042 87.2046 172.171 87.0483 172.278 86.8726C172.386 86.6968 172.469 86.5063 172.527 86.3013C172.586 86.0913 172.615 85.874 172.615 85.6494C172.615 85.4834 172.586 85.354 172.527 85.2612C172.474 85.1685 172.398 85.1221 172.3 85.1221C172.178 85.1221 172.068 85.1636 171.971 85.2466C171.878 85.3296 171.795 85.4395 171.722 85.5762C171.653 85.708 171.595 85.8594 171.546 86.0303C171.502 86.1963 171.465 86.3647 171.436 86.5356C171.407 86.7065 171.387 86.8701 171.377 87.0264C171.368 87.1777 171.365 87.3047 171.37 87.4072ZM173.436 82.9468C173.548 82.9565 173.672 82.9639 173.809 82.9688C173.926 82.9785 174.068 82.9858 174.234 82.9907C174.4 82.9907 174.585 82.9932 174.791 82.998V80.4565C174.791 80.3491 174.781 80.2637 174.761 80.2002C174.747 80.1367 174.729 80.0879 174.71 80.0537C174.695 80.0146 174.678 79.9854 174.659 79.9658C174.644 79.9414 174.637 79.917 174.637 79.8926C174.637 79.8633 174.651 79.8389 174.681 79.8193C174.71 79.7998 174.749 79.7827 174.798 79.7681C174.847 79.7534 174.898 79.7437 174.952 79.7388C175.01 79.729 175.066 79.7241 175.12 79.7241C175.369 79.7241 175.564 79.79 175.706 79.9219C175.853 80.0488 175.926 80.2026 175.926 80.3833V83.0127C176.385 83.0127 176.868 83.0078 177.376 82.998C177.889 82.9883 178.401 82.9712 178.914 82.9468C178.982 82.8735 179.036 82.8467 179.075 82.8662C179.119 82.8857 179.146 82.9321 179.156 83.0054C179.17 83.0786 179.173 83.1689 179.163 83.2764C179.153 83.3838 179.134 83.4888 179.104 83.5913C179.075 83.689 179.034 83.7744 178.98 83.8477C178.931 83.9209 178.875 83.9575 178.812 83.9575C178.211 83.9722 177.679 83.9819 177.215 83.9868C176.756 83.9868 176.326 83.9868 175.926 83.9868V88.7402C175.926 88.9844 175.972 89.1602 176.065 89.2676C176.158 89.375 176.282 89.4287 176.438 89.4287C176.59 89.4287 176.719 89.375 176.827 89.2676C176.939 89.1602 177.034 89.0259 177.112 88.8647C177.195 88.7036 177.261 88.5303 177.31 88.3447C177.364 88.1543 177.408 87.9761 177.442 87.8101C177.471 87.6538 177.52 87.5415 177.588 87.4731C177.657 87.3999 177.728 87.3633 177.801 87.3633C177.859 87.3633 177.92 87.3828 177.984 87.4219C178.047 87.4561 178.104 87.5024 178.152 87.561C178.206 87.6196 178.248 87.6855 178.277 87.7588C178.311 87.832 178.328 87.9053 178.328 87.9785C178.328 87.9883 178.328 88.0005 178.328 88.0151C178.328 88.0298 178.323 88.0518 178.313 88.0811C178.25 88.3301 178.162 88.5913 178.05 88.8647C177.942 89.1382 177.801 89.3896 177.625 89.6191C177.454 89.8486 177.249 90.0391 177.01 90.1904C176.771 90.3418 176.49 90.4175 176.167 90.4175C175.967 90.4175 175.782 90.3857 175.611 90.3223C175.445 90.2637 175.301 90.166 175.179 90.0293C175.057 89.8975 174.961 89.7266 174.893 89.5166C174.825 89.3066 174.791 89.0527 174.791 88.7549V83.9868C174.625 83.9868 174.476 83.9868 174.344 83.9868C174.217 83.9819 174.109 83.9771 174.021 83.9722C173.919 83.9673 173.829 83.9624 173.75 83.9575C173.633 83.9575 173.531 83.9062 173.443 83.8037C173.35 83.6963 173.287 83.5791 173.252 83.4521C173.213 83.3252 173.208 83.2104 173.238 83.1079C173.262 83.0005 173.328 82.9468 173.436 82.9468ZM176.16 82.9468C176.272 82.9565 176.397 82.9639 176.534 82.9688C176.651 82.9785 176.792 82.9858 176.958 82.9907C177.125 82.9907 177.31 82.9932 177.515 82.998V80.4565C177.515 80.3491 177.505 80.2637 177.486 80.2002C177.471 80.1367 177.454 80.0879 177.435 80.0537C177.42 80.0146 177.403 79.9854 177.383 79.9658C177.369 79.9414 177.361 79.917 177.361 79.8926C177.361 79.8633 177.376 79.8389 177.405 79.8193C177.435 79.7998 177.474 79.7827 177.522 79.7681C177.571 79.7534 177.623 79.7437 177.676 79.7388C177.735 79.729 177.791 79.7241 177.845 79.7241C178.094 79.7241 178.289 79.79 178.431 79.9219C178.577 80.0488 178.65 80.2026 178.65 80.3833V83.0127C179.109 83.0127 179.593 83.0078 180.101 82.998C180.613 82.9883 181.126 82.9712 181.639 82.9468C181.707 82.8735 181.761 82.8467 181.8 82.8662C181.844 82.8857 181.871 82.9321 181.88 83.0054C181.895 83.0786 181.897 83.1689 181.888 83.2764C181.878 83.3838 181.858 83.4888 181.829 83.5913C181.8 83.689 181.758 83.7744 181.705 83.8477C181.656 83.9209 181.6 83.9575 181.536 83.9575C180.936 83.9722 180.403 83.9819 179.939 83.9868C179.48 83.9868 179.051 83.9868 178.65 83.9868V88.7402C178.65 88.9844 178.697 89.1602 178.79 89.2676C178.882 89.375 179.007 89.4287 179.163 89.4287C179.314 89.4287 179.444 89.375 179.551 89.2676C179.664 89.1602 179.759 89.0259 179.837 88.8647C179.92 88.7036 179.986 88.5303 180.035 88.3447C180.088 88.1543 180.132 87.9761 180.167 87.8101C180.196 87.6538 180.245 87.5415 180.313 87.4731C180.381 87.3999 180.452 87.3633 180.525 87.3633C180.584 87.3633 180.645 87.3828 180.708 87.4219C180.772 87.4561 180.828 87.5024 180.877 87.561C180.931 87.6196 180.972 87.6855 181.001 87.7588C181.036 87.832 181.053 87.9053 181.053 87.9785C181.053 87.9883 181.053 88.0005 181.053 88.0151C181.053 88.0298 181.048 88.0518 181.038 88.0811C180.975 88.3301 180.887 88.5913 180.774 88.8647C180.667 89.1382 180.525 89.3896 180.35 89.6191C180.179 89.8486 179.974 90.0391 179.734 90.1904C179.495 90.3418 179.214 90.4175 178.892 90.4175C178.692 90.4175 178.506 90.3857 178.335 90.3223C178.169 90.2637 178.025 90.166 177.903 90.0293C177.781 89.8975 177.686 89.7266 177.618 89.5166C177.549 89.3066 177.515 89.0527 177.515 88.7549V83.9868C177.349 83.9868 177.2 83.9868 177.068 83.9868C176.941 83.9819 176.834 83.9771 176.746 83.9722C176.644 83.9673 176.553 83.9624 176.475 83.9575C176.358 83.9575 176.255 83.9062 176.167 83.8037C176.075 83.6963 176.011 83.5791 175.977 83.4521C175.938 83.3252 175.933 83.2104 175.962 83.1079C175.987 83.0005 176.053 82.9468 176.16 82.9468ZM183.689 85.6348C183.689 85.9131 183.641 86.1987 183.543 86.4917C183.45 86.7847 183.309 87.063 183.118 87.3267C182.933 87.5854 182.701 87.8198 182.422 88.0298C182.149 88.2349 181.832 88.3911 181.47 88.4985C181.519 88.6255 181.583 88.7476 181.661 88.8647C181.744 88.9771 181.841 89.0747 181.954 89.1577C182.066 89.2407 182.195 89.3066 182.342 89.3555C182.493 89.4043 182.667 89.4287 182.862 89.4287C183.155 89.4287 183.406 89.375 183.616 89.2676C183.826 89.1553 184.002 89.0088 184.144 88.8281C184.29 88.6475 184.407 88.4448 184.495 88.2202C184.583 87.9956 184.649 87.7686 184.693 87.5391C184.727 87.373 184.795 87.2632 184.898 87.2095C185.005 87.1509 185.113 87.1362 185.22 87.1655C185.333 87.1948 185.428 87.2583 185.506 87.356C185.589 87.4487 185.623 87.561 185.608 87.6929C185.589 87.8442 185.555 88.0176 185.506 88.2129C185.462 88.4082 185.394 88.606 185.301 88.8062C185.208 89.0063 185.088 89.2041 184.942 89.3994C184.8 89.5898 184.625 89.7607 184.415 89.9121C184.205 90.0635 183.958 90.1855 183.675 90.2783C183.392 90.3711 183.067 90.4175 182.701 90.4175C182.359 90.4175 182.027 90.3491 181.705 90.2124C181.387 90.0806 181.104 89.8901 180.855 89.6411C180.611 89.3872 180.413 89.0771 180.262 88.7109C180.115 88.3398 180.042 87.9199 180.042 87.4512C180.042 86.9775 180.108 86.5381 180.24 86.1328C180.372 85.7227 180.545 85.3687 180.76 85.0708C180.975 84.7729 181.219 84.541 181.492 84.375C181.766 84.2041 182.046 84.1187 182.334 84.1187C182.544 84.1187 182.732 84.1553 182.898 84.2285C183.069 84.3018 183.213 84.4067 183.331 84.5435C183.448 84.6753 183.536 84.834 183.594 85.0195C183.658 85.2051 183.689 85.4102 183.689 85.6348ZM181.272 87.4072C181.272 87.4512 181.275 87.4951 181.28 87.5391C181.285 87.583 181.287 87.6294 181.287 87.6782C181.473 87.5903 181.641 87.478 181.792 87.3413C181.944 87.2046 182.073 87.0483 182.181 86.8726C182.288 86.6968 182.371 86.5063 182.43 86.3013C182.488 86.0913 182.518 85.874 182.518 85.6494C182.518 85.4834 182.488 85.354 182.43 85.2612C182.376 85.1685 182.3 85.1221 182.203 85.1221C182.081 85.1221 181.971 85.1636 181.873 85.2466C181.78 85.3296 181.697 85.4395 181.624 85.5762C181.556 85.708 181.497 85.8594 181.448 86.0303C181.404 86.1963 181.368 86.3647 181.338 86.5356C181.309 86.7065 181.29 86.8701 181.28 87.0264C181.27 87.1777 181.268 87.3047 181.272 87.4072Z" fill="black"/>
    <path d="M94.8502 115.53H91.7302C91.6102 115.53 91.5502 115.475 91.5502 115.365V115.035C91.5502 114.925 91.6102 114.87 91.7302 114.87H94.8502C94.9702 114.87 95.0302 114.925 95.0302 115.035V115.365C95.0302 115.475 94.9702 115.53 94.8502 115.53ZM100.738 120H98.848C98.198 120 97.683 119.81 97.303 119.43C96.933 119.05 96.748 118.53 96.748 117.87V112.485C96.748 111.825 96.933 111.305 97.303 110.925C97.683 110.545 98.198 110.355 98.848 110.355H100.738C101.388 110.355 101.898 110.545 102.268 110.925C102.648 111.305 102.838 111.825 102.838 112.485V113.22C102.838 113.34 102.783 113.4 102.673 113.4H102.253C102.143 113.4 102.088 113.34 102.088 113.22V112.515C102.088 112.035 101.963 111.67 101.713 111.42C101.473 111.16 101.123 111.03 100.663 111.03H98.908C98.448 111.03 98.098 111.16 97.858 111.42C97.618 111.68 97.498 112.045 97.498 112.515V117.84C97.498 118.31 97.618 118.675 97.858 118.935C98.098 119.195 98.448 119.325 98.908 119.325H100.663C101.123 119.325 101.473 119.2 101.713 118.95C101.963 118.69 102.088 118.32 102.088 117.84V117.135C102.088 117.015 102.143 116.955 102.253 116.955H102.673C102.783 116.955 102.838 117.015 102.838 117.135V117.87C102.838 118.53 102.648 119.05 102.268 119.43C101.898 119.81 101.388 120 100.738 120ZM107.038 119.325H108.748C109.208 119.325 109.558 119.2 109.798 118.95C110.048 118.69 110.173 118.32 110.173 117.84V112.515C110.173 112.035 110.048 111.67 109.798 111.42C109.558 111.16 109.208 111.03 108.748 111.03H107.038C106.578 111.03 106.228 111.16 105.988 111.42C105.748 111.68 105.628 112.045 105.628 112.515V117.84C105.628 118.31 105.748 118.675 105.988 118.935C106.228 119.195 106.578 119.325 107.038 119.325ZM108.823 120H106.978C106.328 120 105.813 119.81 105.433 119.43C105.063 119.05 104.878 118.53 104.878 117.87V112.485C104.878 111.825 105.063 111.305 105.433 110.925C105.813 110.545 106.328 110.355 106.978 110.355H108.823C109.473 110.355 109.983 110.545 110.353 110.925C110.733 111.305 110.923 111.825 110.923 112.485V117.87C110.923 118.53 110.733 119.05 110.353 119.43C109.983 119.81 109.473 120 108.823 120ZM114.144 110.535V119.82C114.144 119.94 114.089 120 113.979 120H113.544C113.444 120 113.394 119.94 113.394 119.82V110.535C113.394 110.415 113.444 110.355 113.544 110.355H113.979C114.089 110.355 114.144 110.415 114.144 110.535ZM117.361 120H116.926C116.826 120 116.776 119.94 116.776 119.82V110.535C116.776 110.415 116.826 110.355 116.926 110.355H117.331C117.421 110.355 117.481 110.385 117.511 110.445L122.116 118.365H122.176V110.535C122.176 110.415 122.231 110.355 122.341 110.355H122.761C122.871 110.355 122.926 110.415 122.926 110.535V119.82C122.926 119.94 122.871 120 122.761 120H122.416C122.326 120 122.246 119.945 122.176 119.835L117.586 111.975H117.526V119.82C117.526 119.94 117.471 120 117.361 120ZM130.047 120H129.612C129.512 120 129.462 119.94 129.462 119.82V110.535C129.462 110.415 129.512 110.355 129.612 110.355H134.232C134.352 110.355 134.412 110.41 134.412 110.52V110.865C134.412 110.975 134.352 111.03 134.232 111.03H130.362C130.262 111.03 130.212 111.075 130.212 111.165V114.81C130.212 114.89 130.262 114.93 130.362 114.93H133.827C133.937 114.93 133.992 114.985 133.992 115.095V115.455C133.992 115.565 133.937 115.62 133.827 115.62H130.362C130.262 115.62 130.212 115.66 130.212 115.74V119.82C130.212 119.94 130.157 120 130.047 120ZM138.356 119.325H140.066C140.526 119.325 140.876 119.2 141.116 118.95C141.366 118.69 141.491 118.32 141.491 117.84V112.515C141.491 112.035 141.366 111.67 141.116 111.42C140.876 111.16 140.526 111.03 140.066 111.03H138.356C137.896 111.03 137.546 111.16 137.306 111.42C137.066 111.68 136.946 112.045 136.946 112.515V117.84C136.946 118.31 137.066 118.675 137.306 118.935C137.546 119.195 137.896 119.325 138.356 119.325ZM140.141 120H138.296C137.646 120 137.131 119.81 136.751 119.43C136.381 119.05 136.196 118.53 136.196 117.87V112.485C136.196 111.825 136.381 111.305 136.751 110.925C137.131 110.545 137.646 110.355 138.296 110.355H140.141C140.791 110.355 141.301 110.545 141.671 110.925C142.051 111.305 142.241 111.825 142.241 112.485V117.87C142.241 118.53 142.051 119.05 141.671 119.43C141.301 119.81 140.791 120 140.141 120ZM149.857 110.355H150.277C150.387 110.355 150.442 110.41 150.442 110.52V117.87C150.442 118.53 150.252 119.05 149.872 119.43C149.502 119.81 148.992 120 148.342 120H146.662C146.012 120 145.497 119.81 145.117 119.43C144.747 119.05 144.562 118.53 144.562 117.87V110.535C144.562 110.415 144.612 110.355 144.712 110.355H145.147C145.257 110.355 145.312 110.415 145.312 110.535V117.84C145.312 118.31 145.432 118.675 145.672 118.935C145.912 119.195 146.262 119.325 146.722 119.325H148.267C148.727 119.325 149.077 119.2 149.317 118.95C149.567 118.69 149.692 118.32 149.692 117.84V110.535C149.692 110.415 149.747 110.355 149.857 110.355ZM153.499 120H153.064C152.964 120 152.914 119.94 152.914 119.82V110.535C152.914 110.415 152.964 110.355 153.064 110.355H156.484C157.134 110.355 157.649 110.545 158.029 110.925C158.409 111.305 158.599 111.825 158.599 112.485V113.91C158.599 114.47 158.454 114.93 158.164 115.29C157.884 115.65 157.499 115.88 157.009 115.98V116.04L158.794 119.82C158.854 119.94 158.819 120 158.689 120H158.224C158.094 120 158.004 119.94 157.954 119.82L156.184 116.04H153.814C153.714 116.04 153.664 116.085 153.664 116.175V119.82C153.664 119.94 153.609 120 153.499 120ZM153.814 115.395H156.409C156.869 115.395 157.224 115.27 157.474 115.02C157.724 114.76 157.849 114.395 157.849 113.925V112.515C157.849 112.045 157.724 111.68 157.474 111.42C157.224 111.16 156.869 111.03 156.409 111.03H153.814C153.714 111.03 153.664 111.075 153.664 111.165V115.26C153.664 115.35 153.714 115.395 153.814 115.395ZM164.766 120H162.876C162.226 120 161.711 119.81 161.331 119.43C160.961 119.05 160.776 118.53 160.776 117.87V112.485C160.776 111.825 160.961 111.305 161.331 110.925C161.711 110.545 162.226 110.355 162.876 110.355H164.766C165.416 110.355 165.926 110.545 166.296 110.925C166.676 111.305 166.866 111.825 166.866 112.485V113.22C166.866 113.34 166.811 113.4 166.701 113.4H166.281C166.171 113.4 166.116 113.34 166.116 113.22V112.515C166.116 112.035 165.991 111.67 165.741 111.42C165.501 111.16 165.151 111.03 164.691 111.03H162.936C162.476 111.03 162.126 111.16 161.886 111.42C161.646 111.68 161.526 112.045 161.526 112.515V117.84C161.526 118.31 161.646 118.675 161.886 118.935C162.126 119.195 162.476 119.325 162.936 119.325H164.691C165.151 119.325 165.501 119.2 165.741 118.95C165.991 118.69 166.116 118.32 166.116 117.84V117.135C166.116 117.015 166.171 116.955 166.281 116.955H166.701C166.811 116.955 166.866 117.015 166.866 117.135V117.87C166.866 118.53 166.676 119.05 166.296 119.43C165.926 119.81 165.416 120 164.766 120ZM169.641 120H169.206C169.106 120 169.056 119.94 169.056 119.82V110.535C169.056 110.415 169.106 110.355 169.206 110.355H169.641C169.751 110.355 169.806 110.415 169.806 110.535V114.63C169.806 114.72 169.856 114.765 169.956 114.765H174.156C174.256 114.765 174.306 114.72 174.306 114.63V110.535C174.306 110.415 174.356 110.355 174.456 110.355H174.891C175.001 110.355 175.056 110.415 175.056 110.535V119.82C175.056 119.94 175.001 120 174.891 120H174.456C174.356 120 174.306 119.94 174.306 119.82V115.575C174.306 115.485 174.256 115.44 174.156 115.44H169.956C169.856 115.44 169.806 115.485 169.806 115.575V119.82C169.806 119.94 169.751 120 169.641 120ZM182.396 120H177.761C177.661 120 177.611 119.94 177.611 119.82V110.535C177.611 110.415 177.661 110.355 177.761 110.355H182.396C182.516 110.355 182.576 110.41 182.576 110.52V110.865C182.576 110.975 182.516 111.03 182.396 111.03H178.511C178.411 111.03 178.361 111.075 178.361 111.165V114.615C178.361 114.705 178.411 114.75 178.511 114.75H181.976C182.086 114.75 182.141 114.805 182.141 114.915V115.26C182.141 115.37 182.086 115.425 181.976 115.425H178.511C178.411 115.425 178.361 115.47 178.361 115.56V119.19C178.361 119.28 178.411 119.325 178.511 119.325H182.396C182.516 119.325 182.576 119.38 182.576 119.49V119.835C182.576 119.945 182.516 120 182.396 120ZM186.933 120H186.498C186.388 120 186.333 119.94 186.333 119.82V111.165C186.333 111.075 186.283 111.03 186.183 111.03H184.008C183.888 111.03 183.828 110.975 183.828 110.865V110.52C183.828 110.41 183.888 110.355 184.008 110.355H189.408C189.528 110.355 189.588 110.41 189.588 110.52V110.865C189.588 110.975 189.528 111.03 189.408 111.03H187.233C187.133 111.03 187.083 111.075 187.083 111.165V119.82C187.083 119.94 187.033 120 186.933 120ZM193.231 120H192.796C192.686 120 192.631 119.94 192.631 119.82V111.165C192.631 111.075 192.581 111.03 192.481 111.03H190.306C190.186 111.03 190.126 110.975 190.126 110.865V110.52C190.126 110.41 190.186 110.355 190.306 110.355H195.706C195.826 110.355 195.886 110.41 195.886 110.52V110.865C195.886 110.975 195.826 111.03 195.706 111.03H193.531C193.431 111.03 193.381 111.075 193.381 111.165V119.82C193.381 119.94 193.331 120 193.231 120ZM202.215 120H197.58C197.48 120 197.43 119.94 197.43 119.82V110.535C197.43 110.415 197.48 110.355 197.58 110.355H202.215C202.335 110.355 202.395 110.41 202.395 110.52V110.865C202.395 110.975 202.335 111.03 202.215 111.03H198.33C198.23 111.03 198.18 111.075 198.18 111.165V114.615C198.18 114.705 198.23 114.75 198.33 114.75H201.795C201.905 114.75 201.96 114.805 201.96 114.915V115.26C201.96 115.37 201.905 115.425 201.795 115.425H198.33C198.23 115.425 198.18 115.47 198.18 115.56V119.19C198.18 119.28 198.23 119.325 198.33 119.325H202.215C202.335 119.325 202.395 119.38 202.395 119.49V119.835C202.395 119.945 202.335 120 202.215 120ZM207.277 115.53H204.157C204.037 115.53 203.977 115.475 203.977 115.365V115.035C203.977 114.925 204.037 114.87 204.157 114.87H207.277C207.397 114.87 207.457 114.925 207.457 115.035V115.365C207.457 115.475 207.397 115.53 207.277 115.53Z" fill="#4E4444"/>
</svg>