<svg width="600" height="350" viewBox="0 0 600 350" fill="none" xmlns="http://www.w3.org/2000/svg">
    <path d="M82.3402 43.968V42.6C82.3402 42.184 82.4602 41.656 82.7002 41.016L83.4922 38.76C83.5402 38.632 83.6282 38.568 83.7562 38.568C83.9322 38.568 84.0202 38.664 84.0202 38.856V43.968C84.0202 44.176 83.9162 44.28 83.7082 44.28H82.6522C82.4442 44.28 82.3402 44.176 82.3402 43.968ZM78.6442 43.968V42.6C78.6442 42.264 78.7642 41.736 79.0042 41.016L79.7962 38.76C79.8762 38.632 79.9722 38.568 80.0842 38.568C80.2442 38.568 80.3242 38.664 80.3242 38.856V43.968C80.3242 44.176 80.2202 44.28 80.0122 44.28H78.9802C78.7562 44.28 78.6442 44.176 78.6442 43.968ZM95.4438 38.568H96.5238C96.7478 38.568 96.8598 38.672 96.8598 38.88V50.448C96.8598 51.568 96.5478 52.44 95.9238 53.064C95.2998 53.688 94.4358 54 93.3318 54H90.6678C89.5638 54 88.6918 53.688 88.0518 53.064C87.4278 52.44 87.1158 51.568 87.1158 50.448V38.904C87.1158 38.68 87.2278 38.568 87.4518 38.568H88.5318C88.7558 38.568 88.8678 38.68 88.8678 38.904V50.376C88.8678 51.768 89.5318 52.464 90.8598 52.464H93.1158C94.4598 52.464 95.1318 51.768 95.1318 50.376V38.904C95.1318 38.68 95.2358 38.568 95.4438 38.568ZM101.917 54H100.861C100.637 54 100.525 53.888 100.525 53.664V38.904C100.525 38.68 100.637 38.568 100.861 38.568H101.845C102.037 38.568 102.165 38.632 102.229 38.76L108.853 50.4H108.949V38.904C108.949 38.68 109.061 38.568 109.285 38.568H110.341C110.565 38.568 110.677 38.68 110.677 38.904V53.664C110.677 53.888 110.565 54 110.341 54H109.453C109.277 54 109.109 53.896 108.949 53.688L102.349 42.168H102.253V53.664C102.253 53.888 102.141 54 101.917 54ZM122.342 54H114.806C114.582 54 114.47 53.888 114.47 53.664V38.904C114.47 38.68 114.582 38.568 114.806 38.568H122.342C122.566 38.568 122.678 38.68 122.678 38.904V39.768C122.678 39.992 122.566 40.104 122.342 40.104H116.462C116.302 40.104 116.222 40.176 116.222 40.32V45.168C116.222 45.312 116.302 45.384 116.462 45.384H121.598C121.822 45.384 121.934 45.496 121.934 45.72V46.584C121.934 46.808 121.822 46.92 121.598 46.92H116.462C116.302 46.92 116.222 46.992 116.222 47.136V52.248C116.222 52.392 116.302 52.464 116.462 52.464H122.342C122.566 52.464 122.678 52.576 122.678 52.8V53.664C122.678 53.888 122.566 54 122.342 54ZM137.135 54H135.431C135.223 54 135.087 53.888 135.023 53.664L130.775 38.928C130.727 38.688 130.831 38.568 131.087 38.568H132.263C132.471 38.568 132.599 38.68 132.647 38.904L136.223 52.032H136.319L139.895 38.904C139.943 38.68 140.071 38.568 140.279 38.568H141.479C141.719 38.568 141.815 38.688 141.767 38.928L137.519 53.664C137.455 53.888 137.327 54 137.135 54ZM145.652 54H144.572C144.348 54 144.236 53.888 144.236 53.664V38.904C144.236 38.68 144.348 38.568 144.572 38.568H150.092C151.196 38.568 152.068 38.888 152.708 39.528C153.348 40.152 153.668 41.016 153.668 42.12V44.304C153.668 45.2 153.452 45.944 153.02 46.536C152.588 47.112 151.988 47.496 151.22 47.688V47.784L154.004 53.616C154.148 53.872 154.068 54 153.764 54H152.684C152.412 54 152.212 53.888 152.084 53.664L149.396 47.856H146.228C146.068 47.856 145.988 47.928 145.988 48.072V53.664C145.988 53.888 145.876 54 145.652 54ZM146.228 46.392H149.852C151.228 46.392 151.916 45.704 151.916 44.328V42.192C151.916 40.8 151.228 40.104 149.852 40.104H146.228C146.068 40.104 145.988 40.176 145.988 40.32V46.176C145.988 46.32 146.068 46.392 146.228 46.392ZM157.318 54H156.118C155.91 54 155.838 53.888 155.902 53.664L160.39 38.904C160.454 38.68 160.606 38.568 160.846 38.568H162.574C162.814 38.568 162.966 38.68 163.03 38.904L167.518 53.664C167.582 53.888 167.51 54 167.302 54H166.078C165.902 54 165.79 53.888 165.742 53.664L164.614 50.16H158.806L157.678 53.664C157.614 53.888 157.494 54 157.318 54ZM161.662 40.368L159.19 48.672H164.23L161.758 40.368H161.662ZM171.959 38.904V53.664C171.959 53.888 171.847 54 171.623 54H170.543C170.319 54 170.207 53.888 170.207 53.664V38.904C170.207 38.68 170.319 38.568 170.543 38.568H171.623C171.847 38.568 171.959 38.68 171.959 38.904ZM183.962 52.512H187.898C189.274 52.512 189.962 51.832 189.962 50.472V48.912C189.962 47.552 189.226 46.872 187.754 46.872H183.962C183.802 46.872 183.722 46.944 183.722 47.088V52.272C183.722 52.432 183.802 52.512 183.962 52.512ZM183.962 45.408H187.658C189.066 45.408 189.77 44.728 189.77 43.368V42.096C189.77 40.736 189.09 40.056 187.73 40.056H183.962C183.802 40.056 183.722 40.136 183.722 40.296V45.192C183.722 45.336 183.802 45.408 183.962 45.408ZM181.97 53.664V38.904C181.97 38.68 182.082 38.568 182.306 38.568H187.946C189.05 38.568 189.914 38.88 190.538 39.504C191.162 40.112 191.474 40.968 191.474 42.072V43.392C191.474 44.816 190.802 45.736 189.458 46.152C190.066 46.2 190.586 46.472 191.018 46.968C191.45 47.448 191.666 48.088 191.666 48.888V50.496C191.666 51.6 191.346 52.464 190.706 53.088C190.082 53.696 189.218 54 188.114 54H182.306C182.082 54 181.97 53.888 181.97 53.664ZM203.014 54H195.478C195.254 54 195.142 53.888 195.142 53.664V38.904C195.142 38.68 195.254 38.568 195.478 38.568H203.014C203.238 38.568 203.35 38.68 203.35 38.904V39.768C203.35 39.992 203.238 40.104 203.014 40.104H197.134C196.974 40.104 196.894 40.176 196.894 40.32V45.168C196.894 45.312 196.974 45.384 197.134 45.384H202.27C202.494 45.384 202.606 45.496 202.606 45.72V46.584C202.606 46.808 202.494 46.92 202.27 46.92H197.134C196.974 46.92 196.894 46.992 196.894 47.136V52.248C196.894 52.392 196.974 52.464 197.134 52.464H203.014C203.238 52.464 203.35 52.576 203.35 52.8V53.664C203.35 53.888 203.238 54 203.014 54ZM214.713 54H207.009C206.785 54 206.673 53.888 206.673 53.664V38.904C206.673 38.68 206.785 38.568 207.009 38.568H208.089C208.313 38.568 208.425 38.68 208.425 38.904V52.2C208.425 52.344 208.505 52.416 208.665 52.416H214.713C214.937 52.416 215.049 52.536 215.049 52.776V53.664C215.049 53.888 214.937 54 214.713 54ZM225.541 54H217.837C217.613 54 217.501 53.888 217.501 53.664V38.904C217.501 38.68 217.613 38.568 217.837 38.568H218.917C219.141 38.568 219.253 38.68 219.253 38.904V52.2C219.253 52.344 219.333 52.416 219.493 52.416H225.541C225.765 52.416 225.877 52.536 225.877 52.776V53.664C225.877 53.888 225.765 54 225.541 54ZM236.202 54H228.666C228.442 54 228.33 53.888 228.33 53.664V38.904C228.33 38.68 228.442 38.568 228.666 38.568H236.202C236.426 38.568 236.538 38.68 236.538 38.904V39.768C236.538 39.992 236.426 40.104 236.202 40.104H230.322C230.162 40.104 230.082 40.176 230.082 40.32V45.168C230.082 45.312 230.162 45.384 230.322 45.384H235.458C235.682 45.384 235.794 45.496 235.794 45.72V46.584C235.794 46.808 235.682 46.92 235.458 46.92H230.322C230.162 46.92 230.082 46.992 230.082 47.136V52.248C230.082 52.392 230.162 52.464 230.322 52.464H236.202C236.426 52.464 236.538 52.576 236.538 52.8V53.664C236.538 53.888 236.426 54 236.202 54ZM252.147 54H249.267C248.163 54 247.291 53.688 246.651 53.064C246.027 52.44 245.715 51.568 245.715 50.448V42.12C245.715 41 246.027 40.128 246.651 39.504C247.291 38.88 248.163 38.568 249.267 38.568H252.147C253.251 38.568 254.115 38.88 254.739 39.504C255.379 40.128 255.699 41 255.699 42.12V43.296C255.699 43.52 255.587 43.632 255.363 43.632H254.283C254.059 43.632 253.947 43.52 253.947 43.296V42.192C253.947 40.8 253.275 40.104 251.931 40.104H249.459C248.131 40.104 247.467 40.8 247.467 42.192V50.376C247.467 51.768 248.131 52.464 249.459 52.464H251.931C253.275 52.464 253.947 51.768 253.947 50.376V49.272C253.947 49.048 254.059 48.936 254.283 48.936H255.363C255.587 48.936 255.699 49.048 255.699 49.272V50.448C255.699 51.568 255.379 52.44 254.739 53.064C254.115 53.688 253.251 54 252.147 54ZM267.147 38.568H268.227C268.451 38.568 268.563 38.672 268.563 38.88V50.448C268.563 51.568 268.251 52.44 267.627 53.064C267.003 53.688 266.139 54 265.035 54H262.371C261.267 54 260.395 53.688 259.755 53.064C259.131 52.44 258.819 51.568 258.819 50.448V38.904C258.819 38.68 258.931 38.568 259.155 38.568H260.235C260.459 38.568 260.571 38.68 260.571 38.904V50.376C260.571 51.768 261.235 52.464 262.563 52.464H264.819C266.163 52.464 266.835 51.768 266.835 50.376V38.904C266.835 38.68 266.939 38.568 267.147 38.568ZM274.1 38.904V53.664C274.1 53.888 273.988 54 273.764 54H272.684C272.46 54 272.348 53.888 272.348 53.664V38.904C272.348 38.68 272.46 38.568 272.684 38.568H273.764C273.988 38.568 274.1 38.68 274.1 38.904ZM277.849 50.448V49.68C277.849 49.456 277.961 49.344 278.185 49.344H279.265C279.489 49.344 279.601 49.456 279.601 49.68V50.304C279.601 51.744 280.313 52.464 281.737 52.464H283.849C285.273 52.464 285.985 51.728 285.985 50.256V49.44C285.985 48.288 285.033 47.536 283.129 47.184C282.329 47.04 281.529 46.872 280.729 46.68C279.929 46.488 279.249 46.12 278.689 45.576C278.129 45.016 277.849 44.256 277.849 43.296V42.12C277.849 41.016 278.161 40.152 278.785 39.528C279.425 38.888 280.297 38.568 281.401 38.568H284.065C285.153 38.568 286.017 38.888 286.657 39.528C287.297 40.152 287.617 41.016 287.617 42.12V42.72C287.617 42.96 287.513 43.08 287.305 43.08H286.201C285.993 43.08 285.889 42.96 285.889 42.72V42.288C285.889 40.832 285.177 40.104 283.753 40.104H281.713C280.289 40.104 279.577 40.864 279.577 42.384V43.344C279.577 44.16 280.113 44.72 281.185 45.024C281.665 45.152 282.193 45.272 282.769 45.384C283.345 45.48 283.921 45.616 284.497 45.792C285.089 45.952 285.625 46.16 286.105 46.416C286.585 46.656 286.969 47.032 287.257 47.544C287.561 48.04 287.713 48.648 287.713 49.368V50.448C287.713 51.552 287.393 52.424 286.753 53.064C286.113 53.688 285.249 54 284.161 54H281.401C280.313 54 279.449 53.688 278.809 53.064C278.169 52.424 277.849 51.552 277.849 50.448ZM293.202 38.904V53.664C293.202 53.888 293.09 54 292.866 54H291.786C291.562 54 291.45 53.888 291.45 53.664V38.904C291.45 38.68 291.562 38.568 291.786 38.568H292.866C293.09 38.568 293.202 38.68 293.202 38.904ZM298.511 54H297.455C297.231 54 297.119 53.888 297.119 53.664V38.904C297.119 38.68 297.231 38.568 297.455 38.568H298.439C298.631 38.568 298.759 38.632 298.823 38.76L305.447 50.4H305.543V38.904C305.543 38.68 305.655 38.568 305.879 38.568H306.935C307.159 38.568 307.271 38.68 307.271 38.904V53.664C307.271 53.888 307.159 54 306.935 54H306.047C305.871 54 305.703 53.896 305.543 53.688L298.943 42.168H298.847V53.664C298.847 53.888 298.735 54 298.511 54ZM318.936 54H311.4C311.176 54 311.064 53.888 311.064 53.664V38.904C311.064 38.68 311.176 38.568 311.4 38.568H318.936C319.16 38.568 319.272 38.68 319.272 38.904V39.768C319.272 39.992 319.16 40.104 318.936 40.104H313.056C312.896 40.104 312.816 40.176 312.816 40.32V45.168C312.816 45.312 312.896 45.384 313.056 45.384H318.192C318.416 45.384 318.528 45.496 318.528 45.72V46.584C318.528 46.808 318.416 46.92 318.192 46.92H313.056C312.896 46.92 312.816 46.992 312.816 47.136V52.248C312.816 52.392 312.896 52.464 313.056 52.464H318.936C319.16 52.464 319.272 52.576 319.272 52.8V53.664C319.272 53.888 319.16 54 318.936 54ZM330.681 52.464H334.713C336.057 52.464 336.729 51.768 336.729 50.376V42.192C336.729 40.8 336.057 40.104 334.713 40.104H330.681C330.521 40.104 330.441 40.176 330.441 40.32V52.248C330.441 52.392 330.521 52.464 330.681 52.464ZM328.689 53.664V38.904C328.689 38.68 328.801 38.568 329.025 38.568H334.929C336.033 38.568 336.897 38.888 337.521 39.528C338.161 40.152 338.481 41.016 338.481 42.12V50.448C338.481 51.552 338.161 52.424 337.521 53.064C336.897 53.688 336.033 54 334.929 54H329.025C328.801 54 328.689 53.888 328.689 53.664ZM349.897 54H342.361C342.137 54 342.025 53.888 342.025 53.664V38.904C342.025 38.68 342.137 38.568 342.361 38.568H349.897C350.121 38.568 350.233 38.68 350.233 38.904V39.768C350.233 39.992 350.121 40.104 349.897 40.104H344.017C343.857 40.104 343.777 40.176 343.777 40.32V45.168C343.777 45.312 343.857 45.384 344.017 45.384H349.153C349.377 45.384 349.489 45.496 349.489 45.72V46.584C349.489 46.808 349.377 46.92 349.153 46.92H344.017C343.857 46.92 343.777 46.992 343.777 47.136V52.248C343.777 52.392 343.857 52.464 344.017 52.464H349.897C350.121 52.464 350.233 52.576 350.233 52.8V53.664C350.233 53.888 350.121 54 349.897 54ZM367.69 54H359.986C359.762 54 359.65 53.888 359.65 53.664V38.904C359.65 38.68 359.762 38.568 359.986 38.568H361.066C361.29 38.568 361.402 38.68 361.402 38.904V52.2C361.402 52.344 361.482 52.416 361.642 52.416H367.69C367.914 52.416 368.026 52.536 368.026 52.776V53.664C368.026 53.888 367.914 54 367.69 54ZM370.67 54H369.47C369.262 54 369.19 53.888 369.254 53.664L373.742 38.904C373.806 38.68 373.958 38.568 374.198 38.568H375.926C376.166 38.568 376.318 38.68 376.382 38.904L380.87 53.664C380.934 53.888 380.862 54 380.654 54H379.43C379.254 54 379.142 53.888 379.094 53.664L377.966 50.16H372.158L371.03 53.664C370.966 53.888 370.846 54 370.67 54ZM375.014 40.368L372.542 48.672H377.582L375.11 40.368H375.014ZM390.949 54H389.869C389.645 54 389.533 53.888 389.533 53.664V38.904C389.533 38.68 389.645 38.568 389.869 38.568H395.389C396.493 38.568 397.365 38.888 398.005 39.528C398.645 40.152 398.965 41.016 398.965 42.12V44.304C398.965 45.2 398.749 45.944 398.317 46.536C397.885 47.112 397.285 47.496 396.517 47.688V47.784L399.301 53.616C399.445 53.872 399.365 54 399.061 54H397.981C397.709 54 397.509 53.888 397.381 53.664L394.693 47.856H391.525C391.365 47.856 391.285 47.928 391.285 48.072V53.664C391.285 53.888 391.173 54 390.949 54ZM391.525 46.392H395.149C396.525 46.392 397.213 45.704 397.213 44.328V42.192C397.213 40.8 396.525 40.104 395.149 40.104H391.525C391.365 40.104 391.285 40.176 391.285 40.32V46.176C391.285 46.32 391.365 46.392 391.525 46.392ZM407.655 33.936H409.095C409.207 33.936 409.279 33.968 409.311 34.032C409.343 34.096 409.327 34.176 409.263 34.272L407.151 36.792C407.023 36.952 406.871 37.032 406.695 37.032H405.903C405.679 37.032 405.631 36.92 405.759 36.696L407.127 34.248C407.239 34.04 407.415 33.936 407.655 33.936ZM410.295 54H402.759C402.535 54 402.423 53.888 402.423 53.664V38.904C402.423 38.68 402.535 38.568 402.759 38.568H410.295C410.519 38.568 410.631 38.68 410.631 38.904V39.768C410.631 39.992 410.519 40.104 410.295 40.104H404.415C404.255 40.104 404.175 40.176 404.175 40.32V45.168C404.175 45.312 404.255 45.384 404.415 45.384H409.551C409.775 45.384 409.887 45.496 409.887 45.72V46.584C409.887 46.808 409.775 46.92 409.551 46.92H404.415C404.255 46.92 404.175 46.992 404.175 47.136V52.248C404.175 52.392 404.255 52.464 404.415 52.464H410.295C410.519 52.464 410.631 52.576 410.631 52.8V53.664C410.631 53.888 410.519 54 410.295 54ZM419.859 54H417.267C416.163 54 415.291 53.688 414.651 53.064C414.027 52.44 413.715 51.568 413.715 50.448V42.12C413.715 41 414.027 40.128 414.651 39.504C415.291 38.88 416.163 38.568 417.267 38.568H419.859C420.963 38.568 421.827 38.888 422.451 39.528C423.075 40.152 423.387 41.016 423.387 42.12V43.104C423.387 43.344 423.275 43.464 423.051 43.464H421.971C421.747 43.464 421.635 43.344 421.635 43.104V42.192C421.635 40.8 420.971 40.104 419.643 40.104H417.459C416.131 40.104 415.467 40.8 415.467 42.192V50.376C415.467 51.768 416.131 52.464 417.459 52.464H419.643C420.971 52.464 421.635 51.768 421.635 50.376V47.688C421.635 47.528 421.563 47.448 421.419 47.448H419.043C418.819 47.448 418.707 47.344 418.707 47.136V46.248C418.707 46.024 418.819 45.912 419.043 45.912H422.907C423.227 45.912 423.387 46.08 423.387 46.416V50.448C423.387 51.568 423.075 52.44 422.451 53.064C421.827 53.688 420.963 54 419.859 54ZM428.811 38.904V53.664C428.811 53.888 428.699 54 428.475 54H427.395C427.171 54 427.059 53.888 427.059 53.664V38.904C427.059 38.68 427.171 38.568 427.395 38.568H428.475C428.699 38.568 428.811 38.68 428.811 38.904ZM436.232 52.464H438.68C440.024 52.464 440.696 51.768 440.696 50.376V42.192C440.696 40.8 440.024 40.104 438.68 40.104H436.232C434.904 40.104 434.24 40.8 434.24 42.192V50.376C434.24 51.768 434.904 52.464 436.232 52.464ZM438.896 54H436.04C434.936 54 434.064 53.688 433.424 53.064C432.8 52.44 432.488 51.568 432.488 50.448V42.12C432.488 41 432.8 40.128 433.424 39.504C434.064 38.88 434.936 38.568 436.04 38.568H438.896C440 38.568 440.864 38.888 441.488 39.528C442.128 40.152 442.448 41.016 442.448 42.12V50.448C442.448 51.552 442.128 52.424 441.488 53.064C440.864 53.688 440 54 438.896 54ZM447.386 54H446.33C446.106 54 445.994 53.888 445.994 53.664V38.904C445.994 38.68 446.106 38.568 446.33 38.568H447.314C447.506 38.568 447.634 38.632 447.698 38.76L454.322 50.4H454.418V38.904C454.418 38.68 454.53 38.568 454.754 38.568H455.81C456.034 38.568 456.146 38.68 456.146 38.904V53.664C456.146 53.888 456.034 54 455.81 54H454.922C454.746 54 454.578 53.896 454.418 53.688L447.818 42.168H447.722V53.664C447.722 53.888 447.61 54 447.386 54ZM473.905 54H466.369C466.145 54 466.033 53.888 466.033 53.664V38.904C466.033 38.68 466.145 38.568 466.369 38.568H473.905C474.129 38.568 474.241 38.68 474.241 38.904V39.768C474.241 39.992 474.129 40.104 473.905 40.104H468.025C467.865 40.104 467.785 40.176 467.785 40.32V45.168C467.785 45.312 467.865 45.384 468.025 45.384H473.161C473.385 45.384 473.497 45.496 473.497 45.72V46.584C473.497 46.808 473.385 46.92 473.161 46.92H468.025C467.865 46.92 467.785 46.992 467.785 47.136V52.248C467.785 52.392 467.865 52.464 468.025 52.464H473.905C474.129 52.464 474.241 52.576 474.241 52.8V53.664C474.241 53.888 474.129 54 473.905 54ZM481.332 54H480.252C480.028 54 479.916 53.888 479.916 53.664V40.32C479.916 40.176 479.836 40.104 479.676 40.104H476.412C476.172 40.104 476.052 39.992 476.052 39.768V38.904C476.052 38.68 476.172 38.568 476.412 38.568H485.172C485.412 38.568 485.532 38.68 485.532 38.904V39.768C485.532 39.992 485.412 40.104 485.172 40.104H481.908C481.748 40.104 481.668 40.176 481.668 40.32V53.664C481.668 53.888 481.556 54 481.332 54ZM502.108 38.568H503.188C503.412 38.568 503.524 38.672 503.524 38.88V50.448C503.524 51.568 503.212 52.44 502.588 53.064C501.964 53.688 501.1 54 499.996 54H497.332C496.228 54 495.356 53.688 494.716 53.064C494.092 52.44 493.78 51.568 493.78 50.448V38.904C493.78 38.68 493.892 38.568 494.116 38.568H495.196C495.42 38.568 495.532 38.68 495.532 38.904V50.376C495.532 51.768 496.196 52.464 497.524 52.464H499.78C501.124 52.464 501.796 51.768 501.796 50.376V38.904C501.796 38.68 501.9 38.568 502.108 38.568ZM508.581 54H507.525C507.301 54 507.189 53.888 507.189 53.664V38.904C507.189 38.68 507.301 38.568 507.525 38.568H508.509C508.701 38.568 508.829 38.632 508.893 38.76L515.517 50.4H515.613V38.904C515.613 38.68 515.725 38.568 515.949 38.568H517.005C517.229 38.568 517.341 38.68 517.341 38.904V53.664C517.341 53.888 517.229 54 517.005 54H516.117C515.941 54 515.773 53.896 515.613 53.688L509.013 42.168H508.917V53.664C508.917 53.888 508.805 54 508.581 54ZM529.006 54H521.47C521.246 54 521.134 53.888 521.134 53.664V38.904C521.134 38.68 521.246 38.568 521.47 38.568H529.006C529.23 38.568 529.342 38.68 529.342 38.904V39.768C529.342 39.992 529.23 40.104 529.006 40.104H523.126C522.966 40.104 522.886 40.176 522.886 40.32V45.168C522.886 45.312 522.966 45.384 523.126 45.384H528.262C528.486 45.384 528.598 45.496 528.598 45.72V46.584C528.598 46.808 528.486 46.92 528.262 46.92H523.126C522.966 46.92 522.886 46.992 522.886 47.136V52.248C522.886 52.392 522.966 52.464 523.126 52.464H529.006C529.23 52.464 529.342 52.576 529.342 52.8V53.664C529.342 53.888 529.23 54 529.006 54ZM229.882 69.936H231.322C231.434 69.936 231.506 69.968 231.538 70.032C231.57 70.096 231.554 70.176 231.49 70.272L229.378 72.792C229.25 72.952 229.098 73.032 228.922 73.032H228.13C227.906 73.032 227.858 72.92 227.986 72.696L229.354 70.248C229.466 70.04 229.642 69.936 229.882 69.936ZM232.522 90H224.986C224.762 90 224.65 89.888 224.65 89.664V74.904C224.65 74.68 224.762 74.568 224.986 74.568H232.522C232.746 74.568 232.858 74.68 232.858 74.904V75.768C232.858 75.992 232.746 76.104 232.522 76.104H226.642C226.482 76.104 226.402 76.176 226.402 76.32V81.168C226.402 81.312 226.482 81.384 226.642 81.384H231.778C232.002 81.384 232.114 81.496 232.114 81.72V82.584C232.114 82.808 232.002 82.92 231.778 82.92H226.642C226.482 82.92 226.402 82.992 226.402 83.136V88.248C226.402 88.392 226.482 88.464 226.642 88.464H232.522C232.746 88.464 232.858 88.576 232.858 88.8V89.664C232.858 89.888 232.746 90 232.522 90ZM239.781 88.464H242.229C243.573 88.464 244.245 87.768 244.245 86.376V78.192C244.245 76.8 243.573 76.104 242.229 76.104H239.781C238.453 76.104 237.789 76.8 237.789 78.192V86.376C237.789 87.768 238.453 88.464 239.781 88.464ZM244.389 93.192H243.405C243.117 93.192 242.909 93.08 242.781 92.856L241.053 90H239.565C238.477 90 237.613 89.688 236.973 89.064C236.349 88.44 236.037 87.568 236.037 86.448V78.12C236.037 77.016 236.349 76.152 236.973 75.528C237.613 74.888 238.477 74.568 239.565 74.568H242.421C243.525 74.568 244.389 74.88 245.013 75.504C245.653 76.128 245.973 77 245.973 78.12V86.448C245.973 87.472 245.701 88.296 245.157 88.92C244.613 89.528 243.861 89.872 242.901 89.952L244.605 92.808C244.669 92.92 244.677 93.008 244.629 93.072C244.581 93.152 244.501 93.192 244.389 93.192ZM257.819 74.568H258.899C259.123 74.568 259.235 74.672 259.235 74.88V86.448C259.235 87.568 258.923 88.44 258.299 89.064C257.675 89.688 256.811 90 255.707 90H253.043C251.939 90 251.067 89.688 250.427 89.064C249.803 88.44 249.491 87.568 249.491 86.448V74.904C249.491 74.68 249.603 74.568 249.827 74.568H250.907C251.131 74.568 251.243 74.68 251.243 74.904V86.376C251.243 87.768 251.907 88.464 253.235 88.464H255.491C256.835 88.464 257.507 87.768 257.507 86.376V74.904C257.507 74.68 257.611 74.568 257.819 74.568ZM264.772 74.904V89.664C264.772 89.888 264.66 90 264.436 90H263.356C263.132 90 263.02 89.888 263.02 89.664V74.904C263.02 74.68 263.132 74.568 263.356 74.568H264.436C264.66 74.568 264.772 74.68 264.772 74.904ZM270.105 90H269.025C268.801 90 268.689 89.888 268.689 89.664V74.904C268.689 74.68 268.801 74.568 269.025 74.568H274.641C275.745 74.568 276.609 74.888 277.233 75.528C277.857 76.152 278.169 77.016 278.169 78.12V80.784C278.169 81.904 277.857 82.776 277.233 83.4C276.609 84.024 275.745 84.336 274.641 84.336H270.681C270.521 84.336 270.441 84.408 270.441 84.552V89.664C270.441 89.888 270.329 90 270.105 90ZM270.681 82.776H274.401C275.745 82.776 276.417 82.088 276.417 80.712V78.192C276.417 76.8 275.745 76.104 274.401 76.104H270.681C270.521 76.104 270.441 76.176 270.441 76.32V82.56C270.441 82.704 270.521 82.776 270.681 82.776ZM289.194 90H281.658C281.434 90 281.322 89.888 281.322 89.664V74.904C281.322 74.68 281.434 74.568 281.658 74.568H289.194C289.418 74.568 289.53 74.68 289.53 74.904V75.768C289.53 75.992 289.418 76.104 289.194 76.104H283.314C283.154 76.104 283.074 76.176 283.074 76.32V81.168C283.074 81.312 283.154 81.384 283.314 81.384H288.45C288.674 81.384 288.786 81.496 288.786 81.72V82.584C288.786 82.808 288.674 82.92 288.45 82.92H283.314C283.154 82.92 283.074 82.992 283.074 83.136V88.248C283.074 88.392 283.154 88.464 283.314 88.464H289.194C289.418 88.464 289.53 88.576 289.53 88.8V89.664C289.53 89.888 289.418 90 289.194 90ZM299.139 90H297.939C297.731 90 297.659 89.888 297.723 89.664L302.211 74.904C302.275 74.68 302.427 74.568 302.667 74.568H304.395C304.635 74.568 304.787 74.68 304.851 74.904L309.339 89.664C309.403 89.888 309.331 90 309.123 90H307.899C307.723 90 307.611 89.888 307.563 89.664L306.435 86.16H300.627L299.499 89.664C299.435 89.888 299.315 90 299.139 90ZM303.483 76.368L301.011 84.672H306.051L303.579 76.368H303.483ZM320.116 74.568H321.196C321.42 74.568 321.532 74.672 321.532 74.88V86.448C321.532 87.568 321.22 88.44 320.596 89.064C319.972 89.688 319.108 90 318.004 90H315.34C314.236 90 313.364 89.688 312.724 89.064C312.1 88.44 311.788 87.568 311.788 86.448V74.904C311.788 74.68 311.9 74.568 312.124 74.568H313.204C313.428 74.568 313.54 74.68 313.54 74.904V86.376C313.54 87.768 314.204 88.464 315.532 88.464H317.788C319.132 88.464 319.804 87.768 319.804 86.376V74.904C319.804 74.68 319.908 74.568 320.116 74.568ZM335.059 90H333.979C333.755 90 333.643 89.888 333.643 89.664V76.32C333.643 76.176 333.563 76.104 333.403 76.104H330.139C329.899 76.104 329.779 75.992 329.779 75.768V74.904C329.779 74.68 329.899 74.568 330.139 74.568H338.899C339.139 74.568 339.259 74.68 339.259 74.904V75.768C339.259 75.992 339.139 76.104 338.899 76.104H335.635C335.475 76.104 335.395 76.176 335.395 76.32V89.664C335.395 89.888 335.283 90 335.059 90ZM345.037 88.464H347.485C348.829 88.464 349.501 87.768 349.501 86.376V78.192C349.501 76.8 348.829 76.104 347.485 76.104H345.037C343.709 76.104 343.045 76.8 343.045 78.192V86.376C343.045 87.768 343.709 88.464 345.037 88.464ZM347.701 90H344.845C343.741 90 342.869 89.688 342.229 89.064C341.605 88.44 341.293 87.568 341.293 86.448V78.12C341.293 77 341.605 76.128 342.229 75.504C342.869 74.88 343.741 74.568 344.845 74.568H347.701C348.805 74.568 349.669 74.888 350.293 75.528C350.933 76.152 351.253 77.016 351.253 78.12V86.448C351.253 87.552 350.933 88.424 350.293 89.064C349.669 89.688 348.805 90 347.701 90ZM356.214 90H355.134C354.91 90 354.798 89.888 354.798 89.664V74.904C354.798 74.68 354.91 74.568 355.134 74.568H360.75C361.854 74.568 362.718 74.888 363.342 75.528C363.966 76.152 364.278 77.016 364.278 78.12V80.784C364.278 81.904 363.966 82.776 363.342 83.4C362.718 84.024 361.854 84.336 360.75 84.336H356.79C356.63 84.336 356.55 84.408 356.55 84.552V89.664C356.55 89.888 356.438 90 356.214 90ZM356.79 82.776H360.51C361.854 82.776 362.526 82.088 362.526 80.712V78.192C362.526 76.8 361.854 76.104 360.51 76.104H356.79C356.63 76.104 356.55 76.176 356.55 76.32V82.56C356.55 82.704 356.63 82.776 356.79 82.776ZM373.501 77.688V74.904C373.501 74.68 373.613 74.568 373.837 74.568H375.109C375.333 74.568 375.445 74.68 375.445 74.904V77.688C375.445 79.208 375.397 80.688 375.301 82.128C375.205 83.568 375.141 84.384 375.109 84.576C375.077 84.768 374.973 84.864 374.797 84.864H374.149C373.941 84.864 373.829 84.744 373.813 84.504C373.749 83.88 373.677 82.784 373.597 81.216C373.533 79.648 373.501 78.472 373.501 77.688ZM375.397 86.76V89.664C375.397 89.888 375.285 90 375.061 90H373.909C373.701 90 373.597 89.88 373.597 89.64V86.76C373.597 86.552 373.701 86.448 373.909 86.448H375.061C375.285 86.448 375.397 86.552 375.397 86.76ZM380.324 74.88V76.272C380.324 76.64 380.212 77.16 379.988 77.832L379.172 80.112C379.124 80.224 379.036 80.28 378.908 80.28C378.732 80.28 378.644 80.184 378.644 79.992V74.904C378.644 74.68 378.756 74.568 378.98 74.568H380.012C380.22 74.568 380.324 74.672 380.324 74.88ZM384.02 74.88V76.272C384.02 76.672 383.9 77.192 383.66 77.832L382.868 80.112C382.82 80.224 382.716 80.28 382.556 80.28C382.412 80.28 382.34 80.184 382.34 79.992V74.904C382.34 74.68 382.444 74.568 382.652 74.568H383.708C383.916 74.568 384.02 74.672 384.02 74.88Z" fill="#686666"/>
    <path d="M203.71 113.4H207.742C208.786 113.4 209.71 113.652 210.514 114.156C211.33 114.66 211.966 115.386 212.422 116.334C212.878 117.282 213.106 118.404 213.106 119.7C213.106 120.996 212.878 122.118 212.422 123.066C211.966 124.014 211.33 124.74 210.514 125.244C209.71 125.748 208.786 126 207.742 126H203.71V113.4ZM207.436 124.506C208.696 124.506 209.65 124.086 210.298 123.246C210.958 122.406 211.288 121.224 211.288 119.7C211.288 118.176 210.958 116.994 210.298 116.154C209.65 115.314 208.696 114.894 207.436 114.894H205.348V124.506H207.436ZM218.259 126.18C217.371 126.18 216.609 125.976 215.973 125.568C215.349 125.148 214.875 124.584 214.551 123.876C214.239 123.168 214.083 122.382 214.083 121.518C214.083 120.69 214.227 119.934 214.515 119.25C214.815 118.554 215.241 118.008 215.793 117.612C216.357 117.204 217.023 117 217.791 117C218.775 117 219.573 117.33 220.185 117.99C220.809 118.65 221.121 119.562 221.121 120.726C221.121 120.93 221.097 121.212 221.049 121.572H215.685C215.721 122.616 215.979 123.408 216.459 123.948C216.951 124.488 217.587 124.758 218.367 124.758C218.739 124.758 219.129 124.716 219.537 124.632C219.957 124.536 220.323 124.404 220.635 124.236L220.779 125.64C220.119 126 219.279 126.18 218.259 126.18ZM219.519 120.474C219.519 119.874 219.369 119.388 219.069 119.016C218.781 118.632 218.361 118.44 217.809 118.44C217.269 118.44 216.819 118.608 216.459 118.944C216.111 119.28 215.877 119.79 215.757 120.474H219.519ZM216.495 114.39L219.141 112.698V114.462L216.495 115.488V114.39ZM226.043 126.18C224.699 126.18 223.679 125.76 222.983 124.92C222.287 124.068 221.939 122.976 221.939 121.644C221.939 120.264 222.287 119.148 222.983 118.296C223.679 117.432 224.711 117 226.079 117C226.811 117 227.465 117.15 228.041 117.45L227.789 118.836C227.249 118.548 226.685 118.404 226.097 118.404C225.293 118.404 224.663 118.686 224.207 119.25C223.763 119.802 223.541 120.576 223.541 121.572C223.541 122.568 223.769 123.354 224.225 123.93C224.693 124.506 225.335 124.794 226.151 124.794C226.775 124.794 227.327 124.65 227.807 124.362L228.023 125.766C227.783 125.886 227.483 125.982 227.123 126.054C226.763 126.138 226.403 126.18 226.043 126.18ZM232.576 126.18C231.784 126.18 231.1 125.982 230.524 125.586C229.948 125.178 229.504 124.626 229.192 123.93C228.892 123.234 228.742 122.454 228.742 121.59C228.742 120.726 228.892 119.946 229.192 119.25C229.504 118.554 229.948 118.008 230.524 117.612C231.1 117.204 231.784 117 232.576 117C233.356 117 234.034 117.204 234.61 117.612C235.186 118.008 235.624 118.554 235.924 119.25C236.224 119.946 236.374 120.726 236.374 121.59C236.374 122.454 236.224 123.234 235.924 123.93C235.624 124.626 235.186 125.178 234.61 125.586C234.034 125.982 233.356 126.18 232.576 126.18ZM232.576 124.794C233.272 124.794 233.812 124.512 234.196 123.948C234.58 123.384 234.772 122.598 234.772 121.59C234.772 120.582 234.58 119.802 234.196 119.25C233.812 118.686 233.272 118.404 232.576 118.404C231.856 118.404 231.304 118.686 230.92 119.25C230.536 119.802 230.344 120.582 230.344 121.59C230.344 122.61 230.536 123.402 230.92 123.966C231.304 124.518 231.856 124.794 232.576 124.794ZM244.126 117.18V126H242.794L242.686 124.92C242.446 125.316 242.122 125.628 241.714 125.856C241.306 126.072 240.856 126.18 240.364 126.18C239.44 126.18 238.75 125.874 238.294 125.262C237.85 124.638 237.628 123.75 237.628 122.598V117.18H239.194V122.4C239.194 123.192 239.308 123.786 239.536 124.182C239.776 124.566 240.172 124.758 240.724 124.758C241.108 124.758 241.456 124.65 241.768 124.434C242.08 124.218 242.344 123.918 242.56 123.534V117.18H244.126ZM245.415 117.18H247.089L249.141 124.146L251.157 117.18H252.831L249.915 126H248.349L245.415 117.18ZM253.927 117.18H255.205L255.403 118.656C255.799 118.08 256.171 117.66 256.519 117.396C256.879 117.132 257.257 117 257.653 117C257.809 117 257.947 117.018 258.067 117.054L257.905 118.836C257.749 118.8 257.569 118.782 257.365 118.782C256.969 118.782 256.597 118.884 256.249 119.088C255.901 119.28 255.649 119.508 255.493 119.772V126H253.927V117.18ZM259.254 113.4H260.82V115.182H259.254V113.4ZM259.254 117.18H260.82V126H259.254V117.18ZM262.91 117.18H264.188L264.386 118.656C264.782 118.08 265.154 117.66 265.502 117.396C265.862 117.132 266.24 117 266.636 117C266.792 117 266.93 117.018 267.05 117.054L266.888 118.836C266.732 118.8 266.552 118.782 266.348 118.782C265.952 118.782 265.58 118.884 265.232 119.088C264.884 119.28 264.632 119.508 264.476 119.772V126H262.91V117.18ZM273.966 126.18C272.934 126.18 272.04 125.94 271.284 125.46L271.482 123.876C272.25 124.476 273.042 124.776 273.858 124.776C274.29 124.776 274.626 124.686 274.866 124.506C275.118 124.326 275.244 124.062 275.244 123.714C275.244 123.45 275.184 123.234 275.064 123.066C274.956 122.898 274.77 122.736 274.506 122.58C274.242 122.424 273.834 122.22 273.282 121.968C272.634 121.668 272.16 121.326 271.86 120.942C271.56 120.558 271.41 120.06 271.41 119.448C271.41 118.728 271.662 118.14 272.166 117.684C272.67 117.228 273.348 117 274.2 117C275.064 117 275.82 117.192 276.468 117.576L276.27 119.034C275.946 118.818 275.64 118.662 275.352 118.566C275.064 118.458 274.722 118.404 274.326 118.404C273.906 118.404 273.576 118.494 273.336 118.674C273.096 118.854 272.976 119.106 272.976 119.43C272.976 119.754 273.078 120 273.282 120.168C273.498 120.336 273.912 120.558 274.524 120.834C275.376 121.218 275.976 121.608 276.324 122.004C276.672 122.388 276.846 122.898 276.846 123.534C276.846 124.362 276.588 125.01 276.072 125.478C275.556 125.946 274.854 126.18 273.966 126.18ZM284.503 117.18V126H283.171L283.063 124.92C282.823 125.316 282.499 125.628 282.091 125.856C281.683 126.072 281.233 126.18 280.741 126.18C279.817 126.18 279.127 125.874 278.671 125.262C278.227 124.638 278.005 123.75 278.005 122.598V117.18H279.571V122.4C279.571 123.192 279.685 123.786 279.913 124.182C280.153 124.566 280.549 124.758 281.101 124.758C281.485 124.758 281.833 124.65 282.145 124.434C282.457 124.218 282.721 123.918 282.937 123.534V117.18H284.503ZM286.746 117.18H288.024L288.222 118.656C288.618 118.08 288.99 117.66 289.338 117.396C289.698 117.132 290.076 117 290.472 117C290.628 117 290.766 117.018 290.886 117.054L290.724 118.836C290.568 118.8 290.388 118.782 290.184 118.782C289.788 118.782 289.416 118.884 289.068 119.088C288.72 119.28 288.468 119.508 288.312 119.772V126H286.746V117.18Z" fill="#8F8F8F"/>
    <path d="M299.121 110.6H300.815L310.077 123.096V110.6H311.683V126H310.187L300.727 113.174V126H299.121V110.6ZM324.038 124.834C323.422 125.289 322.777 125.633 322.102 125.868C321.442 126.088 320.716 126.198 319.924 126.198C319.132 126.198 318.384 126.051 317.68 125.758C316.991 125.465 316.389 125.061 315.876 124.548C315.377 124.035 314.981 123.433 314.688 122.744C314.395 122.04 314.248 121.285 314.248 120.478C314.248 119.686 314.387 118.945 314.666 118.256C314.959 117.567 315.348 116.965 315.832 116.452C316.316 115.939 316.888 115.535 317.548 115.242C318.223 114.949 318.934 114.802 319.682 114.802C320.415 114.802 321.097 114.949 321.728 115.242C322.373 115.535 322.923 115.939 323.378 116.452C323.847 116.965 324.214 117.567 324.478 118.256C324.757 118.945 324.896 119.686 324.896 120.478V120.984H315.854C315.971 122.069 316.419 122.971 317.196 123.69C317.973 124.409 318.905 124.768 319.99 124.768C320.562 124.768 321.119 124.68 321.662 124.504C322.205 124.328 322.659 124.079 323.026 123.756L324.038 124.834ZM319.638 116.232C318.685 116.232 317.856 116.555 317.152 117.2C316.463 117.845 316.045 118.674 315.898 119.686H323.268C323.121 118.718 322.703 117.904 322.014 117.244C321.339 116.569 320.547 116.232 319.638 116.232ZM330.565 126H328.981L325.879 114.978H327.485L329.861 123.778L332.611 114.978H334.063L336.791 123.778L339.189 114.978H340.729L337.605 126H336.043L333.315 117.178L330.565 126ZM346.141 112.118V110.6H358.967V112.118H353.401V126H351.707V112.118H346.141ZM363.197 126.198C361.994 126.198 361.012 125.89 360.249 125.274C359.501 124.658 359.127 123.859 359.127 122.876C359.127 121.849 359.523 121.035 360.315 120.434C361.107 119.818 362.178 119.51 363.527 119.51C364.114 119.51 364.678 119.576 365.221 119.708C365.778 119.84 366.292 120.023 366.761 120.258V118.806C366.761 117.926 366.512 117.266 366.013 116.826C365.514 116.371 364.788 116.144 363.835 116.144C363.292 116.144 362.742 116.225 362.185 116.386C361.642 116.533 361.041 116.775 360.381 117.112L359.765 115.858C360.557 115.477 361.29 115.198 361.965 115.022C362.64 114.846 363.314 114.758 363.989 114.758C365.382 114.758 366.453 115.088 367.201 115.748C367.964 116.408 368.345 117.354 368.345 118.586V126H366.761V124.922C366.262 125.347 365.712 125.67 365.111 125.89C364.524 126.095 363.886 126.198 363.197 126.198ZM360.689 122.832C360.689 123.448 360.946 123.954 361.459 124.35C361.987 124.731 362.662 124.922 363.483 124.922C364.143 124.922 364.744 124.819 365.287 124.614C365.83 124.409 366.321 124.086 366.761 123.646V121.578C366.306 121.27 365.815 121.05 365.287 120.918C364.774 120.771 364.202 120.698 363.571 120.698C362.691 120.698 361.987 120.896 361.459 121.292C360.946 121.673 360.689 122.187 360.689 122.832ZM381.779 120.478C381.779 121.27 381.632 122.018 381.339 122.722C381.06 123.426 380.671 124.035 380.173 124.548C379.674 125.047 379.08 125.443 378.391 125.736C377.716 126.029 376.99 126.176 376.213 126.176C375.567 126.176 374.937 126.066 374.321 125.846C373.719 125.626 373.169 125.311 372.671 124.9V126H371.065V110.6L372.693 110.226V116.144C373.147 115.704 373.675 115.374 374.277 115.154C374.893 114.919 375.545 114.802 376.235 114.802C377.012 114.802 377.738 114.949 378.413 115.242C379.087 115.535 379.674 115.939 380.173 116.452C380.671 116.951 381.06 117.552 381.339 118.256C381.632 118.945 381.779 119.686 381.779 120.478ZM376.081 116.232C375.391 116.232 374.746 116.371 374.145 116.65C373.558 116.914 373.074 117.288 372.693 117.772V123.228C373.074 123.697 373.565 124.071 374.167 124.35C374.768 124.614 375.406 124.746 376.081 124.746C377.239 124.746 378.207 124.343 378.985 123.536C379.777 122.715 380.173 121.703 380.173 120.5C380.173 119.899 380.063 119.341 379.843 118.828C379.637 118.3 379.351 117.845 378.985 117.464C378.618 117.083 378.185 116.782 377.687 116.562C377.188 116.342 376.653 116.232 376.081 116.232ZM385.669 110.226V126H384.041V110.6L385.669 110.226ZM397.73 124.834C397.114 125.289 396.468 125.633 395.794 125.868C395.134 126.088 394.408 126.198 393.616 126.198C392.824 126.198 392.076 126.051 391.372 125.758C390.682 125.465 390.081 125.061 389.568 124.548C389.069 124.035 388.673 123.433 388.38 122.744C388.086 122.04 387.94 121.285 387.94 120.478C387.94 119.686 388.079 118.945 388.358 118.256C388.651 117.567 389.04 116.965 389.524 116.452C390.008 115.939 390.58 115.535 391.24 115.242C391.914 114.949 392.626 114.802 393.374 114.802C394.107 114.802 394.789 114.949 395.42 115.242C396.065 115.535 396.615 115.939 397.07 116.452C397.539 116.965 397.906 117.567 398.17 118.256C398.448 118.945 398.588 119.686 398.588 120.478V120.984H389.546C389.663 122.069 390.11 122.971 390.888 123.69C391.665 124.409 392.596 124.768 393.682 124.768C394.254 124.768 394.811 124.68 395.354 124.504C395.896 124.328 396.351 124.079 396.718 123.756L397.73 124.834ZM393.33 116.232C392.376 116.232 391.548 116.555 390.844 117.2C390.154 117.845 389.736 118.674 389.59 119.686H396.96C396.813 118.718 396.395 117.904 395.706 117.244C395.031 116.569 394.239 116.232 393.33 116.232Z" fill="#C54B25"/>
    <path d="M268.271 193.342C268.271 193.096 268.25 192.919 268.208 192.809C268.174 192.699 268.157 192.597 268.157 192.504C268.157 192.377 268.225 192.275 268.36 192.199C268.496 192.115 268.657 192.072 268.843 192.072C269.274 192.072 269.613 192.187 269.858 192.415C270.112 192.635 270.239 192.902 270.239 193.215V194.383C270.417 194.019 270.607 193.68 270.811 193.367C271.022 193.054 271.246 192.783 271.483 192.555C271.729 192.318 271.987 192.136 272.258 192.009C272.537 191.873 272.838 191.806 273.159 191.806C273.591 191.806 273.946 191.886 274.226 192.047C274.505 192.208 274.725 192.415 274.886 192.669C275.047 192.923 275.157 193.206 275.216 193.52C275.284 193.833 275.317 194.137 275.317 194.434V199.816C275.317 199.876 275.322 199.973 275.33 200.108C275.339 200.235 275.364 200.367 275.406 200.502C275.449 200.637 275.512 200.756 275.597 200.857C275.69 200.959 275.821 201.01 275.99 201.01C276.253 201.01 276.477 200.917 276.663 200.73C276.858 200.544 277.023 200.312 277.158 200.032C277.302 199.753 277.416 199.452 277.501 199.131C277.594 198.801 277.67 198.492 277.729 198.204C277.78 197.933 277.865 197.739 277.983 197.62C278.102 197.493 278.225 197.43 278.352 197.43C278.453 197.43 278.559 197.464 278.669 197.531C278.779 197.59 278.876 197.671 278.961 197.772C279.054 197.874 279.126 197.988 279.177 198.115C279.236 198.242 279.266 198.369 279.266 198.496C279.266 198.513 279.266 198.534 279.266 198.56C279.266 198.585 279.257 198.623 279.24 198.674C279.13 199.105 278.978 199.558 278.783 200.032C278.597 200.506 278.352 200.942 278.047 201.34C277.751 201.738 277.395 202.068 276.98 202.33C276.566 202.592 276.079 202.724 275.521 202.724C275.174 202.724 274.865 202.656 274.594 202.521C274.331 202.394 274.103 202.22 273.908 202C273.722 201.78 273.578 201.522 273.477 201.226C273.383 200.929 273.337 200.616 273.337 200.286V195.005C273.337 194.802 273.333 194.611 273.324 194.434C273.316 194.256 273.29 194.099 273.248 193.964C273.214 193.828 273.159 193.723 273.083 193.646C273.015 193.562 272.918 193.52 272.791 193.52C272.605 193.52 272.376 193.646 272.105 193.9C271.835 194.154 271.568 194.484 271.306 194.891C271.043 195.297 270.811 195.758 270.607 196.274C270.413 196.782 270.29 197.294 270.239 197.811V201.606C270.239 201.733 270.235 201.865 270.227 202C270.227 202.127 270.201 202.241 270.15 202.343C270.108 202.453 270.036 202.542 269.935 202.609C269.841 202.686 269.702 202.724 269.516 202.724C269.389 202.724 269.249 202.707 269.097 202.673C268.953 202.647 268.817 202.592 268.69 202.508C268.572 202.432 268.47 202.317 268.386 202.165C268.31 202.021 268.271 201.826 268.271 201.581V193.342ZM283.646 194.434C283.646 194.916 283.561 195.411 283.392 195.919C283.231 196.427 282.985 196.909 282.655 197.366C282.334 197.815 281.932 198.221 281.449 198.585C280.975 198.94 280.425 199.211 279.799 199.397C279.883 199.618 279.993 199.829 280.129 200.032C280.273 200.227 280.442 200.396 280.637 200.54C280.831 200.684 281.056 200.798 281.31 200.883C281.572 200.967 281.872 201.01 282.211 201.01C282.719 201.01 283.155 200.917 283.519 200.73C283.882 200.536 284.187 200.282 284.433 199.969C284.687 199.656 284.89 199.304 285.042 198.915C285.194 198.526 285.309 198.132 285.385 197.734C285.444 197.447 285.562 197.256 285.74 197.163C285.926 197.062 286.113 197.036 286.299 197.087C286.493 197.138 286.659 197.248 286.794 197.417C286.938 197.578 286.997 197.772 286.972 198.001C286.938 198.263 286.879 198.564 286.794 198.902C286.718 199.241 286.599 199.584 286.438 199.931C286.278 200.278 286.07 200.62 285.816 200.959C285.571 201.289 285.266 201.585 284.902 201.848C284.538 202.11 284.111 202.322 283.62 202.482C283.129 202.643 282.566 202.724 281.932 202.724C281.339 202.724 280.764 202.605 280.205 202.368C279.655 202.14 279.164 201.81 278.732 201.378C278.309 200.938 277.966 200.4 277.704 199.766C277.45 199.122 277.323 198.395 277.323 197.582C277.323 196.761 277.438 195.999 277.666 195.297C277.895 194.586 278.195 193.972 278.567 193.456C278.94 192.94 279.363 192.538 279.837 192.25C280.311 191.954 280.798 191.806 281.297 191.806C281.661 191.806 281.987 191.869 282.274 191.996C282.571 192.123 282.82 192.305 283.023 192.542C283.227 192.771 283.379 193.046 283.48 193.367C283.59 193.689 283.646 194.044 283.646 194.434ZM279.456 197.506C279.456 197.582 279.46 197.658 279.469 197.734C279.477 197.811 279.481 197.891 279.481 197.976C279.803 197.823 280.095 197.629 280.357 197.392C280.62 197.155 280.844 196.884 281.03 196.579C281.216 196.274 281.36 195.944 281.462 195.589C281.563 195.225 281.614 194.848 281.614 194.459C281.614 194.171 281.563 193.947 281.462 193.786C281.369 193.625 281.238 193.545 281.068 193.545C280.857 193.545 280.666 193.617 280.497 193.761C280.336 193.905 280.192 194.095 280.065 194.332C279.947 194.561 279.845 194.823 279.761 195.119C279.685 195.407 279.621 195.699 279.57 195.995C279.52 196.291 279.486 196.575 279.469 196.846C279.452 197.108 279.448 197.328 279.456 197.506ZM289.93 193.342C289.93 193.096 289.913 192.919 289.879 192.809C289.845 192.699 289.828 192.597 289.828 192.504C289.828 192.377 289.892 192.275 290.019 192.199C290.154 192.115 290.315 192.072 290.501 192.072C290.933 192.072 291.275 192.187 291.529 192.415C291.783 192.635 291.91 192.902 291.91 193.215V199.169C291.919 199.44 291.94 199.689 291.974 199.918C292.016 200.146 292.084 200.341 292.177 200.502C292.27 200.663 292.397 200.79 292.558 200.883C292.718 200.967 292.926 201.01 293.18 201.01C293.425 201.01 293.628 200.963 293.789 200.87C293.958 200.769 294.094 200.633 294.195 200.464C294.297 200.295 294.369 200.1 294.411 199.88C294.453 199.651 294.475 199.414 294.475 199.169V193.342C294.475 193.096 294.458 192.919 294.424 192.809C294.39 192.699 294.373 192.597 294.373 192.504C294.373 192.377 294.441 192.275 294.576 192.199C294.712 192.115 294.872 192.072 295.059 192.072C295.49 192.072 295.829 192.187 296.074 192.415C296.328 192.635 296.455 192.902 296.455 193.215V199.169C296.455 199.575 296.413 199.99 296.328 200.413C296.252 200.828 296.1 201.209 295.871 201.556C295.643 201.894 295.321 202.174 294.906 202.394C294.492 202.614 293.95 202.724 293.281 202.724C293.002 202.724 292.74 202.69 292.494 202.622C292.249 202.554 292.024 202.461 291.821 202.343C291.618 202.233 291.44 202.106 291.288 201.962C291.136 201.81 291.013 201.649 290.92 201.479C290.835 201.649 290.708 201.81 290.539 201.962C290.378 202.106 290.192 202.233 289.98 202.343C289.769 202.461 289.54 202.554 289.295 202.622C289.049 202.69 288.804 202.724 288.559 202.724C288.076 202.724 287.661 202.669 287.314 202.559C286.976 202.449 286.688 202.296 286.451 202.102C286.214 201.915 286.024 201.7 285.88 201.454C285.744 201.209 285.639 200.955 285.562 200.692C285.486 200.43 285.436 200.163 285.41 199.893C285.393 199.622 285.385 199.372 285.385 199.144V193.342C285.385 193.096 285.364 192.919 285.321 192.809C285.287 192.699 285.271 192.597 285.271 192.504C285.271 192.377 285.338 192.275 285.474 192.199C285.609 192.115 285.77 192.072 285.956 192.072C286.388 192.072 286.726 192.187 286.972 192.415C287.226 192.635 287.353 192.902 287.353 193.215V199.169C287.353 199.397 287.365 199.626 287.391 199.854C287.424 200.075 287.484 200.269 287.568 200.438C287.661 200.608 287.793 200.747 287.962 200.857C288.131 200.959 288.355 201.01 288.635 201.01C288.88 201.01 289.083 200.963 289.244 200.87C289.413 200.769 289.549 200.633 289.65 200.464C289.752 200.295 289.824 200.1 289.866 199.88C289.909 199.651 289.93 199.414 289.93 199.169V193.342ZM295.985 189.774C296.18 189.791 296.396 189.804 296.633 189.812C296.836 189.829 297.081 189.842 297.369 189.851C297.657 189.851 297.979 189.855 298.334 189.863V185.458C298.334 185.272 298.317 185.124 298.283 185.014C298.258 184.904 298.228 184.819 298.194 184.76C298.169 184.692 298.139 184.641 298.105 184.607C298.08 184.565 298.067 184.523 298.067 184.48C298.067 184.43 298.093 184.387 298.144 184.354C298.194 184.32 298.262 184.29 298.347 184.265C298.431 184.239 298.52 184.222 298.613 184.214C298.715 184.197 298.812 184.188 298.905 184.188C299.337 184.188 299.675 184.303 299.921 184.531C300.175 184.751 300.302 185.018 300.302 185.331V189.889C301.097 189.889 301.935 189.88 302.815 189.863C303.704 189.846 304.593 189.817 305.481 189.774C305.6 189.647 305.693 189.601 305.761 189.635C305.837 189.669 305.883 189.749 305.9 189.876C305.926 190.003 305.93 190.16 305.913 190.346C305.896 190.532 305.862 190.714 305.812 190.892C305.761 191.061 305.689 191.209 305.596 191.336C305.511 191.463 305.414 191.526 305.304 191.526C304.263 191.552 303.34 191.569 302.536 191.577C301.741 191.577 300.996 191.577 300.302 191.577V199.816C300.302 200.24 300.382 200.544 300.543 200.73C300.704 200.917 300.92 201.01 301.19 201.01C301.453 201.01 301.677 200.917 301.863 200.73C302.058 200.544 302.223 200.312 302.358 200.032C302.502 199.753 302.617 199.452 302.701 199.131C302.794 198.801 302.87 198.492 302.93 198.204C302.98 197.933 303.065 197.739 303.184 197.62C303.302 197.493 303.425 197.43 303.552 197.43C303.653 197.43 303.759 197.464 303.869 197.531C303.979 197.59 304.076 197.671 304.161 197.772C304.254 197.874 304.326 197.988 304.377 198.115C304.436 198.242 304.466 198.369 304.466 198.496C304.466 198.513 304.466 198.534 304.466 198.56C304.466 198.585 304.457 198.623 304.44 198.674C304.33 199.105 304.178 199.558 303.983 200.032C303.797 200.506 303.552 200.942 303.247 201.34C302.951 201.738 302.595 202.068 302.181 202.33C301.766 202.592 301.279 202.724 300.721 202.724C300.374 202.724 300.052 202.669 299.756 202.559C299.468 202.457 299.218 202.288 299.007 202.051C298.795 201.822 298.63 201.526 298.512 201.162C298.393 200.798 298.334 200.358 298.334 199.842V191.577C298.046 191.577 297.788 191.577 297.56 191.577C297.34 191.569 297.153 191.56 297.001 191.552C296.823 191.543 296.667 191.535 296.531 191.526C296.328 191.526 296.15 191.438 295.998 191.26C295.837 191.074 295.727 190.87 295.668 190.65C295.6 190.43 295.592 190.231 295.643 190.054C295.685 189.868 295.799 189.774 295.985 189.774ZM310.407 201.01C310.67 201.01 310.894 200.917 311.08 200.73C311.275 200.544 311.44 200.312 311.575 200.032C311.719 199.753 311.833 199.452 311.918 199.131C312.011 198.801 312.087 198.492 312.146 198.204C312.206 197.933 312.29 197.739 312.4 197.62C312.519 197.493 312.646 197.43 312.781 197.43C312.883 197.43 312.984 197.464 313.086 197.531C313.196 197.59 313.293 197.671 313.378 197.772C313.471 197.874 313.543 197.988 313.594 198.115C313.653 198.242 313.683 198.369 313.683 198.496C313.683 198.513 313.683 198.534 313.683 198.56C313.683 198.585 313.674 198.623 313.657 198.674C313.547 199.105 313.395 199.558 313.2 200.032C313.014 200.506 312.773 200.942 312.477 201.34C312.18 201.738 311.821 202.068 311.397 202.33C310.983 202.592 310.496 202.724 309.938 202.724C309.48 202.724 309.083 202.626 308.744 202.432C308.406 202.237 308.139 201.979 307.944 201.657C307.682 201.953 307.365 202.203 306.992 202.406C306.628 202.618 306.201 202.724 305.71 202.724C305.202 202.724 304.754 202.622 304.364 202.419C303.983 202.216 303.662 201.941 303.399 201.594C303.137 201.238 302.938 200.824 302.803 200.35C302.676 199.867 302.612 199.351 302.612 198.801C302.612 197.717 302.786 196.744 303.133 195.881C303.48 195.018 303.941 194.285 304.517 193.685C305.092 193.075 305.748 192.61 306.484 192.288C307.229 191.966 307.999 191.806 308.795 191.806C309.15 191.806 309.438 191.903 309.658 192.098C309.878 192.292 309.988 192.559 309.988 192.897C309.988 193.118 309.963 193.274 309.912 193.367C309.87 193.452 309.785 193.494 309.658 193.494C309.54 193.494 309.417 193.486 309.29 193.469C309.163 193.452 309.032 193.443 308.896 193.443C308.406 193.443 307.906 193.553 307.398 193.773C306.891 193.985 306.429 194.315 306.015 194.764C305.608 195.204 305.274 195.767 305.012 196.452C304.749 197.129 304.618 197.938 304.618 198.877C304.618 199.562 304.749 200.091 305.012 200.464C305.274 200.828 305.634 201.01 306.091 201.01C306.446 201.01 306.743 200.879 306.979 200.616C307.216 200.345 307.407 200.028 307.551 199.664V195.652C307.551 195.525 307.542 195.42 307.525 195.335C307.517 195.25 307.504 195.178 307.487 195.119C307.479 195.06 307.47 195.009 307.462 194.967C307.453 194.916 307.449 194.869 307.449 194.827C307.449 194.692 307.513 194.586 307.64 194.51C307.775 194.425 307.936 194.383 308.122 194.383C308.554 194.383 308.896 194.497 309.15 194.726C309.404 194.946 309.531 195.212 309.531 195.525V199.816C309.531 199.96 309.548 200.104 309.582 200.248C309.616 200.383 309.667 200.51 309.734 200.629C309.802 200.739 309.891 200.832 310.001 200.908C310.119 200.976 310.255 201.01 310.407 201.01ZM315.104 195.373C315.104 194.848 315.16 194.396 315.27 194.015C315.388 193.625 315.549 193.308 315.752 193.062C315.955 192.809 316.188 192.622 316.45 192.504C316.721 192.385 317.009 192.326 317.313 192.326C317.66 192.326 317.999 192.411 318.329 192.58C318.659 192.749 318.951 193.007 319.205 193.354C319.467 193.701 319.675 194.142 319.827 194.675C319.988 195.208 320.068 195.839 320.068 196.566C320.068 197.074 320.035 197.582 319.967 198.09C319.908 198.589 319.81 199.067 319.675 199.524C319.768 199.558 319.857 199.579 319.941 199.588C320.035 199.588 320.128 199.588 320.221 199.588C320.5 199.588 320.745 199.537 320.957 199.436C321.177 199.334 321.363 199.199 321.516 199.029C321.676 198.86 321.803 198.661 321.896 198.433C321.99 198.204 322.057 197.963 322.1 197.709C322.117 197.607 322.172 197.523 322.265 197.455C322.366 197.387 322.48 197.341 322.607 197.315C322.734 197.29 322.866 197.29 323.001 197.315C323.145 197.341 323.268 197.4 323.369 197.493C323.471 197.578 323.543 197.701 323.585 197.861C323.636 198.014 323.636 198.213 323.585 198.458C323.509 198.813 323.382 199.148 323.204 199.461C323.035 199.766 322.819 200.036 322.557 200.273C322.294 200.51 321.985 200.697 321.63 200.832C321.274 200.967 320.877 201.035 320.437 201.035C320.2 201.035 319.971 201.022 319.751 200.997C319.531 200.972 319.315 200.925 319.104 200.857C318.782 201.416 318.363 201.865 317.847 202.203C317.33 202.55 316.691 202.724 315.93 202.724C315.329 202.724 314.8 202.618 314.343 202.406C313.894 202.195 313.513 201.898 313.2 201.518C312.896 201.128 312.663 200.667 312.502 200.134C312.35 199.601 312.273 199.017 312.273 198.382V185.979C312.273 185.792 312.257 185.644 312.223 185.534C312.197 185.424 312.168 185.34 312.134 185.28C312.108 185.213 312.079 185.162 312.045 185.128C312.02 185.086 312.007 185.043 312.007 185.001C312.007 184.95 312.032 184.908 312.083 184.874C312.134 184.84 312.201 184.811 312.286 184.785C312.371 184.76 312.46 184.743 312.553 184.734C312.654 184.717 312.752 184.709 312.845 184.709C313.276 184.709 313.615 184.823 313.86 185.052C314.114 185.272 314.241 185.538 314.241 185.852V198.026C314.241 198.458 314.279 198.856 314.355 199.22C314.432 199.584 314.546 199.901 314.698 200.172C314.851 200.434 315.041 200.642 315.27 200.794C315.507 200.938 315.782 201.01 316.095 201.01C316.416 201.01 316.691 200.929 316.92 200.769C317.148 200.599 317.339 200.375 317.491 200.096C317.119 199.833 316.785 199.529 316.488 199.182C316.201 198.826 315.951 198.445 315.739 198.039C315.536 197.624 315.38 197.193 315.27 196.744C315.16 196.287 315.104 195.83 315.104 195.373ZM316.717 195.271C316.717 195.898 316.827 196.49 317.047 197.049C317.275 197.607 317.58 198.09 317.961 198.496C318.012 198.191 318.046 197.891 318.062 197.595C318.079 197.29 318.088 197.015 318.088 196.77C318.088 195.898 317.995 195.225 317.809 194.751C317.631 194.277 317.424 194.04 317.187 194.04C317.017 194.04 316.895 194.154 316.818 194.383C316.751 194.603 316.717 194.899 316.717 195.271ZM324.067 194.307C324.16 194.129 324.249 193.892 324.334 193.596C324.427 193.291 324.512 192.957 324.588 192.593C324.673 192.229 324.749 191.848 324.816 191.45C324.884 191.052 324.943 190.663 324.994 190.282C325.045 189.901 325.083 189.546 325.108 189.216C325.142 188.877 325.159 188.59 325.159 188.353C325.159 187.489 325.096 186.859 324.969 186.461C324.842 186.055 324.673 185.852 324.461 185.852C324.393 185.852 324.334 185.885 324.283 185.953C324.232 186.021 324.19 186.11 324.156 186.22C324.122 186.321 324.097 186.436 324.08 186.562C324.072 186.681 324.067 186.791 324.067 186.893V194.307ZM327.762 198.229C327.812 197.976 327.889 197.794 327.99 197.684C328.1 197.565 328.215 197.502 328.333 197.493C328.46 197.476 328.587 197.506 328.714 197.582C328.841 197.65 328.951 197.743 329.044 197.861C329.137 197.98 329.205 198.115 329.247 198.268C329.298 198.411 329.306 198.555 329.272 198.699C329.154 199.046 328.985 199.452 328.765 199.918C328.545 200.383 328.265 200.824 327.927 201.238C327.588 201.653 327.19 202.004 326.733 202.292C326.276 202.58 325.752 202.724 325.159 202.724C324.66 202.724 324.22 202.639 323.839 202.47C323.458 202.309 323.136 202.08 322.874 201.784C322.62 201.479 322.425 201.12 322.29 200.705C322.163 200.282 322.1 199.812 322.1 199.296V187.464C322.1 186.981 322.159 186.537 322.277 186.131C322.404 185.716 322.574 185.365 322.785 185.077C323.005 184.781 323.259 184.552 323.547 184.392C323.835 184.222 324.139 184.138 324.461 184.138C324.842 184.138 325.163 184.21 325.426 184.354C325.688 184.489 325.904 184.671 326.073 184.899C326.243 185.128 326.374 185.39 326.467 185.687C326.568 185.983 326.64 186.287 326.683 186.601C326.725 186.905 326.75 187.21 326.759 187.515C326.767 187.811 326.771 188.082 326.771 188.327C326.771 188.962 326.712 189.631 326.594 190.333C326.475 191.027 326.323 191.713 326.137 192.39C325.959 193.067 325.76 193.718 325.54 194.345C325.328 194.963 325.121 195.513 324.918 195.995C324.723 196.478 324.546 196.871 324.385 197.176C324.232 197.48 324.127 197.658 324.067 197.709V199.22C324.067 199.744 324.177 200.176 324.397 200.515C324.618 200.845 324.969 201.01 325.451 201.01C325.747 201.01 326.022 200.921 326.276 200.743C326.539 200.557 326.767 200.328 326.962 200.058C327.165 199.778 327.334 199.478 327.47 199.156C327.605 198.826 327.702 198.517 327.762 198.229ZM333.817 194.434C333.817 194.916 333.733 195.411 333.563 195.919C333.403 196.427 333.157 196.909 332.827 197.366C332.506 197.815 332.104 198.221 331.621 198.585C331.147 198.94 330.597 199.211 329.971 199.397C330.055 199.618 330.165 199.829 330.301 200.032C330.445 200.227 330.614 200.396 330.809 200.54C331.003 200.684 331.228 200.798 331.481 200.883C331.744 200.967 332.044 201.01 332.383 201.01C332.891 201.01 333.326 200.917 333.69 200.73C334.054 200.536 334.359 200.282 334.604 199.969C334.858 199.656 335.062 199.304 335.214 198.915C335.366 198.526 335.48 198.132 335.557 197.734C335.616 197.447 335.734 197.256 335.912 197.163C336.098 197.062 336.285 197.036 336.471 197.087C336.665 197.138 336.83 197.248 336.966 197.417C337.11 197.578 337.169 197.772 337.144 198.001C337.11 198.263 337.05 198.564 336.966 198.902C336.89 199.241 336.771 199.584 336.61 199.931C336.45 200.278 336.242 200.62 335.988 200.959C335.743 201.289 335.438 201.585 335.074 201.848C334.71 202.11 334.283 202.322 333.792 202.482C333.301 202.643 332.738 202.724 332.104 202.724C331.511 202.724 330.936 202.605 330.377 202.368C329.827 202.14 329.336 201.81 328.904 201.378C328.481 200.938 328.138 200.4 327.876 199.766C327.622 199.122 327.495 198.395 327.495 197.582C327.495 196.761 327.609 195.999 327.838 195.297C328.066 194.586 328.367 193.972 328.739 193.456C329.112 192.94 329.535 192.538 330.009 192.25C330.483 191.954 330.969 191.806 331.469 191.806C331.833 191.806 332.159 191.869 332.446 191.996C332.743 192.123 332.992 192.305 333.195 192.542C333.398 192.771 333.551 193.046 333.652 193.367C333.762 193.689 333.817 194.044 333.817 194.434ZM329.628 197.506C329.628 197.582 329.632 197.658 329.641 197.734C329.649 197.811 329.653 197.891 329.653 197.976C329.975 197.823 330.267 197.629 330.529 197.392C330.792 197.155 331.016 196.884 331.202 196.579C331.388 196.274 331.532 195.944 331.634 195.589C331.735 195.225 331.786 194.848 331.786 194.459C331.786 194.171 331.735 193.947 331.634 193.786C331.541 193.625 331.41 193.545 331.24 193.545C331.029 193.545 330.838 193.617 330.669 193.761C330.508 193.905 330.364 194.095 330.237 194.332C330.119 194.561 330.017 194.823 329.933 195.119C329.856 195.407 329.793 195.699 329.742 195.995C329.691 196.291 329.658 196.575 329.641 196.846C329.624 197.108 329.619 197.328 329.628 197.506Z" fill="black"/>
    <path d="M259.098 260.636H255.354C255.21 260.636 255.138 260.57 255.138 260.438V260.042C255.138 259.91 255.21 259.844 255.354 259.844H259.098C259.242 259.844 259.314 259.91 259.314 260.042V260.438C259.314 260.57 259.242 260.636 259.098 260.636ZM262.257 266H261.735C261.615 266 261.555 265.928 261.555 265.784V254.642C261.555 254.498 261.615 254.426 261.735 254.426H262.221C262.329 254.426 262.401 254.462 262.437 254.534L267.963 264.038H268.035V254.642C268.035 254.498 268.101 254.426 268.233 254.426H268.737C268.869 254.426 268.935 254.498 268.935 254.642V265.784C268.935 265.928 268.869 266 268.737 266H268.323C268.215 266 268.119 265.934 268.035 265.802L262.527 256.37H262.455V265.784C262.455 265.928 262.389 266 262.257 266ZM277.721 266H272.159C272.039 266 271.979 265.928 271.979 265.784V254.642C271.979 254.498 272.039 254.426 272.159 254.426H277.721C277.865 254.426 277.937 254.492 277.937 254.624V255.038C277.937 255.17 277.865 255.236 277.721 255.236H273.059C272.939 255.236 272.879 255.29 272.879 255.398V259.538C272.879 259.646 272.939 259.7 273.059 259.7H277.217C277.349 259.7 277.415 259.766 277.415 259.898V260.312C277.415 260.444 277.349 260.51 277.217 260.51H273.059C272.939 260.51 272.879 260.564 272.879 260.672V265.028C272.879 265.136 272.939 265.19 273.059 265.19H277.721C277.865 265.19 277.937 265.256 277.937 265.388V265.802C277.937 265.934 277.865 266 277.721 266ZM283.309 266H282.409C282.277 266 282.193 265.928 282.157 265.784L279.691 254.642C279.655 254.498 279.715 254.426 279.871 254.426H280.465C280.597 254.426 280.675 254.498 280.699 254.642L282.841 264.974H282.931L285.667 254.624C285.691 254.492 285.769 254.426 285.901 254.426H286.585C286.729 254.426 286.813 254.492 286.837 254.624L289.591 264.974H289.681L291.805 254.642C291.829 254.498 291.913 254.426 292.057 254.426H292.669C292.813 254.426 292.867 254.498 292.831 254.642L290.365 265.784C290.341 265.928 290.263 266 290.131 266H289.213C289.081 266 288.997 265.928 288.961 265.784L286.297 255.632H286.225L283.543 265.784C283.507 265.928 283.429 266 283.309 266ZM302.255 266H301.733C301.601 266 301.535 265.928 301.535 265.784V255.398C301.535 255.29 301.475 255.236 301.355 255.236H298.745C298.601 255.236 298.529 255.17 298.529 255.038V254.624C298.529 254.492 298.601 254.426 298.745 254.426H305.225C305.369 254.426 305.441 254.492 305.441 254.624V255.038C305.441 255.17 305.369 255.236 305.225 255.236H302.615C302.495 255.236 302.435 255.29 302.435 255.398V265.784C302.435 265.928 302.375 266 302.255 266ZM306.988 266H306.43C306.298 266 306.256 265.928 306.304 265.784L309.886 254.642C309.922 254.498 310.006 254.426 310.138 254.426H310.984C311.104 254.426 311.188 254.498 311.236 254.642L314.818 265.784C314.854 265.928 314.812 266 314.692 266H314.116C313.996 266 313.918 265.928 313.882 265.784L312.91 262.904H308.194L307.222 265.784C307.174 265.928 307.096 266 306.988 266ZM310.516 255.416L308.446 262.094H312.676L310.588 255.416H310.516ZM317.971 265.208H321.319C322.459 265.208 323.029 264.632 323.029 263.48V262.238C323.029 261.098 322.405 260.528 321.157 260.528H317.971C317.851 260.528 317.791 260.576 317.791 260.672V265.046C317.791 265.154 317.851 265.208 317.971 265.208ZM317.971 259.736H321.139C321.703 259.736 322.135 259.586 322.435 259.286C322.747 258.986 322.903 258.56 322.903 258.008V256.946C322.903 255.794 322.333 255.218 321.193 255.218H317.971C317.851 255.218 317.791 255.272 317.791 255.38V259.574C317.791 259.682 317.851 259.736 317.971 259.736ZM316.891 265.784V254.642C316.891 254.498 316.951 254.426 317.071 254.426H321.265C322.045 254.426 322.663 254.648 323.119 255.092C323.575 255.536 323.803 256.148 323.803 256.928V258.026C323.803 259.118 323.287 259.82 322.255 260.132C322.699 260.156 323.089 260.36 323.425 260.744C323.761 261.128 323.929 261.626 323.929 262.238V263.498C323.929 264.278 323.701 264.89 323.245 265.334C322.789 265.778 322.171 266 321.391 266H317.071C316.951 266 316.891 265.928 316.891 265.784ZM332.622 266H326.898C326.778 266 326.718 265.928 326.718 265.784V254.642C326.718 254.498 326.778 254.426 326.898 254.426H327.42C327.552 254.426 327.618 254.498 327.618 254.642V264.992C327.618 265.1 327.678 265.154 327.798 265.154H332.622C332.766 265.154 332.838 265.22 332.838 265.352V265.802C332.838 265.934 332.766 266 332.622 266ZM340.581 266H335.019C334.899 266 334.839 265.928 334.839 265.784V254.642C334.839 254.498 334.899 254.426 335.019 254.426H340.581C340.725 254.426 340.797 254.492 340.797 254.624V255.038C340.797 255.17 340.725 255.236 340.581 255.236H335.919C335.799 255.236 335.739 255.29 335.739 255.398V259.538C335.739 259.646 335.799 259.7 335.919 259.7H340.077C340.209 259.7 340.275 259.766 340.275 259.898V260.312C340.275 260.444 340.209 260.51 340.077 260.51H335.919C335.799 260.51 335.739 260.564 335.739 260.672V265.028C335.739 265.136 335.799 265.19 335.919 265.19H340.581C340.725 265.19 340.797 265.256 340.797 265.388V265.802C340.797 265.934 340.725 266 340.581 266ZM346.655 260.636H342.911C342.767 260.636 342.695 260.57 342.695 260.438V260.042C342.695 259.91 342.767 259.844 342.911 259.844H346.655C346.799 259.844 346.871 259.91 346.871 260.042V260.438C346.871 260.57 346.799 260.636 346.655 260.636Z" fill="#4E4444"/>
</svg>