<svg width="600" height="350" viewBox="0 0 600 350" fill="none" xmlns="http://www.w3.org/2000/svg">
    <path d="M89.9926 43.968V42.6C89.9926 42.184 90.1126 41.656 90.3526 41.016L91.1446 38.76C91.1926 38.632 91.2806 38.568 91.4086 38.568C91.5846 38.568 91.6726 38.664 91.6726 38.856V43.968C91.6726 44.176 91.5686 44.28 91.3606 44.28H90.3046C90.0966 44.28 89.9926 44.176 89.9926 43.968ZM86.2966 43.968V42.6C86.2966 42.264 86.4166 41.736 86.6566 41.016L87.4486 38.76C87.5286 38.632 87.6246 38.568 87.7366 38.568C87.8966 38.568 87.9766 38.664 87.9766 38.856V43.968C87.9766 44.176 87.8726 44.28 87.6646 44.28H86.6326C86.4086 44.28 86.2966 44.176 86.2966 43.968ZM103.096 38.568H104.176C104.4 38.568 104.512 38.672 104.512 38.88V50.448C104.512 51.568 104.2 52.44 103.576 53.064C102.952 53.688 102.088 54 100.984 54H98.3202C97.2162 54 96.3442 53.688 95.7042 53.064C95.0802 52.44 94.7682 51.568 94.7682 50.448V38.904C94.7682 38.68 94.8802 38.568 95.1042 38.568H96.1842C96.4082 38.568 96.5202 38.68 96.5202 38.904V50.376C96.5202 51.768 97.1842 52.464 98.5122 52.464H100.768C102.112 52.464 102.784 51.768 102.784 50.376V38.904C102.784 38.68 102.888 38.568 103.096 38.568ZM109.569 54H108.513C108.289 54 108.177 53.888 108.177 53.664V38.904C108.177 38.68 108.289 38.568 108.513 38.568H109.497C109.689 38.568 109.817 38.632 109.881 38.76L116.505 50.4H116.601V38.904C116.601 38.68 116.713 38.568 116.937 38.568H117.993C118.217 38.568 118.329 38.68 118.329 38.904V53.664C118.329 53.888 118.217 54 117.993 54H117.105C116.929 54 116.761 53.896 116.601 53.688L110.001 42.168H109.905V53.664C109.905 53.888 109.793 54 109.569 54ZM133.256 54H131.552C131.344 54 131.208 53.888 131.144 53.664L126.896 38.928C126.848 38.688 126.952 38.568 127.208 38.568H128.384C128.592 38.568 128.72 38.68 128.768 38.904L132.344 52.032H132.44L136.016 38.904C136.064 38.68 136.192 38.568 136.4 38.568H137.6C137.84 38.568 137.936 38.688 137.888 38.928L133.64 53.664C133.576 53.888 133.448 54 133.256 54ZM143.861 52.464H146.309C147.653 52.464 148.325 51.768 148.325 50.376V42.192C148.325 40.8 147.653 40.104 146.309 40.104H143.861C142.533 40.104 141.869 40.8 141.869 42.192V50.376C141.869 51.768 142.533 52.464 143.861 52.464ZM146.525 54H143.669C142.565 54 141.693 53.688 141.053 53.064C140.429 52.44 140.117 51.568 140.117 50.448V42.12C140.117 41 140.429 40.128 141.053 39.504C141.693 38.88 142.565 38.568 143.669 38.568H146.525C147.629 38.568 148.493 38.888 149.117 39.528C149.757 40.152 150.077 41.016 150.077 42.12V50.448C150.077 51.552 149.757 52.424 149.117 53.064C148.493 53.688 147.629 54 146.525 54ZM158.255 54H157.175C156.951 54 156.839 53.888 156.839 53.664V48.216L152.279 38.928C152.231 38.816 152.231 38.728 152.279 38.664C152.327 38.6 152.399 38.568 152.495 38.568H153.839C154.015 38.568 154.151 38.68 154.247 38.904L157.679 46.176H157.799L161.207 38.904C161.271 38.68 161.399 38.568 161.591 38.568H162.959C163.231 38.568 163.303 38.688 163.175 38.928L158.591 48.216V53.664C158.591 53.888 158.479 54 158.255 54ZM165.815 54H164.615C164.407 54 164.335 53.888 164.399 53.664L168.887 38.904C168.951 38.68 169.103 38.568 169.343 38.568H171.071C171.311 38.568 171.463 38.68 171.527 38.904L176.015 53.664C176.079 53.888 176.007 54 175.799 54H174.575C174.399 54 174.287 53.888 174.239 53.664L173.111 50.16H167.303L166.175 53.664C166.111 53.888 165.991 54 165.815 54ZM170.159 40.368L167.687 48.672H172.727L170.255 40.368H170.159ZM184.488 54H181.896C180.792 54 179.92 53.688 179.28 53.064C178.656 52.44 178.344 51.568 178.344 50.448V42.12C178.344 41 178.656 40.128 179.28 39.504C179.92 38.88 180.792 38.568 181.896 38.568H184.488C185.592 38.568 186.456 38.888 187.08 39.528C187.704 40.152 188.016 41.016 188.016 42.12V43.104C188.016 43.344 187.904 43.464 187.68 43.464H186.6C186.376 43.464 186.264 43.344 186.264 43.104V42.192C186.264 40.8 185.6 40.104 184.272 40.104H182.088C180.76 40.104 180.096 40.8 180.096 42.192V50.376C180.096 51.768 180.76 52.464 182.088 52.464H184.272C185.6 52.464 186.264 51.768 186.264 50.376V47.688C186.264 47.528 186.192 47.448 186.048 47.448H183.672C183.448 47.448 183.336 47.344 183.336 47.136V46.248C183.336 46.024 183.448 45.912 183.672 45.912H187.536C187.856 45.912 188.016 46.08 188.016 46.416V50.448C188.016 51.568 187.704 52.44 187.08 53.064C186.456 53.688 185.592 54 184.488 54ZM199.44 54H191.904C191.68 54 191.568 53.888 191.568 53.664V38.904C191.568 38.68 191.68 38.568 191.904 38.568H199.44C199.664 38.568 199.776 38.68 199.776 38.904V39.768C199.776 39.992 199.664 40.104 199.44 40.104H193.56C193.4 40.104 193.32 40.176 193.32 40.32V45.168C193.32 45.312 193.4 45.384 193.56 45.384H198.696C198.92 45.384 199.032 45.496 199.032 45.72V46.584C199.032 46.808 198.92 46.92 198.696 46.92H193.56C193.4 46.92 193.32 46.992 193.32 47.136V52.248C193.32 52.392 193.4 52.464 193.56 52.464H199.44C199.664 52.464 199.776 52.576 199.776 52.8V53.664C199.776 53.888 199.664 54 199.44 54ZM217.065 54H209.529C209.305 54 209.193 53.888 209.193 53.664V38.904C209.193 38.68 209.305 38.568 209.529 38.568H217.065C217.289 38.568 217.401 38.68 217.401 38.904V39.768C217.401 39.992 217.289 40.104 217.065 40.104H211.185C211.025 40.104 210.945 40.176 210.945 40.32V45.168C210.945 45.312 211.025 45.384 211.185 45.384H216.321C216.545 45.384 216.657 45.496 216.657 45.72V46.584C216.657 46.808 216.545 46.92 216.321 46.92H211.185C211.025 46.92 210.945 46.992 210.945 47.136V52.248C210.945 52.392 211.025 52.464 211.185 52.464H217.065C217.289 52.464 217.401 52.576 217.401 52.8V53.664C217.401 53.888 217.289 54 217.065 54ZM222.116 54H221.06C220.836 54 220.724 53.888 220.724 53.664V38.904C220.724 38.68 220.836 38.568 221.06 38.568H222.044C222.236 38.568 222.364 38.632 222.428 38.76L229.052 50.4H229.148V38.904C229.148 38.68 229.26 38.568 229.484 38.568H230.54C230.764 38.568 230.876 38.68 230.876 38.904V53.664C230.876 53.888 230.764 54 230.54 54H229.652C229.476 54 229.308 53.896 229.148 53.688L222.548 42.168H222.452V53.664C222.452 53.888 222.34 54 222.116 54ZM236.541 38.904V53.664C236.541 53.888 236.429 54 236.205 54H235.125C234.901 54 234.789 53.888 234.789 53.664V38.904C234.789 38.68 234.901 38.568 235.125 38.568H236.205C236.429 38.568 236.541 38.68 236.541 38.904ZM245.499 54H243.795C243.587 54 243.451 53.888 243.387 53.664L239.139 38.928C239.091 38.688 239.195 38.568 239.451 38.568H240.627C240.835 38.568 240.963 38.68 241.011 38.904L244.587 52.032H244.683L248.259 38.904C248.307 38.68 248.435 38.568 248.643 38.568H249.843C250.083 38.568 250.179 38.688 250.131 38.928L245.883 53.664C245.819 53.888 245.691 54 245.499 54ZM254.015 54H252.935C252.711 54 252.599 53.888 252.599 53.664V38.904C252.599 38.68 252.711 38.568 252.935 38.568H258.455C259.559 38.568 260.431 38.888 261.071 39.528C261.711 40.152 262.031 41.016 262.031 42.12V44.304C262.031 45.2 261.815 45.944 261.383 46.536C260.951 47.112 260.351 47.496 259.583 47.688V47.784L262.367 53.616C262.511 53.872 262.431 54 262.127 54H261.047C260.775 54 260.575 53.888 260.447 53.664L257.759 47.856H254.591C254.431 47.856 254.351 47.928 254.351 48.072V53.664C254.351 53.888 254.239 54 254.015 54ZM254.591 46.392H258.215C259.591 46.392 260.279 45.704 260.279 44.328V42.192C260.279 40.8 259.591 40.104 258.215 40.104H254.591C254.431 40.104 254.351 40.176 254.351 40.32V46.176C254.351 46.32 254.431 46.392 254.591 46.392ZM265.682 54H264.482C264.274 54 264.202 53.888 264.266 53.664L268.754 38.904C268.818 38.68 268.97 38.568 269.21 38.568H270.938C271.178 38.568 271.33 38.68 271.394 38.904L275.882 53.664C275.946 53.888 275.874 54 275.666 54H274.442C274.266 54 274.154 53.888 274.106 53.664L272.978 50.16H267.17L266.042 53.664C265.978 53.888 265.858 54 265.682 54ZM270.026 40.368L267.554 48.672H272.594L270.122 40.368H270.026ZM279.843 54H278.787C278.563 54 278.451 53.888 278.451 53.664V38.904C278.451 38.68 278.563 38.568 278.787 38.568H279.771C279.963 38.568 280.091 38.632 280.155 38.76L286.779 50.4H286.875V38.904C286.875 38.68 286.987 38.568 287.211 38.568H288.267C288.491 38.568 288.603 38.68 288.603 38.904V53.664C288.603 53.888 288.491 54 288.267 54H287.379C287.203 54 287.035 53.896 286.875 53.688L280.275 42.168H280.179V53.664C280.179 53.888 280.067 54 279.843 54ZM296.164 54H295.084C294.86 54 294.748 53.888 294.748 53.664V40.32C294.748 40.176 294.668 40.104 294.508 40.104H291.244C291.004 40.104 290.884 39.992 290.884 39.768V38.904C290.884 38.68 291.004 38.568 291.244 38.568H300.004C300.244 38.568 300.364 38.68 300.364 38.904V39.768C300.364 39.992 300.244 40.104 300.004 40.104H296.74C296.58 40.104 296.5 40.176 296.5 40.32V53.664C296.5 53.888 296.388 54 296.164 54ZM313.772 54H312.068C311.86 54 311.724 53.888 311.66 53.664L307.412 38.928C307.364 38.688 307.468 38.568 307.724 38.568H308.9C309.108 38.568 309.236 38.68 309.284 38.904L312.86 52.032H312.956L316.532 38.904C316.58 38.68 316.708 38.568 316.916 38.568H318.116C318.356 38.568 318.452 38.688 318.404 38.928L314.156 53.664C314.092 53.888 313.964 54 313.772 54ZM328.745 54H321.209C320.985 54 320.873 53.888 320.873 53.664V38.904C320.873 38.68 320.985 38.568 321.209 38.568H328.745C328.969 38.568 329.081 38.68 329.081 38.904V39.768C329.081 39.992 328.969 40.104 328.745 40.104H322.865C322.705 40.104 322.625 40.176 322.625 40.32V45.168C322.625 45.312 322.705 45.384 322.865 45.384H328.001C328.225 45.384 328.337 45.496 328.337 45.72V46.584C328.337 46.808 328.225 46.92 328.001 46.92H322.865C322.705 46.92 322.625 46.992 322.625 47.136V52.248C322.625 52.392 322.705 52.464 322.865 52.464H328.745C328.969 52.464 329.081 52.576 329.081 52.8V53.664C329.081 53.888 328.969 54 328.745 54ZM333.82 54H332.74C332.516 54 332.404 53.888 332.404 53.664V38.904C332.404 38.68 332.516 38.568 332.74 38.568H338.26C339.364 38.568 340.236 38.888 340.876 39.528C341.516 40.152 341.836 41.016 341.836 42.12V44.304C341.836 45.2 341.62 45.944 341.188 46.536C340.756 47.112 340.156 47.496 339.388 47.688V47.784L342.172 53.616C342.316 53.872 342.236 54 341.932 54H340.852C340.58 54 340.38 53.888 340.252 53.664L337.564 47.856H334.396C334.236 47.856 334.156 47.928 334.156 48.072V53.664C334.156 53.888 334.044 54 333.82 54ZM334.396 46.392H338.02C339.396 46.392 340.084 45.704 340.084 44.328V42.192C340.084 40.8 339.396 40.104 338.02 40.104H334.396C334.236 40.104 334.156 40.176 334.156 40.32V46.176C334.156 46.32 334.236 46.392 334.396 46.392ZM345.126 50.448V49.68C345.126 49.456 345.238 49.344 345.462 49.344H346.542C346.766 49.344 346.878 49.456 346.878 49.68V50.304C346.878 51.744 347.59 52.464 349.014 52.464H351.126C352.55 52.464 353.262 51.728 353.262 50.256V49.44C353.262 48.288 352.31 47.536 350.406 47.184C349.606 47.04 348.806 46.872 348.006 46.68C347.206 46.488 346.526 46.12 345.966 45.576C345.406 45.016 345.126 44.256 345.126 43.296V42.12C345.126 41.016 345.438 40.152 346.062 39.528C346.702 38.888 347.574 38.568 348.678 38.568H351.342C352.43 38.568 353.294 38.888 353.934 39.528C354.574 40.152 354.894 41.016 354.894 42.12V42.72C354.894 42.96 354.79 43.08 354.582 43.08H353.478C353.27 43.08 353.166 42.96 353.166 42.72V42.288C353.166 40.832 352.454 40.104 351.03 40.104H348.99C347.566 40.104 346.854 40.864 346.854 42.384V43.344C346.854 44.16 347.39 44.72 348.462 45.024C348.942 45.152 349.47 45.272 350.046 45.384C350.622 45.48 351.198 45.616 351.774 45.792C352.366 45.952 352.902 46.16 353.382 46.416C353.862 46.656 354.246 47.032 354.534 47.544C354.838 48.04 354.99 48.648 354.99 49.368V50.448C354.99 51.552 354.67 52.424 354.03 53.064C353.39 53.688 352.526 54 351.438 54H348.678C347.59 54 346.726 53.688 346.086 53.064C345.446 52.424 345.126 51.552 345.126 50.448ZM372.909 38.568H373.989C374.213 38.568 374.325 38.672 374.325 38.88V50.448C374.325 51.568 374.013 52.44 373.389 53.064C372.765 53.688 371.901 54 370.797 54H368.133C367.029 54 366.157 53.688 365.517 53.064C364.893 52.44 364.581 51.568 364.581 50.448V38.904C364.581 38.68 364.693 38.568 364.917 38.568H365.997C366.221 38.568 366.333 38.68 366.333 38.904V50.376C366.333 51.768 366.997 52.464 368.325 52.464H370.581C371.925 52.464 372.597 51.768 372.597 50.376V38.904C372.597 38.68 372.701 38.568 372.909 38.568ZM379.382 54H378.326C378.102 54 377.99 53.888 377.99 53.664V38.904C377.99 38.68 378.102 38.568 378.326 38.568H379.31C379.502 38.568 379.63 38.632 379.694 38.76L386.318 50.4H386.414V38.904C386.414 38.68 386.526 38.568 386.75 38.568H387.806C388.03 38.568 388.142 38.68 388.142 38.904V53.664C388.142 53.888 388.03 54 387.806 54H386.918C386.742 54 386.574 53.896 386.414 53.688L379.814 42.168H379.718V53.664C379.718 53.888 379.606 54 379.382 54ZM399.807 54H392.271C392.047 54 391.935 53.888 391.935 53.664V38.904C391.935 38.68 392.047 38.568 392.271 38.568H399.807C400.031 38.568 400.143 38.68 400.143 38.904V39.768C400.143 39.992 400.031 40.104 399.807 40.104H393.927C393.767 40.104 393.687 40.176 393.687 40.32V45.168C393.687 45.312 393.767 45.384 393.927 45.384H399.063C399.287 45.384 399.399 45.496 399.399 45.72V46.584C399.399 46.808 399.287 46.92 399.063 46.92H393.927C393.767 46.92 393.687 46.992 393.687 47.136V52.248C393.687 52.392 393.767 52.464 393.927 52.464H399.807C400.031 52.464 400.143 52.576 400.143 52.8V53.664C400.143 53.888 400.031 54 399.807 54ZM415.752 54H412.872C411.768 54 410.896 53.688 410.256 53.064C409.632 52.44 409.32 51.568 409.32 50.448V42.12C409.32 41 409.632 40.128 410.256 39.504C410.896 38.88 411.768 38.568 412.872 38.568H415.752C416.856 38.568 417.72 38.88 418.344 39.504C418.984 40.128 419.304 41 419.304 42.12V43.296C419.304 43.52 419.192 43.632 418.968 43.632H417.888C417.664 43.632 417.552 43.52 417.552 43.296V42.192C417.552 40.8 416.88 40.104 415.536 40.104H413.064C411.736 40.104 411.072 40.8 411.072 42.192V50.376C411.072 51.768 411.736 52.464 413.064 52.464H415.536C416.88 52.464 417.552 51.768 417.552 50.376V49.272C417.552 49.048 417.664 48.936 417.888 48.936H418.968C419.192 48.936 419.304 49.048 419.304 49.272V50.448C419.304 51.568 418.984 52.44 418.344 53.064C417.72 53.688 416.856 54 415.752 54ZM430.752 38.568H431.832C432.056 38.568 432.168 38.672 432.168 38.88V50.448C432.168 51.568 431.856 52.44 431.232 53.064C430.608 53.688 429.744 54 428.64 54H425.976C424.872 54 424 53.688 423.36 53.064C422.736 52.44 422.424 51.568 422.424 50.448V38.904C422.424 38.68 422.536 38.568 422.76 38.568H423.84C424.064 38.568 424.176 38.68 424.176 38.904V50.376C424.176 51.768 424.84 52.464 426.168 52.464H428.424C429.768 52.464 430.44 51.768 430.44 50.376V38.904C430.44 38.68 430.544 38.568 430.752 38.568ZM437.706 38.904V53.664C437.706 53.888 437.594 54 437.37 54H436.29C436.066 54 435.954 53.888 435.954 53.664V38.904C435.954 38.68 436.066 38.568 436.29 38.568H437.37C437.594 38.568 437.706 38.68 437.706 38.904ZM441.455 50.448V49.68C441.455 49.456 441.567 49.344 441.791 49.344H442.871C443.095 49.344 443.207 49.456 443.207 49.68V50.304C443.207 51.744 443.919 52.464 445.343 52.464H447.455C448.879 52.464 449.591 51.728 449.591 50.256V49.44C449.591 48.288 448.639 47.536 446.735 47.184C445.935 47.04 445.135 46.872 444.335 46.68C443.535 46.488 442.855 46.12 442.295 45.576C441.735 45.016 441.455 44.256 441.455 43.296V42.12C441.455 41.016 441.767 40.152 442.391 39.528C443.031 38.888 443.903 38.568 445.007 38.568H447.671C448.759 38.568 449.623 38.888 450.263 39.528C450.903 40.152 451.223 41.016 451.223 42.12V42.72C451.223 42.96 451.119 43.08 450.911 43.08H449.807C449.599 43.08 449.495 42.96 449.495 42.72V42.288C449.495 40.832 448.783 40.104 447.359 40.104H445.319C443.895 40.104 443.183 40.864 443.183 42.384V43.344C443.183 44.16 443.719 44.72 444.791 45.024C445.271 45.152 445.799 45.272 446.375 45.384C446.951 45.48 447.527 45.616 448.103 45.792C448.695 45.952 449.231 46.16 449.711 46.416C450.191 46.656 450.575 47.032 450.863 47.544C451.167 48.04 451.319 48.648 451.319 49.368V50.448C451.319 51.552 450.999 52.424 450.359 53.064C449.719 53.688 448.855 54 447.767 54H445.007C443.919 54 443.055 53.688 442.415 53.064C441.775 52.424 441.455 51.552 441.455 50.448ZM456.807 38.904V53.664C456.807 53.888 456.695 54 456.471 54H455.391C455.167 54 455.055 53.888 455.055 53.664V38.904C455.055 38.68 455.167 38.568 455.391 38.568H456.471C456.695 38.568 456.807 38.68 456.807 38.904ZM462.116 54H461.06C460.836 54 460.724 53.888 460.724 53.664V38.904C460.724 38.68 460.836 38.568 461.06 38.568H462.044C462.236 38.568 462.364 38.632 462.428 38.76L469.052 50.4H469.148V38.904C469.148 38.68 469.26 38.568 469.484 38.568H470.54C470.764 38.568 470.876 38.68 470.876 38.904V53.664C470.876 53.888 470.764 54 470.54 54H469.652C469.476 54 469.308 53.896 469.148 53.688L462.548 42.168H462.452V53.664C462.452 53.888 462.34 54 462.116 54ZM482.541 54H475.005C474.781 54 474.669 53.888 474.669 53.664V38.904C474.669 38.68 474.781 38.568 475.005 38.568H482.541C482.765 38.568 482.877 38.68 482.877 38.904V39.768C482.877 39.992 482.765 40.104 482.541 40.104H476.661C476.501 40.104 476.421 40.176 476.421 40.32V45.168C476.421 45.312 476.501 45.384 476.661 45.384H481.797C482.021 45.384 482.133 45.496 482.133 45.72V46.584C482.133 46.808 482.021 46.92 481.797 46.92H476.661C476.501 46.92 476.421 46.992 476.421 47.136V52.248C476.421 52.392 476.501 52.464 476.661 52.464H482.541C482.765 52.464 482.877 52.576 482.877 52.8V53.664C482.877 53.888 482.765 54 482.541 54ZM494.286 52.464H498.318C499.662 52.464 500.334 51.768 500.334 50.376V42.192C500.334 40.8 499.662 40.104 498.318 40.104H494.286C494.126 40.104 494.046 40.176 494.046 40.32V52.248C494.046 52.392 494.126 52.464 494.286 52.464ZM492.294 53.664V38.904C492.294 38.68 492.406 38.568 492.63 38.568H498.534C499.638 38.568 500.502 38.888 501.126 39.528C501.766 40.152 502.086 41.016 502.086 42.12V50.448C502.086 51.552 501.766 52.424 501.126 53.064C500.502 53.688 499.638 54 498.534 54H492.63C492.406 54 492.294 53.888 492.294 53.664ZM513.838 38.568H514.918C515.142 38.568 515.254 38.672 515.254 38.88V50.448C515.254 51.568 514.942 52.44 514.318 53.064C513.694 53.688 512.83 54 511.726 54H509.062C507.958 54 507.086 53.688 506.446 53.064C505.822 52.44 505.51 51.568 505.51 50.448V38.904C505.51 38.68 505.622 38.568 505.846 38.568H506.926C507.15 38.568 507.262 38.68 507.262 38.904V50.376C507.262 51.768 507.926 52.464 509.254 52.464H511.51C512.854 52.464 513.526 51.768 513.526 50.376V38.904C513.526 38.68 513.63 38.568 513.838 38.568ZM148.264 74.568H150.208C150.432 74.568 150.544 74.68 150.544 74.904V89.664C150.544 89.888 150.432 90 150.208 90H149.152C148.928 90 148.816 89.888 148.816 89.664V76.92H148.72L145 86.328C144.904 86.536 144.76 86.64 144.568 86.64H143.416C143.208 86.64 143.072 86.536 143.008 86.328L139.216 76.896H139.12V89.664C139.12 89.888 139.016 90 138.808 90H137.752C137.528 90 137.416 89.888 137.416 89.664V74.904C137.416 74.68 137.528 74.568 137.752 74.568H139.696C139.84 74.568 139.936 74.632 139.984 74.76L143.92 84.696H144.04L147.976 74.76C148.008 74.632 148.104 74.568 148.264 74.568ZM157.841 88.464H160.289C161.633 88.464 162.305 87.768 162.305 86.376V78.192C162.305 76.8 161.633 76.104 160.289 76.104H157.841C156.513 76.104 155.849 76.8 155.849 78.192V86.376C155.849 87.768 156.513 88.464 157.841 88.464ZM160.505 90H157.649C156.545 90 155.673 89.688 155.033 89.064C154.409 88.44 154.097 87.568 154.097 86.448V78.12C154.097 77 154.409 76.128 155.033 75.504C155.673 74.88 156.545 74.568 157.649 74.568H160.505C161.609 74.568 162.473 74.888 163.097 75.528C163.737 76.152 164.057 77.016 164.057 78.12V86.448C164.057 87.552 163.737 88.424 163.097 89.064C162.473 89.688 161.609 90 160.505 90ZM168.995 90H167.939C167.715 90 167.603 89.888 167.603 89.664V74.904C167.603 74.68 167.715 74.568 167.939 74.568H168.923C169.115 74.568 169.243 74.632 169.307 74.76L175.931 86.4H176.027V74.904C176.027 74.68 176.139 74.568 176.363 74.568H177.419C177.643 74.568 177.755 74.68 177.755 74.904V89.664C177.755 89.888 177.643 90 177.419 90H176.531C176.355 90 176.187 89.896 176.027 89.688L169.427 78.168H169.331V89.664C169.331 89.888 169.219 90 168.995 90ZM183.54 88.464H187.572C188.916 88.464 189.588 87.768 189.588 86.376V78.192C189.588 76.8 188.916 76.104 187.572 76.104H183.54C183.38 76.104 183.3 76.176 183.3 76.32V88.248C183.3 88.392 183.38 88.464 183.54 88.464ZM181.548 89.664V74.904C181.548 74.68 181.66 74.568 181.884 74.568H187.788C188.892 74.568 189.756 74.888 190.38 75.528C191.02 76.152 191.34 77.016 191.34 78.12V86.448C191.34 87.552 191.02 88.424 190.38 89.064C189.756 89.688 188.892 90 187.788 90H181.884C181.66 90 181.548 89.888 181.548 89.664ZM202.756 90H195.22C194.996 90 194.884 89.888 194.884 89.664V74.904C194.884 74.68 194.996 74.568 195.22 74.568H202.756C202.98 74.568 203.092 74.68 203.092 74.904V75.768C203.092 75.992 202.98 76.104 202.756 76.104H196.876C196.716 76.104 196.636 76.176 196.636 76.32V81.168C196.636 81.312 196.716 81.384 196.876 81.384H202.012C202.236 81.384 202.348 81.496 202.348 81.72V82.584C202.348 82.808 202.236 82.92 202.012 82.92H196.876C196.716 82.92 196.636 82.992 196.636 83.136V88.248C196.636 88.392 196.716 88.464 196.876 88.464H202.756C202.98 88.464 203.092 88.576 203.092 88.8V89.664C203.092 89.888 202.98 90 202.756 90ZM207.784 86.76V88.656C207.784 89.008 207.664 89.472 207.424 90.048L206.464 92.304C206.384 92.432 206.288 92.496 206.176 92.496C206.016 92.496 205.936 92.392 205.936 92.184V86.76C205.936 86.552 206.04 86.448 206.248 86.448H207.472C207.68 86.448 207.784 86.552 207.784 86.76ZM220.677 88.464H223.125C224.469 88.464 225.141 87.768 225.141 86.376V78.192C225.141 76.8 224.469 76.104 223.125 76.104H220.677C219.349 76.104 218.685 76.8 218.685 78.192V86.376C218.685 87.768 219.349 88.464 220.677 88.464ZM223.341 90H220.485C219.381 90 218.509 89.688 217.869 89.064C217.245 88.44 216.933 87.568 216.933 86.448V78.12C216.933 77 217.245 76.128 217.869 75.504C218.509 74.88 219.381 74.568 220.485 74.568H223.341C224.445 74.568 225.309 74.888 225.933 75.528C226.573 76.152 226.893 77.016 226.893 78.12V86.448C226.893 87.552 226.573 88.424 225.933 89.064C225.309 89.688 224.445 90 223.341 90ZM238.647 74.568H239.727C239.951 74.568 240.063 74.672 240.063 74.88V86.448C240.063 87.568 239.751 88.44 239.127 89.064C238.503 89.688 237.639 90 236.535 90H233.871C232.767 90 231.895 89.688 231.255 89.064C230.631 88.44 230.319 87.568 230.319 86.448V74.904C230.319 74.68 230.431 74.568 230.655 74.568H231.735C231.959 74.568 232.071 74.68 232.071 74.904V86.376C232.071 87.768 232.735 88.464 234.063 88.464H236.319C237.663 88.464 238.335 87.768 238.335 86.376V74.904C238.335 74.68 238.439 74.568 238.647 74.568ZM248.768 90H247.064C246.856 90 246.72 89.888 246.656 89.664L242.408 74.928C242.36 74.688 242.464 74.568 242.72 74.568H243.896C244.104 74.568 244.232 74.68 244.28 74.904L247.856 88.032H247.952L251.528 74.904C251.576 74.68 251.704 74.568 251.912 74.568H253.112C253.352 74.568 253.448 74.688 253.4 74.928L249.152 89.664C249.088 89.888 248.96 90 248.768 90ZM263.741 90H256.205C255.981 90 255.869 89.888 255.869 89.664V74.904C255.869 74.68 255.981 74.568 256.205 74.568H263.741C263.965 74.568 264.077 74.68 264.077 74.904V75.768C264.077 75.992 263.965 76.104 263.741 76.104H257.861C257.701 76.104 257.621 76.176 257.621 76.32V81.168C257.621 81.312 257.701 81.384 257.861 81.384H262.997C263.221 81.384 263.333 81.496 263.333 81.72V82.584C263.333 82.808 263.221 82.92 262.997 82.92H257.861C257.701 82.92 257.621 82.992 257.621 83.136V88.248C257.621 88.392 257.701 88.464 257.861 88.464H263.741C263.965 88.464 264.077 88.576 264.077 88.8V89.664C264.077 89.888 263.965 90 263.741 90ZM268.816 90H267.736C267.512 90 267.4 89.888 267.4 89.664V74.904C267.4 74.68 267.512 74.568 267.736 74.568H273.256C274.36 74.568 275.232 74.888 275.872 75.528C276.512 76.152 276.832 77.016 276.832 78.12V80.304C276.832 81.2 276.616 81.944 276.184 82.536C275.752 83.112 275.152 83.496 274.384 83.688V83.784L277.168 89.616C277.312 89.872 277.232 90 276.928 90H275.848C275.576 90 275.376 89.888 275.248 89.664L272.56 83.856H269.392C269.232 83.856 269.152 83.928 269.152 84.072V89.664C269.152 89.888 269.04 90 268.816 90ZM269.392 82.392H273.016C274.392 82.392 275.08 81.704 275.08 80.328V78.192C275.08 76.8 274.392 76.104 273.016 76.104H269.392C269.232 76.104 269.152 76.176 269.152 76.32V82.176C269.152 82.32 269.232 82.392 269.392 82.392ZM284.059 90H282.979C282.755 90 282.643 89.888 282.643 89.664V76.32C282.643 76.176 282.563 76.104 282.403 76.104H279.139C278.899 76.104 278.779 75.992 278.779 75.768V74.904C278.779 74.68 278.899 74.568 279.139 74.568H287.899C288.139 74.568 288.259 74.68 288.259 74.904V75.768C288.259 75.992 288.139 76.104 287.899 76.104H284.635C284.475 76.104 284.395 76.176 284.395 76.32V89.664C284.395 89.888 284.283 90 284.059 90ZM298.405 90H290.869C290.645 90 290.533 89.888 290.533 89.664V74.904C290.533 74.68 290.645 74.568 290.869 74.568H298.405C298.629 74.568 298.741 74.68 298.741 74.904V75.768C298.741 75.992 298.629 76.104 298.405 76.104H292.525C292.365 76.104 292.285 76.176 292.285 76.32V81.168C292.285 81.312 292.365 81.384 292.525 81.384H297.661C297.885 81.384 297.997 81.496 297.997 81.72V82.584C297.997 82.808 297.885 82.92 297.661 82.92H292.525C292.365 82.92 292.285 82.992 292.285 83.136V88.248C292.285 88.392 292.365 88.464 292.525 88.464H298.405C298.629 88.464 298.741 88.576 298.741 88.8V89.664C298.741 89.888 298.629 90 298.405 90ZM316.03 90H308.494C308.27 90 308.158 89.888 308.158 89.664V74.904C308.158 74.68 308.27 74.568 308.494 74.568H316.03C316.254 74.568 316.366 74.68 316.366 74.904V75.768C316.366 75.992 316.254 76.104 316.03 76.104H310.15C309.99 76.104 309.91 76.176 309.91 76.32V81.168C309.91 81.312 309.99 81.384 310.15 81.384H315.286C315.51 81.384 315.622 81.496 315.622 81.72V82.584C315.622 82.808 315.51 82.92 315.286 82.92H310.15C309.99 82.92 309.91 82.992 309.91 83.136V88.248C309.91 88.392 309.99 88.464 310.15 88.464H316.03C316.254 88.464 316.366 88.576 316.366 88.8V89.664C316.366 89.888 316.254 90 316.03 90ZM323.457 90H322.377C322.153 90 322.041 89.888 322.041 89.664V76.32C322.041 76.176 321.961 76.104 321.801 76.104H318.537C318.297 76.104 318.177 75.992 318.177 75.768V74.904C318.177 74.68 318.297 74.568 318.537 74.568H327.297C327.537 74.568 327.657 74.68 327.657 74.904V75.768C327.657 75.992 327.537 76.104 327.297 76.104H324.033C323.873 76.104 323.793 76.176 323.793 76.32V89.664C323.793 89.888 323.681 90 323.457 90ZM341.929 90H339.337C338.233 90 337.361 89.688 336.721 89.064C336.097 88.44 335.785 87.568 335.785 86.448V78.12C335.785 77 336.097 76.128 336.721 75.504C337.361 74.88 338.233 74.568 339.337 74.568H341.929C343.033 74.568 343.897 74.888 344.521 75.528C345.145 76.152 345.457 77.016 345.457 78.12V79.104C345.457 79.344 345.345 79.464 345.121 79.464H344.041C343.817 79.464 343.705 79.344 343.705 79.104V78.192C343.705 76.8 343.041 76.104 341.713 76.104H339.529C338.201 76.104 337.537 76.8 337.537 78.192V86.376C337.537 87.768 338.201 88.464 339.529 88.464H341.713C343.041 88.464 343.705 87.768 343.705 86.376V83.688C343.705 83.528 343.633 83.448 343.489 83.448H341.113C340.889 83.448 340.777 83.344 340.777 83.136V82.248C340.777 82.024 340.889 81.912 341.113 81.912H344.977C345.297 81.912 345.457 82.08 345.457 82.416V86.448C345.457 87.568 345.145 88.44 344.521 89.064C343.897 89.688 343.033 90 341.929 90ZM354.241 69.936H355.681C355.793 69.936 355.865 69.968 355.897 70.032C355.929 70.096 355.913 70.176 355.849 70.272L353.737 72.792C353.609 72.952 353.457 73.032 353.281 73.032H352.489C352.265 73.032 352.217 72.92 352.345 72.696L353.713 70.248C353.825 70.04 354.001 69.936 354.241 69.936ZM356.881 90H349.345C349.121 90 349.009 89.888 349.009 89.664V74.904C349.009 74.68 349.121 74.568 349.345 74.568H356.881C357.105 74.568 357.217 74.68 357.217 74.904V75.768C357.217 75.992 357.105 76.104 356.881 76.104H351.001C350.841 76.104 350.761 76.176 350.761 76.32V81.168C350.761 81.312 350.841 81.384 351.001 81.384H356.137C356.361 81.384 356.473 81.496 356.473 81.72V82.584C356.473 82.808 356.361 82.92 356.137 82.92H351.001C350.841 82.92 350.761 82.992 350.761 83.136V88.248C350.761 88.392 350.841 88.464 351.001 88.464H356.881C357.105 88.464 357.217 88.576 357.217 88.8V89.664C357.217 89.888 357.105 90 356.881 90ZM361.933 90H360.877C360.653 90 360.541 89.888 360.541 89.664V74.904C360.541 74.68 360.653 74.568 360.877 74.568H361.861C362.053 74.568 362.181 74.632 362.245 74.76L368.869 86.4H368.965V74.904C368.965 74.68 369.077 74.568 369.301 74.568H370.357C370.581 74.568 370.693 74.68 370.693 74.904V89.664C370.693 89.888 370.581 90 370.357 90H369.469C369.293 90 369.125 89.896 368.965 89.688L362.365 78.168H362.269V89.664C362.269 89.888 362.157 90 361.933 90ZM379.718 69.936H381.158C381.27 69.936 381.342 69.968 381.374 70.032C381.406 70.096 381.39 70.176 381.326 70.272L379.214 72.792C379.086 72.952 378.934 73.032 378.758 73.032H377.966C377.742 73.032 377.694 72.92 377.822 72.696L379.19 70.248C379.302 70.04 379.478 69.936 379.718 69.936ZM382.358 90H374.822C374.598 90 374.486 89.888 374.486 89.664V74.904C374.486 74.68 374.598 74.568 374.822 74.568H382.358C382.582 74.568 382.694 74.68 382.694 74.904V75.768C382.694 75.992 382.582 76.104 382.358 76.104H376.478C376.318 76.104 376.238 76.176 376.238 76.32V81.168C376.238 81.312 376.318 81.384 376.478 81.384H381.614C381.838 81.384 381.95 81.496 381.95 81.72V82.584C381.95 82.808 381.838 82.92 381.614 82.92H376.478C376.318 82.92 376.238 82.992 376.238 83.136V88.248C376.238 88.392 376.318 88.464 376.478 88.464H382.358C382.582 88.464 382.694 88.576 382.694 88.8V89.664C382.694 89.888 382.582 90 382.358 90ZM387.433 90H386.353C386.129 90 386.017 89.888 386.017 89.664V74.904C386.017 74.68 386.129 74.568 386.353 74.568H391.873C392.977 74.568 393.849 74.888 394.489 75.528C395.129 76.152 395.449 77.016 395.449 78.12V80.304C395.449 81.2 395.233 81.944 394.801 82.536C394.369 83.112 393.769 83.496 393.001 83.688V83.784L395.785 89.616C395.929 89.872 395.849 90 395.545 90H394.465C394.193 90 393.993 89.888 393.865 89.664L391.177 83.856H388.009C387.849 83.856 387.769 83.928 387.769 84.072V89.664C387.769 89.888 387.657 90 387.433 90ZM388.009 82.392H391.633C393.009 82.392 393.697 81.704 393.697 80.328V78.192C393.697 76.8 393.009 76.104 391.633 76.104H388.009C387.849 76.104 387.769 76.176 387.769 76.32V82.176C387.769 82.32 387.849 82.392 388.009 82.392ZM406.78 90H399.244C399.02 90 398.908 89.888 398.908 89.664V74.904C398.908 74.68 399.02 74.568 399.244 74.568H406.78C407.004 74.568 407.116 74.68 407.116 74.904V75.768C407.116 75.992 407.004 76.104 406.78 76.104H400.9C400.74 76.104 400.66 76.176 400.66 76.32V81.168C400.66 81.312 400.74 81.384 400.9 81.384H406.036C406.26 81.384 406.372 81.496 406.372 81.72V82.584C406.372 82.808 406.26 82.92 406.036 82.92H400.9C400.74 82.92 400.66 82.992 400.66 83.136V88.248C400.66 88.392 400.74 88.464 400.9 88.464H406.78C407.004 88.464 407.116 88.576 407.116 88.8V89.664C407.116 89.888 407.004 90 406.78 90ZM418.647 74.568H419.727C419.951 74.568 420.063 74.672 420.063 74.88V86.448C420.063 87.568 419.751 88.44 419.127 89.064C418.503 89.688 417.639 90 416.535 90H413.871C412.767 90 411.895 89.688 411.255 89.064C410.631 88.44 410.319 87.568 410.319 86.448V74.904C410.319 74.68 410.431 74.568 410.655 74.568H411.735C411.959 74.568 412.071 74.68 412.071 74.904V86.376C412.071 87.768 412.735 88.464 414.063 88.464H416.319C417.663 88.464 418.335 87.768 418.335 86.376V74.904C418.335 74.68 418.439 74.568 418.647 74.568ZM423.56 86.448V85.68C423.56 85.456 423.672 85.344 423.896 85.344H424.976C425.2 85.344 425.312 85.456 425.312 85.68V86.304C425.312 87.744 426.024 88.464 427.448 88.464H429.56C430.984 88.464 431.696 87.728 431.696 86.256V85.44C431.696 84.288 430.744 83.536 428.84 83.184C428.04 83.04 427.24 82.872 426.44 82.68C425.64 82.488 424.96 82.12 424.4 81.576C423.84 81.016 423.56 80.256 423.56 79.296V78.12C423.56 77.016 423.872 76.152 424.496 75.528C425.136 74.888 426.008 74.568 427.112 74.568H429.776C430.864 74.568 431.728 74.888 432.368 75.528C433.008 76.152 433.328 77.016 433.328 78.12V78.72C433.328 78.96 433.224 79.08 433.016 79.08H431.912C431.704 79.08 431.6 78.96 431.6 78.72V78.288C431.6 76.832 430.888 76.104 429.464 76.104H427.424C426 76.104 425.288 76.864 425.288 78.384V79.344C425.288 80.16 425.824 80.72 426.896 81.024C427.376 81.152 427.904 81.272 428.48 81.384C429.056 81.48 429.632 81.616 430.208 81.792C430.8 81.952 431.336 82.16 431.816 82.416C432.296 82.656 432.68 83.032 432.968 83.544C433.272 84.04 433.424 84.648 433.424 85.368V86.448C433.424 87.552 433.104 88.424 432.464 89.064C431.824 89.688 430.96 90 429.872 90H427.112C426.024 90 425.16 89.688 424.52 89.064C423.88 88.424 423.56 87.552 423.56 86.448ZM444.913 90H437.377C437.153 90 437.041 89.888 437.041 89.664V74.904C437.041 74.68 437.153 74.568 437.377 74.568H444.913C445.137 74.568 445.249 74.68 445.249 74.904V75.768C445.249 75.992 445.137 76.104 444.913 76.104H439.033C438.873 76.104 438.793 76.176 438.793 76.32V81.168C438.793 81.312 438.873 81.384 439.033 81.384H444.169C444.393 81.384 444.505 81.496 444.505 81.72V82.584C444.505 82.808 444.393 82.92 444.169 82.92H439.033C438.873 82.92 438.793 82.992 438.793 83.136V88.248C438.793 88.392 438.873 88.464 439.033 88.464H444.913C445.137 88.464 445.249 88.576 445.249 88.8V89.664C445.249 89.888 445.137 90 444.913 90ZM454.642 77.688V74.904C454.642 74.68 454.754 74.568 454.978 74.568H456.25C456.474 74.568 456.586 74.68 456.586 74.904V77.688C456.586 79.208 456.538 80.688 456.442 82.128C456.346 83.568 456.282 84.384 456.25 84.576C456.218 84.768 456.114 84.864 455.938 84.864H455.29C455.082 84.864 454.97 84.744 454.954 84.504C454.89 83.88 454.818 82.784 454.738 81.216C454.674 79.648 454.642 78.472 454.642 77.688ZM456.538 86.76V89.664C456.538 89.888 456.426 90 456.202 90H455.05C454.842 90 454.738 89.88 454.738 89.64V86.76C454.738 86.552 454.842 86.448 455.05 86.448H456.202C456.426 86.448 456.538 86.552 456.538 86.76ZM461.465 74.88V76.272C461.465 76.64 461.353 77.16 461.129 77.832L460.313 80.112C460.265 80.224 460.177 80.28 460.049 80.28C459.873 80.28 459.785 80.184 459.785 79.992V74.904C459.785 74.68 459.897 74.568 460.121 74.568H461.153C461.361 74.568 461.465 74.672 461.465 74.88ZM465.161 74.88V76.272C465.161 76.672 465.041 77.192 464.801 77.832L464.009 80.112C463.961 80.224 463.857 80.28 463.697 80.28C463.553 80.28 463.481 80.184 463.481 79.992V74.904C463.481 74.68 463.585 74.568 463.793 74.568H464.849C465.057 74.568 465.161 74.672 465.161 74.88Z" fill="#686666"/>
    <path d="M209.726 113.4H213.758C214.802 113.4 215.726 113.652 216.53 114.156C217.346 114.66 217.982 115.386 218.438 116.334C218.894 117.282 219.122 118.404 219.122 119.7C219.122 120.996 218.894 122.118 218.438 123.066C217.982 124.014 217.346 124.74 216.53 125.244C215.726 125.748 214.802 126 213.758 126H209.726V113.4ZM213.452 124.506C214.712 124.506 215.666 124.086 216.314 123.246C216.974 122.406 217.304 121.224 217.304 119.7C217.304 118.176 216.974 116.994 216.314 116.154C215.666 115.314 214.712 114.894 213.452 114.894H211.364V124.506H213.452ZM224.274 126.18C223.386 126.18 222.624 125.976 221.988 125.568C221.364 125.148 220.89 124.584 220.566 123.876C220.254 123.168 220.098 122.382 220.098 121.518C220.098 120.69 220.242 119.934 220.53 119.25C220.83 118.554 221.256 118.008 221.808 117.612C222.372 117.204 223.038 117 223.806 117C224.79 117 225.588 117.33 226.2 117.99C226.824 118.65 227.136 119.562 227.136 120.726C227.136 120.93 227.112 121.212 227.064 121.572H221.7C221.736 122.616 221.994 123.408 222.474 123.948C222.966 124.488 223.602 124.758 224.382 124.758C224.754 124.758 225.144 124.716 225.552 124.632C225.972 124.536 226.338 124.404 226.65 124.236L226.794 125.64C226.134 126 225.294 126.18 224.274 126.18ZM225.534 120.474C225.534 119.874 225.384 119.388 225.084 119.016C224.796 118.632 224.376 118.44 223.824 118.44C223.284 118.44 222.834 118.608 222.474 118.944C222.126 119.28 221.892 119.79 221.772 120.474H225.534ZM222.51 114.39L225.156 112.698V114.462L222.51 115.488V114.39ZM232.058 126.18C230.714 126.18 229.694 125.76 228.998 124.92C228.302 124.068 227.954 122.976 227.954 121.644C227.954 120.264 228.302 119.148 228.998 118.296C229.694 117.432 230.726 117 232.094 117C232.826 117 233.48 117.15 234.056 117.45L233.804 118.836C233.264 118.548 232.7 118.404 232.112 118.404C231.308 118.404 230.678 118.686 230.222 119.25C229.778 119.802 229.556 120.576 229.556 121.572C229.556 122.568 229.784 123.354 230.24 123.93C230.708 124.506 231.35 124.794 232.166 124.794C232.79 124.794 233.342 124.65 233.822 124.362L234.038 125.766C233.798 125.886 233.498 125.982 233.138 126.054C232.778 126.138 232.418 126.18 232.058 126.18ZM238.591 126.18C237.799 126.18 237.115 125.982 236.539 125.586C235.963 125.178 235.519 124.626 235.207 123.93C234.907 123.234 234.757 122.454 234.757 121.59C234.757 120.726 234.907 119.946 235.207 119.25C235.519 118.554 235.963 118.008 236.539 117.612C237.115 117.204 237.799 117 238.591 117C239.371 117 240.049 117.204 240.625 117.612C241.201 118.008 241.639 118.554 241.939 119.25C242.239 119.946 242.389 120.726 242.389 121.59C242.389 122.454 242.239 123.234 241.939 123.93C241.639 124.626 241.201 125.178 240.625 125.586C240.049 125.982 239.371 126.18 238.591 126.18ZM238.591 124.794C239.287 124.794 239.827 124.512 240.211 123.948C240.595 123.384 240.787 122.598 240.787 121.59C240.787 120.582 240.595 119.802 240.211 119.25C239.827 118.686 239.287 118.404 238.591 118.404C237.871 118.404 237.319 118.686 236.935 119.25C236.551 119.802 236.359 120.582 236.359 121.59C236.359 122.61 236.551 123.402 236.935 123.966C237.319 124.518 237.871 124.794 238.591 124.794ZM250.141 117.18V126H248.809L248.701 124.92C248.461 125.316 248.137 125.628 247.729 125.856C247.321 126.072 246.871 126.18 246.379 126.18C245.455 126.18 244.765 125.874 244.309 125.262C243.865 124.638 243.643 123.75 243.643 122.598V117.18H245.209V122.4C245.209 123.192 245.323 123.786 245.551 124.182C245.791 124.566 246.187 124.758 246.739 124.758C247.123 124.758 247.471 124.65 247.783 124.434C248.095 124.218 248.359 123.918 248.575 123.534V117.18H250.141ZM251.43 117.18H253.104L255.156 124.146L257.172 117.18H258.846L255.93 126H254.364L251.43 117.18ZM259.943 117.18H261.221L261.419 118.656C261.815 118.08 262.187 117.66 262.535 117.396C262.895 117.132 263.273 117 263.669 117C263.825 117 263.963 117.018 264.083 117.054L263.921 118.836C263.765 118.8 263.585 118.782 263.381 118.782C262.985 118.782 262.613 118.884 262.265 119.088C261.917 119.28 261.665 119.508 261.509 119.772V126H259.943V117.18ZM265.27 113.4H266.836V115.182H265.27V113.4ZM265.27 117.18H266.836V126H265.27V117.18ZM268.925 117.18H270.203L270.401 118.656C270.797 118.08 271.169 117.66 271.517 117.396C271.877 117.132 272.255 117 272.651 117C272.807 117 272.945 117.018 273.065 117.054L272.903 118.836C272.747 118.8 272.567 118.782 272.363 118.782C271.967 118.782 271.595 118.884 271.247 119.088C270.899 119.28 270.647 119.508 270.491 119.772V126H268.925V117.18ZM279.982 126.18C278.95 126.18 278.056 125.94 277.3 125.46L277.498 123.876C278.266 124.476 279.058 124.776 279.874 124.776C280.306 124.776 280.642 124.686 280.882 124.506C281.134 124.326 281.26 124.062 281.26 123.714C281.26 123.45 281.2 123.234 281.08 123.066C280.972 122.898 280.786 122.736 280.522 122.58C280.258 122.424 279.85 122.22 279.298 121.968C278.65 121.668 278.176 121.326 277.876 120.942C277.576 120.558 277.426 120.06 277.426 119.448C277.426 118.728 277.678 118.14 278.182 117.684C278.686 117.228 279.364 117 280.216 117C281.08 117 281.836 117.192 282.484 117.576L282.286 119.034C281.962 118.818 281.656 118.662 281.368 118.566C281.08 118.458 280.738 118.404 280.342 118.404C279.922 118.404 279.592 118.494 279.352 118.674C279.112 118.854 278.992 119.106 278.992 119.43C278.992 119.754 279.094 120 279.298 120.168C279.514 120.336 279.928 120.558 280.54 120.834C281.392 121.218 281.992 121.608 282.34 122.004C282.688 122.388 282.862 122.898 282.862 123.534C282.862 124.362 282.604 125.01 282.088 125.478C281.572 125.946 280.87 126.18 279.982 126.18ZM290.518 117.18V126H289.186L289.078 124.92C288.838 125.316 288.514 125.628 288.106 125.856C287.698 126.072 287.248 126.18 286.756 126.18C285.832 126.18 285.142 125.874 284.686 125.262C284.242 124.638 284.02 123.75 284.02 122.598V117.18H285.586V122.4C285.586 123.192 285.7 123.786 285.928 124.182C286.168 124.566 286.564 124.758 287.116 124.758C287.5 124.758 287.848 124.65 288.16 124.434C288.472 124.218 288.736 123.918 288.952 123.534V117.18H290.518ZM292.761 117.18H294.039L294.237 118.656C294.633 118.08 295.005 117.66 295.353 117.396C295.713 117.132 296.091 117 296.487 117C296.643 117 296.781 117.018 296.901 117.054L296.739 118.836C296.583 118.8 296.403 118.782 296.199 118.782C295.803 118.782 295.431 118.884 295.083 119.088C294.735 119.28 294.483 119.508 294.327 119.772V126H292.761V117.18Z" fill="#8F8F8F"/>
    <path d="M305.136 126V110.6H306.83V124.482H316.004V126H305.136ZM316.235 110.182H317.995L316.235 114.824H314.959L316.235 110.182ZM322.42 126.198C321.217 126.198 320.234 125.89 319.472 125.274C318.724 124.658 318.35 123.859 318.35 122.876C318.35 121.849 318.746 121.035 319.538 120.434C320.33 119.818 321.4 119.51 322.75 119.51C323.336 119.51 323.901 119.576 324.444 119.708C325.001 119.84 325.514 120.023 325.984 120.258V118.806C325.984 117.926 325.734 117.266 325.236 116.826C324.737 116.371 324.011 116.144 323.058 116.144C322.515 116.144 321.965 116.225 321.408 116.386C320.865 116.533 320.264 116.775 319.604 117.112L318.988 115.858C319.78 115.477 320.513 115.198 321.188 115.022C321.862 114.846 322.537 114.758 323.212 114.758C324.605 114.758 325.676 115.088 326.424 115.748C327.186 116.408 327.568 117.354 327.568 118.586V126H325.984V124.922C325.485 125.347 324.935 125.67 324.334 125.89C323.747 126.095 323.109 126.198 322.42 126.198ZM319.912 122.832C319.912 123.448 320.168 123.954 320.682 124.35C321.21 124.731 321.884 124.922 322.706 124.922C323.366 124.922 323.967 124.819 324.51 124.614C325.052 124.409 325.544 124.086 325.984 123.646V121.578C325.529 121.27 325.038 121.05 324.51 120.918C323.996 120.771 323.424 120.698 322.794 120.698C321.914 120.698 321.21 120.896 320.682 121.292C320.168 121.673 319.912 122.187 319.912 122.832ZM329.165 124.482L330.155 123.426C330.654 123.895 331.211 124.262 331.827 124.526C332.458 124.775 333.096 124.9 333.741 124.9C334.621 124.9 335.34 124.717 335.897 124.35C336.455 123.983 336.733 123.507 336.733 122.92C336.733 122.451 336.565 122.084 336.227 121.82C335.905 121.541 335.391 121.351 334.687 121.248L332.773 120.984C331.673 120.823 330.852 120.5 330.309 120.016C329.781 119.517 329.517 118.85 329.517 118.014C329.517 117.09 329.906 116.327 330.683 115.726C331.461 115.11 332.451 114.802 333.653 114.802C334.445 114.802 335.193 114.919 335.897 115.154C336.616 115.389 337.313 115.755 337.987 116.254L337.129 117.354C336.513 116.943 335.912 116.635 335.325 116.43C334.753 116.225 334.167 116.122 333.565 116.122C332.817 116.122 332.201 116.291 331.717 116.628C331.248 116.965 331.013 117.405 331.013 117.948C331.013 118.417 331.175 118.784 331.497 119.048C331.82 119.297 332.341 119.473 333.059 119.576L334.973 119.84C336.073 119.987 336.895 120.317 337.437 120.83C337.995 121.329 338.273 121.996 338.273 122.832C338.273 123.301 338.156 123.749 337.921 124.174C337.701 124.585 337.386 124.944 336.975 125.252C336.579 125.545 336.11 125.78 335.567 125.956C335.025 126.117 334.438 126.198 333.807 126.198C332.898 126.198 332.04 126.051 331.233 125.758C330.441 125.45 329.752 125.025 329.165 124.482ZM339.156 124.482L340.146 123.426C340.644 123.895 341.202 124.262 341.818 124.526C342.448 124.775 343.086 124.9 343.732 124.9C344.612 124.9 345.33 124.717 345.888 124.35C346.445 123.983 346.724 123.507 346.724 122.92C346.724 122.451 346.555 122.084 346.218 121.82C345.895 121.541 345.382 121.351 344.678 121.248L342.764 120.984C341.664 120.823 340.842 120.5 340.3 120.016C339.772 119.517 339.508 118.85 339.508 118.014C339.508 117.09 339.896 116.327 340.674 115.726C341.451 115.11 342.441 114.802 343.644 114.802C344.436 114.802 345.184 114.919 345.888 115.154C346.606 115.389 347.303 115.755 347.978 116.254L347.12 117.354C346.504 116.943 345.902 116.635 345.316 116.43C344.744 116.225 344.157 116.122 343.556 116.122C342.808 116.122 342.192 116.291 341.708 116.628C341.238 116.965 341.004 117.405 341.004 117.948C341.004 118.417 341.165 118.784 341.488 119.048C341.81 119.297 342.331 119.473 343.05 119.576L344.964 119.84C346.064 119.987 346.885 120.317 347.428 120.83C347.985 121.329 348.264 121.996 348.264 122.832C348.264 123.301 348.146 123.749 347.912 124.174C347.692 124.585 347.376 124.944 346.966 125.252C346.57 125.545 346.1 125.78 345.558 125.956C345.015 126.117 344.428 126.198 343.798 126.198C342.888 126.198 342.03 126.051 341.224 125.758C340.432 125.45 339.742 125.025 339.156 124.482ZM350.91 112.866C350.617 112.866 350.36 112.756 350.14 112.536C349.92 112.316 349.81 112.059 349.81 111.766C349.81 111.458 349.92 111.201 350.14 110.996C350.36 110.776 350.617 110.666 350.91 110.666C351.218 110.666 351.475 110.776 351.68 110.996C351.9 111.201 352.01 111.458 352.01 111.766C352.01 112.059 351.9 112.316 351.68 112.536C351.475 112.756 351.218 112.866 350.91 112.866ZM351.724 114.978V126H350.096V114.978H351.724ZM363.784 124.834C363.168 125.289 362.523 125.633 361.848 125.868C361.188 126.088 360.462 126.198 359.67 126.198C358.878 126.198 358.13 126.051 357.426 125.758C356.737 125.465 356.136 125.061 355.622 124.548C355.124 124.035 354.728 123.433 354.434 122.744C354.141 122.04 353.994 121.285 353.994 120.478C353.994 119.686 354.134 118.945 354.412 118.256C354.706 117.567 355.094 116.965 355.578 116.452C356.062 115.939 356.634 115.535 357.294 115.242C357.969 114.949 358.68 114.802 359.428 114.802C360.162 114.802 360.844 114.949 361.474 115.242C362.12 115.535 362.67 115.939 363.124 116.452C363.594 116.965 363.96 117.567 364.224 118.256C364.503 118.945 364.642 119.686 364.642 120.478V120.984H355.6C355.718 122.069 356.165 122.971 356.942 123.69C357.72 124.409 358.651 124.768 359.736 124.768C360.308 124.768 360.866 124.68 361.408 124.504C361.951 124.328 362.406 124.079 362.772 123.756L363.784 124.834ZM359.384 116.232C358.431 116.232 357.602 116.555 356.898 117.2C356.209 117.845 355.791 118.674 355.644 119.686H363.014C362.868 118.718 362.45 117.904 361.76 117.244C361.086 116.569 360.294 116.232 359.384 116.232ZM367.853 123.536V116.364H365.477V114.978H367.853V112.184L369.459 111.766V114.978H372.781V116.364H369.459V123.118C369.459 123.705 369.591 124.13 369.855 124.394C370.119 124.643 370.551 124.768 371.153 124.768C371.461 124.768 371.732 124.746 371.967 124.702C372.216 124.658 372.48 124.585 372.759 124.482V125.912C372.48 126.015 372.165 126.088 371.813 126.132C371.475 126.176 371.145 126.198 370.823 126.198C369.869 126.198 369.136 125.971 368.623 125.516C368.109 125.061 367.853 124.401 367.853 123.536ZM376.103 123.536V116.364H373.727V114.978H376.103V112.184L377.709 111.766V114.978H381.031V116.364H377.709V123.118C377.709 123.705 377.841 124.13 378.105 124.394C378.369 124.643 378.801 124.768 379.403 124.768C379.711 124.768 379.982 124.746 380.217 124.702C380.466 124.658 380.73 124.585 381.009 124.482V125.912C380.73 126.015 380.415 126.088 380.063 126.132C379.725 126.176 379.395 126.198 379.073 126.198C378.119 126.198 377.386 125.971 376.873 125.516C376.359 125.061 376.103 124.401 376.103 123.536ZM391.714 124.834C391.098 125.289 390.453 125.633 389.778 125.868C389.118 126.088 388.392 126.198 387.6 126.198C386.808 126.198 386.06 126.051 385.356 125.758C384.667 125.465 384.065 125.061 383.552 124.548C383.053 124.035 382.657 123.433 382.364 122.744C382.071 122.04 381.924 121.285 381.924 120.478C381.924 119.686 382.063 118.945 382.342 118.256C382.635 117.567 383.024 116.965 383.508 116.452C383.992 115.939 384.564 115.535 385.224 115.242C385.899 114.949 386.61 114.802 387.358 114.802C388.091 114.802 388.773 114.949 389.404 115.242C390.049 115.535 390.599 115.939 391.054 116.452C391.523 116.965 391.89 117.567 392.154 118.256C392.433 118.945 392.572 119.686 392.572 120.478V120.984H383.53C383.647 122.069 384.095 122.971 384.872 123.69C385.649 124.409 386.581 124.768 387.666 124.768C388.238 124.768 388.795 124.68 389.338 124.504C389.881 124.328 390.335 124.079 390.702 123.756L391.714 124.834ZM387.314 116.232C386.361 116.232 385.532 116.555 384.828 117.2C384.139 117.845 383.721 118.674 383.574 119.686H390.944C390.797 118.718 390.379 117.904 389.69 117.244C389.015 116.569 388.223 116.232 387.314 116.232Z" fill="#C54B25"/>
    <path d="M274.213 202.965C273.832 202.965 273.468 202.901 273.121 202.774C272.774 202.647 272.444 202.478 272.131 202.267C271.826 202.063 271.53 201.835 271.242 201.581C270.954 201.319 270.679 201.052 270.417 200.781C270.29 201.052 270.138 201.306 269.96 201.543C269.791 201.771 269.592 201.975 269.363 202.152C269.135 202.33 268.881 202.47 268.602 202.571C268.322 202.673 268.018 202.724 267.688 202.724C267.256 202.724 266.871 202.647 266.532 202.495C266.202 202.351 265.923 202.157 265.694 201.911C265.466 201.666 265.288 201.382 265.161 201.061C265.043 200.739 264.983 200.4 264.983 200.045C264.983 199.622 265.064 199.237 265.225 198.89C265.385 198.534 265.601 198.234 265.872 197.988C266.151 197.734 266.469 197.54 266.824 197.404C267.18 197.26 267.552 197.188 267.941 197.188C268.085 197.188 268.225 197.201 268.36 197.227C268.504 197.243 268.644 197.273 268.779 197.315C268.627 196.757 268.432 196.215 268.195 195.69C267.958 195.157 267.726 194.616 267.497 194.065C267.277 193.515 267.082 192.936 266.913 192.326C266.752 191.717 266.672 191.048 266.672 190.32C266.672 189.762 266.74 189.207 266.875 188.657C267.01 188.107 267.201 187.582 267.446 187.083C267.7 186.575 268.009 186.105 268.373 185.674C268.737 185.242 269.147 184.87 269.604 184.557C270.062 184.235 270.561 183.985 271.103 183.808C271.653 183.63 272.237 183.541 272.854 183.541C273.438 183.541 273.967 183.63 274.441 183.808C274.915 183.985 275.322 184.231 275.66 184.544C276.007 184.849 276.274 185.217 276.46 185.648C276.646 186.072 276.739 186.537 276.739 187.045C276.739 187.553 276.663 188.039 276.511 188.505C276.358 188.97 276.151 189.406 275.889 189.812C275.626 190.219 275.322 190.587 274.975 190.917C274.628 191.247 274.259 191.531 273.87 191.768C273.481 192.005 273.083 192.187 272.677 192.313C272.271 192.44 271.881 192.504 271.509 192.504C271.331 192.504 271.162 192.474 271.001 192.415C270.849 192.356 270.709 192.267 270.582 192.148C270.464 192.03 270.366 191.878 270.29 191.691C270.222 191.505 270.188 191.285 270.188 191.031C270.188 190.803 270.256 190.688 270.392 190.688C270.434 190.688 270.489 190.718 270.557 190.777C270.633 190.837 270.743 190.866 270.887 190.866C271.318 190.866 271.758 190.76 272.207 190.549C272.656 190.337 273.062 190.066 273.426 189.736C273.798 189.398 274.099 189.025 274.327 188.619C274.564 188.204 274.683 187.802 274.683 187.413C274.683 187.159 274.645 186.922 274.568 186.702C274.492 186.474 274.374 186.275 274.213 186.105C274.061 185.928 273.866 185.792 273.629 185.699C273.392 185.598 273.108 185.547 272.778 185.547C272.177 185.547 271.632 185.682 271.141 185.953C270.65 186.215 270.227 186.571 269.871 187.02C269.516 187.46 269.241 187.976 269.046 188.568C268.851 189.152 268.754 189.766 268.754 190.409C268.754 190.858 268.805 191.302 268.906 191.742C269.008 192.174 269.135 192.605 269.287 193.037C269.439 193.46 269.604 193.892 269.782 194.332C269.968 194.764 270.138 195.212 270.29 195.678C270.451 196.135 270.586 196.609 270.696 197.1C270.806 197.582 270.87 198.09 270.887 198.623C271.166 198.894 271.433 199.165 271.687 199.436C271.949 199.706 272.207 199.956 272.461 200.185C272.715 200.405 272.969 200.587 273.223 200.73C273.477 200.866 273.739 200.934 274.01 200.934C274.374 200.934 274.674 200.853 274.911 200.692C275.148 200.532 275.339 200.333 275.482 200.096C275.626 199.85 275.728 199.588 275.787 199.309C275.846 199.029 275.876 198.775 275.876 198.547C275.876 198.428 275.868 198.335 275.851 198.268C275.834 198.191 275.825 198.128 275.825 198.077C275.825 197.95 275.931 197.887 276.143 197.887C276.6 197.887 276.951 198.005 277.196 198.242C277.442 198.471 277.564 198.746 277.564 199.067C277.564 199.575 277.484 200.062 277.323 200.527C277.162 200.993 276.934 201.408 276.638 201.771C276.35 202.135 275.999 202.423 275.584 202.635C275.169 202.855 274.712 202.965 274.213 202.965ZM267.764 198.979C267.501 198.979 267.277 199.067 267.091 199.245C266.913 199.423 266.824 199.656 266.824 199.943C266.824 200.189 266.9 200.413 267.053 200.616C267.214 200.811 267.442 200.908 267.738 200.908C267.916 200.908 268.073 200.87 268.208 200.794C268.352 200.709 268.475 200.599 268.576 200.464C268.678 200.328 268.758 200.176 268.817 200.007C268.885 199.829 268.932 199.643 268.957 199.448C268.762 199.304 268.568 199.19 268.373 199.105C268.178 199.021 267.975 198.979 267.764 198.979ZM280.027 184.188C280.197 184.188 280.357 184.222 280.51 184.29C280.671 184.349 280.81 184.442 280.929 184.569C281.047 184.696 281.14 184.857 281.208 185.052C281.276 185.238 281.31 185.462 281.31 185.725C281.31 185.97 281.238 186.258 281.094 186.588C280.95 186.91 280.776 187.218 280.573 187.515C280.37 187.811 280.154 188.065 279.926 188.276C279.706 188.479 279.515 188.581 279.354 188.581C279.244 188.581 279.143 188.556 279.05 188.505C278.957 188.446 278.876 188.378 278.809 188.302C278.749 188.217 278.699 188.128 278.656 188.035C278.622 187.942 278.605 187.857 278.605 187.781C278.605 187.714 278.622 187.675 278.656 187.667C278.69 187.65 278.732 187.625 278.783 187.591C278.876 187.565 279.007 187.46 279.177 187.273C279.354 187.079 279.536 186.859 279.723 186.613C279.452 186.546 279.223 186.406 279.037 186.194C278.851 185.974 278.758 185.72 278.758 185.433C278.758 185.255 278.792 185.094 278.859 184.95C278.927 184.798 279.02 184.667 279.139 184.557C279.257 184.438 279.393 184.349 279.545 184.29C279.697 184.222 279.858 184.188 280.027 184.188ZM290.577 201.01C290.84 201.01 291.064 200.917 291.25 200.73C291.445 200.544 291.61 200.312 291.745 200.032C291.889 199.753 292.003 199.452 292.088 199.131C292.181 198.801 292.257 198.492 292.316 198.204C292.376 197.933 292.46 197.739 292.57 197.62C292.689 197.493 292.816 197.43 292.951 197.43C293.053 197.43 293.154 197.464 293.256 197.531C293.366 197.59 293.463 197.671 293.548 197.772C293.641 197.874 293.713 197.988 293.764 198.115C293.823 198.242 293.853 198.369 293.853 198.496C293.853 198.513 293.853 198.534 293.853 198.56C293.853 198.585 293.844 198.623 293.827 198.674C293.717 199.105 293.565 199.558 293.37 200.032C293.184 200.506 292.943 200.942 292.646 201.34C292.35 201.738 291.991 202.068 291.567 202.33C291.153 202.592 290.666 202.724 290.107 202.724C289.65 202.724 289.253 202.626 288.914 202.432C288.576 202.237 288.309 201.979 288.114 201.657C287.852 201.953 287.535 202.203 287.162 202.406C286.798 202.618 286.371 202.724 285.88 202.724C285.372 202.724 284.924 202.622 284.534 202.419C284.153 202.216 283.832 201.941 283.569 201.594C283.307 201.238 283.108 200.824 282.973 200.35C282.846 199.867 282.782 199.351 282.782 198.801C282.782 197.717 282.956 196.744 283.303 195.881C283.65 195.018 284.111 194.285 284.687 193.685C285.262 193.075 285.918 192.61 286.654 192.288C287.399 191.966 288.169 191.806 288.965 191.806C289.32 191.806 289.608 191.903 289.828 192.098C290.048 192.292 290.158 192.559 290.158 192.897C290.158 193.118 290.133 193.274 290.082 193.367C290.04 193.452 289.955 193.494 289.828 193.494C289.71 193.494 289.587 193.486 289.46 193.469C289.333 193.452 289.202 193.443 289.066 193.443C288.576 193.443 288.076 193.553 287.568 193.773C287.061 193.985 286.599 194.315 286.185 194.764C285.778 195.204 285.444 195.767 285.182 196.452C284.919 197.129 284.788 197.938 284.788 198.877C284.788 199.562 284.919 200.091 285.182 200.464C285.444 200.828 285.804 201.01 286.261 201.01C286.616 201.01 286.912 200.879 287.149 200.616C287.386 200.345 287.577 200.028 287.721 199.664V195.652C287.721 195.525 287.712 195.42 287.695 195.335C287.687 195.25 287.674 195.178 287.657 195.119C287.649 195.06 287.64 195.009 287.632 194.967C287.623 194.916 287.619 194.869 287.619 194.827C287.619 194.692 287.683 194.586 287.81 194.51C287.945 194.425 288.106 194.383 288.292 194.383C288.724 194.383 289.066 194.497 289.32 194.726C289.574 194.946 289.701 195.212 289.701 195.525V199.816C289.701 199.96 289.718 200.104 289.752 200.248C289.786 200.383 289.837 200.51 289.904 200.629C289.972 200.739 290.061 200.832 290.171 200.908C290.289 200.976 290.425 201.01 290.577 201.01ZM293.916 198.433C293.848 198.703 293.721 198.873 293.535 198.94C293.349 199 293.163 198.991 292.977 198.915C292.799 198.839 292.646 198.708 292.52 198.521C292.401 198.335 292.367 198.132 292.418 197.912C292.545 197.337 292.727 196.702 292.964 196.008C293.209 195.305 293.451 194.607 293.688 193.913C293.561 193.718 293.459 193.524 293.383 193.329C293.307 193.126 293.269 192.914 293.269 192.694C293.269 192.474 293.349 192.246 293.51 192.009C293.679 191.763 293.878 191.539 294.106 191.336C294.343 191.133 294.585 190.968 294.83 190.841C295.084 190.705 295.3 190.638 295.478 190.638C295.791 190.638 296.023 190.743 296.176 190.955C296.337 191.167 296.417 191.45 296.417 191.806C296.417 192 296.383 192.195 296.315 192.39C296.256 192.576 296.188 192.754 296.112 192.923C296.036 193.084 295.964 193.223 295.896 193.342C295.837 193.46 295.803 193.536 295.795 193.57C296.1 194.112 296.417 194.59 296.747 195.005C297.077 195.42 297.378 195.83 297.648 196.236C297.928 196.643 298.156 197.074 298.334 197.531C298.512 197.988 298.601 198.526 298.601 199.144C298.601 199.296 298.588 199.452 298.562 199.613C298.546 199.774 298.516 199.926 298.474 200.07C298.778 200.011 299.045 199.918 299.273 199.791C299.51 199.664 299.714 199.52 299.883 199.359C300.061 199.19 300.204 199.008 300.314 198.813C300.433 198.619 300.53 198.416 300.606 198.204C300.7 197.959 300.793 197.781 300.886 197.671C300.979 197.561 301.085 197.506 301.203 197.506C301.313 197.506 301.423 197.544 301.533 197.62C301.652 197.688 301.753 197.777 301.838 197.887C301.931 197.997 302.003 198.111 302.054 198.229C302.113 198.348 302.143 198.454 302.143 198.547C302.143 198.674 302.109 198.826 302.041 199.004C301.973 199.182 301.88 199.364 301.762 199.55C301.652 199.736 301.525 199.918 301.381 200.096C301.237 200.265 301.089 200.413 300.937 200.54C300.53 200.87 300.052 201.149 299.502 201.378C298.952 201.598 298.271 201.738 297.458 201.797C297.145 202.068 296.772 202.288 296.341 202.457C295.918 202.635 295.439 202.724 294.906 202.724C294.635 202.724 294.356 202.69 294.068 202.622C293.789 202.554 293.518 202.465 293.256 202.355C293.002 202.254 292.769 202.14 292.558 202.013C292.346 201.886 292.177 201.759 292.05 201.632C291.728 201.327 291.521 201.022 291.428 200.718C291.335 200.405 291.313 200.125 291.364 199.88C291.407 199.634 291.495 199.436 291.631 199.283C291.766 199.122 291.906 199.042 292.05 199.042C292.134 199.042 292.266 199.08 292.443 199.156C292.63 199.224 292.841 199.317 293.078 199.436C293.315 199.546 293.573 199.664 293.853 199.791C294.132 199.918 294.411 200.041 294.69 200.159C294.97 200.269 295.241 200.362 295.503 200.438C295.774 200.506 296.019 200.54 296.239 200.54C296.383 200.371 296.514 200.146 296.633 199.867C296.751 199.588 296.811 199.283 296.811 198.953C296.811 198.547 296.756 198.17 296.646 197.823C296.535 197.476 296.392 197.155 296.214 196.858C296.036 196.562 295.833 196.287 295.604 196.033C295.384 195.771 295.16 195.525 294.932 195.297C294.729 195.796 294.551 196.291 294.398 196.782C294.246 197.265 294.085 197.815 293.916 198.433ZM302.219 198.433C302.151 198.703 302.024 198.873 301.838 198.94C301.652 199 301.465 198.991 301.279 198.915C301.102 198.839 300.949 198.708 300.822 198.521C300.704 198.335 300.67 198.132 300.721 197.912C300.848 197.337 301.03 196.702 301.267 196.008C301.512 195.305 301.753 194.607 301.99 193.913C301.863 193.718 301.762 193.524 301.686 193.329C301.609 193.126 301.571 192.914 301.571 192.694C301.571 192.474 301.652 192.246 301.812 192.009C301.982 191.763 302.181 191.539 302.409 191.336C302.646 191.133 302.887 190.968 303.133 190.841C303.387 190.705 303.603 190.638 303.78 190.638C304.093 190.638 304.326 190.743 304.479 190.955C304.639 191.167 304.72 191.45 304.72 191.806C304.72 192 304.686 192.195 304.618 192.39C304.559 192.576 304.491 192.754 304.415 192.923C304.339 193.084 304.267 193.223 304.199 193.342C304.14 193.46 304.106 193.536 304.098 193.57C304.402 194.112 304.72 194.59 305.05 195.005C305.38 195.42 305.68 195.83 305.951 196.236C306.23 196.643 306.459 197.074 306.637 197.531C306.814 197.988 306.903 198.526 306.903 199.144C306.903 199.296 306.891 199.452 306.865 199.613C306.848 199.774 306.819 199.926 306.776 200.07C307.081 200.011 307.348 199.918 307.576 199.791C307.813 199.664 308.016 199.52 308.186 199.359C308.363 199.19 308.507 199.008 308.617 198.813C308.736 198.619 308.833 198.416 308.909 198.204C309.002 197.959 309.095 197.781 309.188 197.671C309.282 197.561 309.387 197.506 309.506 197.506C309.616 197.506 309.726 197.544 309.836 197.62C309.954 197.688 310.056 197.777 310.141 197.887C310.234 197.997 310.306 198.111 310.356 198.229C310.416 198.348 310.445 198.454 310.445 198.547C310.445 198.674 310.411 198.826 310.344 199.004C310.276 199.182 310.183 199.364 310.064 199.55C309.954 199.736 309.827 199.918 309.684 200.096C309.54 200.265 309.392 200.413 309.239 200.54C308.833 200.87 308.355 201.149 307.805 201.378C307.255 201.598 306.573 201.738 305.761 201.797C305.448 202.068 305.075 202.288 304.644 202.457C304.22 202.635 303.742 202.724 303.209 202.724C302.938 202.724 302.659 202.69 302.371 202.622C302.092 202.554 301.821 202.465 301.559 202.355C301.305 202.254 301.072 202.14 300.86 202.013C300.649 201.886 300.479 201.759 300.353 201.632C300.031 201.327 299.824 201.022 299.73 200.718C299.637 200.405 299.616 200.125 299.667 199.88C299.709 199.634 299.798 199.436 299.934 199.283C300.069 199.122 300.209 199.042 300.353 199.042C300.437 199.042 300.568 199.08 300.746 199.156C300.932 199.224 301.144 199.317 301.381 199.436C301.618 199.546 301.876 199.664 302.155 199.791C302.435 199.918 302.714 200.041 302.993 200.159C303.272 200.269 303.543 200.362 303.806 200.438C304.076 200.506 304.322 200.54 304.542 200.54C304.686 200.371 304.817 200.146 304.936 199.867C305.054 199.588 305.113 199.283 305.113 198.953C305.113 198.547 305.058 198.17 304.948 197.823C304.838 197.476 304.694 197.155 304.517 196.858C304.339 196.562 304.136 196.287 303.907 196.033C303.687 195.771 303.463 195.525 303.234 195.297C303.031 195.796 302.854 196.291 302.701 196.782C302.549 197.265 302.388 197.815 302.219 198.433ZM310.42 189.495C310.208 189.495 310.005 189.453 309.811 189.368C309.624 189.284 309.459 189.169 309.315 189.025C309.18 188.882 309.07 188.716 308.985 188.53C308.901 188.336 308.858 188.128 308.858 187.908C308.858 187.68 308.901 187.468 308.985 187.273C309.07 187.079 309.18 186.914 309.315 186.778C309.459 186.634 309.624 186.524 309.811 186.448C310.005 186.364 310.208 186.321 310.42 186.321C310.648 186.321 310.86 186.364 311.055 186.448C311.249 186.524 311.414 186.634 311.55 186.778C311.694 186.914 311.804 187.079 311.88 187.273C311.965 187.468 312.007 187.68 312.007 187.908C312.007 188.128 311.965 188.336 311.88 188.53C311.804 188.716 311.694 188.882 311.55 189.025C311.414 189.169 311.249 189.284 311.055 189.368C310.86 189.453 310.648 189.495 310.42 189.495ZM311.017 199.816C311.017 199.876 311.021 199.973 311.029 200.108C311.038 200.235 311.063 200.367 311.105 200.502C311.148 200.637 311.215 200.756 311.309 200.857C311.402 200.959 311.533 201.01 311.702 201.01C311.956 201.01 312.176 200.917 312.362 200.73C312.557 200.544 312.722 200.312 312.857 200.032C313.001 199.753 313.12 199.452 313.213 199.131C313.306 198.801 313.382 198.492 313.441 198.204C313.492 197.942 313.568 197.751 313.67 197.633C313.78 197.514 313.894 197.451 314.013 197.442C314.14 197.425 314.262 197.455 314.381 197.531C314.508 197.607 314.618 197.709 314.711 197.836C314.812 197.954 314.884 198.09 314.927 198.242C314.978 198.395 314.986 198.538 314.952 198.674C314.834 199.105 314.677 199.558 314.482 200.032C314.296 200.506 314.055 200.942 313.759 201.34C313.463 201.738 313.107 202.068 312.692 202.33C312.278 202.592 311.791 202.724 311.232 202.724C310.885 202.724 310.576 202.656 310.306 202.521C310.035 202.394 309.806 202.22 309.62 202C309.434 201.78 309.29 201.522 309.188 201.226C309.095 200.929 309.049 200.616 309.049 200.286V193.342C309.049 193.096 309.028 192.919 308.985 192.809C308.951 192.699 308.935 192.597 308.935 192.504C308.935 192.377 309.002 192.275 309.138 192.199C309.273 192.115 309.434 192.072 309.62 192.072C310.052 192.072 310.39 192.187 310.636 192.415C310.89 192.635 311.017 192.902 311.017 193.215V199.816ZM319.522 194.434C319.522 194.916 319.438 195.411 319.269 195.919C319.108 196.427 318.862 196.909 318.532 197.366C318.211 197.815 317.809 198.221 317.326 198.585C316.852 198.94 316.302 199.211 315.676 199.397C315.76 199.618 315.87 199.829 316.006 200.032C316.15 200.227 316.319 200.396 316.514 200.54C316.708 200.684 316.933 200.798 317.187 200.883C317.449 200.967 317.749 201.01 318.088 201.01C318.596 201.01 319.032 200.917 319.396 200.73C319.759 200.536 320.064 200.282 320.31 199.969C320.563 199.656 320.767 199.304 320.919 198.915C321.071 198.526 321.186 198.132 321.262 197.734C321.321 197.447 321.439 197.256 321.617 197.163C321.803 197.062 321.99 197.036 322.176 197.087C322.37 197.138 322.535 197.248 322.671 197.417C322.815 197.578 322.874 197.772 322.849 198.001C322.815 198.263 322.756 198.564 322.671 198.902C322.595 199.241 322.476 199.584 322.315 199.931C322.155 200.278 321.947 200.62 321.693 200.959C321.448 201.289 321.143 201.585 320.779 201.848C320.415 202.11 319.988 202.322 319.497 202.482C319.006 202.643 318.443 202.724 317.809 202.724C317.216 202.724 316.641 202.605 316.082 202.368C315.532 202.14 315.041 201.81 314.609 201.378C314.186 200.938 313.843 200.4 313.581 199.766C313.327 199.122 313.2 198.395 313.2 197.582C313.2 196.761 313.314 195.999 313.543 195.297C313.771 194.586 314.072 193.972 314.444 193.456C314.817 192.94 315.24 192.538 315.714 192.25C316.188 191.954 316.674 191.806 317.174 191.806C317.538 191.806 317.864 191.869 318.151 191.996C318.448 192.123 318.697 192.305 318.9 192.542C319.104 192.771 319.256 193.046 319.357 193.367C319.467 193.689 319.522 194.044 319.522 194.434ZM315.333 197.506C315.333 197.582 315.337 197.658 315.346 197.734C315.354 197.811 315.358 197.891 315.358 197.976C315.68 197.823 315.972 197.629 316.234 197.392C316.497 197.155 316.721 196.884 316.907 196.579C317.093 196.274 317.237 195.944 317.339 195.589C317.44 195.225 317.491 194.848 317.491 194.459C317.491 194.171 317.44 193.947 317.339 193.786C317.246 193.625 317.115 193.545 316.945 193.545C316.734 193.545 316.543 193.617 316.374 193.761C316.213 193.905 316.069 194.095 315.942 194.332C315.824 194.561 315.722 194.823 315.638 195.119C315.562 195.407 315.498 195.699 315.447 195.995C315.396 196.291 315.363 196.575 315.346 196.846C315.329 197.108 315.325 197.328 315.333 197.506ZM318.913 189.774C319.108 189.791 319.324 189.804 319.561 189.812C319.764 189.829 320.009 189.842 320.297 189.851C320.585 189.851 320.906 189.855 321.262 189.863V185.458C321.262 185.272 321.245 185.124 321.211 185.014C321.186 184.904 321.156 184.819 321.122 184.76C321.097 184.692 321.067 184.641 321.033 184.607C321.008 184.565 320.995 184.523 320.995 184.48C320.995 184.43 321.021 184.387 321.071 184.354C321.122 184.32 321.19 184.29 321.274 184.265C321.359 184.239 321.448 184.222 321.541 184.214C321.643 184.197 321.74 184.188 321.833 184.188C322.265 184.188 322.603 184.303 322.849 184.531C323.103 184.751 323.229 185.018 323.229 185.331V189.889C324.025 189.889 324.863 189.88 325.743 189.863C326.632 189.846 327.521 189.817 328.409 189.774C328.528 189.647 328.621 189.601 328.688 189.635C328.765 189.669 328.811 189.749 328.828 189.876C328.854 190.003 328.858 190.16 328.841 190.346C328.824 190.532 328.79 190.714 328.739 190.892C328.688 191.061 328.617 191.209 328.523 191.336C328.439 191.463 328.341 191.526 328.231 191.526C327.19 191.552 326.268 191.569 325.464 191.577C324.668 191.577 323.924 191.577 323.229 191.577V199.816C323.229 200.24 323.31 200.544 323.471 200.73C323.632 200.917 323.847 201.01 324.118 201.01C324.381 201.01 324.605 200.917 324.791 200.73C324.986 200.544 325.151 200.312 325.286 200.032C325.43 199.753 325.544 199.452 325.629 199.131C325.722 198.801 325.798 198.492 325.857 198.204C325.908 197.933 325.993 197.739 326.111 197.62C326.23 197.493 326.353 197.43 326.479 197.43C326.581 197.43 326.687 197.464 326.797 197.531C326.907 197.59 327.004 197.671 327.089 197.772C327.182 197.874 327.254 197.988 327.305 198.115C327.364 198.242 327.394 198.369 327.394 198.496C327.394 198.513 327.394 198.534 327.394 198.56C327.394 198.585 327.385 198.623 327.368 198.674C327.258 199.105 327.106 199.558 326.911 200.032C326.725 200.506 326.479 200.942 326.175 201.34C325.879 201.738 325.523 202.068 325.108 202.33C324.694 202.592 324.207 202.724 323.648 202.724C323.301 202.724 322.98 202.669 322.684 202.559C322.396 202.457 322.146 202.288 321.935 202.051C321.723 201.822 321.558 201.526 321.439 201.162C321.321 200.798 321.262 200.358 321.262 199.842V191.577C320.974 191.577 320.716 191.577 320.487 191.577C320.267 191.569 320.081 191.56 319.929 191.552C319.751 191.543 319.594 191.535 319.459 191.526C319.256 191.526 319.078 191.438 318.926 191.26C318.765 191.074 318.655 190.87 318.596 190.65C318.528 190.43 318.52 190.231 318.57 190.054C318.613 189.868 318.727 189.774 318.913 189.774ZM323.636 189.774C323.83 189.791 324.046 189.804 324.283 189.812C324.486 189.829 324.732 189.842 325.02 189.851C325.307 189.851 325.629 189.855 325.984 189.863V185.458C325.984 185.272 325.967 185.124 325.934 185.014C325.908 184.904 325.879 184.819 325.845 184.76C325.819 184.692 325.79 184.641 325.756 184.607C325.73 184.565 325.718 184.523 325.718 184.48C325.718 184.43 325.743 184.387 325.794 184.354C325.845 184.32 325.912 184.29 325.997 184.265C326.082 184.239 326.171 184.222 326.264 184.214C326.365 184.197 326.463 184.188 326.556 184.188C326.987 184.188 327.326 184.303 327.571 184.531C327.825 184.751 327.952 185.018 327.952 185.331V189.889C328.748 189.889 329.586 189.88 330.466 189.863C331.354 189.846 332.243 189.817 333.132 189.774C333.25 189.647 333.343 189.601 333.411 189.635C333.487 189.669 333.534 189.749 333.551 189.876C333.576 190.003 333.58 190.16 333.563 190.346C333.547 190.532 333.513 190.714 333.462 190.892C333.411 191.061 333.339 191.209 333.246 191.336C333.161 191.463 333.064 191.526 332.954 191.526C331.913 191.552 330.991 191.569 330.187 191.577C329.391 191.577 328.646 191.577 327.952 191.577V199.816C327.952 200.24 328.033 200.544 328.193 200.73C328.354 200.917 328.57 201.01 328.841 201.01C329.103 201.01 329.327 200.917 329.514 200.73C329.708 200.544 329.873 200.312 330.009 200.032C330.153 199.753 330.267 199.452 330.352 199.131C330.445 198.801 330.521 198.492 330.58 198.204C330.631 197.933 330.715 197.739 330.834 197.62C330.952 197.493 331.075 197.43 331.202 197.43C331.304 197.43 331.41 197.464 331.52 197.531C331.63 197.59 331.727 197.671 331.812 197.772C331.905 197.874 331.977 197.988 332.027 198.115C332.087 198.242 332.116 198.369 332.116 198.496C332.116 198.513 332.116 198.534 332.116 198.56C332.116 198.585 332.108 198.623 332.091 198.674C331.981 199.105 331.828 199.558 331.634 200.032C331.448 200.506 331.202 200.942 330.897 201.34C330.601 201.738 330.246 202.068 329.831 202.33C329.416 202.592 328.93 202.724 328.371 202.724C328.024 202.724 327.702 202.669 327.406 202.559C327.118 202.457 326.869 202.288 326.657 202.051C326.446 201.822 326.281 201.526 326.162 201.162C326.044 200.798 325.984 200.358 325.984 199.842V191.577C325.697 191.577 325.438 191.577 325.21 191.577C324.99 191.569 324.804 191.56 324.651 191.552C324.474 191.543 324.317 191.535 324.182 191.526C323.979 191.526 323.801 191.438 323.648 191.26C323.488 191.074 323.378 190.87 323.318 190.65C323.251 190.43 323.242 190.231 323.293 190.054C323.335 189.868 323.45 189.774 323.636 189.774ZM336.687 194.434C336.687 194.916 336.602 195.411 336.433 195.919C336.272 196.427 336.026 196.909 335.696 197.366C335.375 197.815 334.973 198.221 334.49 198.585C334.016 198.94 333.466 199.211 332.84 199.397C332.924 199.618 333.035 199.829 333.17 200.032C333.314 200.227 333.483 200.396 333.678 200.54C333.872 200.684 334.097 200.798 334.351 200.883C334.613 200.967 334.913 201.01 335.252 201.01C335.76 201.01 336.196 200.917 336.56 200.73C336.924 200.536 337.228 200.282 337.474 199.969C337.728 199.656 337.931 199.304 338.083 198.915C338.235 198.526 338.35 198.132 338.426 197.734C338.485 197.447 338.604 197.256 338.781 197.163C338.967 197.062 339.154 197.036 339.34 197.087C339.535 197.138 339.7 197.248 339.835 197.417C339.979 197.578 340.038 197.772 340.013 198.001C339.979 198.263 339.92 198.564 339.835 198.902C339.759 199.241 339.64 199.584 339.479 199.931C339.319 200.278 339.111 200.62 338.857 200.959C338.612 201.289 338.307 201.585 337.943 201.848C337.579 202.11 337.152 202.322 336.661 202.482C336.17 202.643 335.607 202.724 334.973 202.724C334.38 202.724 333.805 202.605 333.246 202.368C332.696 202.14 332.205 201.81 331.773 201.378C331.35 200.938 331.007 200.4 330.745 199.766C330.491 199.122 330.364 198.395 330.364 197.582C330.364 196.761 330.479 195.999 330.707 195.297C330.936 194.586 331.236 193.972 331.608 193.456C331.981 192.94 332.404 192.538 332.878 192.25C333.352 191.954 333.839 191.806 334.338 191.806C334.702 191.806 335.028 191.869 335.315 191.996C335.612 192.123 335.861 192.305 336.064 192.542C336.268 192.771 336.42 193.046 336.521 193.367C336.632 193.689 336.687 194.044 336.687 194.434ZM332.497 197.506C332.497 197.582 332.501 197.658 332.51 197.734C332.518 197.811 332.522 197.891 332.522 197.976C332.844 197.823 333.136 197.629 333.398 197.392C333.661 197.155 333.885 196.884 334.071 196.579C334.257 196.274 334.401 195.944 334.503 195.589C334.604 195.225 334.655 194.848 334.655 194.459C334.655 194.171 334.604 193.947 334.503 193.786C334.41 193.625 334.279 193.545 334.109 193.545C333.898 193.545 333.707 193.617 333.538 193.761C333.377 193.905 333.233 194.095 333.106 194.332C332.988 194.561 332.886 194.823 332.802 195.119C332.726 195.407 332.662 195.699 332.611 195.995C332.561 196.291 332.527 196.575 332.51 196.846C332.493 197.108 332.489 197.328 332.497 197.506Z" fill="black"/>
    <path d="M261.199 260.636H257.455C257.311 260.636 257.239 260.57 257.239 260.438V260.042C257.239 259.91 257.311 259.844 257.455 259.844H261.199C261.343 259.844 261.415 259.91 261.415 260.042V260.438C261.415 260.57 261.343 260.636 261.199 260.636ZM269.56 266H263.836C263.716 266 263.656 265.928 263.656 265.784V254.642C263.656 254.498 263.716 254.426 263.836 254.426H264.358C264.49 254.426 264.556 254.498 264.556 254.642V264.992C264.556 265.1 264.616 265.154 264.736 265.154H269.56C269.704 265.154 269.776 265.22 269.776 265.352V265.802C269.776 265.934 269.704 266 269.56 266ZM272.335 254.624V255.866C272.335 256.058 272.269 256.418 272.137 256.946L271.669 258.584C271.657 258.668 271.603 258.71 271.507 258.71C271.423 258.71 271.381 258.656 271.381 258.548V254.624C271.381 254.492 271.447 254.426 271.579 254.426H272.137C272.269 254.426 272.335 254.492 272.335 254.624ZM274.688 266H274.13C273.998 266 273.956 265.928 274.004 265.784L277.586 254.642C277.622 254.498 277.706 254.426 277.838 254.426H278.684C278.804 254.426 278.888 254.498 278.936 254.642L282.518 265.784C282.554 265.928 282.512 266 282.392 266H281.816C281.696 266 281.618 265.928 281.582 265.784L280.61 262.904H275.894L274.922 265.784C274.874 265.928 274.796 266 274.688 266ZM278.216 255.416L276.146 262.094H280.376L278.288 255.416H278.216ZM284.52 263.444V262.796C284.52 262.664 284.586 262.598 284.718 262.598H285.24C285.372 262.598 285.438 262.664 285.438 262.796V263.39C285.438 264.59 286.02 265.19 287.184 265.19H289.056C290.22 265.19 290.802 264.584 290.802 263.372V262.616C290.802 262.088 290.586 261.674 290.154 261.374C289.722 261.074 289.2 260.858 288.588 260.726C287.976 260.594 287.358 260.456 286.734 260.312C286.122 260.168 285.6 259.904 285.168 259.52C284.736 259.136 284.52 258.62 284.52 257.972V256.982C284.52 256.19 284.748 255.566 285.204 255.11C285.66 254.654 286.278 254.426 287.058 254.426H289.146C289.926 254.426 290.544 254.654 291 255.11C291.456 255.566 291.684 256.19 291.684 256.982V257.486C291.684 257.618 291.618 257.684 291.486 257.684H290.964C290.832 257.684 290.766 257.618 290.766 257.486V257.036C290.766 255.836 290.184 255.236 289.02 255.236H287.166C286.014 255.236 285.438 255.848 285.438 257.072V257.972C285.438 258.8 286.176 259.358 287.652 259.646C288.264 259.766 288.876 259.904 289.488 260.06C290.112 260.216 290.64 260.498 291.072 260.906C291.504 261.314 291.72 261.866 291.72 262.562V263.444C291.72 264.236 291.492 264.86 291.036 265.316C290.58 265.772 289.962 266 289.182 266H287.058C286.278 266 285.66 265.772 285.204 265.316C284.748 264.86 284.52 264.236 284.52 263.444ZM294.627 263.444V262.796C294.627 262.664 294.693 262.598 294.825 262.598H295.347C295.479 262.598 295.545 262.664 295.545 262.796V263.39C295.545 264.59 296.127 265.19 297.291 265.19H299.163C300.327 265.19 300.909 264.584 300.909 263.372V262.616C300.909 262.088 300.693 261.674 300.261 261.374C299.829 261.074 299.307 260.858 298.695 260.726C298.083 260.594 297.465 260.456 296.841 260.312C296.229 260.168 295.707 259.904 295.275 259.52C294.843 259.136 294.627 258.62 294.627 257.972V256.982C294.627 256.19 294.855 255.566 295.311 255.11C295.767 254.654 296.385 254.426 297.165 254.426H299.253C300.033 254.426 300.651 254.654 301.107 255.11C301.563 255.566 301.791 256.19 301.791 256.982V257.486C301.791 257.618 301.725 257.684 301.593 257.684H301.071C300.939 257.684 300.873 257.618 300.873 257.486V257.036C300.873 255.836 300.291 255.236 299.127 255.236H297.273C296.121 255.236 295.545 255.848 295.545 257.072V257.972C295.545 258.8 296.283 259.358 297.759 259.646C298.371 259.766 298.983 259.904 299.595 260.06C300.219 260.216 300.747 260.498 301.179 260.906C301.611 261.314 301.827 261.866 301.827 262.562V263.444C301.827 264.236 301.599 264.86 301.143 265.316C300.687 265.772 300.069 266 299.289 266H297.165C296.385 266 295.767 265.772 295.311 265.316C294.855 264.86 294.627 264.236 294.627 263.444ZM305.796 254.642V265.784C305.796 265.928 305.73 266 305.598 266H305.076C304.956 266 304.896 265.928 304.896 265.784V254.642C304.896 254.498 304.956 254.426 305.076 254.426H305.598C305.73 254.426 305.796 254.498 305.796 254.642ZM314.697 266H309.135C309.015 266 308.955 265.928 308.955 265.784V254.642C308.955 254.498 309.015 254.426 309.135 254.426H314.697C314.841 254.426 314.913 254.492 314.913 254.624V255.038C314.913 255.17 314.841 255.236 314.697 255.236H310.035C309.915 255.236 309.855 255.29 309.855 255.398V259.538C309.855 259.646 309.915 259.7 310.035 259.7H314.193C314.325 259.7 314.391 259.766 314.391 259.898V260.312C314.391 260.444 314.325 260.51 314.193 260.51H310.035C309.915 260.51 309.855 260.564 309.855 260.672V265.028C309.855 265.136 309.915 265.19 310.035 265.19H314.697C314.841 265.19 314.913 265.256 314.913 265.388V265.802C314.913 265.934 314.841 266 314.697 266ZM320.141 266H319.619C319.487 266 319.421 265.928 319.421 265.784V255.398C319.421 255.29 319.361 255.236 319.241 255.236H316.631C316.487 255.236 316.415 255.17 316.415 255.038V254.624C316.415 254.492 316.487 254.426 316.631 254.426H323.111C323.255 254.426 323.327 254.492 323.327 254.624V255.038C323.327 255.17 323.255 255.236 323.111 255.236H320.501C320.381 255.236 320.321 255.29 320.321 255.398V265.784C320.321 265.928 320.261 266 320.141 266ZM327.699 266H327.177C327.045 266 326.979 265.928 326.979 265.784V255.398C326.979 255.29 326.919 255.236 326.799 255.236H324.189C324.045 255.236 323.973 255.17 323.973 255.038V254.624C323.973 254.492 324.045 254.426 324.189 254.426H330.669C330.813 254.426 330.885 254.492 330.885 254.624V255.038C330.885 255.17 330.813 255.236 330.669 255.236H328.059C327.939 255.236 327.879 255.29 327.879 255.398V265.784C327.879 265.928 327.819 266 327.699 266ZM338.48 266H332.918C332.798 266 332.738 265.928 332.738 265.784V254.642C332.738 254.498 332.798 254.426 332.918 254.426H338.48C338.624 254.426 338.696 254.492 338.696 254.624V255.038C338.696 255.17 338.624 255.236 338.48 255.236H333.818C333.698 255.236 333.638 255.29 333.638 255.398V259.538C333.638 259.646 333.698 259.7 333.818 259.7H337.976C338.108 259.7 338.174 259.766 338.174 259.898V260.312C338.174 260.444 338.108 260.51 337.976 260.51H333.818C333.698 260.51 333.638 260.564 333.638 260.672V265.028C333.638 265.136 333.698 265.19 333.818 265.19H338.48C338.624 265.19 338.696 265.256 338.696 265.388V265.802C338.696 265.934 338.624 266 338.48 266ZM344.554 260.636H340.81C340.666 260.636 340.594 260.57 340.594 260.438V260.042C340.594 259.91 340.666 259.844 340.81 259.844H344.554C344.698 259.844 344.77 259.91 344.77 260.042V260.438C344.77 260.57 344.698 260.636 344.554 260.636Z" fill="#4E4444"/>
</svg>