<svg width="600" height="350" viewBox="0 0 600 350" fill="none" xmlns="http://www.w3.org/2000/svg">
    <rect width="600" height="350" fill="white"/>
    <path d="M60.4496 43.968V42.6C60.4496 42.184 60.5696 41.656 60.8096 41.016L61.6016 38.76C61.6496 38.632 61.7376 38.568 61.8656 38.568C62.0416 38.568 62.1296 38.664 62.1296 38.856V43.968C62.1296 44.176 62.0256 44.28 61.8176 44.28H60.7616C60.5536 44.28 60.4496 44.176 60.4496 43.968ZM56.7536 43.968V42.6C56.7536 42.264 56.8736 41.736 57.1136 41.016L57.9056 38.76C57.9856 38.632 58.0816 38.568 58.1936 38.568C58.3536 38.568 58.4336 38.664 58.4336 38.856V43.968C58.4336 44.176 58.3296 44.28 58.1216 44.28H57.0896C56.8656 44.28 56.7536 44.176 56.7536 43.968ZM73.5532 38.568H74.6332C74.8572 38.568 74.9692 38.672 74.9692 38.88V50.448C74.9692 51.568 74.6572 52.44 74.0332 53.064C73.4092 53.688 72.5452 54 71.4412 54H68.7772C67.6732 54 66.8012 53.688 66.1612 53.064C65.5372 52.44 65.2252 51.568 65.2252 50.448V38.904C65.2252 38.68 65.3372 38.568 65.5612 38.568H66.6412C66.8652 38.568 66.9772 38.68 66.9772 38.904V50.376C66.9772 51.768 67.6412 52.464 68.9692 52.464H71.2252C72.5692 52.464 73.2412 51.768 73.2412 50.376V38.904C73.2412 38.68 73.3452 38.568 73.5532 38.568ZM80.0263 54H78.9703C78.7463 54 78.6343 53.888 78.6343 53.664V38.904C78.6343 38.68 78.7463 38.568 78.9703 38.568H79.9543C80.1463 38.568 80.2743 38.632 80.3383 38.76L86.9623 50.4H87.0583V38.904C87.0583 38.68 87.1703 38.568 87.3943 38.568H88.4503C88.6743 38.568 88.7863 38.68 88.7863 38.904V53.664C88.7863 53.888 88.6743 54 88.4503 54H87.5623C87.3863 54 87.2183 53.896 87.0583 53.688L80.4583 42.168H80.3623V53.664C80.3623 53.888 80.2503 54 80.0263 54ZM100.452 54H92.9156C92.6916 54 92.5796 53.888 92.5796 53.664V38.904C92.5796 38.68 92.6916 38.568 92.9156 38.568H100.452C100.676 38.568 100.788 38.68 100.788 38.904V39.768C100.788 39.992 100.676 40.104 100.452 40.104H94.5716C94.4116 40.104 94.3316 40.176 94.3316 40.32V45.168C94.3316 45.312 94.4116 45.384 94.5716 45.384H99.7076C99.9316 45.384 100.044 45.496 100.044 45.72V46.584C100.044 46.808 99.9316 46.92 99.7076 46.92H94.5716C94.4116 46.92 94.3316 46.992 94.3316 47.136V52.248C94.3316 52.392 94.4116 52.464 94.5716 52.464H100.452C100.676 52.464 100.788 52.576 100.788 52.8V53.664C100.788 53.888 100.676 54 100.452 54ZM115.245 54H113.541C113.333 54 113.197 53.888 113.133 53.664L108.885 38.928C108.837 38.688 108.941 38.568 109.197 38.568H110.373C110.581 38.568 110.709 38.68 110.757 38.904L114.333 52.032H114.429L118.005 38.904C118.053 38.68 118.181 38.568 118.389 38.568H119.589C119.829 38.568 119.925 38.688 119.877 38.928L115.629 53.664C115.565 53.888 115.437 54 115.245 54ZM123.761 54H122.681C122.457 54 122.345 53.888 122.345 53.664V38.904C122.345 38.68 122.457 38.568 122.681 38.568H128.201C129.305 38.568 130.177 38.888 130.817 39.528C131.457 40.152 131.777 41.016 131.777 42.12V44.304C131.777 45.2 131.561 45.944 131.129 46.536C130.697 47.112 130.097 47.496 129.329 47.688V47.784L132.113 53.616C132.257 53.872 132.177 54 131.873 54H130.793C130.521 54 130.321 53.888 130.193 53.664L127.505 47.856H124.337C124.177 47.856 124.097 47.928 124.097 48.072V53.664C124.097 53.888 123.985 54 123.761 54ZM124.337 46.392H127.961C129.337 46.392 130.025 45.704 130.025 44.328V42.192C130.025 40.8 129.337 40.104 127.961 40.104H124.337C124.177 40.104 124.097 40.176 124.097 40.32V46.176C124.097 46.32 124.177 46.392 124.337 46.392ZM135.428 54H134.228C134.02 54 133.948 53.888 134.012 53.664L138.5 38.904C138.564 38.68 138.716 38.568 138.956 38.568H140.684C140.924 38.568 141.076 38.68 141.14 38.904L145.628 53.664C145.692 53.888 145.62 54 145.412 54H144.188C144.012 54 143.9 53.888 143.852 53.664L142.724 50.16H136.916L135.788 53.664C135.724 53.888 135.604 54 135.428 54ZM139.772 40.368L137.3 48.672H142.34L139.868 40.368H139.772ZM150.069 38.904V53.664C150.069 53.888 149.957 54 149.733 54H148.653C148.429 54 148.317 53.888 148.317 53.664V38.904C148.317 38.68 148.429 38.568 148.653 38.568H149.733C149.957 38.568 150.069 38.68 150.069 38.904ZM162.072 52.512H166.008C167.384 52.512 168.072 51.832 168.072 50.472V48.912C168.072 47.552 167.336 46.872 165.864 46.872H162.072C161.912 46.872 161.832 46.944 161.832 47.088V52.272C161.832 52.432 161.912 52.512 162.072 52.512ZM162.072 45.408H165.768C167.176 45.408 167.88 44.728 167.88 43.368V42.096C167.88 40.736 167.2 40.056 165.84 40.056H162.072C161.912 40.056 161.832 40.136 161.832 40.296V45.192C161.832 45.336 161.912 45.408 162.072 45.408ZM160.08 53.664V38.904C160.08 38.68 160.192 38.568 160.416 38.568H166.056C167.16 38.568 168.024 38.88 168.648 39.504C169.272 40.112 169.584 40.968 169.584 42.072V43.392C169.584 44.816 168.912 45.736 167.568 46.152C168.176 46.2 168.696 46.472 169.128 46.968C169.56 47.448 169.776 48.088 169.776 48.888V50.496C169.776 51.6 169.456 52.464 168.816 53.088C168.192 53.696 167.328 54 166.224 54H160.416C160.192 54 160.08 53.888 160.08 53.664ZM181.123 54H173.587C173.363 54 173.251 53.888 173.251 53.664V38.904C173.251 38.68 173.363 38.568 173.587 38.568H181.123C181.347 38.568 181.459 38.68 181.459 38.904V39.768C181.459 39.992 181.347 40.104 181.123 40.104H175.243C175.083 40.104 175.003 40.176 175.003 40.32V45.168C175.003 45.312 175.083 45.384 175.243 45.384H180.379C180.603 45.384 180.715 45.496 180.715 45.72V46.584C180.715 46.808 180.603 46.92 180.379 46.92H175.243C175.083 46.92 175.003 46.992 175.003 47.136V52.248C175.003 52.392 175.083 52.464 175.243 52.464H181.123C181.347 52.464 181.459 52.576 181.459 52.8V53.664C181.459 53.888 181.347 54 181.123 54ZM192.823 54H185.119C184.895 54 184.783 53.888 184.783 53.664V38.904C184.783 38.68 184.895 38.568 185.119 38.568H186.199C186.423 38.568 186.535 38.68 186.535 38.904V52.2C186.535 52.344 186.615 52.416 186.775 52.416H192.823C193.047 52.416 193.159 52.536 193.159 52.776V53.664C193.159 53.888 193.047 54 192.823 54ZM203.651 54H195.947C195.723 54 195.611 53.888 195.611 53.664V38.904C195.611 38.68 195.723 38.568 195.947 38.568H197.027C197.251 38.568 197.363 38.68 197.363 38.904V52.2C197.363 52.344 197.443 52.416 197.603 52.416H203.651C203.875 52.416 203.987 52.536 203.987 52.776V53.664C203.987 53.888 203.875 54 203.651 54ZM214.311 54H206.775C206.551 54 206.439 53.888 206.439 53.664V38.904C206.439 38.68 206.551 38.568 206.775 38.568H214.311C214.535 38.568 214.647 38.68 214.647 38.904V39.768C214.647 39.992 214.535 40.104 214.311 40.104H208.431C208.271 40.104 208.191 40.176 208.191 40.32V45.168C208.191 45.312 208.271 45.384 208.431 45.384H213.567C213.791 45.384 213.903 45.496 213.903 45.72V46.584C213.903 46.808 213.791 46.92 213.567 46.92H208.431C208.271 46.92 208.191 46.992 208.191 47.136V52.248C208.191 52.392 208.271 52.464 208.431 52.464H214.311C214.535 52.464 214.647 52.576 214.647 52.8V53.664C214.647 53.888 214.535 54 214.311 54ZM230.256 54H227.376C226.272 54 225.4 53.688 224.76 53.064C224.136 52.44 223.824 51.568 223.824 50.448V42.12C223.824 41 224.136 40.128 224.76 39.504C225.4 38.88 226.272 38.568 227.376 38.568H230.256C231.36 38.568 232.224 38.88 232.848 39.504C233.488 40.128 233.808 41 233.808 42.12V43.296C233.808 43.52 233.696 43.632 233.472 43.632H232.392C232.168 43.632 232.056 43.52 232.056 43.296V42.192C232.056 40.8 231.384 40.104 230.04 40.104H227.568C226.24 40.104 225.576 40.8 225.576 42.192V50.376C225.576 51.768 226.24 52.464 227.568 52.464H230.04C231.384 52.464 232.056 51.768 232.056 50.376V49.272C232.056 49.048 232.168 48.936 232.392 48.936H233.472C233.696 48.936 233.808 49.048 233.808 49.272V50.448C233.808 51.568 233.488 52.44 232.848 53.064C232.224 53.688 231.36 54 230.256 54ZM245.256 38.568H246.336C246.56 38.568 246.672 38.672 246.672 38.88V50.448C246.672 51.568 246.36 52.44 245.736 53.064C245.112 53.688 244.248 54 243.144 54H240.48C239.376 54 238.504 53.688 237.864 53.064C237.24 52.44 236.928 51.568 236.928 50.448V38.904C236.928 38.68 237.04 38.568 237.264 38.568H238.344C238.568 38.568 238.68 38.68 238.68 38.904V50.376C238.68 51.768 239.344 52.464 240.672 52.464H242.928C244.272 52.464 244.944 51.768 244.944 50.376V38.904C244.944 38.68 245.048 38.568 245.256 38.568ZM252.209 38.904V53.664C252.209 53.888 252.097 54 251.873 54H250.793C250.569 54 250.457 53.888 250.457 53.664V38.904C250.457 38.68 250.569 38.568 250.793 38.568H251.873C252.097 38.568 252.209 38.68 252.209 38.904ZM255.958 50.448V49.68C255.958 49.456 256.07 49.344 256.294 49.344H257.374C257.598 49.344 257.71 49.456 257.71 49.68V50.304C257.71 51.744 258.422 52.464 259.846 52.464H261.958C263.382 52.464 264.094 51.728 264.094 50.256V49.44C264.094 48.288 263.142 47.536 261.238 47.184C260.438 47.04 259.638 46.872 258.838 46.68C258.038 46.488 257.358 46.12 256.798 45.576C256.238 45.016 255.958 44.256 255.958 43.296V42.12C255.958 41.016 256.27 40.152 256.894 39.528C257.534 38.888 258.406 38.568 259.51 38.568H262.174C263.262 38.568 264.126 38.888 264.766 39.528C265.406 40.152 265.726 41.016 265.726 42.12V42.72C265.726 42.96 265.622 43.08 265.414 43.08H264.31C264.102 43.08 263.998 42.96 263.998 42.72V42.288C263.998 40.832 263.286 40.104 261.862 40.104H259.822C258.398 40.104 257.686 40.864 257.686 42.384V43.344C257.686 44.16 258.222 44.72 259.294 45.024C259.774 45.152 260.302 45.272 260.878 45.384C261.454 45.48 262.03 45.616 262.606 45.792C263.198 45.952 263.734 46.16 264.214 46.416C264.694 46.656 265.078 47.032 265.366 47.544C265.67 48.04 265.822 48.648 265.822 49.368V50.448C265.822 51.552 265.502 52.424 264.862 53.064C264.222 53.688 263.358 54 262.27 54H259.51C258.422 54 257.558 53.688 256.918 53.064C256.278 52.424 255.958 51.552 255.958 50.448ZM271.311 38.904V53.664C271.311 53.888 271.199 54 270.975 54H269.895C269.671 54 269.559 53.888 269.559 53.664V38.904C269.559 38.68 269.671 38.568 269.895 38.568H270.975C271.199 38.568 271.311 38.68 271.311 38.904ZM276.62 54H275.564C275.34 54 275.228 53.888 275.228 53.664V38.904C275.228 38.68 275.34 38.568 275.564 38.568H276.548C276.74 38.568 276.868 38.632 276.932 38.76L283.556 50.4H283.652V38.904C283.652 38.68 283.764 38.568 283.988 38.568H285.044C285.268 38.568 285.38 38.68 285.38 38.904V53.664C285.38 53.888 285.268 54 285.044 54H284.156C283.98 54 283.812 53.896 283.652 53.688L277.052 42.168H276.956V53.664C276.956 53.888 276.844 54 276.62 54ZM297.045 54H289.509C289.285 54 289.173 53.888 289.173 53.664V38.904C289.173 38.68 289.285 38.568 289.509 38.568H297.045C297.269 38.568 297.381 38.68 297.381 38.904V39.768C297.381 39.992 297.269 40.104 297.045 40.104H291.165C291.005 40.104 290.925 40.176 290.925 40.32V45.168C290.925 45.312 291.005 45.384 291.165 45.384H296.301C296.525 45.384 296.637 45.496 296.637 45.72V46.584C296.637 46.808 296.525 46.92 296.301 46.92H291.165C291.005 46.92 290.925 46.992 290.925 47.136V52.248C290.925 52.392 291.005 52.464 291.165 52.464H297.045C297.269 52.464 297.381 52.576 297.381 52.8V53.664C297.381 53.888 297.269 54 297.045 54ZM308.79 52.464H312.822C314.166 52.464 314.838 51.768 314.838 50.376V42.192C314.838 40.8 314.166 40.104 312.822 40.104H308.79C308.63 40.104 308.55 40.176 308.55 40.32V52.248C308.55 52.392 308.63 52.464 308.79 52.464ZM306.798 53.664V38.904C306.798 38.68 306.91 38.568 307.134 38.568H313.038C314.142 38.568 315.006 38.888 315.63 39.528C316.27 40.152 316.59 41.016 316.59 42.12V50.448C316.59 51.552 316.27 52.424 315.63 53.064C315.006 53.688 314.142 54 313.038 54H307.134C306.91 54 306.798 53.888 306.798 53.664ZM328.006 54H320.47C320.246 54 320.134 53.888 320.134 53.664V38.904C320.134 38.68 320.246 38.568 320.47 38.568H328.006C328.23 38.568 328.342 38.68 328.342 38.904V39.768C328.342 39.992 328.23 40.104 328.006 40.104H322.126C321.966 40.104 321.886 40.176 321.886 40.32V45.168C321.886 45.312 321.966 45.384 322.126 45.384H327.262C327.486 45.384 327.598 45.496 327.598 45.72V46.584C327.598 46.808 327.486 46.92 327.262 46.92H322.126C321.966 46.92 321.886 46.992 321.886 47.136V52.248C321.886 52.392 321.966 52.464 322.126 52.464H328.006C328.23 52.464 328.342 52.576 328.342 52.8V53.664C328.342 53.888 328.23 54 328.006 54ZM345.799 54H338.095C337.871 54 337.759 53.888 337.759 53.664V38.904C337.759 38.68 337.871 38.568 338.095 38.568H339.175C339.399 38.568 339.511 38.68 339.511 38.904V52.2C339.511 52.344 339.591 52.416 339.751 52.416H345.799C346.023 52.416 346.135 52.536 346.135 52.776V53.664C346.135 53.888 346.023 54 345.799 54ZM348.779 54H347.579C347.371 54 347.299 53.888 347.363 53.664L351.851 38.904C351.915 38.68 352.067 38.568 352.307 38.568H354.035C354.275 38.568 354.427 38.68 354.491 38.904L358.979 53.664C359.043 53.888 358.971 54 358.763 54H357.539C357.363 54 357.251 53.888 357.203 53.664L356.075 50.16H350.267L349.139 53.664C349.075 53.888 348.955 54 348.779 54ZM353.123 40.368L350.651 48.672H355.691L353.219 40.368H353.123ZM369.058 54H367.978C367.754 54 367.642 53.888 367.642 53.664V38.904C367.642 38.68 367.754 38.568 367.978 38.568H373.498C374.602 38.568 375.474 38.888 376.114 39.528C376.754 40.152 377.074 41.016 377.074 42.12V44.304C377.074 45.2 376.858 45.944 376.426 46.536C375.994 47.112 375.394 47.496 374.626 47.688V47.784L377.41 53.616C377.554 53.872 377.474 54 377.17 54H376.09C375.818 54 375.618 53.888 375.49 53.664L372.802 47.856H369.634C369.474 47.856 369.394 47.928 369.394 48.072V53.664C369.394 53.888 369.282 54 369.058 54ZM369.634 46.392H373.258C374.634 46.392 375.322 45.704 375.322 44.328V42.192C375.322 40.8 374.634 40.104 373.258 40.104H369.634C369.474 40.104 369.394 40.176 369.394 40.32V46.176C369.394 46.32 369.474 46.392 369.634 46.392ZM388.405 54H380.869C380.645 54 380.533 53.888 380.533 53.664V38.904C380.533 38.68 380.645 38.568 380.869 38.568H388.405C388.629 38.568 388.741 38.68 388.741 38.904V39.768C388.741 39.992 388.629 40.104 388.405 40.104H382.525C382.365 40.104 382.285 40.176 382.285 40.32V45.168C382.285 45.312 382.365 45.384 382.525 45.384H387.661C387.885 45.384 387.997 45.496 387.997 45.72V46.584C387.997 46.808 387.885 46.92 387.661 46.92H382.525C382.365 46.92 382.285 46.992 382.285 47.136V52.248C382.285 52.392 382.365 52.464 382.525 52.464H388.405C388.629 52.464 388.741 52.576 388.741 52.8V53.664C388.741 53.888 388.629 54 388.405 54ZM397.968 54H395.376C394.272 54 393.4 53.688 392.76 53.064C392.136 52.44 391.824 51.568 391.824 50.448V42.12C391.824 41 392.136 40.128 392.76 39.504C393.4 38.88 394.272 38.568 395.376 38.568H397.968C399.072 38.568 399.936 38.888 400.56 39.528C401.184 40.152 401.496 41.016 401.496 42.12V43.104C401.496 43.344 401.384 43.464 401.16 43.464H400.08C399.856 43.464 399.744 43.344 399.744 43.104V42.192C399.744 40.8 399.08 40.104 397.752 40.104H395.568C394.24 40.104 393.576 40.8 393.576 42.192V50.376C393.576 51.768 394.24 52.464 395.568 52.464H397.752C399.08 52.464 399.744 51.768 399.744 50.376V47.688C399.744 47.528 399.672 47.448 399.528 47.448H397.152C396.928 47.448 396.816 47.344 396.816 47.136V46.248C396.816 46.024 396.928 45.912 397.152 45.912H401.016C401.336 45.912 401.496 46.08 401.496 46.416V50.448C401.496 51.568 401.184 52.44 400.56 53.064C399.936 53.688 399.072 54 397.968 54ZM406.92 38.904V53.664C406.92 53.888 406.808 54 406.584 54H405.504C405.28 54 405.168 53.888 405.168 53.664V38.904C405.168 38.68 405.28 38.568 405.504 38.568H406.584C406.808 38.568 406.92 38.68 406.92 38.904ZM414.341 52.464H416.789C418.133 52.464 418.805 51.768 418.805 50.376V42.192C418.805 40.8 418.133 40.104 416.789 40.104H414.341C413.013 40.104 412.349 40.8 412.349 42.192V50.376C412.349 51.768 413.013 52.464 414.341 52.464ZM417.005 54H414.149C413.045 54 412.173 53.688 411.533 53.064C410.909 52.44 410.597 51.568 410.597 50.448V42.12C410.597 41 410.909 40.128 411.533 39.504C412.173 38.88 413.045 38.568 414.149 38.568H417.005C418.109 38.568 418.973 38.888 419.597 39.528C420.237 40.152 420.557 41.016 420.557 42.12V50.448C420.557 51.552 420.237 52.424 419.597 53.064C418.973 53.688 418.109 54 417.005 54ZM425.495 54H424.439C424.215 54 424.103 53.888 424.103 53.664V38.904C424.103 38.68 424.215 38.568 424.439 38.568H425.423C425.615 38.568 425.743 38.632 425.807 38.76L432.431 50.4H432.527V38.904C432.527 38.68 432.639 38.568 432.863 38.568H433.919C434.143 38.568 434.255 38.68 434.255 38.904V53.664C434.255 53.888 434.143 54 433.919 54H433.031C432.855 54 432.687 53.896 432.527 53.688L425.927 42.168H425.831V53.664C425.831 53.888 425.719 54 425.495 54ZM452.014 54H444.478C444.254 54 444.142 53.888 444.142 53.664V38.904C444.142 38.68 444.254 38.568 444.478 38.568H452.014C452.238 38.568 452.35 38.68 452.35 38.904V39.768C452.35 39.992 452.238 40.104 452.014 40.104H446.134C445.974 40.104 445.894 40.176 445.894 40.32V45.168C445.894 45.312 445.974 45.384 446.134 45.384H451.27C451.494 45.384 451.606 45.496 451.606 45.72V46.584C451.606 46.808 451.494 46.92 451.27 46.92H446.134C445.974 46.92 445.894 46.992 445.894 47.136V52.248C445.894 52.392 445.974 52.464 446.134 52.464H452.014C452.238 52.464 452.35 52.576 452.35 52.8V53.664C452.35 53.888 452.238 54 452.014 54ZM459.441 54H458.361C458.137 54 458.025 53.888 458.025 53.664V40.32C458.025 40.176 457.945 40.104 457.785 40.104H454.521C454.281 40.104 454.161 39.992 454.161 39.768V38.904C454.161 38.68 454.281 38.568 454.521 38.568H463.281C463.521 38.568 463.641 38.68 463.641 38.904V39.768C463.641 39.992 463.521 40.104 463.281 40.104H460.017C459.857 40.104 459.777 40.176 459.777 40.32V53.664C459.777 53.888 459.665 54 459.441 54ZM480.217 38.568H481.297C481.521 38.568 481.633 38.672 481.633 38.88V50.448C481.633 51.568 481.321 52.44 480.697 53.064C480.073 53.688 479.209 54 478.105 54H475.441C474.337 54 473.465 53.688 472.825 53.064C472.201 52.44 471.889 51.568 471.889 50.448V38.904C471.889 38.68 472.001 38.568 472.225 38.568H473.305C473.529 38.568 473.641 38.68 473.641 38.904V50.376C473.641 51.768 474.305 52.464 475.633 52.464H477.889C479.233 52.464 479.905 51.768 479.905 50.376V38.904C479.905 38.68 480.009 38.568 480.217 38.568ZM486.69 54H485.634C485.41 54 485.298 53.888 485.298 53.664V38.904C485.298 38.68 485.41 38.568 485.634 38.568H486.618C486.81 38.568 486.938 38.632 487.002 38.76L493.626 50.4H493.722V38.904C493.722 38.68 493.834 38.568 494.058 38.568H495.114C495.338 38.568 495.45 38.68 495.45 38.904V53.664C495.45 53.888 495.338 54 495.114 54H494.226C494.05 54 493.882 53.896 493.722 53.688L487.122 42.168H487.026V53.664C487.026 53.888 486.914 54 486.69 54ZM511.529 54H508.649C507.545 54 506.673 53.688 506.033 53.064C505.409 52.44 505.097 51.568 505.097 50.448V42.12C505.097 41 505.409 40.128 506.033 39.504C506.673 38.88 507.545 38.568 508.649 38.568H511.529C512.633 38.568 513.497 38.88 514.121 39.504C514.761 40.128 515.081 41 515.081 42.12V43.296C515.081 43.52 514.969 43.632 514.745 43.632H513.665C513.441 43.632 513.329 43.52 513.329 43.296V42.192C513.329 40.8 512.657 40.104 511.313 40.104H508.841C507.513 40.104 506.849 40.8 506.849 42.192V50.376C506.849 51.768 507.513 52.464 508.841 52.464H511.313C512.657 52.464 513.329 51.768 513.329 50.376V49.272C513.329 49.048 513.441 48.936 513.665 48.936H514.745C514.969 48.936 515.081 49.048 515.081 49.272V50.448C515.081 51.568 514.761 52.44 514.121 53.064C513.497 53.688 512.633 54 511.529 54ZM519.738 54H518.658C518.434 54 518.322 53.888 518.322 53.664V38.904C518.322 38.68 518.434 38.568 518.658 38.568H519.738C519.962 38.568 520.074 38.68 520.074 38.904V45.216C520.074 45.36 520.154 45.432 520.314 45.432H526.266C526.426 45.432 526.506 45.36 526.506 45.216V38.904C526.506 38.68 526.618 38.568 526.842 38.568H527.922C528.146 38.568 528.258 38.68 528.258 38.904V53.664C528.258 53.888 528.146 54 527.922 54H526.842C526.618 54 526.506 53.888 526.506 53.664V47.184C526.506 47.04 526.426 46.968 526.266 46.968H520.314C520.154 46.968 520.074 47.04 520.074 47.184V53.664C520.074 53.888 519.962 54 519.738 54ZM539.928 54H532.392C532.168 54 532.056 53.888 532.056 53.664V38.904C532.056 38.68 532.168 38.568 532.392 38.568H539.928C540.152 38.568 540.264 38.68 540.264 38.904V39.768C540.264 39.992 540.152 40.104 539.928 40.104H534.048C533.888 40.104 533.808 40.176 533.808 40.32V45.168C533.808 45.312 533.888 45.384 534.048 45.384H539.184C539.408 45.384 539.52 45.496 539.52 45.72V46.584C539.52 46.808 539.408 46.92 539.184 46.92H534.048C533.888 46.92 533.808 46.992 533.808 47.136V52.248C533.808 52.392 533.888 52.464 534.048 52.464H539.928C540.152 52.464 540.264 52.576 540.264 52.8V53.664C540.264 53.888 540.152 54 539.928 54ZM545.003 54H543.923C543.699 54 543.587 53.888 543.587 53.664V38.904C543.587 38.68 543.699 38.568 543.923 38.568H551.387C551.611 38.568 551.723 38.68 551.723 38.904V39.768C551.723 39.992 551.611 40.104 551.387 40.104H545.579C545.419 40.104 545.339 40.176 545.339 40.32V45.552C545.339 45.696 545.419 45.768 545.579 45.768H550.715C550.939 45.768 551.051 45.88 551.051 46.104V46.968C551.051 47.192 550.939 47.304 550.715 47.304H545.579C545.419 47.304 545.339 47.384 545.339 47.544V53.664C545.339 53.888 545.227 54 545.003 54ZM258.943 90H257.743C257.535 90 257.463 89.888 257.527 89.664L262.015 74.904C262.079 74.68 262.231 74.568 262.471 74.568H264.199C264.439 74.568 264.591 74.68 264.655 74.904L269.143 89.664C269.207 89.888 269.135 90 268.927 90H267.703C267.527 90 267.415 89.888 267.367 89.664L266.239 86.16H260.431L259.303 89.664C259.239 89.888 259.119 90 258.943 90ZM263.287 76.368L260.815 84.672H265.855L263.383 76.368H263.287ZM279.92 74.568H281C281.224 74.568 281.336 74.672 281.336 74.88V86.448C281.336 87.568 281.024 88.44 280.4 89.064C279.776 89.688 278.912 90 277.808 90H275.144C274.04 90 273.168 89.688 272.528 89.064C271.904 88.44 271.592 87.568 271.592 86.448V74.904C271.592 74.68 271.704 74.568 271.928 74.568H273.008C273.232 74.568 273.344 74.68 273.344 74.904V86.376C273.344 87.768 274.008 88.464 275.336 88.464H277.592C278.936 88.464 279.608 87.768 279.608 86.376V74.904C279.608 74.68 279.712 74.568 279.92 74.568ZM294.863 90H293.783C293.559 90 293.447 89.888 293.447 89.664V76.32C293.447 76.176 293.367 76.104 293.207 76.104H289.943C289.703 76.104 289.583 75.992 289.583 75.768V74.904C289.583 74.68 289.703 74.568 289.943 74.568H298.703C298.943 74.568 299.063 74.68 299.063 74.904V75.768C299.063 75.992 298.943 76.104 298.703 76.104H295.439C295.279 76.104 295.199 76.176 295.199 76.32V89.664C295.199 89.888 295.087 90 294.863 90ZM304.841 88.464H307.289C308.633 88.464 309.305 87.768 309.305 86.376V78.192C309.305 76.8 308.633 76.104 307.289 76.104H304.841C303.513 76.104 302.849 76.8 302.849 78.192V86.376C302.849 87.768 303.513 88.464 304.841 88.464ZM307.505 90H304.649C303.545 90 302.673 89.688 302.033 89.064C301.409 88.44 301.097 87.568 301.097 86.448V78.12C301.097 77 301.409 76.128 302.033 75.504C302.673 74.88 303.545 74.568 304.649 74.568H307.505C308.609 74.568 309.473 74.888 310.097 75.528C310.737 76.152 311.057 77.016 311.057 78.12V86.448C311.057 87.552 310.737 88.424 310.097 89.064C309.473 89.688 308.609 90 307.505 90ZM316.019 90H314.939C314.715 90 314.603 89.888 314.603 89.664V74.904C314.603 74.68 314.715 74.568 314.939 74.568H320.555C321.659 74.568 322.523 74.888 323.147 75.528C323.771 76.152 324.083 77.016 324.083 78.12V80.784C324.083 81.904 323.771 82.776 323.147 83.4C322.523 84.024 321.659 84.336 320.555 84.336H316.595C316.435 84.336 316.355 84.408 316.355 84.552V89.664C316.355 89.888 316.243 90 316.019 90ZM316.595 82.776H320.315C321.659 82.776 322.331 82.088 322.331 80.712V78.192C322.331 76.8 321.659 76.104 320.315 76.104H316.595C316.435 76.104 316.355 76.176 316.355 76.32V82.56C316.355 82.704 316.435 82.776 316.595 82.776ZM333.306 77.688V74.904C333.306 74.68 333.418 74.568 333.642 74.568H334.914C335.138 74.568 335.25 74.68 335.25 74.904V77.688C335.25 79.208 335.202 80.688 335.106 82.128C335.01 83.568 334.946 84.384 334.914 84.576C334.882 84.768 334.778 84.864 334.602 84.864H333.954C333.746 84.864 333.634 84.744 333.618 84.504C333.554 83.88 333.482 82.784 333.402 81.216C333.338 79.648 333.306 78.472 333.306 77.688ZM335.202 86.76V89.664C335.202 89.888 335.09 90 334.866 90H333.714C333.506 90 333.402 89.88 333.402 89.64V86.76C333.402 86.552 333.506 86.448 333.714 86.448H334.866C335.09 86.448 335.202 86.552 335.202 86.76ZM340.129 74.88V76.272C340.129 76.64 340.017 77.16 339.793 77.832L338.977 80.112C338.929 80.224 338.841 80.28 338.713 80.28C338.537 80.28 338.449 80.184 338.449 79.992V74.904C338.449 74.68 338.561 74.568 338.785 74.568H339.817C340.025 74.568 340.129 74.672 340.129 74.88ZM343.825 74.88V76.272C343.825 76.672 343.705 77.192 343.465 77.832L342.673 80.112C342.625 80.224 342.521 80.28 342.361 80.28C342.217 80.28 342.145 80.184 342.145 79.992V74.904C342.145 74.68 342.249 74.568 342.457 74.568H343.513C343.721 74.568 343.825 74.672 343.825 74.88Z" fill="#686666"/>
    <path d="M184.353 113.4H188.385C189.429 113.4 190.353 113.652 191.157 114.156C191.973 114.66 192.609 115.386 193.065 116.334C193.521 117.282 193.749 118.404 193.749 119.7C193.749 120.996 193.521 122.118 193.065 123.066C192.609 124.014 191.973 124.74 191.157 125.244C190.353 125.748 189.429 126 188.385 126H184.353V113.4ZM188.079 124.506C189.339 124.506 190.293 124.086 190.941 123.246C191.601 122.406 191.931 121.224 191.931 119.7C191.931 118.176 191.601 116.994 190.941 116.154C190.293 115.314 189.339 114.894 188.079 114.894H185.991V124.506H188.079ZM198.901 126.18C198.013 126.18 197.251 125.976 196.615 125.568C195.991 125.148 195.517 124.584 195.193 123.876C194.881 123.168 194.725 122.382 194.725 121.518C194.725 120.69 194.869 119.934 195.157 119.25C195.457 118.554 195.883 118.008 196.435 117.612C196.999 117.204 197.665 117 198.433 117C199.417 117 200.215 117.33 200.827 117.99C201.451 118.65 201.763 119.562 201.763 120.726C201.763 120.93 201.739 121.212 201.691 121.572H196.327C196.363 122.616 196.621 123.408 197.101 123.948C197.593 124.488 198.229 124.758 199.009 124.758C199.381 124.758 199.771 124.716 200.179 124.632C200.599 124.536 200.965 124.404 201.277 124.236L201.421 125.64C200.761 126 199.921 126.18 198.901 126.18ZM200.161 120.474C200.161 119.874 200.011 119.388 199.711 119.016C199.423 118.632 199.003 118.44 198.451 118.44C197.911 118.44 197.461 118.608 197.101 118.944C196.753 119.28 196.519 119.79 196.399 120.474H200.161ZM197.137 114.39L199.783 112.698V114.462L197.137 115.488V114.39ZM206.685 126.18C205.341 126.18 204.321 125.76 203.625 124.92C202.929 124.068 202.581 122.976 202.581 121.644C202.581 120.264 202.929 119.148 203.625 118.296C204.321 117.432 205.353 117 206.721 117C207.453 117 208.107 117.15 208.683 117.45L208.431 118.836C207.891 118.548 207.327 118.404 206.739 118.404C205.935 118.404 205.305 118.686 204.849 119.25C204.405 119.802 204.183 120.576 204.183 121.572C204.183 122.568 204.411 123.354 204.867 123.93C205.335 124.506 205.977 124.794 206.793 124.794C207.417 124.794 207.969 124.65 208.449 124.362L208.665 125.766C208.425 125.886 208.125 125.982 207.765 126.054C207.405 126.138 207.045 126.18 206.685 126.18ZM213.218 126.18C212.426 126.18 211.742 125.982 211.166 125.586C210.59 125.178 210.146 124.626 209.834 123.93C209.534 123.234 209.384 122.454 209.384 121.59C209.384 120.726 209.534 119.946 209.834 119.25C210.146 118.554 210.59 118.008 211.166 117.612C211.742 117.204 212.426 117 213.218 117C213.998 117 214.676 117.204 215.252 117.612C215.828 118.008 216.266 118.554 216.566 119.25C216.866 119.946 217.016 120.726 217.016 121.59C217.016 122.454 216.866 123.234 216.566 123.93C216.266 124.626 215.828 125.178 215.252 125.586C214.676 125.982 213.998 126.18 213.218 126.18ZM213.218 124.794C213.914 124.794 214.454 124.512 214.838 123.948C215.222 123.384 215.414 122.598 215.414 121.59C215.414 120.582 215.222 119.802 214.838 119.25C214.454 118.686 213.914 118.404 213.218 118.404C212.498 118.404 211.946 118.686 211.562 119.25C211.178 119.802 210.986 120.582 210.986 121.59C210.986 122.61 211.178 123.402 211.562 123.966C211.946 124.518 212.498 124.794 213.218 124.794ZM224.768 117.18V126H223.436L223.328 124.92C223.088 125.316 222.764 125.628 222.356 125.856C221.948 126.072 221.498 126.18 221.006 126.18C220.082 126.18 219.392 125.874 218.936 125.262C218.492 124.638 218.27 123.75 218.27 122.598V117.18H219.836V122.4C219.836 123.192 219.95 123.786 220.178 124.182C220.418 124.566 220.814 124.758 221.366 124.758C221.75 124.758 222.098 124.65 222.41 124.434C222.722 124.218 222.986 123.918 223.202 123.534V117.18H224.768ZM226.057 117.18H227.731L229.783 124.146L231.799 117.18H233.473L230.557 126H228.991L226.057 117.18ZM234.57 117.18H235.848L236.046 118.656C236.442 118.08 236.814 117.66 237.162 117.396C237.522 117.132 237.9 117 238.296 117C238.452 117 238.59 117.018 238.71 117.054L238.548 118.836C238.392 118.8 238.212 118.782 238.008 118.782C237.612 118.782 237.24 118.884 236.892 119.088C236.544 119.28 236.292 119.508 236.136 119.772V126H234.57V117.18ZM239.897 113.4H241.463V115.182H239.897V113.4ZM239.897 117.18H241.463V126H239.897V117.18ZM243.552 117.18H244.83L245.028 118.656C245.424 118.08 245.796 117.66 246.144 117.396C246.504 117.132 246.882 117 247.278 117C247.434 117 247.572 117.018 247.692 117.054L247.53 118.836C247.374 118.8 247.194 118.782 246.99 118.782C246.594 118.782 246.222 118.884 245.874 119.088C245.526 119.28 245.274 119.508 245.118 119.772V126H243.552V117.18ZM254.609 126.18C253.577 126.18 252.683 125.94 251.927 125.46L252.125 123.876C252.893 124.476 253.685 124.776 254.501 124.776C254.933 124.776 255.269 124.686 255.509 124.506C255.761 124.326 255.887 124.062 255.887 123.714C255.887 123.45 255.827 123.234 255.707 123.066C255.599 122.898 255.413 122.736 255.149 122.58C254.885 122.424 254.477 122.22 253.925 121.968C253.277 121.668 252.803 121.326 252.503 120.942C252.203 120.558 252.053 120.06 252.053 119.448C252.053 118.728 252.305 118.14 252.809 117.684C253.313 117.228 253.991 117 254.843 117C255.707 117 256.463 117.192 257.111 117.576L256.913 119.034C256.589 118.818 256.283 118.662 255.995 118.566C255.707 118.458 255.365 118.404 254.969 118.404C254.549 118.404 254.219 118.494 253.979 118.674C253.739 118.854 253.619 119.106 253.619 119.43C253.619 119.754 253.721 120 253.925 120.168C254.141 120.336 254.555 120.558 255.167 120.834C256.019 121.218 256.619 121.608 256.967 122.004C257.315 122.388 257.489 122.898 257.489 123.534C257.489 124.362 257.231 125.01 256.715 125.478C256.199 125.946 255.497 126.18 254.609 126.18ZM265.145 117.18V126H263.813L263.705 124.92C263.465 125.316 263.141 125.628 262.733 125.856C262.325 126.072 261.875 126.18 261.383 126.18C260.459 126.18 259.769 125.874 259.313 125.262C258.869 124.638 258.647 123.75 258.647 122.598V117.18H260.213V122.4C260.213 123.192 260.327 123.786 260.555 124.182C260.795 124.566 261.191 124.758 261.743 124.758C262.127 124.758 262.475 124.65 262.787 124.434C263.099 124.218 263.363 123.918 263.579 123.534V117.18H265.145ZM267.388 117.18H268.666L268.864 118.656C269.26 118.08 269.632 117.66 269.98 117.396C270.34 117.132 270.718 117 271.114 117C271.27 117 271.408 117.018 271.528 117.054L271.366 118.836C271.21 118.8 271.03 118.782 270.826 118.782C270.43 118.782 270.058 118.884 269.71 119.088C269.362 119.28 269.11 119.508 268.954 119.772V126H267.388V117.18Z" fill="#8F8F8F"/>
    <path d="M279.763 126V110.6H286.451C287.947 110.6 289.15 111.011 290.059 111.832C290.969 112.639 291.423 113.709 291.423 115.044C291.423 116.379 290.961 117.457 290.037 118.278C289.128 119.099 287.933 119.51 286.451 119.51H281.457V126H279.763ZM286.319 112.118H281.457V118.036H286.319C287.361 118.036 288.189 117.772 288.805 117.244C289.421 116.701 289.729 115.975 289.729 115.066C289.729 114.157 289.421 113.438 288.805 112.91C288.189 112.382 287.361 112.118 286.319 112.118ZM294.513 112.866C294.22 112.866 293.963 112.756 293.743 112.536C293.523 112.316 293.413 112.059 293.413 111.766C293.413 111.458 293.523 111.201 293.743 110.996C293.963 110.776 294.22 110.666 294.513 110.666C294.821 110.666 295.078 110.776 295.283 110.996C295.503 111.201 295.613 111.458 295.613 111.766C295.613 112.059 295.503 112.316 295.283 112.536C295.078 112.756 294.821 112.866 294.513 112.866ZM295.327 114.978V126H293.699V114.978H295.327ZM303.142 126.176C302.364 126.176 301.638 126.029 300.964 125.736C300.289 125.443 299.702 125.047 299.204 124.548C298.705 124.035 298.309 123.426 298.016 122.722C297.737 122.018 297.598 121.27 297.598 120.478C297.598 119.686 297.737 118.945 298.016 118.256C298.309 117.552 298.705 116.951 299.204 116.452C299.702 115.939 300.289 115.535 300.964 115.242C301.653 114.949 302.386 114.802 303.164 114.802C303.824 114.802 304.454 114.912 305.056 115.132C305.672 115.352 306.222 115.66 306.706 116.056V114.978H308.312V130.51H306.684V124.856C306.214 125.281 305.672 125.611 305.056 125.846C304.454 126.066 303.816 126.176 303.142 126.176ZM299.204 120.456C299.204 121.057 299.306 121.622 299.512 122.15C299.732 122.678 300.025 123.133 300.392 123.514C300.758 123.895 301.191 124.196 301.69 124.416C302.188 124.636 302.724 124.746 303.296 124.746C303.985 124.746 304.623 124.614 305.21 124.35C305.811 124.071 306.302 123.69 306.684 123.206V117.75C306.302 117.281 305.811 116.914 305.21 116.65C304.608 116.371 303.97 116.232 303.296 116.232C302.152 116.232 301.184 116.635 300.392 117.442C299.6 118.249 299.204 119.253 299.204 120.456ZM312.642 114.978V121.622C312.642 122.59 312.921 123.36 313.478 123.932C314.036 124.504 314.784 124.79 315.722 124.79C316.382 124.79 316.969 124.643 317.482 124.35C318.01 124.042 318.436 123.617 318.758 123.074V114.978H320.386V126H318.758V124.724C318.333 125.223 317.827 125.597 317.24 125.846C316.668 126.095 316.023 126.22 315.304 126.22C314.043 126.22 313.016 125.824 312.224 125.032C311.432 124.24 311.036 123.213 311.036 121.952V114.978H312.642ZM332.439 124.834C331.823 125.289 331.177 125.633 330.503 125.868C329.843 126.088 329.117 126.198 328.325 126.198C327.533 126.198 326.785 126.051 326.081 125.758C325.391 125.465 324.79 125.061 324.277 124.548C323.778 124.035 323.382 123.433 323.089 122.744C322.795 122.04 322.649 121.285 322.649 120.478C322.649 119.686 322.788 118.945 323.067 118.256C323.36 117.567 323.749 116.965 324.233 116.452C324.717 115.939 325.289 115.535 325.949 115.242C326.623 114.949 327.335 114.802 328.083 114.802C328.816 114.802 329.498 114.949 330.129 115.242C330.774 115.535 331.324 115.939 331.779 116.452C332.248 116.965 332.615 117.567 332.879 118.256C333.157 118.945 333.297 119.686 333.297 120.478V120.984H324.255C324.372 122.069 324.819 122.971 325.597 123.69C326.374 124.409 327.305 124.768 328.391 124.768C328.963 124.768 329.52 124.68 330.063 124.504C330.605 124.328 331.06 124.079 331.427 123.756L332.439 124.834ZM328.039 116.232C327.085 116.232 326.257 116.555 325.553 117.2C324.863 117.845 324.445 118.674 324.299 119.686H331.669C331.522 118.718 331.104 117.904 330.415 117.244C329.74 116.569 328.948 116.232 328.039 116.232ZM339.001 126L345.403 110.6H347.449L353.763 126H351.915L349.979 121.16H342.719L340.761 126H339.001ZM343.313 119.708H349.385L346.371 112.184L343.313 119.708ZM354.538 124.482L355.528 123.426C356.027 123.895 356.584 124.262 357.2 124.526C357.831 124.775 358.469 124.9 359.114 124.9C359.994 124.9 360.713 124.717 361.27 124.35C361.828 123.983 362.106 123.507 362.106 122.92C362.106 122.451 361.938 122.084 361.6 121.82C361.278 121.541 360.764 121.351 360.06 121.248L358.146 120.984C357.046 120.823 356.225 120.5 355.682 120.016C355.154 119.517 354.89 118.85 354.89 118.014C354.89 117.09 355.279 116.327 356.056 115.726C356.834 115.11 357.824 114.802 359.026 114.802C359.818 114.802 360.566 114.919 361.27 115.154C361.989 115.389 362.686 115.755 363.36 116.254L362.502 117.354C361.886 116.943 361.285 116.635 360.698 116.43C360.126 116.225 359.54 116.122 358.938 116.122C358.19 116.122 357.574 116.291 357.09 116.628C356.621 116.965 356.386 117.405 356.386 117.948C356.386 118.417 356.548 118.784 356.87 119.048C357.193 119.297 357.714 119.473 358.432 119.576L360.346 119.84C361.446 119.987 362.268 120.317 362.81 120.83C363.368 121.329 363.646 121.996 363.646 122.832C363.646 123.301 363.529 123.749 363.294 124.174C363.074 124.585 362.759 124.944 362.348 125.252C361.952 125.545 361.483 125.78 360.94 125.956C360.398 126.117 359.811 126.198 359.18 126.198C358.271 126.198 357.413 126.051 356.606 125.758C355.814 125.45 355.125 125.025 354.538 124.482ZM364.529 124.482L365.519 123.426C366.017 123.895 366.575 124.262 367.191 124.526C367.821 124.775 368.459 124.9 369.105 124.9C369.985 124.9 370.703 124.717 371.261 124.35C371.818 123.983 372.097 123.507 372.097 122.92C372.097 122.451 371.928 122.084 371.591 121.82C371.268 121.541 370.755 121.351 370.051 121.248L368.137 120.984C367.037 120.823 366.215 120.5 365.673 120.016C365.145 119.517 364.881 118.85 364.881 118.014C364.881 117.09 365.269 116.327 366.047 115.726C366.824 115.11 367.814 114.802 369.017 114.802C369.809 114.802 370.557 114.919 371.261 115.154C371.979 115.389 372.676 115.755 373.351 116.254L372.493 117.354C371.877 116.943 371.275 116.635 370.689 116.43C370.117 116.225 369.53 116.122 368.929 116.122C368.181 116.122 367.565 116.291 367.081 116.628C366.611 116.965 366.377 117.405 366.377 117.948C366.377 118.417 366.538 118.784 366.861 119.048C367.183 119.297 367.704 119.473 368.423 119.576L370.337 119.84C371.437 119.987 372.258 120.317 372.801 120.83C373.358 121.329 373.637 121.996 373.637 122.832C373.637 123.301 373.519 123.749 373.285 124.174C373.065 124.585 372.749 124.944 372.339 125.252C371.943 125.545 371.473 125.78 370.931 125.956C370.388 126.117 369.801 126.198 369.171 126.198C368.261 126.198 367.403 126.051 366.597 125.758C365.805 125.45 365.115 125.025 364.529 124.482ZM376.283 112.866C375.99 112.866 375.733 112.756 375.513 112.536C375.293 112.316 375.183 112.059 375.183 111.766C375.183 111.458 375.293 111.201 375.513 110.996C375.733 110.776 375.99 110.666 376.283 110.666C376.591 110.666 376.848 110.776 377.053 110.996C377.273 111.201 377.383 111.458 377.383 111.766C377.383 112.059 377.273 112.316 377.053 112.536C376.848 112.756 376.591 112.866 376.283 112.866ZM377.097 114.978V126H375.469V114.978H377.097ZM389.157 124.834C388.541 125.289 387.896 125.633 387.221 125.868C386.561 126.088 385.835 126.198 385.043 126.198C384.251 126.198 383.503 126.051 382.799 125.758C382.11 125.465 381.509 125.061 380.995 124.548C380.497 124.035 380.101 123.433 379.807 122.744C379.514 122.04 379.367 121.285 379.367 120.478C379.367 119.686 379.507 118.945 379.785 118.256C380.079 117.567 380.467 116.965 380.951 116.452C381.435 115.939 382.007 115.535 382.667 115.242C383.342 114.949 384.053 114.802 384.801 114.802C385.535 114.802 386.217 114.949 386.847 115.242C387.493 115.535 388.043 115.939 388.497 116.452C388.967 116.965 389.333 117.567 389.597 118.256C389.876 118.945 390.015 119.686 390.015 120.478V120.984H380.973C381.091 122.069 381.538 122.971 382.315 123.69C383.093 124.409 384.024 124.768 385.109 124.768C385.681 124.768 386.239 124.68 386.781 124.504C387.324 124.328 387.779 124.079 388.145 123.756L389.157 124.834ZM384.757 116.232C383.804 116.232 382.975 116.555 382.271 117.2C381.582 117.845 381.164 118.674 381.017 119.686H388.387C388.241 118.718 387.823 117.904 387.133 117.244C386.459 116.569 385.667 116.232 384.757 116.232ZM393.226 123.536V116.364H390.85V114.978H393.226V112.184L394.832 111.766V114.978H398.154V116.364H394.832V123.118C394.832 123.705 394.964 124.13 395.228 124.394C395.492 124.643 395.924 124.768 396.526 124.768C396.834 124.768 397.105 124.746 397.34 124.702C397.589 124.658 397.853 124.585 398.132 124.482V125.912C397.853 126.015 397.538 126.088 397.186 126.132C396.848 126.176 396.518 126.198 396.196 126.198C395.242 126.198 394.509 125.971 393.996 125.516C393.482 125.061 393.226 124.401 393.226 123.536ZM401.476 123.536V116.364H399.1V114.978H401.476V112.184L403.082 111.766V114.978H406.404V116.364H403.082V123.118C403.082 123.705 403.214 124.13 403.478 124.394C403.742 124.643 404.174 124.768 404.776 124.768C405.084 124.768 405.355 124.746 405.59 124.702C405.839 124.658 406.103 124.585 406.382 124.482V125.912C406.103 126.015 405.788 126.088 405.436 126.132C405.098 126.176 404.768 126.198 404.446 126.198C403.492 126.198 402.759 125.971 402.246 125.516C401.732 125.061 401.476 124.401 401.476 123.536ZM417.087 124.834C416.471 125.289 415.826 125.633 415.151 125.868C414.491 126.088 413.765 126.198 412.973 126.198C412.181 126.198 411.433 126.051 410.729 125.758C410.04 125.465 409.438 125.061 408.925 124.548C408.426 124.035 408.03 123.433 407.737 122.744C407.444 122.04 407.297 121.285 407.297 120.478C407.297 119.686 407.436 118.945 407.715 118.256C408.008 117.567 408.397 116.965 408.881 116.452C409.365 115.939 409.937 115.535 410.597 115.242C411.272 114.949 411.983 114.802 412.731 114.802C413.464 114.802 414.146 114.949 414.777 115.242C415.422 115.535 415.972 115.939 416.427 116.452C416.896 116.965 417.263 117.567 417.527 118.256C417.806 118.945 417.945 119.686 417.945 120.478V120.984H408.903C409.02 122.069 409.468 122.971 410.245 123.69C411.022 124.409 411.954 124.768 413.039 124.768C413.611 124.768 414.168 124.68 414.711 124.504C415.254 124.328 415.708 124.079 416.075 123.756L417.087 124.834ZM412.687 116.232C411.734 116.232 410.905 116.555 410.201 117.2C409.512 117.845 409.094 118.674 408.947 119.686H416.317C416.17 118.718 415.752 117.904 415.063 117.244C414.388 116.569 413.596 116.232 412.687 116.232Z" fill="#C54B25"/>
    <path d="M251.691 188.378C251.691 188.132 251.67 187.955 251.628 187.845C251.594 187.735 251.577 187.633 251.577 187.54C251.577 187.413 251.645 187.307 251.78 187.223C251.916 187.138 252.076 187.096 252.263 187.096C252.694 187.096 253.041 187.21 253.304 187.438C253.575 187.659 253.71 187.929 253.71 188.251V196.744C254.006 196.71 254.34 196.626 254.713 196.49C255.094 196.355 255.483 196.169 255.881 195.932C256.279 195.686 256.664 195.386 257.036 195.03C257.417 194.675 257.756 194.26 258.052 193.786C258.348 193.312 258.585 192.779 258.763 192.187C258.949 191.586 259.042 190.921 259.042 190.193C259.042 189.702 258.962 189.195 258.801 188.67C258.648 188.145 258.403 187.667 258.064 187.235C257.726 186.804 257.286 186.448 256.744 186.169C256.211 185.89 255.563 185.75 254.802 185.75C253.761 185.75 252.868 185.911 252.123 186.232C251.378 186.554 250.769 186.986 250.295 187.527C249.829 188.069 249.487 188.7 249.267 189.419C249.047 190.13 248.937 190.883 248.937 191.679C248.937 192.254 248.983 192.741 249.076 193.139C249.178 193.528 249.288 193.85 249.406 194.104C249.525 194.349 249.635 194.531 249.736 194.649C249.838 194.768 249.897 194.836 249.914 194.853C250.058 194.81 250.16 194.827 250.219 194.903C250.278 194.979 250.308 195.081 250.308 195.208C250.308 195.326 250.265 195.504 250.181 195.741C250.104 195.978 249.999 196.202 249.863 196.414C249.728 196.617 249.571 196.774 249.394 196.884C249.216 196.985 249.034 196.964 248.848 196.82C248.746 196.727 248.59 196.558 248.378 196.312C248.166 196.067 247.955 195.741 247.743 195.335C247.54 194.92 247.358 194.425 247.197 193.85C247.036 193.266 246.956 192.593 246.956 191.831C246.956 190.612 247.146 189.512 247.527 188.53C247.908 187.54 248.441 186.694 249.127 185.991C249.821 185.289 250.646 184.747 251.603 184.366C252.559 183.985 253.617 183.795 254.776 183.795C255.724 183.795 256.583 183.951 257.354 184.265C258.132 184.578 258.792 185.018 259.334 185.585C259.884 186.144 260.307 186.812 260.604 187.591C260.9 188.369 261.048 189.22 261.048 190.143C261.048 191.277 260.845 192.326 260.438 193.291C260.032 194.247 259.491 195.098 258.813 195.843C258.136 196.588 257.354 197.205 256.465 197.696C255.585 198.187 254.666 198.521 253.71 198.699V202.127C253.71 202.347 253.638 202.499 253.494 202.584C253.35 202.677 253.181 202.724 252.986 202.724C252.834 202.724 252.682 202.702 252.529 202.66C252.377 202.618 252.237 202.563 252.11 202.495C251.992 202.427 251.89 202.347 251.806 202.254C251.729 202.169 251.691 202.076 251.691 201.975V188.378ZM263.65 189.495C263.439 189.495 263.236 189.453 263.041 189.368C262.855 189.284 262.69 189.169 262.546 189.025C262.41 188.882 262.3 188.716 262.216 188.53C262.131 188.336 262.089 188.128 262.089 187.908C262.089 187.68 262.131 187.468 262.216 187.273C262.3 187.079 262.41 186.914 262.546 186.778C262.69 186.634 262.855 186.524 263.041 186.448C263.236 186.364 263.439 186.321 263.65 186.321C263.879 186.321 264.09 186.364 264.285 186.448C264.48 186.524 264.645 186.634 264.78 186.778C264.924 186.914 265.034 187.079 265.11 187.273C265.195 187.468 265.237 187.68 265.237 187.908C265.237 188.128 265.195 188.336 265.11 188.53C265.034 188.716 264.924 188.882 264.78 189.025C264.645 189.169 264.48 189.284 264.285 189.368C264.09 189.453 263.879 189.495 263.65 189.495ZM264.247 199.816C264.247 199.876 264.251 199.973 264.26 200.108C264.268 200.235 264.294 200.367 264.336 200.502C264.378 200.637 264.446 200.756 264.539 200.857C264.632 200.959 264.763 201.01 264.933 201.01C265.187 201.01 265.407 200.917 265.593 200.73C265.787 200.544 265.952 200.312 266.088 200.032C266.232 199.753 266.35 199.452 266.443 199.131C266.536 198.801 266.613 198.492 266.672 198.204C266.723 197.942 266.799 197.751 266.9 197.633C267.01 197.514 267.125 197.451 267.243 197.442C267.37 197.425 267.493 197.455 267.611 197.531C267.738 197.607 267.848 197.709 267.941 197.836C268.043 197.954 268.115 198.09 268.157 198.242C268.208 198.395 268.216 198.538 268.183 198.674C268.064 199.105 267.908 199.558 267.713 200.032C267.527 200.506 267.285 200.942 266.989 201.34C266.693 201.738 266.338 202.068 265.923 202.33C265.508 202.592 265.021 202.724 264.463 202.724C264.116 202.724 263.807 202.656 263.536 202.521C263.265 202.394 263.037 202.22 262.851 202C262.664 201.78 262.521 201.522 262.419 201.226C262.326 200.929 262.279 200.616 262.279 200.286V193.342C262.279 193.096 262.258 192.919 262.216 192.809C262.182 192.699 262.165 192.597 262.165 192.504C262.165 192.377 262.233 192.275 262.368 192.199C262.504 192.115 262.664 192.072 262.851 192.072C263.282 192.072 263.621 192.187 263.866 192.415C264.12 192.635 264.247 192.902 264.247 193.215V199.816ZM277.717 205.072C277.878 205.072 278.009 205.047 278.11 204.996C278.212 204.954 278.297 204.903 278.364 204.844C278.44 204.793 278.504 204.742 278.555 204.691C278.605 204.649 278.656 204.628 278.707 204.628C278.817 204.628 278.889 204.687 278.923 204.806C278.957 204.933 278.952 205.085 278.91 205.263C278.868 205.449 278.792 205.648 278.682 205.859C278.572 206.071 278.432 206.266 278.263 206.443C278.093 206.63 277.895 206.782 277.666 206.9C277.438 207.027 277.184 207.091 276.904 207.091C276.21 207.091 275.474 206.955 274.695 206.685C273.925 206.422 273.163 206.024 272.41 205.491C271.657 204.966 270.938 204.315 270.252 203.536C269.566 202.766 268.961 201.873 268.437 200.857C267.912 199.833 267.493 198.699 267.18 197.455C266.875 196.202 266.723 194.84 266.723 193.367C266.723 192.242 266.807 191.222 266.977 190.308C267.154 189.394 267.391 188.581 267.688 187.87C267.984 187.159 268.331 186.55 268.729 186.042C269.126 185.526 269.549 185.103 269.998 184.772C270.447 184.442 270.904 184.197 271.369 184.036C271.843 183.875 272.304 183.795 272.753 183.795C273.422 183.795 274.09 183.968 274.759 184.315C275.436 184.654 276.041 185.196 276.574 185.94C277.116 186.685 277.552 187.642 277.882 188.81C278.22 189.978 278.39 191.391 278.39 193.05C278.39 194.218 278.301 195.263 278.123 196.186C277.945 197.1 277.717 197.908 277.438 198.61C277.158 199.304 276.841 199.897 276.485 200.388C276.138 200.87 275.791 201.264 275.444 201.568C275.097 201.873 274.767 202.093 274.454 202.229C274.149 202.372 273.9 202.444 273.705 202.444C273.595 202.444 273.464 202.389 273.312 202.279C273.168 202.178 273.028 202.055 272.893 201.911C272.757 201.767 272.643 201.615 272.55 201.454C272.457 201.293 272.41 201.162 272.41 201.061C272.41 200.925 272.491 200.857 272.651 200.857H272.778C273.388 200.688 273.917 200.362 274.365 199.88C274.814 199.389 275.186 198.797 275.482 198.103C275.779 197.4 275.999 196.617 276.143 195.754C276.286 194.882 276.358 193.981 276.358 193.05C276.358 191.763 276.253 190.663 276.041 189.749C275.829 188.826 275.55 188.073 275.203 187.489C274.865 186.897 274.475 186.465 274.035 186.194C273.604 185.915 273.159 185.775 272.702 185.775C272.245 185.775 271.78 185.924 271.306 186.22C270.84 186.516 270.417 186.973 270.036 187.591C269.655 188.209 269.342 188.996 269.097 189.952C268.86 190.9 268.741 192.03 268.741 193.342C268.741 194.806 268.885 196.114 269.173 197.265C269.469 198.407 269.858 199.414 270.341 200.286C270.832 201.158 271.386 201.894 272.004 202.495C272.63 203.104 273.273 203.6 273.934 203.98C274.602 204.361 275.262 204.636 275.914 204.806C276.574 204.983 277.175 205.072 277.717 205.072ZM287.505 202.724C287.209 202.724 286.938 202.677 286.692 202.584C286.455 202.491 286.244 202.36 286.058 202.19C285.88 202.03 285.732 201.839 285.613 201.619C285.495 201.391 285.414 201.145 285.372 200.883C285.059 201.433 284.691 201.882 284.268 202.229C283.844 202.576 283.345 202.749 282.77 202.749C282.338 202.749 281.949 202.66 281.602 202.482C281.263 202.305 280.975 202.055 280.738 201.733C280.501 201.403 280.319 201.01 280.192 200.553C280.074 200.087 280.015 199.571 280.015 199.004C280.015 198.318 280.061 197.629 280.154 196.935C280.256 196.241 280.366 195.614 280.484 195.056C280.62 194.404 280.776 193.773 280.954 193.164C280.996 193.054 281.026 192.944 281.043 192.834C281.068 192.715 281.119 192.61 281.195 192.517C281.271 192.424 281.39 192.347 281.551 192.288C281.72 192.229 281.978 192.199 282.325 192.199C282.647 192.199 282.854 192.258 282.947 192.377C283.04 192.487 283.074 192.618 283.049 192.771C283.032 192.923 282.981 193.079 282.896 193.24C282.82 193.401 282.77 193.532 282.744 193.634C282.626 194.116 282.52 194.556 282.427 194.954C282.334 195.352 282.253 195.754 282.186 196.16C282.126 196.558 282.08 196.977 282.046 197.417C282.012 197.849 281.995 198.335 281.995 198.877C281.995 199.588 282.097 200.125 282.3 200.489C282.511 200.853 282.808 201.035 283.188 201.035C283.451 201.035 283.692 200.938 283.912 200.743C284.141 200.549 284.344 200.29 284.521 199.969C284.708 199.639 284.868 199.266 285.004 198.852C285.139 198.428 285.245 197.988 285.321 197.531V193.342C285.321 193.156 285.304 193.007 285.271 192.897C285.245 192.787 285.215 192.703 285.182 192.644C285.156 192.576 285.127 192.525 285.093 192.491C285.067 192.449 285.055 192.402 285.055 192.352C285.055 192.309 285.08 192.271 285.131 192.237C285.182 192.203 285.249 192.174 285.334 192.148C285.419 192.123 285.507 192.106 285.601 192.098C285.702 192.081 285.799 192.072 285.893 192.072C286.324 192.072 286.663 192.187 286.908 192.415C287.162 192.635 287.289 192.902 287.289 193.215V199.816C287.289 199.876 287.293 199.973 287.302 200.108C287.31 200.235 287.336 200.367 287.378 200.502C287.42 200.637 287.488 200.756 287.581 200.857C287.674 200.959 287.805 201.01 287.975 201.01C288.237 201.01 288.461 200.917 288.647 200.73C288.842 200.544 289.007 200.312 289.143 200.032C289.286 199.753 289.401 199.452 289.485 199.131C289.578 198.801 289.655 198.492 289.714 198.204C289.765 197.933 289.849 197.739 289.968 197.62C290.086 197.493 290.209 197.43 290.336 197.43C290.438 197.43 290.543 197.464 290.653 197.531C290.763 197.59 290.861 197.671 290.945 197.772C291.038 197.874 291.11 197.988 291.161 198.115C291.22 198.242 291.25 198.369 291.25 198.496C291.25 198.513 291.25 198.534 291.25 198.56C291.25 198.585 291.242 198.623 291.225 198.674C291.106 199.105 290.95 199.558 290.755 200.032C290.569 200.506 290.327 200.942 290.031 201.34C289.735 201.738 289.38 202.068 288.965 202.33C288.55 202.592 288.063 202.724 287.505 202.724ZM295.808 194.434C295.808 194.916 295.723 195.411 295.554 195.919C295.393 196.427 295.147 196.909 294.817 197.366C294.496 197.815 294.094 198.221 293.611 198.585C293.137 198.94 292.587 199.211 291.961 199.397C292.046 199.618 292.156 199.829 292.291 200.032C292.435 200.227 292.604 200.396 292.799 200.54C292.993 200.684 293.218 200.798 293.472 200.883C293.734 200.967 294.035 201.01 294.373 201.01C294.881 201.01 295.317 200.917 295.681 200.73C296.045 200.536 296.349 200.282 296.595 199.969C296.849 199.656 297.052 199.304 297.204 198.915C297.356 198.526 297.471 198.132 297.547 197.734C297.606 197.447 297.725 197.256 297.902 197.163C298.089 197.062 298.275 197.036 298.461 197.087C298.656 197.138 298.821 197.248 298.956 197.417C299.1 197.578 299.159 197.772 299.134 198.001C299.1 198.263 299.041 198.564 298.956 198.902C298.88 199.241 298.761 199.584 298.601 199.931C298.44 200.278 298.232 200.62 297.979 200.959C297.733 201.289 297.428 201.585 297.064 201.848C296.701 202.11 296.273 202.322 295.782 202.482C295.291 202.643 294.729 202.724 294.094 202.724C293.501 202.724 292.926 202.605 292.367 202.368C291.817 202.14 291.326 201.81 290.895 201.378C290.471 200.938 290.129 200.4 289.866 199.766C289.612 199.122 289.485 198.395 289.485 197.582C289.485 196.761 289.6 195.999 289.828 195.297C290.057 194.586 290.357 193.972 290.729 193.456C291.102 192.94 291.525 192.538 291.999 192.25C292.473 191.954 292.96 191.806 293.459 191.806C293.823 191.806 294.149 191.869 294.437 191.996C294.733 192.123 294.982 192.305 295.186 192.542C295.389 192.771 295.541 193.046 295.643 193.367C295.753 193.689 295.808 194.044 295.808 194.434ZM291.618 197.506C291.618 197.582 291.622 197.658 291.631 197.734C291.639 197.811 291.644 197.891 291.644 197.976C291.965 197.823 292.257 197.629 292.52 197.392C292.782 197.155 293.006 196.884 293.192 196.579C293.379 196.274 293.522 195.944 293.624 195.589C293.726 195.225 293.776 194.848 293.776 194.459C293.776 194.171 293.726 193.947 293.624 193.786C293.531 193.625 293.4 193.545 293.23 193.545C293.019 193.545 292.828 193.617 292.659 193.761C292.498 193.905 292.354 194.095 292.228 194.332C292.109 194.561 292.007 194.823 291.923 195.119C291.847 195.407 291.783 195.699 291.732 195.995C291.682 196.291 291.648 196.575 291.631 196.846C291.614 197.108 291.61 197.328 291.618 197.506ZM302.879 191.996C302.557 191.996 302.282 191.886 302.054 191.666C301.834 191.446 301.724 191.12 301.724 190.688C301.724 190.595 301.728 190.502 301.736 190.409C301.753 190.308 301.774 190.219 301.8 190.143C301.825 190.058 301.855 189.99 301.889 189.939C301.931 189.889 301.973 189.863 302.016 189.863C302.058 189.863 302.096 189.876 302.13 189.901C302.172 189.927 302.223 189.956 302.282 189.99C302.35 190.024 302.439 190.054 302.549 190.079C302.659 190.104 302.811 190.117 303.006 190.117C303.471 190.117 303.95 190.045 304.44 189.901C304.931 189.749 305.376 189.537 305.773 189.267C306.18 188.987 306.51 188.653 306.764 188.264C307.026 187.874 307.157 187.434 307.157 186.943C307.157 186.766 307.128 186.592 307.068 186.423C307.009 186.254 306.92 186.105 306.802 185.979C306.683 185.843 306.531 185.733 306.345 185.648C306.167 185.564 305.955 185.521 305.71 185.521C305.033 185.521 304.411 185.67 303.844 185.966C303.285 186.262 302.777 186.664 302.32 187.172C301.863 187.671 301.461 188.251 301.114 188.911C300.776 189.571 300.492 190.27 300.264 191.006C300.035 191.734 299.862 192.474 299.743 193.228C299.625 193.981 299.565 194.696 299.565 195.373C299.565 196.186 299.616 196.939 299.718 197.633C299.819 198.318 299.984 198.911 300.213 199.41C300.441 199.91 300.746 200.303 301.127 200.591C301.508 200.87 301.978 201.01 302.536 201.01C303.044 201.01 303.493 200.883 303.882 200.629C304.271 200.367 304.61 200.015 304.897 199.575C305.194 199.135 305.443 198.623 305.646 198.039C305.858 197.447 306.04 196.816 306.192 196.147C306.345 195.479 306.476 194.789 306.586 194.078C306.696 193.367 306.793 192.673 306.878 191.996C306.903 191.827 307.026 191.7 307.246 191.615C307.466 191.522 307.699 191.476 307.944 191.476C308.046 191.476 308.152 191.488 308.262 191.514C308.372 191.539 308.465 191.577 308.541 191.628C308.626 191.679 308.685 191.746 308.719 191.831C308.761 191.916 308.77 192.021 308.744 192.148C308.676 192.487 308.604 193.024 308.528 193.761C308.452 194.489 308.414 195.365 308.414 196.389C308.414 197.243 308.418 197.98 308.427 198.598C308.444 199.215 308.465 199.749 308.49 200.197C308.516 200.646 308.541 201.022 308.566 201.327C308.592 201.623 308.617 201.873 308.643 202.076C308.693 202.152 308.719 202.212 308.719 202.254C308.719 202.339 308.676 202.419 308.592 202.495C308.507 202.571 308.401 202.639 308.274 202.698C308.147 202.757 308.004 202.804 307.843 202.838C307.69 202.872 307.542 202.889 307.398 202.889C307.17 202.889 306.996 202.842 306.878 202.749C306.759 202.656 306.671 202.499 306.611 202.279C306.561 202.068 306.527 201.784 306.51 201.429C306.493 201.065 306.476 200.62 306.459 200.096C306.264 200.51 306.023 200.896 305.735 201.251C305.448 201.606 305.126 201.915 304.771 202.178C304.415 202.449 304.026 202.66 303.603 202.812C303.188 202.965 302.752 203.041 302.295 203.041C301.584 203.041 300.932 202.906 300.34 202.635C299.756 202.364 299.252 201.928 298.829 201.327C298.406 200.726 298.076 199.943 297.839 198.979C297.61 198.005 297.496 196.82 297.496 195.424C297.496 194.467 297.585 193.511 297.763 192.555C297.949 191.59 298.211 190.667 298.55 189.787C298.897 188.907 299.316 188.086 299.807 187.324C300.306 186.562 300.865 185.902 301.482 185.344C302.1 184.785 302.773 184.345 303.501 184.023C304.237 183.702 305.016 183.541 305.837 183.541C306.37 183.541 306.844 183.626 307.259 183.795C307.682 183.964 308.037 184.201 308.325 184.506C308.613 184.802 308.833 185.153 308.985 185.56C309.138 185.957 309.214 186.385 309.214 186.842C309.214 187.595 309.032 188.289 308.668 188.924C308.304 189.55 307.826 190.092 307.233 190.549C306.641 191.006 305.964 191.361 305.202 191.615C304.44 191.869 303.666 191.996 302.879 191.996ZM311.918 198.433C311.85 198.703 311.723 198.873 311.537 198.94C311.351 199 311.165 198.991 310.979 198.915C310.801 198.839 310.648 198.708 310.521 198.521C310.403 198.335 310.369 198.132 310.42 197.912C310.547 197.337 310.729 196.702 310.966 196.008C311.211 195.305 311.452 194.607 311.689 193.913C311.562 193.718 311.461 193.524 311.385 193.329C311.309 193.126 311.271 192.914 311.271 192.694C311.271 192.474 311.351 192.246 311.512 192.009C311.681 191.763 311.88 191.539 312.108 191.336C312.345 191.133 312.587 190.968 312.832 190.841C313.086 190.705 313.302 190.638 313.479 190.638C313.793 190.638 314.025 190.743 314.178 190.955C314.339 191.167 314.419 191.45 314.419 191.806C314.419 192 314.385 192.195 314.317 192.39C314.258 192.576 314.19 192.754 314.114 192.923C314.038 193.084 313.966 193.223 313.898 193.342C313.839 193.46 313.805 193.536 313.797 193.57C314.102 194.112 314.419 194.59 314.749 195.005C315.079 195.42 315.38 195.83 315.65 196.236C315.93 196.643 316.158 197.074 316.336 197.531C316.514 197.988 316.603 198.526 316.603 199.144C316.603 199.296 316.59 199.452 316.564 199.613C316.548 199.774 316.518 199.926 316.476 200.07C316.78 200.011 317.047 199.918 317.275 199.791C317.512 199.664 317.715 199.52 317.885 199.359C318.062 199.19 318.206 199.008 318.316 198.813C318.435 198.619 318.532 198.416 318.608 198.204C318.701 197.959 318.795 197.781 318.888 197.671C318.981 197.561 319.087 197.506 319.205 197.506C319.315 197.506 319.425 197.544 319.535 197.62C319.654 197.688 319.755 197.777 319.84 197.887C319.933 197.997 320.005 198.111 320.056 198.229C320.115 198.348 320.145 198.454 320.145 198.547C320.145 198.674 320.111 198.826 320.043 199.004C319.975 199.182 319.882 199.364 319.764 199.55C319.654 199.736 319.527 199.918 319.383 200.096C319.239 200.265 319.091 200.413 318.938 200.54C318.532 200.87 318.054 201.149 317.504 201.378C316.954 201.598 316.272 201.738 315.46 201.797C315.147 202.068 314.774 202.288 314.343 202.457C313.92 202.635 313.441 202.724 312.908 202.724C312.637 202.724 312.358 202.69 312.07 202.622C311.791 202.554 311.52 202.465 311.258 202.355C311.004 202.254 310.771 202.14 310.56 202.013C310.348 201.886 310.179 201.759 310.052 201.632C309.73 201.327 309.523 201.022 309.43 200.718C309.337 200.405 309.315 200.125 309.366 199.88C309.409 199.634 309.497 199.436 309.633 199.283C309.768 199.122 309.908 199.042 310.052 199.042C310.136 199.042 310.268 199.08 310.445 199.156C310.632 199.224 310.843 199.317 311.08 199.436C311.317 199.546 311.575 199.664 311.854 199.791C312.134 199.918 312.413 200.041 312.692 200.159C312.972 200.269 313.243 200.362 313.505 200.438C313.776 200.506 314.021 200.54 314.241 200.54C314.385 200.371 314.516 200.146 314.635 199.867C314.753 199.588 314.812 199.283 314.812 198.953C314.812 198.547 314.757 198.17 314.647 197.823C314.537 197.476 314.394 197.155 314.216 196.858C314.038 196.562 313.835 196.287 313.606 196.033C313.386 195.771 313.162 195.525 312.934 195.297C312.73 195.796 312.553 196.291 312.4 196.782C312.248 197.265 312.087 197.815 311.918 198.433ZM320.221 198.433C320.153 198.703 320.026 198.873 319.84 198.94C319.654 199 319.467 198.991 319.281 198.915C319.104 198.839 318.951 198.708 318.824 198.521C318.706 198.335 318.672 198.132 318.723 197.912C318.85 197.337 319.032 196.702 319.269 196.008C319.514 195.305 319.755 194.607 319.992 193.913C319.865 193.718 319.764 193.524 319.688 193.329C319.611 193.126 319.573 192.914 319.573 192.694C319.573 192.474 319.654 192.246 319.814 192.009C319.984 191.763 320.183 191.539 320.411 191.336C320.648 191.133 320.889 190.968 321.135 190.841C321.389 190.705 321.604 190.638 321.782 190.638C322.095 190.638 322.328 190.743 322.48 190.955C322.641 191.167 322.722 191.45 322.722 191.806C322.722 192 322.688 192.195 322.62 192.39C322.561 192.576 322.493 192.754 322.417 192.923C322.341 193.084 322.269 193.223 322.201 193.342C322.142 193.46 322.108 193.536 322.1 193.57C322.404 194.112 322.722 194.59 323.052 195.005C323.382 195.42 323.682 195.83 323.953 196.236C324.232 196.643 324.461 197.074 324.639 197.531C324.816 197.988 324.905 198.526 324.905 199.144C324.905 199.296 324.893 199.452 324.867 199.613C324.85 199.774 324.821 199.926 324.778 200.07C325.083 200.011 325.35 199.918 325.578 199.791C325.815 199.664 326.018 199.52 326.188 199.359C326.365 199.19 326.509 199.008 326.619 198.813C326.738 198.619 326.835 198.416 326.911 198.204C327.004 197.959 327.097 197.781 327.19 197.671C327.284 197.561 327.389 197.506 327.508 197.506C327.618 197.506 327.728 197.544 327.838 197.62C327.956 197.688 328.058 197.777 328.143 197.887C328.236 197.997 328.308 198.111 328.358 198.229C328.418 198.348 328.447 198.454 328.447 198.547C328.447 198.674 328.413 198.826 328.346 199.004C328.278 199.182 328.185 199.364 328.066 199.55C327.956 199.736 327.829 199.918 327.686 200.096C327.542 200.265 327.394 200.413 327.241 200.54C326.835 200.87 326.357 201.149 325.807 201.378C325.257 201.598 324.575 201.738 323.763 201.797C323.45 202.068 323.077 202.288 322.646 202.457C322.222 202.635 321.744 202.724 321.211 202.724C320.94 202.724 320.661 202.69 320.373 202.622C320.094 202.554 319.823 202.465 319.561 202.355C319.307 202.254 319.074 202.14 318.862 202.013C318.651 201.886 318.481 201.759 318.354 201.632C318.033 201.327 317.826 201.022 317.732 200.718C317.639 200.405 317.618 200.125 317.669 199.88C317.711 199.634 317.8 199.436 317.936 199.283C318.071 199.122 318.211 199.042 318.354 199.042C318.439 199.042 318.57 199.08 318.748 199.156C318.934 199.224 319.146 199.317 319.383 199.436C319.62 199.546 319.878 199.664 320.157 199.791C320.437 199.918 320.716 200.041 320.995 200.159C321.274 200.269 321.545 200.362 321.808 200.438C322.078 200.506 322.324 200.54 322.544 200.54C322.688 200.371 322.819 200.146 322.938 199.867C323.056 199.588 323.115 199.283 323.115 198.953C323.115 198.547 323.06 198.17 322.95 197.823C322.84 197.476 322.696 197.155 322.519 196.858C322.341 196.562 322.138 196.287 321.909 196.033C321.689 195.771 321.465 195.525 321.236 195.297C321.033 195.796 320.855 196.291 320.703 196.782C320.551 197.265 320.39 197.815 320.221 198.433ZM328.422 189.495C328.21 189.495 328.007 189.453 327.812 189.368C327.626 189.284 327.461 189.169 327.317 189.025C327.182 188.882 327.072 188.716 326.987 188.53C326.903 188.336 326.86 188.128 326.86 187.908C326.86 187.68 326.903 187.468 326.987 187.273C327.072 187.079 327.182 186.914 327.317 186.778C327.461 186.634 327.626 186.524 327.812 186.448C328.007 186.364 328.21 186.321 328.422 186.321C328.65 186.321 328.862 186.364 329.057 186.448C329.251 186.524 329.416 186.634 329.552 186.778C329.696 186.914 329.806 187.079 329.882 187.273C329.966 187.468 330.009 187.68 330.009 187.908C330.009 188.128 329.966 188.336 329.882 188.53C329.806 188.716 329.696 188.882 329.552 189.025C329.416 189.169 329.251 189.284 329.057 189.368C328.862 189.453 328.65 189.495 328.422 189.495ZM329.019 199.816C329.019 199.876 329.023 199.973 329.031 200.108C329.04 200.235 329.065 200.367 329.107 200.502C329.15 200.637 329.217 200.756 329.311 200.857C329.404 200.959 329.535 201.01 329.704 201.01C329.958 201.01 330.178 200.917 330.364 200.73C330.559 200.544 330.724 200.312 330.859 200.032C331.003 199.753 331.122 199.452 331.215 199.131C331.308 198.801 331.384 198.492 331.443 198.204C331.494 197.942 331.57 197.751 331.672 197.633C331.782 197.514 331.896 197.451 332.015 197.442C332.142 197.425 332.264 197.455 332.383 197.531C332.51 197.607 332.62 197.709 332.713 197.836C332.814 197.954 332.886 198.09 332.929 198.242C332.979 198.395 332.988 198.538 332.954 198.674C332.836 199.105 332.679 199.558 332.484 200.032C332.298 200.506 332.057 200.942 331.761 201.34C331.465 201.738 331.109 202.068 330.694 202.33C330.28 202.592 329.793 202.724 329.234 202.724C328.887 202.724 328.578 202.656 328.308 202.521C328.037 202.394 327.808 202.22 327.622 202C327.436 201.78 327.292 201.522 327.19 201.226C327.097 200.929 327.051 200.616 327.051 200.286V193.342C327.051 193.096 327.03 192.919 326.987 192.809C326.953 192.699 326.937 192.597 326.937 192.504C326.937 192.377 327.004 192.275 327.14 192.199C327.275 192.115 327.436 192.072 327.622 192.072C328.054 192.072 328.392 192.187 328.638 192.415C328.892 192.635 329.019 192.902 329.019 193.215V199.816ZM337.524 194.434C337.524 194.916 337.44 195.411 337.271 195.919C337.11 196.427 336.864 196.909 336.534 197.366C336.213 197.815 335.811 198.221 335.328 198.585C334.854 198.94 334.304 199.211 333.678 199.397C333.762 199.618 333.872 199.829 334.008 200.032C334.152 200.227 334.321 200.396 334.516 200.54C334.71 200.684 334.935 200.798 335.188 200.883C335.451 200.967 335.751 201.01 336.09 201.01C336.598 201.01 337.034 200.917 337.397 200.73C337.761 200.536 338.066 200.282 338.312 199.969C338.565 199.656 338.769 199.304 338.921 198.915C339.073 198.526 339.188 198.132 339.264 197.734C339.323 197.447 339.441 197.256 339.619 197.163C339.805 197.062 339.992 197.036 340.178 197.087C340.372 197.138 340.537 197.248 340.673 197.417C340.817 197.578 340.876 197.772 340.851 198.001C340.817 198.263 340.757 198.564 340.673 198.902C340.597 199.241 340.478 199.584 340.317 199.931C340.157 200.278 339.949 200.62 339.695 200.959C339.45 201.289 339.145 201.585 338.781 201.848C338.417 202.11 337.99 202.322 337.499 202.482C337.008 202.643 336.445 202.724 335.811 202.724C335.218 202.724 334.643 202.605 334.084 202.368C333.534 202.14 333.043 201.81 332.611 201.378C332.188 200.938 331.845 200.4 331.583 199.766C331.329 199.122 331.202 198.395 331.202 197.582C331.202 196.761 331.316 195.999 331.545 195.297C331.773 194.586 332.074 193.972 332.446 193.456C332.819 192.94 333.242 192.538 333.716 192.25C334.19 191.954 334.676 191.806 335.176 191.806C335.54 191.806 335.866 191.869 336.153 191.996C336.45 192.123 336.699 192.305 336.902 192.542C337.105 192.771 337.258 193.046 337.359 193.367C337.469 193.689 337.524 194.044 337.524 194.434ZM333.335 197.506C333.335 197.582 333.339 197.658 333.348 197.734C333.356 197.811 333.36 197.891 333.36 197.976C333.682 197.823 333.974 197.629 334.236 197.392C334.499 197.155 334.723 196.884 334.909 196.579C335.095 196.274 335.239 195.944 335.341 195.589C335.442 195.225 335.493 194.848 335.493 194.459C335.493 194.171 335.442 193.947 335.341 193.786C335.248 193.625 335.117 193.545 334.947 193.545C334.736 193.545 334.545 193.617 334.376 193.761C334.215 193.905 334.071 194.095 333.944 194.332C333.826 194.561 333.724 194.823 333.64 195.119C333.563 195.407 333.5 195.699 333.449 195.995C333.398 196.291 333.365 196.575 333.348 196.846C333.331 197.108 333.326 197.328 333.335 197.506ZM336.915 189.774C337.11 189.791 337.326 189.804 337.562 189.812C337.766 189.829 338.011 189.842 338.299 189.851C338.587 189.851 338.908 189.855 339.264 189.863V185.458C339.264 185.272 339.247 185.124 339.213 185.014C339.188 184.904 339.158 184.819 339.124 184.76C339.099 184.692 339.069 184.641 339.035 184.607C339.01 184.565 338.997 184.523 338.997 184.48C338.997 184.43 339.022 184.387 339.073 184.354C339.124 184.32 339.192 184.29 339.276 184.265C339.361 184.239 339.45 184.222 339.543 184.214C339.645 184.197 339.742 184.188 339.835 184.188C340.267 184.188 340.605 184.303 340.851 184.531C341.104 184.751 341.231 185.018 341.231 185.331V189.889C342.027 189.889 342.865 189.88 343.745 189.863C344.634 189.846 345.522 189.817 346.411 189.774C346.53 189.647 346.623 189.601 346.69 189.635C346.767 189.669 346.813 189.749 346.83 189.876C346.855 190.003 346.86 190.16 346.843 190.346C346.826 190.532 346.792 190.714 346.741 190.892C346.69 191.061 346.618 191.209 346.525 191.336C346.441 191.463 346.343 191.526 346.233 191.526C345.192 191.552 344.27 191.569 343.466 191.577C342.67 191.577 341.925 191.577 341.231 191.577V199.816C341.231 200.24 341.312 200.544 341.473 200.73C341.633 200.917 341.849 201.01 342.12 201.01C342.382 201.01 342.607 200.917 342.793 200.73C342.988 200.544 343.153 200.312 343.288 200.032C343.432 199.753 343.546 199.452 343.631 199.131C343.724 198.801 343.8 198.492 343.859 198.204C343.91 197.933 343.995 197.739 344.113 197.62C344.232 197.493 344.354 197.43 344.481 197.43C344.583 197.43 344.689 197.464 344.799 197.531C344.909 197.59 345.006 197.671 345.091 197.772C345.184 197.874 345.256 197.988 345.307 198.115C345.366 198.242 345.396 198.369 345.396 198.496C345.396 198.513 345.396 198.534 345.396 198.56C345.396 198.585 345.387 198.623 345.37 198.674C345.26 199.105 345.108 199.558 344.913 200.032C344.727 200.506 344.481 200.942 344.177 201.34C343.881 201.738 343.525 202.068 343.11 202.33C342.696 202.592 342.209 202.724 341.65 202.724C341.303 202.724 340.982 202.669 340.686 202.559C340.398 202.457 340.148 202.288 339.937 202.051C339.725 201.822 339.56 201.526 339.441 201.162C339.323 200.798 339.264 200.358 339.264 199.842V191.577C338.976 191.577 338.718 191.577 338.489 191.577C338.269 191.569 338.083 191.56 337.931 191.552C337.753 191.543 337.596 191.535 337.461 191.526C337.258 191.526 337.08 191.438 336.928 191.26C336.767 191.074 336.657 190.87 336.598 190.65C336.53 190.43 336.521 190.231 336.572 190.054C336.615 189.868 336.729 189.774 336.915 189.774ZM341.638 189.774C341.832 189.791 342.048 189.804 342.285 189.812C342.488 189.829 342.734 189.842 343.021 189.851C343.309 189.851 343.631 189.855 343.986 189.863V185.458C343.986 185.272 343.969 185.124 343.936 185.014C343.91 184.904 343.881 184.819 343.847 184.76C343.821 184.692 343.792 184.641 343.758 184.607C343.732 184.565 343.72 184.523 343.72 184.48C343.72 184.43 343.745 184.387 343.796 184.354C343.847 184.32 343.914 184.29 343.999 184.265C344.084 184.239 344.173 184.222 344.266 184.214C344.367 184.197 344.465 184.188 344.558 184.188C344.989 184.188 345.328 184.303 345.573 184.531C345.827 184.751 345.954 185.018 345.954 185.331V189.889C346.75 189.889 347.588 189.88 348.468 189.863C349.356 189.846 350.245 189.817 351.134 189.774C351.252 189.647 351.345 189.601 351.413 189.635C351.489 189.669 351.536 189.749 351.553 189.876C351.578 190.003 351.582 190.16 351.565 190.346C351.549 190.532 351.515 190.714 351.464 190.892C351.413 191.061 351.341 191.209 351.248 191.336C351.163 191.463 351.066 191.526 350.956 191.526C349.915 191.552 348.993 191.569 348.188 191.577C347.393 191.577 346.648 191.577 345.954 191.577V199.816C345.954 200.24 346.035 200.544 346.195 200.73C346.356 200.917 346.572 201.01 346.843 201.01C347.105 201.01 347.329 200.917 347.516 200.73C347.71 200.544 347.875 200.312 348.011 200.032C348.155 199.753 348.269 199.452 348.354 199.131C348.447 198.801 348.523 198.492 348.582 198.204C348.633 197.933 348.717 197.739 348.836 197.62C348.954 197.493 349.077 197.43 349.204 197.43C349.306 197.43 349.411 197.464 349.521 197.531C349.632 197.59 349.729 197.671 349.813 197.772C349.907 197.874 349.979 197.988 350.029 198.115C350.089 198.242 350.118 198.369 350.118 198.496C350.118 198.513 350.118 198.534 350.118 198.56C350.118 198.585 350.11 198.623 350.093 198.674C349.983 199.105 349.83 199.558 349.636 200.032C349.45 200.506 349.204 200.942 348.899 201.34C348.603 201.738 348.248 202.068 347.833 202.33C347.418 202.592 346.932 202.724 346.373 202.724C346.026 202.724 345.704 202.669 345.408 202.559C345.12 202.457 344.871 202.288 344.659 202.051C344.448 201.822 344.283 201.526 344.164 201.162C344.046 200.798 343.986 200.358 343.986 199.842V191.577C343.699 191.577 343.44 191.577 343.212 191.577C342.992 191.569 342.806 191.56 342.653 191.552C342.476 191.543 342.319 191.535 342.184 191.526C341.98 191.526 341.803 191.438 341.65 191.26C341.49 191.074 341.38 190.87 341.32 190.65C341.253 190.43 341.244 190.231 341.295 190.054C341.337 189.868 341.451 189.774 341.638 189.774ZM354.688 194.434C354.688 194.916 354.604 195.411 354.435 195.919C354.274 196.427 354.028 196.909 353.698 197.366C353.377 197.815 352.975 198.221 352.492 198.585C352.018 198.94 351.468 199.211 350.842 199.397C350.926 199.618 351.036 199.829 351.172 200.032C351.316 200.227 351.485 200.396 351.68 200.54C351.874 200.684 352.099 200.798 352.353 200.883C352.615 200.967 352.915 201.01 353.254 201.01C353.762 201.01 354.198 200.917 354.562 200.73C354.925 200.536 355.23 200.282 355.476 199.969C355.729 199.656 355.933 199.304 356.085 198.915C356.237 198.526 356.352 198.132 356.428 197.734C356.487 197.447 356.605 197.256 356.783 197.163C356.969 197.062 357.156 197.036 357.342 197.087C357.536 197.138 357.701 197.248 357.837 197.417C357.981 197.578 358.04 197.772 358.015 198.001C357.981 198.263 357.922 198.564 357.837 198.902C357.761 199.241 357.642 199.584 357.481 199.931C357.321 200.278 357.113 200.62 356.859 200.959C356.614 201.289 356.309 201.585 355.945 201.848C355.581 202.11 355.154 202.322 354.663 202.482C354.172 202.643 353.609 202.724 352.975 202.724C352.382 202.724 351.807 202.605 351.248 202.368C350.698 202.14 350.207 201.81 349.775 201.378C349.352 200.938 349.009 200.4 348.747 199.766C348.493 199.122 348.366 198.395 348.366 197.582C348.366 196.761 348.48 195.999 348.709 195.297C348.938 194.586 349.238 193.972 349.61 193.456C349.983 192.94 350.406 192.538 350.88 192.25C351.354 191.954 351.84 191.806 352.34 191.806C352.704 191.806 353.03 191.869 353.317 191.996C353.614 192.123 353.863 192.305 354.066 192.542C354.27 192.771 354.422 193.046 354.523 193.367C354.633 193.689 354.688 194.044 354.688 194.434ZM350.499 197.506C350.499 197.582 350.503 197.658 350.512 197.734C350.52 197.811 350.524 197.891 350.524 197.976C350.846 197.823 351.138 197.629 351.4 197.392C351.663 197.155 351.887 196.884 352.073 196.579C352.259 196.274 352.403 195.944 352.505 195.589C352.606 195.225 352.657 194.848 352.657 194.459C352.657 194.171 352.606 193.947 352.505 193.786C352.412 193.625 352.281 193.545 352.111 193.545C351.9 193.545 351.709 193.617 351.54 193.761C351.379 193.905 351.235 194.095 351.108 194.332C350.99 194.561 350.888 194.823 350.804 195.119C350.728 195.407 350.664 195.699 350.613 195.995C350.562 196.291 350.529 196.575 350.512 196.846C350.495 197.108 350.491 197.328 350.499 197.506Z" fill="black"/>
    <path d="M243.374 260.636H239.63C239.486 260.636 239.414 260.57 239.414 260.438V260.042C239.414 259.91 239.486 259.844 239.63 259.844H243.374C243.518 259.844 243.59 259.91 243.59 260.042V260.438C243.59 260.57 243.518 260.636 243.374 260.636ZM246.534 266H246.012C245.892 266 245.832 265.928 245.832 265.784V254.642C245.832 254.498 245.892 254.426 246.012 254.426H250.152C250.932 254.426 251.55 254.654 252.006 255.11C252.462 255.566 252.69 256.19 252.69 256.982V259.088C252.69 259.88 252.462 260.504 252.006 260.96C251.55 261.416 250.932 261.644 250.152 261.644H246.912C246.792 261.644 246.732 261.692 246.732 261.788V265.784C246.732 265.928 246.666 266 246.534 266ZM246.912 260.816H250.08C250.632 260.816 251.052 260.666 251.34 260.366C251.628 260.054 251.772 259.616 251.772 259.052V257.018C251.772 256.442 251.628 256.004 251.34 255.704C251.052 255.392 250.632 255.236 250.08 255.236H246.912C246.792 255.236 246.732 255.29 246.732 255.398V260.672C246.732 260.768 246.792 260.816 246.912 260.816ZM256.261 254.642V265.784C256.261 265.928 256.195 266 256.063 266H255.541C255.421 266 255.361 265.928 255.361 265.784V254.642C255.361 254.498 255.421 254.426 255.541 254.426H256.063C256.195 254.426 256.261 254.498 256.261 254.642ZM261.868 265.19H263.92C264.472 265.19 264.892 265.04 265.18 264.74C265.48 264.428 265.63 263.984 265.63 263.408V257.018C265.63 256.442 265.48 256.004 265.18 255.704C264.892 255.392 264.472 255.236 263.92 255.236H261.868C261.316 255.236 260.896 255.392 260.608 255.704C260.32 256.004 260.176 256.442 260.176 257.018V263.408C260.176 263.984 260.32 264.428 260.608 264.74C260.896 265.04 261.316 265.19 261.868 265.19ZM265.378 268.394H264.874C264.718 268.394 264.598 268.322 264.514 268.178L263.182 266H261.796C261.016 266 260.398 265.772 259.942 265.316C259.486 264.86 259.258 264.236 259.258 263.444V256.982C259.258 256.19 259.486 255.566 259.942 255.11C260.398 254.654 261.016 254.426 261.796 254.426H263.992C264.772 254.426 265.39 254.654 265.846 255.11C266.302 255.566 266.53 256.19 266.53 256.982V263.444C266.53 264.2 266.314 264.806 265.882 265.262C265.462 265.718 264.886 265.958 264.154 265.982L265.504 268.16C265.588 268.316 265.546 268.394 265.378 268.394ZM275.686 254.426H276.19C276.322 254.426 276.388 254.492 276.388 254.624V263.444C276.388 264.236 276.16 264.86 275.704 265.316C275.26 265.772 274.648 266 273.868 266H271.852C271.072 266 270.454 265.772 269.998 265.316C269.554 264.86 269.332 264.236 269.332 263.444V254.642C269.332 254.498 269.392 254.426 269.512 254.426H270.034C270.166 254.426 270.232 254.498 270.232 254.642V263.408C270.232 263.972 270.376 264.41 270.664 264.722C270.952 265.034 271.372 265.19 271.924 265.19H273.778C274.33 265.19 274.75 265.04 275.038 264.74C275.338 264.428 275.488 263.984 275.488 263.408V254.642C275.488 254.498 275.554 254.426 275.686 254.426ZM285.095 266H279.533C279.413 266 279.353 265.928 279.353 265.784V254.642C279.353 254.498 279.413 254.426 279.533 254.426H285.095C285.239 254.426 285.311 254.492 285.311 254.624V255.038C285.311 255.17 285.239 255.236 285.095 255.236H280.433C280.313 255.236 280.253 255.29 280.253 255.398V259.538C280.253 259.646 280.313 259.7 280.433 259.7H284.591C284.723 259.7 284.789 259.766 284.789 259.898V260.312C284.789 260.444 284.723 260.51 284.591 260.51H280.433C280.313 260.51 280.253 260.564 280.253 260.672V265.028C280.253 265.136 280.313 265.19 280.433 265.19H285.095C285.239 265.19 285.311 265.256 285.311 265.388V265.802C285.311 265.934 285.239 266 285.095 266ZM292.512 266H291.954C291.822 266 291.78 265.928 291.828 265.784L295.41 254.642C295.446 254.498 295.53 254.426 295.662 254.426H296.508C296.628 254.426 296.712 254.498 296.76 254.642L300.342 265.784C300.378 265.928 300.336 266 300.216 266H299.64C299.52 266 299.442 265.928 299.406 265.784L298.434 262.904H293.718L292.746 265.784C292.698 265.928 292.62 266 292.512 266ZM296.04 255.416L293.97 262.094H298.2L296.112 255.416H296.04ZM302.344 263.444V262.796C302.344 262.664 302.41 262.598 302.542 262.598H303.064C303.196 262.598 303.262 262.664 303.262 262.796V263.39C303.262 264.59 303.844 265.19 305.008 265.19H306.88C308.044 265.19 308.626 264.584 308.626 263.372V262.616C308.626 262.088 308.41 261.674 307.978 261.374C307.546 261.074 307.024 260.858 306.412 260.726C305.8 260.594 305.182 260.456 304.558 260.312C303.946 260.168 303.424 259.904 302.992 259.52C302.56 259.136 302.344 258.62 302.344 257.972V256.982C302.344 256.19 302.572 255.566 303.028 255.11C303.484 254.654 304.102 254.426 304.882 254.426H306.97C307.75 254.426 308.368 254.654 308.824 255.11C309.28 255.566 309.508 256.19 309.508 256.982V257.486C309.508 257.618 309.442 257.684 309.31 257.684H308.788C308.656 257.684 308.59 257.618 308.59 257.486V257.036C308.59 255.836 308.008 255.236 306.844 255.236H304.99C303.838 255.236 303.262 255.848 303.262 257.072V257.972C303.262 258.8 304 259.358 305.476 259.646C306.088 259.766 306.7 259.904 307.312 260.06C307.936 260.216 308.464 260.498 308.896 260.906C309.328 261.314 309.544 261.866 309.544 262.562V263.444C309.544 264.236 309.316 264.86 308.86 265.316C308.404 265.772 307.786 266 307.006 266H304.882C304.102 266 303.484 265.772 303.028 265.316C302.572 264.86 302.344 264.236 302.344 263.444ZM312.451 263.444V262.796C312.451 262.664 312.517 262.598 312.649 262.598H313.171C313.303 262.598 313.369 262.664 313.369 262.796V263.39C313.369 264.59 313.951 265.19 315.115 265.19H316.987C318.151 265.19 318.733 264.584 318.733 263.372V262.616C318.733 262.088 318.517 261.674 318.085 261.374C317.653 261.074 317.131 260.858 316.519 260.726C315.907 260.594 315.289 260.456 314.665 260.312C314.053 260.168 313.531 259.904 313.099 259.52C312.667 259.136 312.451 258.62 312.451 257.972V256.982C312.451 256.19 312.679 255.566 313.135 255.11C313.591 254.654 314.209 254.426 314.989 254.426H317.077C317.857 254.426 318.475 254.654 318.931 255.11C319.387 255.566 319.615 256.19 319.615 256.982V257.486C319.615 257.618 319.549 257.684 319.417 257.684H318.895C318.763 257.684 318.697 257.618 318.697 257.486V257.036C318.697 255.836 318.115 255.236 316.951 255.236H315.097C313.945 255.236 313.369 255.848 313.369 257.072V257.972C313.369 258.8 314.107 259.358 315.583 259.646C316.195 259.766 316.807 259.904 317.419 260.06C318.043 260.216 318.571 260.498 319.003 260.906C319.435 261.314 319.651 261.866 319.651 262.562V263.444C319.651 264.236 319.423 264.86 318.967 265.316C318.511 265.772 317.893 266 317.113 266H314.989C314.209 266 313.591 265.772 313.135 265.316C312.679 264.86 312.451 264.236 312.451 263.444ZM323.621 254.642V265.784C323.621 265.928 323.555 266 323.423 266H322.901C322.781 266 322.721 265.928 322.721 265.784V254.642C322.721 254.498 322.781 254.426 322.901 254.426H323.423C323.555 254.426 323.621 254.498 323.621 254.642ZM332.521 266H326.959C326.839 266 326.779 265.928 326.779 265.784V254.642C326.779 254.498 326.839 254.426 326.959 254.426H332.521C332.665 254.426 332.737 254.492 332.737 254.624V255.038C332.737 255.17 332.665 255.236 332.521 255.236H327.859C327.739 255.236 327.679 255.29 327.679 255.398V259.538C327.679 259.646 327.739 259.7 327.859 259.7H332.017C332.149 259.7 332.215 259.766 332.215 259.898V260.312C332.215 260.444 332.149 260.51 332.017 260.51H327.859C327.739 260.51 327.679 260.564 327.679 260.672V265.028C327.679 265.136 327.739 265.19 327.859 265.19H332.521C332.665 265.19 332.737 265.256 332.737 265.388V265.802C332.737 265.934 332.665 266 332.521 266ZM337.965 266H337.443C337.311 266 337.245 265.928 337.245 265.784V255.398C337.245 255.29 337.185 255.236 337.065 255.236H334.455C334.311 255.236 334.239 255.17 334.239 255.038V254.624C334.239 254.492 334.311 254.426 334.455 254.426H340.935C341.079 254.426 341.151 254.492 341.151 254.624V255.038C341.151 255.17 341.079 255.236 340.935 255.236H338.325C338.205 255.236 338.145 255.29 338.145 255.398V265.784C338.145 265.928 338.085 266 337.965 266ZM345.524 266H345.002C344.87 266 344.804 265.928 344.804 265.784V255.398C344.804 255.29 344.744 255.236 344.624 255.236H342.014C341.87 255.236 341.798 255.17 341.798 255.038V254.624C341.798 254.492 341.87 254.426 342.014 254.426H348.494C348.638 254.426 348.71 254.492 348.71 254.624V255.038C348.71 255.17 348.638 255.236 348.494 255.236H345.884C345.764 255.236 345.704 255.29 345.704 255.398V265.784C345.704 265.928 345.644 266 345.524 266ZM356.304 266H350.742C350.622 266 350.562 265.928 350.562 265.784V254.642C350.562 254.498 350.622 254.426 350.742 254.426H356.304C356.448 254.426 356.52 254.492 356.52 254.624V255.038C356.52 255.17 356.448 255.236 356.304 255.236H351.642C351.522 255.236 351.462 255.29 351.462 255.398V259.538C351.462 259.646 351.522 259.7 351.642 259.7H355.8C355.932 259.7 355.998 259.766 355.998 259.898V260.312C355.998 260.444 355.932 260.51 355.8 260.51H351.642C351.522 260.51 351.462 260.564 351.462 260.672V265.028C351.462 265.136 351.522 265.19 351.642 265.19H356.304C356.448 265.19 356.52 265.256 356.52 265.388V265.802C356.52 265.934 356.448 266 356.304 266ZM362.378 260.636H358.634C358.49 260.636 358.418 260.57 358.418 260.438V260.042C358.418 259.91 358.49 259.844 358.634 259.844H362.378C362.522 259.844 362.594 259.91 362.594 260.042V260.438C362.594 260.57 362.522 260.636 362.378 260.636Z" fill="#4E4444"/>
</svg>