<svg width="600" height="350" viewBox="0 0 600 350" fill="none" xmlns="http://www.w3.org/2000/svg">
    <rect width="600" height="350" fill="white"/>
    <path d="M62.1488 43.968V42.6C62.1488 42.184 62.2688 41.656 62.5088 41.016L63.3008 38.76C63.3488 38.632 63.4368 38.568 63.5648 38.568C63.7408 38.568 63.8288 38.664 63.8288 38.856V43.968C63.8288 44.176 63.7248 44.28 63.5168 44.28H62.4608C62.2528 44.28 62.1488 44.176 62.1488 43.968ZM58.4528 43.968V42.6C58.4528 42.264 58.5728 41.736 58.8128 41.016L59.6048 38.76C59.6848 38.632 59.7808 38.568 59.8928 38.568C60.0528 38.568 60.1328 38.664 60.1328 38.856V43.968C60.1328 44.176 60.0288 44.28 59.8208 44.28H58.7888C58.5648 44.28 58.4528 44.176 58.4528 43.968ZM75.2524 38.568H76.3324C76.5564 38.568 76.6684 38.672 76.6684 38.88V50.448C76.6684 51.568 76.3564 52.44 75.7324 53.064C75.1084 53.688 74.2444 54 73.1404 54H70.4764C69.3724 54 68.5004 53.688 67.8604 53.064C67.2364 52.44 66.9244 51.568 66.9244 50.448V38.904C66.9244 38.68 67.0364 38.568 67.2604 38.568H68.3404C68.5644 38.568 68.6764 38.68 68.6764 38.904V50.376C68.6764 51.768 69.3404 52.464 70.6684 52.464H72.9244C74.2684 52.464 74.9404 51.768 74.9404 50.376V38.904C74.9404 38.68 75.0444 38.568 75.2524 38.568ZM81.7255 54H80.6695C80.4455 54 80.3335 53.888 80.3335 53.664V38.904C80.3335 38.68 80.4455 38.568 80.6695 38.568H81.6535C81.8455 38.568 81.9735 38.632 82.0375 38.76L88.6615 50.4H88.7575V38.904C88.7575 38.68 88.8695 38.568 89.0935 38.568H90.1495C90.3735 38.568 90.4855 38.68 90.4855 38.904V53.664C90.4855 53.888 90.3735 54 90.1495 54H89.2615C89.0855 54 88.9175 53.896 88.7575 53.688L82.1575 42.168H82.0615V53.664C82.0615 53.888 81.9495 54 81.7255 54ZM102.151 54H94.6148C94.3908 54 94.2788 53.888 94.2788 53.664V38.904C94.2788 38.68 94.3908 38.568 94.6148 38.568H102.151C102.375 38.568 102.487 38.68 102.487 38.904V39.768C102.487 39.992 102.375 40.104 102.151 40.104H96.2708C96.1108 40.104 96.0308 40.176 96.0308 40.32V45.168C96.0308 45.312 96.1108 45.384 96.2708 45.384H101.407C101.631 45.384 101.743 45.496 101.743 45.72V46.584C101.743 46.808 101.631 46.92 101.407 46.92H96.2708C96.1108 46.92 96.0308 46.992 96.0308 47.136V52.248C96.0308 52.392 96.1108 52.464 96.2708 52.464H102.151C102.375 52.464 102.487 52.576 102.487 52.8V53.664C102.487 53.888 102.375 54 102.151 54ZM111.736 50.448V49.68C111.736 49.456 111.848 49.344 112.072 49.344H113.152C113.376 49.344 113.488 49.456 113.488 49.68V50.304C113.488 51.744 114.2 52.464 115.624 52.464H117.736C119.16 52.464 119.872 51.728 119.872 50.256V49.44C119.872 48.288 118.92 47.536 117.016 47.184C116.216 47.04 115.416 46.872 114.616 46.68C113.816 46.488 113.136 46.12 112.576 45.576C112.016 45.016 111.736 44.256 111.736 43.296V42.12C111.736 41.016 112.048 40.152 112.672 39.528C113.312 38.888 114.184 38.568 115.288 38.568H117.952C119.04 38.568 119.904 38.888 120.544 39.528C121.184 40.152 121.504 41.016 121.504 42.12V42.72C121.504 42.96 121.4 43.08 121.192 43.08H120.088C119.88 43.08 119.776 42.96 119.776 42.72V42.288C119.776 40.832 119.064 40.104 117.64 40.104H115.6C114.176 40.104 113.464 40.864 113.464 42.384V43.344C113.464 44.16 114 44.72 115.072 45.024C115.552 45.152 116.08 45.272 116.656 45.384C117.232 45.48 117.808 45.616 118.384 45.792C118.976 45.952 119.512 46.16 119.992 46.416C120.472 46.656 120.856 47.032 121.144 47.544C121.448 48.04 121.6 48.648 121.6 49.368V50.448C121.6 51.552 121.28 52.424 120.64 53.064C120 53.688 119.136 54 118.048 54H115.288C114.2 54 113.336 53.688 112.696 53.064C112.056 52.424 111.736 51.552 111.736 50.448ZM133.424 38.568H134.504C134.728 38.568 134.84 38.672 134.84 38.88V50.448C134.84 51.568 134.528 52.44 133.904 53.064C133.28 53.688 132.416 54 131.312 54H128.648C127.544 54 126.672 53.688 126.032 53.064C125.408 52.44 125.096 51.568 125.096 50.448V38.904C125.096 38.68 125.208 38.568 125.432 38.568H126.512C126.736 38.568 126.848 38.68 126.848 38.904V50.376C126.848 51.768 127.512 52.464 128.84 52.464H131.096C132.44 52.464 133.112 51.768 133.112 50.376V38.904C133.112 38.68 133.216 38.568 133.424 38.568ZM139.921 54H138.841C138.617 54 138.505 53.888 138.505 53.664V38.904C138.505 38.68 138.617 38.568 138.841 38.568H144.457C145.561 38.568 146.425 38.888 147.049 39.528C147.673 40.152 147.985 41.016 147.985 42.12V44.784C147.985 45.904 147.673 46.776 147.049 47.4C146.425 48.024 145.561 48.336 144.457 48.336H140.497C140.337 48.336 140.257 48.408 140.257 48.552V53.664C140.257 53.888 140.145 54 139.921 54ZM140.497 46.776H144.217C145.561 46.776 146.233 46.088 146.233 44.712V42.192C146.233 40.8 145.561 40.104 144.217 40.104H140.497C140.337 40.104 140.257 40.176 140.257 40.32V46.56C140.257 46.704 140.337 46.776 140.497 46.776ZM159.01 54H151.474C151.25 54 151.138 53.888 151.138 53.664V38.904C151.138 38.68 151.25 38.568 151.474 38.568H159.01C159.234 38.568 159.346 38.68 159.346 38.904V39.768C159.346 39.992 159.234 40.104 159.01 40.104H153.13C152.97 40.104 152.89 40.176 152.89 40.32V45.168C152.89 45.312 152.97 45.384 153.13 45.384H158.266C158.49 45.384 158.602 45.496 158.602 45.72V46.584C158.602 46.808 158.49 46.92 158.266 46.92H153.13C152.97 46.92 152.89 46.992 152.89 47.136V52.248C152.89 52.392 152.97 52.464 153.13 52.464H159.01C159.234 52.464 159.346 52.576 159.346 52.8V53.664C159.346 53.888 159.234 54 159.01 54ZM164.085 54H163.005C162.781 54 162.669 53.888 162.669 53.664V38.904C162.669 38.68 162.781 38.568 163.005 38.568H168.525C169.629 38.568 170.501 38.888 171.141 39.528C171.781 40.152 172.101 41.016 172.101 42.12V44.304C172.101 45.2 171.885 45.944 171.453 46.536C171.021 47.112 170.421 47.496 169.653 47.688V47.784L172.437 53.616C172.581 53.872 172.501 54 172.197 54H171.117C170.845 54 170.645 53.888 170.517 53.664L167.829 47.856H164.661C164.501 47.856 164.421 47.928 164.421 48.072V53.664C164.421 53.888 164.309 54 164.085 54ZM164.661 46.392H168.285C169.661 46.392 170.349 45.704 170.349 44.328V42.192C170.349 40.8 169.661 40.104 168.285 40.104H164.661C164.501 40.104 164.421 40.176 164.421 40.32V46.176C164.421 46.32 164.501 46.392 164.661 46.392ZM177.552 52.512H181.488C182.864 52.512 183.552 51.832 183.552 50.472V48.912C183.552 47.552 182.816 46.872 181.344 46.872H177.552C177.392 46.872 177.312 46.944 177.312 47.088V52.272C177.312 52.432 177.392 52.512 177.552 52.512ZM177.552 45.408H181.248C182.656 45.408 183.36 44.728 183.36 43.368V42.096C183.36 40.736 182.68 40.056 181.32 40.056H177.552C177.392 40.056 177.312 40.136 177.312 40.296V45.192C177.312 45.336 177.392 45.408 177.552 45.408ZM175.56 53.664V38.904C175.56 38.68 175.672 38.568 175.896 38.568H181.536C182.64 38.568 183.504 38.88 184.128 39.504C184.752 40.112 185.064 40.968 185.064 42.072V43.392C185.064 44.816 184.392 45.736 183.048 46.152C183.656 46.2 184.176 46.472 184.608 46.968C185.04 47.448 185.256 48.088 185.256 48.888V50.496C185.256 51.6 184.936 52.464 184.296 53.088C183.672 53.696 182.808 54 181.704 54H175.896C175.672 54 175.56 53.888 175.56 53.664ZM196.604 54H189.068C188.844 54 188.732 53.888 188.732 53.664V38.904C188.732 38.68 188.844 38.568 189.068 38.568H196.604C196.828 38.568 196.94 38.68 196.94 38.904V39.768C196.94 39.992 196.828 40.104 196.604 40.104H190.724C190.564 40.104 190.484 40.176 190.484 40.32V45.168C190.484 45.312 190.564 45.384 190.724 45.384H195.86C196.084 45.384 196.196 45.496 196.196 45.72V46.584C196.196 46.808 196.084 46.92 195.86 46.92H190.724C190.564 46.92 190.484 46.992 190.484 47.136V52.248C190.484 52.392 190.564 52.464 190.724 52.464H196.604C196.828 52.464 196.94 52.576 196.94 52.8V53.664C196.94 53.888 196.828 54 196.604 54ZM208.229 38.904V53.664C208.229 53.888 208.117 54 207.893 54H206.813C206.589 54 206.477 53.888 206.477 53.664V38.904C206.477 38.68 206.589 38.568 206.813 38.568H207.893C208.117 38.568 208.229 38.68 208.229 38.904ZM213.538 54H212.482C212.258 54 212.146 53.888 212.146 53.664V38.904C212.146 38.68 212.258 38.568 212.482 38.568H213.466C213.658 38.568 213.786 38.632 213.85 38.76L220.474 50.4H220.57V38.904C220.57 38.68 220.682 38.568 220.906 38.568H221.962C222.186 38.568 222.298 38.68 222.298 38.904V53.664C222.298 53.888 222.186 54 221.962 54H221.074C220.898 54 220.73 53.896 220.57 53.688L213.97 42.168H213.874V53.664C213.874 53.888 213.762 54 213.538 54ZM231.131 54H229.427C229.219 54 229.083 53.888 229.019 53.664L224.771 38.928C224.723 38.688 224.827 38.568 225.083 38.568H226.259C226.467 38.568 226.595 38.68 226.643 38.904L230.219 52.032H230.315L233.891 38.904C233.939 38.68 234.067 38.568 234.275 38.568H235.475C235.715 38.568 235.811 38.688 235.763 38.928L231.515 53.664C231.451 53.888 231.323 54 231.131 54ZM240.104 38.904V53.664C240.104 53.888 239.992 54 239.768 54H238.688C238.464 54 238.352 53.888 238.352 53.664V38.904C238.352 38.68 238.464 38.568 238.688 38.568H239.768C239.992 38.568 240.104 38.68 240.104 38.904ZM247.789 54H246.709C246.485 54 246.373 53.888 246.373 53.664V40.32C246.373 40.176 246.293 40.104 246.133 40.104H242.869C242.629 40.104 242.509 39.992 242.509 39.768V38.904C242.509 38.68 242.629 38.568 242.869 38.568H251.629C251.869 38.568 251.989 38.68 251.989 38.904V39.768C251.989 39.992 251.869 40.104 251.629 40.104H248.365C248.205 40.104 248.125 40.176 248.125 40.32V53.664C248.125 53.888 248.013 54 247.789 54ZM254.455 54H253.255C253.047 54 252.975 53.888 253.039 53.664L257.527 38.904C257.591 38.68 257.743 38.568 257.983 38.568H259.711C259.951 38.568 260.103 38.68 260.167 38.904L264.655 53.664C264.719 53.888 264.647 54 264.439 54H263.215C263.039 54 262.927 53.888 262.879 53.664L261.751 50.16H255.943L254.815 53.664C254.751 53.888 254.631 54 254.455 54ZM258.799 40.368L256.327 48.672H261.367L258.895 40.368H258.799ZM270.992 54H269.912C269.688 54 269.576 53.888 269.576 53.664V40.32C269.576 40.176 269.496 40.104 269.336 40.104H266.072C265.832 40.104 265.712 39.992 265.712 39.768V38.904C265.712 38.68 265.832 38.568 266.072 38.568H274.832C275.072 38.568 275.192 38.68 275.192 38.904V39.768C275.192 39.992 275.072 40.104 274.832 40.104H271.568C271.408 40.104 271.328 40.176 271.328 40.32V53.664C271.328 53.888 271.216 54 270.992 54ZM279.338 38.904V53.664C279.338 53.888 279.226 54 279.002 54H277.922C277.698 54 277.586 53.888 277.586 53.664V38.904C277.586 38.68 277.698 38.568 277.922 38.568H279.002C279.226 38.568 279.338 38.68 279.338 38.904ZM286.759 52.464H289.207C290.551 52.464 291.223 51.768 291.223 50.376V42.192C291.223 40.8 290.551 40.104 289.207 40.104H286.759C285.431 40.104 284.767 40.8 284.767 42.192V50.376C284.767 51.768 285.431 52.464 286.759 52.464ZM289.423 54H286.567C285.463 54 284.591 53.688 283.951 53.064C283.327 52.44 283.015 51.568 283.015 50.448V42.12C283.015 41 283.327 40.128 283.951 39.504C284.591 38.88 285.463 38.568 286.567 38.568H289.423C290.527 38.568 291.391 38.888 292.015 39.528C292.655 40.152 292.975 41.016 292.975 42.12V50.448C292.975 51.552 292.655 52.424 292.015 53.064C291.391 53.688 290.527 54 289.423 54ZM297.913 54H296.857C296.633 54 296.521 53.888 296.521 53.664V38.904C296.521 38.68 296.633 38.568 296.857 38.568H297.841C298.033 38.568 298.161 38.632 298.225 38.76L304.849 50.4H304.945V38.904C304.945 38.68 305.057 38.568 305.281 38.568H306.337C306.561 38.568 306.673 38.68 306.673 38.904V53.664C306.673 53.888 306.561 54 306.337 54H305.449C305.273 54 305.105 53.896 304.945 53.688L298.345 42.168H298.249V53.664C298.249 53.888 298.137 54 297.913 54ZM316.752 54H315.552C315.344 54 315.272 53.888 315.336 53.664L319.824 38.904C319.888 38.68 320.04 38.568 320.28 38.568H322.008C322.248 38.568 322.4 38.68 322.464 38.904L326.952 53.664C327.016 53.888 326.944 54 326.736 54H325.512C325.336 54 325.224 53.888 325.176 53.664L324.048 50.16H318.24L317.112 53.664C317.048 53.888 316.928 54 316.752 54ZM321.096 40.368L318.624 48.672H323.664L321.192 40.368H321.096ZM337.729 38.568H338.809C339.033 38.568 339.145 38.672 339.145 38.88V50.448C339.145 51.568 338.833 52.44 338.209 53.064C337.585 53.688 336.721 54 335.617 54H332.953C331.849 54 330.977 53.688 330.337 53.064C329.713 52.44 329.401 51.568 329.401 50.448V38.904C329.401 38.68 329.513 38.568 329.737 38.568H330.817C331.041 38.568 331.153 38.68 331.153 38.904V50.376C331.153 51.768 331.817 52.464 333.145 52.464H335.401C336.745 52.464 337.417 51.768 337.417 50.376V38.904C337.417 38.68 337.521 38.568 337.729 38.568ZM353.944 54H352.24C352.032 54 351.896 53.888 351.832 53.664L347.584 38.928C347.536 38.688 347.64 38.568 347.896 38.568H349.072C349.28 38.568 349.408 38.68 349.456 38.904L353.032 52.032H353.128L356.704 38.904C356.752 38.68 356.88 38.568 357.088 38.568H358.288C358.528 38.568 358.624 38.688 358.576 38.928L354.328 53.664C354.264 53.888 354.136 54 353.944 54ZM364.548 52.464H366.996C368.34 52.464 369.012 51.768 369.012 50.376V42.192C369.012 40.8 368.34 40.104 366.996 40.104H364.548C363.22 40.104 362.556 40.8 362.556 42.192V50.376C362.556 51.768 363.22 52.464 364.548 52.464ZM367.212 54H364.356C363.252 54 362.38 53.688 361.74 53.064C361.116 52.44 360.804 51.568 360.804 50.448V42.12C360.804 41 361.116 40.128 361.74 39.504C362.38 38.88 363.252 38.568 364.356 38.568H367.212C368.316 38.568 369.18 38.888 369.804 39.528C370.444 40.152 370.764 41.016 370.764 42.12V50.448C370.764 51.552 370.444 52.424 369.804 53.064C369.18 53.688 368.316 54 367.212 54ZM378.942 54H377.862C377.638 54 377.526 53.888 377.526 53.664V48.216L372.966 38.928C372.918 38.816 372.918 38.728 372.966 38.664C373.014 38.6 373.086 38.568 373.182 38.568H374.526C374.702 38.568 374.838 38.68 374.934 38.904L378.366 46.176H378.486L381.894 38.904C381.958 38.68 382.086 38.568 382.278 38.568H383.646C383.918 38.568 383.99 38.688 383.862 38.928L379.278 48.216V53.664C379.278 53.888 379.166 54 378.942 54ZM386.502 54H385.302C385.094 54 385.022 53.888 385.086 53.664L389.574 38.904C389.638 38.68 389.79 38.568 390.03 38.568H391.758C391.998 38.568 392.15 38.68 392.214 38.904L396.702 53.664C396.766 53.888 396.694 54 396.486 54H395.262C395.086 54 394.974 53.888 394.926 53.664L393.798 50.16H387.99L386.862 53.664C386.798 53.888 386.678 54 386.502 54ZM390.846 40.368L388.374 48.672H393.414L390.942 40.368H390.846ZM405.175 54H402.583C401.479 54 400.607 53.688 399.967 53.064C399.343 52.44 399.031 51.568 399.031 50.448V42.12C399.031 41 399.343 40.128 399.967 39.504C400.607 38.88 401.479 38.568 402.583 38.568H405.175C406.279 38.568 407.143 38.888 407.767 39.528C408.391 40.152 408.703 41.016 408.703 42.12V43.104C408.703 43.344 408.591 43.464 408.367 43.464H407.287C407.063 43.464 406.951 43.344 406.951 43.104V42.192C406.951 40.8 406.287 40.104 404.959 40.104H402.775C401.447 40.104 400.783 40.8 400.783 42.192V50.376C400.783 51.768 401.447 52.464 402.775 52.464H404.959C406.287 52.464 406.951 51.768 406.951 50.376V47.688C406.951 47.528 406.879 47.448 406.735 47.448H404.359C404.135 47.448 404.023 47.344 404.023 47.136V46.248C404.023 46.024 404.135 45.912 404.359 45.912H408.223C408.543 45.912 408.703 46.08 408.703 46.416V50.448C408.703 51.568 408.391 52.44 407.767 53.064C407.143 53.688 406.279 54 405.175 54ZM420.127 54H412.591C412.367 54 412.255 53.888 412.255 53.664V38.904C412.255 38.68 412.367 38.568 412.591 38.568H420.127C420.351 38.568 420.463 38.68 420.463 38.904V39.768C420.463 39.992 420.351 40.104 420.127 40.104H414.247C414.087 40.104 414.007 40.176 414.007 40.32V45.168C414.007 45.312 414.087 45.384 414.247 45.384H419.383C419.607 45.384 419.719 45.496 419.719 45.72V46.584C419.719 46.808 419.607 46.92 419.383 46.92H414.247C414.087 46.92 414.007 46.992 414.007 47.136V52.248C414.007 52.392 414.087 52.464 414.247 52.464H420.127C420.351 52.464 420.463 52.576 420.463 52.8V53.664C420.463 53.888 420.351 54 420.127 54ZM443.846 54H436.31C436.086 54 435.974 53.888 435.974 53.664V38.904C435.974 38.68 436.086 38.568 436.31 38.568H443.846C444.07 38.568 444.182 38.68 444.182 38.904V39.768C444.182 39.992 444.07 40.104 443.846 40.104H437.966C437.806 40.104 437.726 40.176 437.726 40.32V45.168C437.726 45.312 437.806 45.384 437.966 45.384H443.102C443.326 45.384 443.438 45.496 443.438 45.72V46.584C443.438 46.808 443.326 46.92 443.102 46.92H437.966C437.806 46.92 437.726 46.992 437.726 47.136V52.248C437.726 52.392 437.806 52.464 437.966 52.464H443.846C444.07 52.464 444.182 52.576 444.182 52.8V53.664C444.182 53.888 444.07 54 443.846 54ZM451.273 54H450.193C449.969 54 449.857 53.888 449.857 53.664V40.32C449.857 40.176 449.777 40.104 449.617 40.104H446.353C446.113 40.104 445.993 39.992 445.993 39.768V38.904C445.993 38.68 446.113 38.568 446.353 38.568H455.113C455.353 38.568 455.473 38.68 455.473 38.904V39.768C455.473 39.992 455.353 40.104 455.113 40.104H451.849C451.689 40.104 451.609 40.176 451.609 40.32V53.664C451.609 53.888 451.497 54 451.273 54ZM472.049 38.568H473.129C473.353 38.568 473.465 38.672 473.465 38.88V50.448C473.465 51.568 473.153 52.44 472.529 53.064C471.905 53.688 471.041 54 469.937 54H467.273C466.169 54 465.297 53.688 464.657 53.064C464.033 52.44 463.721 51.568 463.721 50.448V38.904C463.721 38.68 463.833 38.568 464.057 38.568H465.137C465.361 38.568 465.473 38.68 465.473 38.904V50.376C465.473 51.768 466.137 52.464 467.465 52.464H469.721C471.065 52.464 471.737 51.768 471.737 50.376V38.904C471.737 38.68 471.841 38.568 472.049 38.568ZM478.522 54H477.466C477.242 54 477.13 53.888 477.13 53.664V38.904C477.13 38.68 477.242 38.568 477.466 38.568H478.45C478.642 38.568 478.77 38.632 478.834 38.76L485.458 50.4H485.554V38.904C485.554 38.68 485.666 38.568 485.89 38.568H486.946C487.17 38.568 487.282 38.68 487.282 38.904V53.664C487.282 53.888 487.17 54 486.946 54H486.058C485.882 54 485.714 53.896 485.554 53.688L478.954 42.168H478.858V53.664C478.858 53.888 478.746 54 478.522 54ZM508.017 38.568H509.961C510.185 38.568 510.297 38.68 510.297 38.904V53.664C510.297 53.888 510.185 54 509.961 54H508.905C508.681 54 508.569 53.888 508.569 53.664V40.92H508.473L504.753 50.328C504.657 50.536 504.513 50.64 504.321 50.64H503.169C502.961 50.64 502.825 50.536 502.761 50.328L498.969 40.896H498.873V53.664C498.873 53.888 498.769 54 498.561 54H497.505C497.281 54 497.169 53.888 497.169 53.664V38.904C497.169 38.68 497.281 38.568 497.505 38.568H499.449C499.593 38.568 499.689 38.632 499.737 38.76L503.673 48.696H503.793L507.729 38.76C507.761 38.632 507.857 38.568 508.017 38.568ZM521.963 54H514.427C514.203 54 514.091 53.888 514.091 53.664V38.904C514.091 38.68 514.203 38.568 514.427 38.568H521.963C522.187 38.568 522.299 38.68 522.299 38.904V39.768C522.299 39.992 522.187 40.104 521.963 40.104H516.083C515.923 40.104 515.843 40.176 515.843 40.32V45.168C515.843 45.312 515.923 45.384 516.083 45.384H521.219C521.443 45.384 521.555 45.496 521.555 45.72V46.584C521.555 46.808 521.443 46.92 521.219 46.92H516.083C515.923 46.92 515.843 46.992 515.843 47.136V52.248C515.843 52.392 515.923 52.464 516.083 52.464H521.963C522.187 52.464 522.299 52.576 522.299 52.8V53.664C522.299 53.888 522.187 54 521.963 54ZM527.015 54H525.959C525.735 54 525.623 53.888 525.623 53.664V38.904C525.623 38.68 525.735 38.568 525.959 38.568H526.943C527.135 38.568 527.263 38.632 527.327 38.76L533.951 50.4H534.047V38.904C534.047 38.68 534.159 38.568 534.383 38.568H535.439C535.663 38.568 535.775 38.68 535.775 38.904V53.664C535.775 53.888 535.663 54 535.439 54H534.551C534.375 54 534.207 53.896 534.047 53.688L527.447 42.168H527.351V53.664C527.351 53.888 527.239 54 527.015 54ZM547.776 38.568H548.856C549.08 38.568 549.192 38.672 549.192 38.88V50.448C549.192 51.568 548.88 52.44 548.256 53.064C547.632 53.688 546.768 54 545.664 54H543C541.896 54 541.024 53.688 540.384 53.064C539.76 52.44 539.448 51.568 539.448 50.448V38.904C539.448 38.68 539.56 38.568 539.784 38.568H540.864C541.088 38.568 541.2 38.68 541.2 38.904V50.376C541.2 51.768 541.864 52.464 543.192 52.464H545.448C546.792 52.464 547.464 51.768 547.464 50.376V38.904C547.464 38.68 547.568 38.568 547.776 38.568ZM198.914 90H197.834C197.61 90 197.498 89.888 197.498 89.664V74.904C197.498 74.68 197.61 74.568 197.834 74.568H203.354C204.458 74.568 205.33 74.888 205.97 75.528C206.61 76.152 206.93 77.016 206.93 78.12V80.304C206.93 81.2 206.714 81.944 206.282 82.536C205.85 83.112 205.25 83.496 204.482 83.688V83.784L207.266 89.616C207.41 89.872 207.33 90 207.026 90H205.946C205.674 90 205.474 89.888 205.346 89.664L202.658 83.856H199.49C199.33 83.856 199.25 83.928 199.25 84.072V89.664C199.25 89.888 199.138 90 198.914 90ZM199.49 82.392H203.114C204.49 82.392 205.178 81.704 205.178 80.328V78.192C205.178 76.8 204.49 76.104 203.114 76.104H199.49C199.33 76.104 199.25 76.176 199.25 76.32V82.176C199.25 82.32 199.33 82.392 199.49 82.392ZM218.26 90H210.724C210.5 90 210.388 89.888 210.388 89.664V74.904C210.388 74.68 210.5 74.568 210.724 74.568H218.26C218.484 74.568 218.596 74.68 218.596 74.904V75.768C218.596 75.992 218.484 76.104 218.26 76.104H212.38C212.22 76.104 212.14 76.176 212.14 76.32V81.168C212.14 81.312 212.22 81.384 212.38 81.384H217.516C217.74 81.384 217.852 81.496 217.852 81.72V82.584C217.852 82.808 217.74 82.92 217.516 82.92H212.38C212.22 82.92 212.14 82.992 212.14 83.136V88.248C212.14 88.392 212.22 88.464 212.38 88.464H218.26C218.484 88.464 218.596 88.576 218.596 88.8V89.664C218.596 89.888 218.484 90 218.26 90ZM232.767 74.568H234.711C234.935 74.568 235.047 74.68 235.047 74.904V89.664C235.047 89.888 234.935 90 234.711 90H233.655C233.431 90 233.319 89.888 233.319 89.664V76.92H233.223L229.503 86.328C229.407 86.536 229.263 86.64 229.071 86.64H227.919C227.711 86.64 227.575 86.536 227.511 86.328L223.719 76.896H223.623V89.664C223.623 89.888 223.519 90 223.311 90H222.255C222.031 90 221.919 89.888 221.919 89.664V74.904C221.919 74.68 222.031 74.568 222.255 74.568H224.199C224.343 74.568 224.439 74.632 224.487 74.76L228.423 84.696H228.543L232.479 74.76C232.511 74.632 232.607 74.568 232.767 74.568ZM240.257 90H239.177C238.953 90 238.841 89.888 238.841 89.664V74.904C238.841 74.68 238.953 74.568 239.177 74.568H244.793C245.897 74.568 246.761 74.888 247.385 75.528C248.009 76.152 248.321 77.016 248.321 78.12V80.784C248.321 81.904 248.009 82.776 247.385 83.4C246.761 84.024 245.897 84.336 244.793 84.336H240.833C240.673 84.336 240.593 84.408 240.593 84.552V89.664C240.593 89.888 240.481 90 240.257 90ZM240.833 82.776H244.553C245.897 82.776 246.569 82.088 246.569 80.712V78.192C246.569 76.8 245.897 76.104 244.553 76.104H240.833C240.673 76.104 240.593 76.176 240.593 76.32V82.56C240.593 82.704 240.673 82.776 240.833 82.776ZM259.514 90H251.81C251.586 90 251.474 89.888 251.474 89.664V74.904C251.474 74.68 251.586 74.568 251.81 74.568H252.89C253.114 74.568 253.226 74.68 253.226 74.904V88.2C253.226 88.344 253.306 88.416 253.466 88.416H259.514C259.738 88.416 259.85 88.536 259.85 88.776V89.664C259.85 89.888 259.738 90 259.514 90ZM264.174 74.904V89.664C264.174 89.888 264.062 90 263.838 90H262.758C262.534 90 262.422 89.888 262.422 89.664V74.904C262.422 74.68 262.534 74.568 262.758 74.568H263.838C264.062 74.568 264.174 74.68 264.174 74.904ZM276.177 88.464H280.209C281.553 88.464 282.225 87.768 282.225 86.376V78.192C282.225 76.8 281.553 76.104 280.209 76.104H276.177C276.017 76.104 275.937 76.176 275.937 76.32V88.248C275.937 88.392 276.017 88.464 276.177 88.464ZM274.185 89.664V74.904C274.185 74.68 274.297 74.568 274.521 74.568H280.425C281.529 74.568 282.393 74.888 283.017 75.528C283.657 76.152 283.977 77.016 283.977 78.12V86.448C283.977 87.552 283.657 88.424 283.017 89.064C282.393 89.688 281.529 90 280.425 90H274.521C274.297 90 274.185 89.888 274.185 89.664ZM295.393 90H287.857C287.633 90 287.521 89.888 287.521 89.664V74.904C287.521 74.68 287.633 74.568 287.857 74.568H295.393C295.617 74.568 295.729 74.68 295.729 74.904V75.768C295.729 75.992 295.617 76.104 295.393 76.104H289.513C289.353 76.104 289.273 76.176 289.273 76.32V81.168C289.273 81.312 289.353 81.384 289.513 81.384H294.649C294.873 81.384 294.985 81.496 294.985 81.72V82.584C294.985 82.808 294.873 82.92 294.649 82.92H289.513C289.353 82.92 289.273 82.992 289.273 83.136V88.248C289.273 88.392 289.353 88.464 289.513 88.464H295.393C295.617 88.464 295.729 88.576 295.729 88.8V89.664C295.729 89.888 295.617 90 295.393 90ZM304.978 86.448V85.68C304.978 85.456 305.09 85.344 305.314 85.344H306.394C306.618 85.344 306.73 85.456 306.73 85.68V86.304C306.73 87.744 307.442 88.464 308.866 88.464H310.978C312.402 88.464 313.114 87.728 313.114 86.256V85.44C313.114 84.288 312.162 83.536 310.258 83.184C309.458 83.04 308.658 82.872 307.858 82.68C307.058 82.488 306.378 82.12 305.818 81.576C305.258 81.016 304.978 80.256 304.978 79.296V78.12C304.978 77.016 305.29 76.152 305.914 75.528C306.554 74.888 307.426 74.568 308.53 74.568H311.194C312.282 74.568 313.146 74.888 313.786 75.528C314.426 76.152 314.746 77.016 314.746 78.12V78.72C314.746 78.96 314.642 79.08 314.434 79.08H313.33C313.122 79.08 313.018 78.96 313.018 78.72V78.288C313.018 76.832 312.306 76.104 310.882 76.104H308.842C307.418 76.104 306.706 76.864 306.706 78.384V79.344C306.706 80.16 307.242 80.72 308.314 81.024C308.794 81.152 309.322 81.272 309.898 81.384C310.474 81.48 311.05 81.616 311.626 81.792C312.218 81.952 312.754 82.16 313.234 82.416C313.714 82.656 314.098 83.032 314.386 83.544C314.69 84.04 314.842 84.648 314.842 85.368V86.448C314.842 87.552 314.522 88.424 313.882 89.064C313.242 89.688 312.378 90 311.29 90H308.53C307.442 90 306.578 89.688 305.938 89.064C305.298 88.424 304.978 87.552 304.978 86.448ZM318.651 90H317.451C317.243 90 317.171 89.888 317.235 89.664L321.723 74.904C321.787 74.68 321.939 74.568 322.179 74.568H323.907C324.147 74.568 324.299 74.68 324.363 74.904L328.851 89.664C328.915 89.888 328.843 90 328.635 90H327.411C327.235 90 327.123 89.888 327.075 89.664L325.947 86.16H320.139L319.011 89.664C318.947 89.888 318.827 90 318.651 90ZM322.995 76.368L320.523 84.672H325.563L323.091 76.368H322.995ZM336.459 90H334.755C334.547 90 334.411 89.888 334.347 89.664L330.099 74.928C330.051 74.688 330.155 74.568 330.411 74.568H331.587C331.795 74.568 331.923 74.68 331.971 74.904L335.547 88.032H335.643L339.219 74.904C339.267 74.68 339.395 74.568 339.603 74.568H340.803C341.043 74.568 341.139 74.688 341.091 74.928L336.843 89.664C336.779 89.888 336.651 90 336.459 90ZM351.432 90H343.896C343.672 90 343.56 89.888 343.56 89.664V74.904C343.56 74.68 343.672 74.568 343.896 74.568H351.432C351.656 74.568 351.768 74.68 351.768 74.904V75.768C351.768 75.992 351.656 76.104 351.432 76.104H345.552C345.392 76.104 345.312 76.176 345.312 76.32V81.168C345.312 81.312 345.392 81.384 345.552 81.384H350.688C350.912 81.384 351.024 81.496 351.024 81.72V82.584C351.024 82.808 350.912 82.92 350.688 82.92H345.552C345.392 82.92 345.312 82.992 345.312 83.136V88.248C345.312 88.392 345.392 88.464 345.552 88.464H351.432C351.656 88.464 351.768 88.576 351.768 88.8V89.664C351.768 89.888 351.656 90 351.432 90ZM363.299 74.568H364.379C364.603 74.568 364.715 74.672 364.715 74.88V86.448C364.715 87.568 364.403 88.44 363.779 89.064C363.155 89.688 362.291 90 361.187 90H358.523C357.419 90 356.547 89.688 355.907 89.064C355.283 88.44 354.971 87.568 354.971 86.448V74.904C354.971 74.68 355.083 74.568 355.307 74.568H356.387C356.611 74.568 356.723 74.68 356.723 74.904V86.376C356.723 87.768 357.387 88.464 358.715 88.464H360.971C362.315 88.464 362.987 87.768 362.987 86.376V74.904C362.987 74.68 363.091 74.568 363.299 74.568ZM369.796 90H368.716C368.492 90 368.38 89.888 368.38 89.664V74.904C368.38 74.68 368.492 74.568 368.716 74.568H374.236C375.34 74.568 376.212 74.888 376.852 75.528C377.492 76.152 377.812 77.016 377.812 78.12V80.304C377.812 81.2 377.596 81.944 377.164 82.536C376.732 83.112 376.132 83.496 375.364 83.688V83.784L378.148 89.616C378.292 89.872 378.212 90 377.908 90H376.828C376.556 90 376.356 89.888 376.228 89.664L373.54 83.856H370.372C370.212 83.856 370.132 83.928 370.132 84.072V89.664C370.132 89.888 370.02 90 369.796 90ZM370.372 82.392H373.996C375.372 82.392 376.06 81.704 376.06 80.328V78.192C376.06 76.8 375.372 76.104 373.996 76.104H370.372C370.212 76.104 370.132 76.176 370.132 76.32V82.176C370.132 82.32 370.212 82.392 370.372 82.392ZM381.103 86.448V85.68C381.103 85.456 381.215 85.344 381.439 85.344H382.519C382.743 85.344 382.855 85.456 382.855 85.68V86.304C382.855 87.744 383.567 88.464 384.991 88.464H387.103C388.527 88.464 389.239 87.728 389.239 86.256V85.44C389.239 84.288 388.287 83.536 386.383 83.184C385.583 83.04 384.783 82.872 383.983 82.68C383.183 82.488 382.503 82.12 381.943 81.576C381.383 81.016 381.103 80.256 381.103 79.296V78.12C381.103 77.016 381.415 76.152 382.039 75.528C382.679 74.888 383.551 74.568 384.655 74.568H387.319C388.407 74.568 389.271 74.888 389.911 75.528C390.551 76.152 390.871 77.016 390.871 78.12V78.72C390.871 78.96 390.767 79.08 390.559 79.08H389.455C389.247 79.08 389.143 78.96 389.143 78.72V78.288C389.143 76.832 388.431 76.104 387.007 76.104H384.967C383.543 76.104 382.831 76.864 382.831 78.384V79.344C382.831 80.16 383.367 80.72 384.439 81.024C384.919 81.152 385.447 81.272 386.023 81.384C386.599 81.48 387.175 81.616 387.751 81.792C388.343 81.952 388.879 82.16 389.359 82.416C389.839 82.656 390.223 83.032 390.511 83.544C390.815 84.04 390.967 84.648 390.967 85.368V86.448C390.967 87.552 390.647 88.424 390.007 89.064C389.367 89.688 388.503 90 387.415 90H384.655C383.567 90 382.703 89.688 382.063 89.064C381.423 88.424 381.103 87.552 381.103 86.448ZM400.653 77.688V74.904C400.653 74.68 400.765 74.568 400.989 74.568H402.261C402.485 74.568 402.597 74.68 402.597 74.904V77.688C402.597 79.208 402.549 80.688 402.453 82.128C402.357 83.568 402.293 84.384 402.261 84.576C402.229 84.768 402.125 84.864 401.949 84.864H401.301C401.093 84.864 400.981 84.744 400.965 84.504C400.901 83.88 400.829 82.784 400.749 81.216C400.685 79.648 400.653 78.472 400.653 77.688ZM402.549 86.76V89.664C402.549 89.888 402.437 90 402.213 90H401.061C400.853 90 400.749 89.88 400.749 89.64V86.76C400.749 86.552 400.853 86.448 401.061 86.448H402.213C402.437 86.448 402.549 86.552 402.549 86.76ZM407.477 74.88V76.272C407.477 76.64 407.365 77.16 407.141 77.832L406.325 80.112C406.277 80.224 406.189 80.28 406.061 80.28C405.885 80.28 405.797 80.184 405.797 79.992V74.904C405.797 74.68 405.909 74.568 406.133 74.568H407.165C407.373 74.568 407.477 74.672 407.477 74.88ZM411.173 74.88V76.272C411.173 76.672 411.053 77.192 410.813 77.832L410.021 80.112C409.973 80.224 409.869 80.28 409.709 80.28C409.565 80.28 409.493 80.184 409.493 79.992V74.904C409.493 74.68 409.597 74.568 409.805 74.568H410.861C411.069 74.568 411.173 74.672 411.173 74.88Z" fill="#686666"/>
    <path d="M203.71 113.4H207.742C208.786 113.4 209.71 113.652 210.514 114.156C211.33 114.66 211.966 115.386 212.422 116.334C212.878 117.282 213.106 118.404 213.106 119.7C213.106 120.996 212.878 122.118 212.422 123.066C211.966 124.014 211.33 124.74 210.514 125.244C209.71 125.748 208.786 126 207.742 126H203.71V113.4ZM207.436 124.506C208.696 124.506 209.65 124.086 210.298 123.246C210.958 122.406 211.288 121.224 211.288 119.7C211.288 118.176 210.958 116.994 210.298 116.154C209.65 115.314 208.696 114.894 207.436 114.894H205.348V124.506H207.436ZM218.259 126.18C217.371 126.18 216.609 125.976 215.973 125.568C215.349 125.148 214.875 124.584 214.551 123.876C214.239 123.168 214.083 122.382 214.083 121.518C214.083 120.69 214.227 119.934 214.515 119.25C214.815 118.554 215.241 118.008 215.793 117.612C216.357 117.204 217.023 117 217.791 117C218.775 117 219.573 117.33 220.185 117.99C220.809 118.65 221.121 119.562 221.121 120.726C221.121 120.93 221.097 121.212 221.049 121.572H215.685C215.721 122.616 215.979 123.408 216.459 123.948C216.951 124.488 217.587 124.758 218.367 124.758C218.739 124.758 219.129 124.716 219.537 124.632C219.957 124.536 220.323 124.404 220.635 124.236L220.779 125.64C220.119 126 219.279 126.18 218.259 126.18ZM219.519 120.474C219.519 119.874 219.369 119.388 219.069 119.016C218.781 118.632 218.361 118.44 217.809 118.44C217.269 118.44 216.819 118.608 216.459 118.944C216.111 119.28 215.877 119.79 215.757 120.474H219.519ZM216.495 114.39L219.141 112.698V114.462L216.495 115.488V114.39ZM226.043 126.18C224.699 126.18 223.679 125.76 222.983 124.92C222.287 124.068 221.939 122.976 221.939 121.644C221.939 120.264 222.287 119.148 222.983 118.296C223.679 117.432 224.711 117 226.079 117C226.811 117 227.465 117.15 228.041 117.45L227.789 118.836C227.249 118.548 226.685 118.404 226.097 118.404C225.293 118.404 224.663 118.686 224.207 119.25C223.763 119.802 223.541 120.576 223.541 121.572C223.541 122.568 223.769 123.354 224.225 123.93C224.693 124.506 225.335 124.794 226.151 124.794C226.775 124.794 227.327 124.65 227.807 124.362L228.023 125.766C227.783 125.886 227.483 125.982 227.123 126.054C226.763 126.138 226.403 126.18 226.043 126.18ZM232.576 126.18C231.784 126.18 231.1 125.982 230.524 125.586C229.948 125.178 229.504 124.626 229.192 123.93C228.892 123.234 228.742 122.454 228.742 121.59C228.742 120.726 228.892 119.946 229.192 119.25C229.504 118.554 229.948 118.008 230.524 117.612C231.1 117.204 231.784 117 232.576 117C233.356 117 234.034 117.204 234.61 117.612C235.186 118.008 235.624 118.554 235.924 119.25C236.224 119.946 236.374 120.726 236.374 121.59C236.374 122.454 236.224 123.234 235.924 123.93C235.624 124.626 235.186 125.178 234.61 125.586C234.034 125.982 233.356 126.18 232.576 126.18ZM232.576 124.794C233.272 124.794 233.812 124.512 234.196 123.948C234.58 123.384 234.772 122.598 234.772 121.59C234.772 120.582 234.58 119.802 234.196 119.25C233.812 118.686 233.272 118.404 232.576 118.404C231.856 118.404 231.304 118.686 230.92 119.25C230.536 119.802 230.344 120.582 230.344 121.59C230.344 122.61 230.536 123.402 230.92 123.966C231.304 124.518 231.856 124.794 232.576 124.794ZM244.126 117.18V126H242.794L242.686 124.92C242.446 125.316 242.122 125.628 241.714 125.856C241.306 126.072 240.856 126.18 240.364 126.18C239.44 126.18 238.75 125.874 238.294 125.262C237.85 124.638 237.628 123.75 237.628 122.598V117.18H239.194V122.4C239.194 123.192 239.308 123.786 239.536 124.182C239.776 124.566 240.172 124.758 240.724 124.758C241.108 124.758 241.456 124.65 241.768 124.434C242.08 124.218 242.344 123.918 242.56 123.534V117.18H244.126ZM245.415 117.18H247.089L249.141 124.146L251.157 117.18H252.831L249.915 126H248.349L245.415 117.18ZM253.927 117.18H255.205L255.403 118.656C255.799 118.08 256.171 117.66 256.519 117.396C256.879 117.132 257.257 117 257.653 117C257.809 117 257.947 117.018 258.067 117.054L257.905 118.836C257.749 118.8 257.569 118.782 257.365 118.782C256.969 118.782 256.597 118.884 256.249 119.088C255.901 119.28 255.649 119.508 255.493 119.772V126H253.927V117.18ZM259.254 113.4H260.82V115.182H259.254V113.4ZM259.254 117.18H260.82V126H259.254V117.18ZM262.91 117.18H264.188L264.386 118.656C264.782 118.08 265.154 117.66 265.502 117.396C265.862 117.132 266.24 117 266.636 117C266.792 117 266.93 117.018 267.05 117.054L266.888 118.836C266.732 118.8 266.552 118.782 266.348 118.782C265.952 118.782 265.58 118.884 265.232 119.088C264.884 119.28 264.632 119.508 264.476 119.772V126H262.91V117.18ZM273.966 126.18C272.934 126.18 272.04 125.94 271.284 125.46L271.482 123.876C272.25 124.476 273.042 124.776 273.858 124.776C274.29 124.776 274.626 124.686 274.866 124.506C275.118 124.326 275.244 124.062 275.244 123.714C275.244 123.45 275.184 123.234 275.064 123.066C274.956 122.898 274.77 122.736 274.506 122.58C274.242 122.424 273.834 122.22 273.282 121.968C272.634 121.668 272.16 121.326 271.86 120.942C271.56 120.558 271.41 120.06 271.41 119.448C271.41 118.728 271.662 118.14 272.166 117.684C272.67 117.228 273.348 117 274.2 117C275.064 117 275.82 117.192 276.468 117.576L276.27 119.034C275.946 118.818 275.64 118.662 275.352 118.566C275.064 118.458 274.722 118.404 274.326 118.404C273.906 118.404 273.576 118.494 273.336 118.674C273.096 118.854 272.976 119.106 272.976 119.43C272.976 119.754 273.078 120 273.282 120.168C273.498 120.336 273.912 120.558 274.524 120.834C275.376 121.218 275.976 121.608 276.324 122.004C276.672 122.388 276.846 122.898 276.846 123.534C276.846 124.362 276.588 125.01 276.072 125.478C275.556 125.946 274.854 126.18 273.966 126.18ZM284.503 117.18V126H283.171L283.063 124.92C282.823 125.316 282.499 125.628 282.091 125.856C281.683 126.072 281.233 126.18 280.741 126.18C279.817 126.18 279.127 125.874 278.671 125.262C278.227 124.638 278.005 123.75 278.005 122.598V117.18H279.571V122.4C279.571 123.192 279.685 123.786 279.913 124.182C280.153 124.566 280.549 124.758 281.101 124.758C281.485 124.758 281.833 124.65 282.145 124.434C282.457 124.218 282.721 123.918 282.937 123.534V117.18H284.503ZM286.746 117.18H288.024L288.222 118.656C288.618 118.08 288.99 117.66 289.338 117.396C289.698 117.132 290.076 117 290.472 117C290.628 117 290.766 117.018 290.886 117.054L290.724 118.836C290.568 118.8 290.388 118.782 290.184 118.782C289.788 118.782 289.416 118.884 289.068 119.088C288.72 119.28 288.468 119.508 288.312 119.772V126H286.746V117.18Z" fill="#8F8F8F"/>
    <path d="M299.121 110.6H300.815L310.077 123.096V110.6H311.683V126H310.187L300.727 113.174V126H299.121V110.6ZM324.038 124.834C323.422 125.289 322.777 125.633 322.102 125.868C321.442 126.088 320.716 126.198 319.924 126.198C319.132 126.198 318.384 126.051 317.68 125.758C316.991 125.465 316.389 125.061 315.876 124.548C315.377 124.035 314.981 123.433 314.688 122.744C314.395 122.04 314.248 121.285 314.248 120.478C314.248 119.686 314.387 118.945 314.666 118.256C314.959 117.567 315.348 116.965 315.832 116.452C316.316 115.939 316.888 115.535 317.548 115.242C318.223 114.949 318.934 114.802 319.682 114.802C320.415 114.802 321.097 114.949 321.728 115.242C322.373 115.535 322.923 115.939 323.378 116.452C323.847 116.965 324.214 117.567 324.478 118.256C324.757 118.945 324.896 119.686 324.896 120.478V120.984H315.854C315.971 122.069 316.419 122.971 317.196 123.69C317.973 124.409 318.905 124.768 319.99 124.768C320.562 124.768 321.119 124.68 321.662 124.504C322.205 124.328 322.659 124.079 323.026 123.756L324.038 124.834ZM319.638 116.232C318.685 116.232 317.856 116.555 317.152 117.2C316.463 117.845 316.045 118.674 315.898 119.686H323.268C323.121 118.718 322.703 117.904 322.014 117.244C321.339 116.569 320.547 116.232 319.638 116.232ZM330.565 126H328.981L325.879 114.978H327.485L329.861 123.778L332.611 114.978H334.063L336.791 123.778L339.189 114.978H340.729L337.605 126H336.043L333.315 117.178L330.565 126ZM346.141 112.118V110.6H358.967V112.118H353.401V126H351.707V112.118H346.141ZM363.197 126.198C361.994 126.198 361.012 125.89 360.249 125.274C359.501 124.658 359.127 123.859 359.127 122.876C359.127 121.849 359.523 121.035 360.315 120.434C361.107 119.818 362.178 119.51 363.527 119.51C364.114 119.51 364.678 119.576 365.221 119.708C365.778 119.84 366.292 120.023 366.761 120.258V118.806C366.761 117.926 366.512 117.266 366.013 116.826C365.514 116.371 364.788 116.144 363.835 116.144C363.292 116.144 362.742 116.225 362.185 116.386C361.642 116.533 361.041 116.775 360.381 117.112L359.765 115.858C360.557 115.477 361.29 115.198 361.965 115.022C362.64 114.846 363.314 114.758 363.989 114.758C365.382 114.758 366.453 115.088 367.201 115.748C367.964 116.408 368.345 117.354 368.345 118.586V126H366.761V124.922C366.262 125.347 365.712 125.67 365.111 125.89C364.524 126.095 363.886 126.198 363.197 126.198ZM360.689 122.832C360.689 123.448 360.946 123.954 361.459 124.35C361.987 124.731 362.662 124.922 363.483 124.922C364.143 124.922 364.744 124.819 365.287 124.614C365.83 124.409 366.321 124.086 366.761 123.646V121.578C366.306 121.27 365.815 121.05 365.287 120.918C364.774 120.771 364.202 120.698 363.571 120.698C362.691 120.698 361.987 120.896 361.459 121.292C360.946 121.673 360.689 122.187 360.689 122.832ZM381.779 120.478C381.779 121.27 381.632 122.018 381.339 122.722C381.06 123.426 380.671 124.035 380.173 124.548C379.674 125.047 379.08 125.443 378.391 125.736C377.716 126.029 376.99 126.176 376.213 126.176C375.567 126.176 374.937 126.066 374.321 125.846C373.719 125.626 373.169 125.311 372.671 124.9V126H371.065V110.6L372.693 110.226V116.144C373.147 115.704 373.675 115.374 374.277 115.154C374.893 114.919 375.545 114.802 376.235 114.802C377.012 114.802 377.738 114.949 378.413 115.242C379.087 115.535 379.674 115.939 380.173 116.452C380.671 116.951 381.06 117.552 381.339 118.256C381.632 118.945 381.779 119.686 381.779 120.478ZM376.081 116.232C375.391 116.232 374.746 116.371 374.145 116.65C373.558 116.914 373.074 117.288 372.693 117.772V123.228C373.074 123.697 373.565 124.071 374.167 124.35C374.768 124.614 375.406 124.746 376.081 124.746C377.239 124.746 378.207 124.343 378.985 123.536C379.777 122.715 380.173 121.703 380.173 120.5C380.173 119.899 380.063 119.341 379.843 118.828C379.637 118.3 379.351 117.845 378.985 117.464C378.618 117.083 378.185 116.782 377.687 116.562C377.188 116.342 376.653 116.232 376.081 116.232ZM385.669 110.226V126H384.041V110.6L385.669 110.226ZM397.73 124.834C397.114 125.289 396.468 125.633 395.794 125.868C395.134 126.088 394.408 126.198 393.616 126.198C392.824 126.198 392.076 126.051 391.372 125.758C390.682 125.465 390.081 125.061 389.568 124.548C389.069 124.035 388.673 123.433 388.38 122.744C388.086 122.04 387.94 121.285 387.94 120.478C387.94 119.686 388.079 118.945 388.358 118.256C388.651 117.567 389.04 116.965 389.524 116.452C390.008 115.939 390.58 115.535 391.24 115.242C391.914 114.949 392.626 114.802 393.374 114.802C394.107 114.802 394.789 114.949 395.42 115.242C396.065 115.535 396.615 115.939 397.07 116.452C397.539 116.965 397.906 117.567 398.17 118.256C398.448 118.945 398.588 119.686 398.588 120.478V120.984H389.546C389.663 122.069 390.11 122.971 390.888 123.69C391.665 124.409 392.596 124.768 393.682 124.768C394.254 124.768 394.811 124.68 395.354 124.504C395.896 124.328 396.351 124.079 396.718 123.756L397.73 124.834ZM393.33 116.232C392.376 116.232 391.548 116.555 390.844 117.2C390.154 117.845 389.736 118.674 389.59 119.686H396.96C396.813 118.718 396.395 117.904 395.706 117.244C395.031 116.569 394.239 116.232 393.33 116.232Z" fill="#C54B25"/>
    <path d="M268.271 193.342C268.271 193.096 268.25 192.919 268.208 192.809C268.174 192.699 268.157 192.597 268.157 192.504C268.157 192.377 268.225 192.275 268.36 192.199C268.496 192.115 268.657 192.072 268.843 192.072C269.274 192.072 269.613 192.187 269.858 192.415C270.112 192.635 270.239 192.902 270.239 193.215V194.383C270.417 194.019 270.607 193.68 270.811 193.367C271.022 193.054 271.246 192.783 271.483 192.555C271.729 192.318 271.987 192.136 272.258 192.009C272.537 191.873 272.838 191.806 273.159 191.806C273.591 191.806 273.946 191.886 274.226 192.047C274.505 192.208 274.725 192.415 274.886 192.669C275.047 192.923 275.157 193.206 275.216 193.52C275.284 193.833 275.317 194.137 275.317 194.434V199.816C275.317 199.876 275.322 199.973 275.33 200.108C275.339 200.235 275.364 200.367 275.406 200.502C275.449 200.637 275.512 200.756 275.597 200.857C275.69 200.959 275.821 201.01 275.99 201.01C276.253 201.01 276.477 200.917 276.663 200.73C276.858 200.544 277.023 200.312 277.158 200.032C277.302 199.753 277.416 199.452 277.501 199.131C277.594 198.801 277.67 198.492 277.729 198.204C277.78 197.933 277.865 197.739 277.983 197.62C278.102 197.493 278.225 197.43 278.352 197.43C278.453 197.43 278.559 197.464 278.669 197.531C278.779 197.59 278.876 197.671 278.961 197.772C279.054 197.874 279.126 197.988 279.177 198.115C279.236 198.242 279.266 198.369 279.266 198.496C279.266 198.513 279.266 198.534 279.266 198.56C279.266 198.585 279.257 198.623 279.24 198.674C279.13 199.105 278.978 199.558 278.783 200.032C278.597 200.506 278.352 200.942 278.047 201.34C277.751 201.738 277.395 202.068 276.98 202.33C276.566 202.592 276.079 202.724 275.521 202.724C275.174 202.724 274.865 202.656 274.594 202.521C274.331 202.394 274.103 202.22 273.908 202C273.722 201.78 273.578 201.522 273.477 201.226C273.383 200.929 273.337 200.616 273.337 200.286V195.005C273.337 194.802 273.333 194.611 273.324 194.434C273.316 194.256 273.29 194.099 273.248 193.964C273.214 193.828 273.159 193.723 273.083 193.646C273.015 193.562 272.918 193.52 272.791 193.52C272.605 193.52 272.376 193.646 272.105 193.9C271.835 194.154 271.568 194.484 271.306 194.891C271.043 195.297 270.811 195.758 270.607 196.274C270.413 196.782 270.29 197.294 270.239 197.811V201.606C270.239 201.733 270.235 201.865 270.227 202C270.227 202.127 270.201 202.241 270.15 202.343C270.108 202.453 270.036 202.542 269.935 202.609C269.841 202.686 269.702 202.724 269.516 202.724C269.389 202.724 269.249 202.707 269.097 202.673C268.953 202.647 268.817 202.592 268.69 202.508C268.572 202.432 268.47 202.317 268.386 202.165C268.31 202.021 268.271 201.826 268.271 201.581V193.342ZM283.646 194.434C283.646 194.916 283.561 195.411 283.392 195.919C283.231 196.427 282.985 196.909 282.655 197.366C282.334 197.815 281.932 198.221 281.449 198.585C280.975 198.94 280.425 199.211 279.799 199.397C279.883 199.618 279.993 199.829 280.129 200.032C280.273 200.227 280.442 200.396 280.637 200.54C280.831 200.684 281.056 200.798 281.31 200.883C281.572 200.967 281.872 201.01 282.211 201.01C282.719 201.01 283.155 200.917 283.519 200.73C283.882 200.536 284.187 200.282 284.433 199.969C284.687 199.656 284.89 199.304 285.042 198.915C285.194 198.526 285.309 198.132 285.385 197.734C285.444 197.447 285.562 197.256 285.74 197.163C285.926 197.062 286.113 197.036 286.299 197.087C286.493 197.138 286.659 197.248 286.794 197.417C286.938 197.578 286.997 197.772 286.972 198.001C286.938 198.263 286.879 198.564 286.794 198.902C286.718 199.241 286.599 199.584 286.438 199.931C286.278 200.278 286.07 200.62 285.816 200.959C285.571 201.289 285.266 201.585 284.902 201.848C284.538 202.11 284.111 202.322 283.62 202.482C283.129 202.643 282.566 202.724 281.932 202.724C281.339 202.724 280.764 202.605 280.205 202.368C279.655 202.14 279.164 201.81 278.732 201.378C278.309 200.938 277.966 200.4 277.704 199.766C277.45 199.122 277.323 198.395 277.323 197.582C277.323 196.761 277.438 195.999 277.666 195.297C277.895 194.586 278.195 193.972 278.567 193.456C278.94 192.94 279.363 192.538 279.837 192.25C280.311 191.954 280.798 191.806 281.297 191.806C281.661 191.806 281.987 191.869 282.274 191.996C282.571 192.123 282.82 192.305 283.023 192.542C283.227 192.771 283.379 193.046 283.48 193.367C283.59 193.689 283.646 194.044 283.646 194.434ZM279.456 197.506C279.456 197.582 279.46 197.658 279.469 197.734C279.477 197.811 279.481 197.891 279.481 197.976C279.803 197.823 280.095 197.629 280.357 197.392C280.62 197.155 280.844 196.884 281.03 196.579C281.216 196.274 281.36 195.944 281.462 195.589C281.563 195.225 281.614 194.848 281.614 194.459C281.614 194.171 281.563 193.947 281.462 193.786C281.369 193.625 281.238 193.545 281.068 193.545C280.857 193.545 280.666 193.617 280.497 193.761C280.336 193.905 280.192 194.095 280.065 194.332C279.947 194.561 279.845 194.823 279.761 195.119C279.685 195.407 279.621 195.699 279.57 195.995C279.52 196.291 279.486 196.575 279.469 196.846C279.452 197.108 279.448 197.328 279.456 197.506ZM289.93 193.342C289.93 193.096 289.913 192.919 289.879 192.809C289.845 192.699 289.828 192.597 289.828 192.504C289.828 192.377 289.892 192.275 290.019 192.199C290.154 192.115 290.315 192.072 290.501 192.072C290.933 192.072 291.275 192.187 291.529 192.415C291.783 192.635 291.91 192.902 291.91 193.215V199.169C291.919 199.44 291.94 199.689 291.974 199.918C292.016 200.146 292.084 200.341 292.177 200.502C292.27 200.663 292.397 200.79 292.558 200.883C292.718 200.967 292.926 201.01 293.18 201.01C293.425 201.01 293.628 200.963 293.789 200.87C293.958 200.769 294.094 200.633 294.195 200.464C294.297 200.295 294.369 200.1 294.411 199.88C294.453 199.651 294.475 199.414 294.475 199.169V193.342C294.475 193.096 294.458 192.919 294.424 192.809C294.39 192.699 294.373 192.597 294.373 192.504C294.373 192.377 294.441 192.275 294.576 192.199C294.712 192.115 294.872 192.072 295.059 192.072C295.49 192.072 295.829 192.187 296.074 192.415C296.328 192.635 296.455 192.902 296.455 193.215V199.169C296.455 199.575 296.413 199.99 296.328 200.413C296.252 200.828 296.1 201.209 295.871 201.556C295.643 201.894 295.321 202.174 294.906 202.394C294.492 202.614 293.95 202.724 293.281 202.724C293.002 202.724 292.74 202.69 292.494 202.622C292.249 202.554 292.024 202.461 291.821 202.343C291.618 202.233 291.44 202.106 291.288 201.962C291.136 201.81 291.013 201.649 290.92 201.479C290.835 201.649 290.708 201.81 290.539 201.962C290.378 202.106 290.192 202.233 289.98 202.343C289.769 202.461 289.54 202.554 289.295 202.622C289.049 202.69 288.804 202.724 288.559 202.724C288.076 202.724 287.661 202.669 287.314 202.559C286.976 202.449 286.688 202.296 286.451 202.102C286.214 201.915 286.024 201.7 285.88 201.454C285.744 201.209 285.639 200.955 285.562 200.692C285.486 200.43 285.436 200.163 285.41 199.893C285.393 199.622 285.385 199.372 285.385 199.144V193.342C285.385 193.096 285.364 192.919 285.321 192.809C285.287 192.699 285.271 192.597 285.271 192.504C285.271 192.377 285.338 192.275 285.474 192.199C285.609 192.115 285.77 192.072 285.956 192.072C286.388 192.072 286.726 192.187 286.972 192.415C287.226 192.635 287.353 192.902 287.353 193.215V199.169C287.353 199.397 287.365 199.626 287.391 199.854C287.424 200.075 287.484 200.269 287.568 200.438C287.661 200.608 287.793 200.747 287.962 200.857C288.131 200.959 288.355 201.01 288.635 201.01C288.88 201.01 289.083 200.963 289.244 200.87C289.413 200.769 289.549 200.633 289.65 200.464C289.752 200.295 289.824 200.1 289.866 199.88C289.909 199.651 289.93 199.414 289.93 199.169V193.342ZM295.985 189.774C296.18 189.791 296.396 189.804 296.633 189.812C296.836 189.829 297.081 189.842 297.369 189.851C297.657 189.851 297.979 189.855 298.334 189.863V185.458C298.334 185.272 298.317 185.124 298.283 185.014C298.258 184.904 298.228 184.819 298.194 184.76C298.169 184.692 298.139 184.641 298.105 184.607C298.08 184.565 298.067 184.523 298.067 184.48C298.067 184.43 298.093 184.387 298.144 184.354C298.194 184.32 298.262 184.29 298.347 184.265C298.431 184.239 298.52 184.222 298.613 184.214C298.715 184.197 298.812 184.188 298.905 184.188C299.337 184.188 299.675 184.303 299.921 184.531C300.175 184.751 300.302 185.018 300.302 185.331V189.889C301.097 189.889 301.935 189.88 302.815 189.863C303.704 189.846 304.593 189.817 305.481 189.774C305.6 189.647 305.693 189.601 305.761 189.635C305.837 189.669 305.883 189.749 305.9 189.876C305.926 190.003 305.93 190.16 305.913 190.346C305.896 190.532 305.862 190.714 305.812 190.892C305.761 191.061 305.689 191.209 305.596 191.336C305.511 191.463 305.414 191.526 305.304 191.526C304.263 191.552 303.34 191.569 302.536 191.577C301.741 191.577 300.996 191.577 300.302 191.577V199.816C300.302 200.24 300.382 200.544 300.543 200.73C300.704 200.917 300.92 201.01 301.19 201.01C301.453 201.01 301.677 200.917 301.863 200.73C302.058 200.544 302.223 200.312 302.358 200.032C302.502 199.753 302.617 199.452 302.701 199.131C302.794 198.801 302.87 198.492 302.93 198.204C302.98 197.933 303.065 197.739 303.184 197.62C303.302 197.493 303.425 197.43 303.552 197.43C303.653 197.43 303.759 197.464 303.869 197.531C303.979 197.59 304.076 197.671 304.161 197.772C304.254 197.874 304.326 197.988 304.377 198.115C304.436 198.242 304.466 198.369 304.466 198.496C304.466 198.513 304.466 198.534 304.466 198.56C304.466 198.585 304.457 198.623 304.44 198.674C304.33 199.105 304.178 199.558 303.983 200.032C303.797 200.506 303.552 200.942 303.247 201.34C302.951 201.738 302.595 202.068 302.181 202.33C301.766 202.592 301.279 202.724 300.721 202.724C300.374 202.724 300.052 202.669 299.756 202.559C299.468 202.457 299.218 202.288 299.007 202.051C298.795 201.822 298.63 201.526 298.512 201.162C298.393 200.798 298.334 200.358 298.334 199.842V191.577C298.046 191.577 297.788 191.577 297.56 191.577C297.34 191.569 297.153 191.56 297.001 191.552C296.823 191.543 296.667 191.535 296.531 191.526C296.328 191.526 296.15 191.438 295.998 191.26C295.837 191.074 295.727 190.87 295.668 190.65C295.6 190.43 295.592 190.231 295.643 190.054C295.685 189.868 295.799 189.774 295.985 189.774ZM310.407 201.01C310.67 201.01 310.894 200.917 311.08 200.73C311.275 200.544 311.44 200.312 311.575 200.032C311.719 199.753 311.833 199.452 311.918 199.131C312.011 198.801 312.087 198.492 312.146 198.204C312.206 197.933 312.29 197.739 312.4 197.62C312.519 197.493 312.646 197.43 312.781 197.43C312.883 197.43 312.984 197.464 313.086 197.531C313.196 197.59 313.293 197.671 313.378 197.772C313.471 197.874 313.543 197.988 313.594 198.115C313.653 198.242 313.683 198.369 313.683 198.496C313.683 198.513 313.683 198.534 313.683 198.56C313.683 198.585 313.674 198.623 313.657 198.674C313.547 199.105 313.395 199.558 313.2 200.032C313.014 200.506 312.773 200.942 312.477 201.34C312.18 201.738 311.821 202.068 311.397 202.33C310.983 202.592 310.496 202.724 309.938 202.724C309.48 202.724 309.083 202.626 308.744 202.432C308.406 202.237 308.139 201.979 307.944 201.657C307.682 201.953 307.365 202.203 306.992 202.406C306.628 202.618 306.201 202.724 305.71 202.724C305.202 202.724 304.754 202.622 304.364 202.419C303.983 202.216 303.662 201.941 303.399 201.594C303.137 201.238 302.938 200.824 302.803 200.35C302.676 199.867 302.612 199.351 302.612 198.801C302.612 197.717 302.786 196.744 303.133 195.881C303.48 195.018 303.941 194.285 304.517 193.685C305.092 193.075 305.748 192.61 306.484 192.288C307.229 191.966 307.999 191.806 308.795 191.806C309.15 191.806 309.438 191.903 309.658 192.098C309.878 192.292 309.988 192.559 309.988 192.897C309.988 193.118 309.963 193.274 309.912 193.367C309.87 193.452 309.785 193.494 309.658 193.494C309.54 193.494 309.417 193.486 309.29 193.469C309.163 193.452 309.032 193.443 308.896 193.443C308.406 193.443 307.906 193.553 307.398 193.773C306.891 193.985 306.429 194.315 306.015 194.764C305.608 195.204 305.274 195.767 305.012 196.452C304.749 197.129 304.618 197.938 304.618 198.877C304.618 199.562 304.749 200.091 305.012 200.464C305.274 200.828 305.634 201.01 306.091 201.01C306.446 201.01 306.743 200.879 306.979 200.616C307.216 200.345 307.407 200.028 307.551 199.664V195.652C307.551 195.525 307.542 195.42 307.525 195.335C307.517 195.25 307.504 195.178 307.487 195.119C307.479 195.06 307.47 195.009 307.462 194.967C307.453 194.916 307.449 194.869 307.449 194.827C307.449 194.692 307.513 194.586 307.64 194.51C307.775 194.425 307.936 194.383 308.122 194.383C308.554 194.383 308.896 194.497 309.15 194.726C309.404 194.946 309.531 195.212 309.531 195.525V199.816C309.531 199.96 309.548 200.104 309.582 200.248C309.616 200.383 309.667 200.51 309.734 200.629C309.802 200.739 309.891 200.832 310.001 200.908C310.119 200.976 310.255 201.01 310.407 201.01ZM315.104 195.373C315.104 194.848 315.16 194.396 315.27 194.015C315.388 193.625 315.549 193.308 315.752 193.062C315.955 192.809 316.188 192.622 316.45 192.504C316.721 192.385 317.009 192.326 317.313 192.326C317.66 192.326 317.999 192.411 318.329 192.58C318.659 192.749 318.951 193.007 319.205 193.354C319.467 193.701 319.675 194.142 319.827 194.675C319.988 195.208 320.068 195.839 320.068 196.566C320.068 197.074 320.035 197.582 319.967 198.09C319.908 198.589 319.81 199.067 319.675 199.524C319.768 199.558 319.857 199.579 319.941 199.588C320.035 199.588 320.128 199.588 320.221 199.588C320.5 199.588 320.745 199.537 320.957 199.436C321.177 199.334 321.363 199.199 321.516 199.029C321.676 198.86 321.803 198.661 321.896 198.433C321.99 198.204 322.057 197.963 322.1 197.709C322.117 197.607 322.172 197.523 322.265 197.455C322.366 197.387 322.48 197.341 322.607 197.315C322.734 197.29 322.866 197.29 323.001 197.315C323.145 197.341 323.268 197.4 323.369 197.493C323.471 197.578 323.543 197.701 323.585 197.861C323.636 198.014 323.636 198.213 323.585 198.458C323.509 198.813 323.382 199.148 323.204 199.461C323.035 199.766 322.819 200.036 322.557 200.273C322.294 200.51 321.985 200.697 321.63 200.832C321.274 200.967 320.877 201.035 320.437 201.035C320.2 201.035 319.971 201.022 319.751 200.997C319.531 200.972 319.315 200.925 319.104 200.857C318.782 201.416 318.363 201.865 317.847 202.203C317.33 202.55 316.691 202.724 315.93 202.724C315.329 202.724 314.8 202.618 314.343 202.406C313.894 202.195 313.513 201.898 313.2 201.518C312.896 201.128 312.663 200.667 312.502 200.134C312.35 199.601 312.273 199.017 312.273 198.382V185.979C312.273 185.792 312.257 185.644 312.223 185.534C312.197 185.424 312.168 185.34 312.134 185.28C312.108 185.213 312.079 185.162 312.045 185.128C312.02 185.086 312.007 185.043 312.007 185.001C312.007 184.95 312.032 184.908 312.083 184.874C312.134 184.84 312.201 184.811 312.286 184.785C312.371 184.76 312.46 184.743 312.553 184.734C312.654 184.717 312.752 184.709 312.845 184.709C313.276 184.709 313.615 184.823 313.86 185.052C314.114 185.272 314.241 185.538 314.241 185.852V198.026C314.241 198.458 314.279 198.856 314.355 199.22C314.432 199.584 314.546 199.901 314.698 200.172C314.851 200.434 315.041 200.642 315.27 200.794C315.507 200.938 315.782 201.01 316.095 201.01C316.416 201.01 316.691 200.929 316.92 200.769C317.148 200.599 317.339 200.375 317.491 200.096C317.119 199.833 316.785 199.529 316.488 199.182C316.201 198.826 315.951 198.445 315.739 198.039C315.536 197.624 315.38 197.193 315.27 196.744C315.16 196.287 315.104 195.83 315.104 195.373ZM316.717 195.271C316.717 195.898 316.827 196.49 317.047 197.049C317.275 197.607 317.58 198.09 317.961 198.496C318.012 198.191 318.046 197.891 318.062 197.595C318.079 197.29 318.088 197.015 318.088 196.77C318.088 195.898 317.995 195.225 317.809 194.751C317.631 194.277 317.424 194.04 317.187 194.04C317.017 194.04 316.895 194.154 316.818 194.383C316.751 194.603 316.717 194.899 316.717 195.271ZM324.067 194.307C324.16 194.129 324.249 193.892 324.334 193.596C324.427 193.291 324.512 192.957 324.588 192.593C324.673 192.229 324.749 191.848 324.816 191.45C324.884 191.052 324.943 190.663 324.994 190.282C325.045 189.901 325.083 189.546 325.108 189.216C325.142 188.877 325.159 188.59 325.159 188.353C325.159 187.489 325.096 186.859 324.969 186.461C324.842 186.055 324.673 185.852 324.461 185.852C324.393 185.852 324.334 185.885 324.283 185.953C324.232 186.021 324.19 186.11 324.156 186.22C324.122 186.321 324.097 186.436 324.08 186.562C324.072 186.681 324.067 186.791 324.067 186.893V194.307ZM327.762 198.229C327.812 197.976 327.889 197.794 327.99 197.684C328.1 197.565 328.215 197.502 328.333 197.493C328.46 197.476 328.587 197.506 328.714 197.582C328.841 197.65 328.951 197.743 329.044 197.861C329.137 197.98 329.205 198.115 329.247 198.268C329.298 198.411 329.306 198.555 329.272 198.699C329.154 199.046 328.985 199.452 328.765 199.918C328.545 200.383 328.265 200.824 327.927 201.238C327.588 201.653 327.19 202.004 326.733 202.292C326.276 202.58 325.752 202.724 325.159 202.724C324.66 202.724 324.22 202.639 323.839 202.47C323.458 202.309 323.136 202.08 322.874 201.784C322.62 201.479 322.425 201.12 322.29 200.705C322.163 200.282 322.1 199.812 322.1 199.296V187.464C322.1 186.981 322.159 186.537 322.277 186.131C322.404 185.716 322.574 185.365 322.785 185.077C323.005 184.781 323.259 184.552 323.547 184.392C323.835 184.222 324.139 184.138 324.461 184.138C324.842 184.138 325.163 184.21 325.426 184.354C325.688 184.489 325.904 184.671 326.073 184.899C326.243 185.128 326.374 185.39 326.467 185.687C326.568 185.983 326.64 186.287 326.683 186.601C326.725 186.905 326.75 187.21 326.759 187.515C326.767 187.811 326.771 188.082 326.771 188.327C326.771 188.962 326.712 189.631 326.594 190.333C326.475 191.027 326.323 191.713 326.137 192.39C325.959 193.067 325.76 193.718 325.54 194.345C325.328 194.963 325.121 195.513 324.918 195.995C324.723 196.478 324.546 196.871 324.385 197.176C324.232 197.48 324.127 197.658 324.067 197.709V199.22C324.067 199.744 324.177 200.176 324.397 200.515C324.618 200.845 324.969 201.01 325.451 201.01C325.747 201.01 326.022 200.921 326.276 200.743C326.539 200.557 326.767 200.328 326.962 200.058C327.165 199.778 327.334 199.478 327.47 199.156C327.605 198.826 327.702 198.517 327.762 198.229ZM333.817 194.434C333.817 194.916 333.733 195.411 333.563 195.919C333.403 196.427 333.157 196.909 332.827 197.366C332.506 197.815 332.104 198.221 331.621 198.585C331.147 198.94 330.597 199.211 329.971 199.397C330.055 199.618 330.165 199.829 330.301 200.032C330.445 200.227 330.614 200.396 330.809 200.54C331.003 200.684 331.228 200.798 331.481 200.883C331.744 200.967 332.044 201.01 332.383 201.01C332.891 201.01 333.326 200.917 333.69 200.73C334.054 200.536 334.359 200.282 334.604 199.969C334.858 199.656 335.062 199.304 335.214 198.915C335.366 198.526 335.48 198.132 335.557 197.734C335.616 197.447 335.734 197.256 335.912 197.163C336.098 197.062 336.285 197.036 336.471 197.087C336.665 197.138 336.83 197.248 336.966 197.417C337.11 197.578 337.169 197.772 337.144 198.001C337.11 198.263 337.05 198.564 336.966 198.902C336.89 199.241 336.771 199.584 336.61 199.931C336.45 200.278 336.242 200.62 335.988 200.959C335.743 201.289 335.438 201.585 335.074 201.848C334.71 202.11 334.283 202.322 333.792 202.482C333.301 202.643 332.738 202.724 332.104 202.724C331.511 202.724 330.936 202.605 330.377 202.368C329.827 202.14 329.336 201.81 328.904 201.378C328.481 200.938 328.138 200.4 327.876 199.766C327.622 199.122 327.495 198.395 327.495 197.582C327.495 196.761 327.609 195.999 327.838 195.297C328.066 194.586 328.367 193.972 328.739 193.456C329.112 192.94 329.535 192.538 330.009 192.25C330.483 191.954 330.969 191.806 331.469 191.806C331.833 191.806 332.159 191.869 332.446 191.996C332.743 192.123 332.992 192.305 333.195 192.542C333.398 192.771 333.551 193.046 333.652 193.367C333.762 193.689 333.817 194.044 333.817 194.434ZM329.628 197.506C329.628 197.582 329.632 197.658 329.641 197.734C329.649 197.811 329.653 197.891 329.653 197.976C329.975 197.823 330.267 197.629 330.529 197.392C330.792 197.155 331.016 196.884 331.202 196.579C331.388 196.274 331.532 195.944 331.634 195.589C331.735 195.225 331.786 194.848 331.786 194.459C331.786 194.171 331.735 193.947 331.634 193.786C331.541 193.625 331.41 193.545 331.24 193.545C331.029 193.545 330.838 193.617 330.669 193.761C330.508 193.905 330.364 194.095 330.237 194.332C330.119 194.561 330.017 194.823 329.933 195.119C329.856 195.407 329.793 195.699 329.742 195.995C329.691 196.291 329.658 196.575 329.641 196.846C329.624 197.108 329.619 197.328 329.628 197.506Z" fill="black"/>
    <path d="M259.098 260.636H255.354C255.21 260.636 255.138 260.57 255.138 260.438V260.042C255.138 259.91 255.21 259.844 255.354 259.844H259.098C259.242 259.844 259.314 259.91 259.314 260.042V260.438C259.314 260.57 259.242 260.636 259.098 260.636ZM262.257 266H261.735C261.615 266 261.555 265.928 261.555 265.784V254.642C261.555 254.498 261.615 254.426 261.735 254.426H262.221C262.329 254.426 262.401 254.462 262.437 254.534L267.963 264.038H268.035V254.642C268.035 254.498 268.101 254.426 268.233 254.426H268.737C268.869 254.426 268.935 254.498 268.935 254.642V265.784C268.935 265.928 268.869 266 268.737 266H268.323C268.215 266 268.119 265.934 268.035 265.802L262.527 256.37H262.455V265.784C262.455 265.928 262.389 266 262.257 266ZM277.721 266H272.159C272.039 266 271.979 265.928 271.979 265.784V254.642C271.979 254.498 272.039 254.426 272.159 254.426H277.721C277.865 254.426 277.937 254.492 277.937 254.624V255.038C277.937 255.17 277.865 255.236 277.721 255.236H273.059C272.939 255.236 272.879 255.29 272.879 255.398V259.538C272.879 259.646 272.939 259.7 273.059 259.7H277.217C277.349 259.7 277.415 259.766 277.415 259.898V260.312C277.415 260.444 277.349 260.51 277.217 260.51H273.059C272.939 260.51 272.879 260.564 272.879 260.672V265.028C272.879 265.136 272.939 265.19 273.059 265.19H277.721C277.865 265.19 277.937 265.256 277.937 265.388V265.802C277.937 265.934 277.865 266 277.721 266ZM283.309 266H282.409C282.277 266 282.193 265.928 282.157 265.784L279.691 254.642C279.655 254.498 279.715 254.426 279.871 254.426H280.465C280.597 254.426 280.675 254.498 280.699 254.642L282.841 264.974H282.931L285.667 254.624C285.691 254.492 285.769 254.426 285.901 254.426H286.585C286.729 254.426 286.813 254.492 286.837 254.624L289.591 264.974H289.681L291.805 254.642C291.829 254.498 291.913 254.426 292.057 254.426H292.669C292.813 254.426 292.867 254.498 292.831 254.642L290.365 265.784C290.341 265.928 290.263 266 290.131 266H289.213C289.081 266 288.997 265.928 288.961 265.784L286.297 255.632H286.225L283.543 265.784C283.507 265.928 283.429 266 283.309 266ZM302.255 266H301.733C301.601 266 301.535 265.928 301.535 265.784V255.398C301.535 255.29 301.475 255.236 301.355 255.236H298.745C298.601 255.236 298.529 255.17 298.529 255.038V254.624C298.529 254.492 298.601 254.426 298.745 254.426H305.225C305.369 254.426 305.441 254.492 305.441 254.624V255.038C305.441 255.17 305.369 255.236 305.225 255.236H302.615C302.495 255.236 302.435 255.29 302.435 255.398V265.784C302.435 265.928 302.375 266 302.255 266ZM306.988 266H306.43C306.298 266 306.256 265.928 306.304 265.784L309.886 254.642C309.922 254.498 310.006 254.426 310.138 254.426H310.984C311.104 254.426 311.188 254.498 311.236 254.642L314.818 265.784C314.854 265.928 314.812 266 314.692 266H314.116C313.996 266 313.918 265.928 313.882 265.784L312.91 262.904H308.194L307.222 265.784C307.174 265.928 307.096 266 306.988 266ZM310.516 255.416L308.446 262.094H312.676L310.588 255.416H310.516ZM317.971 265.208H321.319C322.459 265.208 323.029 264.632 323.029 263.48V262.238C323.029 261.098 322.405 260.528 321.157 260.528H317.971C317.851 260.528 317.791 260.576 317.791 260.672V265.046C317.791 265.154 317.851 265.208 317.971 265.208ZM317.971 259.736H321.139C321.703 259.736 322.135 259.586 322.435 259.286C322.747 258.986 322.903 258.56 322.903 258.008V256.946C322.903 255.794 322.333 255.218 321.193 255.218H317.971C317.851 255.218 317.791 255.272 317.791 255.38V259.574C317.791 259.682 317.851 259.736 317.971 259.736ZM316.891 265.784V254.642C316.891 254.498 316.951 254.426 317.071 254.426H321.265C322.045 254.426 322.663 254.648 323.119 255.092C323.575 255.536 323.803 256.148 323.803 256.928V258.026C323.803 259.118 323.287 259.82 322.255 260.132C322.699 260.156 323.089 260.36 323.425 260.744C323.761 261.128 323.929 261.626 323.929 262.238V263.498C323.929 264.278 323.701 264.89 323.245 265.334C322.789 265.778 322.171 266 321.391 266H317.071C316.951 266 316.891 265.928 316.891 265.784ZM332.622 266H326.898C326.778 266 326.718 265.928 326.718 265.784V254.642C326.718 254.498 326.778 254.426 326.898 254.426H327.42C327.552 254.426 327.618 254.498 327.618 254.642V264.992C327.618 265.1 327.678 265.154 327.798 265.154H332.622C332.766 265.154 332.838 265.22 332.838 265.352V265.802C332.838 265.934 332.766 266 332.622 266ZM340.581 266H335.019C334.899 266 334.839 265.928 334.839 265.784V254.642C334.839 254.498 334.899 254.426 335.019 254.426H340.581C340.725 254.426 340.797 254.492 340.797 254.624V255.038C340.797 255.17 340.725 255.236 340.581 255.236H335.919C335.799 255.236 335.739 255.29 335.739 255.398V259.538C335.739 259.646 335.799 259.7 335.919 259.7H340.077C340.209 259.7 340.275 259.766 340.275 259.898V260.312C340.275 260.444 340.209 260.51 340.077 260.51H335.919C335.799 260.51 335.739 260.564 335.739 260.672V265.028C335.739 265.136 335.799 265.19 335.919 265.19H340.581C340.725 265.19 340.797 265.256 340.797 265.388V265.802C340.797 265.934 340.725 266 340.581 266ZM346.655 260.636H342.911C342.767 260.636 342.695 260.57 342.695 260.438V260.042C342.695 259.91 342.767 259.844 342.911 259.844H346.655C346.799 259.844 346.871 259.91 346.871 260.042V260.438C346.871 260.57 346.799 260.636 346.655 260.636Z" fill="#4E4444"/>
</svg>
