<svg width="600" height="350" viewBox="0 0 600 350" fill="none" xmlns="http://www.w3.org/2000/svg">
    <path d="M63.9418 43.968V42.6C63.9418 42.184 64.0618 41.656 64.3018 41.016L65.0938 38.76C65.1418 38.632 65.2298 38.568 65.3578 38.568C65.5338 38.568 65.6218 38.664 65.6218 38.856V43.968C65.6218 44.176 65.5178 44.28 65.3098 44.28H64.2538C64.0458 44.28 63.9418 44.176 63.9418 43.968ZM60.2458 43.968V42.6C60.2458 42.264 60.3658 41.736 60.6058 41.016L61.3978 38.76C61.4778 38.632 61.5738 38.568 61.6858 38.568C61.8458 38.568 61.9258 38.664 61.9258 38.856V43.968C61.9258 44.176 61.8218 44.28 61.6138 44.28H60.5818C60.3578 44.28 60.2458 44.176 60.2458 43.968ZM70.2294 54H69.1734C68.9494 54 68.8374 53.888 68.8374 53.664V38.904C68.8374 38.68 68.9494 38.568 69.1734 38.568H70.1574C70.3494 38.568 70.4774 38.632 70.5414 38.76L77.1654 50.4H77.2614V38.904C77.2614 38.68 77.3734 38.568 77.5974 38.568H78.6534C78.8774 38.568 78.9894 38.68 78.9894 38.904V53.664C78.9894 53.888 78.8774 54 78.6534 54H77.7654C77.5894 54 77.4214 53.896 77.2614 53.688L70.6614 42.168H70.5654V53.664C70.5654 53.888 70.4534 54 70.2294 54ZM86.2867 52.464H88.7347C90.0787 52.464 90.7507 51.768 90.7507 50.376V42.192C90.7507 40.8 90.0787 40.104 88.7347 40.104H86.2867C84.9587 40.104 84.2947 40.8 84.2947 42.192V50.376C84.2947 51.768 84.9587 52.464 86.2867 52.464ZM88.9507 54H86.0947C84.9907 54 84.1187 53.688 83.4787 53.064C82.8547 52.44 82.5427 51.568 82.5427 50.448V42.12C82.5427 41 82.8547 40.128 83.4787 39.504C84.1187 38.88 84.9907 38.568 86.0947 38.568H88.9507C90.0547 38.568 90.9187 38.888 91.5427 39.528C92.1827 40.152 92.5027 41.016 92.5027 42.12V50.448C92.5027 51.552 92.1827 52.424 91.5427 53.064C90.9187 53.688 90.0547 54 88.9507 54ZM99.8163 54H98.7363C98.5123 54 98.4003 53.888 98.4003 53.664V40.32C98.4003 40.176 98.3203 40.104 98.1603 40.104H94.8963C94.6563 40.104 94.5363 39.992 94.5363 39.768V38.904C94.5363 38.68 94.6563 38.568 94.8963 38.568H103.656C103.896 38.568 104.016 38.68 104.016 38.904V39.768C104.016 39.992 103.896 40.104 103.656 40.104H100.392C100.232 40.104 100.152 40.176 100.152 40.32V53.664C100.152 53.888 100.04 54 99.8163 54ZM107.707 54H106.627C106.403 54 106.291 53.888 106.291 53.664V38.904C106.291 38.68 106.403 38.568 106.627 38.568H112.147C113.251 38.568 114.123 38.888 114.763 39.528C115.403 40.152 115.723 41.016 115.723 42.12V44.304C115.723 45.2 115.507 45.944 115.075 46.536C114.643 47.112 114.043 47.496 113.275 47.688V47.784L116.059 53.616C116.203 53.872 116.123 54 115.819 54H114.739C114.467 54 114.267 53.888 114.139 53.664L111.451 47.856H108.283C108.123 47.856 108.043 47.928 108.043 48.072V53.664C108.043 53.888 107.931 54 107.707 54ZM108.283 46.392H111.907C113.283 46.392 113.971 45.704 113.971 44.328V42.192C113.971 40.8 113.283 40.104 111.907 40.104H108.283C108.123 40.104 108.043 40.176 108.043 40.32V46.176C108.043 46.32 108.123 46.392 108.283 46.392ZM127.053 54H119.517C119.293 54 119.181 53.888 119.181 53.664V38.904C119.181 38.68 119.293 38.568 119.517 38.568H127.053C127.277 38.568 127.389 38.68 127.389 38.904V39.768C127.389 39.992 127.277 40.104 127.053 40.104H121.173C121.013 40.104 120.933 40.176 120.933 40.32V45.168C120.933 45.312 121.013 45.384 121.173 45.384H126.309C126.533 45.384 126.645 45.496 126.645 45.72V46.584C126.645 46.808 126.533 46.92 126.309 46.92H121.173C121.013 46.92 120.933 46.992 120.933 47.136V52.248C120.933 52.392 121.013 52.464 121.173 52.464H127.053C127.277 52.464 127.389 52.576 127.389 52.8V53.664C127.389 53.888 127.277 54 127.053 54ZM138.198 54H137.142C136.918 54 136.806 53.888 136.806 53.664V38.904C136.806 38.68 136.918 38.568 137.142 38.568H138.126C138.318 38.568 138.446 38.632 138.51 38.76L145.134 50.4H145.23V38.904C145.23 38.68 145.342 38.568 145.566 38.568H146.622C146.846 38.568 146.958 38.68 146.958 38.904V53.664C146.958 53.888 146.846 54 146.622 54H145.734C145.558 54 145.39 53.896 145.23 53.688L138.63 42.168H138.534V53.664C138.534 53.888 138.422 54 138.198 54ZM154.255 52.464H156.703C158.047 52.464 158.719 51.768 158.719 50.376V42.192C158.719 40.8 158.047 40.104 156.703 40.104H154.255C152.927 40.104 152.263 40.8 152.263 42.192V50.376C152.263 51.768 152.927 52.464 154.255 52.464ZM156.919 54H154.063C152.959 54 152.087 53.688 151.447 53.064C150.823 52.44 150.511 51.568 150.511 50.448V42.12C150.511 41 150.823 40.128 151.447 39.504C152.087 38.88 152.959 38.568 154.063 38.568H156.919C158.023 38.568 158.887 38.888 159.511 39.528C160.151 40.152 160.471 41.016 160.471 42.12V50.448C160.471 51.552 160.151 52.424 159.511 53.064C158.887 53.688 158.023 54 156.919 54ZM172.225 38.568H173.305C173.529 38.568 173.641 38.672 173.641 38.88V50.448C173.641 51.568 173.329 52.44 172.705 53.064C172.081 53.688 171.217 54 170.113 54H167.449C166.345 54 165.473 53.688 164.833 53.064C164.209 52.44 163.897 51.568 163.897 50.448V38.904C163.897 38.68 164.009 38.568 164.233 38.568H165.313C165.537 38.568 165.649 38.68 165.649 38.904V50.376C165.649 51.768 166.313 52.464 167.641 52.464H169.897C171.241 52.464 171.913 51.768 171.913 50.376V38.904C171.913 38.68 172.017 38.568 172.225 38.568ZM182.346 54H180.642C180.434 54 180.298 53.888 180.234 53.664L175.986 38.928C175.938 38.688 176.042 38.568 176.298 38.568H177.474C177.682 38.568 177.81 38.68 177.858 38.904L181.434 52.032H181.53L185.106 38.904C185.154 38.68 185.282 38.568 185.49 38.568H186.69C186.93 38.568 187.026 38.688 186.978 38.928L182.73 53.664C182.666 53.888 182.538 54 182.346 54ZM197.319 54H189.783C189.559 54 189.447 53.888 189.447 53.664V38.904C189.447 38.68 189.559 38.568 189.783 38.568H197.319C197.543 38.568 197.655 38.68 197.655 38.904V39.768C197.655 39.992 197.543 40.104 197.319 40.104H191.439C191.279 40.104 191.199 40.176 191.199 40.32V45.168C191.199 45.312 191.279 45.384 191.439 45.384H196.575C196.799 45.384 196.911 45.496 196.911 45.72V46.584C196.911 46.808 196.799 46.92 196.575 46.92H191.439C191.279 46.92 191.199 46.992 191.199 47.136V52.248C191.199 52.392 191.279 52.464 191.439 52.464H197.319C197.543 52.464 197.655 52.576 197.655 52.8V53.664C197.655 53.888 197.543 54 197.319 54ZM209.018 54H201.314C201.09 54 200.978 53.888 200.978 53.664V38.904C200.978 38.68 201.09 38.568 201.314 38.568H202.394C202.618 38.568 202.73 38.68 202.73 38.904V52.2C202.73 52.344 202.81 52.416 202.97 52.416H209.018C209.242 52.416 209.354 52.536 209.354 52.776V53.664C209.354 53.888 209.242 54 209.018 54ZM219.846 54H212.142C211.918 54 211.806 53.888 211.806 53.664V38.904C211.806 38.68 211.918 38.568 212.142 38.568H213.222C213.446 38.568 213.558 38.68 213.558 38.904V52.2C213.558 52.344 213.638 52.416 213.798 52.416H219.846C220.07 52.416 220.182 52.536 220.182 52.776V53.664C220.182 53.888 220.07 54 219.846 54ZM230.506 54H222.97C222.746 54 222.634 53.888 222.634 53.664V38.904C222.634 38.68 222.746 38.568 222.97 38.568H230.506C230.73 38.568 230.842 38.68 230.842 38.904V39.768C230.842 39.992 230.73 40.104 230.506 40.104H224.626C224.466 40.104 224.386 40.176 224.386 40.32V45.168C224.386 45.312 224.466 45.384 224.626 45.384H229.762C229.986 45.384 230.098 45.496 230.098 45.72V46.584C230.098 46.808 229.986 46.92 229.762 46.92H224.626C224.466 46.92 224.386 46.992 224.386 47.136V52.248C224.386 52.392 224.466 52.464 224.626 52.464H230.506C230.73 52.464 230.842 52.576 230.842 52.8V53.664C230.842 53.888 230.73 54 230.506 54ZM246.451 54H243.571C242.467 54 241.595 53.688 240.955 53.064C240.331 52.44 240.019 51.568 240.019 50.448V42.12C240.019 41 240.331 40.128 240.955 39.504C241.595 38.88 242.467 38.568 243.571 38.568H246.451C247.555 38.568 248.419 38.88 249.043 39.504C249.683 40.128 250.003 41 250.003 42.12V43.296C250.003 43.52 249.891 43.632 249.667 43.632H248.587C248.363 43.632 248.251 43.52 248.251 43.296V42.192C248.251 40.8 247.579 40.104 246.235 40.104H243.763C242.435 40.104 241.771 40.8 241.771 42.192V50.376C241.771 51.768 242.435 52.464 243.763 52.464H246.235C247.579 52.464 248.251 51.768 248.251 50.376V49.272C248.251 49.048 248.363 48.936 248.587 48.936H249.667C249.891 48.936 250.003 49.048 250.003 49.272V50.448C250.003 51.568 249.683 52.44 249.043 53.064C248.419 53.688 247.555 54 246.451 54ZM253.436 54H252.236C252.028 54 251.956 53.888 252.02 53.664L256.508 38.904C256.572 38.68 256.724 38.568 256.964 38.568H258.692C258.932 38.568 259.084 38.68 259.148 38.904L263.636 53.664C263.7 53.888 263.628 54 263.42 54H262.196C262.02 54 261.908 53.888 261.86 53.664L260.732 50.16H254.924L253.796 53.664C253.732 53.888 253.612 54 253.436 54ZM257.78 40.368L255.308 48.672H260.348L257.876 40.368H257.78ZM267.597 54H266.541C266.317 54 266.205 53.888 266.205 53.664V38.904C266.205 38.68 266.317 38.568 266.541 38.568H267.525C267.717 38.568 267.845 38.632 267.909 38.76L274.533 50.4H274.629V38.904C274.629 38.68 274.741 38.568 274.965 38.568H276.021C276.245 38.568 276.357 38.68 276.357 38.904V53.664C276.357 53.888 276.245 54 276.021 54H275.133C274.957 54 274.789 53.896 274.629 53.688L268.029 42.168H267.933V53.664C267.933 53.888 267.821 54 267.597 54ZM283.918 54H282.838C282.614 54 282.502 53.888 282.502 53.664V40.32C282.502 40.176 282.422 40.104 282.262 40.104H278.998C278.758 40.104 278.638 39.992 278.638 39.768V38.904C278.638 38.68 278.758 38.568 278.998 38.568H287.758C287.998 38.568 288.118 38.68 288.118 38.904V39.768C288.118 39.992 287.998 40.104 287.758 40.104H284.494C284.334 40.104 284.254 40.176 284.254 40.32V53.664C284.254 53.888 284.142 54 283.918 54ZM292.264 38.904V53.664C292.264 53.888 292.152 54 291.928 54H290.848C290.624 54 290.512 53.888 290.512 53.664V38.904C290.512 38.68 290.624 38.568 290.848 38.568H291.928C292.152 38.568 292.264 38.68 292.264 38.904ZM297.573 54H296.517C296.293 54 296.181 53.888 296.181 53.664V38.904C296.181 38.68 296.293 38.568 296.517 38.568H297.501C297.693 38.568 297.821 38.632 297.885 38.76L304.509 50.4H304.605V38.904C304.605 38.68 304.717 38.568 304.941 38.568H305.997C306.221 38.568 306.333 38.68 306.333 38.904V53.664C306.333 53.888 306.221 54 305.997 54H305.109C304.933 54 304.765 53.896 304.605 53.688L298.005 42.168H297.909V53.664C297.909 53.888 297.797 54 297.573 54ZM317.998 54H310.462C310.238 54 310.126 53.888 310.126 53.664V38.904C310.126 38.68 310.238 38.568 310.462 38.568H317.998C318.222 38.568 318.334 38.68 318.334 38.904V39.768C318.334 39.992 318.222 40.104 317.998 40.104H312.118C311.958 40.104 311.878 40.176 311.878 40.32V45.168C311.878 45.312 311.958 45.384 312.118 45.384H317.254C317.478 45.384 317.59 45.496 317.59 45.72V46.584C317.59 46.808 317.478 46.92 317.254 46.92H312.118C311.958 46.92 311.878 46.992 311.878 47.136V52.248C311.878 52.392 311.958 52.464 312.118 52.464H317.998C318.222 52.464 318.334 52.576 318.334 52.8V53.664C318.334 53.888 318.222 54 317.998 54ZM329.167 54H328.087C327.863 54 327.751 53.888 327.751 53.664V38.904C327.751 38.68 327.863 38.568 328.087 38.568H333.703C334.807 38.568 335.671 38.888 336.295 39.528C336.919 40.152 337.231 41.016 337.231 42.12V44.784C337.231 45.904 336.919 46.776 336.295 47.4C335.671 48.024 334.807 48.336 333.703 48.336H329.743C329.583 48.336 329.503 48.408 329.503 48.552V53.664C329.503 53.888 329.391 54 329.167 54ZM329.743 46.776H333.463C334.807 46.776 335.479 46.088 335.479 44.712V42.192C335.479 40.8 334.807 40.104 333.463 40.104H329.743C329.583 40.104 329.503 40.176 329.503 40.32V46.56C329.503 46.704 329.583 46.776 329.743 46.776ZM341.8 54H340.72C340.496 54 340.384 53.888 340.384 53.664V38.904C340.384 38.68 340.496 38.568 340.72 38.568H346.24C347.344 38.568 348.216 38.888 348.856 39.528C349.496 40.152 349.816 41.016 349.816 42.12V44.304C349.816 45.2 349.6 45.944 349.168 46.536C348.736 47.112 348.136 47.496 347.368 47.688V47.784L350.152 53.616C350.296 53.872 350.216 54 349.912 54H348.832C348.56 54 348.36 53.888 348.232 53.664L345.544 47.856H342.376C342.216 47.856 342.136 47.928 342.136 48.072V53.664C342.136 53.888 342.024 54 341.8 54ZM342.376 46.392H346C347.376 46.392 348.064 45.704 348.064 44.328V42.192C348.064 40.8 347.376 40.104 346 40.104H342.376C342.216 40.104 342.136 40.176 342.136 40.32V46.176C342.136 46.32 342.216 46.392 342.376 46.392ZM358.507 33.936H359.947C360.059 33.936 360.131 33.968 360.163 34.032C360.195 34.096 360.179 34.176 360.115 34.272L358.003 36.792C357.875 36.952 357.723 37.032 357.547 37.032H356.755C356.531 37.032 356.483 36.92 356.611 36.696L357.979 34.248C358.091 34.04 358.267 33.936 358.507 33.936ZM361.147 54H353.611C353.387 54 353.275 53.888 353.275 53.664V38.904C353.275 38.68 353.387 38.568 353.611 38.568H361.147C361.371 38.568 361.483 38.68 361.483 38.904V39.768C361.483 39.992 361.371 40.104 361.147 40.104H355.267C355.107 40.104 355.027 40.176 355.027 40.32V45.168C355.027 45.312 355.107 45.384 355.267 45.384H360.403C360.627 45.384 360.739 45.496 360.739 45.72V46.584C360.739 46.808 360.627 46.92 360.403 46.92H355.267C355.107 46.92 355.027 46.992 355.027 47.136V52.248C355.027 52.392 355.107 52.464 355.267 52.464H361.147C361.371 52.464 361.483 52.576 361.483 52.8V53.664C361.483 53.888 361.371 54 361.147 54ZM366.222 54H365.142C364.918 54 364.806 53.888 364.806 53.664V38.904C364.806 38.68 364.918 38.568 365.142 38.568H372.606C372.83 38.568 372.942 38.68 372.942 38.904V39.768C372.942 39.992 372.83 40.104 372.606 40.104H366.798C366.638 40.104 366.558 40.176 366.558 40.32V45.552C366.558 45.696 366.638 45.768 366.798 45.768H371.934C372.158 45.768 372.27 45.88 372.27 46.104V46.968C372.27 47.192 372.158 47.304 371.934 47.304H366.798C366.638 47.304 366.558 47.384 366.558 47.544V53.664C366.558 53.888 366.446 54 366.222 54ZM381.007 33.936H382.447C382.559 33.936 382.631 33.968 382.663 34.032C382.695 34.096 382.679 34.176 382.615 34.272L380.503 36.792C380.375 36.952 380.223 37.032 380.047 37.032H379.255C379.031 37.032 378.983 36.92 379.111 36.696L380.479 34.248C380.591 34.04 380.767 33.936 381.007 33.936ZM383.647 54H376.111C375.887 54 375.775 53.888 375.775 53.664V38.904C375.775 38.68 375.887 38.568 376.111 38.568H383.647C383.871 38.568 383.983 38.68 383.983 38.904V39.768C383.983 39.992 383.871 40.104 383.647 40.104H377.767C377.607 40.104 377.527 40.176 377.527 40.32V45.168C377.527 45.312 377.607 45.384 377.767 45.384H382.903C383.127 45.384 383.239 45.496 383.239 45.72V46.584C383.239 46.808 383.127 46.92 382.903 46.92H377.767C377.607 46.92 377.527 46.992 377.527 47.136V52.248C377.527 52.392 377.607 52.464 377.767 52.464H383.647C383.871 52.464 383.983 52.576 383.983 52.8V53.664C383.983 53.888 383.871 54 383.647 54ZM388.722 54H387.642C387.418 54 387.306 53.888 387.306 53.664V38.904C387.306 38.68 387.418 38.568 387.642 38.568H393.162C394.266 38.568 395.138 38.888 395.778 39.528C396.418 40.152 396.738 41.016 396.738 42.12V44.304C396.738 45.2 396.522 45.944 396.09 46.536C395.658 47.112 395.058 47.496 394.29 47.688V47.784L397.074 53.616C397.218 53.872 397.138 54 396.834 54H395.754C395.482 54 395.282 53.888 395.154 53.664L392.466 47.856H389.298C389.138 47.856 389.058 47.928 389.058 48.072V53.664C389.058 53.888 388.946 54 388.722 54ZM389.298 46.392H392.922C394.298 46.392 394.986 45.704 394.986 44.328V42.192C394.986 40.8 394.298 40.104 392.922 40.104H389.298C389.138 40.104 389.058 40.176 389.058 40.32V46.176C389.058 46.32 389.138 46.392 389.298 46.392ZM405.429 33.936H406.869C406.981 33.936 407.053 33.968 407.085 34.032C407.117 34.096 407.101 34.176 407.037 34.272L404.925 36.792C404.797 36.952 404.645 37.032 404.469 37.032H403.677C403.453 37.032 403.405 36.92 403.533 36.696L404.901 34.248C405.013 34.04 405.189 33.936 405.429 33.936ZM408.069 54H400.533C400.309 54 400.197 53.888 400.197 53.664V38.904C400.197 38.68 400.309 38.568 400.533 38.568H408.069C408.293 38.568 408.405 38.68 408.405 38.904V39.768C408.405 39.992 408.293 40.104 408.069 40.104H402.189C402.029 40.104 401.949 40.176 401.949 40.32V45.168C401.949 45.312 402.029 45.384 402.189 45.384H407.325C407.549 45.384 407.661 45.496 407.661 45.72V46.584C407.661 46.808 407.549 46.92 407.325 46.92H402.189C402.029 46.92 401.949 46.992 401.949 47.136V52.248C401.949 52.392 402.029 52.464 402.189 52.464H408.069C408.293 52.464 408.405 52.576 408.405 52.8V53.664C408.405 53.888 408.293 54 408.069 54ZM419.6 54H412.064C411.84 54 411.728 53.888 411.728 53.664V38.904C411.728 38.68 411.84 38.568 412.064 38.568H419.6C419.824 38.568 419.936 38.68 419.936 38.904V39.768C419.936 39.992 419.824 40.104 419.6 40.104H413.72C413.56 40.104 413.48 40.176 413.48 40.32V45.168C413.48 45.312 413.56 45.384 413.72 45.384H418.856C419.08 45.384 419.192 45.496 419.192 45.72V46.584C419.192 46.808 419.08 46.92 418.856 46.92H413.72C413.56 46.92 413.48 46.992 413.48 47.136V52.248C413.48 52.392 413.56 52.464 413.72 52.464H419.6C419.824 52.464 419.936 52.576 419.936 52.8V53.664C419.936 53.888 419.824 54 419.6 54ZM432.857 52.464H435.305C436.649 52.464 437.321 51.768 437.321 50.376V42.192C437.321 40.8 436.649 40.104 435.305 40.104H432.857C431.529 40.104 430.865 40.8 430.865 42.192V50.376C430.865 51.768 431.529 52.464 432.857 52.464ZM435.521 54H432.665C431.561 54 430.689 53.688 430.049 53.064C429.425 52.44 429.113 51.568 429.113 50.448V42.12C429.113 41 429.425 40.128 430.049 39.504C430.689 38.88 431.561 38.568 432.665 38.568H435.521C436.625 38.568 437.489 38.888 438.113 39.528C438.753 40.152 439.073 41.016 439.073 42.12V50.448C439.073 51.552 438.753 52.424 438.113 53.064C437.489 53.688 436.625 54 435.521 54ZM450.827 38.568H451.907C452.131 38.568 452.243 38.672 452.243 38.88V50.448C452.243 51.568 451.931 52.44 451.307 53.064C450.683 53.688 449.819 54 448.715 54H446.051C444.947 54 444.075 53.688 443.435 53.064C442.811 52.44 442.499 51.568 442.499 50.448V38.904C442.499 38.68 442.611 38.568 442.835 38.568H443.915C444.139 38.568 444.251 38.68 444.251 38.904V50.376C444.251 51.768 444.915 52.464 446.243 52.464H448.499C449.843 52.464 450.515 51.768 450.515 50.376V38.904C450.515 38.68 450.619 38.568 450.827 38.568ZM470.041 54H462.337C462.113 54 462.001 53.888 462.001 53.664V38.904C462.001 38.68 462.113 38.568 462.337 38.568H463.417C463.641 38.568 463.753 38.68 463.753 38.904V52.2C463.753 52.344 463.833 52.416 463.993 52.416H470.041C470.265 52.416 470.377 52.536 470.377 52.776V53.664C470.377 53.888 470.265 54 470.041 54ZM480.702 54H473.166C472.942 54 472.83 53.888 472.83 53.664V38.904C472.83 38.68 472.942 38.568 473.166 38.568H480.702C480.926 38.568 481.038 38.68 481.038 38.904V39.768C481.038 39.992 480.926 40.104 480.702 40.104H474.822C474.662 40.104 474.582 40.176 474.582 40.32V45.168C474.582 45.312 474.662 45.384 474.822 45.384H479.958C480.182 45.384 480.294 45.496 480.294 45.72V46.584C480.294 46.808 480.182 46.92 479.958 46.92H474.822C474.662 46.92 474.582 46.992 474.582 47.136V52.248C474.582 52.392 474.662 52.464 474.822 52.464H480.702C480.926 52.464 481.038 52.576 481.038 52.8V53.664C481.038 53.888 480.926 54 480.702 54ZM496.647 54H493.767C492.663 54 491.791 53.688 491.151 53.064C490.527 52.44 490.215 51.568 490.215 50.448V42.12C490.215 41 490.527 40.128 491.151 39.504C491.791 38.88 492.663 38.568 493.767 38.568H496.647C497.751 38.568 498.615 38.88 499.239 39.504C499.879 40.128 500.199 41 500.199 42.12V43.296C500.199 43.52 500.087 43.632 499.863 43.632H498.783C498.559 43.632 498.447 43.52 498.447 43.296V42.192C498.447 40.8 497.775 40.104 496.431 40.104H493.959C492.631 40.104 491.967 40.8 491.967 42.192V50.376C491.967 51.768 492.631 52.464 493.959 52.464H496.431C497.775 52.464 498.447 51.768 498.447 50.376V49.272C498.447 49.048 498.559 48.936 498.783 48.936H499.863C500.087 48.936 500.199 49.048 500.199 49.272V50.448C500.199 51.568 499.879 52.44 499.239 53.064C498.615 53.688 497.751 54 496.647 54ZM503.631 54H502.431C502.223 54 502.151 53.888 502.215 53.664L506.703 38.904C506.767 38.68 506.919 38.568 507.159 38.568H508.887C509.127 38.568 509.279 38.68 509.343 38.904L513.831 53.664C513.895 53.888 513.823 54 513.615 54H512.391C512.215 54 512.103 53.888 512.055 53.664L510.927 50.16H505.119L503.991 53.664C503.927 53.888 503.807 54 503.631 54ZM507.975 40.368L505.503 48.672H510.543L508.071 40.368H507.975ZM517.816 54H516.736C516.512 54 516.4 53.888 516.4 53.664V38.904C516.4 38.68 516.512 38.568 516.736 38.568H522.256C523.36 38.568 524.232 38.888 524.872 39.528C525.512 40.152 525.832 41.016 525.832 42.12V44.304C525.832 45.2 525.616 45.944 525.184 46.536C524.752 47.112 524.152 47.496 523.384 47.688V47.784L526.168 53.616C526.312 53.872 526.232 54 525.928 54H524.848C524.576 54 524.376 53.888 524.248 53.664L521.56 47.856H518.392C518.232 47.856 518.152 47.928 518.152 48.072V53.664C518.152 53.888 518.04 54 517.816 54ZM518.392 46.392H522.016C523.392 46.392 524.08 45.704 524.08 44.328V42.192C524.08 40.8 523.392 40.104 522.016 40.104H518.392C518.232 40.104 518.152 40.176 518.152 40.32V46.176C518.152 46.32 518.232 46.392 518.392 46.392ZM533.059 54H531.979C531.755 54 531.643 53.888 531.643 53.664V40.32C531.643 40.176 531.563 40.104 531.403 40.104H528.139C527.899 40.104 527.779 39.992 527.779 39.768V38.904C527.779 38.68 527.899 38.568 528.139 38.568H536.899C537.139 38.568 537.259 38.68 537.259 38.904V39.768C537.259 39.992 537.139 40.104 536.899 40.104H533.635C533.475 40.104 533.395 40.176 533.395 40.32V53.664C533.395 53.888 533.283 54 533.059 54ZM547.405 54H539.869C539.645 54 539.533 53.888 539.533 53.664V38.904C539.533 38.68 539.645 38.568 539.869 38.568H547.405C547.629 38.568 547.741 38.68 547.741 38.904V39.768C547.741 39.992 547.629 40.104 547.405 40.104H541.525C541.365 40.104 541.285 40.176 541.285 40.32V45.168C541.285 45.312 541.365 45.384 541.525 45.384H546.661C546.885 45.384 546.997 45.496 546.997 45.72V46.584C546.997 46.808 546.885 46.92 546.661 46.92H541.525C541.365 46.92 541.285 46.992 541.285 47.136V52.248C541.285 52.392 541.365 52.464 541.525 52.464H547.405C547.629 52.464 547.741 52.576 547.741 52.8V53.664C547.741 53.888 547.629 54 547.405 54ZM152.271 86.448V85.68C152.271 85.456 152.383 85.344 152.607 85.344H153.687C153.911 85.344 154.023 85.456 154.023 85.68V86.304C154.023 87.744 154.735 88.464 156.159 88.464H158.271C159.695 88.464 160.407 87.728 160.407 86.256V85.44C160.407 84.288 159.455 83.536 157.551 83.184C156.751 83.04 155.951 82.872 155.151 82.68C154.351 82.488 153.671 82.12 153.111 81.576C152.551 81.016 152.271 80.256 152.271 79.296V78.12C152.271 77.016 152.583 76.152 153.207 75.528C153.847 74.888 154.719 74.568 155.823 74.568H158.487C159.575 74.568 160.439 74.888 161.079 75.528C161.719 76.152 162.039 77.016 162.039 78.12V78.72C162.039 78.96 161.935 79.08 161.727 79.08H160.623C160.415 79.08 160.311 78.96 160.311 78.72V78.288C160.311 76.832 159.599 76.104 158.175 76.104H156.135C154.711 76.104 153.999 76.864 153.999 78.384V79.344C153.999 80.16 154.535 80.72 155.607 81.024C156.087 81.152 156.615 81.272 157.191 81.384C157.767 81.48 158.343 81.616 158.919 81.792C159.511 81.952 160.047 82.16 160.527 82.416C161.007 82.656 161.391 83.032 161.679 83.544C161.983 84.04 162.135 84.648 162.135 85.368V86.448C162.135 87.552 161.815 88.424 161.175 89.064C160.535 89.688 159.671 90 158.583 90H155.823C154.735 90 153.871 89.688 153.231 89.064C152.591 88.424 152.271 87.552 152.271 86.448ZM173.623 90H166.087C165.863 90 165.751 89.888 165.751 89.664V74.904C165.751 74.68 165.863 74.568 166.087 74.568H173.623C173.847 74.568 173.959 74.68 173.959 74.904V75.768C173.959 75.992 173.847 76.104 173.623 76.104H167.743C167.583 76.104 167.503 76.176 167.503 76.32V81.168C167.503 81.312 167.583 81.384 167.743 81.384H172.879C173.103 81.384 173.215 81.496 173.215 81.72V82.584C173.215 82.808 173.103 82.92 172.879 82.92H167.743C167.583 82.92 167.503 82.992 167.503 83.136V88.248C167.503 88.392 167.583 88.464 167.743 88.464H173.623C173.847 88.464 173.959 88.576 173.959 88.8V89.664C173.959 89.888 173.847 90 173.623 90ZM184.792 90H183.712C183.488 90 183.376 89.888 183.376 89.664V74.904C183.376 74.68 183.488 74.568 183.712 74.568H189.232C190.336 74.568 191.208 74.888 191.848 75.528C192.488 76.152 192.808 77.016 192.808 78.12V80.304C192.808 81.2 192.592 81.944 192.16 82.536C191.728 83.112 191.128 83.496 190.36 83.688V83.784L193.144 89.616C193.288 89.872 193.208 90 192.904 90H191.824C191.552 90 191.352 89.888 191.224 89.664L188.536 83.856H185.368C185.208 83.856 185.128 83.928 185.128 84.072V89.664C185.128 89.888 185.016 90 184.792 90ZM185.368 82.392H188.992C190.368 82.392 191.056 81.704 191.056 80.328V78.192C191.056 76.8 190.368 76.104 188.992 76.104H185.368C185.208 76.104 185.128 76.176 185.128 76.32V82.176C185.128 82.32 185.208 82.392 185.368 82.392ZM204.139 90H196.603C196.379 90 196.267 89.888 196.267 89.664V74.904C196.267 74.68 196.379 74.568 196.603 74.568H204.139C204.363 74.568 204.475 74.68 204.475 74.904V75.768C204.475 75.992 204.363 76.104 204.139 76.104H198.259C198.099 76.104 198.019 76.176 198.019 76.32V81.168C198.019 81.312 198.099 81.384 198.259 81.384H203.395C203.619 81.384 203.731 81.496 203.731 81.72V82.584C203.731 82.808 203.619 82.92 203.395 82.92H198.259C198.099 82.92 198.019 82.992 198.019 83.136V88.248C198.019 88.392 198.099 88.464 198.259 88.464H204.139C204.363 88.464 204.475 88.576 204.475 88.8V89.664C204.475 89.888 204.363 90 204.139 90ZM209.19 90H208.134C207.91 90 207.798 89.888 207.798 89.664V74.904C207.798 74.68 207.91 74.568 208.134 74.568H209.118C209.31 74.568 209.438 74.632 209.502 74.76L216.126 86.4H216.222V74.904C216.222 74.68 216.334 74.568 216.558 74.568H217.614C217.838 74.568 217.95 74.68 217.95 74.904V89.664C217.95 89.888 217.838 90 217.614 90H216.726C216.55 90 216.382 89.896 216.222 89.688L209.622 78.168H209.526V89.664C209.526 89.888 209.414 90 209.19 90ZM225.248 88.464H227.696C229.04 88.464 229.712 87.768 229.712 86.376V78.192C229.712 76.8 229.04 76.104 227.696 76.104H225.248C223.92 76.104 223.256 76.8 223.256 78.192V86.376C223.256 87.768 223.92 88.464 225.248 88.464ZM227.912 90H225.056C223.952 90 223.08 89.688 222.44 89.064C221.816 88.44 221.504 87.568 221.504 86.448V78.12C221.504 77 221.816 76.128 222.44 75.504C223.08 74.88 223.952 74.568 225.056 74.568H227.912C229.016 74.568 229.88 74.888 230.504 75.528C231.144 76.152 231.464 77.016 231.464 78.12V86.448C231.464 87.552 231.144 88.424 230.504 89.064C229.88 89.688 229.016 90 227.912 90ZM243.217 74.568H244.297C244.521 74.568 244.633 74.672 244.633 74.88V86.448C244.633 87.568 244.321 88.44 243.697 89.064C243.073 89.688 242.209 90 241.105 90H238.441C237.337 90 236.465 89.688 235.825 89.064C235.201 88.44 234.889 87.568 234.889 86.448V74.904C234.889 74.68 235.001 74.568 235.225 74.568H236.305C236.529 74.568 236.641 74.68 236.641 74.904V86.376C236.641 87.768 237.305 88.464 238.633 88.464H240.889C242.233 88.464 242.905 87.768 242.905 86.376V74.904C242.905 74.68 243.009 74.568 243.217 74.568ZM253.338 90H251.634C251.426 90 251.29 89.888 251.226 89.664L246.978 74.928C246.93 74.688 247.034 74.568 247.29 74.568H248.466C248.674 74.568 248.802 74.68 248.85 74.904L252.426 88.032H252.522L256.098 74.904C256.146 74.68 256.274 74.568 256.482 74.568H257.682C257.922 74.568 258.018 74.688 257.97 74.928L253.722 89.664C253.658 89.888 253.53 90 253.338 90ZM268.311 90H260.775C260.551 90 260.439 89.888 260.439 89.664V74.904C260.439 74.68 260.551 74.568 260.775 74.568H268.311C268.535 74.568 268.647 74.68 268.647 74.904V75.768C268.647 75.992 268.535 76.104 268.311 76.104H262.431C262.271 76.104 262.191 76.176 262.191 76.32V81.168C262.191 81.312 262.271 81.384 262.431 81.384H267.567C267.791 81.384 267.903 81.496 267.903 81.72V82.584C267.903 82.808 267.791 82.92 267.567 82.92H262.431C262.271 82.92 262.191 82.992 262.191 83.136V88.248C262.191 88.392 262.271 88.464 262.431 88.464H268.311C268.535 88.464 268.647 88.576 268.647 88.8V89.664C268.647 89.888 268.535 90 268.311 90ZM280.01 90H272.306C272.082 90 271.97 89.888 271.97 89.664V74.904C271.97 74.68 272.082 74.568 272.306 74.568H273.386C273.61 74.568 273.722 74.68 273.722 74.904V88.2C273.722 88.344 273.802 88.416 273.962 88.416H280.01C280.234 88.416 280.346 88.536 280.346 88.776V89.664C280.346 89.888 280.234 90 280.01 90ZM290.838 90H283.134C282.91 90 282.798 89.888 282.798 89.664V74.904C282.798 74.68 282.91 74.568 283.134 74.568H284.214C284.438 74.568 284.55 74.68 284.55 74.904V88.2C284.55 88.344 284.63 88.416 284.79 88.416H290.838C291.062 88.416 291.174 88.536 291.174 88.776V89.664C291.174 89.888 291.062 90 290.838 90ZM301.498 90H293.962C293.738 90 293.626 89.888 293.626 89.664V74.904C293.626 74.68 293.738 74.568 293.962 74.568H301.498C301.722 74.568 301.834 74.68 301.834 74.904V75.768C301.834 75.992 301.722 76.104 301.498 76.104H295.618C295.458 76.104 295.378 76.176 295.378 76.32V81.168C295.378 81.312 295.458 81.384 295.618 81.384H300.754C300.978 81.384 301.09 81.496 301.09 81.72V82.584C301.09 82.808 300.978 82.92 300.754 82.92H295.618C295.458 82.92 295.378 82.992 295.378 83.136V88.248C295.378 88.392 295.458 88.464 295.618 88.464H301.498C301.722 88.464 301.834 88.576 301.834 88.8V89.664C301.834 89.888 301.722 90 301.498 90ZM311.083 86.448V85.68C311.083 85.456 311.195 85.344 311.419 85.344H312.499C312.723 85.344 312.835 85.456 312.835 85.68V86.304C312.835 87.744 313.547 88.464 314.971 88.464H317.083C318.507 88.464 319.219 87.728 319.219 86.256V85.44C319.219 84.288 318.267 83.536 316.363 83.184C315.563 83.04 314.763 82.872 313.963 82.68C313.163 82.488 312.483 82.12 311.923 81.576C311.363 81.016 311.083 80.256 311.083 79.296V78.12C311.083 77.016 311.395 76.152 312.019 75.528C312.659 74.888 313.531 74.568 314.635 74.568H317.299C318.387 74.568 319.251 74.888 319.891 75.528C320.531 76.152 320.851 77.016 320.851 78.12V78.72C320.851 78.96 320.747 79.08 320.539 79.08H319.435C319.227 79.08 319.123 78.96 319.123 78.72V78.288C319.123 76.832 318.411 76.104 316.987 76.104H314.947C313.523 76.104 312.811 76.864 312.811 78.384V79.344C312.811 80.16 313.347 80.72 314.419 81.024C314.899 81.152 315.427 81.272 316.003 81.384C316.579 81.48 317.155 81.616 317.731 81.792C318.323 81.952 318.859 82.16 319.339 82.416C319.819 82.656 320.203 83.032 320.491 83.544C320.795 84.04 320.947 84.648 320.947 85.368V86.448C320.947 87.552 320.627 88.424 319.987 89.064C319.347 89.688 318.483 90 317.395 90H314.635C313.547 90 312.683 89.688 312.043 89.064C311.403 88.424 311.083 87.552 311.083 86.448ZM324.756 90H323.556C323.348 90 323.276 89.888 323.34 89.664L327.828 74.904C327.892 74.68 328.044 74.568 328.284 74.568H330.012C330.252 74.568 330.404 74.68 330.468 74.904L334.956 89.664C335.02 89.888 334.948 90 334.74 90H333.516C333.34 90 333.228 89.888 333.18 89.664L332.052 86.16H326.244L325.116 89.664C325.052 89.888 324.932 90 324.756 90ZM329.1 76.368L326.628 84.672H331.668L329.196 76.368H329.1ZM338.917 90H337.861C337.637 90 337.525 89.888 337.525 89.664V74.904C337.525 74.68 337.637 74.568 337.861 74.568H338.845C339.037 74.568 339.165 74.632 339.229 74.76L345.853 86.4H345.949V74.904C345.949 74.68 346.061 74.568 346.285 74.568H347.341C347.565 74.568 347.677 74.68 347.677 74.904V89.664C347.677 89.888 347.565 90 347.341 90H346.453C346.277 90 346.109 89.896 345.949 89.688L339.349 78.168H339.253V89.664C339.253 89.888 339.141 90 338.917 90ZM351.302 86.448V85.68C351.302 85.456 351.414 85.344 351.638 85.344H352.718C352.942 85.344 353.054 85.456 353.054 85.68V86.304C353.054 87.744 353.766 88.464 355.19 88.464H357.302C358.726 88.464 359.438 87.728 359.438 86.256V85.44C359.438 84.288 358.486 83.536 356.582 83.184C355.782 83.04 354.982 82.872 354.182 82.68C353.382 82.488 352.702 82.12 352.142 81.576C351.582 81.016 351.302 80.256 351.302 79.296V78.12C351.302 77.016 351.614 76.152 352.238 75.528C352.878 74.888 353.75 74.568 354.854 74.568H357.518C358.606 74.568 359.47 74.888 360.11 75.528C360.75 76.152 361.07 77.016 361.07 78.12V78.72C361.07 78.96 360.966 79.08 360.758 79.08H359.654C359.446 79.08 359.342 78.96 359.342 78.72V78.288C359.342 76.832 358.63 76.104 357.206 76.104H355.166C353.742 76.104 353.03 76.864 353.03 78.384V79.344C353.03 80.16 353.566 80.72 354.638 81.024C355.118 81.152 355.646 81.272 356.222 81.384C356.798 81.48 357.374 81.616 357.95 81.792C358.542 81.952 359.078 82.16 359.558 82.416C360.038 82.656 360.422 83.032 360.71 83.544C361.014 84.04 361.166 84.648 361.166 85.368V86.448C361.166 87.552 360.846 88.424 360.206 89.064C359.566 89.688 358.702 90 357.614 90H354.854C353.766 90 352.902 89.688 352.262 89.064C351.622 88.424 351.302 87.552 351.302 86.448ZM377.068 90H374.188C373.084 90 372.212 89.688 371.572 89.064C370.948 88.44 370.636 87.568 370.636 86.448V78.12C370.636 77 370.948 76.128 371.572 75.504C372.212 74.88 373.084 74.568 374.188 74.568H377.068C378.172 74.568 379.036 74.88 379.66 75.504C380.3 76.128 380.62 77 380.62 78.12V79.296C380.62 79.52 380.508 79.632 380.284 79.632H379.204C378.98 79.632 378.868 79.52 378.868 79.296V78.192C378.868 76.8 378.196 76.104 376.852 76.104H374.38C373.052 76.104 372.388 76.8 372.388 78.192V86.376C372.388 87.768 373.052 88.464 374.38 88.464H376.852C378.196 88.464 378.868 87.768 378.868 86.376V85.272C378.868 85.048 378.98 84.936 379.204 84.936H380.284C380.508 84.936 380.62 85.048 380.62 85.272V86.448C380.62 87.568 380.3 88.44 379.66 89.064C379.036 89.688 378.172 90 377.068 90ZM391.733 90H384.197C383.973 90 383.861 89.888 383.861 89.664V74.904C383.861 74.68 383.973 74.568 384.197 74.568H391.733C391.957 74.568 392.069 74.68 392.069 74.904V75.768C392.069 75.992 391.957 76.104 391.733 76.104H385.853C385.693 76.104 385.613 76.176 385.613 76.32V81.168C385.613 81.312 385.693 81.384 385.853 81.384H390.989C391.213 81.384 391.325 81.496 391.325 81.72V82.584C391.325 82.808 391.213 82.92 390.989 82.92H385.853C385.693 82.92 385.613 82.992 385.613 83.136V88.248C385.613 88.392 385.693 88.464 385.853 88.464H391.733C391.957 88.464 392.069 88.576 392.069 88.8V89.664C392.069 89.888 391.957 90 391.733 90ZM395.224 86.448V85.68C395.224 85.456 395.336 85.344 395.56 85.344H396.64C396.864 85.344 396.976 85.456 396.976 85.68V86.304C396.976 87.744 397.688 88.464 399.112 88.464H401.224C402.648 88.464 403.36 87.728 403.36 86.256V85.44C403.36 84.288 402.408 83.536 400.504 83.184C399.704 83.04 398.904 82.872 398.104 82.68C397.304 82.488 396.624 82.12 396.064 81.576C395.504 81.016 395.224 80.256 395.224 79.296V78.12C395.224 77.016 395.536 76.152 396.16 75.528C396.8 74.888 397.672 74.568 398.776 74.568H401.44C402.528 74.568 403.392 74.888 404.032 75.528C404.672 76.152 404.992 77.016 404.992 78.12V78.72C404.992 78.96 404.888 79.08 404.68 79.08H403.576C403.368 79.08 403.264 78.96 403.264 78.72V78.288C403.264 76.832 402.552 76.104 401.128 76.104H399.088C397.664 76.104 396.952 76.864 396.952 78.384V79.344C396.952 80.16 397.488 80.72 398.56 81.024C399.04 81.152 399.568 81.272 400.144 81.384C400.72 81.48 401.296 81.616 401.872 81.792C402.464 81.952 403 82.16 403.48 82.416C403.96 82.656 404.344 83.032 404.632 83.544C404.936 84.04 405.088 84.648 405.088 85.368V86.448C405.088 87.552 404.768 88.424 404.128 89.064C403.488 89.688 402.624 90 401.536 90H398.776C397.688 90 396.824 89.688 396.184 89.064C395.544 88.424 395.224 87.552 395.224 86.448ZM408.537 86.448V85.68C408.537 85.456 408.649 85.344 408.873 85.344H409.953C410.177 85.344 410.289 85.456 410.289 85.68V86.304C410.289 87.744 411.001 88.464 412.425 88.464H414.537C415.961 88.464 416.673 87.728 416.673 86.256V85.44C416.673 84.288 415.721 83.536 413.817 83.184C413.017 83.04 412.217 82.872 411.417 82.68C410.617 82.488 409.937 82.12 409.377 81.576C408.817 81.016 408.537 80.256 408.537 79.296V78.12C408.537 77.016 408.849 76.152 409.473 75.528C410.113 74.888 410.985 74.568 412.089 74.568H414.753C415.841 74.568 416.705 74.888 417.345 75.528C417.985 76.152 418.305 77.016 418.305 78.12V78.72C418.305 78.96 418.201 79.08 417.993 79.08H416.889C416.681 79.08 416.577 78.96 416.577 78.72V78.288C416.577 76.832 415.865 76.104 414.441 76.104H412.401C410.977 76.104 410.265 76.864 410.265 78.384V79.344C410.265 80.16 410.801 80.72 411.873 81.024C412.353 81.152 412.881 81.272 413.457 81.384C414.033 81.48 414.609 81.616 415.185 81.792C415.777 81.952 416.313 82.16 416.793 82.416C417.273 82.656 417.657 83.032 417.945 83.544C418.249 84.04 418.401 84.648 418.401 85.368V86.448C418.401 87.552 418.081 88.424 417.441 89.064C416.801 89.688 415.937 90 414.849 90H412.089C411.001 90 410.137 89.688 409.497 89.064C408.857 88.424 408.537 87.552 408.537 86.448ZM429.889 90H422.353C422.129 90 422.017 89.888 422.017 89.664V74.904C422.017 74.68 422.129 74.568 422.353 74.568H429.889C430.113 74.568 430.225 74.68 430.225 74.904V75.768C430.225 75.992 430.113 76.104 429.889 76.104H424.009C423.849 76.104 423.769 76.176 423.769 76.32V81.168C423.769 81.312 423.849 81.384 424.009 81.384H429.145C429.369 81.384 429.481 81.496 429.481 81.72V82.584C429.481 82.808 429.369 82.92 429.145 82.92H424.009C423.849 82.92 423.769 82.992 423.769 83.136V88.248C423.769 88.392 423.849 88.464 424.009 88.464H429.889C430.113 88.464 430.225 88.576 430.225 88.8V89.664C430.225 89.888 430.113 90 429.889 90ZM439.618 77.688V74.904C439.618 74.68 439.73 74.568 439.954 74.568H441.226C441.45 74.568 441.562 74.68 441.562 74.904V77.688C441.562 79.208 441.514 80.688 441.418 82.128C441.322 83.568 441.258 84.384 441.226 84.576C441.194 84.768 441.09 84.864 440.914 84.864H440.266C440.058 84.864 439.946 84.744 439.93 84.504C439.866 83.88 439.794 82.784 439.714 81.216C439.65 79.648 439.618 78.472 439.618 77.688ZM441.514 86.76V89.664C441.514 89.888 441.402 90 441.178 90H440.026C439.818 90 439.714 89.88 439.714 89.64V86.76C439.714 86.552 439.818 86.448 440.026 86.448H441.178C441.402 86.448 441.514 86.552 441.514 86.76ZM446.441 74.88V76.272C446.441 76.64 446.329 77.16 446.105 77.832L445.289 80.112C445.241 80.224 445.153 80.28 445.025 80.28C444.849 80.28 444.761 80.184 444.761 79.992V74.904C444.761 74.68 444.873 74.568 445.097 74.568H446.129C446.337 74.568 446.441 74.672 446.441 74.88ZM450.137 74.88V76.272C450.137 76.672 450.017 77.192 449.777 77.832L448.985 80.112C448.937 80.224 448.833 80.28 448.673 80.28C448.529 80.28 448.457 80.184 448.457 79.992V74.904C448.457 74.68 448.561 74.568 448.769 74.568H449.825C450.033 74.568 450.137 74.672 450.137 74.88Z" fill="#686666"/>
    <path d="M200.166 113.4H204.198C205.242 113.4 206.166 113.652 206.97 114.156C207.786 114.66 208.422 115.386 208.878 116.334C209.334 117.282 209.562 118.404 209.562 119.7C209.562 120.996 209.334 122.118 208.878 123.066C208.422 124.014 207.786 124.74 206.97 125.244C206.166 125.748 205.242 126 204.198 126H200.166V113.4ZM203.892 124.506C205.152 124.506 206.106 124.086 206.754 123.246C207.414 122.406 207.744 121.224 207.744 119.7C207.744 118.176 207.414 116.994 206.754 116.154C206.106 115.314 205.152 114.894 203.892 114.894H201.804V124.506H203.892ZM214.714 126.18C213.826 126.18 213.064 125.976 212.428 125.568C211.804 125.148 211.33 124.584 211.006 123.876C210.694 123.168 210.538 122.382 210.538 121.518C210.538 120.69 210.682 119.934 210.97 119.25C211.27 118.554 211.696 118.008 212.248 117.612C212.812 117.204 213.478 117 214.246 117C215.23 117 216.028 117.33 216.64 117.99C217.264 118.65 217.576 119.562 217.576 120.726C217.576 120.93 217.552 121.212 217.504 121.572H212.14C212.176 122.616 212.434 123.408 212.914 123.948C213.406 124.488 214.042 124.758 214.822 124.758C215.194 124.758 215.584 124.716 215.992 124.632C216.412 124.536 216.778 124.404 217.09 124.236L217.234 125.64C216.574 126 215.734 126.18 214.714 126.18ZM215.974 120.474C215.974 119.874 215.824 119.388 215.524 119.016C215.236 118.632 214.816 118.44 214.264 118.44C213.724 118.44 213.274 118.608 212.914 118.944C212.566 119.28 212.332 119.79 212.212 120.474H215.974ZM212.95 114.39L215.596 112.698V114.462L212.95 115.488V114.39ZM222.498 126.18C221.154 126.18 220.134 125.76 219.438 124.92C218.742 124.068 218.394 122.976 218.394 121.644C218.394 120.264 218.742 119.148 219.438 118.296C220.134 117.432 221.166 117 222.534 117C223.266 117 223.92 117.15 224.496 117.45L224.244 118.836C223.704 118.548 223.14 118.404 222.552 118.404C221.748 118.404 221.118 118.686 220.662 119.25C220.218 119.802 219.996 120.576 219.996 121.572C219.996 122.568 220.224 123.354 220.68 123.93C221.148 124.506 221.79 124.794 222.606 124.794C223.23 124.794 223.782 124.65 224.262 124.362L224.478 125.766C224.238 125.886 223.938 125.982 223.578 126.054C223.218 126.138 222.858 126.18 222.498 126.18ZM229.031 126.18C228.239 126.18 227.555 125.982 226.979 125.586C226.403 125.178 225.959 124.626 225.647 123.93C225.347 123.234 225.197 122.454 225.197 121.59C225.197 120.726 225.347 119.946 225.647 119.25C225.959 118.554 226.403 118.008 226.979 117.612C227.555 117.204 228.239 117 229.031 117C229.811 117 230.489 117.204 231.065 117.612C231.641 118.008 232.079 118.554 232.379 119.25C232.679 119.946 232.829 120.726 232.829 121.59C232.829 122.454 232.679 123.234 232.379 123.93C232.079 124.626 231.641 125.178 231.065 125.586C230.489 125.982 229.811 126.18 229.031 126.18ZM229.031 124.794C229.727 124.794 230.267 124.512 230.651 123.948C231.035 123.384 231.227 122.598 231.227 121.59C231.227 120.582 231.035 119.802 230.651 119.25C230.267 118.686 229.727 118.404 229.031 118.404C228.311 118.404 227.759 118.686 227.375 119.25C226.991 119.802 226.799 120.582 226.799 121.59C226.799 122.61 226.991 123.402 227.375 123.966C227.759 124.518 228.311 124.794 229.031 124.794ZM240.581 117.18V126H239.249L239.141 124.92C238.901 125.316 238.577 125.628 238.169 125.856C237.761 126.072 237.311 126.18 236.819 126.18C235.895 126.18 235.205 125.874 234.749 125.262C234.305 124.638 234.083 123.75 234.083 122.598V117.18H235.649V122.4C235.649 123.192 235.763 123.786 235.991 124.182C236.231 124.566 236.627 124.758 237.179 124.758C237.563 124.758 237.911 124.65 238.223 124.434C238.535 124.218 238.799 123.918 239.015 123.534V117.18H240.581ZM241.87 117.18H243.544L245.596 124.146L247.612 117.18H249.286L246.37 126H244.804L241.87 117.18ZM250.382 117.18H251.66L251.858 118.656C252.254 118.08 252.626 117.66 252.974 117.396C253.334 117.132 253.712 117 254.108 117C254.264 117 254.402 117.018 254.522 117.054L254.36 118.836C254.204 118.8 254.024 118.782 253.82 118.782C253.424 118.782 253.052 118.884 252.704 119.088C252.356 119.28 252.104 119.508 251.948 119.772V126H250.382V117.18ZM255.709 113.4H257.275V115.182H255.709V113.4ZM255.709 117.18H257.275V126H255.709V117.18ZM259.365 117.18H260.643L260.841 118.656C261.237 118.08 261.609 117.66 261.957 117.396C262.317 117.132 262.695 117 263.091 117C263.247 117 263.385 117.018 263.505 117.054L263.343 118.836C263.187 118.8 263.007 118.782 262.803 118.782C262.407 118.782 262.035 118.884 261.687 119.088C261.339 119.28 261.087 119.508 260.931 119.772V126H259.365V117.18ZM270.422 126.18C269.39 126.18 268.496 125.94 267.74 125.46L267.938 123.876C268.706 124.476 269.498 124.776 270.314 124.776C270.746 124.776 271.082 124.686 271.322 124.506C271.574 124.326 271.7 124.062 271.7 123.714C271.7 123.45 271.64 123.234 271.52 123.066C271.412 122.898 271.226 122.736 270.962 122.58C270.698 122.424 270.29 122.22 269.738 121.968C269.09 121.668 268.616 121.326 268.316 120.942C268.016 120.558 267.866 120.06 267.866 119.448C267.866 118.728 268.118 118.14 268.622 117.684C269.126 117.228 269.804 117 270.656 117C271.52 117 272.276 117.192 272.924 117.576L272.726 119.034C272.402 118.818 272.096 118.662 271.808 118.566C271.52 118.458 271.178 118.404 270.782 118.404C270.362 118.404 270.032 118.494 269.792 118.674C269.552 118.854 269.432 119.106 269.432 119.43C269.432 119.754 269.534 120 269.738 120.168C269.954 120.336 270.368 120.558 270.98 120.834C271.832 121.218 272.432 121.608 272.78 122.004C273.128 122.388 273.302 122.898 273.302 123.534C273.302 124.362 273.044 125.01 272.528 125.478C272.012 125.946 271.31 126.18 270.422 126.18ZM280.958 117.18V126H279.626L279.518 124.92C279.278 125.316 278.954 125.628 278.546 125.856C278.138 126.072 277.688 126.18 277.196 126.18C276.272 126.18 275.582 125.874 275.126 125.262C274.682 124.638 274.46 123.75 274.46 122.598V117.18H276.026V122.4C276.026 123.192 276.14 123.786 276.368 124.182C276.608 124.566 277.004 124.758 277.556 124.758C277.94 124.758 278.288 124.65 278.6 124.434C278.912 124.218 279.176 123.918 279.392 123.534V117.18H280.958ZM283.201 117.18H284.479L284.677 118.656C285.073 118.08 285.445 117.66 285.793 117.396C286.153 117.132 286.531 117 286.927 117C287.083 117 287.221 117.018 287.341 117.054L287.179 118.836C287.023 118.8 286.843 118.782 286.639 118.782C286.243 118.782 285.871 118.884 285.523 119.088C285.175 119.28 284.923 119.508 284.767 119.772V126H283.201V117.18Z" fill="#8F8F8F"/>
    <path d="M295.576 126V110.6H302.264C303.76 110.6 304.963 111.011 305.872 111.832C306.781 112.639 307.236 113.709 307.236 115.044C307.236 116.379 306.774 117.457 305.85 118.278C304.941 119.099 303.745 119.51 302.264 119.51H297.27V126H295.576ZM302.132 112.118H297.27V118.036H302.132C303.173 118.036 304.002 117.772 304.618 117.244C305.234 116.701 305.542 115.975 305.542 115.066C305.542 114.157 305.234 113.438 304.618 112.91C304.002 112.382 303.173 112.118 302.132 112.118ZM318.044 124.834C317.428 125.289 316.783 125.633 316.108 125.868C315.448 126.088 314.722 126.198 313.93 126.198C313.138 126.198 312.39 126.051 311.686 125.758C310.997 125.465 310.395 125.061 309.882 124.548C309.383 124.035 308.987 123.433 308.694 122.744C308.401 122.04 308.254 121.285 308.254 120.478C308.254 119.686 308.393 118.945 308.672 118.256C308.965 117.567 309.354 116.965 309.838 116.452C310.322 115.939 310.894 115.535 311.554 115.242C312.229 114.949 312.94 114.802 313.688 114.802C314.421 114.802 315.103 114.949 315.734 115.242C316.379 115.535 316.929 115.939 317.384 116.452C317.853 116.965 318.22 117.567 318.484 118.256C318.763 118.945 318.902 119.686 318.902 120.478V120.984H309.86C309.977 122.069 310.425 122.971 311.202 123.69C311.979 124.409 312.911 124.768 313.996 124.768C314.568 124.768 315.125 124.68 315.668 124.504C316.211 124.328 316.665 124.079 317.032 123.756L318.044 124.834ZM313.644 116.232C312.691 116.232 311.862 116.555 311.158 117.2C310.469 117.845 310.051 118.674 309.904 119.686H317.274C317.127 118.718 316.709 117.904 316.02 117.244C315.345 116.569 314.553 116.232 313.644 116.232ZM322.112 123.536V116.364H319.736V114.978H322.112V112.184L323.718 111.766V114.978H327.04V116.364H323.718V123.118C323.718 123.705 323.85 124.13 324.114 124.394C324.378 124.643 324.811 124.768 325.412 124.768C325.72 124.768 325.992 124.746 326.226 124.702C326.476 124.658 326.74 124.585 327.018 124.482V125.912C326.74 126.015 326.424 126.088 326.072 126.132C325.735 126.176 325.405 126.198 325.082 126.198C324.129 126.198 323.396 125.971 322.882 125.516C322.369 125.061 322.112 124.401 322.112 123.536ZM329.597 112.866C329.304 112.866 329.047 112.756 328.827 112.536C328.607 112.316 328.497 112.059 328.497 111.766C328.497 111.458 328.607 111.201 328.827 110.996C329.047 110.776 329.304 110.666 329.597 110.666C329.905 110.666 330.162 110.776 330.367 110.996C330.587 111.201 330.697 111.458 330.697 111.766C330.697 112.059 330.587 112.316 330.367 112.536C330.162 112.756 329.905 112.866 329.597 112.866ZM330.411 114.978V126H328.783V114.978H330.411ZM334.552 123.536V116.364H332.176V114.978H334.552V112.184L336.158 111.766V114.978H339.48V116.364H336.158V123.118C336.158 123.705 336.29 124.13 336.554 124.394C336.818 124.643 337.25 124.768 337.852 124.768C338.16 124.768 338.431 124.746 338.666 124.702C338.915 124.658 339.179 124.585 339.458 124.482V125.912C339.179 126.015 338.864 126.088 338.512 126.132C338.174 126.176 337.844 126.198 337.522 126.198C336.568 126.198 335.835 125.971 335.322 125.516C334.808 125.061 334.552 124.401 334.552 123.536ZM350.163 124.834C349.547 125.289 348.902 125.633 348.227 125.868C347.567 126.088 346.841 126.198 346.049 126.198C345.257 126.198 344.509 126.051 343.805 125.758C343.116 125.465 342.514 125.061 342.001 124.548C341.502 124.035 341.106 123.433 340.813 122.744C340.52 122.04 340.373 121.285 340.373 120.478C340.373 119.686 340.512 118.945 340.791 118.256C341.084 117.567 341.473 116.965 341.957 116.452C342.441 115.939 343.013 115.535 343.673 115.242C344.348 114.949 345.059 114.802 345.807 114.802C346.54 114.802 347.222 114.949 347.853 115.242C348.498 115.535 349.048 115.939 349.503 116.452C349.972 116.965 350.339 117.567 350.603 118.256C350.882 118.945 351.021 119.686 351.021 120.478V120.984H341.979C342.096 122.069 342.544 122.971 343.321 123.69C344.098 124.409 345.03 124.768 346.115 124.768C346.687 124.768 347.244 124.68 347.787 124.504C348.33 124.328 348.784 124.079 349.151 123.756L350.163 124.834ZM345.763 116.232C344.81 116.232 343.981 116.555 343.277 117.2C342.588 117.845 342.17 118.674 342.023 119.686H349.393C349.246 118.718 348.828 117.904 348.139 117.244C347.464 116.569 346.672 116.232 345.763 116.232ZM358.332 126V110.6H369.354V112.096H360.026V117.596H366.142V119.07H360.026V126H358.332ZM373.23 126.198C372.027 126.198 371.045 125.89 370.282 125.274C369.534 124.658 369.16 123.859 369.16 122.876C369.16 121.849 369.556 121.035 370.348 120.434C371.14 119.818 372.211 119.51 373.56 119.51C374.147 119.51 374.711 119.576 375.254 119.708C375.811 119.84 376.325 120.023 376.794 120.258V118.806C376.794 117.926 376.545 117.266 376.046 116.826C375.547 116.371 374.821 116.144 373.868 116.144C373.325 116.144 372.775 116.225 372.218 116.386C371.675 116.533 371.074 116.775 370.414 117.112L369.798 115.858C370.59 115.477 371.323 115.198 371.998 115.022C372.673 114.846 373.347 114.758 374.022 114.758C375.415 114.758 376.486 115.088 377.234 115.748C377.997 116.408 378.378 117.354 378.378 118.586V126H376.794V124.922C376.295 125.347 375.745 125.67 375.144 125.89C374.557 126.095 373.919 126.198 373.23 126.198ZM370.722 122.832C370.722 123.448 370.979 123.954 371.492 124.35C372.02 124.731 372.695 124.922 373.516 124.922C374.176 124.922 374.777 124.819 375.32 124.614C375.863 124.409 376.354 124.086 376.794 123.646V121.578C376.339 121.27 375.848 121.05 375.32 120.918C374.807 120.771 374.235 120.698 373.604 120.698C372.724 120.698 372.02 120.896 371.492 121.292C370.979 121.673 370.722 122.187 370.722 122.832ZM381.912 112.866C381.619 112.866 381.362 112.756 381.142 112.536C380.922 112.316 380.812 112.059 380.812 111.766C380.812 111.458 380.922 111.201 381.142 110.996C381.362 110.776 381.619 110.666 381.912 110.666C382.22 110.666 382.477 110.776 382.682 110.996C382.902 111.201 383.012 111.458 383.012 111.766C383.012 112.059 382.902 112.316 382.682 112.536C382.477 112.756 382.22 112.866 381.912 112.866ZM382.726 114.978V126H381.098V114.978H382.726ZM385.502 126V114.978H387.13V116.188C387.541 115.719 388.018 115.367 388.56 115.132C389.103 114.883 389.704 114.758 390.364 114.758C391.127 114.758 391.809 114.941 392.41 115.308C393.026 115.66 393.503 116.144 393.84 116.76C394.295 116.085 394.838 115.587 395.468 115.264C396.114 114.927 396.832 114.758 397.624 114.758C398.812 114.758 399.78 115.154 400.528 115.946C401.291 116.738 401.672 117.765 401.672 119.026V126H400.066V119.356C400.066 118.388 399.81 117.618 399.296 117.046C398.783 116.474 398.086 116.188 397.206 116.188C396.605 116.188 396.055 116.342 395.556 116.65C395.058 116.958 394.632 117.405 394.28 117.992C394.31 118.153 394.332 118.322 394.346 118.498C394.376 118.659 394.39 118.835 394.39 119.026V126H392.784V119.356C392.784 118.388 392.528 117.618 392.014 117.046C391.501 116.474 390.812 116.188 389.946 116.188C389.36 116.188 388.824 116.327 388.34 116.606C387.871 116.87 387.468 117.266 387.13 117.794V126H385.502Z" fill="#C54B25"/>
    <path d="M262.901 188.378C262.901 188.132 262.88 187.955 262.838 187.845C262.804 187.735 262.787 187.633 262.787 187.54C262.787 187.413 262.855 187.307 262.99 187.223C263.126 187.138 263.286 187.096 263.473 187.096C263.904 187.096 264.251 187.21 264.514 187.438C264.785 187.659 264.92 187.929 264.92 188.251V196.744C265.216 196.71 265.55 196.626 265.923 196.49C266.304 196.355 266.693 196.169 267.091 195.932C267.489 195.686 267.874 195.386 268.246 195.03C268.627 194.675 268.965 194.26 269.262 193.786C269.558 193.312 269.795 192.779 269.973 192.187C270.159 191.586 270.252 190.921 270.252 190.193C270.252 189.702 270.172 189.195 270.011 188.67C269.858 188.145 269.613 187.667 269.274 187.235C268.936 186.804 268.496 186.448 267.954 186.169C267.421 185.89 266.773 185.75 266.012 185.75C264.971 185.75 264.078 185.911 263.333 186.232C262.588 186.554 261.979 186.986 261.505 187.527C261.039 188.069 260.697 188.7 260.477 189.419C260.257 190.13 260.146 190.883 260.146 191.679C260.146 192.254 260.193 192.741 260.286 193.139C260.388 193.528 260.498 193.85 260.616 194.104C260.735 194.349 260.845 194.531 260.946 194.649C261.048 194.768 261.107 194.836 261.124 194.853C261.268 194.81 261.369 194.827 261.429 194.903C261.488 194.979 261.518 195.081 261.518 195.208C261.518 195.326 261.475 195.504 261.391 195.741C261.314 195.978 261.209 196.202 261.073 196.414C260.938 196.617 260.781 196.774 260.604 196.884C260.426 196.985 260.244 196.964 260.058 196.82C259.956 196.727 259.799 196.558 259.588 196.312C259.376 196.067 259.165 195.741 258.953 195.335C258.75 194.92 258.568 194.425 258.407 193.85C258.246 193.266 258.166 192.593 258.166 191.831C258.166 190.612 258.356 189.512 258.737 188.53C259.118 187.54 259.651 186.694 260.337 185.991C261.031 185.289 261.856 184.747 262.812 184.366C263.769 183.985 264.827 183.795 265.986 183.795C266.934 183.795 267.793 183.951 268.563 184.265C269.342 184.578 270.002 185.018 270.544 185.585C271.094 186.144 271.517 186.812 271.813 187.591C272.11 188.369 272.258 189.22 272.258 190.143C272.258 191.277 272.055 192.326 271.648 193.291C271.242 194.247 270.701 195.098 270.023 195.843C269.346 196.588 268.563 197.205 267.675 197.696C266.795 198.187 265.876 198.521 264.92 198.699V202.127C264.92 202.347 264.848 202.499 264.704 202.584C264.56 202.677 264.391 202.724 264.196 202.724C264.044 202.724 263.892 202.702 263.739 202.66C263.587 202.618 263.447 202.563 263.32 202.495C263.202 202.427 263.1 202.347 263.016 202.254C262.939 202.169 262.901 202.076 262.901 201.975V188.378ZM279.088 194.434C279.088 194.916 279.003 195.411 278.834 195.919C278.673 196.427 278.428 196.909 278.098 197.366C277.776 197.815 277.374 198.221 276.892 198.585C276.418 198.94 275.868 199.211 275.241 199.397C275.326 199.618 275.436 199.829 275.571 200.032C275.715 200.227 275.884 200.396 276.079 200.54C276.274 200.684 276.498 200.798 276.752 200.883C277.014 200.967 277.315 201.01 277.653 201.01C278.161 201.01 278.597 200.917 278.961 200.73C279.325 200.536 279.63 200.282 279.875 199.969C280.129 199.656 280.332 199.304 280.484 198.915C280.637 198.526 280.751 198.132 280.827 197.734C280.886 197.447 281.005 197.256 281.183 197.163C281.369 197.062 281.555 197.036 281.741 197.087C281.936 197.138 282.101 197.248 282.236 197.417C282.38 197.578 282.439 197.772 282.414 198.001C282.38 198.263 282.321 198.564 282.236 198.902C282.16 199.241 282.042 199.584 281.881 199.931C281.72 200.278 281.513 200.62 281.259 200.959C281.013 201.289 280.709 201.585 280.345 201.848C279.981 202.11 279.553 202.322 279.062 202.482C278.572 202.643 278.009 202.724 277.374 202.724C276.782 202.724 276.206 202.605 275.647 202.368C275.097 202.14 274.606 201.81 274.175 201.378C273.752 200.938 273.409 200.4 273.146 199.766C272.893 199.122 272.766 198.395 272.766 197.582C272.766 196.761 272.88 195.999 273.108 195.297C273.337 194.586 273.637 193.972 274.01 193.456C274.382 192.94 274.805 192.538 275.279 192.25C275.753 191.954 276.24 191.806 276.739 191.806C277.103 191.806 277.429 191.869 277.717 191.996C278.013 192.123 278.263 192.305 278.466 192.542C278.669 192.771 278.821 193.046 278.923 193.367C279.033 193.689 279.088 194.044 279.088 194.434ZM274.898 197.506C274.898 197.582 274.903 197.658 274.911 197.734C274.92 197.811 274.924 197.891 274.924 197.976C275.245 197.823 275.537 197.629 275.8 197.392C276.062 197.155 276.286 196.884 276.473 196.579C276.659 196.274 276.803 195.944 276.904 195.589C277.006 195.225 277.057 194.848 277.057 194.459C277.057 194.171 277.006 193.947 276.904 193.786C276.811 193.625 276.68 193.545 276.511 193.545C276.299 193.545 276.109 193.617 275.939 193.761C275.779 193.905 275.635 194.095 275.508 194.332C275.389 194.561 275.288 194.823 275.203 195.119C275.127 195.407 275.063 195.699 275.013 195.995C274.962 196.291 274.928 196.575 274.911 196.846C274.894 197.108 274.89 197.328 274.898 197.506ZM278.479 189.774C278.673 189.791 278.889 189.804 279.126 189.812C279.329 189.829 279.575 189.842 279.862 189.851C280.15 189.851 280.472 189.855 280.827 189.863V185.458C280.827 185.272 280.81 185.124 280.776 185.014C280.751 184.904 280.721 184.819 280.688 184.76C280.662 184.692 280.632 184.641 280.599 184.607C280.573 184.565 280.561 184.523 280.561 184.48C280.561 184.43 280.586 184.387 280.637 184.354C280.688 184.32 280.755 184.29 280.84 184.265C280.924 184.239 281.013 184.222 281.106 184.214C281.208 184.197 281.305 184.188 281.398 184.188C281.83 184.188 282.169 184.303 282.414 184.531C282.668 184.751 282.795 185.018 282.795 185.331V189.889C283.59 189.889 284.428 189.88 285.309 189.863C286.197 189.846 287.086 189.817 287.975 189.774C288.093 189.647 288.186 189.601 288.254 189.635C288.33 189.669 288.377 189.749 288.394 189.876C288.419 190.003 288.423 190.16 288.406 190.346C288.389 190.532 288.355 190.714 288.305 190.892C288.254 191.061 288.182 191.209 288.089 191.336C288.004 191.463 287.907 191.526 287.797 191.526C286.756 191.552 285.833 191.569 285.029 191.577C284.234 191.577 283.489 191.577 282.795 191.577V199.816C282.795 200.24 282.875 200.544 283.036 200.73C283.197 200.917 283.413 201.01 283.684 201.01C283.946 201.01 284.17 200.917 284.356 200.73C284.551 200.544 284.716 200.312 284.852 200.032C284.995 199.753 285.11 199.452 285.194 199.131C285.287 198.801 285.364 198.492 285.423 198.204C285.474 197.933 285.558 197.739 285.677 197.62C285.795 197.493 285.918 197.43 286.045 197.43C286.146 197.43 286.252 197.464 286.362 197.531C286.472 197.59 286.57 197.671 286.654 197.772C286.747 197.874 286.819 197.988 286.87 198.115C286.929 198.242 286.959 198.369 286.959 198.496C286.959 198.513 286.959 198.534 286.959 198.56C286.959 198.585 286.951 198.623 286.934 198.674C286.824 199.105 286.671 199.558 286.477 200.032C286.29 200.506 286.045 200.942 285.74 201.34C285.444 201.738 285.089 202.068 284.674 202.33C284.259 202.592 283.772 202.724 283.214 202.724C282.867 202.724 282.545 202.669 282.249 202.559C281.961 202.457 281.712 202.288 281.5 202.051C281.288 201.822 281.123 201.526 281.005 201.162C280.886 200.798 280.827 200.358 280.827 199.842V191.577C280.539 191.577 280.281 191.577 280.053 191.577C279.833 191.569 279.646 191.56 279.494 191.552C279.316 191.543 279.16 191.535 279.024 191.526C278.821 191.526 278.644 191.438 278.491 191.26C278.33 191.074 278.22 190.87 278.161 190.65C278.093 190.43 278.085 190.231 278.136 190.054C278.178 189.868 278.292 189.774 278.479 189.774ZM286.921 189.495C286.709 189.495 286.506 189.453 286.312 189.368C286.125 189.284 285.96 189.169 285.816 189.025C285.681 188.882 285.571 188.716 285.486 188.53C285.402 188.336 285.359 188.128 285.359 187.908C285.359 187.68 285.402 187.468 285.486 187.273C285.571 187.079 285.681 186.914 285.816 186.778C285.96 186.634 286.125 186.524 286.312 186.448C286.506 186.364 286.709 186.321 286.921 186.321C287.149 186.321 287.361 186.364 287.556 186.448C287.75 186.524 287.915 186.634 288.051 186.778C288.195 186.914 288.305 187.079 288.381 187.273C288.465 187.468 288.508 187.68 288.508 187.908C288.508 188.128 288.465 188.336 288.381 188.53C288.305 188.716 288.195 188.882 288.051 189.025C287.915 189.169 287.75 189.284 287.556 189.368C287.361 189.453 287.149 189.495 286.921 189.495ZM287.518 199.816C287.518 199.876 287.522 199.973 287.53 200.108C287.539 200.235 287.564 200.367 287.606 200.502C287.649 200.637 287.716 200.756 287.81 200.857C287.903 200.959 288.034 201.01 288.203 201.01C288.457 201.01 288.677 200.917 288.863 200.73C289.058 200.544 289.223 200.312 289.358 200.032C289.502 199.753 289.621 199.452 289.714 199.131C289.807 198.801 289.883 198.492 289.942 198.204C289.993 197.942 290.069 197.751 290.171 197.633C290.281 197.514 290.395 197.451 290.514 197.442C290.641 197.425 290.763 197.455 290.882 197.531C291.009 197.607 291.119 197.709 291.212 197.836C291.313 197.954 291.385 198.09 291.428 198.242C291.479 198.395 291.487 198.538 291.453 198.674C291.335 199.105 291.178 199.558 290.983 200.032C290.797 200.506 290.556 200.942 290.26 201.34C289.964 201.738 289.608 202.068 289.193 202.33C288.779 202.592 288.292 202.724 287.733 202.724C287.386 202.724 287.077 202.656 286.807 202.521C286.536 202.394 286.307 202.22 286.121 202C285.935 201.78 285.791 201.522 285.689 201.226C285.596 200.929 285.55 200.616 285.55 200.286V193.342C285.55 193.096 285.529 192.919 285.486 192.809C285.452 192.699 285.436 192.597 285.436 192.504C285.436 192.377 285.503 192.275 285.639 192.199C285.774 192.115 285.935 192.072 286.121 192.072C286.553 192.072 286.891 192.187 287.137 192.415C287.391 192.635 287.518 192.902 287.518 193.215V199.816ZM287.695 189.774C287.89 189.791 288.106 189.804 288.343 189.812C288.546 189.829 288.791 189.842 289.079 189.851C289.367 189.851 289.688 189.855 290.044 189.863V185.458C290.044 185.272 290.027 185.124 289.993 185.014C289.968 184.904 289.938 184.819 289.904 184.76C289.879 184.692 289.849 184.641 289.815 184.607C289.79 184.565 289.777 184.523 289.777 184.48C289.777 184.43 289.803 184.387 289.854 184.354C289.904 184.32 289.972 184.29 290.057 184.265C290.141 184.239 290.23 184.222 290.323 184.214C290.425 184.197 290.522 184.188 290.615 184.188C291.047 184.188 291.385 184.303 291.631 184.531C291.885 184.751 292.012 185.018 292.012 185.331V189.889C292.807 189.889 293.645 189.88 294.525 189.863C295.414 189.846 296.303 189.817 297.191 189.774C297.31 189.647 297.403 189.601 297.471 189.635C297.547 189.669 297.593 189.749 297.61 189.876C297.636 190.003 297.64 190.16 297.623 190.346C297.606 190.532 297.572 190.714 297.521 190.892C297.471 191.061 297.399 191.209 297.306 191.336C297.221 191.463 297.124 191.526 297.014 191.526C295.973 191.552 295.05 191.569 294.246 191.577C293.451 191.577 292.706 191.577 292.012 191.577V199.816C292.012 200.24 292.092 200.544 292.253 200.73C292.414 200.917 292.63 201.01 292.9 201.01C293.163 201.01 293.387 200.917 293.573 200.73C293.768 200.544 293.933 200.312 294.068 200.032C294.212 199.753 294.326 199.452 294.411 199.131C294.504 198.801 294.58 198.492 294.64 198.204C294.69 197.933 294.775 197.739 294.894 197.62C295.012 197.493 295.135 197.43 295.262 197.43C295.363 197.43 295.469 197.464 295.579 197.531C295.689 197.59 295.786 197.671 295.871 197.772C295.964 197.874 296.036 197.988 296.087 198.115C296.146 198.242 296.176 198.369 296.176 198.496C296.176 198.513 296.176 198.534 296.176 198.56C296.176 198.585 296.167 198.623 296.15 198.674C296.04 199.105 295.888 199.558 295.693 200.032C295.507 200.506 295.262 200.942 294.957 201.34C294.661 201.738 294.305 202.068 293.891 202.33C293.476 202.592 292.989 202.724 292.431 202.724C292.084 202.724 291.762 202.669 291.466 202.559C291.178 202.457 290.928 202.288 290.717 202.051C290.505 201.822 290.34 201.526 290.222 201.162C290.103 200.798 290.044 200.358 290.044 199.842V191.577C289.756 191.577 289.498 191.577 289.27 191.577C289.049 191.569 288.863 191.56 288.711 191.552C288.533 191.543 288.377 191.535 288.241 191.526C288.038 191.526 287.86 191.438 287.708 191.26C287.547 191.074 287.437 190.87 287.378 190.65C287.31 190.43 287.302 190.231 287.353 190.054C287.395 189.868 287.509 189.774 287.695 189.774ZM300.746 194.434C300.746 194.916 300.661 195.411 300.492 195.919C300.331 196.427 300.086 196.909 299.756 197.366C299.434 197.815 299.032 198.221 298.55 198.585C298.076 198.94 297.526 199.211 296.899 199.397C296.984 199.618 297.094 199.829 297.229 200.032C297.373 200.227 297.543 200.396 297.737 200.54C297.932 200.684 298.156 200.798 298.41 200.883C298.673 200.967 298.973 201.01 299.312 201.01C299.819 201.01 300.255 200.917 300.619 200.73C300.983 200.536 301.288 200.282 301.533 199.969C301.787 199.656 301.99 199.304 302.143 198.915C302.295 198.526 302.409 198.132 302.485 197.734C302.545 197.447 302.663 197.256 302.841 197.163C303.027 197.062 303.213 197.036 303.399 197.087C303.594 197.138 303.759 197.248 303.895 197.417C304.038 197.578 304.098 197.772 304.072 198.001C304.038 198.263 303.979 198.564 303.895 198.902C303.818 199.241 303.7 199.584 303.539 199.931C303.378 200.278 303.171 200.62 302.917 200.959C302.672 201.289 302.367 201.585 302.003 201.848C301.639 202.11 301.212 202.322 300.721 202.482C300.23 202.643 299.667 202.724 299.032 202.724C298.44 202.724 297.864 202.605 297.306 202.368C296.756 202.14 296.265 201.81 295.833 201.378C295.41 200.938 295.067 200.4 294.805 199.766C294.551 199.122 294.424 198.395 294.424 197.582C294.424 196.761 294.538 195.999 294.767 195.297C294.995 194.586 295.296 193.972 295.668 193.456C296.04 192.94 296.464 192.538 296.938 192.25C297.411 191.954 297.898 191.806 298.397 191.806C298.761 191.806 299.087 191.869 299.375 191.996C299.671 192.123 299.921 192.305 300.124 192.542C300.327 192.771 300.479 193.046 300.581 193.367C300.691 193.689 300.746 194.044 300.746 194.434ZM296.557 197.506C296.557 197.582 296.561 197.658 296.569 197.734C296.578 197.811 296.582 197.891 296.582 197.976C296.904 197.823 297.196 197.629 297.458 197.392C297.72 197.155 297.945 196.884 298.131 196.579C298.317 196.274 298.461 195.944 298.562 195.589C298.664 195.225 298.715 194.848 298.715 194.459C298.715 194.171 298.664 193.947 298.562 193.786C298.469 193.625 298.338 193.545 298.169 193.545C297.957 193.545 297.767 193.617 297.598 193.761C297.437 193.905 297.293 194.095 297.166 194.332C297.048 194.561 296.946 194.823 296.861 195.119C296.785 195.407 296.722 195.699 296.671 195.995C296.62 196.291 296.586 196.575 296.569 196.846C296.552 197.108 296.548 197.328 296.557 197.506ZM312.286 200.54C312.286 201.116 312.248 201.606 312.172 202.013C312.104 202.419 312.007 202.749 311.88 203.003C311.753 203.257 311.596 203.443 311.41 203.562C311.232 203.68 311.038 203.739 310.826 203.739C310.665 203.739 310.488 203.684 310.293 203.574C310.098 203.464 309.912 203.329 309.734 203.168C309.565 203.007 309.421 202.842 309.303 202.673C309.193 202.504 309.138 202.355 309.138 202.229C309.138 202.144 309.146 202.089 309.163 202.063C309.188 202.047 309.218 202.038 309.252 202.038C309.294 202.047 309.341 202.059 309.392 202.076C309.451 202.093 309.514 202.102 309.582 202.102C309.819 202.102 309.988 201.953 310.09 201.657C310.2 201.353 310.255 200.87 310.255 200.21V196.122H308.909C308.774 196.122 308.647 196.08 308.528 195.995C308.418 195.91 308.321 195.805 308.236 195.678C308.152 195.551 308.084 195.411 308.033 195.259C307.991 195.106 307.97 194.963 307.97 194.827C307.97 194.683 307.999 194.561 308.059 194.459C308.126 194.357 308.228 194.307 308.363 194.307H310.255V185.852C309.341 185.911 308.507 186.046 307.754 186.258C307.001 186.469 306.353 186.791 305.812 187.223C305.27 187.654 304.847 188.217 304.542 188.911C304.246 189.597 304.098 190.451 304.098 191.476C304.098 191.924 304.14 192.33 304.225 192.694C304.318 193.05 304.436 193.371 304.58 193.659C304.724 193.947 304.881 194.201 305.05 194.421C305.228 194.641 305.401 194.836 305.57 195.005C305.714 194.963 305.816 194.979 305.875 195.056C305.934 195.132 305.964 195.238 305.964 195.373C305.964 195.542 305.926 195.72 305.85 195.906C305.782 196.084 305.689 196.249 305.57 196.401C305.452 196.545 305.316 196.668 305.164 196.77C305.02 196.863 304.872 196.909 304.72 196.909C304.652 196.909 304.584 196.901 304.517 196.884C304.457 196.867 304.394 196.829 304.326 196.77C304.14 196.634 303.916 196.414 303.653 196.109C303.391 195.796 303.141 195.411 302.904 194.954C302.667 194.497 302.464 193.977 302.295 193.393C302.126 192.8 302.041 192.161 302.041 191.476C302.041 188.979 302.837 187.075 304.428 185.763C306.027 184.451 308.384 183.795 311.499 183.795C311.736 183.795 312.032 183.799 312.388 183.808C312.752 183.808 313.137 183.808 313.543 183.808C313.949 183.808 314.36 183.812 314.774 183.82C315.198 183.829 315.587 183.833 315.942 183.833C316.306 183.833 316.615 183.837 316.869 183.846C317.132 183.846 317.309 183.846 317.402 183.846C317.529 183.846 317.635 183.837 317.72 183.82C317.804 183.795 317.872 183.77 317.923 183.744C317.982 183.719 318.024 183.698 318.05 183.681C318.084 183.655 318.113 183.643 318.139 183.643C318.181 183.643 318.223 183.672 318.266 183.731C318.308 183.782 318.346 183.85 318.38 183.935C318.414 184.011 318.439 184.1 318.456 184.201C318.481 184.303 318.494 184.404 318.494 184.506C318.494 184.658 318.469 184.819 318.418 184.988C318.376 185.149 318.304 185.297 318.202 185.433C318.101 185.56 317.974 185.665 317.821 185.75C317.677 185.835 317.504 185.877 317.301 185.877C317.225 185.877 317.085 185.877 316.882 185.877C316.679 185.868 316.433 185.864 316.146 185.864C315.866 185.856 315.557 185.852 315.219 185.852C314.88 185.843 314.537 185.839 314.19 185.839C313.852 185.83 313.518 185.826 313.188 185.826C312.857 185.818 312.557 185.809 312.286 185.801V194.307H315.536C315.672 194.205 315.773 194.18 315.841 194.23C315.909 194.281 315.947 194.374 315.955 194.51C315.972 194.645 315.964 194.806 315.93 194.992C315.904 195.178 315.858 195.356 315.79 195.525C315.731 195.686 315.659 195.826 315.574 195.944C315.49 196.063 315.396 196.122 315.295 196.122H312.286V200.54ZM324.74 201.01C325.003 201.01 325.227 200.917 325.413 200.73C325.608 200.544 325.773 200.312 325.908 200.032C326.052 199.753 326.166 199.452 326.251 199.131C326.344 198.801 326.42 198.492 326.479 198.204C326.539 197.933 326.623 197.739 326.733 197.62C326.852 197.493 326.979 197.43 327.114 197.43C327.216 197.43 327.317 197.464 327.419 197.531C327.529 197.59 327.626 197.671 327.711 197.772C327.804 197.874 327.876 197.988 327.927 198.115C327.986 198.242 328.016 198.369 328.016 198.496C328.016 198.513 328.016 198.534 328.016 198.56C328.016 198.585 328.007 198.623 327.99 198.674C327.88 199.105 327.728 199.558 327.533 200.032C327.347 200.506 327.106 200.942 326.81 201.34C326.513 201.738 326.154 202.068 325.73 202.33C325.316 202.592 324.829 202.724 324.271 202.724C323.813 202.724 323.416 202.626 323.077 202.432C322.739 202.237 322.472 201.979 322.277 201.657C322.015 201.953 321.698 202.203 321.325 202.406C320.961 202.618 320.534 202.724 320.043 202.724C319.535 202.724 319.087 202.622 318.697 202.419C318.316 202.216 317.995 201.941 317.732 201.594C317.47 201.238 317.271 200.824 317.136 200.35C317.009 199.867 316.945 199.351 316.945 198.801C316.945 197.717 317.119 196.744 317.466 195.881C317.813 195.018 318.274 194.285 318.85 193.685C319.425 193.075 320.081 192.61 320.817 192.288C321.562 191.966 322.332 191.806 323.128 191.806C323.483 191.806 323.771 191.903 323.991 192.098C324.211 192.292 324.321 192.559 324.321 192.897C324.321 193.118 324.296 193.274 324.245 193.367C324.203 193.452 324.118 193.494 323.991 193.494C323.873 193.494 323.75 193.486 323.623 193.469C323.496 193.452 323.365 193.443 323.229 193.443C322.739 193.443 322.239 193.553 321.731 193.773C321.224 193.985 320.762 194.315 320.348 194.764C319.941 195.204 319.607 195.767 319.345 196.452C319.082 197.129 318.951 197.938 318.951 198.877C318.951 199.562 319.082 200.091 319.345 200.464C319.607 200.828 319.967 201.01 320.424 201.01C320.779 201.01 321.076 200.879 321.312 200.616C321.549 200.345 321.74 200.028 321.884 199.664V195.652C321.884 195.525 321.875 195.42 321.858 195.335C321.85 195.25 321.837 195.178 321.82 195.119C321.812 195.06 321.803 195.009 321.795 194.967C321.786 194.916 321.782 194.869 321.782 194.827C321.782 194.692 321.846 194.586 321.973 194.51C322.108 194.425 322.269 194.383 322.455 194.383C322.887 194.383 323.229 194.497 323.483 194.726C323.737 194.946 323.864 195.212 323.864 195.525V199.816C323.864 199.96 323.881 200.104 323.915 200.248C323.949 200.383 324 200.51 324.067 200.629C324.135 200.739 324.224 200.832 324.334 200.908C324.452 200.976 324.588 201.01 324.74 201.01ZM327.978 189.495C327.766 189.495 327.563 189.453 327.368 189.368C327.182 189.284 327.017 189.169 326.873 189.025C326.738 188.882 326.628 188.716 326.543 188.53C326.458 188.336 326.416 188.128 326.416 187.908C326.416 187.68 326.458 187.468 326.543 187.273C326.628 187.079 326.738 186.914 326.873 186.778C327.017 186.634 327.182 186.524 327.368 186.448C327.563 186.364 327.766 186.321 327.978 186.321C328.206 186.321 328.418 186.364 328.612 186.448C328.807 186.524 328.972 186.634 329.107 186.778C329.251 186.914 329.361 187.079 329.438 187.273C329.522 187.468 329.564 187.68 329.564 187.908C329.564 188.128 329.522 188.336 329.438 188.53C329.361 188.716 329.251 188.882 329.107 189.025C328.972 189.169 328.807 189.284 328.612 189.368C328.418 189.453 328.206 189.495 327.978 189.495ZM328.574 199.816C328.574 199.876 328.578 199.973 328.587 200.108C328.595 200.235 328.621 200.367 328.663 200.502C328.705 200.637 328.773 200.756 328.866 200.857C328.959 200.959 329.09 201.01 329.26 201.01C329.514 201.01 329.734 200.917 329.92 200.73C330.115 200.544 330.28 200.312 330.415 200.032C330.559 199.753 330.677 199.452 330.771 199.131C330.864 198.801 330.94 198.492 330.999 198.204C331.05 197.942 331.126 197.751 331.228 197.633C331.338 197.514 331.452 197.451 331.57 197.442C331.697 197.425 331.82 197.455 331.938 197.531C332.065 197.607 332.175 197.709 332.269 197.836C332.37 197.954 332.442 198.09 332.484 198.242C332.535 198.395 332.544 198.538 332.51 198.674C332.391 199.105 332.235 199.558 332.04 200.032C331.854 200.506 331.613 200.942 331.316 201.34C331.02 201.738 330.665 202.068 330.25 202.33C329.835 202.592 329.349 202.724 328.79 202.724C328.443 202.724 328.134 202.656 327.863 202.521C327.592 202.394 327.364 202.22 327.178 202C326.992 201.78 326.848 201.522 326.746 201.226C326.653 200.929 326.606 200.616 326.606 200.286V193.342C326.606 193.096 326.585 192.919 326.543 192.809C326.509 192.699 326.492 192.597 326.492 192.504C326.492 192.377 326.56 192.275 326.695 192.199C326.831 192.115 326.992 192.072 327.178 192.072C327.609 192.072 327.948 192.187 328.193 192.415C328.447 192.635 328.574 192.902 328.574 193.215V199.816ZM346.614 198.674C346.496 199.105 346.339 199.558 346.145 200.032C345.958 200.506 345.717 200.942 345.421 201.34C345.125 201.738 344.769 202.068 344.354 202.33C343.94 202.592 343.453 202.724 342.895 202.724C342.548 202.724 342.239 202.656 341.968 202.521C341.705 202.394 341.477 202.22 341.282 202C341.096 201.78 340.952 201.522 340.851 201.226C340.757 200.929 340.711 200.616 340.711 200.286V195.005C340.711 194.802 340.707 194.611 340.698 194.434C340.69 194.256 340.669 194.099 340.635 193.964C340.601 193.828 340.55 193.723 340.482 193.646C340.423 193.562 340.339 193.52 340.229 193.52C340.051 193.52 339.835 193.646 339.581 193.9C339.327 194.154 339.082 194.484 338.845 194.891C338.608 195.297 338.396 195.758 338.21 196.274C338.024 196.782 337.914 197.294 337.88 197.811V201.606C337.88 201.733 337.876 201.865 337.867 202C337.867 202.127 337.842 202.241 337.791 202.343C337.749 202.453 337.677 202.542 337.575 202.609C337.482 202.686 337.342 202.724 337.156 202.724C337.029 202.724 336.89 202.707 336.737 202.673C336.593 202.647 336.458 202.592 336.331 202.508C336.213 202.432 336.111 202.317 336.026 202.165C335.95 202.021 335.912 201.826 335.912 201.581V195.005C335.912 194.802 335.904 194.611 335.887 194.434C335.878 194.256 335.857 194.099 335.823 193.964C335.789 193.828 335.739 193.723 335.671 193.646C335.612 193.562 335.527 193.52 335.417 193.52C335.239 193.52 335.023 193.646 334.77 193.9C334.524 194.154 334.279 194.484 334.033 194.891C333.796 195.297 333.585 195.758 333.398 196.274C333.221 196.782 333.111 197.294 333.068 197.811V201.606C333.068 201.733 333.064 201.865 333.056 202C333.056 202.127 333.03 202.241 332.979 202.343C332.937 202.453 332.865 202.542 332.764 202.609C332.671 202.686 332.531 202.724 332.345 202.724C332.218 202.724 332.078 202.707 331.926 202.673C331.782 202.647 331.646 202.592 331.52 202.508C331.401 202.432 331.299 202.317 331.215 202.165C331.139 202.021 331.101 201.826 331.101 201.581V193.342C331.101 193.096 331.079 192.919 331.037 192.809C331.003 192.699 330.986 192.597 330.986 192.504C330.986 192.377 331.054 192.275 331.189 192.199C331.325 192.115 331.486 192.072 331.672 192.072C332.104 192.072 332.442 192.187 332.688 192.415C332.941 192.635 333.068 192.902 333.068 193.215V194.307C333.238 193.951 333.42 193.621 333.614 193.316C333.817 193.012 334.033 192.749 334.262 192.529C334.49 192.301 334.731 192.123 334.985 191.996C335.248 191.869 335.527 191.806 335.823 191.806C336.213 191.806 336.534 191.878 336.788 192.021C337.05 192.165 337.258 192.356 337.41 192.593C337.571 192.83 337.685 193.096 337.753 193.393C337.821 193.68 337.863 193.968 337.88 194.256C338.041 193.909 338.218 193.587 338.413 193.291C338.608 192.995 338.819 192.737 339.048 192.517C339.276 192.297 339.518 192.123 339.771 191.996C340.034 191.869 340.313 191.806 340.609 191.806C341.033 191.806 341.38 191.886 341.65 192.047C341.921 192.208 342.133 192.415 342.285 192.669C342.438 192.923 342.543 193.206 342.603 193.52C342.662 193.833 342.691 194.137 342.691 194.434V199.816C342.691 199.876 342.696 199.973 342.704 200.108C342.713 200.235 342.738 200.367 342.78 200.502C342.823 200.637 342.886 200.756 342.971 200.857C343.064 200.959 343.195 201.01 343.364 201.01C343.627 201.01 343.851 200.917 344.037 200.73C344.232 200.544 344.397 200.312 344.532 200.032C344.676 199.753 344.795 199.452 344.888 199.131C344.981 198.801 345.057 198.492 345.116 198.204C345.167 197.933 345.247 197.739 345.357 197.62C345.476 197.493 345.603 197.43 345.738 197.43C345.84 197.43 345.941 197.464 346.043 197.531C346.153 197.59 346.25 197.671 346.335 197.772C346.428 197.874 346.5 197.988 346.551 198.115C346.61 198.242 346.64 198.369 346.64 198.496C346.64 198.513 346.64 198.534 346.64 198.56C346.64 198.585 346.631 198.623 346.614 198.674Z" fill="black"/>
    <path d="M257.384 260.636H253.64C253.496 260.636 253.424 260.57 253.424 260.438V260.042C253.424 259.91 253.496 259.844 253.64 259.844H257.384C257.528 259.844 257.6 259.91 257.6 260.042V260.438C257.6 260.57 257.528 260.636 257.384 260.636ZM260.544 266H260.022C259.902 266 259.842 265.928 259.842 265.784V254.642C259.842 254.498 259.902 254.426 260.022 254.426H264.162C264.942 254.426 265.56 254.654 266.016 255.11C266.472 255.566 266.7 256.19 266.7 256.982V259.088C266.7 259.88 266.472 260.504 266.016 260.96C265.56 261.416 264.942 261.644 264.162 261.644H260.922C260.802 261.644 260.742 261.692 260.742 261.788V265.784C260.742 265.928 260.676 266 260.544 266ZM260.922 260.816H264.09C264.642 260.816 265.062 260.666 265.35 260.366C265.638 260.054 265.782 259.616 265.782 259.052V257.018C265.782 256.442 265.638 256.004 265.35 255.704C265.062 255.392 264.642 255.236 264.09 255.236H260.922C260.802 255.236 260.742 255.29 260.742 255.398V260.672C260.742 260.768 260.802 260.816 260.922 260.816ZM275.023 266H269.461C269.341 266 269.281 265.928 269.281 265.784V254.642C269.281 254.498 269.341 254.426 269.461 254.426H275.023C275.167 254.426 275.239 254.492 275.239 254.624V255.038C275.239 255.17 275.167 255.236 275.023 255.236H270.361C270.241 255.236 270.181 255.29 270.181 255.398V259.538C270.181 259.646 270.241 259.7 270.361 259.7H274.519C274.651 259.7 274.717 259.766 274.717 259.898V260.312C274.717 260.444 274.651 260.51 274.519 260.51H270.361C270.241 260.51 270.181 260.564 270.181 260.672V265.028C270.181 265.136 270.241 265.19 270.361 265.19H275.023C275.167 265.19 275.239 265.256 275.239 265.388V265.802C275.239 265.934 275.167 266 275.023 266ZM280.467 266H279.945C279.813 266 279.747 265.928 279.747 265.784V255.398C279.747 255.29 279.687 255.236 279.567 255.236H276.957C276.813 255.236 276.741 255.17 276.741 255.038V254.624C276.741 254.492 276.813 254.426 276.957 254.426H283.437C283.581 254.426 283.653 254.492 283.653 254.624V255.038C283.653 255.17 283.581 255.236 283.437 255.236H280.827C280.707 255.236 280.647 255.29 280.647 255.398V265.784C280.647 265.928 280.587 266 280.467 266ZM286.496 254.642V265.784C286.496 265.928 286.43 266 286.298 266H285.776C285.656 266 285.596 265.928 285.596 265.784V254.642C285.596 254.498 285.656 254.426 285.776 254.426H286.298C286.43 254.426 286.496 254.498 286.496 254.642ZM292.174 266H291.652C291.52 266 291.454 265.928 291.454 265.784V255.398C291.454 255.29 291.394 255.236 291.274 255.236H288.664C288.52 255.236 288.448 255.17 288.448 255.038V254.624C288.448 254.492 288.52 254.426 288.664 254.426H295.144C295.288 254.426 295.36 254.492 295.36 254.624V255.038C295.36 255.17 295.288 255.236 295.144 255.236H292.534C292.414 255.236 292.354 255.29 292.354 255.398V265.784C292.354 265.928 292.294 266 292.174 266ZM302.955 266H297.393C297.273 266 297.213 265.928 297.213 265.784V254.642C297.213 254.498 297.273 254.426 297.393 254.426H302.955C303.099 254.426 303.171 254.492 303.171 254.624V255.038C303.171 255.17 303.099 255.236 302.955 255.236H298.293C298.173 255.236 298.113 255.29 298.113 255.398V259.538C298.113 259.646 298.173 259.7 298.293 259.7H302.451C302.583 259.7 302.649 259.766 302.649 259.898V260.312C302.649 260.444 302.583 260.51 302.451 260.51H298.293C298.173 260.51 298.113 260.564 298.113 260.672V265.028C298.113 265.136 298.173 265.19 298.293 265.19H302.955C303.099 265.19 303.171 265.256 303.171 265.388V265.802C303.171 265.934 303.099 266 302.955 266ZM311.379 266H310.857C310.737 266 310.677 265.928 310.677 265.784V254.642C310.677 254.498 310.737 254.426 310.857 254.426H316.401C316.545 254.426 316.617 254.492 316.617 254.624V255.038C316.617 255.17 316.545 255.236 316.401 255.236H311.757C311.637 255.236 311.577 255.29 311.577 255.398V259.772C311.577 259.868 311.637 259.916 311.757 259.916H315.915C316.047 259.916 316.113 259.982 316.113 260.114V260.546C316.113 260.678 316.047 260.744 315.915 260.744H311.757C311.637 260.744 311.577 260.792 311.577 260.888V265.784C311.577 265.928 311.511 266 311.379 266ZM318.633 266H318.075C317.943 266 317.901 265.928 317.949 265.784L321.531 254.642C321.567 254.498 321.651 254.426 321.783 254.426H322.629C322.749 254.426 322.833 254.498 322.881 254.642L326.463 265.784C326.499 265.928 326.457 266 326.337 266H325.761C325.641 266 325.563 265.928 325.527 265.784L324.555 262.904H319.839L318.867 265.784C318.819 265.928 318.741 266 318.633 266ZM322.161 255.416L320.091 262.094H324.321L322.233 255.416H322.161ZM329.527 254.642V265.784C329.527 265.928 329.461 266 329.329 266H328.807C328.687 266 328.627 265.928 328.627 265.784V254.642C328.627 254.498 328.687 254.426 328.807 254.426H329.329C329.461 254.426 329.527 254.498 329.527 254.642ZM341.001 254.426H341.973C342.093 254.426 342.153 254.498 342.153 254.642V265.784C342.153 265.928 342.093 266 341.973 266H341.451C341.319 266 341.253 265.928 341.253 265.784V255.812H341.181L337.995 263.282C337.923 263.414 337.833 263.48 337.725 263.48H337.131C337.011 263.48 336.927 263.414 336.879 263.282L333.639 255.794H333.567V265.784C333.567 265.928 333.507 266 333.387 266H332.865C332.745 266 332.685 265.928 332.685 265.784V254.642C332.685 254.498 332.745 254.426 332.865 254.426H333.837C333.921 254.426 333.975 254.462 333.999 254.534L337.383 262.436H337.455L340.839 254.534C340.863 254.462 340.917 254.426 341.001 254.426ZM348.368 260.636H344.624C344.48 260.636 344.408 260.57 344.408 260.438V260.042C344.408 259.91 344.48 259.844 344.624 259.844H348.368C348.512 259.844 348.584 259.91 348.584 260.042V260.438C348.584 260.57 348.512 260.636 348.368 260.636Z" fill="#4E4444"/>
</svg>