<svg width="600" height="350" viewBox="0 0 600 350" fill="none" xmlns="http://www.w3.org/2000/svg">
    <rect width="600" height="350" fill="white"/>
    <path d="M44.6176 43.968V42.6C44.6176 42.184 44.7376 41.656 44.9776 41.016L45.7696 38.76C45.8176 38.632 45.9056 38.568 46.0336 38.568C46.2096 38.568 46.2976 38.664 46.2976 38.856V43.968C46.2976 44.176 46.1936 44.28 45.9856 44.28H44.9296C44.7216 44.28 44.6176 44.176 44.6176 43.968ZM40.9216 43.968V42.6C40.9216 42.264 41.0416 41.736 41.2816 41.016L42.0736 38.76C42.1536 38.632 42.2496 38.568 42.3616 38.568C42.5216 38.568 42.6016 38.664 42.6016 38.856V43.968C42.6016 44.176 42.4976 44.28 42.2896 44.28H41.2576C41.0336 44.28 40.9216 44.176 40.9216 43.968ZM57.7212 38.568H58.8012C59.0252 38.568 59.1372 38.672 59.1372 38.88V50.448C59.1372 51.568 58.8252 52.44 58.2012 53.064C57.5772 53.688 56.7132 54 55.6092 54H52.9452C51.8412 54 50.9692 53.688 50.3292 53.064C49.7052 52.44 49.3932 51.568 49.3932 50.448V38.904C49.3932 38.68 49.5052 38.568 49.7292 38.568H50.8092C51.0332 38.568 51.1452 38.68 51.1452 38.904V50.376C51.1452 51.768 51.8092 52.464 53.1372 52.464H55.3932C56.7372 52.464 57.4092 51.768 57.4092 50.376V38.904C57.4092 38.68 57.5132 38.568 57.7212 38.568ZM64.1943 54H63.1383C62.9143 54 62.8023 53.888 62.8023 53.664V38.904C62.8023 38.68 62.9143 38.568 63.1383 38.568H64.1223C64.3143 38.568 64.4423 38.632 64.5063 38.76L71.1303 50.4H71.2263V38.904C71.2263 38.68 71.3383 38.568 71.5623 38.568H72.6183C72.8423 38.568 72.9543 38.68 72.9543 38.904V53.664C72.9543 53.888 72.8423 54 72.6183 54H71.7303C71.5543 54 71.3863 53.896 71.2263 53.688L64.6263 42.168H64.5303V53.664C64.5303 53.888 64.4183 54 64.1943 54ZM84.6196 54H77.0836C76.8596 54 76.7476 53.888 76.7476 53.664V38.904C76.7476 38.68 76.8596 38.568 77.0836 38.568H84.6196C84.8436 38.568 84.9556 38.68 84.9556 38.904V39.768C84.9556 39.992 84.8436 40.104 84.6196 40.104H78.7396C78.5796 40.104 78.4996 40.176 78.4996 40.32V45.168C78.4996 45.312 78.5796 45.384 78.7396 45.384H83.8756C84.0996 45.384 84.2116 45.496 84.2116 45.72V46.584C84.2116 46.808 84.0996 46.92 83.8756 46.92H78.7396C78.5796 46.92 78.4996 46.992 78.4996 47.136V52.248C78.4996 52.392 78.5796 52.464 78.7396 52.464H84.6196C84.8436 52.464 84.9556 52.576 84.9556 52.8V53.664C84.9556 53.888 84.8436 54 84.6196 54ZM94.5646 54H93.3646C93.1566 54 93.0846 53.888 93.1486 53.664L97.6366 38.904C97.7006 38.68 97.8526 38.568 98.0926 38.568H99.8206C100.061 38.568 100.213 38.68 100.277 38.904L104.765 53.664C104.829 53.888 104.757 54 104.549 54H103.325C103.149 54 103.037 53.888 102.989 53.664L101.861 50.16H96.0526L94.9246 53.664C94.8606 53.888 94.7406 54 94.5646 54ZM98.9086 40.368L96.4366 48.672H101.477L99.0046 40.368H98.9086ZM109.326 52.464H113.358C114.702 52.464 115.374 51.768 115.374 50.376V42.192C115.374 40.8 114.702 40.104 113.358 40.104H109.326C109.166 40.104 109.086 40.176 109.086 40.32V52.248C109.086 52.392 109.166 52.464 109.326 52.464ZM107.334 53.664V38.904C107.334 38.68 107.446 38.568 107.67 38.568H113.574C114.678 38.568 115.542 38.888 116.166 39.528C116.806 40.152 117.126 41.016 117.126 42.12V50.448C117.126 51.552 116.806 52.424 116.166 53.064C115.542 53.688 114.678 54 113.574 54H107.67C107.446 54 107.334 53.888 107.334 53.664ZM122.085 54H121.005C120.781 54 120.669 53.888 120.669 53.664V38.904C120.669 38.68 120.781 38.568 121.005 38.568H126.525C127.629 38.568 128.501 38.888 129.141 39.528C129.781 40.152 130.101 41.016 130.101 42.12V44.304C130.101 45.2 129.885 45.944 129.453 46.536C129.021 47.112 128.421 47.496 127.653 47.688V47.784L130.437 53.616C130.581 53.872 130.501 54 130.197 54H129.117C128.845 54 128.645 53.888 128.517 53.664L125.829 47.856H122.661C122.501 47.856 122.421 47.928 122.421 48.072V53.664C122.421 53.888 122.309 54 122.085 54ZM122.661 46.392H126.285C127.661 46.392 128.349 45.704 128.349 44.328V42.192C128.349 40.8 127.661 40.104 126.285 40.104H122.661C122.501 40.104 122.421 40.176 122.421 40.32V46.176C122.421 46.32 122.501 46.392 122.661 46.392ZM141.432 54H133.896C133.672 54 133.56 53.888 133.56 53.664V38.904C133.56 38.68 133.672 38.568 133.896 38.568H141.432C141.656 38.568 141.768 38.68 141.768 38.904V39.768C141.768 39.992 141.656 40.104 141.432 40.104H135.552C135.392 40.104 135.312 40.176 135.312 40.32V45.168C135.312 45.312 135.392 45.384 135.552 45.384H140.688C140.912 45.384 141.024 45.496 141.024 45.72V46.584C141.024 46.808 140.912 46.92 140.688 46.92H135.552C135.392 46.92 135.312 46.992 135.312 47.136V52.248C135.312 52.392 135.392 52.464 135.552 52.464H141.432C141.656 52.464 141.768 52.576 141.768 52.8V53.664C141.768 53.888 141.656 54 141.432 54ZM144.923 50.448V49.68C144.923 49.456 145.035 49.344 145.259 49.344H146.339C146.563 49.344 146.675 49.456 146.675 49.68V50.304C146.675 51.744 147.387 52.464 148.811 52.464H150.923C152.347 52.464 153.059 51.728 153.059 50.256V49.44C153.059 48.288 152.107 47.536 150.203 47.184C149.403 47.04 148.603 46.872 147.803 46.68C147.003 46.488 146.323 46.12 145.763 45.576C145.203 45.016 144.923 44.256 144.923 43.296V42.12C144.923 41.016 145.235 40.152 145.859 39.528C146.499 38.888 147.371 38.568 148.475 38.568H151.139C152.227 38.568 153.091 38.888 153.731 39.528C154.371 40.152 154.691 41.016 154.691 42.12V42.72C154.691 42.96 154.587 43.08 154.379 43.08H153.275C153.067 43.08 152.963 42.96 152.963 42.72V42.288C152.963 40.832 152.251 40.104 150.827 40.104H148.787C147.363 40.104 146.651 40.864 146.651 42.384V43.344C146.651 44.16 147.187 44.72 148.259 45.024C148.739 45.152 149.267 45.272 149.843 45.384C150.419 45.48 150.995 45.616 151.571 45.792C152.163 45.952 152.699 46.16 153.179 46.416C153.659 46.656 154.043 47.032 154.331 47.544C154.635 48.04 154.787 48.648 154.787 49.368V50.448C154.787 51.552 154.467 52.424 153.827 53.064C153.187 53.688 152.323 54 151.235 54H148.475C147.387 54 146.523 53.688 145.883 53.064C145.243 52.424 144.923 51.552 144.923 50.448ZM158.236 50.448V49.68C158.236 49.456 158.348 49.344 158.572 49.344H159.652C159.876 49.344 159.988 49.456 159.988 49.68V50.304C159.988 51.744 160.7 52.464 162.124 52.464H164.236C165.66 52.464 166.372 51.728 166.372 50.256V49.44C166.372 48.288 165.42 47.536 163.516 47.184C162.716 47.04 161.916 46.872 161.116 46.68C160.316 46.488 159.636 46.12 159.076 45.576C158.516 45.016 158.236 44.256 158.236 43.296V42.12C158.236 41.016 158.548 40.152 159.172 39.528C159.812 38.888 160.684 38.568 161.788 38.568H164.452C165.54 38.568 166.404 38.888 167.044 39.528C167.684 40.152 168.004 41.016 168.004 42.12V42.72C168.004 42.96 167.9 43.08 167.692 43.08H166.588C166.38 43.08 166.276 42.96 166.276 42.72V42.288C166.276 40.832 165.564 40.104 164.14 40.104H162.1C160.676 40.104 159.964 40.864 159.964 42.384V43.344C159.964 44.16 160.5 44.72 161.572 45.024C162.052 45.152 162.58 45.272 163.156 45.384C163.732 45.48 164.308 45.616 164.884 45.792C165.476 45.952 166.012 46.16 166.492 46.416C166.972 46.656 167.356 47.032 167.644 47.544C167.948 48.04 168.1 48.648 168.1 49.368V50.448C168.1 51.552 167.78 52.424 167.14 53.064C166.5 53.688 165.636 54 164.548 54H161.788C160.7 54 159.836 53.688 159.196 53.064C158.556 52.424 158.236 51.552 158.236 50.448ZM179.588 54H172.052C171.828 54 171.716 53.888 171.716 53.664V38.904C171.716 38.68 171.828 38.568 172.052 38.568H179.588C179.812 38.568 179.924 38.68 179.924 38.904V39.768C179.924 39.992 179.812 40.104 179.588 40.104H173.708C173.548 40.104 173.468 40.176 173.468 40.32V45.168C173.468 45.312 173.548 45.384 173.708 45.384H178.844C179.068 45.384 179.18 45.496 179.18 45.72V46.584C179.18 46.808 179.068 46.92 178.844 46.92H173.708C173.548 46.92 173.468 46.992 173.468 47.136V52.248C173.468 52.392 173.548 52.464 173.708 52.464H179.588C179.812 52.464 179.924 52.576 179.924 52.8V53.664C179.924 53.888 179.812 54 179.588 54ZM189.533 54H188.333C188.125 54 188.053 53.888 188.117 53.664L192.605 38.904C192.669 38.68 192.821 38.568 193.061 38.568H194.789C195.029 38.568 195.181 38.68 195.245 38.904L199.733 53.664C199.797 53.888 199.725 54 199.517 54H198.293C198.117 54 198.005 53.888 197.957 53.664L196.829 50.16H191.021L189.893 53.664C189.829 53.888 189.709 54 189.533 54ZM193.877 40.368L191.405 48.672H196.445L193.973 40.368H193.877ZM216.268 54H208.732C208.508 54 208.396 53.888 208.396 53.664V38.904C208.396 38.68 208.508 38.568 208.732 38.568H216.268C216.492 38.568 216.604 38.68 216.604 38.904V39.768C216.604 39.992 216.492 40.104 216.268 40.104H210.388C210.228 40.104 210.148 40.176 210.148 40.32V45.168C210.148 45.312 210.228 45.384 210.388 45.384H215.524C215.748 45.384 215.86 45.496 215.86 45.72V46.584C215.86 46.808 215.748 46.92 215.524 46.92H210.388C210.228 46.92 210.148 46.992 210.148 47.136V52.248C210.148 52.392 210.228 52.464 210.388 52.464H216.268C216.492 52.464 216.604 52.576 216.604 52.8V53.664C216.604 53.888 216.492 54 216.268 54ZM219.759 50.448V49.68C219.759 49.456 219.871 49.344 220.095 49.344H221.175C221.399 49.344 221.511 49.456 221.511 49.68V50.304C221.511 51.744 222.223 52.464 223.647 52.464H225.759C227.183 52.464 227.895 51.728 227.895 50.256V49.44C227.895 48.288 226.943 47.536 225.039 47.184C224.239 47.04 223.439 46.872 222.639 46.68C221.839 46.488 221.159 46.12 220.599 45.576C220.039 45.016 219.759 44.256 219.759 43.296V42.12C219.759 41.016 220.071 40.152 220.695 39.528C221.335 38.888 222.207 38.568 223.311 38.568H225.975C227.063 38.568 227.927 38.888 228.567 39.528C229.207 40.152 229.527 41.016 229.527 42.12V42.72C229.527 42.96 229.423 43.08 229.215 43.08H228.111C227.903 43.08 227.799 42.96 227.799 42.72V42.288C227.799 40.832 227.087 40.104 225.663 40.104H223.623C222.199 40.104 221.487 40.864 221.487 42.384V43.344C221.487 44.16 222.023 44.72 223.095 45.024C223.575 45.152 224.103 45.272 224.679 45.384C225.255 45.48 225.831 45.616 226.407 45.792C226.999 45.952 227.535 46.16 228.015 46.416C228.495 46.656 228.879 47.032 229.167 47.544C229.471 48.04 229.623 48.648 229.623 49.368V50.448C229.623 51.552 229.303 52.424 228.663 53.064C228.023 53.688 227.159 54 226.071 54H223.311C222.223 54 221.359 53.688 220.719 53.064C220.079 52.424 219.759 51.552 219.759 50.448ZM233.072 50.448V49.68C233.072 49.456 233.184 49.344 233.408 49.344H234.488C234.712 49.344 234.824 49.456 234.824 49.68V50.304C234.824 51.744 235.536 52.464 236.96 52.464H239.072C240.496 52.464 241.208 51.728 241.208 50.256V49.44C241.208 48.288 240.256 47.536 238.352 47.184C237.552 47.04 236.752 46.872 235.952 46.68C235.152 46.488 234.472 46.12 233.912 45.576C233.352 45.016 233.072 44.256 233.072 43.296V42.12C233.072 41.016 233.384 40.152 234.008 39.528C234.648 38.888 235.52 38.568 236.624 38.568H239.288C240.376 38.568 241.24 38.888 241.88 39.528C242.52 40.152 242.84 41.016 242.84 42.12V42.72C242.84 42.96 242.736 43.08 242.528 43.08H241.424C241.216 43.08 241.112 42.96 241.112 42.72V42.288C241.112 40.832 240.4 40.104 238.976 40.104H236.936C235.512 40.104 234.8 40.864 234.8 42.384V43.344C234.8 44.16 235.336 44.72 236.408 45.024C236.888 45.152 237.416 45.272 237.992 45.384C238.568 45.48 239.144 45.616 239.72 45.792C240.312 45.952 240.848 46.16 241.328 46.416C241.808 46.656 242.192 47.032 242.48 47.544C242.784 48.04 242.936 48.648 242.936 49.368V50.448C242.936 51.552 242.616 52.424 241.976 53.064C241.336 53.688 240.472 54 239.384 54H236.624C235.536 54 234.672 53.688 234.032 53.064C233.392 52.424 233.072 51.552 233.072 50.448ZM246.744 54H245.544C245.336 54 245.264 53.888 245.328 53.664L249.816 38.904C249.88 38.68 250.032 38.568 250.272 38.568H252C252.24 38.568 252.392 38.68 252.456 38.904L256.944 53.664C257.008 53.888 256.936 54 256.728 54H255.504C255.328 54 255.216 53.888 255.168 53.664L254.04 50.16H248.232L247.104 53.664C247.04 53.888 246.92 54 246.744 54ZM251.088 40.368L248.616 48.672H253.656L251.184 40.368H251.088ZM264.145 54H263.065C262.841 54 262.729 53.888 262.729 53.664V48.216L258.169 38.928C258.121 38.816 258.121 38.728 258.169 38.664C258.217 38.6 258.289 38.568 258.385 38.568H259.729C259.905 38.568 260.041 38.68 260.137 38.904L263.569 46.176H263.689L267.097 38.904C267.161 38.68 267.289 38.568 267.481 38.568H268.849C269.121 38.568 269.193 38.688 269.065 38.928L264.481 48.216V53.664C264.481 53.888 264.369 54 264.145 54ZM279.385 54H271.849C271.625 54 271.513 53.888 271.513 53.664V38.904C271.513 38.68 271.625 38.568 271.849 38.568H279.385C279.609 38.568 279.721 38.68 279.721 38.904V39.768C279.721 39.992 279.609 40.104 279.385 40.104H273.505C273.345 40.104 273.265 40.176 273.265 40.32V45.168C273.265 45.312 273.345 45.384 273.505 45.384H278.641C278.865 45.384 278.977 45.496 278.977 45.72V46.584C278.977 46.808 278.865 46.92 278.641 46.92H273.505C273.345 46.92 273.265 46.992 273.265 47.136V52.248C273.265 52.392 273.345 52.464 273.505 52.464H279.385C279.609 52.464 279.721 52.576 279.721 52.8V53.664C279.721 53.888 279.609 54 279.385 54ZM284.46 54H283.38C283.156 54 283.044 53.888 283.044 53.664V38.904C283.044 38.68 283.156 38.568 283.38 38.568H288.9C290.004 38.568 290.876 38.888 291.516 39.528C292.156 40.152 292.476 41.016 292.476 42.12V44.304C292.476 45.2 292.26 45.944 291.828 46.536C291.396 47.112 290.796 47.496 290.028 47.688V47.784L292.812 53.616C292.956 53.872 292.876 54 292.572 54H291.492C291.22 54 291.02 53.888 290.892 53.664L288.204 47.856H285.036C284.876 47.856 284.796 47.928 284.796 48.072V53.664C284.796 53.888 284.684 54 284.46 54ZM285.036 46.392H288.66C290.036 46.392 290.724 45.704 290.724 44.328V42.192C290.724 40.8 290.036 40.104 288.66 40.104H285.036C284.876 40.104 284.796 40.176 284.796 40.32V46.176C284.796 46.32 284.876 46.392 285.036 46.392ZM304.021 52.464H308.053C309.397 52.464 310.069 51.768 310.069 50.376V42.192C310.069 40.8 309.397 40.104 308.053 40.104H304.021C303.861 40.104 303.781 40.176 303.781 40.32V52.248C303.781 52.392 303.861 52.464 304.021 52.464ZM302.029 53.664V38.904C302.029 38.68 302.141 38.568 302.365 38.568H308.269C309.373 38.568 310.237 38.888 310.861 39.528C311.501 40.152 311.821 41.016 311.821 42.12V50.448C311.821 51.552 311.501 52.424 310.861 53.064C310.237 53.688 309.373 54 308.269 54H302.365C302.141 54 302.029 53.888 302.029 53.664ZM316.469 38.88V40.272C316.469 40.64 316.357 41.16 316.133 41.832L315.317 44.112C315.269 44.224 315.181 44.28 315.053 44.28C314.877 44.28 314.789 44.184 314.789 43.992V38.904C314.789 38.68 314.901 38.568 315.125 38.568H316.157C316.365 38.568 316.469 38.672 316.469 38.88ZM327.909 38.568H328.989C329.213 38.568 329.325 38.672 329.325 38.88V50.448C329.325 51.568 329.013 52.44 328.389 53.064C327.765 53.688 326.901 54 325.797 54H323.133C322.029 54 321.157 53.688 320.517 53.064C319.893 52.44 319.581 51.568 319.581 50.448V38.904C319.581 38.68 319.693 38.568 319.917 38.568H320.997C321.221 38.568 321.333 38.68 321.333 38.904V50.376C321.333 51.768 321.997 52.464 323.325 52.464H325.581C326.925 52.464 327.597 51.768 327.597 50.376V38.904C327.597 38.68 327.701 38.568 327.909 38.568ZM334.406 54H333.326C333.102 54 332.99 53.888 332.99 53.664V38.904C332.99 38.68 333.102 38.568 333.326 38.568H338.846C339.95 38.568 340.822 38.888 341.462 39.528C342.102 40.152 342.422 41.016 342.422 42.12V44.304C342.422 45.2 342.206 45.944 341.774 46.536C341.342 47.112 340.742 47.496 339.974 47.688V47.784L342.758 53.616C342.902 53.872 342.822 54 342.518 54H341.438C341.166 54 340.966 53.888 340.838 53.664L338.15 47.856H334.982C334.822 47.856 334.742 47.928 334.742 48.072V53.664C334.742 53.888 334.63 54 334.406 54ZM334.982 46.392H338.606C339.982 46.392 340.67 45.704 340.67 44.328V42.192C340.67 40.8 339.982 40.104 338.606 40.104H334.982C334.822 40.104 334.742 40.176 334.742 40.32V46.176C334.742 46.32 334.822 46.392 334.982 46.392ZM351.784 54H349.192C348.088 54 347.216 53.688 346.576 53.064C345.952 52.44 345.64 51.568 345.64 50.448V42.12C345.64 41 345.952 40.128 346.576 39.504C347.216 38.88 348.088 38.568 349.192 38.568H351.784C352.888 38.568 353.752 38.888 354.376 39.528C355 40.152 355.312 41.016 355.312 42.12V43.104C355.312 43.344 355.2 43.464 354.976 43.464H353.896C353.672 43.464 353.56 43.344 353.56 43.104V42.192C353.56 40.8 352.896 40.104 351.568 40.104H349.384C348.056 40.104 347.392 40.8 347.392 42.192V50.376C347.392 51.768 348.056 52.464 349.384 52.464H351.568C352.896 52.464 353.56 51.768 353.56 50.376V47.688C353.56 47.528 353.488 47.448 353.344 47.448H350.968C350.744 47.448 350.632 47.344 350.632 47.136V46.248C350.632 46.024 350.744 45.912 350.968 45.912H354.832C355.152 45.912 355.312 46.08 355.312 46.416V50.448C355.312 51.568 355 52.44 354.376 53.064C353.752 53.688 352.888 54 351.784 54ZM366.737 54H359.201C358.977 54 358.865 53.888 358.865 53.664V38.904C358.865 38.68 358.977 38.568 359.201 38.568H366.737C366.961 38.568 367.073 38.68 367.073 38.904V39.768C367.073 39.992 366.961 40.104 366.737 40.104H360.857C360.697 40.104 360.617 40.176 360.617 40.32V45.168C360.617 45.312 360.697 45.384 360.857 45.384H365.993C366.217 45.384 366.329 45.496 366.329 45.72V46.584C366.329 46.808 366.217 46.92 365.993 46.92H360.857C360.697 46.92 360.617 46.992 360.617 47.136V52.248C360.617 52.392 360.697 52.464 360.857 52.464H366.737C366.961 52.464 367.073 52.576 367.073 52.8V53.664C367.073 53.888 366.961 54 366.737 54ZM371.788 54H370.732C370.508 54 370.396 53.888 370.396 53.664V38.904C370.396 38.68 370.508 38.568 370.732 38.568H371.716C371.908 38.568 372.036 38.632 372.1 38.76L378.724 50.4H378.82V38.904C378.82 38.68 378.932 38.568 379.156 38.568H380.212C380.436 38.568 380.548 38.68 380.548 38.904V53.664C380.548 53.888 380.436 54 380.212 54H379.324C379.148 54 378.98 53.896 378.82 53.688L372.22 42.168H372.124V53.664C372.124 53.888 372.012 54 371.788 54ZM390.533 54H387.653C386.549 54 385.677 53.688 385.037 53.064C384.413 52.44 384.101 51.568 384.101 50.448V42.12C384.101 41 384.413 40.128 385.037 39.504C385.677 38.88 386.549 38.568 387.653 38.568H390.533C391.637 38.568 392.501 38.88 393.125 39.504C393.765 40.128 394.085 41 394.085 42.12V43.296C394.085 43.52 393.973 43.632 393.749 43.632H392.669C392.445 43.632 392.333 43.52 392.333 43.296V42.192C392.333 40.8 391.661 40.104 390.317 40.104H387.845C386.517 40.104 385.853 40.8 385.853 42.192V50.376C385.853 51.768 386.517 52.464 387.845 52.464H390.317C391.661 52.464 392.333 51.768 392.333 50.376V49.272C392.333 49.048 392.445 48.936 392.669 48.936H393.749C393.973 48.936 394.085 49.048 394.085 49.272V50.448C394.085 51.568 393.765 52.44 393.125 53.064C392.501 53.688 391.637 54 390.533 54ZM405.198 54H397.662C397.438 54 397.326 53.888 397.326 53.664V38.904C397.326 38.68 397.438 38.568 397.662 38.568H405.198C405.422 38.568 405.534 38.68 405.534 38.904V39.768C405.534 39.992 405.422 40.104 405.198 40.104H399.318C399.158 40.104 399.078 40.176 399.078 40.32V45.168C399.078 45.312 399.158 45.384 399.318 45.384H404.454C404.678 45.384 404.79 45.496 404.79 45.72V46.584C404.79 46.808 404.678 46.92 404.454 46.92H399.318C399.158 46.92 399.078 46.992 399.078 47.136V52.248C399.078 52.392 399.158 52.464 399.318 52.464H405.198C405.422 52.464 405.534 52.576 405.534 52.8V53.664C405.534 53.888 405.422 54 405.198 54ZM410.225 50.76V52.656C410.225 53.008 410.105 53.472 409.865 54.048L408.905 56.304C408.825 56.432 408.729 56.496 408.617 56.496C408.457 56.496 408.377 56.392 408.377 56.184V50.76C408.377 50.552 408.481 50.448 408.689 50.448H409.913C410.121 50.448 410.225 50.552 410.225 50.76ZM424.655 54H422.951C422.743 54 422.607 53.888 422.543 53.664L418.295 38.928C418.247 38.688 418.351 38.568 418.607 38.568H419.783C419.991 38.568 420.119 38.68 420.167 38.904L423.743 52.032H423.839L427.415 38.904C427.463 38.68 427.591 38.568 427.799 38.568H428.999C429.239 38.568 429.335 38.688 429.287 38.928L425.039 53.664C424.975 53.888 424.847 54 424.655 54ZM435.259 52.464H437.707C439.051 52.464 439.723 51.768 439.723 50.376V42.192C439.723 40.8 439.051 40.104 437.707 40.104H435.259C433.931 40.104 433.267 40.8 433.267 42.192V50.376C433.267 51.768 433.931 52.464 435.259 52.464ZM437.923 54H435.067C433.963 54 433.091 53.688 432.451 53.064C431.827 52.44 431.515 51.568 431.515 50.448V42.12C431.515 41 431.827 40.128 432.451 39.504C433.091 38.88 433.963 38.568 435.067 38.568H437.923C439.027 38.568 439.891 38.888 440.515 39.528C441.155 40.152 441.475 41.016 441.475 42.12V50.448C441.475 51.552 441.155 52.424 440.515 53.064C439.891 53.688 439.027 54 437.923 54ZM453.229 38.568H454.309C454.533 38.568 454.645 38.672 454.645 38.88V50.448C454.645 51.568 454.333 52.44 453.709 53.064C453.085 53.688 452.221 54 451.117 54H448.453C447.349 54 446.477 53.688 445.837 53.064C445.213 52.44 444.901 51.568 444.901 50.448V38.904C444.901 38.68 445.013 38.568 445.237 38.568H446.317C446.541 38.568 446.653 38.68 446.653 38.904V50.376C446.653 51.768 447.317 52.464 448.645 52.464H450.901C452.245 52.464 452.917 51.768 452.917 50.376V38.904C452.917 38.68 453.021 38.568 453.229 38.568ZM458.142 50.448V49.68C458.142 49.456 458.254 49.344 458.478 49.344H459.558C459.782 49.344 459.894 49.456 459.894 49.68V50.304C459.894 51.744 460.606 52.464 462.03 52.464H464.142C465.566 52.464 466.278 51.728 466.278 50.256V49.44C466.278 48.288 465.326 47.536 463.422 47.184C462.622 47.04 461.822 46.872 461.022 46.68C460.222 46.488 459.542 46.12 458.982 45.576C458.422 45.016 458.142 44.256 458.142 43.296V42.12C458.142 41.016 458.454 40.152 459.078 39.528C459.718 38.888 460.59 38.568 461.694 38.568H464.358C465.446 38.568 466.31 38.888 466.95 39.528C467.59 40.152 467.91 41.016 467.91 42.12V42.72C467.91 42.96 467.806 43.08 467.598 43.08H466.494C466.286 43.08 466.182 42.96 466.182 42.72V42.288C466.182 40.832 465.47 40.104 464.046 40.104H462.006C460.582 40.104 459.87 40.864 459.87 42.384V43.344C459.87 44.16 460.406 44.72 461.478 45.024C461.958 45.152 462.486 45.272 463.062 45.384C463.638 45.48 464.214 45.616 464.79 45.792C465.382 45.952 465.918 46.16 466.398 46.416C466.878 46.656 467.262 47.032 467.55 47.544C467.854 48.04 468.006 48.648 468.006 49.368V50.448C468.006 51.552 467.686 52.424 467.046 53.064C466.406 53.688 465.542 54 464.454 54H461.694C460.606 54 459.742 53.688 459.102 53.064C458.462 52.424 458.142 51.552 458.142 50.448ZM479.108 54H478.052C477.828 54 477.716 53.888 477.716 53.664V38.904C477.716 38.68 477.828 38.568 478.052 38.568H479.036C479.228 38.568 479.356 38.632 479.42 38.76L486.044 50.4H486.14V38.904C486.14 38.68 486.252 38.568 486.476 38.568H487.532C487.756 38.568 487.868 38.68 487.868 38.904V53.664C487.868 53.888 487.756 54 487.532 54H486.644C486.468 54 486.3 53.896 486.14 53.688L479.54 42.168H479.444V53.664C479.444 53.888 479.332 54 479.108 54ZM499.534 54H491.998C491.774 54 491.662 53.888 491.662 53.664V38.904C491.662 38.68 491.774 38.568 491.998 38.568H499.534C499.758 38.568 499.87 38.68 499.87 38.904V39.768C499.87 39.992 499.758 40.104 499.534 40.104H493.654C493.494 40.104 493.414 40.176 493.414 40.32V45.168C493.414 45.312 493.494 45.384 493.654 45.384H498.79C499.014 45.384 499.126 45.496 499.126 45.72V46.584C499.126 46.808 499.014 46.92 498.79 46.92H493.654C493.494 46.92 493.414 46.992 493.414 47.136V52.248C493.414 52.392 493.494 52.464 493.654 52.464H499.534C499.758 52.464 499.87 52.576 499.87 52.8V53.664C499.87 53.888 499.758 54 499.534 54ZM509.119 50.448V49.68C509.119 49.456 509.231 49.344 509.455 49.344H510.535C510.759 49.344 510.871 49.456 510.871 49.68V50.304C510.871 51.744 511.583 52.464 513.007 52.464H515.119C516.543 52.464 517.255 51.728 517.255 50.256V49.44C517.255 48.288 516.303 47.536 514.399 47.184C513.599 47.04 512.799 46.872 511.999 46.68C511.199 46.488 510.519 46.12 509.959 45.576C509.399 45.016 509.119 44.256 509.119 43.296V42.12C509.119 41.016 509.431 40.152 510.055 39.528C510.695 38.888 511.567 38.568 512.671 38.568H515.335C516.423 38.568 517.287 38.888 517.927 39.528C518.567 40.152 518.887 41.016 518.887 42.12V42.72C518.887 42.96 518.783 43.08 518.575 43.08H517.471C517.263 43.08 517.159 42.96 517.159 42.72V42.288C517.159 40.832 516.447 40.104 515.023 40.104H512.983C511.559 40.104 510.847 40.864 510.847 42.384V43.344C510.847 44.16 511.383 44.72 512.455 45.024C512.935 45.152 513.463 45.272 514.039 45.384C514.615 45.48 515.191 45.616 515.767 45.792C516.359 45.952 516.895 46.16 517.375 46.416C517.855 46.656 518.239 47.032 518.527 47.544C518.831 48.04 518.983 48.648 518.983 49.368V50.448C518.983 51.552 518.663 52.424 518.023 53.064C517.383 53.688 516.519 54 515.431 54H512.671C511.583 54 510.719 53.688 510.079 53.064C509.439 52.424 509.119 51.552 509.119 50.448ZM530.471 54H522.935C522.711 54 522.599 53.888 522.599 53.664V38.904C522.599 38.68 522.711 38.568 522.935 38.568H530.471C530.695 38.568 530.807 38.68 530.807 38.904V39.768C530.807 39.992 530.695 40.104 530.471 40.104H524.591C524.431 40.104 524.351 40.176 524.351 40.32V45.168C524.351 45.312 524.431 45.384 524.591 45.384H529.727C529.951 45.384 530.063 45.496 530.063 45.72V46.584C530.063 46.808 529.951 46.92 529.727 46.92H524.591C524.431 46.92 524.351 46.992 524.351 47.136V52.248C524.351 52.392 524.431 52.464 524.591 52.464H530.471C530.695 52.464 530.807 52.576 530.807 52.8V53.664C530.807 53.888 530.695 54 530.471 54ZM535.546 54H534.466C534.242 54 534.13 53.888 534.13 53.664V38.904C534.13 38.68 534.242 38.568 534.466 38.568H539.986C541.09 38.568 541.962 38.888 542.602 39.528C543.242 40.152 543.562 41.016 543.562 42.12V44.304C543.562 45.2 543.346 45.944 542.914 46.536C542.482 47.112 541.882 47.496 541.114 47.688V47.784L543.898 53.616C544.042 53.872 543.962 54 543.658 54H542.578C542.306 54 542.106 53.888 541.978 53.664L539.29 47.856H536.122C535.962 47.856 535.882 47.928 535.882 48.072V53.664C535.882 53.888 535.77 54 535.546 54ZM536.122 46.392H539.746C541.122 46.392 541.81 45.704 541.81 44.328V42.192C541.81 40.8 541.122 40.104 539.746 40.104H536.122C535.962 40.104 535.882 40.176 535.882 40.32V46.176C535.882 46.32 535.962 46.392 536.122 46.392ZM554.893 54H547.357C547.133 54 547.021 53.888 547.021 53.664V38.904C547.021 38.68 547.133 38.568 547.357 38.568H554.893C555.117 38.568 555.229 38.68 555.229 38.904V39.768C555.229 39.992 555.117 40.104 554.893 40.104H549.013C548.853 40.104 548.773 40.176 548.773 40.32V45.168C548.773 45.312 548.853 45.384 549.013 45.384H554.149C554.373 45.384 554.485 45.496 554.485 45.72V46.584C554.485 46.808 554.373 46.92 554.149 46.92H549.013C548.853 46.92 548.773 46.992 548.773 47.136V52.248C548.773 52.392 548.853 52.464 549.013 52.464H554.893C555.117 52.464 555.229 52.576 555.229 52.8V53.664C555.229 53.888 555.117 54 554.893 54ZM557.712 53.664V52.8C557.712 52.512 557.76 52.304 557.856 52.176L565.296 40.296V40.2H558.36C558.136 40.2 558.024 40.088 558.024 39.864V38.904C558.024 38.68 558.136 38.568 558.36 38.568H566.856C567.08 38.568 567.192 38.68 567.192 38.904V40.056C567.192 40.312 567.128 40.536 567 40.728L559.752 52.272V52.368H567.096C567.32 52.368 567.432 52.472 567.432 52.68V53.64C567.432 53.88 567.32 54 567.096 54H558.048C557.824 54 557.712 53.888 557.712 53.664ZM249.386 90H248.306C248.082 90 247.97 89.888 247.97 89.664V74.904C247.97 74.68 248.082 74.568 248.306 74.568H253.922C255.026 74.568 255.89 74.888 256.514 75.528C257.138 76.152 257.45 77.016 257.45 78.12V80.784C257.45 81.904 257.138 82.776 256.514 83.4C255.89 84.024 255.026 84.336 253.922 84.336H249.962C249.802 84.336 249.722 84.408 249.722 84.552V89.664C249.722 89.888 249.61 90 249.386 90ZM249.962 82.776H253.682C255.026 82.776 255.698 82.088 255.698 80.712V78.192C255.698 76.8 255.026 76.104 253.682 76.104H249.962C249.802 76.104 249.722 76.176 249.722 76.32V82.56C249.722 82.704 249.802 82.776 249.962 82.776ZM260.795 90H259.595C259.387 90 259.315 89.888 259.379 89.664L263.867 74.904C263.931 74.68 264.083 74.568 264.323 74.568H266.051C266.291 74.568 266.443 74.68 266.507 74.904L270.995 89.664C271.059 89.888 270.987 90 270.779 90H269.555C269.379 90 269.267 89.888 269.219 89.664L268.091 86.16H262.283L261.155 89.664C261.091 89.888 260.971 90 260.795 90ZM265.139 76.368L262.667 84.672H267.707L265.235 76.368H265.139ZM273.396 86.448V85.68C273.396 85.456 273.508 85.344 273.732 85.344H274.812C275.036 85.344 275.148 85.456 275.148 85.68V86.304C275.148 87.744 275.86 88.464 277.284 88.464H279.396C280.82 88.464 281.532 87.728 281.532 86.256V85.44C281.532 84.288 280.58 83.536 278.676 83.184C277.876 83.04 277.076 82.872 276.276 82.68C275.476 82.488 274.796 82.12 274.236 81.576C273.676 81.016 273.396 80.256 273.396 79.296V78.12C273.396 77.016 273.708 76.152 274.332 75.528C274.972 74.888 275.844 74.568 276.948 74.568H279.612C280.7 74.568 281.564 74.888 282.204 75.528C282.844 76.152 283.164 77.016 283.164 78.12V78.72C283.164 78.96 283.06 79.08 282.852 79.08H281.748C281.54 79.08 281.436 78.96 281.436 78.72V78.288C281.436 76.832 280.724 76.104 279.3 76.104H277.26C275.836 76.104 275.124 76.864 275.124 78.384V79.344C275.124 80.16 275.66 80.72 276.732 81.024C277.212 81.152 277.74 81.272 278.316 81.384C278.892 81.48 279.468 81.616 280.044 81.792C280.636 81.952 281.172 82.16 281.652 82.416C282.132 82.656 282.516 83.032 282.804 83.544C283.108 84.04 283.26 84.648 283.26 85.368V86.448C283.26 87.552 282.94 88.424 282.3 89.064C281.66 89.688 280.796 90 279.708 90H276.948C275.86 90 274.996 89.688 274.356 89.064C273.716 88.424 273.396 87.552 273.396 86.448ZM294.962 88.464H298.994C300.338 88.464 301.01 87.768 301.01 86.376V78.192C301.01 76.8 300.338 76.104 298.994 76.104H294.962C294.802 76.104 294.722 76.176 294.722 76.32V88.248C294.722 88.392 294.802 88.464 294.962 88.464ZM292.97 89.664V74.904C292.97 74.68 293.082 74.568 293.306 74.568H299.21C300.314 74.568 301.178 74.888 301.802 75.528C302.442 76.152 302.762 77.016 302.762 78.12V86.448C302.762 87.552 302.442 88.424 301.802 89.064C301.178 89.688 300.314 90 299.21 90H293.306C293.082 90 292.97 89.888 292.97 89.664ZM314.178 90H306.642C306.418 90 306.306 89.888 306.306 89.664V74.904C306.306 74.68 306.418 74.568 306.642 74.568H314.178C314.402 74.568 314.514 74.68 314.514 74.904V75.768C314.514 75.992 314.402 76.104 314.178 76.104H308.298C308.138 76.104 308.058 76.176 308.058 76.32V81.168C308.058 81.312 308.138 81.384 308.298 81.384H313.434C313.658 81.384 313.77 81.496 313.77 81.72V82.584C313.77 82.808 313.658 82.92 313.434 82.92H308.298C308.138 82.92 308.058 82.992 308.058 83.136V88.248C308.058 88.392 308.138 88.464 308.298 88.464H314.178C314.402 88.464 314.514 88.576 314.514 88.8V89.664C314.514 89.888 314.402 90 314.178 90ZM324.029 90H321.149C320.045 90 319.173 89.688 318.533 89.064C317.909 88.44 317.597 87.568 317.597 86.448V78.12C317.597 77 317.909 76.128 318.533 75.504C319.173 74.88 320.045 74.568 321.149 74.568H324.029C325.133 74.568 325.997 74.88 326.621 75.504C327.261 76.128 327.581 77 327.581 78.12V79.296C327.581 79.52 327.469 79.632 327.245 79.632H326.165C325.941 79.632 325.829 79.52 325.829 79.296V78.192C325.829 76.8 325.157 76.104 323.813 76.104H321.341C320.013 76.104 319.349 76.8 319.349 78.192V86.376C319.349 87.768 320.013 88.464 321.341 88.464H323.813C325.157 88.464 325.829 87.768 325.829 86.376V85.272C325.829 85.048 325.941 84.936 326.165 84.936H327.245C327.469 84.936 327.581 85.048 327.581 85.272V86.448C327.581 87.568 327.261 88.44 326.621 89.064C325.997 89.688 325.133 90 324.029 90ZM339.03 74.568H340.11C340.334 74.568 340.446 74.672 340.446 74.88V86.448C340.446 87.568 340.134 88.44 339.51 89.064C338.886 89.688 338.022 90 336.918 90H334.254C333.15 90 332.278 89.688 331.638 89.064C331.014 88.44 330.702 87.568 330.702 86.448V74.904C330.702 74.68 330.814 74.568 331.038 74.568H332.118C332.342 74.568 332.454 74.68 332.454 74.904V86.376C332.454 87.768 333.118 88.464 334.446 88.464H336.702C338.046 88.464 338.718 87.768 338.718 86.376V74.904C338.718 74.68 338.822 74.568 339.03 74.568ZM350.181 77.688V74.904C350.181 74.68 350.293 74.568 350.517 74.568H351.789C352.013 74.568 352.125 74.68 352.125 74.904V77.688C352.125 79.208 352.077 80.688 351.981 82.128C351.885 83.568 351.821 84.384 351.789 84.576C351.757 84.768 351.653 84.864 351.477 84.864H350.829C350.621 84.864 350.509 84.744 350.493 84.504C350.429 83.88 350.357 82.784 350.277 81.216C350.213 79.648 350.181 78.472 350.181 77.688ZM352.077 86.76V89.664C352.077 89.888 351.965 90 351.741 90H350.589C350.381 90 350.277 89.88 350.277 89.64V86.76C350.277 86.552 350.381 86.448 350.589 86.448H351.741C351.965 86.448 352.077 86.552 352.077 86.76ZM357.004 74.88V76.272C357.004 76.64 356.892 77.16 356.668 77.832L355.852 80.112C355.804 80.224 355.716 80.28 355.588 80.28C355.412 80.28 355.324 80.184 355.324 79.992V74.904C355.324 74.68 355.436 74.568 355.66 74.568H356.692C356.9 74.568 357.004 74.672 357.004 74.88ZM360.7 74.88V76.272C360.7 76.672 360.58 77.192 360.34 77.832L359.548 80.112C359.5 80.224 359.396 80.28 359.236 80.28C359.092 80.28 359.02 80.184 359.02 79.992V74.904C359.02 74.68 359.124 74.568 359.332 74.568H360.388C360.596 74.568 360.7 74.672 360.7 74.88Z" fill="#686666"/>
    <path d="M176.339 113.4H180.371C181.415 113.4 182.339 113.652 183.143 114.156C183.959 114.66 184.595 115.386 185.051 116.334C185.507 117.282 185.735 118.404 185.735 119.7C185.735 120.996 185.507 122.118 185.051 123.066C184.595 124.014 183.959 124.74 183.143 125.244C182.339 125.748 181.415 126 180.371 126H176.339V113.4ZM180.065 124.506C181.325 124.506 182.279 124.086 182.927 123.246C183.587 122.406 183.917 121.224 183.917 119.7C183.917 118.176 183.587 116.994 182.927 116.154C182.279 115.314 181.325 114.894 180.065 114.894H177.977V124.506H180.065ZM190.888 126.18C190 126.18 189.238 125.976 188.602 125.568C187.978 125.148 187.504 124.584 187.18 123.876C186.868 123.168 186.712 122.382 186.712 121.518C186.712 120.69 186.856 119.934 187.144 119.25C187.444 118.554 187.87 118.008 188.422 117.612C188.986 117.204 189.652 117 190.42 117C191.404 117 192.202 117.33 192.814 117.99C193.438 118.65 193.75 119.562 193.75 120.726C193.75 120.93 193.726 121.212 193.678 121.572H188.314C188.35 122.616 188.608 123.408 189.088 123.948C189.58 124.488 190.216 124.758 190.996 124.758C191.368 124.758 191.758 124.716 192.166 124.632C192.586 124.536 192.952 124.404 193.264 124.236L193.408 125.64C192.748 126 191.908 126.18 190.888 126.18ZM192.148 120.474C192.148 119.874 191.998 119.388 191.698 119.016C191.41 118.632 190.99 118.44 190.438 118.44C189.898 118.44 189.448 118.608 189.088 118.944C188.74 119.28 188.506 119.79 188.386 120.474H192.148ZM189.124 114.39L191.77 112.698V114.462L189.124 115.488V114.39ZM198.672 126.18C197.328 126.18 196.308 125.76 195.612 124.92C194.916 124.068 194.568 122.976 194.568 121.644C194.568 120.264 194.916 119.148 195.612 118.296C196.308 117.432 197.34 117 198.708 117C199.44 117 200.094 117.15 200.67 117.45L200.418 118.836C199.878 118.548 199.314 118.404 198.726 118.404C197.922 118.404 197.292 118.686 196.836 119.25C196.392 119.802 196.17 120.576 196.17 121.572C196.17 122.568 196.398 123.354 196.854 123.93C197.322 124.506 197.964 124.794 198.78 124.794C199.404 124.794 199.956 124.65 200.436 124.362L200.652 125.766C200.412 125.886 200.112 125.982 199.752 126.054C199.392 126.138 199.032 126.18 198.672 126.18ZM205.204 126.18C204.412 126.18 203.728 125.982 203.152 125.586C202.576 125.178 202.132 124.626 201.82 123.93C201.52 123.234 201.37 122.454 201.37 121.59C201.37 120.726 201.52 119.946 201.82 119.25C202.132 118.554 202.576 118.008 203.152 117.612C203.728 117.204 204.412 117 205.204 117C205.984 117 206.662 117.204 207.238 117.612C207.814 118.008 208.252 118.554 208.552 119.25C208.852 119.946 209.002 120.726 209.002 121.59C209.002 122.454 208.852 123.234 208.552 123.93C208.252 124.626 207.814 125.178 207.238 125.586C206.662 125.982 205.984 126.18 205.204 126.18ZM205.204 124.794C205.9 124.794 206.44 124.512 206.824 123.948C207.208 123.384 207.4 122.598 207.4 121.59C207.4 120.582 207.208 119.802 206.824 119.25C206.44 118.686 205.9 118.404 205.204 118.404C204.484 118.404 203.932 118.686 203.548 119.25C203.164 119.802 202.972 120.582 202.972 121.59C202.972 122.61 203.164 123.402 203.548 123.966C203.932 124.518 204.484 124.794 205.204 124.794ZM216.755 117.18V126H215.423L215.315 124.92C215.075 125.316 214.751 125.628 214.343 125.856C213.935 126.072 213.485 126.18 212.993 126.18C212.069 126.18 211.379 125.874 210.923 125.262C210.479 124.638 210.257 123.75 210.257 122.598V117.18H211.823V122.4C211.823 123.192 211.937 123.786 212.165 124.182C212.405 124.566 212.801 124.758 213.353 124.758C213.737 124.758 214.085 124.65 214.397 124.434C214.709 124.218 214.973 123.918 215.189 123.534V117.18H216.755ZM218.044 117.18H219.718L221.77 124.146L223.786 117.18H225.46L222.544 126H220.978L218.044 117.18ZM226.556 117.18H227.834L228.032 118.656C228.428 118.08 228.8 117.66 229.148 117.396C229.508 117.132 229.886 117 230.282 117C230.438 117 230.576 117.018 230.696 117.054L230.534 118.836C230.378 118.8 230.198 118.782 229.994 118.782C229.598 118.782 229.226 118.884 228.878 119.088C228.53 119.28 228.278 119.508 228.122 119.772V126H226.556V117.18ZM231.883 113.4H233.449V115.182H231.883V113.4ZM231.883 117.18H233.449V126H231.883V117.18ZM235.539 117.18H236.817L237.015 118.656C237.411 118.08 237.783 117.66 238.131 117.396C238.491 117.132 238.869 117 239.265 117C239.421 117 239.559 117.018 239.679 117.054L239.517 118.836C239.361 118.8 239.181 118.782 238.977 118.782C238.581 118.782 238.209 118.884 237.861 119.088C237.513 119.28 237.261 119.508 237.105 119.772V126H235.539V117.18ZM246.595 126.18C245.563 126.18 244.669 125.94 243.913 125.46L244.111 123.876C244.879 124.476 245.671 124.776 246.487 124.776C246.919 124.776 247.255 124.686 247.495 124.506C247.747 124.326 247.873 124.062 247.873 123.714C247.873 123.45 247.813 123.234 247.693 123.066C247.585 122.898 247.399 122.736 247.135 122.58C246.871 122.424 246.463 122.22 245.911 121.968C245.263 121.668 244.789 121.326 244.489 120.942C244.189 120.558 244.039 120.06 244.039 119.448C244.039 118.728 244.291 118.14 244.795 117.684C245.299 117.228 245.977 117 246.829 117C247.693 117 248.449 117.192 249.097 117.576L248.899 119.034C248.575 118.818 248.269 118.662 247.981 118.566C247.693 118.458 247.351 118.404 246.955 118.404C246.535 118.404 246.205 118.494 245.965 118.674C245.725 118.854 245.605 119.106 245.605 119.43C245.605 119.754 245.707 120 245.911 120.168C246.127 120.336 246.541 120.558 247.153 120.834C248.005 121.218 248.605 121.608 248.953 122.004C249.301 122.388 249.475 122.898 249.475 123.534C249.475 124.362 249.217 125.01 248.701 125.478C248.185 125.946 247.483 126.18 246.595 126.18ZM257.132 117.18V126H255.8L255.692 124.92C255.452 125.316 255.128 125.628 254.72 125.856C254.312 126.072 253.862 126.18 253.37 126.18C252.446 126.18 251.756 125.874 251.3 125.262C250.856 124.638 250.634 123.75 250.634 122.598V117.18H252.2V122.4C252.2 123.192 252.314 123.786 252.542 124.182C252.782 124.566 253.178 124.758 253.73 124.758C254.114 124.758 254.462 124.65 254.774 124.434C255.086 124.218 255.35 123.918 255.566 123.534V117.18H257.132ZM259.375 117.18H260.653L260.851 118.656C261.247 118.08 261.619 117.66 261.967 117.396C262.327 117.132 262.705 117 263.101 117C263.257 117 263.395 117.018 263.515 117.054L263.353 118.836C263.197 118.8 263.017 118.782 262.813 118.782C262.417 118.782 262.045 118.884 261.697 119.088C261.349 119.28 261.097 119.508 260.941 119.772V126H259.375V117.18Z" fill="#8F8F8F"/>
    <path d="M279.054 124.68C280.007 124.68 280.916 124.497 281.782 124.13C282.647 123.749 283.373 123.228 283.96 122.568L285.06 123.712C284.297 124.504 283.388 125.127 282.332 125.582C281.276 126.022 280.168 126.242 279.01 126.242C277.895 126.242 276.846 126.037 275.864 125.626C274.896 125.215 274.052 124.658 273.334 123.954C272.615 123.235 272.05 122.392 271.64 121.424C271.229 120.441 271.024 119.4 271.024 118.3C271.024 117.2 271.229 116.166 271.64 115.198C272.05 114.215 272.615 113.372 273.334 112.668C274.052 111.949 274.896 111.385 275.864 110.974C276.846 110.563 277.895 110.358 279.01 110.358C280.198 110.358 281.32 110.585 282.376 111.04C283.446 111.48 284.356 112.096 285.104 112.888L283.982 114.076C283.38 113.401 282.632 112.873 281.738 112.492C280.858 112.111 279.948 111.92 279.01 111.92C278.13 111.92 277.301 112.089 276.524 112.426C275.761 112.749 275.101 113.196 274.544 113.768C273.986 114.325 273.546 115 273.224 115.792C272.901 116.569 272.74 117.405 272.74 118.3C272.74 119.195 272.901 120.038 273.224 120.83C273.546 121.607 273.986 122.282 274.544 122.854C275.116 123.411 275.783 123.859 276.546 124.196C277.323 124.519 278.159 124.68 279.054 124.68ZM286.383 120.478C286.383 119.686 286.53 118.938 286.823 118.234C287.116 117.53 287.512 116.921 288.011 116.408C288.524 115.895 289.126 115.491 289.815 115.198C290.504 114.905 291.238 114.758 292.015 114.758C292.792 114.758 293.518 114.905 294.193 115.198C294.882 115.491 295.476 115.895 295.975 116.408C296.488 116.921 296.892 117.53 297.185 118.234C297.478 118.938 297.625 119.686 297.625 120.478C297.625 121.285 297.478 122.04 297.185 122.744C296.892 123.448 296.488 124.057 295.975 124.57C295.476 125.083 294.882 125.487 294.193 125.78C293.518 126.073 292.792 126.22 292.015 126.22C291.238 126.22 290.504 126.073 289.815 125.78C289.126 125.487 288.524 125.083 288.011 124.57C287.512 124.057 287.116 123.448 286.823 122.744C286.53 122.04 286.383 121.285 286.383 120.478ZM292.015 124.768C292.572 124.768 293.093 124.658 293.577 124.438C294.076 124.218 294.501 123.917 294.853 123.536C295.22 123.14 295.506 122.685 295.711 122.172C295.916 121.644 296.019 121.079 296.019 120.478C296.019 119.877 295.916 119.319 295.711 118.806C295.506 118.278 295.22 117.823 294.853 117.442C294.501 117.061 294.076 116.76 293.577 116.54C293.093 116.32 292.572 116.21 292.015 116.21C291.458 116.21 290.93 116.32 290.431 116.54C289.947 116.76 289.522 117.061 289.155 117.442C288.803 117.823 288.517 118.278 288.297 118.806C288.092 119.319 287.989 119.877 287.989 120.478C287.989 121.079 288.092 121.644 288.297 122.172C288.502 122.685 288.781 123.14 289.133 123.536C289.5 123.917 289.932 124.218 290.431 124.438C290.93 124.658 291.458 124.768 292.015 124.768ZM300.701 112.866C300.408 112.866 300.151 112.756 299.931 112.536C299.711 112.316 299.601 112.059 299.601 111.766C299.601 111.458 299.711 111.201 299.931 110.996C300.151 110.776 300.408 110.666 300.701 110.666C301.009 110.666 301.266 110.776 301.471 110.996C301.691 111.201 301.801 111.458 301.801 111.766C301.801 112.059 301.691 112.316 301.471 112.536C301.266 112.756 301.009 112.866 300.701 112.866ZM301.515 114.978V126H299.887V114.978H301.515ZM304.291 126V114.978H305.919V116.276C306.345 115.777 306.851 115.403 307.437 115.154C308.024 114.89 308.677 114.758 309.395 114.758C310.642 114.758 311.661 115.154 312.453 115.946C313.245 116.738 313.641 117.765 313.641 119.026V126H312.035V119.356C312.035 118.388 311.757 117.618 311.199 117.046C310.642 116.474 309.894 116.188 308.955 116.188C308.295 116.188 307.701 116.335 307.173 116.628C306.66 116.921 306.242 117.339 305.919 117.882V126H304.291ZM321.4 126V110.6H332.422V112.096H323.094V117.596H329.21V119.07H323.094V126H321.4ZM332.145 120.478C332.145 119.686 332.291 118.938 332.585 118.234C332.878 117.53 333.274 116.921 333.773 116.408C334.286 115.895 334.887 115.491 335.577 115.198C336.266 114.905 336.999 114.758 337.777 114.758C338.554 114.758 339.28 114.905 339.955 115.198C340.644 115.491 341.238 115.895 341.737 116.408C342.25 116.921 342.653 117.53 342.947 118.234C343.24 118.938 343.387 119.686 343.387 120.478C343.387 121.285 343.24 122.04 342.947 122.744C342.653 123.448 342.25 124.057 341.737 124.57C341.238 125.083 340.644 125.487 339.955 125.78C339.28 126.073 338.554 126.22 337.777 126.22C336.999 126.22 336.266 126.073 335.577 125.78C334.887 125.487 334.286 125.083 333.773 124.57C333.274 124.057 332.878 123.448 332.585 122.744C332.291 122.04 332.145 121.285 332.145 120.478ZM337.777 124.768C338.334 124.768 338.855 124.658 339.339 124.438C339.837 124.218 340.263 123.917 340.615 123.536C340.981 123.14 341.267 122.685 341.473 122.172C341.678 121.644 341.781 121.079 341.781 120.478C341.781 119.877 341.678 119.319 341.473 118.806C341.267 118.278 340.981 117.823 340.615 117.442C340.263 117.061 339.837 116.76 339.339 116.54C338.855 116.32 338.334 116.21 337.777 116.21C337.219 116.21 336.691 116.32 336.193 116.54C335.709 116.76 335.283 117.061 334.917 117.442C334.565 117.823 334.279 118.278 334.059 118.806C333.853 119.319 333.751 119.877 333.751 120.478C333.751 121.079 333.853 121.644 334.059 122.172C334.264 122.685 334.543 123.14 334.895 123.536C335.261 123.917 335.694 124.218 336.193 124.438C336.691 124.658 337.219 124.768 337.777 124.768ZM347.211 114.978V121.622C347.211 122.59 347.489 123.36 348.047 123.932C348.604 124.504 349.352 124.79 350.291 124.79C350.951 124.79 351.537 124.643 352.051 124.35C352.579 124.042 353.004 123.617 353.327 123.074V114.978H354.955V126H353.327V124.724C352.901 125.223 352.395 125.597 351.809 125.846C351.237 126.095 350.591 126.22 349.873 126.22C348.611 126.22 347.585 125.824 346.793 125.032C346.001 124.24 345.605 123.213 345.605 121.952V114.978H347.211ZM357.723 126V114.978H359.351V116.54C359.674 115.968 360.099 115.528 360.627 115.22C361.155 114.897 361.756 114.736 362.431 114.736C362.636 114.736 362.82 114.751 362.981 114.78C363.142 114.795 363.304 114.831 363.465 114.89V116.386C363.274 116.327 363.084 116.283 362.893 116.254C362.702 116.21 362.512 116.188 362.321 116.188C361.646 116.188 361.052 116.386 360.539 116.782C360.026 117.163 359.63 117.721 359.351 118.454V126H357.723ZM369.681 124.724C370.268 124.724 370.833 124.607 371.375 124.372C371.918 124.137 372.424 123.793 372.893 123.338L373.905 124.438C373.319 124.995 372.659 125.428 371.925 125.736C371.192 126.044 370.429 126.198 369.637 126.198C368.86 126.198 368.127 126.051 367.437 125.758C366.748 125.465 366.154 125.061 365.655 124.548C365.157 124.035 364.761 123.426 364.467 122.722C364.174 122.018 364.027 121.27 364.027 120.478C364.027 119.686 364.174 118.945 364.467 118.256C364.761 117.552 365.157 116.943 365.655 116.43C366.154 115.917 366.748 115.513 367.437 115.22C368.127 114.912 368.86 114.758 369.637 114.758C370.429 114.758 371.199 114.912 371.947 115.22C372.71 115.528 373.377 115.953 373.949 116.496L372.915 117.684C372.475 117.229 371.969 116.877 371.397 116.628C370.825 116.379 370.246 116.254 369.659 116.254C369.102 116.254 368.574 116.364 368.075 116.584C367.577 116.804 367.144 117.105 366.777 117.486C366.425 117.867 366.147 118.315 365.941 118.828C365.736 119.341 365.633 119.891 365.633 120.478C365.633 121.079 365.736 121.644 365.941 122.172C366.161 122.685 366.447 123.133 366.799 123.514C367.166 123.881 367.599 124.174 368.097 124.394C368.596 124.614 369.124 124.724 369.681 124.724ZM375.813 126V110.6L377.441 110.226V116.276C377.866 115.777 378.372 115.403 378.959 115.154C379.545 114.89 380.198 114.758 380.917 114.758C382.163 114.758 383.183 115.154 383.975 115.946C384.767 116.738 385.163 117.765 385.163 119.026V126H383.557V119.356C383.557 118.388 383.278 117.618 382.721 117.046C382.163 116.474 381.415 116.188 380.477 116.188C379.817 116.188 379.223 116.335 378.695 116.628C378.181 116.921 377.763 117.339 377.441 117.882V126H375.813ZM397.171 124.834C396.555 125.289 395.91 125.633 395.235 125.868C394.575 126.088 393.849 126.198 393.057 126.198C392.265 126.198 391.517 126.051 390.813 125.758C390.124 125.465 389.522 125.061 389.009 124.548C388.51 124.035 388.114 123.433 387.821 122.744C387.528 122.04 387.381 121.285 387.381 120.478C387.381 119.686 387.52 118.945 387.799 118.256C388.092 117.567 388.481 116.965 388.965 116.452C389.449 115.939 390.021 115.535 390.681 115.242C391.356 114.949 392.067 114.802 392.815 114.802C393.548 114.802 394.23 114.949 394.861 115.242C395.506 115.535 396.056 115.939 396.511 116.452C396.98 116.965 397.347 117.567 397.611 118.256C397.89 118.945 398.029 119.686 398.029 120.478V120.984H388.987C389.104 122.069 389.552 122.971 390.329 123.69C391.106 124.409 392.038 124.768 393.123 124.768C393.695 124.768 394.252 124.68 394.795 124.504C395.338 124.328 395.792 124.079 396.159 123.756L397.171 124.834ZM392.771 116.232C391.818 116.232 390.989 116.555 390.285 117.2C389.596 117.845 389.178 118.674 389.031 119.686H396.401C396.254 118.718 395.836 117.904 395.147 117.244C394.472 116.569 393.68 116.232 392.771 116.232ZM401.239 123.536V116.364H398.863V114.978H401.239V112.184L402.845 111.766V114.978H406.167V116.364H402.845V123.118C402.845 123.705 402.977 124.13 403.241 124.394C403.505 124.643 403.938 124.768 404.539 124.768C404.847 124.768 405.119 124.746 405.353 124.702C405.603 124.658 405.867 124.585 406.145 124.482V125.912C405.867 126.015 405.551 126.088 405.199 126.132C404.862 126.176 404.532 126.198 404.209 126.198C403.256 126.198 402.523 125.971 402.009 125.516C401.496 125.061 401.239 124.401 401.239 123.536ZM409.489 123.536V116.364H407.113V114.978H409.489V112.184L411.095 111.766V114.978H414.417V116.364H411.095V123.118C411.095 123.705 411.227 124.13 411.491 124.394C411.755 124.643 412.188 124.768 412.789 124.768C413.097 124.768 413.369 124.746 413.603 124.702C413.853 124.658 414.117 124.585 414.395 124.482V125.912C414.117 126.015 413.801 126.088 413.449 126.132C413.112 126.176 412.782 126.198 412.459 126.198C411.506 126.198 410.773 125.971 410.259 125.516C409.746 125.061 409.489 124.401 409.489 123.536ZM425.101 124.834C424.485 125.289 423.839 125.633 423.165 125.868C422.505 126.088 421.779 126.198 420.987 126.198C420.195 126.198 419.447 126.051 418.743 125.758C418.053 125.465 417.452 125.061 416.939 124.548C416.44 124.035 416.044 123.433 415.751 122.744C415.457 122.04 415.311 121.285 415.311 120.478C415.311 119.686 415.45 118.945 415.729 118.256C416.022 117.567 416.411 116.965 416.895 116.452C417.379 115.939 417.951 115.535 418.611 115.242C419.285 114.949 419.997 114.802 420.745 114.802C421.478 114.802 422.16 114.949 422.791 115.242C423.436 115.535 423.986 115.939 424.441 116.452C424.91 116.965 425.277 117.567 425.541 118.256C425.819 118.945 425.959 119.686 425.959 120.478V120.984H416.917C417.034 122.069 417.481 122.971 418.259 123.69C419.036 124.409 419.967 124.768 421.053 124.768C421.625 124.768 422.182 124.68 422.725 124.504C423.267 124.328 423.722 124.079 424.089 123.756L425.101 124.834ZM420.701 116.232C419.747 116.232 418.919 116.555 418.215 117.2C417.525 117.845 417.107 118.674 416.961 119.686H424.331C424.184 118.718 423.766 117.904 423.077 117.244C422.402 116.569 421.61 116.232 420.701 116.232Z" fill="#C54B25"/>
    <path d="M252.428 202.724C251.852 202.724 251.294 202.618 250.752 202.406C250.21 202.195 249.728 201.882 249.305 201.467C248.89 201.052 248.556 200.54 248.302 199.931C248.056 199.321 247.934 198.615 247.934 197.811C247.934 197.066 248.039 196.334 248.251 195.614C248.463 194.895 248.755 194.256 249.127 193.697C249.499 193.13 249.944 192.673 250.46 192.326C250.985 191.979 251.556 191.806 252.174 191.806C252.622 191.806 253.003 191.899 253.316 192.085C253.63 192.263 253.883 192.483 254.078 192.745C254.273 192.999 254.412 193.274 254.497 193.57C254.59 193.867 254.637 194.129 254.637 194.357C254.637 194.527 254.59 194.679 254.497 194.814C254.412 194.95 254.307 195.064 254.18 195.157C254.053 195.25 253.913 195.322 253.761 195.373C253.608 195.415 253.473 195.432 253.354 195.424C253.236 195.415 253.139 195.373 253.062 195.297C252.995 195.221 252.974 195.106 252.999 194.954C252.965 194.844 252.931 194.709 252.897 194.548C252.872 194.387 252.821 194.235 252.745 194.091C252.677 193.938 252.58 193.812 252.453 193.71C252.326 193.6 252.153 193.545 251.933 193.545C251.696 193.545 251.463 193.659 251.234 193.888C251.014 194.108 250.815 194.412 250.638 194.802C250.468 195.191 250.329 195.644 250.219 196.16C250.117 196.676 250.066 197.227 250.066 197.811C250.066 198.327 250.13 198.784 250.257 199.182C250.392 199.579 250.578 199.914 250.815 200.185C251.052 200.455 251.332 200.663 251.653 200.807C251.983 200.942 252.339 201.01 252.72 201.01C253.228 201.01 253.668 200.917 254.04 200.73C254.421 200.536 254.743 200.282 255.005 199.969C255.267 199.656 255.479 199.304 255.64 198.915C255.8 198.526 255.919 198.132 255.995 197.734C256.054 197.447 256.173 197.256 256.351 197.163C256.537 197.062 256.723 197.036 256.909 197.087C257.104 197.138 257.269 197.248 257.404 197.417C257.548 197.578 257.607 197.772 257.582 198.001C257.548 198.263 257.485 198.564 257.392 198.902C257.307 199.241 257.18 199.584 257.011 199.931C256.841 200.278 256.626 200.62 256.363 200.959C256.109 201.289 255.796 201.585 255.424 201.848C255.051 202.11 254.616 202.322 254.116 202.482C253.625 202.643 253.062 202.724 252.428 202.724ZM265.504 197.709C265.521 197.607 265.576 197.523 265.669 197.455C265.771 197.387 265.885 197.341 266.012 197.315C266.139 197.29 266.27 197.29 266.405 197.315C266.549 197.341 266.672 197.4 266.773 197.493C266.883 197.578 266.96 197.701 267.002 197.861C267.053 198.014 267.049 198.213 266.989 198.458C266.913 198.813 266.786 199.148 266.608 199.461C266.439 199.766 266.223 200.036 265.961 200.273C265.699 200.51 265.39 200.697 265.034 200.832C264.679 200.967 264.281 201.035 263.841 201.035C263.604 201.035 263.38 201.022 263.168 200.997C262.965 200.972 262.766 200.925 262.571 200.857C262.25 201.416 261.835 201.865 261.327 202.203C260.819 202.55 260.193 202.724 259.448 202.724C258.788 202.724 258.221 202.592 257.747 202.33C257.273 202.076 256.88 201.729 256.566 201.289C256.253 200.84 256.021 200.324 255.868 199.74C255.724 199.156 255.652 198.538 255.652 197.887C255.652 196.93 255.762 196.076 255.982 195.322C256.211 194.561 256.473 193.917 256.77 193.393C257.066 192.859 257.358 192.453 257.646 192.174C257.942 191.895 258.162 191.755 258.306 191.755C258.475 191.755 258.627 191.831 258.763 191.983C258.907 192.127 259.008 192.301 259.067 192.504C259.135 192.699 259.152 192.897 259.118 193.101C259.093 193.304 258.995 193.46 258.826 193.57C258.725 193.731 258.602 193.917 258.458 194.129C258.323 194.34 258.191 194.607 258.064 194.929C257.946 195.242 257.844 195.627 257.76 196.084C257.675 196.541 257.633 197.091 257.633 197.734C257.633 198.285 257.679 198.763 257.772 199.169C257.874 199.575 258.009 199.918 258.179 200.197C258.356 200.468 258.555 200.671 258.775 200.807C259.004 200.942 259.245 201.01 259.499 201.01C259.871 201.01 260.176 200.921 260.413 200.743C260.659 200.557 260.866 200.316 261.035 200.02C260.426 199.495 259.96 198.83 259.639 198.026C259.326 197.214 259.169 196.338 259.169 195.398C259.169 194.992 259.211 194.607 259.296 194.243C259.389 193.871 259.52 193.545 259.689 193.266C259.867 192.986 260.087 192.766 260.35 192.605C260.612 192.436 260.917 192.352 261.264 192.352C261.568 192.352 261.856 192.462 262.127 192.682C262.398 192.902 262.635 193.206 262.838 193.596C263.041 193.985 263.198 194.446 263.308 194.979C263.426 195.513 263.485 196.092 263.485 196.719C263.485 197.201 263.456 197.679 263.396 198.153C263.337 198.627 263.244 199.084 263.117 199.524C263.21 199.558 263.295 199.579 263.371 199.588C263.456 199.588 263.545 199.588 263.638 199.588C263.917 199.588 264.162 199.537 264.374 199.436C264.594 199.334 264.78 199.199 264.933 199.029C265.085 198.86 265.208 198.661 265.301 198.433C265.394 198.204 265.462 197.963 265.504 197.709ZM260.54 195.297C260.54 195.881 260.629 196.435 260.807 196.96C260.993 197.485 261.234 197.942 261.53 198.331C261.581 197.916 261.606 197.519 261.606 197.138C261.606 196.698 261.598 196.291 261.581 195.919C261.573 195.538 261.543 195.212 261.492 194.941C261.45 194.671 261.386 194.459 261.302 194.307C261.226 194.146 261.12 194.065 260.984 194.065C260.688 194.065 260.54 194.476 260.54 195.297ZM266.888 189.495C266.676 189.495 266.473 189.453 266.278 189.368C266.092 189.284 265.927 189.169 265.783 189.025C265.648 188.882 265.538 188.716 265.453 188.53C265.368 188.336 265.326 188.128 265.326 187.908C265.326 187.68 265.368 187.468 265.453 187.273C265.538 187.079 265.648 186.914 265.783 186.778C265.927 186.634 266.092 186.524 266.278 186.448C266.473 186.364 266.676 186.321 266.888 186.321C267.116 186.321 267.328 186.364 267.522 186.448C267.717 186.524 267.882 186.634 268.018 186.778C268.161 186.914 268.271 187.079 268.348 187.273C268.432 187.468 268.475 187.68 268.475 187.908C268.475 188.128 268.432 188.336 268.348 188.53C268.271 188.716 268.161 188.882 268.018 189.025C267.882 189.169 267.717 189.284 267.522 189.368C267.328 189.453 267.116 189.495 266.888 189.495ZM267.484 199.816C267.484 199.876 267.489 199.973 267.497 200.108C267.506 200.235 267.531 200.367 267.573 200.502C267.616 200.637 267.683 200.756 267.776 200.857C267.869 200.959 268.001 201.01 268.17 201.01C268.424 201.01 268.644 200.917 268.83 200.73C269.025 200.544 269.19 200.312 269.325 200.032C269.469 199.753 269.588 199.452 269.681 199.131C269.774 198.801 269.85 198.492 269.909 198.204C269.96 197.942 270.036 197.751 270.138 197.633C270.248 197.514 270.362 197.451 270.48 197.442C270.607 197.425 270.73 197.455 270.849 197.531C270.976 197.607 271.086 197.709 271.179 197.836C271.28 197.954 271.352 198.09 271.395 198.242C271.445 198.395 271.454 198.538 271.42 198.674C271.301 199.105 271.145 199.558 270.95 200.032C270.764 200.506 270.523 200.942 270.227 201.34C269.93 201.738 269.575 202.068 269.16 202.33C268.745 202.592 268.259 202.724 267.7 202.724C267.353 202.724 267.044 202.656 266.773 202.521C266.503 202.394 266.274 202.22 266.088 202C265.902 201.78 265.758 201.522 265.656 201.226C265.563 200.929 265.517 200.616 265.517 200.286V193.342C265.517 193.096 265.495 192.919 265.453 192.809C265.419 192.699 265.402 192.597 265.402 192.504C265.402 192.377 265.47 192.275 265.605 192.199C265.741 192.115 265.902 192.072 266.088 192.072C266.52 192.072 266.858 192.187 267.104 192.415C267.357 192.635 267.484 192.902 267.484 193.215V199.816ZM270.011 193.342C270.011 193.096 269.99 192.919 269.947 192.809C269.913 192.699 269.896 192.597 269.896 192.504C269.896 192.377 269.964 192.275 270.1 192.199C270.235 192.115 270.396 192.072 270.582 192.072C271.014 192.072 271.352 192.187 271.598 192.415C271.852 192.635 271.979 192.902 271.979 193.215V194.383C272.156 194.019 272.347 193.68 272.55 193.367C272.761 193.054 272.986 192.783 273.223 192.555C273.468 192.318 273.726 192.136 273.997 192.009C274.276 191.873 274.577 191.806 274.898 191.806C275.33 191.806 275.686 191.886 275.965 192.047C276.244 192.208 276.464 192.415 276.625 192.669C276.786 192.923 276.896 193.206 276.955 193.52C277.023 193.833 277.057 194.137 277.057 194.434V199.816C277.057 199.876 277.061 199.973 277.069 200.108C277.078 200.235 277.103 200.367 277.146 200.502C277.188 200.637 277.251 200.756 277.336 200.857C277.429 200.959 277.56 201.01 277.729 201.01C277.992 201.01 278.216 200.917 278.402 200.73C278.597 200.544 278.762 200.312 278.897 200.032C279.041 199.753 279.156 199.452 279.24 199.131C279.333 198.801 279.41 198.492 279.469 198.204C279.52 197.933 279.604 197.739 279.723 197.62C279.841 197.493 279.964 197.43 280.091 197.43C280.192 197.43 280.298 197.464 280.408 197.531C280.518 197.59 280.616 197.671 280.7 197.772C280.793 197.874 280.865 197.988 280.916 198.115C280.975 198.242 281.005 198.369 281.005 198.496C281.005 198.513 281.005 198.534 281.005 198.56C281.005 198.585 280.996 198.623 280.979 198.674C280.869 199.105 280.717 199.558 280.522 200.032C280.336 200.506 280.091 200.942 279.786 201.34C279.49 201.738 279.134 202.068 278.72 202.33C278.305 202.592 277.818 202.724 277.26 202.724C276.913 202.724 276.604 202.656 276.333 202.521C276.071 202.394 275.842 202.22 275.647 202C275.461 201.78 275.317 201.522 275.216 201.226C275.123 200.929 275.076 200.616 275.076 200.286V195.005C275.076 194.802 275.072 194.611 275.063 194.434C275.055 194.256 275.03 194.099 274.987 193.964C274.953 193.828 274.898 193.723 274.822 193.646C274.755 193.562 274.657 193.52 274.53 193.52C274.344 193.52 274.116 193.646 273.845 193.9C273.574 194.154 273.307 194.484 273.045 194.891C272.783 195.297 272.55 195.758 272.347 196.274C272.152 196.782 272.029 197.294 271.979 197.811V201.606C271.979 201.733 271.974 201.865 271.966 202C271.966 202.127 271.94 202.241 271.89 202.343C271.847 202.453 271.775 202.542 271.674 202.609C271.581 202.686 271.441 202.724 271.255 202.724C271.128 202.724 270.988 202.707 270.836 202.673C270.692 202.647 270.557 202.592 270.43 202.508C270.311 202.432 270.21 202.317 270.125 202.165C270.049 202.021 270.011 201.826 270.011 201.581V193.342ZM281.373 194.383V194.954C281.965 195.674 282.499 196.414 282.973 197.176C283.455 197.929 283.861 198.725 284.191 199.562C284.53 200.4 284.788 201.285 284.966 202.216C285.152 203.147 285.245 204.15 285.245 205.225C285.245 206.308 285.16 207.307 284.991 208.221C284.83 209.143 284.598 209.935 284.293 210.595C283.997 211.263 283.633 211.784 283.201 212.156C282.778 212.529 282.308 212.715 281.792 212.715C281.335 212.715 280.954 212.601 280.649 212.372C280.345 212.152 280.099 211.856 279.913 211.483C279.735 211.119 279.604 210.705 279.52 210.239C279.443 209.774 279.405 209.3 279.405 208.817V194.827C279.38 194.802 279.35 194.772 279.316 194.738C279.291 194.704 279.266 194.671 279.24 194.637C279.037 194.434 278.851 194.247 278.682 194.078C278.521 193.9 278.44 193.706 278.44 193.494C278.44 193.367 278.487 193.24 278.58 193.113C278.673 192.978 278.826 192.897 279.037 192.872C279.079 192.872 279.13 192.868 279.189 192.859C279.249 192.851 279.321 192.847 279.405 192.847V185.458C279.405 185.272 279.388 185.124 279.354 185.014C279.329 184.904 279.299 184.819 279.266 184.76C279.24 184.692 279.211 184.641 279.177 184.607C279.151 184.565 279.139 184.523 279.139 184.48C279.139 184.43 279.164 184.387 279.215 184.354C279.266 184.32 279.333 184.29 279.418 184.265C279.503 184.239 279.591 184.222 279.685 184.214C279.786 184.197 279.883 184.188 279.977 184.188C280.408 184.188 280.747 184.303 280.992 184.531C281.246 184.751 281.373 185.018 281.373 185.331V192.694C281.678 192.669 281.982 192.648 282.287 192.631C282.592 192.605 282.888 192.584 283.176 192.567C283.464 192.542 283.726 192.525 283.963 192.517C284.208 192.508 284.42 192.504 284.598 192.504C284.885 192.504 285.135 192.559 285.347 192.669C285.558 192.779 285.664 192.969 285.664 193.24C285.664 193.333 285.651 193.469 285.626 193.646C285.609 193.824 285.579 194.006 285.537 194.192C285.503 194.379 285.452 194.539 285.385 194.675C285.326 194.81 285.254 194.878 285.169 194.878C285.127 194.878 285.093 194.865 285.067 194.84C285.05 194.806 285.017 194.772 284.966 194.738C284.924 194.704 284.856 194.671 284.763 194.637C284.678 194.603 284.547 194.577 284.369 194.561L281.373 194.383ZM283.277 205.225C283.277 204.632 283.235 204.019 283.15 203.384C283.074 202.757 282.956 202.123 282.795 201.479C282.634 200.828 282.435 200.185 282.198 199.55C281.961 198.907 281.686 198.285 281.373 197.684V208.817C281.373 209.021 281.382 209.241 281.398 209.478C281.415 209.715 281.445 209.93 281.487 210.125C281.538 210.32 281.602 210.48 281.678 210.607C281.762 210.743 281.868 210.811 281.995 210.811C282.181 210.811 282.355 210.675 282.516 210.404C282.676 210.133 282.812 209.748 282.922 209.249C283.032 208.758 283.117 208.17 283.176 207.484C283.243 206.807 283.277 206.054 283.277 205.225ZM295.896 197.709C295.913 197.607 295.968 197.523 296.062 197.455C296.163 197.387 296.277 197.341 296.404 197.315C296.531 197.29 296.662 197.29 296.798 197.315C296.942 197.341 297.064 197.4 297.166 197.493C297.276 197.578 297.352 197.701 297.395 197.861C297.445 198.014 297.441 198.213 297.382 198.458C297.306 198.813 297.179 199.148 297.001 199.461C296.832 199.766 296.616 200.036 296.354 200.273C296.091 200.51 295.782 200.697 295.427 200.832C295.071 200.967 294.674 201.035 294.233 201.035C293.996 201.035 293.772 201.022 293.561 200.997C293.357 200.972 293.159 200.925 292.964 200.857C292.642 201.416 292.228 201.865 291.72 202.203C291.212 202.55 290.586 202.724 289.841 202.724C289.181 202.724 288.614 202.592 288.14 202.33C287.666 202.076 287.272 201.729 286.959 201.289C286.646 200.84 286.413 200.324 286.261 199.74C286.117 199.156 286.045 198.538 286.045 197.887C286.045 196.93 286.155 196.076 286.375 195.322C286.604 194.561 286.866 193.917 287.162 193.393C287.458 192.859 287.75 192.453 288.038 192.174C288.334 191.895 288.554 191.755 288.698 191.755C288.868 191.755 289.02 191.831 289.155 191.983C289.299 192.127 289.401 192.301 289.46 192.504C289.528 192.699 289.545 192.897 289.511 193.101C289.485 193.304 289.388 193.46 289.219 193.57C289.117 193.731 288.994 193.917 288.851 194.129C288.715 194.34 288.584 194.607 288.457 194.929C288.339 195.242 288.237 195.627 288.152 196.084C288.068 196.541 288.025 197.091 288.025 197.734C288.025 198.285 288.072 198.763 288.165 199.169C288.267 199.575 288.402 199.918 288.571 200.197C288.749 200.468 288.948 200.671 289.168 200.807C289.396 200.942 289.638 201.01 289.892 201.01C290.264 201.01 290.569 200.921 290.806 200.743C291.051 200.557 291.258 200.316 291.428 200.02C290.818 199.495 290.353 198.83 290.031 198.026C289.718 197.214 289.562 196.338 289.562 195.398C289.562 194.992 289.604 194.607 289.688 194.243C289.782 193.871 289.913 193.545 290.082 193.266C290.26 192.986 290.48 192.766 290.742 192.605C291.005 192.436 291.309 192.352 291.656 192.352C291.961 192.352 292.249 192.462 292.52 192.682C292.79 192.902 293.027 193.206 293.23 193.596C293.434 193.985 293.59 194.446 293.7 194.979C293.819 195.513 293.878 196.092 293.878 196.719C293.878 197.201 293.848 197.679 293.789 198.153C293.73 198.627 293.637 199.084 293.51 199.524C293.603 199.558 293.688 199.579 293.764 199.588C293.848 199.588 293.937 199.588 294.03 199.588C294.31 199.588 294.555 199.537 294.767 199.436C294.987 199.334 295.173 199.199 295.325 199.029C295.478 198.86 295.6 198.661 295.693 198.433C295.786 198.204 295.854 197.963 295.896 197.709ZM290.933 195.297C290.933 195.881 291.021 196.435 291.199 196.96C291.385 197.485 291.627 197.942 291.923 198.331C291.974 197.916 291.999 197.519 291.999 197.138C291.999 196.698 291.991 196.291 291.974 195.919C291.965 195.538 291.936 195.212 291.885 194.941C291.842 194.671 291.779 194.459 291.694 194.307C291.618 194.146 291.512 194.065 291.377 194.065C291.081 194.065 290.933 194.476 290.933 195.297ZM303.057 202.724C302.76 202.724 302.49 202.677 302.244 202.584C302.007 202.491 301.796 202.36 301.609 202.19C301.432 202.03 301.284 201.839 301.165 201.619C301.047 201.391 300.966 201.145 300.924 200.883C300.611 201.433 300.243 201.882 299.819 202.229C299.396 202.576 298.897 202.749 298.321 202.749C297.89 202.749 297.5 202.66 297.153 202.482C296.815 202.305 296.527 202.055 296.29 201.733C296.053 201.403 295.871 201.01 295.744 200.553C295.626 200.087 295.566 199.571 295.566 199.004C295.566 198.318 295.613 197.629 295.706 196.935C295.808 196.241 295.918 195.614 296.036 195.056C296.172 194.404 296.328 193.773 296.506 193.164C296.548 193.054 296.578 192.944 296.595 192.834C296.62 192.715 296.671 192.61 296.747 192.517C296.823 192.424 296.942 192.347 297.103 192.288C297.272 192.229 297.53 192.199 297.877 192.199C298.199 192.199 298.406 192.258 298.499 192.377C298.592 192.487 298.626 192.618 298.601 192.771C298.584 192.923 298.533 193.079 298.448 193.24C298.372 193.401 298.321 193.532 298.296 193.634C298.177 194.116 298.072 194.556 297.979 194.954C297.885 195.352 297.805 195.754 297.737 196.16C297.678 196.558 297.632 196.977 297.598 197.417C297.564 197.849 297.547 198.335 297.547 198.877C297.547 199.588 297.648 200.125 297.852 200.489C298.063 200.853 298.359 201.035 298.74 201.035C299.003 201.035 299.244 200.938 299.464 200.743C299.692 200.549 299.896 200.29 300.073 199.969C300.259 199.639 300.42 199.266 300.556 198.852C300.691 198.428 300.797 197.988 300.873 197.531V193.342C300.873 193.156 300.856 193.007 300.822 192.897C300.797 192.787 300.767 192.703 300.733 192.644C300.708 192.576 300.678 192.525 300.645 192.491C300.619 192.449 300.606 192.402 300.606 192.352C300.606 192.309 300.632 192.271 300.683 192.237C300.733 192.203 300.801 192.174 300.886 192.148C300.97 192.123 301.059 192.106 301.152 192.098C301.254 192.081 301.351 192.072 301.444 192.072C301.876 192.072 302.215 192.187 302.46 192.415C302.714 192.635 302.841 192.902 302.841 193.215V199.816C302.841 199.876 302.845 199.973 302.854 200.108C302.862 200.235 302.887 200.367 302.93 200.502C302.972 200.637 303.04 200.756 303.133 200.857C303.226 200.959 303.357 201.01 303.526 201.01C303.789 201.01 304.013 200.917 304.199 200.73C304.394 200.544 304.559 200.312 304.694 200.032C304.838 199.753 304.952 199.452 305.037 199.131C305.13 198.801 305.206 198.492 305.266 198.204C305.316 197.933 305.401 197.739 305.52 197.62C305.638 197.493 305.761 197.43 305.888 197.43C305.989 197.43 306.095 197.464 306.205 197.531C306.315 197.59 306.412 197.671 306.497 197.772C306.59 197.874 306.662 197.988 306.713 198.115C306.772 198.242 306.802 198.369 306.802 198.496C306.802 198.513 306.802 198.534 306.802 198.56C306.802 198.585 306.793 198.623 306.776 198.674C306.658 199.105 306.501 199.558 306.307 200.032C306.12 200.506 305.879 200.942 305.583 201.34C305.287 201.738 304.931 202.068 304.517 202.33C304.102 202.592 303.615 202.724 303.057 202.724ZM311.042 202.724C310.737 202.724 310.424 202.677 310.103 202.584C309.789 202.491 309.502 202.33 309.239 202.102C308.985 201.873 308.774 201.573 308.604 201.2C308.444 200.819 308.363 200.341 308.363 199.766C308.363 198.928 308.473 198.043 308.693 197.112C308.922 196.173 309.248 195.14 309.671 194.015H307.69H307.398C307.39 194.269 307.373 194.59 307.348 194.979C307.331 195.369 307.297 195.784 307.246 196.224C307.195 196.664 307.128 197.108 307.043 197.557C306.967 198.005 306.869 198.42 306.751 198.801C306.666 199.072 306.531 199.228 306.345 199.271C306.167 199.313 305.989 199.283 305.812 199.182C305.634 199.072 305.49 198.915 305.38 198.712C305.27 198.509 305.244 198.297 305.304 198.077C305.371 197.815 305.431 197.497 305.481 197.125C305.532 196.744 305.57 196.346 305.596 195.932C305.63 195.508 305.655 195.09 305.672 194.675C305.689 194.252 305.701 193.875 305.71 193.545C305.388 193.367 305.122 193.143 304.91 192.872C304.699 192.593 304.593 192.263 304.593 191.882C304.593 191.704 304.627 191.543 304.694 191.399C304.771 191.247 304.868 191.12 304.986 191.019C305.105 190.909 305.244 190.828 305.405 190.777C305.566 190.718 305.731 190.688 305.9 190.688C306.053 190.688 306.209 190.71 306.37 190.752C306.539 190.794 306.696 190.87 306.84 190.98C306.992 191.09 307.128 191.234 307.246 191.412C307.365 191.59 307.462 191.81 307.538 192.072C307.75 192.098 307.927 192.119 308.071 192.136C308.224 192.144 308.351 192.153 308.452 192.161C308.554 192.17 308.638 192.174 308.706 192.174C308.774 192.174 308.841 192.174 308.909 192.174H310.268C310.344 192.174 310.454 192.22 310.598 192.313C310.75 192.407 310.898 192.529 311.042 192.682C311.186 192.826 311.304 192.982 311.397 193.151C311.499 193.321 311.537 193.481 311.512 193.634C311.512 193.685 311.482 193.807 311.423 194.002C311.364 194.197 311.292 194.442 311.207 194.738C311.122 195.035 311.029 195.377 310.928 195.767C310.826 196.147 310.733 196.549 310.648 196.973C310.564 197.396 310.492 197.836 310.433 198.293C310.373 198.742 310.344 199.182 310.344 199.613C310.344 199.791 310.365 199.965 310.407 200.134C310.45 200.303 310.513 200.455 310.598 200.591C310.682 200.718 310.788 200.819 310.915 200.896C311.05 200.972 311.207 201.01 311.385 201.01C311.681 201.01 311.935 200.917 312.146 200.73C312.358 200.544 312.536 200.312 312.68 200.032C312.824 199.753 312.938 199.452 313.022 199.131C313.116 198.801 313.192 198.492 313.251 198.204C313.302 197.933 313.386 197.739 313.505 197.62C313.623 197.493 313.746 197.43 313.873 197.43C313.975 197.43 314.08 197.464 314.19 197.531C314.3 197.59 314.398 197.671 314.482 197.772C314.576 197.874 314.647 197.988 314.698 198.115C314.757 198.242 314.787 198.369 314.787 198.496C314.787 198.538 314.783 198.572 314.774 198.598C314.766 198.623 314.762 198.648 314.762 198.674C314.643 199.105 314.487 199.558 314.292 200.032C314.106 200.506 313.865 200.942 313.568 201.34C313.272 201.738 312.917 202.068 312.502 202.33C312.087 202.592 311.601 202.724 311.042 202.724ZM317.529 202.724C316.954 202.724 316.395 202.618 315.854 202.406C315.312 202.195 314.829 201.882 314.406 201.467C313.992 201.052 313.657 200.54 313.403 199.931C313.158 199.321 313.035 198.615 313.035 197.811C313.035 197.066 313.141 196.334 313.353 195.614C313.564 194.895 313.856 194.256 314.229 193.697C314.601 193.13 315.045 192.673 315.562 192.326C316.086 191.979 316.658 191.806 317.275 191.806C317.724 191.806 318.105 191.899 318.418 192.085C318.731 192.263 318.985 192.483 319.18 192.745C319.374 192.999 319.514 193.274 319.599 193.57C319.692 193.867 319.738 194.129 319.738 194.357C319.738 194.527 319.692 194.679 319.599 194.814C319.514 194.95 319.408 195.064 319.281 195.157C319.154 195.25 319.015 195.322 318.862 195.373C318.71 195.415 318.575 195.432 318.456 195.424C318.338 195.415 318.24 195.373 318.164 195.297C318.096 195.221 318.075 195.106 318.101 194.954C318.067 194.844 318.033 194.709 317.999 194.548C317.974 194.387 317.923 194.235 317.847 194.091C317.779 193.938 317.682 193.812 317.555 193.71C317.428 193.6 317.254 193.545 317.034 193.545C316.797 193.545 316.564 193.659 316.336 193.888C316.116 194.108 315.917 194.412 315.739 194.802C315.57 195.191 315.43 195.644 315.32 196.16C315.219 196.676 315.168 197.227 315.168 197.811C315.168 198.327 315.231 198.784 315.358 199.182C315.494 199.579 315.68 199.914 315.917 200.185C316.154 200.455 316.433 200.663 316.755 200.807C317.085 200.942 317.44 201.01 317.821 201.01C318.329 201.01 318.769 200.917 319.142 200.73C319.522 200.536 319.844 200.282 320.106 199.969C320.369 199.656 320.58 199.304 320.741 198.915C320.902 198.526 321.021 198.132 321.097 197.734C321.156 197.447 321.274 197.256 321.452 197.163C321.638 197.062 321.825 197.036 322.011 197.087C322.205 197.138 322.37 197.248 322.506 197.417C322.65 197.578 322.709 197.772 322.684 198.001C322.65 198.263 322.586 198.564 322.493 198.902C322.409 199.241 322.282 199.584 322.112 199.931C321.943 200.278 321.727 200.62 321.465 200.959C321.211 201.289 320.898 201.585 320.525 201.848C320.153 202.11 319.717 202.322 319.218 202.482C318.727 202.643 318.164 202.724 317.529 202.724ZM321.097 185.979C321.097 185.792 321.08 185.644 321.046 185.534C321.021 185.424 320.991 185.34 320.957 185.28C320.932 185.213 320.902 185.162 320.868 185.128C320.843 185.086 320.83 185.043 320.83 185.001C320.83 184.95 320.855 184.908 320.906 184.874C320.957 184.84 321.025 184.811 321.109 184.785C321.194 184.76 321.283 184.743 321.376 184.734C321.478 184.717 321.575 184.709 321.668 184.709C322.1 184.709 322.438 184.823 322.684 185.052C322.938 185.272 323.064 185.538 323.064 185.852V194.383C323.242 194.019 323.433 193.68 323.636 193.367C323.847 193.054 324.072 192.783 324.309 192.555C324.554 192.318 324.812 192.136 325.083 192.009C325.362 191.873 325.663 191.806 325.984 191.806C326.416 191.806 326.771 191.886 327.051 192.047C327.33 192.208 327.55 192.415 327.711 192.669C327.872 192.923 327.982 193.206 328.041 193.52C328.109 193.833 328.143 194.137 328.143 194.434V199.816C328.143 199.876 328.147 199.973 328.155 200.108C328.164 200.235 328.189 200.367 328.231 200.502C328.274 200.637 328.337 200.756 328.422 200.857C328.515 200.959 328.646 201.01 328.815 201.01C329.078 201.01 329.302 200.917 329.488 200.73C329.683 200.544 329.848 200.312 329.983 200.032C330.127 199.753 330.242 199.452 330.326 199.131C330.419 198.801 330.495 198.492 330.555 198.204C330.605 197.942 330.682 197.751 330.783 197.633C330.893 197.514 331.007 197.451 331.126 197.442C331.253 197.425 331.38 197.455 331.507 197.531C331.634 197.607 331.744 197.709 331.837 197.836C331.93 197.954 331.998 198.09 332.04 198.242C332.091 198.395 332.099 198.538 332.065 198.674C331.947 199.105 331.79 199.558 331.596 200.032C331.41 200.506 331.168 200.942 330.872 201.34C330.576 201.738 330.22 202.068 329.806 202.33C329.391 202.592 328.904 202.724 328.346 202.724C327.999 202.724 327.69 202.656 327.419 202.521C327.157 202.394 326.928 202.22 326.733 202C326.547 201.78 326.403 201.522 326.302 201.226C326.209 200.929 326.162 200.616 326.162 200.286V195.005C326.162 194.802 326.158 194.611 326.149 194.434C326.141 194.256 326.116 194.099 326.073 193.964C326.039 193.828 325.984 193.723 325.908 193.646C325.84 193.562 325.743 193.52 325.616 193.52C325.43 193.52 325.201 193.646 324.931 193.9C324.66 194.154 324.393 194.484 324.131 194.891C323.868 195.297 323.636 195.758 323.433 196.274C323.238 196.782 323.115 197.294 323.064 197.811V201.606C323.064 201.733 323.06 201.865 323.052 202C323.052 202.127 323.026 202.241 322.976 202.343C322.933 202.453 322.861 202.542 322.76 202.609C322.667 202.686 322.527 202.724 322.341 202.724C322.214 202.724 322.074 202.707 321.922 202.673C321.778 202.647 321.643 202.592 321.516 202.508C321.397 202.432 321.296 202.317 321.211 202.165C321.135 202.021 321.097 201.826 321.097 201.581V185.979ZM336.648 194.434C336.648 194.916 336.564 195.411 336.395 195.919C336.234 196.427 335.988 196.909 335.658 197.366C335.337 197.815 334.935 198.221 334.452 198.585C333.978 198.94 333.428 199.211 332.802 199.397C332.886 199.618 332.996 199.829 333.132 200.032C333.276 200.227 333.445 200.396 333.64 200.54C333.834 200.684 334.059 200.798 334.312 200.883C334.575 200.967 334.875 201.01 335.214 201.01C335.722 201.01 336.158 200.917 336.521 200.73C336.885 200.536 337.19 200.282 337.436 199.969C337.689 199.656 337.893 199.304 338.045 198.915C338.197 198.526 338.312 198.132 338.388 197.734C338.447 197.447 338.565 197.256 338.743 197.163C338.929 197.062 339.116 197.036 339.302 197.087C339.496 197.138 339.661 197.248 339.797 197.417C339.941 197.578 340 197.772 339.975 198.001C339.941 198.263 339.882 198.564 339.797 198.902C339.721 199.241 339.602 199.584 339.441 199.931C339.281 200.278 339.073 200.62 338.819 200.959C338.574 201.289 338.269 201.585 337.905 201.848C337.541 202.11 337.114 202.322 336.623 202.482C336.132 202.643 335.569 202.724 334.935 202.724C334.342 202.724 333.767 202.605 333.208 202.368C332.658 202.14 332.167 201.81 331.735 201.378C331.312 200.938 330.969 200.4 330.707 199.766C330.453 199.122 330.326 198.395 330.326 197.582C330.326 196.761 330.44 195.999 330.669 195.297C330.897 194.586 331.198 193.972 331.57 193.456C331.943 192.94 332.366 192.538 332.84 192.25C333.314 191.954 333.8 191.806 334.3 191.806C334.664 191.806 334.99 191.869 335.277 191.996C335.574 192.123 335.823 192.305 336.026 192.542C336.229 192.771 336.382 193.046 336.483 193.367C336.593 193.689 336.648 194.044 336.648 194.434ZM332.459 197.506C332.459 197.582 332.463 197.658 332.472 197.734C332.48 197.811 332.484 197.891 332.484 197.976C332.806 197.823 333.098 197.629 333.36 197.392C333.623 197.155 333.847 196.884 334.033 196.579C334.219 196.274 334.363 195.944 334.465 195.589C334.566 195.225 334.617 194.848 334.617 194.459C334.617 194.171 334.566 193.947 334.465 193.786C334.372 193.625 334.241 193.545 334.071 193.545C333.86 193.545 333.669 193.617 333.5 193.761C333.339 193.905 333.195 194.095 333.068 194.332C332.95 194.561 332.848 194.823 332.764 195.119C332.688 195.407 332.624 195.699 332.573 195.995C332.522 196.291 332.489 196.575 332.472 196.846C332.455 197.108 332.451 197.328 332.459 197.506ZM336.039 189.774C336.234 189.791 336.45 189.804 336.687 189.812C336.89 189.829 337.135 189.842 337.423 189.851C337.711 189.851 338.032 189.855 338.388 189.863V185.458C338.388 185.272 338.371 185.124 338.337 185.014C338.312 184.904 338.282 184.819 338.248 184.76C338.223 184.692 338.193 184.641 338.159 184.607C338.134 184.565 338.121 184.523 338.121 184.48C338.121 184.43 338.146 184.387 338.197 184.354C338.248 184.32 338.316 184.29 338.4 184.265C338.485 184.239 338.574 184.222 338.667 184.214C338.769 184.197 338.866 184.188 338.959 184.188C339.391 184.188 339.729 184.303 339.975 184.531C340.229 184.751 340.355 185.018 340.355 185.331V189.889C341.151 189.889 341.989 189.88 342.869 189.863C343.758 189.846 344.646 189.817 345.535 189.774C345.654 189.647 345.747 189.601 345.814 189.635C345.891 189.669 345.937 189.749 345.954 189.876C345.979 190.003 345.984 190.16 345.967 190.346C345.95 190.532 345.916 190.714 345.865 190.892C345.814 191.061 345.743 191.209 345.649 191.336C345.565 191.463 345.467 191.526 345.357 191.526C344.316 191.552 343.394 191.569 342.59 191.577C341.794 191.577 341.049 191.577 340.355 191.577V199.816C340.355 200.24 340.436 200.544 340.597 200.73C340.757 200.917 340.973 201.01 341.244 201.01C341.507 201.01 341.731 200.917 341.917 200.73C342.112 200.544 342.277 200.312 342.412 200.032C342.556 199.753 342.67 199.452 342.755 199.131C342.848 198.801 342.924 198.492 342.983 198.204C343.034 197.933 343.119 197.739 343.237 197.62C343.356 197.493 343.479 197.43 343.605 197.43C343.707 197.43 343.813 197.464 343.923 197.531C344.033 197.59 344.13 197.671 344.215 197.772C344.308 197.874 344.38 197.988 344.431 198.115C344.49 198.242 344.52 198.369 344.52 198.496C344.52 198.513 344.52 198.534 344.52 198.56C344.52 198.585 344.511 198.623 344.494 198.674C344.384 199.105 344.232 199.558 344.037 200.032C343.851 200.506 343.605 200.942 343.301 201.34C343.005 201.738 342.649 202.068 342.234 202.33C341.82 202.592 341.333 202.724 340.774 202.724C340.427 202.724 340.106 202.669 339.81 202.559C339.522 202.457 339.272 202.288 339.061 202.051C338.849 201.822 338.684 201.526 338.565 201.162C338.447 200.798 338.388 200.358 338.388 199.842V191.577C338.1 191.577 337.842 191.577 337.613 191.577C337.393 191.569 337.207 191.56 337.055 191.552C336.877 191.543 336.72 191.535 336.585 191.526C336.382 191.526 336.204 191.438 336.052 191.26C335.891 191.074 335.781 190.87 335.722 190.65C335.654 190.43 335.646 190.231 335.696 190.054C335.739 189.868 335.853 189.774 336.039 189.774ZM340.762 189.774C340.956 189.791 341.172 189.804 341.409 189.812C341.612 189.829 341.858 189.842 342.146 189.851C342.433 189.851 342.755 189.855 343.11 189.863V185.458C343.11 185.272 343.093 185.124 343.06 185.014C343.034 184.904 343.005 184.819 342.971 184.76C342.945 184.692 342.916 184.641 342.882 184.607C342.856 184.565 342.844 184.523 342.844 184.48C342.844 184.43 342.869 184.387 342.92 184.354C342.971 184.32 343.038 184.29 343.123 184.265C343.208 184.239 343.297 184.222 343.39 184.214C343.491 184.197 343.589 184.188 343.682 184.188C344.113 184.188 344.452 184.303 344.697 184.531C344.951 184.751 345.078 185.018 345.078 185.331V189.889C345.874 189.889 346.712 189.88 347.592 189.863C348.48 189.846 349.369 189.817 350.258 189.774C350.376 189.647 350.469 189.601 350.537 189.635C350.613 189.669 350.66 189.749 350.677 189.876C350.702 190.003 350.706 190.16 350.689 190.346C350.673 190.532 350.639 190.714 350.588 190.892C350.537 191.061 350.465 191.209 350.372 191.336C350.287 191.463 350.19 191.526 350.08 191.526C349.039 191.552 348.117 191.569 347.312 191.577C346.517 191.577 345.772 191.577 345.078 191.577V199.816C345.078 200.24 345.159 200.544 345.319 200.73C345.48 200.917 345.696 201.01 345.967 201.01C346.229 201.01 346.453 200.917 346.64 200.73C346.834 200.544 346.999 200.312 347.135 200.032C347.279 199.753 347.393 199.452 347.478 199.131C347.571 198.801 347.647 198.492 347.706 198.204C347.757 197.933 347.841 197.739 347.96 197.62C348.078 197.493 348.201 197.43 348.328 197.43C348.43 197.43 348.535 197.464 348.646 197.531C348.756 197.59 348.853 197.671 348.938 197.772C349.031 197.874 349.103 197.988 349.153 198.115C349.213 198.242 349.242 198.369 349.242 198.496C349.242 198.513 349.242 198.534 349.242 198.56C349.242 198.585 349.234 198.623 349.217 198.674C349.107 199.105 348.954 199.558 348.76 200.032C348.574 200.506 348.328 200.942 348.023 201.34C347.727 201.738 347.372 202.068 346.957 202.33C346.542 202.592 346.056 202.724 345.497 202.724C345.15 202.724 344.828 202.669 344.532 202.559C344.244 202.457 343.995 202.288 343.783 202.051C343.572 201.822 343.407 201.526 343.288 201.162C343.17 200.798 343.11 200.358 343.11 199.842V191.577C342.823 191.577 342.564 191.577 342.336 191.577C342.116 191.569 341.93 191.56 341.777 191.552C341.6 191.543 341.443 191.535 341.308 191.526C341.104 191.526 340.927 191.438 340.774 191.26C340.614 191.074 340.504 190.87 340.444 190.65C340.377 190.43 340.368 190.231 340.419 190.054C340.461 189.868 340.576 189.774 340.762 189.774ZM353.812 194.434C353.812 194.916 353.728 195.411 353.559 195.919C353.398 196.427 353.152 196.909 352.822 197.366C352.501 197.815 352.099 198.221 351.616 198.585C351.142 198.94 350.592 199.211 349.966 199.397C350.05 199.618 350.16 199.829 350.296 200.032C350.44 200.227 350.609 200.396 350.804 200.54C350.998 200.684 351.223 200.798 351.477 200.883C351.739 200.967 352.039 201.01 352.378 201.01C352.886 201.01 353.322 200.917 353.686 200.73C354.049 200.536 354.354 200.282 354.6 199.969C354.854 199.656 355.057 199.304 355.209 198.915C355.361 198.526 355.476 198.132 355.552 197.734C355.611 197.447 355.729 197.256 355.907 197.163C356.093 197.062 356.28 197.036 356.466 197.087C356.66 197.138 356.826 197.248 356.961 197.417C357.105 197.578 357.164 197.772 357.139 198.001C357.105 198.263 357.046 198.564 356.961 198.902C356.885 199.241 356.766 199.584 356.605 199.931C356.445 200.278 356.237 200.62 355.983 200.959C355.738 201.289 355.433 201.585 355.069 201.848C354.705 202.11 354.278 202.322 353.787 202.482C353.296 202.643 352.733 202.724 352.099 202.724C351.506 202.724 350.931 202.605 350.372 202.368C349.822 202.14 349.331 201.81 348.899 201.378C348.476 200.938 348.133 200.4 347.871 199.766C347.617 199.122 347.49 198.395 347.49 197.582C347.49 196.761 347.604 195.999 347.833 195.297C348.062 194.586 348.362 193.972 348.734 193.456C349.107 192.94 349.53 192.538 350.004 192.25C350.478 191.954 350.965 191.806 351.464 191.806C351.828 191.806 352.154 191.869 352.441 191.996C352.738 192.123 352.987 192.305 353.19 192.542C353.394 192.771 353.546 193.046 353.647 193.367C353.757 193.689 353.812 194.044 353.812 194.434ZM349.623 197.506C349.623 197.582 349.627 197.658 349.636 197.734C349.644 197.811 349.648 197.891 349.648 197.976C349.97 197.823 350.262 197.629 350.524 197.392C350.787 197.155 351.011 196.884 351.197 196.579C351.383 196.274 351.527 195.944 351.629 195.589C351.73 195.225 351.781 194.848 351.781 194.459C351.781 194.171 351.73 193.947 351.629 193.786C351.536 193.625 351.405 193.545 351.235 193.545C351.024 193.545 350.833 193.617 350.664 193.761C350.503 193.905 350.359 194.095 350.232 194.332C350.114 194.561 350.012 194.823 349.928 195.119C349.852 195.407 349.788 195.699 349.737 195.995C349.687 196.291 349.653 196.575 349.636 196.846C349.619 197.108 349.615 197.328 349.623 197.506Z" fill="black"/>
    <path d="M235.42 260.636H231.676C231.532 260.636 231.46 260.57 231.46 260.438V260.042C231.46 259.91 231.532 259.844 231.676 259.844H235.42C235.564 259.844 235.636 259.91 235.636 260.042V260.438C235.636 260.57 235.564 260.636 235.42 260.636ZM242.486 266H240.218C239.438 266 238.82 265.772 238.364 265.316C237.92 264.86 237.698 264.236 237.698 263.444V256.982C237.698 256.19 237.92 255.566 238.364 255.11C238.82 254.654 239.438 254.426 240.218 254.426H242.486C243.266 254.426 243.878 254.654 244.322 255.11C244.778 255.566 245.006 256.19 245.006 256.982V257.864C245.006 258.008 244.94 258.08 244.808 258.08H244.304C244.172 258.08 244.106 258.008 244.106 257.864V257.018C244.106 256.442 243.956 256.004 243.656 255.704C243.368 255.392 242.948 255.236 242.396 255.236H240.29C239.738 255.236 239.318 255.392 239.03 255.704C238.742 256.016 238.598 256.454 238.598 257.018V263.408C238.598 263.972 238.742 264.41 239.03 264.722C239.318 265.034 239.738 265.19 240.29 265.19H242.396C242.948 265.19 243.368 265.04 243.656 264.74C243.956 264.428 244.106 263.984 244.106 263.408V262.562C244.106 262.418 244.172 262.346 244.304 262.346H244.808C244.94 262.346 245.006 262.418 245.006 262.562V263.444C245.006 264.236 244.778 264.86 244.322 265.316C243.878 265.772 243.266 266 242.486 266ZM250.046 265.19H252.098C252.65 265.19 253.07 265.04 253.358 264.74C253.658 264.428 253.808 263.984 253.808 263.408V257.018C253.808 256.442 253.658 256.004 253.358 255.704C253.07 255.392 252.65 255.236 252.098 255.236H250.046C249.494 255.236 249.074 255.392 248.786 255.704C248.498 256.016 248.354 256.454 248.354 257.018V263.408C248.354 263.972 248.498 264.41 248.786 264.722C249.074 265.034 249.494 265.19 250.046 265.19ZM252.188 266H249.974C249.194 266 248.576 265.772 248.12 265.316C247.676 264.86 247.454 264.236 247.454 263.444V256.982C247.454 256.19 247.676 255.566 248.12 255.11C248.576 254.654 249.194 254.426 249.974 254.426H252.188C252.968 254.426 253.58 254.654 254.024 255.11C254.48 255.566 254.708 256.19 254.708 256.982V263.444C254.708 264.236 254.48 264.86 254.024 265.316C253.58 265.772 252.968 266 252.188 266ZM258.573 254.642V265.784C258.573 265.928 258.507 266 258.375 266H257.853C257.733 266 257.673 265.928 257.673 265.784V254.642C257.673 254.498 257.733 254.426 257.853 254.426H258.375C258.507 254.426 258.573 254.498 258.573 254.642ZM262.433 266H261.911C261.791 266 261.731 265.928 261.731 265.784V254.642C261.731 254.498 261.791 254.426 261.911 254.426H262.397C262.505 254.426 262.577 254.462 262.613 254.534L268.139 264.038H268.211V254.642C268.211 254.498 268.277 254.426 268.409 254.426H268.913C269.045 254.426 269.111 254.498 269.111 254.642V265.784C269.111 265.928 269.045 266 268.913 266H268.499C268.391 266 268.295 265.934 268.211 265.802L262.703 256.37H262.631V265.784C262.631 265.928 262.565 266 262.433 266ZM277.656 266H277.134C277.014 266 276.954 265.928 276.954 265.784V254.642C276.954 254.498 277.014 254.426 277.134 254.426H282.678C282.822 254.426 282.894 254.492 282.894 254.624V255.038C282.894 255.17 282.822 255.236 282.678 255.236H278.034C277.914 255.236 277.854 255.29 277.854 255.398V259.772C277.854 259.868 277.914 259.916 278.034 259.916H282.192C282.324 259.916 282.39 259.982 282.39 260.114V260.546C282.39 260.678 282.324 260.744 282.192 260.744H278.034C277.914 260.744 277.854 260.792 277.854 260.888V265.784C277.854 265.928 277.788 266 277.656 266ZM287.628 265.19H289.68C290.232 265.19 290.652 265.04 290.94 264.74C291.24 264.428 291.39 263.984 291.39 263.408V257.018C291.39 256.442 291.24 256.004 290.94 255.704C290.652 255.392 290.232 255.236 289.68 255.236H287.628C287.076 255.236 286.656 255.392 286.368 255.704C286.08 256.016 285.936 256.454 285.936 257.018V263.408C285.936 263.972 286.08 264.41 286.368 264.722C286.656 265.034 287.076 265.19 287.628 265.19ZM289.77 266H287.556C286.776 266 286.158 265.772 285.702 265.316C285.258 264.86 285.036 264.236 285.036 263.444V256.982C285.036 256.19 285.258 255.566 285.702 255.11C286.158 254.654 286.776 254.426 287.556 254.426H289.77C290.55 254.426 291.162 254.654 291.606 255.11C292.062 255.566 292.29 256.19 292.29 256.982V263.444C292.29 264.236 292.062 264.86 291.606 265.316C291.162 265.772 290.55 266 289.77 266ZM301.429 254.426H301.933C302.065 254.426 302.131 254.492 302.131 254.624V263.444C302.131 264.236 301.903 264.86 301.447 265.316C301.003 265.772 300.391 266 299.611 266H297.595C296.815 266 296.197 265.772 295.741 265.316C295.297 264.86 295.075 264.236 295.075 263.444V254.642C295.075 254.498 295.135 254.426 295.255 254.426H295.777C295.909 254.426 295.975 254.498 295.975 254.642V263.408C295.975 263.972 296.119 264.41 296.407 264.722C296.695 265.034 297.115 265.19 297.667 265.19H299.521C300.073 265.19 300.493 265.04 300.781 264.74C301.081 264.428 301.231 263.984 301.231 263.408V254.642C301.231 254.498 301.297 254.426 301.429 254.426ZM305.798 266H305.276C305.156 266 305.096 265.928 305.096 265.784V254.642C305.096 254.498 305.156 254.426 305.276 254.426H309.38C310.16 254.426 310.778 254.654 311.234 255.11C311.69 255.566 311.918 256.19 311.918 256.982V258.692C311.918 259.364 311.744 259.916 311.396 260.348C311.06 260.78 310.598 261.056 310.01 261.176V261.248L312.152 265.784C312.224 265.928 312.182 266 312.026 266H311.468C311.312 266 311.204 265.928 311.144 265.784L309.02 261.248H306.176C306.056 261.248 305.996 261.302 305.996 261.41V265.784C305.996 265.928 305.93 266 305.798 266ZM306.176 260.474H309.29C309.842 260.474 310.268 260.324 310.568 260.024C310.868 259.712 311.018 259.274 311.018 258.71V257.018C311.018 256.454 310.868 256.016 310.568 255.704C310.268 255.392 309.842 255.236 309.29 255.236H306.176C306.056 255.236 305.996 255.29 305.996 255.398V260.312C305.996 260.42 306.056 260.474 306.176 260.474ZM319.32 266H317.052C316.272 266 315.654 265.772 315.198 265.316C314.754 264.86 314.532 264.236 314.532 263.444V256.982C314.532 256.19 314.754 255.566 315.198 255.11C315.654 254.654 316.272 254.426 317.052 254.426H319.32C320.1 254.426 320.712 254.654 321.156 255.11C321.612 255.566 321.84 256.19 321.84 256.982V257.864C321.84 258.008 321.774 258.08 321.642 258.08H321.138C321.006 258.08 320.94 258.008 320.94 257.864V257.018C320.94 256.442 320.79 256.004 320.49 255.704C320.202 255.392 319.782 255.236 319.23 255.236H317.124C316.572 255.236 316.152 255.392 315.864 255.704C315.576 256.016 315.432 256.454 315.432 257.018V263.408C315.432 263.972 315.576 264.41 315.864 264.722C316.152 265.034 316.572 265.19 317.124 265.19H319.23C319.782 265.19 320.202 265.04 320.49 264.74C320.79 264.428 320.94 263.984 320.94 263.408V262.562C320.94 262.418 321.006 262.346 321.138 262.346H321.642C321.774 262.346 321.84 262.418 321.84 262.562V263.444C321.84 264.236 321.612 264.86 321.156 265.316C320.712 265.772 320.1 266 319.32 266ZM325.17 266H324.648C324.528 266 324.468 265.928 324.468 265.784V254.642C324.468 254.498 324.528 254.426 324.648 254.426H325.17C325.302 254.426 325.368 254.498 325.368 254.642V259.556C325.368 259.664 325.428 259.718 325.548 259.718H330.588C330.708 259.718 330.768 259.664 330.768 259.556V254.642C330.768 254.498 330.828 254.426 330.948 254.426H331.47C331.602 254.426 331.668 254.498 331.668 254.642V265.784C331.668 265.928 331.602 266 331.47 266H330.948C330.828 266 330.768 265.928 330.768 265.784V260.69C330.768 260.582 330.708 260.528 330.588 260.528H325.548C325.428 260.528 325.368 260.582 325.368 260.69V265.784C325.368 265.928 325.302 266 325.17 266ZM340.475 266H334.913C334.793 266 334.733 265.928 334.733 265.784V254.642C334.733 254.498 334.793 254.426 334.913 254.426H340.475C340.619 254.426 340.691 254.492 340.691 254.624V255.038C340.691 255.17 340.619 255.236 340.475 255.236H335.813C335.693 255.236 335.633 255.29 335.633 255.398V259.538C335.633 259.646 335.693 259.7 335.813 259.7H339.971C340.103 259.7 340.169 259.766 340.169 259.898V260.312C340.169 260.444 340.103 260.51 339.971 260.51H335.813C335.693 260.51 335.633 260.564 335.633 260.672V265.028C335.633 265.136 335.693 265.19 335.813 265.19H340.475C340.619 265.19 340.691 265.256 340.691 265.388V265.802C340.691 265.934 340.619 266 340.475 266ZM345.919 266H345.397C345.265 266 345.199 265.928 345.199 265.784V255.398C345.199 255.29 345.139 255.236 345.019 255.236H342.409C342.265 255.236 342.193 255.17 342.193 255.038V254.624C342.193 254.492 342.265 254.426 342.409 254.426H348.889C349.033 254.426 349.105 254.492 349.105 254.624V255.038C349.105 255.17 349.033 255.236 348.889 255.236H346.279C346.159 255.236 346.099 255.29 346.099 255.398V265.784C346.099 265.928 346.039 266 345.919 266ZM353.478 266H352.956C352.824 266 352.758 265.928 352.758 265.784V255.398C352.758 255.29 352.698 255.236 352.578 255.236H349.968C349.824 255.236 349.752 255.17 349.752 255.038V254.624C349.752 254.492 349.824 254.426 349.968 254.426H356.448C356.592 254.426 356.664 254.492 356.664 254.624V255.038C356.664 255.17 356.592 255.236 356.448 255.236H353.838C353.718 255.236 353.658 255.29 353.658 255.398V265.784C353.658 265.928 353.598 266 353.478 266ZM364.258 266H358.696C358.576 266 358.516 265.928 358.516 265.784V254.642C358.516 254.498 358.576 254.426 358.696 254.426H364.258C364.402 254.426 364.474 254.492 364.474 254.624V255.038C364.474 255.17 364.402 255.236 364.258 255.236H359.596C359.476 255.236 359.416 255.29 359.416 255.398V259.538C359.416 259.646 359.476 259.7 359.596 259.7H363.754C363.886 259.7 363.952 259.766 363.952 259.898V260.312C363.952 260.444 363.886 260.51 363.754 260.51H359.596C359.476 260.51 359.416 260.564 359.416 260.672V265.028C359.416 265.136 359.476 265.19 359.596 265.19H364.258C364.402 265.19 364.474 265.256 364.474 265.388V265.802C364.474 265.934 364.402 266 364.258 266ZM370.332 260.636H366.588C366.444 260.636 366.372 260.57 366.372 260.438V260.042C366.372 259.91 366.444 259.844 366.588 259.844H370.332C370.476 259.844 370.548 259.91 370.548 260.042V260.438C370.548 260.57 370.476 260.636 370.332 260.636Z" fill="#4E4444"/>
</svg>
