<svg width="600" height="350" viewBox="0 0 600 350" fill="none" xmlns="http://www.w3.org/2000/svg">
    <rect width="600" height="350" fill="white"/>
    <path d="M61.3168 43.968V42.6C61.3168 42.184 61.4368 41.656 61.6768 41.016L62.4688 38.76C62.5168 38.632 62.6048 38.568 62.7328 38.568C62.9088 38.568 62.9968 38.664 62.9968 38.856V43.968C62.9968 44.176 62.8928 44.28 62.6848 44.28H61.6288C61.4208 44.28 61.3168 44.176 61.3168 43.968ZM57.6208 43.968V42.6C57.6208 42.264 57.7408 41.736 57.9808 41.016L58.7728 38.76C58.8528 38.632 58.9488 38.568 59.0608 38.568C59.2208 38.568 59.3008 38.664 59.3008 38.856V43.968C59.3008 44.176 59.1968 44.28 58.9888 44.28H57.9568C57.7328 44.28 57.6208 44.176 57.6208 43.968ZM74.4204 38.568H75.5004C75.7244 38.568 75.8364 38.672 75.8364 38.88V50.448C75.8364 51.568 75.5244 52.44 74.9004 53.064C74.2764 53.688 73.4124 54 72.3084 54H69.6444C68.5404 54 67.6684 53.688 67.0284 53.064C66.4044 52.44 66.0924 51.568 66.0924 50.448V38.904C66.0924 38.68 66.2044 38.568 66.4284 38.568H67.5084C67.7324 38.568 67.8444 38.68 67.8444 38.904V50.376C67.8444 51.768 68.5084 52.464 69.8364 52.464H72.0924C73.4364 52.464 74.1084 51.768 74.1084 50.376V38.904C74.1084 38.68 74.2124 38.568 74.4204 38.568ZM80.8935 54H79.8375C79.6135 54 79.5015 53.888 79.5015 53.664V38.904C79.5015 38.68 79.6135 38.568 79.8375 38.568H80.8215C81.0135 38.568 81.1415 38.632 81.2055 38.76L87.8295 50.4H87.9255V38.904C87.9255 38.68 88.0375 38.568 88.2615 38.568H89.3175C89.5415 38.568 89.6535 38.68 89.6535 38.904V53.664C89.6535 53.888 89.5415 54 89.3175 54H88.4295C88.2535 54 88.0855 53.896 87.9255 53.688L81.3255 42.168H81.2295V53.664C81.2295 53.888 81.1175 54 80.8935 54ZM104.581 54H102.877C102.669 54 102.533 53.888 102.469 53.664L98.2205 38.928C98.1725 38.688 98.2765 38.568 98.5325 38.568H99.7085C99.9165 38.568 100.045 38.68 100.093 38.904L103.669 52.032H103.765L107.341 38.904C107.389 38.68 107.517 38.568 107.725 38.568H108.925C109.165 38.568 109.261 38.688 109.213 38.928L104.965 53.664C104.901 53.888 104.773 54 104.581 54ZM113.097 54H112.017C111.793 54 111.681 53.888 111.681 53.664V38.904C111.681 38.68 111.793 38.568 112.017 38.568H117.537C118.641 38.568 119.513 38.888 120.153 39.528C120.793 40.152 121.113 41.016 121.113 42.12V44.304C121.113 45.2 120.897 45.944 120.465 46.536C120.033 47.112 119.433 47.496 118.665 47.688V47.784L121.449 53.616C121.593 53.872 121.513 54 121.209 54H120.129C119.857 54 119.657 53.888 119.529 53.664L116.841 47.856H113.673C113.513 47.856 113.433 47.928 113.433 48.072V53.664C113.433 53.888 113.321 54 113.097 54ZM113.673 46.392H117.297C118.673 46.392 119.361 45.704 119.361 44.328V42.192C119.361 40.8 118.673 40.104 117.297 40.104H113.673C113.513 40.104 113.433 40.176 113.433 40.32V46.176C113.433 46.32 113.513 46.392 113.673 46.392ZM124.764 54H123.564C123.356 54 123.284 53.888 123.348 53.664L127.836 38.904C127.9 38.68 128.052 38.568 128.292 38.568H130.02C130.26 38.568 130.412 38.68 130.476 38.904L134.964 53.664C135.028 53.888 134.956 54 134.748 54H133.524C133.348 54 133.236 53.888 133.188 53.664L132.06 50.16H126.252L125.124 53.664C125.06 53.888 124.94 54 124.764 54ZM129.108 40.368L126.636 48.672H131.676L129.204 40.368H129.108ZM139.405 38.904V53.664C139.405 53.888 139.293 54 139.069 54H137.989C137.765 54 137.653 53.888 137.653 53.664V38.904C137.653 38.68 137.765 38.568 137.989 38.568H139.069C139.293 38.568 139.405 38.68 139.405 38.904ZM160.264 38.568H162.208C162.432 38.568 162.544 38.68 162.544 38.904V53.664C162.544 53.888 162.432 54 162.208 54H161.152C160.928 54 160.816 53.888 160.816 53.664V40.92H160.72L157 50.328C156.904 50.536 156.76 50.64 156.568 50.64H155.416C155.208 50.64 155.072 50.536 155.008 50.328L151.216 40.896H151.12V53.664C151.12 53.888 151.016 54 150.808 54H149.752C149.528 54 149.416 53.888 149.416 53.664V38.904C149.416 38.68 149.528 38.568 149.752 38.568H151.696C151.84 38.568 151.936 38.632 151.984 38.76L155.92 48.696H156.04L159.976 38.76C160.008 38.632 160.104 38.568 160.264 38.568ZM169.841 52.464H172.289C173.633 52.464 174.305 51.768 174.305 50.376V42.192C174.305 40.8 173.633 40.104 172.289 40.104H169.841C168.513 40.104 167.849 40.8 167.849 42.192V50.376C167.849 51.768 168.513 52.464 169.841 52.464ZM172.505 54H169.649C168.545 54 167.673 53.688 167.033 53.064C166.409 52.44 166.097 51.568 166.097 50.448V42.12C166.097 41 166.409 40.128 167.033 39.504C167.673 38.88 168.545 38.568 169.649 38.568H172.505C173.609 38.568 174.473 38.888 175.097 39.528C175.737 40.152 176.057 41.016 176.057 42.12V50.448C176.057 51.552 175.737 52.424 175.097 53.064C174.473 53.688 173.609 54 172.505 54ZM190.451 38.568H192.395C192.619 38.568 192.731 38.68 192.731 38.904V53.664C192.731 53.888 192.619 54 192.395 54H191.339C191.115 54 191.003 53.888 191.003 53.664V40.92H190.907L187.187 50.328C187.091 50.536 186.947 50.64 186.755 50.64H185.603C185.395 50.64 185.259 50.536 185.195 50.328L181.403 40.896H181.307V53.664C181.307 53.888 181.203 54 180.995 54H179.939C179.715 54 179.603 53.888 179.603 53.664V38.904C179.603 38.68 179.715 38.568 179.939 38.568H181.883C182.027 38.568 182.123 38.632 182.171 38.76L186.107 48.696H186.227L190.163 38.76C190.195 38.632 190.291 38.568 190.451 38.568ZM204.397 54H196.861C196.637 54 196.525 53.888 196.525 53.664V38.904C196.525 38.68 196.637 38.568 196.861 38.568H204.397C204.621 38.568 204.733 38.68 204.733 38.904V39.768C204.733 39.992 204.621 40.104 204.397 40.104H198.517C198.357 40.104 198.277 40.176 198.277 40.32V45.168C198.277 45.312 198.357 45.384 198.517 45.384H203.653C203.877 45.384 203.989 45.496 203.989 45.72V46.584C203.989 46.808 203.877 46.92 203.653 46.92H198.517C198.357 46.92 198.277 46.992 198.277 47.136V52.248C198.277 52.392 198.357 52.464 198.517 52.464H204.397C204.621 52.464 204.733 52.576 204.733 52.8V53.664C204.733 53.888 204.621 54 204.397 54ZM209.448 54H208.392C208.168 54 208.056 53.888 208.056 53.664V38.904C208.056 38.68 208.168 38.568 208.392 38.568H209.376C209.568 38.568 209.696 38.632 209.76 38.76L216.384 50.4H216.48V38.904C216.48 38.68 216.592 38.568 216.816 38.568H217.872C218.096 38.568 218.208 38.68 218.208 38.904V53.664C218.208 53.888 218.096 54 217.872 54H216.984C216.808 54 216.64 53.896 216.48 53.688L209.88 42.168H209.784V53.664C209.784 53.888 209.672 54 209.448 54ZM225.769 54H224.689C224.465 54 224.353 53.888 224.353 53.664V40.32C224.353 40.176 224.273 40.104 224.113 40.104H220.849C220.609 40.104 220.489 39.992 220.489 39.768V38.904C220.489 38.68 220.609 38.568 220.849 38.568H229.609C229.849 38.568 229.969 38.68 229.969 38.904V39.768C229.969 39.992 229.849 40.104 229.609 40.104H226.345C226.185 40.104 226.105 40.176 226.105 40.32V53.664C226.105 53.888 225.993 54 225.769 54ZM240.329 52.464H244.361C245.705 52.464 246.377 51.768 246.377 50.376V42.192C246.377 40.8 245.705 40.104 244.361 40.104H240.329C240.169 40.104 240.089 40.176 240.089 40.32V52.248C240.089 52.392 240.169 52.464 240.329 52.464ZM238.337 53.664V38.904C238.337 38.68 238.449 38.568 238.673 38.568H244.577C245.681 38.568 246.545 38.888 247.169 39.528C247.809 40.152 248.129 41.016 248.129 42.12V50.448C248.129 51.552 247.809 52.424 247.169 53.064C246.545 53.688 245.681 54 244.577 54H238.673C238.449 54 238.337 53.888 238.337 53.664ZM259.545 54H252.009C251.785 54 251.673 53.888 251.673 53.664V38.904C251.673 38.68 251.785 38.568 252.009 38.568H259.545C259.769 38.568 259.881 38.68 259.881 38.904V39.768C259.881 39.992 259.769 40.104 259.545 40.104H253.665C253.505 40.104 253.425 40.176 253.425 40.32V45.168C253.425 45.312 253.505 45.384 253.665 45.384H258.801C259.025 45.384 259.137 45.496 259.137 45.72V46.584C259.137 46.808 259.025 46.92 258.801 46.92H253.665C253.505 46.92 253.425 46.992 253.425 47.136V52.248C253.425 52.392 253.505 52.464 253.665 52.464H259.545C259.769 52.464 259.881 52.576 259.881 52.8V53.664C259.881 53.888 259.769 54 259.545 54ZM271.29 52.464H275.322C276.666 52.464 277.338 51.768 277.338 50.376V42.192C277.338 40.8 276.666 40.104 275.322 40.104H271.29C271.13 40.104 271.05 40.176 271.05 40.32V52.248C271.05 52.392 271.13 52.464 271.29 52.464ZM269.298 53.664V38.904C269.298 38.68 269.41 38.568 269.634 38.568H275.538C276.642 38.568 277.506 38.888 278.13 39.528C278.77 40.152 279.09 41.016 279.09 42.12V50.448C279.09 51.552 278.77 52.424 278.13 53.064C277.506 53.688 276.642 54 275.538 54H269.634C269.41 54 269.298 53.888 269.298 53.664ZM290.506 54H282.97C282.746 54 282.634 53.888 282.634 53.664V38.904C282.634 38.68 282.746 38.568 282.97 38.568H290.506C290.73 38.568 290.842 38.68 290.842 38.904V39.768C290.842 39.992 290.73 40.104 290.506 40.104H284.626C284.466 40.104 284.386 40.176 284.386 40.32V45.168C284.386 45.312 284.466 45.384 284.626 45.384H289.762C289.986 45.384 290.098 45.496 290.098 45.72V46.584C290.098 46.808 289.986 46.92 289.762 46.92H284.626C284.466 46.92 284.386 46.992 284.386 47.136V52.248C284.386 52.392 284.466 52.464 284.626 52.464H290.506C290.73 52.464 290.842 52.576 290.842 52.8V53.664C290.842 53.888 290.73 54 290.506 54ZM297.934 54H296.854C296.63 54 296.518 53.888 296.518 53.664V40.32C296.518 40.176 296.438 40.104 296.278 40.104H293.014C292.774 40.104 292.654 39.992 292.654 39.768V38.904C292.654 38.68 292.774 38.568 293.014 38.568H301.774C302.014 38.568 302.134 38.68 302.134 38.904V39.768C302.134 39.992 302.014 40.104 301.774 40.104H298.51C298.35 40.104 298.27 40.176 298.27 40.32V53.664C298.27 53.888 298.158 54 297.934 54ZM312.28 54H304.744C304.52 54 304.408 53.888 304.408 53.664V38.904C304.408 38.68 304.52 38.568 304.744 38.568H312.28C312.504 38.568 312.616 38.68 312.616 38.904V39.768C312.616 39.992 312.504 40.104 312.28 40.104H306.4C306.24 40.104 306.16 40.176 306.16 40.32V45.168C306.16 45.312 306.24 45.384 306.4 45.384H311.536C311.76 45.384 311.872 45.496 311.872 45.72V46.584C311.872 46.808 311.76 46.92 311.536 46.92H306.4C306.24 46.92 306.16 46.992 306.16 47.136V52.248C306.16 52.392 306.24 52.464 306.4 52.464H312.28C312.504 52.464 312.616 52.576 312.616 52.8V53.664C312.616 53.888 312.504 54 312.28 54ZM317.331 54H316.275C316.051 54 315.939 53.888 315.939 53.664V38.904C315.939 38.68 316.051 38.568 316.275 38.568H317.259C317.451 38.568 317.579 38.632 317.643 38.76L324.267 50.4H324.363V38.904C324.363 38.68 324.475 38.568 324.699 38.568H325.755C325.979 38.568 326.091 38.68 326.091 38.904V53.664C326.091 53.888 325.979 54 325.755 54H324.867C324.691 54 324.523 53.896 324.363 53.688L317.763 42.168H317.667V53.664C317.667 53.888 317.555 54 317.331 54ZM333.652 54H332.572C332.348 54 332.236 53.888 332.236 53.664V40.32C332.236 40.176 332.156 40.104 331.996 40.104H328.732C328.492 40.104 328.372 39.992 328.372 39.768V38.904C328.372 38.68 328.492 38.568 328.732 38.568H337.492C337.732 38.568 337.852 38.68 337.852 38.904V39.768C337.852 39.992 337.732 40.104 337.492 40.104H334.228C334.068 40.104 333.988 40.176 333.988 40.32V53.664C333.988 53.888 333.876 54 333.652 54ZM347.998 54H340.462C340.238 54 340.126 53.888 340.126 53.664V38.904C340.126 38.68 340.238 38.568 340.462 38.568H347.998C348.222 38.568 348.334 38.68 348.334 38.904V39.768C348.334 39.992 348.222 40.104 347.998 40.104H342.118C341.958 40.104 341.878 40.176 341.878 40.32V45.168C341.878 45.312 341.958 45.384 342.118 45.384H347.254C347.478 45.384 347.59 45.496 347.59 45.72V46.584C347.59 46.808 347.478 46.92 347.254 46.92H342.118C341.958 46.92 341.878 46.992 341.878 47.136V52.248C341.878 52.392 341.958 52.464 342.118 52.464H347.998C348.222 52.464 348.334 52.576 348.334 52.8V53.664C348.334 53.888 348.222 54 347.998 54ZM365.623 54H358.087C357.863 54 357.751 53.888 357.751 53.664V38.904C357.751 38.68 357.863 38.568 358.087 38.568H365.623C365.847 38.568 365.959 38.68 365.959 38.904V39.768C365.959 39.992 365.847 40.104 365.623 40.104H359.743C359.583 40.104 359.503 40.176 359.503 40.32V45.168C359.503 45.312 359.583 45.384 359.743 45.384H364.879C365.103 45.384 365.215 45.496 365.215 45.72V46.584C365.215 46.808 365.103 46.92 364.879 46.92H359.743C359.583 46.92 359.503 46.992 359.503 47.136V52.248C359.503 52.392 359.583 52.464 359.743 52.464H365.623C365.847 52.464 365.959 52.576 365.959 52.8V53.664C365.959 53.888 365.847 54 365.623 54ZM373.051 54H371.971C371.747 54 371.635 53.888 371.635 53.664V40.32C371.635 40.176 371.555 40.104 371.395 40.104H368.131C367.891 40.104 367.771 39.992 367.771 39.768V38.904C367.771 38.68 367.891 38.568 368.131 38.568H376.891C377.131 38.568 377.251 38.68 377.251 38.904V39.768C377.251 39.992 377.131 40.104 376.891 40.104H373.627C373.467 40.104 373.387 40.176 373.387 40.32V53.664C373.387 53.888 373.275 54 373.051 54ZM387.611 52.464H391.643C392.987 52.464 393.659 51.768 393.659 50.376V42.192C393.659 40.8 392.987 40.104 391.643 40.104H387.611C387.451 40.104 387.371 40.176 387.371 40.32V52.248C387.371 52.392 387.451 52.464 387.611 52.464ZM385.619 53.664V38.904C385.619 38.68 385.731 38.568 385.955 38.568H391.859C392.963 38.568 393.827 38.888 394.451 39.528C395.091 40.152 395.411 41.016 395.411 42.12V50.448C395.411 51.552 395.091 52.424 394.451 53.064C393.827 53.688 392.963 54 391.859 54H385.955C385.731 54 385.619 53.888 385.619 53.664ZM406.827 54H399.291C399.067 54 398.955 53.888 398.955 53.664V38.904C398.955 38.68 399.067 38.568 399.291 38.568H406.827C407.051 38.568 407.163 38.68 407.163 38.904V39.768C407.163 39.992 407.051 40.104 406.827 40.104H400.947C400.787 40.104 400.707 40.176 400.707 40.32V45.168C400.707 45.312 400.787 45.384 400.947 45.384H406.083C406.307 45.384 406.419 45.496 406.419 45.72V46.584C406.419 46.808 406.307 46.92 406.083 46.92H400.947C400.787 46.92 400.707 46.992 400.707 47.136V52.248C400.707 52.392 400.787 52.464 400.947 52.464H406.827C407.051 52.464 407.163 52.576 407.163 52.8V53.664C407.163 53.888 407.051 54 406.827 54ZM422.484 54H419.892C418.788 54 417.916 53.688 417.276 53.064C416.652 52.44 416.34 51.568 416.34 50.448V42.12C416.34 41 416.652 40.128 417.276 39.504C417.916 38.88 418.788 38.568 419.892 38.568H422.484C423.588 38.568 424.452 38.888 425.076 39.528C425.7 40.152 426.012 41.016 426.012 42.12V43.104C426.012 43.344 425.9 43.464 425.676 43.464H424.596C424.372 43.464 424.26 43.344 424.26 43.104V42.192C424.26 40.8 423.596 40.104 422.268 40.104H420.084C418.756 40.104 418.092 40.8 418.092 42.192V50.376C418.092 51.768 418.756 52.464 420.084 52.464H422.268C423.596 52.464 424.26 51.768 424.26 50.376V47.688C424.26 47.528 424.188 47.448 424.044 47.448H421.668C421.444 47.448 421.332 47.344 421.332 47.136V46.248C421.332 46.024 421.444 45.912 421.668 45.912H425.532C425.852 45.912 426.012 46.08 426.012 46.416V50.448C426.012 51.568 425.7 52.44 425.076 53.064C424.452 53.688 423.588 54 422.484 54ZM429.756 54H428.556C428.348 54 428.276 53.888 428.34 53.664L432.828 38.904C432.892 38.68 433.044 38.568 433.284 38.568H435.012C435.252 38.568 435.404 38.68 435.468 38.904L439.956 53.664C440.02 53.888 439.948 54 439.74 54H438.516C438.34 54 438.228 53.888 438.18 53.664L437.052 50.16H431.244L430.116 53.664C430.052 53.888 429.932 54 429.756 54ZM434.1 40.368L431.628 48.672H436.668L434.196 40.368H434.1ZM442.357 50.448V49.68C442.357 49.456 442.469 49.344 442.693 49.344H443.773C443.997 49.344 444.109 49.456 444.109 49.68V50.304C444.109 51.744 444.821 52.464 446.245 52.464H448.357C449.781 52.464 450.493 51.728 450.493 50.256V49.44C450.493 48.288 449.541 47.536 447.637 47.184C446.837 47.04 446.037 46.872 445.237 46.68C444.437 46.488 443.757 46.12 443.197 45.576C442.637 45.016 442.357 44.256 442.357 43.296V42.12C442.357 41.016 442.669 40.152 443.293 39.528C443.933 38.888 444.805 38.568 445.909 38.568H448.573C449.661 38.568 450.525 38.888 451.165 39.528C451.805 40.152 452.125 41.016 452.125 42.12V42.72C452.125 42.96 452.021 43.08 451.813 43.08H450.709C450.501 43.08 450.397 42.96 450.397 42.72V42.288C450.397 40.832 449.685 40.104 448.261 40.104H446.221C444.797 40.104 444.085 40.864 444.085 42.384V43.344C444.085 44.16 444.621 44.72 445.693 45.024C446.173 45.152 446.701 45.272 447.277 45.384C447.853 45.48 448.429 45.616 449.005 45.792C449.597 45.952 450.133 46.16 450.613 46.416C451.093 46.656 451.477 47.032 451.765 47.544C452.069 48.04 452.221 48.648 452.221 49.368V50.448C452.221 51.552 451.901 52.424 451.261 53.064C450.621 53.688 449.757 54 448.669 54H445.909C444.821 54 443.957 53.688 443.317 53.064C442.677 52.424 442.357 51.552 442.357 50.448ZM459.605 54H458.525C458.301 54 458.189 53.888 458.189 53.664V40.32C458.189 40.176 458.109 40.104 457.949 40.104H454.685C454.445 40.104 454.325 39.992 454.325 39.768V38.904C454.325 38.68 454.445 38.568 454.685 38.568H463.445C463.685 38.568 463.805 38.68 463.805 38.904V39.768C463.805 39.992 463.685 40.104 463.445 40.104H460.181C460.021 40.104 459.941 40.176 459.941 40.32V53.664C459.941 53.888 459.829 54 459.605 54ZM467.496 54H466.416C466.192 54 466.08 53.888 466.08 53.664V38.904C466.08 38.68 466.192 38.568 466.416 38.568H471.936C473.04 38.568 473.912 38.888 474.552 39.528C475.192 40.152 475.512 41.016 475.512 42.12V44.304C475.512 45.2 475.296 45.944 474.864 46.536C474.432 47.112 473.832 47.496 473.064 47.688V47.784L475.848 53.616C475.992 53.872 475.912 54 475.608 54H474.528C474.256 54 474.056 53.888 473.928 53.664L471.24 47.856H468.072C467.912 47.856 467.832 47.928 467.832 48.072V53.664C467.832 53.888 467.72 54 467.496 54ZM468.072 46.392H471.696C473.072 46.392 473.76 45.704 473.76 44.328V42.192C473.76 40.8 473.072 40.104 471.696 40.104H468.072C467.912 40.104 467.832 40.176 467.832 40.32V46.176C467.832 46.32 467.912 46.392 468.072 46.392ZM482.474 52.464H484.922C486.266 52.464 486.938 51.768 486.938 50.376V42.192C486.938 40.8 486.266 40.104 484.922 40.104H482.474C481.146 40.104 480.482 40.8 480.482 42.192V50.376C480.482 51.768 481.146 52.464 482.474 52.464ZM485.138 54H482.282C481.178 54 480.306 53.688 479.666 53.064C479.042 52.44 478.73 51.568 478.73 50.448V42.12C478.73 41 479.042 40.128 479.666 39.504C480.306 38.88 481.178 38.568 482.282 38.568H485.138C486.242 38.568 487.106 38.888 487.73 39.528C488.37 40.152 488.69 41.016 488.69 42.12V50.448C488.69 51.552 488.37 52.424 487.73 53.064C487.106 53.688 486.242 54 485.138 54ZM493.628 54H492.572C492.348 54 492.236 53.888 492.236 53.664V38.904C492.236 38.68 492.348 38.568 492.572 38.568H493.556C493.748 38.568 493.876 38.632 493.94 38.76L500.564 50.4H500.66V38.904C500.66 38.68 500.772 38.568 500.996 38.568H502.052C502.276 38.568 502.388 38.68 502.388 38.904V53.664C502.388 53.888 502.276 54 502.052 54H501.164C500.988 54 500.82 53.896 500.66 53.688L494.06 42.168H493.964V53.664C493.964 53.888 493.852 54 493.628 54ZM509.685 52.464H512.133C513.477 52.464 514.149 51.768 514.149 50.376V42.192C514.149 40.8 513.477 40.104 512.133 40.104H509.685C508.357 40.104 507.693 40.8 507.693 42.192V50.376C507.693 51.768 508.357 52.464 509.685 52.464ZM512.349 54H509.493C508.389 54 507.517 53.688 506.877 53.064C506.253 52.44 505.941 51.568 505.941 50.448V42.12C505.941 41 506.253 40.128 506.877 39.504C507.517 38.88 508.389 38.568 509.493 38.568H512.349C513.453 38.568 514.317 38.888 514.941 39.528C515.581 40.152 515.901 41.016 515.901 42.12V50.448C515.901 51.552 515.581 52.424 514.941 53.064C514.317 53.688 513.453 54 512.349 54ZM530.295 38.568H532.239C532.463 38.568 532.575 38.68 532.575 38.904V53.664C532.575 53.888 532.463 54 532.239 54H531.183C530.959 54 530.847 53.888 530.847 53.664V40.92H530.751L527.031 50.328C526.935 50.536 526.791 50.64 526.599 50.64H525.447C525.239 50.64 525.103 50.536 525.039 50.328L521.247 40.896H521.151V53.664C521.151 53.888 521.047 54 520.839 54H519.783C519.559 54 519.447 53.888 519.447 53.664V38.904C519.447 38.68 519.559 38.568 519.783 38.568H521.727C521.871 38.568 521.967 38.632 522.015 38.76L525.951 48.696H526.071L530.007 38.76C530.039 38.632 530.135 38.568 530.295 38.568ZM538.241 38.904V53.664C538.241 53.888 538.129 54 537.905 54H536.825C536.601 54 536.489 53.888 536.489 53.664V38.904C536.489 38.68 536.601 38.568 536.825 38.568H537.905C538.129 38.568 538.241 38.68 538.241 38.904ZM550.03 54H542.494C542.27 54 542.158 53.888 542.158 53.664V38.904C542.158 38.68 542.27 38.568 542.494 38.568H550.03C550.254 38.568 550.366 38.68 550.366 38.904V39.768C550.366 39.992 550.254 40.104 550.03 40.104H544.15C543.99 40.104 543.91 40.176 543.91 40.32V45.168C543.91 45.312 543.99 45.384 544.15 45.384H549.286C549.51 45.384 549.622 45.496 549.622 45.72V46.584C549.622 46.808 549.51 46.92 549.286 46.92H544.15C543.99 46.92 543.91 46.992 543.91 47.136V52.248C543.91 52.392 543.99 52.464 544.15 52.464H550.03C550.254 52.464 550.366 52.576 550.366 52.8V53.664C550.366 53.888 550.254 54 550.03 54ZM219.888 86.448V85.68C219.888 85.456 220 85.344 220.224 85.344H221.304C221.528 85.344 221.64 85.456 221.64 85.68V86.304C221.64 87.744 222.352 88.464 223.776 88.464H225.888C227.312 88.464 228.024 87.728 228.024 86.256V85.44C228.024 84.288 227.072 83.536 225.168 83.184C224.368 83.04 223.568 82.872 222.768 82.68C221.968 82.488 221.288 82.12 220.728 81.576C220.168 81.016 219.888 80.256 219.888 79.296V78.12C219.888 77.016 220.2 76.152 220.824 75.528C221.464 74.888 222.336 74.568 223.44 74.568H226.104C227.192 74.568 228.056 74.888 228.696 75.528C229.336 76.152 229.656 77.016 229.656 78.12V78.72C229.656 78.96 229.552 79.08 229.344 79.08H228.24C228.032 79.08 227.928 78.96 227.928 78.72V78.288C227.928 76.832 227.216 76.104 225.792 76.104H223.752C222.328 76.104 221.616 76.864 221.616 78.384V79.344C221.616 80.16 222.152 80.72 223.224 81.024C223.704 81.152 224.232 81.272 224.808 81.384C225.384 81.48 225.96 81.616 226.536 81.792C227.128 81.952 227.664 82.16 228.144 82.416C228.624 82.656 229.008 83.032 229.296 83.544C229.6 84.04 229.752 84.648 229.752 85.368V86.448C229.752 87.552 229.432 88.424 228.792 89.064C228.152 89.688 227.288 90 226.2 90H223.44C222.352 90 221.488 89.688 220.848 89.064C220.208 88.424 219.888 87.552 219.888 86.448ZM241.577 74.568H242.657C242.881 74.568 242.993 74.672 242.993 74.88V86.448C242.993 87.568 242.681 88.44 242.057 89.064C241.433 89.688 240.569 90 239.465 90H236.801C235.697 90 234.825 89.688 234.185 89.064C233.561 88.44 233.249 87.568 233.249 86.448V74.904C233.249 74.68 233.361 74.568 233.585 74.568H234.665C234.889 74.568 235.001 74.68 235.001 74.904V86.376C235.001 87.768 235.665 88.464 236.993 88.464H239.249C240.593 88.464 241.265 87.768 241.265 86.376V74.904C241.265 74.68 241.369 74.568 241.577 74.568ZM248.074 90H246.994C246.77 90 246.658 89.888 246.658 89.664V74.904C246.658 74.68 246.77 74.568 246.994 74.568H252.514C253.618 74.568 254.49 74.888 255.13 75.528C255.77 76.152 256.09 77.016 256.09 78.12V80.304C256.09 81.2 255.874 81.944 255.442 82.536C255.01 83.112 254.41 83.496 253.642 83.688V83.784L256.426 89.616C256.57 89.872 256.49 90 256.186 90H255.106C254.834 90 254.634 89.888 254.506 89.664L251.818 83.856H248.65C248.49 83.856 248.41 83.928 248.41 84.072V89.664C248.41 89.888 248.298 90 248.074 90ZM248.65 82.392H252.274C253.65 82.392 254.338 81.704 254.338 80.328V78.192C254.338 76.8 253.65 76.104 252.274 76.104H248.65C248.49 76.104 248.41 76.176 248.41 76.32V82.176C248.41 82.32 248.49 82.392 248.65 82.392ZM273.682 90H265.978C265.754 90 265.642 89.888 265.642 89.664V74.904C265.642 74.68 265.754 74.568 265.978 74.568H267.058C267.282 74.568 267.394 74.68 267.394 74.904V88.2C267.394 88.344 267.474 88.416 267.634 88.416H273.682C273.906 88.416 274.018 88.536 274.018 88.776V89.664C274.018 89.888 273.906 90 273.682 90ZM276.662 90H275.462C275.254 90 275.182 89.888 275.246 89.664L279.734 74.904C279.798 74.68 279.95 74.568 280.19 74.568H281.918C282.158 74.568 282.31 74.68 282.374 74.904L286.862 89.664C286.926 89.888 286.854 90 286.646 90H285.422C285.246 90 285.134 89.888 285.086 89.664L283.958 86.16H278.15L277.022 89.664C276.958 89.888 276.838 90 276.662 90ZM281.006 76.368L278.534 84.672H283.574L281.102 76.368H281.006ZM296.941 90H295.861C295.637 90 295.525 89.888 295.525 89.664V74.904C295.525 74.68 295.637 74.568 295.861 74.568H301.381C302.485 74.568 303.357 74.888 303.997 75.528C304.637 76.152 304.957 77.016 304.957 78.12V80.304C304.957 81.2 304.741 81.944 304.309 82.536C303.877 83.112 303.277 83.496 302.509 83.688V83.784L305.293 89.616C305.437 89.872 305.357 90 305.053 90H303.973C303.701 90 303.501 89.888 303.373 89.664L300.685 83.856H297.517C297.357 83.856 297.277 83.928 297.277 84.072V89.664C297.277 89.888 297.165 90 296.941 90ZM297.517 82.392H301.141C302.517 82.392 303.205 81.704 303.205 80.328V78.192C303.205 76.8 302.517 76.104 301.141 76.104H297.517C297.357 76.104 297.277 76.176 297.277 76.32V82.176C297.277 82.32 297.357 82.392 297.517 82.392ZM316.288 90H308.752C308.528 90 308.416 89.888 308.416 89.664V74.904C308.416 74.68 308.528 74.568 308.752 74.568H316.288C316.512 74.568 316.624 74.68 316.624 74.904V75.768C316.624 75.992 316.512 76.104 316.288 76.104H310.408C310.248 76.104 310.168 76.176 310.168 76.32V81.168C310.168 81.312 310.248 81.384 310.408 81.384H315.544C315.768 81.384 315.88 81.496 315.88 81.72V82.584C315.88 82.808 315.768 82.92 315.544 82.92H310.408C310.248 82.92 310.168 82.992 310.168 83.136V88.248C310.168 88.392 310.248 88.464 310.408 88.464H316.288C316.512 88.464 316.624 88.576 316.624 88.8V89.664C316.624 89.888 316.512 90 316.288 90ZM325.851 90H323.259C322.155 90 321.283 89.688 320.643 89.064C320.019 88.44 319.707 87.568 319.707 86.448V78.12C319.707 77 320.019 76.128 320.643 75.504C321.283 74.88 322.155 74.568 323.259 74.568H325.851C326.955 74.568 327.819 74.888 328.443 75.528C329.067 76.152 329.379 77.016 329.379 78.12V79.104C329.379 79.344 329.267 79.464 329.043 79.464H327.963C327.739 79.464 327.627 79.344 327.627 79.104V78.192C327.627 76.8 326.963 76.104 325.635 76.104H323.451C322.123 76.104 321.459 76.8 321.459 78.192V86.376C321.459 87.768 322.123 88.464 323.451 88.464H325.635C326.963 88.464 327.627 87.768 327.627 86.376V83.688C327.627 83.528 327.555 83.448 327.411 83.448H325.035C324.811 83.448 324.699 83.344 324.699 83.136V82.248C324.699 82.024 324.811 81.912 325.035 81.912H328.899C329.219 81.912 329.379 82.08 329.379 82.416V86.448C329.379 87.568 329.067 88.44 328.443 89.064C327.819 89.688 326.955 90 325.851 90ZM334.803 74.904V89.664C334.803 89.888 334.691 90 334.467 90H333.387C333.163 90 333.051 89.888 333.051 89.664V74.904C333.051 74.68 333.163 74.568 333.387 74.568H334.467C334.691 74.568 334.803 74.68 334.803 74.904ZM342.224 88.464H344.672C346.016 88.464 346.688 87.768 346.688 86.376V78.192C346.688 76.8 346.016 76.104 344.672 76.104H342.224C340.896 76.104 340.232 76.8 340.232 78.192V86.376C340.232 87.768 340.896 88.464 342.224 88.464ZM344.888 90H342.032C340.928 90 340.056 89.688 339.416 89.064C338.792 88.44 338.48 87.568 338.48 86.448V78.12C338.48 77 338.792 76.128 339.416 75.504C340.056 74.88 340.928 74.568 342.032 74.568H344.888C345.992 74.568 346.856 74.888 347.48 75.528C348.12 76.152 348.44 77.016 348.44 78.12V86.448C348.44 87.552 348.12 88.424 347.48 89.064C346.856 89.688 345.992 90 344.888 90ZM353.378 90H352.322C352.098 90 351.986 89.888 351.986 89.664V74.904C351.986 74.68 352.098 74.568 352.322 74.568H353.306C353.498 74.568 353.626 74.632 353.69 74.76L360.314 86.4H360.41V74.904C360.41 74.68 360.522 74.568 360.746 74.568H361.802C362.026 74.568 362.138 74.68 362.138 74.904V89.664C362.138 89.888 362.026 90 361.802 90H360.914C360.738 90 360.57 89.896 360.41 89.688L353.81 78.168H353.714V89.664C353.714 89.888 353.602 90 353.378 90ZM372.001 77.688V74.904C372.001 74.68 372.113 74.568 372.337 74.568H373.609C373.833 74.568 373.945 74.68 373.945 74.904V77.688C373.945 79.208 373.897 80.688 373.801 82.128C373.705 83.568 373.641 84.384 373.609 84.576C373.577 84.768 373.473 84.864 373.297 84.864H372.649C372.441 84.864 372.329 84.744 372.313 84.504C372.249 83.88 372.177 82.784 372.097 81.216C372.033 79.648 372.001 78.472 372.001 77.688ZM373.897 86.76V89.664C373.897 89.888 373.785 90 373.561 90H372.409C372.201 90 372.097 89.88 372.097 89.64V86.76C372.097 86.552 372.201 86.448 372.409 86.448H373.561C373.785 86.448 373.897 86.552 373.897 86.76ZM378.824 74.88V76.272C378.824 76.64 378.712 77.16 378.488 77.832L377.672 80.112C377.624 80.224 377.536 80.28 377.408 80.28C377.232 80.28 377.144 80.184 377.144 79.992V74.904C377.144 74.68 377.256 74.568 377.48 74.568H378.512C378.72 74.568 378.824 74.672 378.824 74.88ZM382.52 74.88V76.272C382.52 76.672 382.4 77.192 382.16 77.832L381.368 80.112C381.32 80.224 381.216 80.28 381.056 80.28C380.912 80.28 380.84 80.184 380.84 79.992V74.904C380.84 74.68 380.944 74.568 381.152 74.568H382.208C382.416 74.568 382.52 74.672 382.52 74.88Z" fill="#686666"/>
    <path d="M197.931 113.4H201.963C203.007 113.4 203.931 113.652 204.735 114.156C205.551 114.66 206.187 115.386 206.643 116.334C207.099 117.282 207.327 118.404 207.327 119.7C207.327 120.996 207.099 122.118 206.643 123.066C206.187 124.014 205.551 124.74 204.735 125.244C203.931 125.748 203.007 126 201.963 126H197.931V113.4ZM201.657 124.506C202.917 124.506 203.871 124.086 204.519 123.246C205.179 122.406 205.509 121.224 205.509 119.7C205.509 118.176 205.179 116.994 204.519 116.154C203.871 115.314 202.917 114.894 201.657 114.894H199.569V124.506H201.657ZM212.479 126.18C211.591 126.18 210.829 125.976 210.193 125.568C209.569 125.148 209.095 124.584 208.771 123.876C208.459 123.168 208.303 122.382 208.303 121.518C208.303 120.69 208.447 119.934 208.735 119.25C209.035 118.554 209.461 118.008 210.013 117.612C210.577 117.204 211.243 117 212.011 117C212.995 117 213.793 117.33 214.405 117.99C215.029 118.65 215.341 119.562 215.341 120.726C215.341 120.93 215.317 121.212 215.269 121.572H209.905C209.941 122.616 210.199 123.408 210.679 123.948C211.171 124.488 211.807 124.758 212.587 124.758C212.959 124.758 213.349 124.716 213.757 124.632C214.177 124.536 214.543 124.404 214.855 124.236L214.999 125.64C214.339 126 213.499 126.18 212.479 126.18ZM213.739 120.474C213.739 119.874 213.589 119.388 213.289 119.016C213.001 118.632 212.581 118.44 212.029 118.44C211.489 118.44 211.039 118.608 210.679 118.944C210.331 119.28 210.097 119.79 209.977 120.474H213.739ZM210.715 114.39L213.361 112.698V114.462L210.715 115.488V114.39ZM220.264 126.18C218.92 126.18 217.9 125.76 217.204 124.92C216.508 124.068 216.16 122.976 216.16 121.644C216.16 120.264 216.508 119.148 217.204 118.296C217.9 117.432 218.932 117 220.3 117C221.032 117 221.686 117.15 222.262 117.45L222.01 118.836C221.47 118.548 220.906 118.404 220.318 118.404C219.514 118.404 218.884 118.686 218.428 119.25C217.984 119.802 217.762 120.576 217.762 121.572C217.762 122.568 217.99 123.354 218.446 123.93C218.914 124.506 219.556 124.794 220.372 124.794C220.996 124.794 221.548 124.65 222.028 124.362L222.244 125.766C222.004 125.886 221.704 125.982 221.344 126.054C220.984 126.138 220.624 126.18 220.264 126.18ZM226.796 126.18C226.004 126.18 225.32 125.982 224.744 125.586C224.168 125.178 223.724 124.626 223.412 123.93C223.112 123.234 222.962 122.454 222.962 121.59C222.962 120.726 223.112 119.946 223.412 119.25C223.724 118.554 224.168 118.008 224.744 117.612C225.32 117.204 226.004 117 226.796 117C227.576 117 228.254 117.204 228.83 117.612C229.406 118.008 229.844 118.554 230.144 119.25C230.444 119.946 230.594 120.726 230.594 121.59C230.594 122.454 230.444 123.234 230.144 123.93C229.844 124.626 229.406 125.178 228.83 125.586C228.254 125.982 227.576 126.18 226.796 126.18ZM226.796 124.794C227.492 124.794 228.032 124.512 228.416 123.948C228.8 123.384 228.992 122.598 228.992 121.59C228.992 120.582 228.8 119.802 228.416 119.25C228.032 118.686 227.492 118.404 226.796 118.404C226.076 118.404 225.524 118.686 225.14 119.25C224.756 119.802 224.564 120.582 224.564 121.59C224.564 122.61 224.756 123.402 225.14 123.966C225.524 124.518 226.076 124.794 226.796 124.794ZM238.347 117.18V126H237.015L236.907 124.92C236.667 125.316 236.343 125.628 235.935 125.856C235.527 126.072 235.077 126.18 234.585 126.18C233.661 126.18 232.971 125.874 232.515 125.262C232.071 124.638 231.849 123.75 231.849 122.598V117.18H233.415V122.4C233.415 123.192 233.529 123.786 233.757 124.182C233.997 124.566 234.393 124.758 234.945 124.758C235.329 124.758 235.677 124.65 235.989 124.434C236.301 124.218 236.565 123.918 236.781 123.534V117.18H238.347ZM239.635 117.18H241.309L243.361 124.146L245.377 117.18H247.051L244.135 126H242.569L239.635 117.18ZM248.148 117.18H249.426L249.624 118.656C250.02 118.08 250.392 117.66 250.74 117.396C251.1 117.132 251.478 117 251.874 117C252.03 117 252.168 117.018 252.288 117.054L252.126 118.836C251.97 118.8 251.79 118.782 251.586 118.782C251.19 118.782 250.818 118.884 250.47 119.088C250.122 119.28 249.87 119.508 249.714 119.772V126H248.148V117.18ZM253.475 113.4H255.041V115.182H253.475V113.4ZM253.475 117.18H255.041V126H253.475V117.18ZM257.13 117.18H258.408L258.606 118.656C259.002 118.08 259.374 117.66 259.722 117.396C260.082 117.132 260.46 117 260.856 117C261.012 117 261.15 117.018 261.27 117.054L261.108 118.836C260.952 118.8 260.772 118.782 260.568 118.782C260.172 118.782 259.8 118.884 259.452 119.088C259.104 119.28 258.852 119.508 258.696 119.772V126H257.13V117.18ZM268.187 126.18C267.155 126.18 266.261 125.94 265.505 125.46L265.703 123.876C266.471 124.476 267.263 124.776 268.079 124.776C268.511 124.776 268.847 124.686 269.087 124.506C269.339 124.326 269.465 124.062 269.465 123.714C269.465 123.45 269.405 123.234 269.285 123.066C269.177 122.898 268.991 122.736 268.727 122.58C268.463 122.424 268.055 122.22 267.503 121.968C266.855 121.668 266.381 121.326 266.081 120.942C265.781 120.558 265.631 120.06 265.631 119.448C265.631 118.728 265.883 118.14 266.387 117.684C266.891 117.228 267.569 117 268.421 117C269.285 117 270.041 117.192 270.689 117.576L270.491 119.034C270.167 118.818 269.861 118.662 269.573 118.566C269.285 118.458 268.943 118.404 268.547 118.404C268.127 118.404 267.797 118.494 267.557 118.674C267.317 118.854 267.197 119.106 267.197 119.43C267.197 119.754 267.299 120 267.503 120.168C267.719 120.336 268.133 120.558 268.745 120.834C269.597 121.218 270.197 121.608 270.545 122.004C270.893 122.388 271.067 122.898 271.067 123.534C271.067 124.362 270.809 125.01 270.293 125.478C269.777 125.946 269.075 126.18 268.187 126.18ZM278.723 117.18V126H277.391L277.283 124.92C277.043 125.316 276.719 125.628 276.311 125.856C275.903 126.072 275.453 126.18 274.961 126.18C274.037 126.18 273.347 125.874 272.891 125.262C272.447 124.638 272.225 123.75 272.225 122.598V117.18H273.791V122.4C273.791 123.192 273.905 123.786 274.133 124.182C274.373 124.566 274.769 124.758 275.321 124.758C275.705 124.758 276.053 124.65 276.365 124.434C276.677 124.218 276.941 123.918 277.157 123.534V117.18H278.723ZM280.966 117.18H282.244L282.442 118.656C282.838 118.08 283.21 117.66 283.558 117.396C283.918 117.132 284.296 117 284.692 117C284.848 117 284.986 117.018 285.106 117.054L284.944 118.836C284.788 118.8 284.608 118.782 284.404 118.782C284.008 118.782 283.636 118.884 283.288 119.088C282.94 119.28 282.688 119.508 282.532 119.772V126H280.966V117.18Z" fill="#8F8F8F"/>
    <path d="M291.889 123.36L293.011 122.194C293.803 123.03 294.647 123.668 295.541 124.108C296.451 124.533 297.404 124.746 298.401 124.746C299.604 124.746 300.594 124.46 301.371 123.888C302.149 123.316 302.537 122.59 302.537 121.71C302.537 120.918 302.259 120.309 301.701 119.884C301.159 119.459 300.257 119.143 298.995 118.938L296.773 118.586C295.292 118.351 294.199 117.919 293.495 117.288C292.791 116.643 292.439 115.777 292.439 114.692C292.439 113.416 292.938 112.382 293.935 111.59C294.933 110.798 296.238 110.402 297.851 110.402C298.922 110.402 299.985 110.578 301.041 110.93C302.097 111.282 303.058 111.788 303.923 112.448L302.955 113.768C302.119 113.137 301.269 112.661 300.403 112.338C299.538 112.015 298.665 111.854 297.785 111.854C296.685 111.854 295.791 112.111 295.101 112.624C294.427 113.123 294.089 113.768 294.089 114.56C294.089 115.279 294.331 115.829 294.815 116.21C295.299 116.591 296.099 116.87 297.213 117.046L299.413 117.398C301.085 117.677 302.303 118.153 303.065 118.828C303.843 119.503 304.231 120.434 304.231 121.622C304.231 122.297 304.085 122.92 303.791 123.492C303.513 124.049 303.109 124.533 302.581 124.944C302.068 125.34 301.445 125.655 300.711 125.89C299.993 126.11 299.201 126.22 298.335 126.22C297.118 126.22 295.945 125.978 294.815 125.494C293.701 124.995 292.725 124.284 291.889 123.36ZM307.787 114.978V121.622C307.787 122.59 308.066 123.36 308.623 123.932C309.18 124.504 309.928 124.79 310.867 124.79C311.527 124.79 312.114 124.643 312.627 124.35C313.155 124.042 313.58 123.617 313.903 123.074V114.978H315.531V126H313.903V124.724C313.478 125.223 312.972 125.597 312.385 125.846C311.813 126.095 311.168 126.22 310.449 126.22C309.188 126.22 308.161 125.824 307.369 125.032C306.577 124.24 306.181 123.213 306.181 121.952V114.978H307.787ZM326.901 126V124.834C326.432 125.274 325.889 125.611 325.273 125.846C324.672 126.066 324.026 126.176 323.337 126.176C322.56 126.176 321.834 126.029 321.159 125.736C320.484 125.443 319.898 125.047 319.399 124.548C318.9 124.035 318.504 123.426 318.211 122.722C317.932 122.018 317.793 121.27 317.793 120.478C317.793 119.686 317.932 118.945 318.211 118.256C318.504 117.552 318.9 116.951 319.399 116.452C319.898 115.939 320.484 115.535 321.159 115.242C321.848 114.949 322.582 114.802 323.359 114.802C323.99 114.802 324.606 114.912 325.207 115.132C325.823 115.337 326.38 115.645 326.879 116.056V110.6L328.507 110.226V126H326.901ZM319.399 120.456C319.399 121.057 319.502 121.622 319.707 122.15C319.927 122.678 320.22 123.133 320.587 123.514C320.954 123.895 321.386 124.196 321.885 124.416C322.384 124.636 322.919 124.746 323.491 124.746C324.18 124.746 324.818 124.614 325.405 124.35C326.006 124.071 326.498 123.69 326.879 123.206V117.75C326.498 117.281 326.006 116.914 325.405 116.65C324.804 116.371 324.166 116.232 323.491 116.232C322.347 116.232 321.379 116.635 320.587 117.442C319.795 118.249 319.399 119.253 319.399 120.456ZM343.614 124.68C344.568 124.68 345.477 124.497 346.342 124.13C347.208 123.749 347.934 123.228 348.52 122.568L349.62 123.712C348.858 124.504 347.948 125.127 346.892 125.582C345.836 126.022 344.729 126.242 343.57 126.242C342.456 126.242 341.407 126.037 340.424 125.626C339.456 125.215 338.613 124.658 337.894 123.954C337.176 123.235 336.611 122.392 336.2 121.424C335.79 120.441 335.584 119.4 335.584 118.3C335.584 117.2 335.79 116.166 336.2 115.198C336.611 114.215 337.176 113.372 337.894 112.668C338.613 111.949 339.456 111.385 340.424 110.974C341.407 110.563 342.456 110.358 343.57 110.358C344.758 110.358 345.88 110.585 346.936 111.04C348.007 111.48 348.916 112.096 349.664 112.888L348.542 114.076C347.941 113.401 347.193 112.873 346.298 112.492C345.418 112.111 344.509 111.92 343.57 111.92C342.69 111.92 341.862 112.089 341.084 112.426C340.322 112.749 339.662 113.196 339.104 113.768C338.547 114.325 338.107 115 337.784 115.792C337.462 116.569 337.3 117.405 337.3 118.3C337.3 119.195 337.462 120.038 337.784 120.83C338.107 121.607 338.547 122.282 339.104 122.854C339.676 123.411 340.344 123.859 341.106 124.196C341.884 124.519 342.72 124.68 343.614 124.68ZM353.011 114.978V121.622C353.011 122.59 353.29 123.36 353.847 123.932C354.405 124.504 355.153 124.79 356.091 124.79C356.751 124.79 357.338 124.643 357.851 124.35C358.379 124.042 358.805 123.617 359.127 123.074V114.978H360.755V126H359.127V124.724C358.702 125.223 358.196 125.597 357.609 125.846C357.037 126.095 356.392 126.22 355.673 126.22C354.412 126.22 353.385 125.824 352.593 125.032C351.801 124.24 351.405 123.213 351.405 121.952V114.978H353.011ZM364.338 112.866C364.044 112.866 363.788 112.756 363.568 112.536C363.348 112.316 363.238 112.059 363.238 111.766C363.238 111.458 363.348 111.201 363.568 110.996C363.788 110.776 364.044 110.666 364.338 110.666C364.646 110.666 364.902 110.776 365.108 110.996C365.328 111.201 365.438 111.458 365.438 111.766C365.438 112.059 365.328 112.316 365.108 112.536C364.902 112.756 364.646 112.866 364.338 112.866ZM365.152 114.978V126H363.524V114.978H365.152ZM366.806 124.482L367.796 123.426C368.295 123.895 368.852 124.262 369.468 124.526C370.099 124.775 370.737 124.9 371.382 124.9C372.262 124.9 372.981 124.717 373.538 124.35C374.095 123.983 374.374 123.507 374.374 122.92C374.374 122.451 374.205 122.084 373.868 121.82C373.545 121.541 373.032 121.351 372.328 121.248L370.414 120.984C369.314 120.823 368.493 120.5 367.95 120.016C367.422 119.517 367.158 118.85 367.158 118.014C367.158 117.09 367.547 116.327 368.324 115.726C369.101 115.11 370.091 114.802 371.294 114.802C372.086 114.802 372.834 114.919 373.538 115.154C374.257 115.389 374.953 115.755 375.628 116.254L374.77 117.354C374.154 116.943 373.553 116.635 372.966 116.43C372.394 116.225 371.807 116.122 371.206 116.122C370.458 116.122 369.842 116.291 369.358 116.628C368.889 116.965 368.654 117.405 368.654 117.948C368.654 118.417 368.815 118.784 369.138 119.048C369.461 119.297 369.981 119.473 370.7 119.576L372.614 119.84C373.714 119.987 374.535 120.317 375.078 120.83C375.635 121.329 375.914 121.996 375.914 122.832C375.914 123.301 375.797 123.749 375.562 124.174C375.342 124.585 375.027 124.944 374.616 125.252C374.22 125.545 373.751 125.78 373.208 125.956C372.665 126.117 372.079 126.198 371.448 126.198C370.539 126.198 369.681 126.051 368.874 125.758C368.082 125.45 367.393 125.025 366.806 124.482ZM378.56 112.866C378.267 112.866 378.01 112.756 377.79 112.536C377.57 112.316 377.46 112.059 377.46 111.766C377.46 111.458 377.57 111.201 377.79 110.996C378.01 110.776 378.267 110.666 378.56 110.666C378.868 110.666 379.125 110.776 379.33 110.996C379.55 111.201 379.66 111.458 379.66 111.766C379.66 112.059 379.55 112.316 379.33 112.536C379.125 112.756 378.868 112.866 378.56 112.866ZM379.374 114.978V126H377.746V114.978H379.374ZM382.151 126V114.978H383.779V116.276C384.204 115.777 384.71 115.403 385.297 115.154C385.883 114.89 386.536 114.758 387.255 114.758C388.501 114.758 389.521 115.154 390.313 115.946C391.105 116.738 391.501 117.765 391.501 119.026V126H389.895V119.356C389.895 118.388 389.616 117.618 389.059 117.046C388.501 116.474 387.753 116.188 386.815 116.188C386.155 116.188 385.561 116.335 385.033 116.628C384.519 116.921 384.101 117.339 383.779 117.882V126H382.151ZM403.509 124.834C402.893 125.289 402.248 125.633 401.573 125.868C400.913 126.088 400.187 126.198 399.395 126.198C398.603 126.198 397.855 126.051 397.151 125.758C396.462 125.465 395.86 125.061 395.347 124.548C394.848 124.035 394.452 123.433 394.159 122.744C393.866 122.04 393.719 121.285 393.719 120.478C393.719 119.686 393.858 118.945 394.137 118.256C394.43 117.567 394.819 116.965 395.303 116.452C395.787 115.939 396.359 115.535 397.019 115.242C397.694 114.949 398.405 114.802 399.153 114.802C399.886 114.802 400.568 114.949 401.199 115.242C401.844 115.535 402.394 115.939 402.849 116.452C403.318 116.965 403.685 117.567 403.949 118.256C404.228 118.945 404.367 119.686 404.367 120.478V120.984H395.325C395.442 122.069 395.89 122.971 396.667 123.69C397.444 124.409 398.376 124.768 399.461 124.768C400.033 124.768 400.59 124.68 401.133 124.504C401.676 124.328 402.13 124.079 402.497 123.756L403.509 124.834ZM399.109 116.232C398.156 116.232 397.327 116.555 396.623 117.2C395.934 117.845 395.516 118.674 395.369 119.686H402.739C402.592 118.718 402.174 117.904 401.485 117.244C400.81 116.569 400.018 116.232 399.109 116.232Z" fill="#C54B25"/>
    <path d="M263.942 198.433C263.875 198.703 263.748 198.873 263.562 198.94C263.375 199 263.189 198.991 263.003 198.915C262.825 198.839 262.673 198.708 262.546 198.521C262.427 198.335 262.394 198.132 262.444 197.912C262.571 197.337 262.753 196.702 262.99 196.008C263.236 195.305 263.477 194.607 263.714 193.913C263.587 193.718 263.485 193.524 263.409 193.329C263.333 193.126 263.295 192.914 263.295 192.694C263.295 192.474 263.375 192.246 263.536 192.009C263.705 191.763 263.904 191.539 264.133 191.336C264.37 191.133 264.611 190.968 264.856 190.841C265.11 190.705 265.326 190.638 265.504 190.638C265.817 190.638 266.05 190.743 266.202 190.955C266.363 191.167 266.443 191.45 266.443 191.806C266.443 192 266.41 192.195 266.342 192.39C266.283 192.576 266.215 192.754 266.139 192.923C266.062 193.084 265.991 193.223 265.923 193.342C265.864 193.46 265.83 193.536 265.821 193.57C266.126 194.112 266.443 194.59 266.773 195.005C267.104 195.42 267.404 195.83 267.675 196.236C267.954 196.643 268.183 197.074 268.36 197.531C268.538 197.988 268.627 198.526 268.627 199.144C268.627 199.296 268.614 199.452 268.589 199.613C268.572 199.774 268.542 199.926 268.5 200.07C268.805 200.011 269.071 199.918 269.3 199.791C269.537 199.664 269.74 199.52 269.909 199.359C270.087 199.19 270.231 199.008 270.341 198.813C270.459 198.619 270.557 198.416 270.633 198.204C270.726 197.959 270.819 197.781 270.912 197.671C271.005 197.561 271.111 197.506 271.229 197.506C271.34 197.506 271.45 197.544 271.56 197.62C271.678 197.688 271.78 197.777 271.864 197.887C271.957 197.997 272.029 198.111 272.08 198.229C272.139 198.348 272.169 198.454 272.169 198.547C272.169 198.674 272.135 198.826 272.067 199.004C272 199.182 271.907 199.364 271.788 199.55C271.678 199.736 271.551 199.918 271.407 200.096C271.263 200.265 271.115 200.413 270.963 200.54C270.557 200.87 270.078 201.149 269.528 201.378C268.978 201.598 268.297 201.738 267.484 201.797C267.171 202.068 266.799 202.288 266.367 202.457C265.944 202.635 265.466 202.724 264.933 202.724C264.662 202.724 264.382 202.69 264.095 202.622C263.815 202.554 263.545 202.465 263.282 202.355C263.028 202.254 262.796 202.14 262.584 202.013C262.372 201.886 262.203 201.759 262.076 201.632C261.755 201.327 261.547 201.022 261.454 200.718C261.361 200.405 261.34 200.125 261.391 199.88C261.433 199.634 261.522 199.436 261.657 199.283C261.793 199.122 261.932 199.042 262.076 199.042C262.161 199.042 262.292 199.08 262.47 199.156C262.656 199.224 262.868 199.317 263.104 199.436C263.341 199.546 263.6 199.664 263.879 199.791C264.158 199.918 264.438 200.041 264.717 200.159C264.996 200.269 265.267 200.362 265.529 200.438C265.8 200.506 266.046 200.54 266.266 200.54C266.41 200.371 266.541 200.146 266.659 199.867C266.778 199.588 266.837 199.283 266.837 198.953C266.837 198.547 266.782 198.17 266.672 197.823C266.562 197.476 266.418 197.155 266.24 196.858C266.062 196.562 265.859 196.287 265.631 196.033C265.411 195.771 265.187 195.525 264.958 195.297C264.755 195.796 264.577 196.291 264.425 196.782C264.272 197.265 264.112 197.815 263.942 198.433ZM277.92 202.724C277.624 202.724 277.353 202.677 277.107 202.584C276.87 202.491 276.659 202.36 276.473 202.19C276.295 202.03 276.147 201.839 276.028 201.619C275.91 201.391 275.829 201.145 275.787 200.883C275.474 201.433 275.106 201.882 274.683 202.229C274.259 202.576 273.76 202.749 273.185 202.749C272.753 202.749 272.364 202.66 272.017 202.482C271.678 202.305 271.39 202.055 271.153 201.733C270.916 201.403 270.734 201.01 270.607 200.553C270.489 200.087 270.43 199.571 270.43 199.004C270.43 198.318 270.476 197.629 270.569 196.935C270.671 196.241 270.781 195.614 270.899 195.056C271.035 194.404 271.191 193.773 271.369 193.164C271.411 193.054 271.441 192.944 271.458 192.834C271.483 192.715 271.534 192.61 271.61 192.517C271.687 192.424 271.805 192.347 271.966 192.288C272.135 192.229 272.393 192.199 272.74 192.199C273.062 192.199 273.269 192.258 273.362 192.377C273.455 192.487 273.489 192.618 273.464 192.771C273.447 192.923 273.396 193.079 273.312 193.24C273.235 193.401 273.185 193.532 273.159 193.634C273.041 194.116 272.935 194.556 272.842 194.954C272.749 195.352 272.668 195.754 272.601 196.16C272.541 196.558 272.495 196.977 272.461 197.417C272.427 197.849 272.41 198.335 272.41 198.877C272.41 199.588 272.512 200.125 272.715 200.489C272.926 200.853 273.223 201.035 273.604 201.035C273.866 201.035 274.107 200.938 274.327 200.743C274.556 200.549 274.759 200.29 274.937 199.969C275.123 199.639 275.284 199.266 275.419 198.852C275.554 198.428 275.66 197.988 275.736 197.531V193.342C275.736 193.156 275.719 193.007 275.686 192.897C275.66 192.787 275.631 192.703 275.597 192.644C275.571 192.576 275.542 192.525 275.508 192.491C275.482 192.449 275.47 192.402 275.47 192.352C275.47 192.309 275.495 192.271 275.546 192.237C275.597 192.203 275.664 192.174 275.749 192.148C275.834 192.123 275.923 192.106 276.016 192.098C276.117 192.081 276.215 192.072 276.308 192.072C276.739 192.072 277.078 192.187 277.323 192.415C277.577 192.635 277.704 192.902 277.704 193.215V199.816C277.704 199.876 277.708 199.973 277.717 200.108C277.725 200.235 277.751 200.367 277.793 200.502C277.835 200.637 277.903 200.756 277.996 200.857C278.089 200.959 278.22 201.01 278.39 201.01C278.652 201.01 278.876 200.917 279.062 200.73C279.257 200.544 279.422 200.312 279.558 200.032C279.701 199.753 279.816 199.452 279.9 199.131C279.993 198.801 280.07 198.492 280.129 198.204C280.18 197.933 280.264 197.739 280.383 197.62C280.501 197.493 280.624 197.43 280.751 197.43C280.853 197.43 280.958 197.464 281.068 197.531C281.178 197.59 281.276 197.671 281.36 197.772C281.453 197.874 281.525 197.988 281.576 198.115C281.635 198.242 281.665 198.369 281.665 198.496C281.665 198.513 281.665 198.534 281.665 198.56C281.665 198.585 281.657 198.623 281.64 198.674C281.521 199.105 281.365 199.558 281.17 200.032C280.984 200.506 280.743 200.942 280.446 201.34C280.15 201.738 279.795 202.068 279.38 202.33C278.965 202.592 278.479 202.724 277.92 202.724ZM283.15 202.724C282.643 202.724 282.181 202.635 281.767 202.457C281.352 202.279 280.996 202.017 280.7 201.67C280.412 201.314 280.188 200.879 280.027 200.362C279.875 199.838 279.799 199.232 279.799 198.547C279.799 197.548 279.938 196.66 280.218 195.881C280.497 195.094 280.878 194.421 281.36 193.862C281.843 193.295 282.401 192.847 283.036 192.517C283.671 192.178 284.344 191.958 285.055 191.856V185.979C285.055 185.792 285.038 185.644 285.004 185.534C284.979 185.424 284.949 185.34 284.915 185.28C284.89 185.213 284.86 185.162 284.826 185.128C284.801 185.086 284.788 185.043 284.788 185.001C284.788 184.95 284.813 184.908 284.864 184.874C284.915 184.84 284.983 184.811 285.067 184.785C285.152 184.76 285.241 184.743 285.334 184.734C285.436 184.717 285.533 184.709 285.626 184.709C286.058 184.709 286.396 184.823 286.642 185.052C286.896 185.272 287.022 185.538 287.022 185.852V199.816C287.022 199.96 287.039 200.104 287.073 200.248C287.107 200.383 287.158 200.51 287.226 200.629C287.302 200.739 287.395 200.832 287.505 200.908C287.623 200.976 287.759 201.01 287.911 201.01C288.174 201.01 288.398 200.917 288.584 200.73C288.779 200.544 288.944 200.312 289.079 200.032C289.223 199.753 289.337 199.452 289.422 199.131C289.515 198.801 289.591 198.492 289.65 198.204C289.701 197.933 289.786 197.739 289.904 197.62C290.023 197.493 290.146 197.43 290.272 197.43C290.374 197.43 290.48 197.464 290.59 197.531C290.7 197.59 290.797 197.671 290.882 197.772C290.975 197.874 291.047 197.988 291.098 198.115C291.157 198.242 291.187 198.369 291.187 198.496C291.187 198.513 291.187 198.534 291.187 198.56C291.187 198.585 291.178 198.623 291.161 198.674C291.051 199.105 290.899 199.558 290.704 200.032C290.518 200.506 290.272 200.942 289.968 201.34C289.672 201.738 289.316 202.068 288.901 202.33C288.487 202.592 288 202.724 287.441 202.724C286.993 202.724 286.599 202.631 286.261 202.444C285.922 202.258 285.656 202.013 285.461 201.708C285.173 202.004 284.839 202.245 284.458 202.432C284.086 202.626 283.65 202.724 283.15 202.724ZM283.544 201.01C283.882 201.01 284.174 200.912 284.42 200.718C284.674 200.523 284.885 200.282 285.055 199.994V193.57C284.632 193.646 284.221 193.79 283.823 194.002C283.434 194.205 283.087 194.493 282.782 194.865C282.486 195.238 282.249 195.712 282.071 196.287C281.894 196.854 281.805 197.544 281.805 198.356C281.805 198.83 281.851 199.237 281.944 199.575C282.046 199.905 282.173 200.176 282.325 200.388C282.486 200.599 282.672 200.756 282.884 200.857C283.095 200.959 283.315 201.01 283.544 201.01ZM293.916 202.724C293.34 202.724 292.782 202.618 292.24 202.406C291.699 202.195 291.216 201.882 290.793 201.467C290.378 201.052 290.044 200.54 289.79 199.931C289.545 199.321 289.422 198.615 289.422 197.811C289.422 197.066 289.528 196.334 289.739 195.614C289.951 194.895 290.243 194.256 290.615 193.697C290.988 193.13 291.432 192.673 291.948 192.326C292.473 191.979 293.044 191.806 293.662 191.806C294.111 191.806 294.492 191.899 294.805 192.085C295.118 192.263 295.372 192.483 295.566 192.745C295.761 192.999 295.901 193.274 295.985 193.57C296.078 193.867 296.125 194.129 296.125 194.357C296.125 194.527 296.078 194.679 295.985 194.814C295.901 194.95 295.795 195.064 295.668 195.157C295.541 195.25 295.401 195.322 295.249 195.373C295.097 195.415 294.961 195.432 294.843 195.424C294.724 195.415 294.627 195.373 294.551 195.297C294.483 195.221 294.462 195.106 294.487 194.954C294.453 194.844 294.42 194.709 294.386 194.548C294.36 194.387 294.31 194.235 294.233 194.091C294.166 193.938 294.068 193.812 293.941 193.71C293.814 193.6 293.641 193.545 293.421 193.545C293.184 193.545 292.951 193.659 292.723 193.888C292.503 194.108 292.304 194.412 292.126 194.802C291.957 195.191 291.817 195.644 291.707 196.16C291.605 196.676 291.555 197.227 291.555 197.811C291.555 198.327 291.618 198.784 291.745 199.182C291.881 199.579 292.067 199.914 292.304 200.185C292.541 200.455 292.82 200.663 293.142 200.807C293.472 200.942 293.827 201.01 294.208 201.01C294.716 201.01 295.156 200.917 295.528 200.73C295.909 200.536 296.231 200.282 296.493 199.969C296.756 199.656 296.967 199.304 297.128 198.915C297.289 198.526 297.407 198.132 297.483 197.734C297.543 197.447 297.661 197.256 297.839 197.163C298.025 197.062 298.211 197.036 298.397 197.087C298.592 197.138 298.757 197.248 298.893 197.417C299.036 197.578 299.096 197.772 299.07 198.001C299.036 198.263 298.973 198.564 298.88 198.902C298.795 199.241 298.668 199.584 298.499 199.931C298.33 200.278 298.114 200.62 297.852 200.959C297.598 201.289 297.285 201.585 296.912 201.848C296.54 202.11 296.104 202.322 295.604 202.482C295.114 202.643 294.551 202.724 293.916 202.724ZM304.631 202.724C304.335 202.724 304.064 202.677 303.818 202.584C303.581 202.491 303.37 202.36 303.184 202.19C303.006 202.03 302.858 201.839 302.739 201.619C302.621 201.391 302.54 201.145 302.498 200.883C302.185 201.433 301.817 201.882 301.394 202.229C300.97 202.576 300.471 202.749 299.896 202.749C299.464 202.749 299.075 202.66 298.728 202.482C298.389 202.305 298.101 202.055 297.864 201.733C297.627 201.403 297.445 201.01 297.318 200.553C297.2 200.087 297.141 199.571 297.141 199.004C297.141 198.318 297.187 197.629 297.28 196.935C297.382 196.241 297.492 195.614 297.61 195.056C297.746 194.404 297.902 193.773 298.08 193.164C298.122 193.054 298.152 192.944 298.169 192.834C298.194 192.715 298.245 192.61 298.321 192.517C298.397 192.424 298.516 192.347 298.677 192.288C298.846 192.229 299.104 192.199 299.451 192.199C299.773 192.199 299.98 192.258 300.073 192.377C300.166 192.487 300.2 192.618 300.175 192.771C300.158 192.923 300.107 193.079 300.022 193.24C299.946 193.401 299.896 193.532 299.87 193.634C299.752 194.116 299.646 194.556 299.553 194.954C299.46 195.352 299.379 195.754 299.312 196.16C299.252 196.558 299.206 196.977 299.172 197.417C299.138 197.849 299.121 198.335 299.121 198.877C299.121 199.588 299.223 200.125 299.426 200.489C299.637 200.853 299.934 201.035 300.314 201.035C300.577 201.035 300.818 200.938 301.038 200.743C301.267 200.549 301.47 200.29 301.647 199.969C301.834 199.639 301.994 199.266 302.13 198.852C302.265 198.428 302.371 197.988 302.447 197.531V193.342C302.447 193.156 302.43 193.007 302.396 192.897C302.371 192.787 302.341 192.703 302.308 192.644C302.282 192.576 302.253 192.525 302.219 192.491C302.193 192.449 302.181 192.402 302.181 192.352C302.181 192.309 302.206 192.271 302.257 192.237C302.308 192.203 302.375 192.174 302.46 192.148C302.545 192.123 302.633 192.106 302.727 192.098C302.828 192.081 302.925 192.072 303.019 192.072C303.45 192.072 303.789 192.187 304.034 192.415C304.288 192.635 304.415 192.902 304.415 193.215V199.816C304.415 199.876 304.419 199.973 304.428 200.108C304.436 200.235 304.462 200.367 304.504 200.502C304.546 200.637 304.614 200.756 304.707 200.857C304.8 200.959 304.931 201.01 305.101 201.01C305.363 201.01 305.587 200.917 305.773 200.73C305.968 200.544 306.133 200.312 306.269 200.032C306.412 199.753 306.527 199.452 306.611 199.131C306.704 198.801 306.781 198.492 306.84 198.204C306.891 197.933 306.975 197.739 307.094 197.62C307.212 197.493 307.335 197.43 307.462 197.43C307.563 197.43 307.669 197.464 307.779 197.531C307.889 197.59 307.987 197.671 308.071 197.772C308.164 197.874 308.236 197.988 308.287 198.115C308.346 198.242 308.376 198.369 308.376 198.496C308.376 198.513 308.376 198.534 308.376 198.56C308.376 198.585 308.368 198.623 308.351 198.674C308.232 199.105 308.076 199.558 307.881 200.032C307.695 200.506 307.453 200.942 307.157 201.34C306.861 201.738 306.506 202.068 306.091 202.33C305.676 202.592 305.189 202.724 304.631 202.724ZM308.325 189.495C308.114 189.495 307.91 189.453 307.716 189.368C307.53 189.284 307.365 189.169 307.221 189.025C307.085 188.882 306.975 188.716 306.891 188.53C306.806 188.336 306.764 188.128 306.764 187.908C306.764 187.68 306.806 187.468 306.891 187.273C306.975 187.079 307.085 186.914 307.221 186.778C307.365 186.634 307.53 186.524 307.716 186.448C307.91 186.364 308.114 186.321 308.325 186.321C308.554 186.321 308.765 186.364 308.96 186.448C309.155 186.524 309.32 186.634 309.455 186.778C309.599 186.914 309.709 187.079 309.785 187.273C309.87 187.468 309.912 187.68 309.912 187.908C309.912 188.128 309.87 188.336 309.785 188.53C309.709 188.716 309.599 188.882 309.455 189.025C309.32 189.169 309.155 189.284 308.96 189.368C308.765 189.453 308.554 189.495 308.325 189.495ZM308.922 199.816C308.922 199.876 308.926 199.973 308.935 200.108C308.943 200.235 308.968 200.367 309.011 200.502C309.053 200.637 309.121 200.756 309.214 200.857C309.307 200.959 309.438 201.01 309.607 201.01C309.861 201.01 310.081 200.917 310.268 200.73C310.462 200.544 310.627 200.312 310.763 200.032C310.907 199.753 311.025 199.452 311.118 199.131C311.211 198.801 311.287 198.492 311.347 198.204C311.397 197.942 311.474 197.751 311.575 197.633C311.685 197.514 311.799 197.451 311.918 197.442C312.045 197.425 312.168 197.455 312.286 197.531C312.413 197.607 312.523 197.709 312.616 197.836C312.718 197.954 312.79 198.09 312.832 198.242C312.883 198.395 312.891 198.538 312.857 198.674C312.739 199.105 312.582 199.558 312.388 200.032C312.201 200.506 311.96 200.942 311.664 201.34C311.368 201.738 311.012 202.068 310.598 202.33C310.183 202.592 309.696 202.724 309.138 202.724C308.791 202.724 308.482 202.656 308.211 202.521C307.94 202.394 307.712 202.22 307.525 202C307.339 201.78 307.195 201.522 307.094 201.226C307.001 200.929 306.954 200.616 306.954 200.286V193.342C306.954 193.096 306.933 192.919 306.891 192.809C306.857 192.699 306.84 192.597 306.84 192.504C306.84 192.377 306.908 192.275 307.043 192.199C307.178 192.115 307.339 192.072 307.525 192.072C307.957 192.072 308.296 192.187 308.541 192.415C308.795 192.635 308.922 192.902 308.922 193.215V199.816ZM312.921 198.433C312.853 198.703 312.726 198.873 312.54 198.94C312.354 199 312.168 198.991 311.981 198.915C311.804 198.839 311.651 198.708 311.524 198.521C311.406 198.335 311.372 198.132 311.423 197.912C311.55 197.337 311.732 196.702 311.969 196.008C312.214 195.305 312.455 194.607 312.692 193.913C312.565 193.718 312.464 193.524 312.388 193.329C312.312 193.126 312.273 192.914 312.273 192.694C312.273 192.474 312.354 192.246 312.515 192.009C312.684 191.763 312.883 191.539 313.111 191.336C313.348 191.133 313.59 190.968 313.835 190.841C314.089 190.705 314.305 190.638 314.482 190.638C314.796 190.638 315.028 190.743 315.181 190.955C315.341 191.167 315.422 191.45 315.422 191.806C315.422 192 315.388 192.195 315.32 192.39C315.261 192.576 315.193 192.754 315.117 192.923C315.041 193.084 314.969 193.223 314.901 193.342C314.842 193.46 314.808 193.536 314.8 193.57C315.104 194.112 315.422 194.59 315.752 195.005C316.082 195.42 316.382 195.83 316.653 196.236C316.933 196.643 317.161 197.074 317.339 197.531C317.517 197.988 317.605 198.526 317.605 199.144C317.605 199.296 317.593 199.452 317.567 199.613C317.55 199.774 317.521 199.926 317.479 200.07C317.783 200.011 318.05 199.918 318.278 199.791C318.515 199.664 318.718 199.52 318.888 199.359C319.065 199.19 319.209 199.008 319.319 198.813C319.438 198.619 319.535 198.416 319.611 198.204C319.704 197.959 319.798 197.781 319.891 197.671C319.984 197.561 320.09 197.506 320.208 197.506C320.318 197.506 320.428 197.544 320.538 197.62C320.657 197.688 320.758 197.777 320.843 197.887C320.936 197.997 321.008 198.111 321.059 198.229C321.118 198.348 321.147 198.454 321.147 198.547C321.147 198.674 321.114 198.826 321.046 199.004C320.978 199.182 320.885 199.364 320.767 199.55C320.657 199.736 320.53 199.918 320.386 200.096C320.242 200.265 320.094 200.413 319.941 200.54C319.535 200.87 319.057 201.149 318.507 201.378C317.957 201.598 317.275 201.738 316.463 201.797C316.15 202.068 315.777 202.288 315.346 202.457C314.923 202.635 314.444 202.724 313.911 202.724C313.64 202.724 313.361 202.69 313.073 202.622C312.794 202.554 312.523 202.465 312.261 202.355C312.007 202.254 311.774 202.14 311.562 202.013C311.351 201.886 311.182 201.759 311.055 201.632C310.733 201.327 310.526 201.022 310.433 200.718C310.34 200.405 310.318 200.125 310.369 199.88C310.411 199.634 310.5 199.436 310.636 199.283C310.771 199.122 310.911 199.042 311.055 199.042C311.139 199.042 311.271 199.08 311.448 199.156C311.634 199.224 311.846 199.317 312.083 199.436C312.32 199.546 312.578 199.664 312.857 199.791C313.137 199.918 313.416 200.041 313.695 200.159C313.975 200.269 314.245 200.362 314.508 200.438C314.779 200.506 315.024 200.54 315.244 200.54C315.388 200.371 315.519 200.146 315.638 199.867C315.756 199.588 315.815 199.283 315.815 198.953C315.815 198.547 315.76 198.17 315.65 197.823C315.54 197.476 315.396 197.155 315.219 196.858C315.041 196.562 314.838 196.287 314.609 196.033C314.389 195.771 314.165 195.525 313.937 195.297C313.733 195.796 313.556 196.291 313.403 196.782C313.251 197.265 313.09 197.815 312.921 198.433ZM321.122 189.495C320.91 189.495 320.707 189.453 320.513 189.368C320.326 189.284 320.161 189.169 320.018 189.025C319.882 188.882 319.772 188.716 319.688 188.53C319.603 188.336 319.561 188.128 319.561 187.908C319.561 187.68 319.603 187.468 319.688 187.273C319.772 187.079 319.882 186.914 320.018 186.778C320.161 186.634 320.326 186.524 320.513 186.448C320.707 186.364 320.91 186.321 321.122 186.321C321.351 186.321 321.562 186.364 321.757 186.448C321.951 186.524 322.117 186.634 322.252 186.778C322.396 186.914 322.506 187.079 322.582 187.273C322.667 187.468 322.709 187.68 322.709 187.908C322.709 188.128 322.667 188.336 322.582 188.53C322.506 188.716 322.396 188.882 322.252 189.025C322.117 189.169 321.951 189.284 321.757 189.368C321.562 189.453 321.351 189.495 321.122 189.495ZM321.719 199.816C321.719 199.876 321.723 199.973 321.731 200.108C321.74 200.235 321.765 200.367 321.808 200.502C321.85 200.637 321.918 200.756 322.011 200.857C322.104 200.959 322.235 201.01 322.404 201.01C322.658 201.01 322.878 200.917 323.064 200.73C323.259 200.544 323.424 200.312 323.56 200.032C323.703 199.753 323.822 199.452 323.915 199.131C324.008 198.801 324.084 198.492 324.144 198.204C324.194 197.942 324.271 197.751 324.372 197.633C324.482 197.514 324.596 197.451 324.715 197.442C324.842 197.425 324.965 197.455 325.083 197.531C325.21 197.607 325.32 197.709 325.413 197.836C325.515 197.954 325.587 198.09 325.629 198.242C325.68 198.395 325.688 198.538 325.654 198.674C325.536 199.105 325.379 199.558 325.185 200.032C324.998 200.506 324.757 200.942 324.461 201.34C324.165 201.738 323.809 202.068 323.395 202.33C322.98 202.592 322.493 202.724 321.935 202.724C321.588 202.724 321.279 202.656 321.008 202.521C320.737 202.394 320.508 202.22 320.322 202C320.136 201.78 319.992 201.522 319.891 201.226C319.798 200.929 319.751 200.616 319.751 200.286V193.342C319.751 193.096 319.73 192.919 319.688 192.809C319.654 192.699 319.637 192.597 319.637 192.504C319.637 192.377 319.704 192.275 319.84 192.199C319.975 192.115 320.136 192.072 320.322 192.072C320.754 192.072 321.092 192.187 321.338 192.415C321.592 192.635 321.719 192.902 321.719 193.215V199.816ZM324.245 193.342C324.245 193.096 324.224 192.919 324.182 192.809C324.148 192.699 324.131 192.597 324.131 192.504C324.131 192.377 324.199 192.275 324.334 192.199C324.469 192.115 324.63 192.072 324.816 192.072C325.248 192.072 325.587 192.187 325.832 192.415C326.086 192.635 326.213 192.902 326.213 193.215V194.383C326.391 194.019 326.581 193.68 326.784 193.367C326.996 193.054 327.22 192.783 327.457 192.555C327.702 192.318 327.961 192.136 328.231 192.009C328.511 191.873 328.811 191.806 329.133 191.806C329.564 191.806 329.92 191.886 330.199 192.047C330.479 192.208 330.699 192.415 330.859 192.669C331.02 192.923 331.13 193.206 331.189 193.52C331.257 193.833 331.291 194.137 331.291 194.434V199.816C331.291 199.876 331.295 199.973 331.304 200.108C331.312 200.235 331.338 200.367 331.38 200.502C331.422 200.637 331.486 200.756 331.57 200.857C331.663 200.959 331.795 201.01 331.964 201.01C332.226 201.01 332.451 200.917 332.637 200.73C332.831 200.544 332.996 200.312 333.132 200.032C333.276 199.753 333.39 199.452 333.475 199.131C333.568 198.801 333.644 198.492 333.703 198.204C333.754 197.933 333.839 197.739 333.957 197.62C334.076 197.493 334.198 197.43 334.325 197.43C334.427 197.43 334.533 197.464 334.643 197.531C334.753 197.59 334.85 197.671 334.935 197.772C335.028 197.874 335.1 197.988 335.15 198.115C335.21 198.242 335.239 198.369 335.239 198.496C335.239 198.513 335.239 198.534 335.239 198.56C335.239 198.585 335.231 198.623 335.214 198.674C335.104 199.105 334.951 199.558 334.757 200.032C334.571 200.506 334.325 200.942 334.021 201.34C333.724 201.738 333.369 202.068 332.954 202.33C332.539 202.592 332.053 202.724 331.494 202.724C331.147 202.724 330.838 202.656 330.567 202.521C330.305 202.394 330.076 202.22 329.882 202C329.696 201.78 329.552 201.522 329.45 201.226C329.357 200.929 329.311 200.616 329.311 200.286V195.005C329.311 194.802 329.306 194.611 329.298 194.434C329.289 194.256 329.264 194.099 329.222 193.964C329.188 193.828 329.133 193.723 329.057 193.646C328.989 193.562 328.892 193.52 328.765 193.52C328.578 193.52 328.35 193.646 328.079 193.9C327.808 194.154 327.542 194.484 327.279 194.891C327.017 195.297 326.784 195.758 326.581 196.274C326.386 196.782 326.264 197.294 326.213 197.811V201.606C326.213 201.733 326.209 201.865 326.2 202C326.2 202.127 326.175 202.241 326.124 202.343C326.082 202.453 326.01 202.542 325.908 202.609C325.815 202.686 325.675 202.724 325.489 202.724C325.362 202.724 325.223 202.707 325.07 202.673C324.926 202.647 324.791 202.592 324.664 202.508C324.546 202.432 324.444 202.317 324.359 202.165C324.283 202.021 324.245 201.826 324.245 201.581V193.342ZM339.619 194.434C339.619 194.916 339.535 195.411 339.365 195.919C339.204 196.427 338.959 196.909 338.629 197.366C338.307 197.815 337.905 198.221 337.423 198.585C336.949 198.94 336.399 199.211 335.772 199.397C335.857 199.618 335.967 199.829 336.103 200.032C336.246 200.227 336.416 200.396 336.61 200.54C336.805 200.684 337.029 200.798 337.283 200.883C337.546 200.967 337.846 201.01 338.185 201.01C338.692 201.01 339.128 200.917 339.492 200.73C339.856 200.536 340.161 200.282 340.406 199.969C340.66 199.656 340.863 199.304 341.016 198.915C341.168 198.526 341.282 198.132 341.358 197.734C341.418 197.447 341.536 197.256 341.714 197.163C341.9 197.062 342.086 197.036 342.272 197.087C342.467 197.138 342.632 197.248 342.768 197.417C342.911 197.578 342.971 197.772 342.945 198.001C342.911 198.263 342.852 198.564 342.768 198.902C342.691 199.241 342.573 199.584 342.412 199.931C342.251 200.278 342.044 200.62 341.79 200.959C341.545 201.289 341.24 201.585 340.876 201.848C340.512 202.11 340.085 202.322 339.594 202.482C339.103 202.643 338.54 202.724 337.905 202.724C337.313 202.724 336.737 202.605 336.179 202.368C335.629 202.14 335.138 201.81 334.706 201.378C334.283 200.938 333.94 200.4 333.678 199.766C333.424 199.122 333.297 198.395 333.297 197.582C333.297 196.761 333.411 195.999 333.64 195.297C333.868 194.586 334.169 193.972 334.541 193.456C334.913 192.94 335.337 192.538 335.811 192.25C336.285 191.954 336.771 191.806 337.271 191.806C337.634 191.806 337.96 191.869 338.248 191.996C338.544 192.123 338.794 192.305 338.997 192.542C339.2 192.771 339.353 193.046 339.454 193.367C339.564 193.689 339.619 194.044 339.619 194.434ZM335.43 197.506C335.43 197.582 335.434 197.658 335.442 197.734C335.451 197.811 335.455 197.891 335.455 197.976C335.777 197.823 336.069 197.629 336.331 197.392C336.593 197.155 336.818 196.884 337.004 196.579C337.19 196.274 337.334 195.944 337.436 195.589C337.537 195.225 337.588 194.848 337.588 194.459C337.588 194.171 337.537 193.947 337.436 193.786C337.342 193.625 337.211 193.545 337.042 193.545C336.83 193.545 336.64 193.617 336.471 193.761C336.31 193.905 336.166 194.095 336.039 194.332C335.921 194.561 335.819 194.823 335.734 195.119C335.658 195.407 335.595 195.699 335.544 195.995C335.493 196.291 335.459 196.575 335.442 196.846C335.425 197.108 335.421 197.328 335.43 197.506Z" fill="black"/>
    <path d="M254.053 260.636H250.309C250.165 260.636 250.093 260.57 250.093 260.438V260.042C250.093 259.91 250.165 259.844 250.309 259.844H254.053C254.197 259.844 254.269 259.91 254.269 260.042V260.438C254.269 260.57 254.197 260.636 254.053 260.636ZM256.438 263.444V262.796C256.438 262.664 256.504 262.598 256.636 262.598H257.158C257.29 262.598 257.356 262.664 257.356 262.796V263.39C257.356 264.59 257.938 265.19 259.102 265.19H260.974C262.138 265.19 262.72 264.584 262.72 263.372V262.616C262.72 262.088 262.504 261.674 262.072 261.374C261.64 261.074 261.118 260.858 260.506 260.726C259.894 260.594 259.276 260.456 258.652 260.312C258.04 260.168 257.518 259.904 257.086 259.52C256.654 259.136 256.438 258.62 256.438 257.972V256.982C256.438 256.19 256.666 255.566 257.122 255.11C257.578 254.654 258.196 254.426 258.976 254.426H261.064C261.844 254.426 262.462 254.654 262.918 255.11C263.374 255.566 263.602 256.19 263.602 256.982V257.486C263.602 257.618 263.536 257.684 263.404 257.684H262.882C262.75 257.684 262.684 257.618 262.684 257.486V257.036C262.684 255.836 262.102 255.236 260.938 255.236H259.084C257.932 255.236 257.356 255.848 257.356 257.072V257.972C257.356 258.8 258.094 259.358 259.57 259.646C260.182 259.766 260.794 259.904 261.406 260.06C262.03 260.216 262.558 260.498 262.99 260.906C263.422 261.314 263.638 261.866 263.638 262.562V263.444C263.638 264.236 263.41 264.86 262.954 265.316C262.498 265.772 261.88 266 261.1 266H258.976C258.196 266 257.578 265.772 257.122 265.316C256.666 264.86 256.438 264.236 256.438 263.444ZM272.882 254.426H273.386C273.518 254.426 273.584 254.492 273.584 254.624V263.444C273.584 264.236 273.356 264.86 272.9 265.316C272.456 265.772 271.844 266 271.064 266H269.048C268.268 266 267.65 265.772 267.194 265.316C266.75 264.86 266.528 264.236 266.528 263.444V254.642C266.528 254.498 266.588 254.426 266.708 254.426H267.23C267.362 254.426 267.428 254.498 267.428 254.642V263.408C267.428 263.972 267.572 264.41 267.86 264.722C268.148 265.034 268.568 265.19 269.12 265.19H270.974C271.526 265.19 271.946 265.04 272.234 264.74C272.534 264.428 272.684 263.984 272.684 263.408V254.642C272.684 254.498 272.75 254.426 272.882 254.426ZM277.63 265.19H281.086C281.638 265.19 282.058 265.04 282.346 264.74C282.646 264.428 282.796 263.984 282.796 263.408V257.018C282.796 256.442 282.646 256.004 282.346 255.704C282.058 255.392 281.638 255.236 281.086 255.236H277.63C277.51 255.236 277.45 255.29 277.45 255.398V265.028C277.45 265.136 277.51 265.19 277.63 265.19ZM276.55 265.784V254.642C276.55 254.498 276.61 254.426 276.73 254.426H281.176C281.956 254.426 282.568 254.654 283.012 255.11C283.468 255.566 283.696 256.19 283.696 256.982V263.444C283.696 264.236 283.468 264.86 283.012 265.316C282.568 265.772 281.956 266 281.176 266H276.73C276.61 266 276.55 265.928 276.55 265.784ZM295.976 266H293.708C292.928 266 292.31 265.772 291.854 265.316C291.41 264.86 291.188 264.236 291.188 263.444V256.982C291.188 256.19 291.41 255.566 291.854 255.11C292.31 254.654 292.928 254.426 293.708 254.426H295.976C296.756 254.426 297.368 254.654 297.812 255.11C298.268 255.566 298.496 256.19 298.496 256.982V257.864C298.496 258.008 298.43 258.08 298.298 258.08H297.794C297.662 258.08 297.596 258.008 297.596 257.864V257.018C297.596 256.442 297.446 256.004 297.146 255.704C296.858 255.392 296.438 255.236 295.886 255.236H293.78C293.228 255.236 292.808 255.392 292.52 255.704C292.232 256.016 292.088 256.454 292.088 257.018V263.408C292.088 263.972 292.232 264.41 292.52 264.722C292.808 265.034 293.228 265.19 293.78 265.19H295.886C296.438 265.19 296.858 265.04 297.146 264.74C297.446 264.428 297.596 263.984 297.596 263.408V262.562C297.596 262.418 297.662 262.346 297.794 262.346H298.298C298.43 262.346 298.496 262.418 298.496 262.562V263.444C298.496 264.236 298.268 264.86 297.812 265.316C297.368 265.772 296.756 266 295.976 266ZM307.388 254.426H307.892C308.024 254.426 308.09 254.492 308.09 254.624V263.444C308.09 264.236 307.862 264.86 307.406 265.316C306.962 265.772 306.35 266 305.57 266H303.554C302.774 266 302.156 265.772 301.7 265.316C301.256 264.86 301.034 264.236 301.034 263.444V254.642C301.034 254.498 301.094 254.426 301.214 254.426H301.736C301.868 254.426 301.934 254.498 301.934 254.642V263.408C301.934 263.972 302.078 264.41 302.366 264.722C302.654 265.034 303.074 265.19 303.626 265.19H305.48C306.032 265.19 306.452 265.04 306.74 264.74C307.04 264.428 307.19 263.984 307.19 263.408V254.642C307.19 254.498 307.256 254.426 307.388 254.426ZM312.045 254.642V265.784C312.045 265.928 311.979 266 311.847 266H311.325C311.205 266 311.145 265.928 311.145 265.784V254.642C311.145 254.498 311.205 254.426 311.325 254.426H311.847C311.979 254.426 312.045 254.498 312.045 254.642ZM315.132 263.444V262.796C315.132 262.664 315.198 262.598 315.33 262.598H315.852C315.984 262.598 316.05 262.664 316.05 262.796V263.39C316.05 264.59 316.632 265.19 317.796 265.19H319.668C320.832 265.19 321.414 264.584 321.414 263.372V262.616C321.414 262.088 321.198 261.674 320.766 261.374C320.334 261.074 319.812 260.858 319.2 260.726C318.588 260.594 317.97 260.456 317.346 260.312C316.734 260.168 316.212 259.904 315.78 259.52C315.348 259.136 315.132 258.62 315.132 257.972V256.982C315.132 256.19 315.36 255.566 315.816 255.11C316.272 254.654 316.89 254.426 317.67 254.426H319.758C320.538 254.426 321.156 254.654 321.612 255.11C322.068 255.566 322.296 256.19 322.296 256.982V257.486C322.296 257.618 322.23 257.684 322.098 257.684H321.576C321.444 257.684 321.378 257.618 321.378 257.486V257.036C321.378 255.836 320.796 255.236 319.632 255.236H317.778C316.626 255.236 316.05 255.848 316.05 257.072V257.972C316.05 258.8 316.788 259.358 318.264 259.646C318.876 259.766 319.488 259.904 320.1 260.06C320.724 260.216 321.252 260.498 321.684 260.906C322.116 261.314 322.332 261.866 322.332 262.562V263.444C322.332 264.236 322.104 264.86 321.648 265.316C321.192 265.772 320.574 266 319.794 266H317.67C316.89 266 316.272 265.772 315.816 265.316C315.36 264.86 315.132 264.236 315.132 263.444ZM326.301 254.642V265.784C326.301 265.928 326.235 266 326.103 266H325.581C325.461 266 325.401 265.928 325.401 265.784V254.642C325.401 254.498 325.461 254.426 325.581 254.426H326.103C326.235 254.426 326.301 254.498 326.301 254.642ZM330.162 266H329.64C329.52 266 329.46 265.928 329.46 265.784V254.642C329.46 254.498 329.52 254.426 329.64 254.426H330.126C330.234 254.426 330.306 254.462 330.342 254.534L335.868 264.038H335.94V254.642C335.94 254.498 336.006 254.426 336.138 254.426H336.642C336.774 254.426 336.84 254.498 336.84 254.642V265.784C336.84 265.928 336.774 266 336.642 266H336.228C336.12 266 336.024 265.934 335.94 265.802L330.432 256.37H330.36V265.784C330.36 265.928 330.294 266 330.162 266ZM345.626 266H340.064C339.944 266 339.884 265.928 339.884 265.784V254.642C339.884 254.498 339.944 254.426 340.064 254.426H345.626C345.77 254.426 345.842 254.492 345.842 254.624V255.038C345.842 255.17 345.77 255.236 345.626 255.236H340.964C340.844 255.236 340.784 255.29 340.784 255.398V259.538C340.784 259.646 340.844 259.7 340.964 259.7H345.122C345.254 259.7 345.32 259.766 345.32 259.898V260.312C345.32 260.444 345.254 260.51 345.122 260.51H340.964C340.844 260.51 340.784 260.564 340.784 260.672V265.028C340.784 265.136 340.844 265.19 340.964 265.19H345.626C345.77 265.19 345.842 265.256 345.842 265.388V265.802C345.842 265.934 345.77 266 345.626 266ZM351.7 260.636H347.956C347.812 260.636 347.74 260.57 347.74 260.438V260.042C347.74 259.91 347.812 259.844 347.956 259.844H351.7C351.844 259.844 351.916 259.91 351.916 260.042V260.438C351.916 260.57 351.844 260.636 351.7 260.636Z" fill="#4E4444"/>
</svg>

