<svg width="600" height="350" viewBox="0 0 600 350" fill="none" xmlns="http://www.w3.org/2000/svg">
    <path d="M63.2269 43.968V42.6C63.2269 42.184 63.3469 41.656 63.5869 41.016L64.3789 38.76C64.4269 38.632 64.5149 38.568 64.6429 38.568C64.8189 38.568 64.9069 38.664 64.9069 38.856V43.968C64.9069 44.176 64.8029 44.28 64.5949 44.28H63.5389C63.3309 44.28 63.2269 44.176 63.2269 43.968ZM59.5309 43.968V42.6C59.5309 42.264 59.6509 41.736 59.8909 41.016L60.6829 38.76C60.7629 38.632 60.8589 38.568 60.9709 38.568C61.1309 38.568 61.2109 38.664 61.2109 38.856V43.968C61.2109 44.176 61.1069 44.28 60.8989 44.28H59.8669C59.6429 44.28 59.5309 44.176 59.5309 43.968ZM69.5146 54H68.4586C68.2346 54 68.1226 53.888 68.1226 53.664V38.904C68.1226 38.68 68.2346 38.568 68.4586 38.568H69.4426C69.6346 38.568 69.7626 38.632 69.8266 38.76L76.4506 50.4H76.5466V38.904C76.5466 38.68 76.6586 38.568 76.8826 38.568H77.9386C78.1626 38.568 78.2746 38.68 78.2746 38.904V53.664C78.2746 53.888 78.1626 54 77.9386 54H77.0506C76.8746 54 76.7066 53.896 76.5466 53.688L69.9466 42.168H69.8506V53.664C69.8506 53.888 69.7386 54 69.5146 54ZM85.5719 52.464H88.0199C89.3639 52.464 90.0359 51.768 90.0359 50.376V42.192C90.0359 40.8 89.3639 40.104 88.0199 40.104H85.5719C84.2439 40.104 83.5799 40.8 83.5799 42.192V50.376C83.5799 51.768 84.2439 52.464 85.5719 52.464ZM88.2359 54H85.3799C84.2759 54 83.4039 53.688 82.7639 53.064C82.1399 52.44 81.8279 51.568 81.8279 50.448V42.12C81.8279 41 82.1399 40.128 82.7639 39.504C83.4039 38.88 84.2759 38.568 85.3799 38.568H88.2359C89.3399 38.568 90.2039 38.888 90.8279 39.528C91.4679 40.152 91.7879 41.016 91.7879 42.12V50.448C91.7879 51.552 91.4679 52.424 90.8279 53.064C90.2039 53.688 89.3399 54 88.2359 54ZM99.1015 54H98.0215C97.7975 54 97.6855 53.888 97.6855 53.664V40.32C97.6855 40.176 97.6055 40.104 97.4455 40.104H94.1815C93.9415 40.104 93.8215 39.992 93.8215 39.768V38.904C93.8215 38.68 93.9415 38.568 94.1815 38.568H102.942C103.182 38.568 103.302 38.68 103.302 38.904V39.768C103.302 39.992 103.182 40.104 102.942 40.104H99.6775C99.5175 40.104 99.4375 40.176 99.4375 40.32V53.664C99.4375 53.888 99.3255 54 99.1015 54ZM106.992 54H105.912C105.688 54 105.576 53.888 105.576 53.664V38.904C105.576 38.68 105.688 38.568 105.912 38.568H111.432C112.536 38.568 113.408 38.888 114.048 39.528C114.688 40.152 115.008 41.016 115.008 42.12V44.304C115.008 45.2 114.792 45.944 114.36 46.536C113.928 47.112 113.328 47.496 112.56 47.688V47.784L115.344 53.616C115.488 53.872 115.408 54 115.104 54H114.024C113.752 54 113.552 53.888 113.424 53.664L110.736 47.856H107.568C107.408 47.856 107.328 47.928 107.328 48.072V53.664C107.328 53.888 107.216 54 106.992 54ZM107.568 46.392H111.192C112.568 46.392 113.256 45.704 113.256 44.328V42.192C113.256 40.8 112.568 40.104 111.192 40.104H107.568C107.408 40.104 107.328 40.176 107.328 40.32V46.176C107.328 46.32 107.408 46.392 107.568 46.392ZM126.338 54H118.802C118.578 54 118.466 53.888 118.466 53.664V38.904C118.466 38.68 118.578 38.568 118.802 38.568H126.338C126.562 38.568 126.674 38.68 126.674 38.904V39.768C126.674 39.992 126.562 40.104 126.338 40.104H120.458C120.298 40.104 120.218 40.176 120.218 40.32V45.168C120.218 45.312 120.298 45.384 120.458 45.384H125.594C125.818 45.384 125.93 45.496 125.93 45.72V46.584C125.93 46.808 125.818 46.92 125.594 46.92H120.458C120.298 46.92 120.218 46.992 120.218 47.136V52.248C120.218 52.392 120.298 52.464 120.458 52.464H126.338C126.562 52.464 126.674 52.576 126.674 52.8V53.664C126.674 53.888 126.562 54 126.338 54ZM137.483 54H136.427C136.203 54 136.091 53.888 136.091 53.664V38.904C136.091 38.68 136.203 38.568 136.427 38.568H137.411C137.603 38.568 137.731 38.632 137.795 38.76L144.419 50.4H144.515V38.904C144.515 38.68 144.627 38.568 144.851 38.568H145.907C146.131 38.568 146.243 38.68 146.243 38.904V53.664C146.243 53.888 146.131 54 145.907 54H145.019C144.843 54 144.675 53.896 144.515 53.688L137.915 42.168H137.819V53.664C137.819 53.888 137.707 54 137.483 54ZM153.541 52.464H155.989C157.333 52.464 158.005 51.768 158.005 50.376V42.192C158.005 40.8 157.333 40.104 155.989 40.104H153.541C152.213 40.104 151.549 40.8 151.549 42.192V50.376C151.549 51.768 152.213 52.464 153.541 52.464ZM156.205 54H153.349C152.245 54 151.373 53.688 150.733 53.064C150.109 52.44 149.797 51.568 149.797 50.448V42.12C149.797 41 150.109 40.128 150.733 39.504C151.373 38.88 152.245 38.568 153.349 38.568H156.205C157.309 38.568 158.173 38.888 158.797 39.528C159.437 40.152 159.757 41.016 159.757 42.12V50.448C159.757 51.552 159.437 52.424 158.797 53.064C158.173 53.688 157.309 54 156.205 54ZM171.51 38.568H172.59C172.814 38.568 172.926 38.672 172.926 38.88V50.448C172.926 51.568 172.614 52.44 171.99 53.064C171.366 53.688 170.502 54 169.398 54H166.734C165.63 54 164.758 53.688 164.118 53.064C163.494 52.44 163.182 51.568 163.182 50.448V38.904C163.182 38.68 163.294 38.568 163.518 38.568H164.598C164.822 38.568 164.934 38.68 164.934 38.904V50.376C164.934 51.768 165.598 52.464 166.926 52.464H169.182C170.526 52.464 171.198 51.768 171.198 50.376V38.904C171.198 38.68 171.302 38.568 171.51 38.568ZM181.631 54H179.927C179.719 54 179.583 53.888 179.519 53.664L175.271 38.928C175.223 38.688 175.327 38.568 175.583 38.568H176.759C176.967 38.568 177.095 38.68 177.143 38.904L180.719 52.032H180.815L184.391 38.904C184.439 38.68 184.567 38.568 184.775 38.568H185.975C186.215 38.568 186.311 38.688 186.263 38.928L182.015 53.664C181.951 53.888 181.823 54 181.631 54ZM196.604 54H189.068C188.844 54 188.732 53.888 188.732 53.664V38.904C188.732 38.68 188.844 38.568 189.068 38.568H196.604C196.828 38.568 196.94 38.68 196.94 38.904V39.768C196.94 39.992 196.828 40.104 196.604 40.104H190.724C190.564 40.104 190.484 40.176 190.484 40.32V45.168C190.484 45.312 190.564 45.384 190.724 45.384H195.86C196.084 45.384 196.196 45.496 196.196 45.72V46.584C196.196 46.808 196.084 46.92 195.86 46.92H190.724C190.564 46.92 190.484 46.992 190.484 47.136V52.248C190.484 52.392 190.564 52.464 190.724 52.464H196.604C196.828 52.464 196.94 52.576 196.94 52.8V53.664C196.94 53.888 196.828 54 196.604 54ZM208.303 54H200.599C200.375 54 200.263 53.888 200.263 53.664V38.904C200.263 38.68 200.375 38.568 200.599 38.568H201.679C201.903 38.568 202.015 38.68 202.015 38.904V52.2C202.015 52.344 202.095 52.416 202.255 52.416H208.303C208.527 52.416 208.639 52.536 208.639 52.776V53.664C208.639 53.888 208.527 54 208.303 54ZM219.131 54H211.427C211.203 54 211.091 53.888 211.091 53.664V38.904C211.091 38.68 211.203 38.568 211.427 38.568H212.507C212.731 38.568 212.843 38.68 212.843 38.904V52.2C212.843 52.344 212.923 52.416 213.083 52.416H219.131C219.355 52.416 219.467 52.536 219.467 52.776V53.664C219.467 53.888 219.355 54 219.131 54ZM229.791 54H222.255C222.031 54 221.919 53.888 221.919 53.664V38.904C221.919 38.68 222.031 38.568 222.255 38.568H229.791C230.015 38.568 230.127 38.68 230.127 38.904V39.768C230.127 39.992 230.015 40.104 229.791 40.104H223.911C223.751 40.104 223.671 40.176 223.671 40.32V45.168C223.671 45.312 223.751 45.384 223.911 45.384H229.047C229.271 45.384 229.383 45.496 229.383 45.72V46.584C229.383 46.808 229.271 46.92 229.047 46.92H223.911C223.751 46.92 223.671 46.992 223.671 47.136V52.248C223.671 52.392 223.751 52.464 223.911 52.464H229.791C230.015 52.464 230.127 52.576 230.127 52.8V53.664C230.127 53.888 230.015 54 229.791 54ZM245.736 54H242.856C241.752 54 240.88 53.688 240.24 53.064C239.616 52.44 239.304 51.568 239.304 50.448V42.12C239.304 41 239.616 40.128 240.24 39.504C240.88 38.88 241.752 38.568 242.856 38.568H245.736C246.84 38.568 247.704 38.88 248.328 39.504C248.968 40.128 249.288 41 249.288 42.12V43.296C249.288 43.52 249.176 43.632 248.952 43.632H247.872C247.648 43.632 247.536 43.52 247.536 43.296V42.192C247.536 40.8 246.864 40.104 245.52 40.104H243.048C241.72 40.104 241.056 40.8 241.056 42.192V50.376C241.056 51.768 241.72 52.464 243.048 52.464H245.52C246.864 52.464 247.536 51.768 247.536 50.376V49.272C247.536 49.048 247.648 48.936 247.872 48.936H248.952C249.176 48.936 249.288 49.048 249.288 49.272V50.448C249.288 51.568 248.968 52.44 248.328 53.064C247.704 53.688 246.84 54 245.736 54ZM252.721 54H251.521C251.313 54 251.241 53.888 251.305 53.664L255.793 38.904C255.857 38.68 256.009 38.568 256.249 38.568H257.977C258.217 38.568 258.369 38.68 258.433 38.904L262.921 53.664C262.985 53.888 262.913 54 262.705 54H261.481C261.305 54 261.193 53.888 261.145 53.664L260.017 50.16H254.209L253.081 53.664C253.017 53.888 252.897 54 252.721 54ZM257.065 40.368L254.593 48.672H259.633L257.161 40.368H257.065ZM266.882 54H265.826C265.602 54 265.49 53.888 265.49 53.664V38.904C265.49 38.68 265.602 38.568 265.826 38.568H266.81C267.002 38.568 267.13 38.632 267.194 38.76L273.818 50.4H273.914V38.904C273.914 38.68 274.026 38.568 274.25 38.568H275.306C275.53 38.568 275.642 38.68 275.642 38.904V53.664C275.642 53.888 275.53 54 275.306 54H274.418C274.242 54 274.074 53.896 273.914 53.688L267.314 42.168H267.218V53.664C267.218 53.888 267.106 54 266.882 54ZM283.203 54H282.123C281.899 54 281.787 53.888 281.787 53.664V40.32C281.787 40.176 281.707 40.104 281.547 40.104H278.283C278.043 40.104 277.923 39.992 277.923 39.768V38.904C277.923 38.68 278.043 38.568 278.283 38.568H287.043C287.283 38.568 287.403 38.68 287.403 38.904V39.768C287.403 39.992 287.283 40.104 287.043 40.104H283.779C283.619 40.104 283.539 40.176 283.539 40.32V53.664C283.539 53.888 283.427 54 283.203 54ZM291.549 38.904V53.664C291.549 53.888 291.437 54 291.213 54H290.133C289.909 54 289.797 53.888 289.797 53.664V38.904C289.797 38.68 289.909 38.568 290.133 38.568H291.213C291.437 38.568 291.549 38.68 291.549 38.904ZM296.858 54H295.802C295.578 54 295.466 53.888 295.466 53.664V38.904C295.466 38.68 295.578 38.568 295.802 38.568H296.786C296.978 38.568 297.106 38.632 297.17 38.76L303.794 50.4H303.89V38.904C303.89 38.68 304.002 38.568 304.226 38.568H305.282C305.506 38.568 305.618 38.68 305.618 38.904V53.664C305.618 53.888 305.506 54 305.282 54H304.394C304.218 54 304.05 53.896 303.89 53.688L297.29 42.168H297.194V53.664C297.194 53.888 297.082 54 296.858 54ZM317.284 54H309.748C309.524 54 309.412 53.888 309.412 53.664V38.904C309.412 38.68 309.524 38.568 309.748 38.568H317.284C317.508 38.568 317.62 38.68 317.62 38.904V39.768C317.62 39.992 317.508 40.104 317.284 40.104H311.404C311.244 40.104 311.164 40.176 311.164 40.32V45.168C311.164 45.312 311.244 45.384 311.404 45.384H316.54C316.764 45.384 316.876 45.496 316.876 45.72V46.584C316.876 46.808 316.764 46.92 316.54 46.92H311.404C311.244 46.92 311.164 46.992 311.164 47.136V52.248C311.164 52.392 311.244 52.464 311.404 52.464H317.284C317.508 52.464 317.62 52.576 317.62 52.8V53.664C317.62 53.888 317.508 54 317.284 54ZM328.453 54H327.373C327.149 54 327.037 53.888 327.037 53.664V38.904C327.037 38.68 327.149 38.568 327.373 38.568H332.989C334.093 38.568 334.957 38.888 335.581 39.528C336.205 40.152 336.517 41.016 336.517 42.12V44.784C336.517 45.904 336.205 46.776 335.581 47.4C334.957 48.024 334.093 48.336 332.989 48.336H329.029C328.869 48.336 328.789 48.408 328.789 48.552V53.664C328.789 53.888 328.677 54 328.453 54ZM329.029 46.776H332.749C334.093 46.776 334.765 46.088 334.765 44.712V42.192C334.765 40.8 334.093 40.104 332.749 40.104H329.029C328.869 40.104 328.789 40.176 328.789 40.32V46.56C328.789 46.704 328.869 46.776 329.029 46.776ZM341.085 54H340.005C339.781 54 339.669 53.888 339.669 53.664V38.904C339.669 38.68 339.781 38.568 340.005 38.568H345.525C346.629 38.568 347.501 38.888 348.141 39.528C348.781 40.152 349.101 41.016 349.101 42.12V44.304C349.101 45.2 348.885 45.944 348.453 46.536C348.021 47.112 347.421 47.496 346.653 47.688V47.784L349.437 53.616C349.581 53.872 349.501 54 349.197 54H348.117C347.845 54 347.645 53.888 347.517 53.664L344.829 47.856H341.661C341.501 47.856 341.421 47.928 341.421 48.072V53.664C341.421 53.888 341.309 54 341.085 54ZM341.661 46.392H345.285C346.661 46.392 347.349 45.704 347.349 44.328V42.192C347.349 40.8 346.661 40.104 345.285 40.104H341.661C341.501 40.104 341.421 40.176 341.421 40.32V46.176C341.421 46.32 341.501 46.392 341.661 46.392ZM357.792 33.936H359.232C359.344 33.936 359.416 33.968 359.448 34.032C359.48 34.096 359.464 34.176 359.4 34.272L357.288 36.792C357.16 36.952 357.008 37.032 356.832 37.032H356.04C355.816 37.032 355.768 36.92 355.896 36.696L357.264 34.248C357.376 34.04 357.552 33.936 357.792 33.936ZM360.432 54H352.896C352.672 54 352.56 53.888 352.56 53.664V38.904C352.56 38.68 352.672 38.568 352.896 38.568H360.432C360.656 38.568 360.768 38.68 360.768 38.904V39.768C360.768 39.992 360.656 40.104 360.432 40.104H354.552C354.392 40.104 354.312 40.176 354.312 40.32V45.168C354.312 45.312 354.392 45.384 354.552 45.384H359.688C359.912 45.384 360.024 45.496 360.024 45.72V46.584C360.024 46.808 359.912 46.92 359.688 46.92H354.552C354.392 46.92 354.312 46.992 354.312 47.136V52.248C354.312 52.392 354.392 52.464 354.552 52.464H360.432C360.656 52.464 360.768 52.576 360.768 52.8V53.664C360.768 53.888 360.656 54 360.432 54ZM365.507 54H364.427C364.203 54 364.091 53.888 364.091 53.664V38.904C364.091 38.68 364.203 38.568 364.427 38.568H371.891C372.115 38.568 372.227 38.68 372.227 38.904V39.768C372.227 39.992 372.115 40.104 371.891 40.104H366.083C365.923 40.104 365.843 40.176 365.843 40.32V45.552C365.843 45.696 365.923 45.768 366.083 45.768H371.219C371.443 45.768 371.555 45.88 371.555 46.104V46.968C371.555 47.192 371.443 47.304 371.219 47.304H366.083C365.923 47.304 365.843 47.384 365.843 47.544V53.664C365.843 53.888 365.731 54 365.507 54ZM380.292 33.936H381.732C381.844 33.936 381.916 33.968 381.948 34.032C381.98 34.096 381.964 34.176 381.9 34.272L379.788 36.792C379.66 36.952 379.508 37.032 379.332 37.032H378.54C378.316 37.032 378.268 36.92 378.396 36.696L379.764 34.248C379.876 34.04 380.052 33.936 380.292 33.936ZM382.932 54H375.396C375.172 54 375.06 53.888 375.06 53.664V38.904C375.06 38.68 375.172 38.568 375.396 38.568H382.932C383.156 38.568 383.268 38.68 383.268 38.904V39.768C383.268 39.992 383.156 40.104 382.932 40.104H377.052C376.892 40.104 376.812 40.176 376.812 40.32V45.168C376.812 45.312 376.892 45.384 377.052 45.384H382.188C382.412 45.384 382.524 45.496 382.524 45.72V46.584C382.524 46.808 382.412 46.92 382.188 46.92H377.052C376.892 46.92 376.812 46.992 376.812 47.136V52.248C376.812 52.392 376.892 52.464 377.052 52.464H382.932C383.156 52.464 383.268 52.576 383.268 52.8V53.664C383.268 53.888 383.156 54 382.932 54ZM388.007 54H386.927C386.703 54 386.591 53.888 386.591 53.664V38.904C386.591 38.68 386.703 38.568 386.927 38.568H392.447C393.551 38.568 394.423 38.888 395.063 39.528C395.703 40.152 396.023 41.016 396.023 42.12V44.304C396.023 45.2 395.807 45.944 395.375 46.536C394.943 47.112 394.343 47.496 393.575 47.688V47.784L396.359 53.616C396.503 53.872 396.423 54 396.119 54H395.039C394.767 54 394.567 53.888 394.439 53.664L391.751 47.856H388.583C388.423 47.856 388.343 47.928 388.343 48.072V53.664C388.343 53.888 388.231 54 388.007 54ZM388.583 46.392H392.207C393.583 46.392 394.271 45.704 394.271 44.328V42.192C394.271 40.8 393.583 40.104 392.207 40.104H388.583C388.423 40.104 388.343 40.176 388.343 40.32V46.176C388.343 46.32 388.423 46.392 388.583 46.392ZM404.714 33.936H406.154C406.266 33.936 406.338 33.968 406.37 34.032C406.402 34.096 406.386 34.176 406.322 34.272L404.21 36.792C404.082 36.952 403.93 37.032 403.754 37.032H402.962C402.738 37.032 402.69 36.92 402.818 36.696L404.186 34.248C404.298 34.04 404.474 33.936 404.714 33.936ZM407.354 54H399.818C399.594 54 399.482 53.888 399.482 53.664V38.904C399.482 38.68 399.594 38.568 399.818 38.568H407.354C407.578 38.568 407.69 38.68 407.69 38.904V39.768C407.69 39.992 407.578 40.104 407.354 40.104H401.474C401.314 40.104 401.234 40.176 401.234 40.32V45.168C401.234 45.312 401.314 45.384 401.474 45.384H406.61C406.834 45.384 406.946 45.496 406.946 45.72V46.584C406.946 46.808 406.834 46.92 406.61 46.92H401.474C401.314 46.92 401.234 46.992 401.234 47.136V52.248C401.234 52.392 401.314 52.464 401.474 52.464H407.354C407.578 52.464 407.69 52.576 407.69 52.8V53.664C407.69 53.888 407.578 54 407.354 54ZM418.885 54H411.349C411.125 54 411.013 53.888 411.013 53.664V38.904C411.013 38.68 411.125 38.568 411.349 38.568H418.885C419.109 38.568 419.221 38.68 419.221 38.904V39.768C419.221 39.992 419.109 40.104 418.885 40.104H413.005C412.845 40.104 412.765 40.176 412.765 40.32V45.168C412.765 45.312 412.845 45.384 413.005 45.384H418.141C418.365 45.384 418.477 45.496 418.477 45.72V46.584C418.477 46.808 418.365 46.92 418.141 46.92H413.005C412.845 46.92 412.765 46.992 412.765 47.136V52.248C412.765 52.392 412.845 52.464 413.005 52.464H418.885C419.109 52.464 419.221 52.576 419.221 52.8V53.664C419.221 53.888 419.109 54 418.885 54ZM432.142 52.464H434.59C435.934 52.464 436.606 51.768 436.606 50.376V42.192C436.606 40.8 435.934 40.104 434.59 40.104H432.142C430.814 40.104 430.15 40.8 430.15 42.192V50.376C430.15 51.768 430.814 52.464 432.142 52.464ZM434.806 54H431.95C430.846 54 429.974 53.688 429.334 53.064C428.71 52.44 428.398 51.568 428.398 50.448V42.12C428.398 41 428.71 40.128 429.334 39.504C429.974 38.88 430.846 38.568 431.95 38.568H434.806C435.91 38.568 436.774 38.888 437.398 39.528C438.038 40.152 438.358 41.016 438.358 42.12V50.448C438.358 51.552 438.038 52.424 437.398 53.064C436.774 53.688 435.91 54 434.806 54ZM450.112 38.568H451.192C451.416 38.568 451.528 38.672 451.528 38.88V50.448C451.528 51.568 451.216 52.44 450.592 53.064C449.968 53.688 449.104 54 448 54H445.336C444.232 54 443.36 53.688 442.72 53.064C442.096 52.44 441.784 51.568 441.784 50.448V38.904C441.784 38.68 441.896 38.568 442.12 38.568H443.2C443.424 38.568 443.536 38.68 443.536 38.904V50.376C443.536 51.768 444.2 52.464 445.528 52.464H447.784C449.128 52.464 449.8 51.768 449.8 50.376V38.904C449.8 38.68 449.904 38.568 450.112 38.568ZM469.327 54H461.623C461.399 54 461.287 53.888 461.287 53.664V38.904C461.287 38.68 461.399 38.568 461.623 38.568H462.703C462.927 38.568 463.039 38.68 463.039 38.904V52.2C463.039 52.344 463.119 52.416 463.279 52.416H469.327C469.551 52.416 469.663 52.536 469.663 52.776V53.664C469.663 53.888 469.551 54 469.327 54ZM472.307 54H471.107C470.899 54 470.827 53.888 470.891 53.664L475.379 38.904C475.443 38.68 475.595 38.568 475.835 38.568H477.563C477.803 38.568 477.955 38.68 478.019 38.904L482.507 53.664C482.571 53.888 482.499 54 482.291 54H481.067C480.891 54 480.779 53.888 480.731 53.664L479.603 50.16H473.795L472.667 53.664C472.603 53.888 472.483 54 472.307 54ZM476.651 40.368L474.179 48.672H479.219L476.747 40.368H476.651ZM497.361 54H494.481C493.377 54 492.505 53.688 491.865 53.064C491.241 52.44 490.929 51.568 490.929 50.448V42.12C490.929 41 491.241 40.128 491.865 39.504C492.505 38.88 493.377 38.568 494.481 38.568H497.361C498.465 38.568 499.329 38.88 499.953 39.504C500.593 40.128 500.913 41 500.913 42.12V43.296C500.913 43.52 500.801 43.632 500.577 43.632H499.497C499.273 43.632 499.161 43.52 499.161 43.296V42.192C499.161 40.8 498.489 40.104 497.145 40.104H494.673C493.345 40.104 492.681 40.8 492.681 42.192V50.376C492.681 51.768 493.345 52.464 494.673 52.464H497.145C498.489 52.464 499.161 51.768 499.161 50.376V49.272C499.161 49.048 499.273 48.936 499.497 48.936H500.577C500.801 48.936 500.913 49.048 500.913 49.272V50.448C500.913 51.568 500.593 52.44 499.953 53.064C499.329 53.688 498.465 54 497.361 54ZM504.346 54H503.146C502.938 54 502.866 53.888 502.93 53.664L507.418 38.904C507.482 38.68 507.634 38.568 507.874 38.568H509.602C509.842 38.568 509.994 38.68 510.058 38.904L514.546 53.664C514.61 53.888 514.538 54 514.33 54H513.106C512.93 54 512.818 53.888 512.77 53.664L511.642 50.16H505.834L504.706 53.664C504.642 53.888 504.522 54 504.346 54ZM508.69 40.368L506.218 48.672H511.258L508.786 40.368H508.69ZM518.531 54H517.451C517.227 54 517.115 53.888 517.115 53.664V38.904C517.115 38.68 517.227 38.568 517.451 38.568H522.971C524.075 38.568 524.947 38.888 525.587 39.528C526.227 40.152 526.547 41.016 526.547 42.12V44.304C526.547 45.2 526.331 45.944 525.899 46.536C525.467 47.112 524.867 47.496 524.099 47.688V47.784L526.883 53.616C527.027 53.872 526.947 54 526.643 54H525.563C525.291 54 525.091 53.888 524.963 53.664L522.275 47.856H519.107C518.947 47.856 518.867 47.928 518.867 48.072V53.664C518.867 53.888 518.755 54 518.531 54ZM519.107 46.392H522.731C524.107 46.392 524.795 45.704 524.795 44.328V42.192C524.795 40.8 524.107 40.104 522.731 40.104H519.107C518.947 40.104 518.867 40.176 518.867 40.32V46.176C518.867 46.32 518.947 46.392 519.107 46.392ZM533.773 54H532.693C532.469 54 532.357 53.888 532.357 53.664V40.32C532.357 40.176 532.277 40.104 532.117 40.104H528.853C528.613 40.104 528.493 39.992 528.493 39.768V38.904C528.493 38.68 528.613 38.568 528.853 38.568H537.613C537.853 38.568 537.973 38.68 537.973 38.904V39.768C537.973 39.992 537.853 40.104 537.613 40.104H534.349C534.189 40.104 534.109 40.176 534.109 40.32V53.664C534.109 53.888 533.997 54 533.773 54ZM548.12 54H540.584C540.36 54 540.248 53.888 540.248 53.664V38.904C540.248 38.68 540.36 38.568 540.584 38.568H548.12C548.344 38.568 548.456 38.68 548.456 38.904V39.768C548.456 39.992 548.344 40.104 548.12 40.104H542.24C542.08 40.104 542 40.176 542 40.32V45.168C542 45.312 542.08 45.384 542.24 45.384H547.376C547.6 45.384 547.712 45.496 547.712 45.72V46.584C547.712 46.808 547.6 46.92 547.376 46.92H542.24C542.08 46.92 542 46.992 542 47.136V52.248C542 52.392 542.08 52.464 542.24 52.464H548.12C548.344 52.464 548.456 52.576 548.456 52.8V53.664C548.456 53.888 548.344 54 548.12 54ZM152.271 86.448V85.68C152.271 85.456 152.383 85.344 152.607 85.344H153.687C153.911 85.344 154.023 85.456 154.023 85.68V86.304C154.023 87.744 154.735 88.464 156.159 88.464H158.271C159.695 88.464 160.407 87.728 160.407 86.256V85.44C160.407 84.288 159.455 83.536 157.551 83.184C156.751 83.04 155.951 82.872 155.151 82.68C154.351 82.488 153.671 82.12 153.111 81.576C152.551 81.016 152.271 80.256 152.271 79.296V78.12C152.271 77.016 152.583 76.152 153.207 75.528C153.847 74.888 154.719 74.568 155.823 74.568H158.487C159.575 74.568 160.439 74.888 161.079 75.528C161.719 76.152 162.039 77.016 162.039 78.12V78.72C162.039 78.96 161.935 79.08 161.727 79.08H160.623C160.415 79.08 160.311 78.96 160.311 78.72V78.288C160.311 76.832 159.599 76.104 158.175 76.104H156.135C154.711 76.104 153.999 76.864 153.999 78.384V79.344C153.999 80.16 154.535 80.72 155.607 81.024C156.087 81.152 156.615 81.272 157.191 81.384C157.767 81.48 158.343 81.616 158.919 81.792C159.511 81.952 160.047 82.16 160.527 82.416C161.007 82.656 161.391 83.032 161.679 83.544C161.983 84.04 162.135 84.648 162.135 85.368V86.448C162.135 87.552 161.815 88.424 161.175 89.064C160.535 89.688 159.671 90 158.583 90H155.823C154.735 90 153.871 89.688 153.231 89.064C152.591 88.424 152.271 87.552 152.271 86.448ZM173.623 90H166.087C165.863 90 165.751 89.888 165.751 89.664V74.904C165.751 74.68 165.863 74.568 166.087 74.568H173.623C173.847 74.568 173.959 74.68 173.959 74.904V75.768C173.959 75.992 173.847 76.104 173.623 76.104H167.743C167.583 76.104 167.503 76.176 167.503 76.32V81.168C167.503 81.312 167.583 81.384 167.743 81.384H172.879C173.103 81.384 173.215 81.496 173.215 81.72V82.584C173.215 82.808 173.103 82.92 172.879 82.92H167.743C167.583 82.92 167.503 82.992 167.503 83.136V88.248C167.503 88.392 167.583 88.464 167.743 88.464H173.623C173.847 88.464 173.959 88.576 173.959 88.8V89.664C173.959 89.888 173.847 90 173.623 90ZM184.792 90H183.712C183.488 90 183.376 89.888 183.376 89.664V74.904C183.376 74.68 183.488 74.568 183.712 74.568H189.232C190.336 74.568 191.208 74.888 191.848 75.528C192.488 76.152 192.808 77.016 192.808 78.12V80.304C192.808 81.2 192.592 81.944 192.16 82.536C191.728 83.112 191.128 83.496 190.36 83.688V83.784L193.144 89.616C193.288 89.872 193.208 90 192.904 90H191.824C191.552 90 191.352 89.888 191.224 89.664L188.536 83.856H185.368C185.208 83.856 185.128 83.928 185.128 84.072V89.664C185.128 89.888 185.016 90 184.792 90ZM185.368 82.392H188.992C190.368 82.392 191.056 81.704 191.056 80.328V78.192C191.056 76.8 190.368 76.104 188.992 76.104H185.368C185.208 76.104 185.128 76.176 185.128 76.32V82.176C185.128 82.32 185.208 82.392 185.368 82.392ZM204.139 90H196.603C196.379 90 196.267 89.888 196.267 89.664V74.904C196.267 74.68 196.379 74.568 196.603 74.568H204.139C204.363 74.568 204.475 74.68 204.475 74.904V75.768C204.475 75.992 204.363 76.104 204.139 76.104H198.259C198.099 76.104 198.019 76.176 198.019 76.32V81.168C198.019 81.312 198.099 81.384 198.259 81.384H203.395C203.619 81.384 203.731 81.496 203.731 81.72V82.584C203.731 82.808 203.619 82.92 203.395 82.92H198.259C198.099 82.92 198.019 82.992 198.019 83.136V88.248C198.019 88.392 198.099 88.464 198.259 88.464H204.139C204.363 88.464 204.475 88.576 204.475 88.8V89.664C204.475 89.888 204.363 90 204.139 90ZM209.19 90H208.134C207.91 90 207.798 89.888 207.798 89.664V74.904C207.798 74.68 207.91 74.568 208.134 74.568H209.118C209.31 74.568 209.438 74.632 209.502 74.76L216.126 86.4H216.222V74.904C216.222 74.68 216.334 74.568 216.558 74.568H217.614C217.838 74.568 217.95 74.68 217.95 74.904V89.664C217.95 89.888 217.838 90 217.614 90H216.726C216.55 90 216.382 89.896 216.222 89.688L209.622 78.168H209.526V89.664C209.526 89.888 209.414 90 209.19 90ZM225.248 88.464H227.696C229.04 88.464 229.712 87.768 229.712 86.376V78.192C229.712 76.8 229.04 76.104 227.696 76.104H225.248C223.92 76.104 223.256 76.8 223.256 78.192V86.376C223.256 87.768 223.92 88.464 225.248 88.464ZM227.912 90H225.056C223.952 90 223.08 89.688 222.44 89.064C221.816 88.44 221.504 87.568 221.504 86.448V78.12C221.504 77 221.816 76.128 222.44 75.504C223.08 74.88 223.952 74.568 225.056 74.568H227.912C229.016 74.568 229.88 74.888 230.504 75.528C231.144 76.152 231.464 77.016 231.464 78.12V86.448C231.464 87.552 231.144 88.424 230.504 89.064C229.88 89.688 229.016 90 227.912 90ZM243.217 74.568H244.297C244.521 74.568 244.633 74.672 244.633 74.88V86.448C244.633 87.568 244.321 88.44 243.697 89.064C243.073 89.688 242.209 90 241.105 90H238.441C237.337 90 236.465 89.688 235.825 89.064C235.201 88.44 234.889 87.568 234.889 86.448V74.904C234.889 74.68 235.001 74.568 235.225 74.568H236.305C236.529 74.568 236.641 74.68 236.641 74.904V86.376C236.641 87.768 237.305 88.464 238.633 88.464H240.889C242.233 88.464 242.905 87.768 242.905 86.376V74.904C242.905 74.68 243.009 74.568 243.217 74.568ZM253.338 90H251.634C251.426 90 251.29 89.888 251.226 89.664L246.978 74.928C246.93 74.688 247.034 74.568 247.29 74.568H248.466C248.674 74.568 248.802 74.68 248.85 74.904L252.426 88.032H252.522L256.098 74.904C256.146 74.68 256.274 74.568 256.482 74.568H257.682C257.922 74.568 258.018 74.688 257.97 74.928L253.722 89.664C253.658 89.888 253.53 90 253.338 90ZM268.311 90H260.775C260.551 90 260.439 89.888 260.439 89.664V74.904C260.439 74.68 260.551 74.568 260.775 74.568H268.311C268.535 74.568 268.647 74.68 268.647 74.904V75.768C268.647 75.992 268.535 76.104 268.311 76.104H262.431C262.271 76.104 262.191 76.176 262.191 76.32V81.168C262.191 81.312 262.271 81.384 262.431 81.384H267.567C267.791 81.384 267.903 81.496 267.903 81.72V82.584C267.903 82.808 267.791 82.92 267.567 82.92H262.431C262.271 82.92 262.191 82.992 262.191 83.136V88.248C262.191 88.392 262.271 88.464 262.431 88.464H268.311C268.535 88.464 268.647 88.576 268.647 88.8V89.664C268.647 89.888 268.535 90 268.311 90ZM280.01 90H272.306C272.082 90 271.97 89.888 271.97 89.664V74.904C271.97 74.68 272.082 74.568 272.306 74.568H273.386C273.61 74.568 273.722 74.68 273.722 74.904V88.2C273.722 88.344 273.802 88.416 273.962 88.416H280.01C280.234 88.416 280.346 88.536 280.346 88.776V89.664C280.346 89.888 280.234 90 280.01 90ZM290.838 90H283.134C282.91 90 282.798 89.888 282.798 89.664V74.904C282.798 74.68 282.91 74.568 283.134 74.568H284.214C284.438 74.568 284.55 74.68 284.55 74.904V88.2C284.55 88.344 284.63 88.416 284.79 88.416H290.838C291.062 88.416 291.174 88.536 291.174 88.776V89.664C291.174 89.888 291.062 90 290.838 90ZM301.498 90H293.962C293.738 90 293.626 89.888 293.626 89.664V74.904C293.626 74.68 293.738 74.568 293.962 74.568H301.498C301.722 74.568 301.834 74.68 301.834 74.904V75.768C301.834 75.992 301.722 76.104 301.498 76.104H295.618C295.458 76.104 295.378 76.176 295.378 76.32V81.168C295.378 81.312 295.458 81.384 295.618 81.384H300.754C300.978 81.384 301.09 81.496 301.09 81.72V82.584C301.09 82.808 300.978 82.92 300.754 82.92H295.618C295.458 82.92 295.378 82.992 295.378 83.136V88.248C295.378 88.392 295.458 88.464 295.618 88.464H301.498C301.722 88.464 301.834 88.576 301.834 88.8V89.664C301.834 89.888 301.722 90 301.498 90ZM311.083 86.448V85.68C311.083 85.456 311.195 85.344 311.419 85.344H312.499C312.723 85.344 312.835 85.456 312.835 85.68V86.304C312.835 87.744 313.547 88.464 314.971 88.464H317.083C318.507 88.464 319.219 87.728 319.219 86.256V85.44C319.219 84.288 318.267 83.536 316.363 83.184C315.563 83.04 314.763 82.872 313.963 82.68C313.163 82.488 312.483 82.12 311.923 81.576C311.363 81.016 311.083 80.256 311.083 79.296V78.12C311.083 77.016 311.395 76.152 312.019 75.528C312.659 74.888 313.531 74.568 314.635 74.568H317.299C318.387 74.568 319.251 74.888 319.891 75.528C320.531 76.152 320.851 77.016 320.851 78.12V78.72C320.851 78.96 320.747 79.08 320.539 79.08H319.435C319.227 79.08 319.123 78.96 319.123 78.72V78.288C319.123 76.832 318.411 76.104 316.987 76.104H314.947C313.523 76.104 312.811 76.864 312.811 78.384V79.344C312.811 80.16 313.347 80.72 314.419 81.024C314.899 81.152 315.427 81.272 316.003 81.384C316.579 81.48 317.155 81.616 317.731 81.792C318.323 81.952 318.859 82.16 319.339 82.416C319.819 82.656 320.203 83.032 320.491 83.544C320.795 84.04 320.947 84.648 320.947 85.368V86.448C320.947 87.552 320.627 88.424 319.987 89.064C319.347 89.688 318.483 90 317.395 90H314.635C313.547 90 312.683 89.688 312.043 89.064C311.403 88.424 311.083 87.552 311.083 86.448ZM324.756 90H323.556C323.348 90 323.276 89.888 323.34 89.664L327.828 74.904C327.892 74.68 328.044 74.568 328.284 74.568H330.012C330.252 74.568 330.404 74.68 330.468 74.904L334.956 89.664C335.02 89.888 334.948 90 334.74 90H333.516C333.34 90 333.228 89.888 333.18 89.664L332.052 86.16H326.244L325.116 89.664C325.052 89.888 324.932 90 324.756 90ZM329.1 76.368L326.628 84.672H331.668L329.196 76.368H329.1ZM338.917 90H337.861C337.637 90 337.525 89.888 337.525 89.664V74.904C337.525 74.68 337.637 74.568 337.861 74.568H338.845C339.037 74.568 339.165 74.632 339.229 74.76L345.853 86.4H345.949V74.904C345.949 74.68 346.061 74.568 346.285 74.568H347.341C347.565 74.568 347.677 74.68 347.677 74.904V89.664C347.677 89.888 347.565 90 347.341 90H346.453C346.277 90 346.109 89.896 345.949 89.688L339.349 78.168H339.253V89.664C339.253 89.888 339.141 90 338.917 90ZM351.302 86.448V85.68C351.302 85.456 351.414 85.344 351.638 85.344H352.718C352.942 85.344 353.054 85.456 353.054 85.68V86.304C353.054 87.744 353.766 88.464 355.19 88.464H357.302C358.726 88.464 359.438 87.728 359.438 86.256V85.44C359.438 84.288 358.486 83.536 356.582 83.184C355.782 83.04 354.982 82.872 354.182 82.68C353.382 82.488 352.702 82.12 352.142 81.576C351.582 81.016 351.302 80.256 351.302 79.296V78.12C351.302 77.016 351.614 76.152 352.238 75.528C352.878 74.888 353.75 74.568 354.854 74.568H357.518C358.606 74.568 359.47 74.888 360.11 75.528C360.75 76.152 361.07 77.016 361.07 78.12V78.72C361.07 78.96 360.966 79.08 360.758 79.08H359.654C359.446 79.08 359.342 78.96 359.342 78.72V78.288C359.342 76.832 358.63 76.104 357.206 76.104H355.166C353.742 76.104 353.03 76.864 353.03 78.384V79.344C353.03 80.16 353.566 80.72 354.638 81.024C355.118 81.152 355.646 81.272 356.222 81.384C356.798 81.48 357.374 81.616 357.95 81.792C358.542 81.952 359.078 82.16 359.558 82.416C360.038 82.656 360.422 83.032 360.71 83.544C361.014 84.04 361.166 84.648 361.166 85.368V86.448C361.166 87.552 360.846 88.424 360.206 89.064C359.566 89.688 358.702 90 357.614 90H354.854C353.766 90 352.902 89.688 352.262 89.064C351.622 88.424 351.302 87.552 351.302 86.448ZM377.068 90H374.188C373.084 90 372.212 89.688 371.572 89.064C370.948 88.44 370.636 87.568 370.636 86.448V78.12C370.636 77 370.948 76.128 371.572 75.504C372.212 74.88 373.084 74.568 374.188 74.568H377.068C378.172 74.568 379.036 74.88 379.66 75.504C380.3 76.128 380.62 77 380.62 78.12V79.296C380.62 79.52 380.508 79.632 380.284 79.632H379.204C378.98 79.632 378.868 79.52 378.868 79.296V78.192C378.868 76.8 378.196 76.104 376.852 76.104H374.38C373.052 76.104 372.388 76.8 372.388 78.192V86.376C372.388 87.768 373.052 88.464 374.38 88.464H376.852C378.196 88.464 378.868 87.768 378.868 86.376V85.272C378.868 85.048 378.98 84.936 379.204 84.936H380.284C380.508 84.936 380.62 85.048 380.62 85.272V86.448C380.62 87.568 380.3 88.44 379.66 89.064C379.036 89.688 378.172 90 377.068 90ZM391.733 90H384.197C383.973 90 383.861 89.888 383.861 89.664V74.904C383.861 74.68 383.973 74.568 384.197 74.568H391.733C391.957 74.568 392.069 74.68 392.069 74.904V75.768C392.069 75.992 391.957 76.104 391.733 76.104H385.853C385.693 76.104 385.613 76.176 385.613 76.32V81.168C385.613 81.312 385.693 81.384 385.853 81.384H390.989C391.213 81.384 391.325 81.496 391.325 81.72V82.584C391.325 82.808 391.213 82.92 390.989 82.92H385.853C385.693 82.92 385.613 82.992 385.613 83.136V88.248C385.613 88.392 385.693 88.464 385.853 88.464H391.733C391.957 88.464 392.069 88.576 392.069 88.8V89.664C392.069 89.888 391.957 90 391.733 90ZM395.224 86.448V85.68C395.224 85.456 395.336 85.344 395.56 85.344H396.64C396.864 85.344 396.976 85.456 396.976 85.68V86.304C396.976 87.744 397.688 88.464 399.112 88.464H401.224C402.648 88.464 403.36 87.728 403.36 86.256V85.44C403.36 84.288 402.408 83.536 400.504 83.184C399.704 83.04 398.904 82.872 398.104 82.68C397.304 82.488 396.624 82.12 396.064 81.576C395.504 81.016 395.224 80.256 395.224 79.296V78.12C395.224 77.016 395.536 76.152 396.16 75.528C396.8 74.888 397.672 74.568 398.776 74.568H401.44C402.528 74.568 403.392 74.888 404.032 75.528C404.672 76.152 404.992 77.016 404.992 78.12V78.72C404.992 78.96 404.888 79.08 404.68 79.08H403.576C403.368 79.08 403.264 78.96 403.264 78.72V78.288C403.264 76.832 402.552 76.104 401.128 76.104H399.088C397.664 76.104 396.952 76.864 396.952 78.384V79.344C396.952 80.16 397.488 80.72 398.56 81.024C399.04 81.152 399.568 81.272 400.144 81.384C400.72 81.48 401.296 81.616 401.872 81.792C402.464 81.952 403 82.16 403.48 82.416C403.96 82.656 404.344 83.032 404.632 83.544C404.936 84.04 405.088 84.648 405.088 85.368V86.448C405.088 87.552 404.768 88.424 404.128 89.064C403.488 89.688 402.624 90 401.536 90H398.776C397.688 90 396.824 89.688 396.184 89.064C395.544 88.424 395.224 87.552 395.224 86.448ZM408.537 86.448V85.68C408.537 85.456 408.649 85.344 408.873 85.344H409.953C410.177 85.344 410.289 85.456 410.289 85.68V86.304C410.289 87.744 411.001 88.464 412.425 88.464H414.537C415.961 88.464 416.673 87.728 416.673 86.256V85.44C416.673 84.288 415.721 83.536 413.817 83.184C413.017 83.04 412.217 82.872 411.417 82.68C410.617 82.488 409.937 82.12 409.377 81.576C408.817 81.016 408.537 80.256 408.537 79.296V78.12C408.537 77.016 408.849 76.152 409.473 75.528C410.113 74.888 410.985 74.568 412.089 74.568H414.753C415.841 74.568 416.705 74.888 417.345 75.528C417.985 76.152 418.305 77.016 418.305 78.12V78.72C418.305 78.96 418.201 79.08 417.993 79.08H416.889C416.681 79.08 416.577 78.96 416.577 78.72V78.288C416.577 76.832 415.865 76.104 414.441 76.104H412.401C410.977 76.104 410.265 76.864 410.265 78.384V79.344C410.265 80.16 410.801 80.72 411.873 81.024C412.353 81.152 412.881 81.272 413.457 81.384C414.033 81.48 414.609 81.616 415.185 81.792C415.777 81.952 416.313 82.16 416.793 82.416C417.273 82.656 417.657 83.032 417.945 83.544C418.249 84.04 418.401 84.648 418.401 85.368V86.448C418.401 87.552 418.081 88.424 417.441 89.064C416.801 89.688 415.937 90 414.849 90H412.089C411.001 90 410.137 89.688 409.497 89.064C408.857 88.424 408.537 87.552 408.537 86.448ZM429.889 90H422.353C422.129 90 422.017 89.888 422.017 89.664V74.904C422.017 74.68 422.129 74.568 422.353 74.568H429.889C430.113 74.568 430.225 74.68 430.225 74.904V75.768C430.225 75.992 430.113 76.104 429.889 76.104H424.009C423.849 76.104 423.769 76.176 423.769 76.32V81.168C423.769 81.312 423.849 81.384 424.009 81.384H429.145C429.369 81.384 429.481 81.496 429.481 81.72V82.584C429.481 82.808 429.369 82.92 429.145 82.92H424.009C423.849 82.92 423.769 82.992 423.769 83.136V88.248C423.769 88.392 423.849 88.464 424.009 88.464H429.889C430.113 88.464 430.225 88.576 430.225 88.8V89.664C430.225 89.888 430.113 90 429.889 90ZM439.618 77.688V74.904C439.618 74.68 439.73 74.568 439.954 74.568H441.226C441.45 74.568 441.562 74.68 441.562 74.904V77.688C441.562 79.208 441.514 80.688 441.418 82.128C441.322 83.568 441.258 84.384 441.226 84.576C441.194 84.768 441.09 84.864 440.914 84.864H440.266C440.058 84.864 439.946 84.744 439.93 84.504C439.866 83.88 439.794 82.784 439.714 81.216C439.65 79.648 439.618 78.472 439.618 77.688ZM441.514 86.76V89.664C441.514 89.888 441.402 90 441.178 90H440.026C439.818 90 439.714 89.88 439.714 89.64V86.76C439.714 86.552 439.818 86.448 440.026 86.448H441.178C441.402 86.448 441.514 86.552 441.514 86.76ZM446.441 74.88V76.272C446.441 76.64 446.329 77.16 446.105 77.832L445.289 80.112C445.241 80.224 445.153 80.28 445.025 80.28C444.849 80.28 444.761 80.184 444.761 79.992V74.904C444.761 74.68 444.873 74.568 445.097 74.568H446.129C446.337 74.568 446.441 74.672 446.441 74.88ZM450.137 74.88V76.272C450.137 76.672 450.017 77.192 449.777 77.832L448.985 80.112C448.937 80.224 448.833 80.28 448.673 80.28C448.529 80.28 448.457 80.184 448.457 79.992V74.904C448.457 74.68 448.561 74.568 448.769 74.568H449.825C450.033 74.568 450.137 74.672 450.137 74.88Z" fill="#686666"/>
    <path d="M200.166 113.4H204.198C205.242 113.4 206.166 113.652 206.97 114.156C207.786 114.66 208.422 115.386 208.878 116.334C209.334 117.282 209.562 118.404 209.562 119.7C209.562 120.996 209.334 122.118 208.878 123.066C208.422 124.014 207.786 124.74 206.97 125.244C206.166 125.748 205.242 126 204.198 126H200.166V113.4ZM203.892 124.506C205.152 124.506 206.106 124.086 206.754 123.246C207.414 122.406 207.744 121.224 207.744 119.7C207.744 118.176 207.414 116.994 206.754 116.154C206.106 115.314 205.152 114.894 203.892 114.894H201.804V124.506H203.892ZM214.714 126.18C213.826 126.18 213.064 125.976 212.428 125.568C211.804 125.148 211.33 124.584 211.006 123.876C210.694 123.168 210.538 122.382 210.538 121.518C210.538 120.69 210.682 119.934 210.97 119.25C211.27 118.554 211.696 118.008 212.248 117.612C212.812 117.204 213.478 117 214.246 117C215.23 117 216.028 117.33 216.64 117.99C217.264 118.65 217.576 119.562 217.576 120.726C217.576 120.93 217.552 121.212 217.504 121.572H212.14C212.176 122.616 212.434 123.408 212.914 123.948C213.406 124.488 214.042 124.758 214.822 124.758C215.194 124.758 215.584 124.716 215.992 124.632C216.412 124.536 216.778 124.404 217.09 124.236L217.234 125.64C216.574 126 215.734 126.18 214.714 126.18ZM215.974 120.474C215.974 119.874 215.824 119.388 215.524 119.016C215.236 118.632 214.816 118.44 214.264 118.44C213.724 118.44 213.274 118.608 212.914 118.944C212.566 119.28 212.332 119.79 212.212 120.474H215.974ZM212.95 114.39L215.596 112.698V114.462L212.95 115.488V114.39ZM222.498 126.18C221.154 126.18 220.134 125.76 219.438 124.92C218.742 124.068 218.394 122.976 218.394 121.644C218.394 120.264 218.742 119.148 219.438 118.296C220.134 117.432 221.166 117 222.534 117C223.266 117 223.92 117.15 224.496 117.45L224.244 118.836C223.704 118.548 223.14 118.404 222.552 118.404C221.748 118.404 221.118 118.686 220.662 119.25C220.218 119.802 219.996 120.576 219.996 121.572C219.996 122.568 220.224 123.354 220.68 123.93C221.148 124.506 221.79 124.794 222.606 124.794C223.23 124.794 223.782 124.65 224.262 124.362L224.478 125.766C224.238 125.886 223.938 125.982 223.578 126.054C223.218 126.138 222.858 126.18 222.498 126.18ZM229.031 126.18C228.239 126.18 227.555 125.982 226.979 125.586C226.403 125.178 225.959 124.626 225.647 123.93C225.347 123.234 225.197 122.454 225.197 121.59C225.197 120.726 225.347 119.946 225.647 119.25C225.959 118.554 226.403 118.008 226.979 117.612C227.555 117.204 228.239 117 229.031 117C229.811 117 230.489 117.204 231.065 117.612C231.641 118.008 232.079 118.554 232.379 119.25C232.679 119.946 232.829 120.726 232.829 121.59C232.829 122.454 232.679 123.234 232.379 123.93C232.079 124.626 231.641 125.178 231.065 125.586C230.489 125.982 229.811 126.18 229.031 126.18ZM229.031 124.794C229.727 124.794 230.267 124.512 230.651 123.948C231.035 123.384 231.227 122.598 231.227 121.59C231.227 120.582 231.035 119.802 230.651 119.25C230.267 118.686 229.727 118.404 229.031 118.404C228.311 118.404 227.759 118.686 227.375 119.25C226.991 119.802 226.799 120.582 226.799 121.59C226.799 122.61 226.991 123.402 227.375 123.966C227.759 124.518 228.311 124.794 229.031 124.794ZM240.581 117.18V126H239.249L239.141 124.92C238.901 125.316 238.577 125.628 238.169 125.856C237.761 126.072 237.311 126.18 236.819 126.18C235.895 126.18 235.205 125.874 234.749 125.262C234.305 124.638 234.083 123.75 234.083 122.598V117.18H235.649V122.4C235.649 123.192 235.763 123.786 235.991 124.182C236.231 124.566 236.627 124.758 237.179 124.758C237.563 124.758 237.911 124.65 238.223 124.434C238.535 124.218 238.799 123.918 239.015 123.534V117.18H240.581ZM241.87 117.18H243.544L245.596 124.146L247.612 117.18H249.286L246.37 126H244.804L241.87 117.18ZM250.382 117.18H251.66L251.858 118.656C252.254 118.08 252.626 117.66 252.974 117.396C253.334 117.132 253.712 117 254.108 117C254.264 117 254.402 117.018 254.522 117.054L254.36 118.836C254.204 118.8 254.024 118.782 253.82 118.782C253.424 118.782 253.052 118.884 252.704 119.088C252.356 119.28 252.104 119.508 251.948 119.772V126H250.382V117.18ZM255.709 113.4H257.275V115.182H255.709V113.4ZM255.709 117.18H257.275V126H255.709V117.18ZM259.365 117.18H260.643L260.841 118.656C261.237 118.08 261.609 117.66 261.957 117.396C262.317 117.132 262.695 117 263.091 117C263.247 117 263.385 117.018 263.505 117.054L263.343 118.836C263.187 118.8 263.007 118.782 262.803 118.782C262.407 118.782 262.035 118.884 261.687 119.088C261.339 119.28 261.087 119.508 260.931 119.772V126H259.365V117.18ZM270.422 126.18C269.39 126.18 268.496 125.94 267.74 125.46L267.938 123.876C268.706 124.476 269.498 124.776 270.314 124.776C270.746 124.776 271.082 124.686 271.322 124.506C271.574 124.326 271.7 124.062 271.7 123.714C271.7 123.45 271.64 123.234 271.52 123.066C271.412 122.898 271.226 122.736 270.962 122.58C270.698 122.424 270.29 122.22 269.738 121.968C269.09 121.668 268.616 121.326 268.316 120.942C268.016 120.558 267.866 120.06 267.866 119.448C267.866 118.728 268.118 118.14 268.622 117.684C269.126 117.228 269.804 117 270.656 117C271.52 117 272.276 117.192 272.924 117.576L272.726 119.034C272.402 118.818 272.096 118.662 271.808 118.566C271.52 118.458 271.178 118.404 270.782 118.404C270.362 118.404 270.032 118.494 269.792 118.674C269.552 118.854 269.432 119.106 269.432 119.43C269.432 119.754 269.534 120 269.738 120.168C269.954 120.336 270.368 120.558 270.98 120.834C271.832 121.218 272.432 121.608 272.78 122.004C273.128 122.388 273.302 122.898 273.302 123.534C273.302 124.362 273.044 125.01 272.528 125.478C272.012 125.946 271.31 126.18 270.422 126.18ZM280.958 117.18V126H279.626L279.518 124.92C279.278 125.316 278.954 125.628 278.546 125.856C278.138 126.072 277.688 126.18 277.196 126.18C276.272 126.18 275.582 125.874 275.126 125.262C274.682 124.638 274.46 123.75 274.46 122.598V117.18H276.026V122.4C276.026 123.192 276.14 123.786 276.368 124.182C276.608 124.566 277.004 124.758 277.556 124.758C277.94 124.758 278.288 124.65 278.6 124.434C278.912 124.218 279.176 123.918 279.392 123.534V117.18H280.958ZM283.201 117.18H284.479L284.677 118.656C285.073 118.08 285.445 117.66 285.793 117.396C286.153 117.132 286.531 117 286.927 117C287.083 117 287.221 117.018 287.341 117.054L287.179 118.836C287.023 118.8 286.843 118.782 286.639 118.782C286.243 118.782 285.871 118.884 285.523 119.088C285.175 119.28 284.923 119.508 284.767 119.772V126H283.201V117.18Z" fill="#8F8F8F"/>
    <path d="M295.576 126V110.6H302.264C303.76 110.6 304.963 111.011 305.872 111.832C306.781 112.639 307.236 113.709 307.236 115.044C307.236 116.379 306.774 117.457 305.85 118.278C304.941 119.099 303.745 119.51 302.264 119.51H297.27V126H295.576ZM302.132 112.118H297.27V118.036H302.132C303.173 118.036 304.002 117.772 304.618 117.244C305.234 116.701 305.542 115.975 305.542 115.066C305.542 114.157 305.234 113.438 304.618 112.91C304.002 112.382 303.173 112.118 302.132 112.118ZM318.044 124.834C317.428 125.289 316.783 125.633 316.108 125.868C315.448 126.088 314.722 126.198 313.93 126.198C313.138 126.198 312.39 126.051 311.686 125.758C310.997 125.465 310.395 125.061 309.882 124.548C309.383 124.035 308.987 123.433 308.694 122.744C308.401 122.04 308.254 121.285 308.254 120.478C308.254 119.686 308.393 118.945 308.672 118.256C308.965 117.567 309.354 116.965 309.838 116.452C310.322 115.939 310.894 115.535 311.554 115.242C312.229 114.949 312.94 114.802 313.688 114.802C314.421 114.802 315.103 114.949 315.734 115.242C316.379 115.535 316.929 115.939 317.384 116.452C317.853 116.965 318.22 117.567 318.484 118.256C318.763 118.945 318.902 119.686 318.902 120.478V120.984H309.86C309.977 122.069 310.425 122.971 311.202 123.69C311.979 124.409 312.911 124.768 313.996 124.768C314.568 124.768 315.125 124.68 315.668 124.504C316.211 124.328 316.665 124.079 317.032 123.756L318.044 124.834ZM313.644 116.232C312.691 116.232 311.862 116.555 311.158 117.2C310.469 117.845 310.051 118.674 309.904 119.686H317.274C317.127 118.718 316.709 117.904 316.02 117.244C315.345 116.569 314.553 116.232 313.644 116.232ZM322.112 123.536V116.364H319.736V114.978H322.112V112.184L323.718 111.766V114.978H327.04V116.364H323.718V123.118C323.718 123.705 323.85 124.13 324.114 124.394C324.378 124.643 324.811 124.768 325.412 124.768C325.72 124.768 325.992 124.746 326.226 124.702C326.476 124.658 326.74 124.585 327.018 124.482V125.912C326.74 126.015 326.424 126.088 326.072 126.132C325.735 126.176 325.405 126.198 325.082 126.198C324.129 126.198 323.396 125.971 322.882 125.516C322.369 125.061 322.112 124.401 322.112 123.536ZM329.597 112.866C329.304 112.866 329.047 112.756 328.827 112.536C328.607 112.316 328.497 112.059 328.497 111.766C328.497 111.458 328.607 111.201 328.827 110.996C329.047 110.776 329.304 110.666 329.597 110.666C329.905 110.666 330.162 110.776 330.367 110.996C330.587 111.201 330.697 111.458 330.697 111.766C330.697 112.059 330.587 112.316 330.367 112.536C330.162 112.756 329.905 112.866 329.597 112.866ZM330.411 114.978V126H328.783V114.978H330.411ZM334.552 123.536V116.364H332.176V114.978H334.552V112.184L336.158 111.766V114.978H339.48V116.364H336.158V123.118C336.158 123.705 336.29 124.13 336.554 124.394C336.818 124.643 337.25 124.768 337.852 124.768C338.16 124.768 338.431 124.746 338.666 124.702C338.915 124.658 339.179 124.585 339.458 124.482V125.912C339.179 126.015 338.864 126.088 338.512 126.132C338.174 126.176 337.844 126.198 337.522 126.198C336.568 126.198 335.835 125.971 335.322 125.516C334.808 125.061 334.552 124.401 334.552 123.536ZM350.163 124.834C349.547 125.289 348.902 125.633 348.227 125.868C347.567 126.088 346.841 126.198 346.049 126.198C345.257 126.198 344.509 126.051 343.805 125.758C343.116 125.465 342.514 125.061 342.001 124.548C341.502 124.035 341.106 123.433 340.813 122.744C340.52 122.04 340.373 121.285 340.373 120.478C340.373 119.686 340.512 118.945 340.791 118.256C341.084 117.567 341.473 116.965 341.957 116.452C342.441 115.939 343.013 115.535 343.673 115.242C344.348 114.949 345.059 114.802 345.807 114.802C346.54 114.802 347.222 114.949 347.853 115.242C348.498 115.535 349.048 115.939 349.503 116.452C349.972 116.965 350.339 117.567 350.603 118.256C350.882 118.945 351.021 119.686 351.021 120.478V120.984H341.979C342.096 122.069 342.544 122.971 343.321 123.69C344.098 124.409 345.03 124.768 346.115 124.768C346.687 124.768 347.244 124.68 347.787 124.504C348.33 124.328 348.784 124.079 349.151 123.756L350.163 124.834ZM345.763 116.232C344.81 116.232 343.981 116.555 343.277 117.2C342.588 117.845 342.17 118.674 342.023 119.686H349.393C349.246 118.718 348.828 117.904 348.139 117.244C347.464 116.569 346.672 116.232 345.763 116.232ZM358.332 126V110.6H369.354V112.096H360.026V117.596H366.142V119.07H360.026V126H358.332ZM373.23 126.198C372.027 126.198 371.045 125.89 370.282 125.274C369.534 124.658 369.16 123.859 369.16 122.876C369.16 121.849 369.556 121.035 370.348 120.434C371.14 119.818 372.211 119.51 373.56 119.51C374.147 119.51 374.711 119.576 375.254 119.708C375.811 119.84 376.325 120.023 376.794 120.258V118.806C376.794 117.926 376.545 117.266 376.046 116.826C375.547 116.371 374.821 116.144 373.868 116.144C373.325 116.144 372.775 116.225 372.218 116.386C371.675 116.533 371.074 116.775 370.414 117.112L369.798 115.858C370.59 115.477 371.323 115.198 371.998 115.022C372.673 114.846 373.347 114.758 374.022 114.758C375.415 114.758 376.486 115.088 377.234 115.748C377.997 116.408 378.378 117.354 378.378 118.586V126H376.794V124.922C376.295 125.347 375.745 125.67 375.144 125.89C374.557 126.095 373.919 126.198 373.23 126.198ZM370.722 122.832C370.722 123.448 370.979 123.954 371.492 124.35C372.02 124.731 372.695 124.922 373.516 124.922C374.176 124.922 374.777 124.819 375.32 124.614C375.863 124.409 376.354 124.086 376.794 123.646V121.578C376.339 121.27 375.848 121.05 375.32 120.918C374.807 120.771 374.235 120.698 373.604 120.698C372.724 120.698 372.02 120.896 371.492 121.292C370.979 121.673 370.722 122.187 370.722 122.832ZM381.912 112.866C381.619 112.866 381.362 112.756 381.142 112.536C380.922 112.316 380.812 112.059 380.812 111.766C380.812 111.458 380.922 111.201 381.142 110.996C381.362 110.776 381.619 110.666 381.912 110.666C382.22 110.666 382.477 110.776 382.682 110.996C382.902 111.201 383.012 111.458 383.012 111.766C383.012 112.059 382.902 112.316 382.682 112.536C382.477 112.756 382.22 112.866 381.912 112.866ZM382.726 114.978V126H381.098V114.978H382.726ZM385.502 126V114.978H387.13V116.188C387.541 115.719 388.018 115.367 388.56 115.132C389.103 114.883 389.704 114.758 390.364 114.758C391.127 114.758 391.809 114.941 392.41 115.308C393.026 115.66 393.503 116.144 393.84 116.76C394.295 116.085 394.838 115.587 395.468 115.264C396.114 114.927 396.832 114.758 397.624 114.758C398.812 114.758 399.78 115.154 400.528 115.946C401.291 116.738 401.672 117.765 401.672 119.026V126H400.066V119.356C400.066 118.388 399.81 117.618 399.296 117.046C398.783 116.474 398.086 116.188 397.206 116.188C396.605 116.188 396.055 116.342 395.556 116.65C395.058 116.958 394.632 117.405 394.28 117.992C394.31 118.153 394.332 118.322 394.346 118.498C394.376 118.659 394.39 118.835 394.39 119.026V126H392.784V119.356C392.784 118.388 392.528 117.618 392.014 117.046C391.501 116.474 390.812 116.188 389.946 116.188C389.36 116.188 388.824 116.327 388.34 116.606C387.871 116.87 387.468 117.266 387.13 117.794V126H385.502Z" fill="#C54B25"/>
    <path d="M262.901 188.378C262.901 188.132 262.88 187.955 262.838 187.845C262.804 187.735 262.787 187.633 262.787 187.54C262.787 187.413 262.855 187.307 262.99 187.223C263.126 187.138 263.286 187.096 263.473 187.096C263.904 187.096 264.251 187.21 264.514 187.438C264.785 187.659 264.92 187.929 264.92 188.251V196.744C265.216 196.71 265.55 196.626 265.923 196.49C266.304 196.355 266.693 196.169 267.091 195.932C267.489 195.686 267.874 195.386 268.246 195.03C268.627 194.675 268.965 194.26 269.262 193.786C269.558 193.312 269.795 192.779 269.973 192.187C270.159 191.586 270.252 190.921 270.252 190.193C270.252 189.702 270.172 189.195 270.011 188.67C269.858 188.145 269.613 187.667 269.274 187.235C268.936 186.804 268.496 186.448 267.954 186.169C267.421 185.89 266.773 185.75 266.012 185.75C264.971 185.75 264.078 185.911 263.333 186.232C262.588 186.554 261.979 186.986 261.505 187.527C261.039 188.069 260.697 188.7 260.477 189.419C260.257 190.13 260.146 190.883 260.146 191.679C260.146 192.254 260.193 192.741 260.286 193.139C260.388 193.528 260.498 193.85 260.616 194.104C260.735 194.349 260.845 194.531 260.946 194.649C261.048 194.768 261.107 194.836 261.124 194.853C261.268 194.81 261.369 194.827 261.429 194.903C261.488 194.979 261.518 195.081 261.518 195.208C261.518 195.326 261.475 195.504 261.391 195.741C261.314 195.978 261.209 196.202 261.073 196.414C260.938 196.617 260.781 196.774 260.604 196.884C260.426 196.985 260.244 196.964 260.058 196.82C259.956 196.727 259.799 196.558 259.588 196.312C259.376 196.067 259.165 195.741 258.953 195.335C258.75 194.92 258.568 194.425 258.407 193.85C258.246 193.266 258.166 192.593 258.166 191.831C258.166 190.612 258.356 189.512 258.737 188.53C259.118 187.54 259.651 186.694 260.337 185.991C261.031 185.289 261.856 184.747 262.812 184.366C263.769 183.985 264.827 183.795 265.986 183.795C266.934 183.795 267.793 183.951 268.563 184.265C269.342 184.578 270.002 185.018 270.544 185.585C271.094 186.144 271.517 186.812 271.813 187.591C272.11 188.369 272.258 189.22 272.258 190.143C272.258 191.277 272.055 192.326 271.648 193.291C271.242 194.247 270.701 195.098 270.023 195.843C269.346 196.588 268.563 197.205 267.675 197.696C266.795 198.187 265.876 198.521 264.92 198.699V202.127C264.92 202.347 264.848 202.499 264.704 202.584C264.56 202.677 264.391 202.724 264.196 202.724C264.044 202.724 263.892 202.702 263.739 202.66C263.587 202.618 263.447 202.563 263.32 202.495C263.202 202.427 263.1 202.347 263.016 202.254C262.939 202.169 262.901 202.076 262.901 201.975V188.378ZM279.088 194.434C279.088 194.916 279.003 195.411 278.834 195.919C278.673 196.427 278.428 196.909 278.098 197.366C277.776 197.815 277.374 198.221 276.892 198.585C276.418 198.94 275.868 199.211 275.241 199.397C275.326 199.618 275.436 199.829 275.571 200.032C275.715 200.227 275.884 200.396 276.079 200.54C276.274 200.684 276.498 200.798 276.752 200.883C277.014 200.967 277.315 201.01 277.653 201.01C278.161 201.01 278.597 200.917 278.961 200.73C279.325 200.536 279.63 200.282 279.875 199.969C280.129 199.656 280.332 199.304 280.484 198.915C280.637 198.526 280.751 198.132 280.827 197.734C280.886 197.447 281.005 197.256 281.183 197.163C281.369 197.062 281.555 197.036 281.741 197.087C281.936 197.138 282.101 197.248 282.236 197.417C282.38 197.578 282.439 197.772 282.414 198.001C282.38 198.263 282.321 198.564 282.236 198.902C282.16 199.241 282.042 199.584 281.881 199.931C281.72 200.278 281.513 200.62 281.259 200.959C281.013 201.289 280.709 201.585 280.345 201.848C279.981 202.11 279.553 202.322 279.062 202.482C278.572 202.643 278.009 202.724 277.374 202.724C276.782 202.724 276.206 202.605 275.647 202.368C275.097 202.14 274.606 201.81 274.175 201.378C273.752 200.938 273.409 200.4 273.146 199.766C272.893 199.122 272.766 198.395 272.766 197.582C272.766 196.761 272.88 195.999 273.108 195.297C273.337 194.586 273.637 193.972 274.01 193.456C274.382 192.94 274.805 192.538 275.279 192.25C275.753 191.954 276.24 191.806 276.739 191.806C277.103 191.806 277.429 191.869 277.717 191.996C278.013 192.123 278.263 192.305 278.466 192.542C278.669 192.771 278.821 193.046 278.923 193.367C279.033 193.689 279.088 194.044 279.088 194.434ZM274.898 197.506C274.898 197.582 274.903 197.658 274.911 197.734C274.92 197.811 274.924 197.891 274.924 197.976C275.245 197.823 275.537 197.629 275.8 197.392C276.062 197.155 276.286 196.884 276.473 196.579C276.659 196.274 276.803 195.944 276.904 195.589C277.006 195.225 277.057 194.848 277.057 194.459C277.057 194.171 277.006 193.947 276.904 193.786C276.811 193.625 276.68 193.545 276.511 193.545C276.299 193.545 276.109 193.617 275.939 193.761C275.779 193.905 275.635 194.095 275.508 194.332C275.389 194.561 275.288 194.823 275.203 195.119C275.127 195.407 275.063 195.699 275.013 195.995C274.962 196.291 274.928 196.575 274.911 196.846C274.894 197.108 274.89 197.328 274.898 197.506ZM278.479 189.774C278.673 189.791 278.889 189.804 279.126 189.812C279.329 189.829 279.575 189.842 279.862 189.851C280.15 189.851 280.472 189.855 280.827 189.863V185.458C280.827 185.272 280.81 185.124 280.776 185.014C280.751 184.904 280.721 184.819 280.688 184.76C280.662 184.692 280.632 184.641 280.599 184.607C280.573 184.565 280.561 184.523 280.561 184.48C280.561 184.43 280.586 184.387 280.637 184.354C280.688 184.32 280.755 184.29 280.84 184.265C280.924 184.239 281.013 184.222 281.106 184.214C281.208 184.197 281.305 184.188 281.398 184.188C281.83 184.188 282.169 184.303 282.414 184.531C282.668 184.751 282.795 185.018 282.795 185.331V189.889C283.59 189.889 284.428 189.88 285.309 189.863C286.197 189.846 287.086 189.817 287.975 189.774C288.093 189.647 288.186 189.601 288.254 189.635C288.33 189.669 288.377 189.749 288.394 189.876C288.419 190.003 288.423 190.16 288.406 190.346C288.389 190.532 288.355 190.714 288.305 190.892C288.254 191.061 288.182 191.209 288.089 191.336C288.004 191.463 287.907 191.526 287.797 191.526C286.756 191.552 285.833 191.569 285.029 191.577C284.234 191.577 283.489 191.577 282.795 191.577V199.816C282.795 200.24 282.875 200.544 283.036 200.73C283.197 200.917 283.413 201.01 283.684 201.01C283.946 201.01 284.17 200.917 284.356 200.73C284.551 200.544 284.716 200.312 284.852 200.032C284.995 199.753 285.11 199.452 285.194 199.131C285.287 198.801 285.364 198.492 285.423 198.204C285.474 197.933 285.558 197.739 285.677 197.62C285.795 197.493 285.918 197.43 286.045 197.43C286.146 197.43 286.252 197.464 286.362 197.531C286.472 197.59 286.57 197.671 286.654 197.772C286.747 197.874 286.819 197.988 286.87 198.115C286.929 198.242 286.959 198.369 286.959 198.496C286.959 198.513 286.959 198.534 286.959 198.56C286.959 198.585 286.951 198.623 286.934 198.674C286.824 199.105 286.671 199.558 286.477 200.032C286.29 200.506 286.045 200.942 285.74 201.34C285.444 201.738 285.089 202.068 284.674 202.33C284.259 202.592 283.772 202.724 283.214 202.724C282.867 202.724 282.545 202.669 282.249 202.559C281.961 202.457 281.712 202.288 281.5 202.051C281.288 201.822 281.123 201.526 281.005 201.162C280.886 200.798 280.827 200.358 280.827 199.842V191.577C280.539 191.577 280.281 191.577 280.053 191.577C279.833 191.569 279.646 191.56 279.494 191.552C279.316 191.543 279.16 191.535 279.024 191.526C278.821 191.526 278.644 191.438 278.491 191.26C278.33 191.074 278.22 190.87 278.161 190.65C278.093 190.43 278.085 190.231 278.136 190.054C278.178 189.868 278.292 189.774 278.479 189.774ZM286.921 189.495C286.709 189.495 286.506 189.453 286.312 189.368C286.125 189.284 285.96 189.169 285.816 189.025C285.681 188.882 285.571 188.716 285.486 188.53C285.402 188.336 285.359 188.128 285.359 187.908C285.359 187.68 285.402 187.468 285.486 187.273C285.571 187.079 285.681 186.914 285.816 186.778C285.96 186.634 286.125 186.524 286.312 186.448C286.506 186.364 286.709 186.321 286.921 186.321C287.149 186.321 287.361 186.364 287.556 186.448C287.75 186.524 287.915 186.634 288.051 186.778C288.195 186.914 288.305 187.079 288.381 187.273C288.465 187.468 288.508 187.68 288.508 187.908C288.508 188.128 288.465 188.336 288.381 188.53C288.305 188.716 288.195 188.882 288.051 189.025C287.915 189.169 287.75 189.284 287.556 189.368C287.361 189.453 287.149 189.495 286.921 189.495ZM287.518 199.816C287.518 199.876 287.522 199.973 287.53 200.108C287.539 200.235 287.564 200.367 287.606 200.502C287.649 200.637 287.716 200.756 287.81 200.857C287.903 200.959 288.034 201.01 288.203 201.01C288.457 201.01 288.677 200.917 288.863 200.73C289.058 200.544 289.223 200.312 289.358 200.032C289.502 199.753 289.621 199.452 289.714 199.131C289.807 198.801 289.883 198.492 289.942 198.204C289.993 197.942 290.069 197.751 290.171 197.633C290.281 197.514 290.395 197.451 290.514 197.442C290.641 197.425 290.763 197.455 290.882 197.531C291.009 197.607 291.119 197.709 291.212 197.836C291.313 197.954 291.385 198.09 291.428 198.242C291.479 198.395 291.487 198.538 291.453 198.674C291.335 199.105 291.178 199.558 290.983 200.032C290.797 200.506 290.556 200.942 290.26 201.34C289.964 201.738 289.608 202.068 289.193 202.33C288.779 202.592 288.292 202.724 287.733 202.724C287.386 202.724 287.077 202.656 286.807 202.521C286.536 202.394 286.307 202.22 286.121 202C285.935 201.78 285.791 201.522 285.689 201.226C285.596 200.929 285.55 200.616 285.55 200.286V193.342C285.55 193.096 285.529 192.919 285.486 192.809C285.452 192.699 285.436 192.597 285.436 192.504C285.436 192.377 285.503 192.275 285.639 192.199C285.774 192.115 285.935 192.072 286.121 192.072C286.553 192.072 286.891 192.187 287.137 192.415C287.391 192.635 287.518 192.902 287.518 193.215V199.816ZM287.695 189.774C287.89 189.791 288.106 189.804 288.343 189.812C288.546 189.829 288.791 189.842 289.079 189.851C289.367 189.851 289.688 189.855 290.044 189.863V185.458C290.044 185.272 290.027 185.124 289.993 185.014C289.968 184.904 289.938 184.819 289.904 184.76C289.879 184.692 289.849 184.641 289.815 184.607C289.79 184.565 289.777 184.523 289.777 184.48C289.777 184.43 289.803 184.387 289.854 184.354C289.904 184.32 289.972 184.29 290.057 184.265C290.141 184.239 290.23 184.222 290.323 184.214C290.425 184.197 290.522 184.188 290.615 184.188C291.047 184.188 291.385 184.303 291.631 184.531C291.885 184.751 292.012 185.018 292.012 185.331V189.889C292.807 189.889 293.645 189.88 294.525 189.863C295.414 189.846 296.303 189.817 297.191 189.774C297.31 189.647 297.403 189.601 297.471 189.635C297.547 189.669 297.593 189.749 297.61 189.876C297.636 190.003 297.64 190.16 297.623 190.346C297.606 190.532 297.572 190.714 297.521 190.892C297.471 191.061 297.399 191.209 297.306 191.336C297.221 191.463 297.124 191.526 297.014 191.526C295.973 191.552 295.05 191.569 294.246 191.577C293.451 191.577 292.706 191.577 292.012 191.577V199.816C292.012 200.24 292.092 200.544 292.253 200.73C292.414 200.917 292.63 201.01 292.9 201.01C293.163 201.01 293.387 200.917 293.573 200.73C293.768 200.544 293.933 200.312 294.068 200.032C294.212 199.753 294.326 199.452 294.411 199.131C294.504 198.801 294.58 198.492 294.64 198.204C294.69 197.933 294.775 197.739 294.894 197.62C295.012 197.493 295.135 197.43 295.262 197.43C295.363 197.43 295.469 197.464 295.579 197.531C295.689 197.59 295.786 197.671 295.871 197.772C295.964 197.874 296.036 197.988 296.087 198.115C296.146 198.242 296.176 198.369 296.176 198.496C296.176 198.513 296.176 198.534 296.176 198.56C296.176 198.585 296.167 198.623 296.15 198.674C296.04 199.105 295.888 199.558 295.693 200.032C295.507 200.506 295.262 200.942 294.957 201.34C294.661 201.738 294.305 202.068 293.891 202.33C293.476 202.592 292.989 202.724 292.431 202.724C292.084 202.724 291.762 202.669 291.466 202.559C291.178 202.457 290.928 202.288 290.717 202.051C290.505 201.822 290.34 201.526 290.222 201.162C290.103 200.798 290.044 200.358 290.044 199.842V191.577C289.756 191.577 289.498 191.577 289.27 191.577C289.049 191.569 288.863 191.56 288.711 191.552C288.533 191.543 288.377 191.535 288.241 191.526C288.038 191.526 287.86 191.438 287.708 191.26C287.547 191.074 287.437 190.87 287.378 190.65C287.31 190.43 287.302 190.231 287.353 190.054C287.395 189.868 287.509 189.774 287.695 189.774ZM300.746 194.434C300.746 194.916 300.661 195.411 300.492 195.919C300.331 196.427 300.086 196.909 299.756 197.366C299.434 197.815 299.032 198.221 298.55 198.585C298.076 198.94 297.526 199.211 296.899 199.397C296.984 199.618 297.094 199.829 297.229 200.032C297.373 200.227 297.543 200.396 297.737 200.54C297.932 200.684 298.156 200.798 298.41 200.883C298.673 200.967 298.973 201.01 299.312 201.01C299.819 201.01 300.255 200.917 300.619 200.73C300.983 200.536 301.288 200.282 301.533 199.969C301.787 199.656 301.99 199.304 302.143 198.915C302.295 198.526 302.409 198.132 302.485 197.734C302.545 197.447 302.663 197.256 302.841 197.163C303.027 197.062 303.213 197.036 303.399 197.087C303.594 197.138 303.759 197.248 303.895 197.417C304.038 197.578 304.098 197.772 304.072 198.001C304.038 198.263 303.979 198.564 303.895 198.902C303.818 199.241 303.7 199.584 303.539 199.931C303.378 200.278 303.171 200.62 302.917 200.959C302.672 201.289 302.367 201.585 302.003 201.848C301.639 202.11 301.212 202.322 300.721 202.482C300.23 202.643 299.667 202.724 299.032 202.724C298.44 202.724 297.864 202.605 297.306 202.368C296.756 202.14 296.265 201.81 295.833 201.378C295.41 200.938 295.067 200.4 294.805 199.766C294.551 199.122 294.424 198.395 294.424 197.582C294.424 196.761 294.538 195.999 294.767 195.297C294.995 194.586 295.296 193.972 295.668 193.456C296.04 192.94 296.464 192.538 296.938 192.25C297.411 191.954 297.898 191.806 298.397 191.806C298.761 191.806 299.087 191.869 299.375 191.996C299.671 192.123 299.921 192.305 300.124 192.542C300.327 192.771 300.479 193.046 300.581 193.367C300.691 193.689 300.746 194.044 300.746 194.434ZM296.557 197.506C296.557 197.582 296.561 197.658 296.569 197.734C296.578 197.811 296.582 197.891 296.582 197.976C296.904 197.823 297.196 197.629 297.458 197.392C297.72 197.155 297.945 196.884 298.131 196.579C298.317 196.274 298.461 195.944 298.562 195.589C298.664 195.225 298.715 194.848 298.715 194.459C298.715 194.171 298.664 193.947 298.562 193.786C298.469 193.625 298.338 193.545 298.169 193.545C297.957 193.545 297.767 193.617 297.598 193.761C297.437 193.905 297.293 194.095 297.166 194.332C297.048 194.561 296.946 194.823 296.861 195.119C296.785 195.407 296.722 195.699 296.671 195.995C296.62 196.291 296.586 196.575 296.569 196.846C296.552 197.108 296.548 197.328 296.557 197.506ZM312.286 200.54C312.286 201.116 312.248 201.606 312.172 202.013C312.104 202.419 312.007 202.749 311.88 203.003C311.753 203.257 311.596 203.443 311.41 203.562C311.232 203.68 311.038 203.739 310.826 203.739C310.665 203.739 310.488 203.684 310.293 203.574C310.098 203.464 309.912 203.329 309.734 203.168C309.565 203.007 309.421 202.842 309.303 202.673C309.193 202.504 309.138 202.355 309.138 202.229C309.138 202.144 309.146 202.089 309.163 202.063C309.188 202.047 309.218 202.038 309.252 202.038C309.294 202.047 309.341 202.059 309.392 202.076C309.451 202.093 309.514 202.102 309.582 202.102C309.819 202.102 309.988 201.953 310.09 201.657C310.2 201.353 310.255 200.87 310.255 200.21V196.122H308.909C308.774 196.122 308.647 196.08 308.528 195.995C308.418 195.91 308.321 195.805 308.236 195.678C308.152 195.551 308.084 195.411 308.033 195.259C307.991 195.106 307.97 194.963 307.97 194.827C307.97 194.683 307.999 194.561 308.059 194.459C308.126 194.357 308.228 194.307 308.363 194.307H310.255V185.852C309.341 185.911 308.507 186.046 307.754 186.258C307.001 186.469 306.353 186.791 305.812 187.223C305.27 187.654 304.847 188.217 304.542 188.911C304.246 189.597 304.098 190.451 304.098 191.476C304.098 191.924 304.14 192.33 304.225 192.694C304.318 193.05 304.436 193.371 304.58 193.659C304.724 193.947 304.881 194.201 305.05 194.421C305.228 194.641 305.401 194.836 305.57 195.005C305.714 194.963 305.816 194.979 305.875 195.056C305.934 195.132 305.964 195.238 305.964 195.373C305.964 195.542 305.926 195.72 305.85 195.906C305.782 196.084 305.689 196.249 305.57 196.401C305.452 196.545 305.316 196.668 305.164 196.77C305.02 196.863 304.872 196.909 304.72 196.909C304.652 196.909 304.584 196.901 304.517 196.884C304.457 196.867 304.394 196.829 304.326 196.77C304.14 196.634 303.916 196.414 303.653 196.109C303.391 195.796 303.141 195.411 302.904 194.954C302.667 194.497 302.464 193.977 302.295 193.393C302.126 192.8 302.041 192.161 302.041 191.476C302.041 188.979 302.837 187.075 304.428 185.763C306.027 184.451 308.384 183.795 311.499 183.795C311.736 183.795 312.032 183.799 312.388 183.808C312.752 183.808 313.137 183.808 313.543 183.808C313.949 183.808 314.36 183.812 314.774 183.82C315.198 183.829 315.587 183.833 315.942 183.833C316.306 183.833 316.615 183.837 316.869 183.846C317.132 183.846 317.309 183.846 317.402 183.846C317.529 183.846 317.635 183.837 317.72 183.82C317.804 183.795 317.872 183.77 317.923 183.744C317.982 183.719 318.024 183.698 318.05 183.681C318.084 183.655 318.113 183.643 318.139 183.643C318.181 183.643 318.223 183.672 318.266 183.731C318.308 183.782 318.346 183.85 318.38 183.935C318.414 184.011 318.439 184.1 318.456 184.201C318.481 184.303 318.494 184.404 318.494 184.506C318.494 184.658 318.469 184.819 318.418 184.988C318.376 185.149 318.304 185.297 318.202 185.433C318.101 185.56 317.974 185.665 317.821 185.75C317.677 185.835 317.504 185.877 317.301 185.877C317.225 185.877 317.085 185.877 316.882 185.877C316.679 185.868 316.433 185.864 316.146 185.864C315.866 185.856 315.557 185.852 315.219 185.852C314.88 185.843 314.537 185.839 314.19 185.839C313.852 185.83 313.518 185.826 313.188 185.826C312.857 185.818 312.557 185.809 312.286 185.801V194.307H315.536C315.672 194.205 315.773 194.18 315.841 194.23C315.909 194.281 315.947 194.374 315.955 194.51C315.972 194.645 315.964 194.806 315.93 194.992C315.904 195.178 315.858 195.356 315.79 195.525C315.731 195.686 315.659 195.826 315.574 195.944C315.49 196.063 315.396 196.122 315.295 196.122H312.286V200.54ZM324.74 201.01C325.003 201.01 325.227 200.917 325.413 200.73C325.608 200.544 325.773 200.312 325.908 200.032C326.052 199.753 326.166 199.452 326.251 199.131C326.344 198.801 326.42 198.492 326.479 198.204C326.539 197.933 326.623 197.739 326.733 197.62C326.852 197.493 326.979 197.43 327.114 197.43C327.216 197.43 327.317 197.464 327.419 197.531C327.529 197.59 327.626 197.671 327.711 197.772C327.804 197.874 327.876 197.988 327.927 198.115C327.986 198.242 328.016 198.369 328.016 198.496C328.016 198.513 328.016 198.534 328.016 198.56C328.016 198.585 328.007 198.623 327.99 198.674C327.88 199.105 327.728 199.558 327.533 200.032C327.347 200.506 327.106 200.942 326.81 201.34C326.513 201.738 326.154 202.068 325.73 202.33C325.316 202.592 324.829 202.724 324.271 202.724C323.813 202.724 323.416 202.626 323.077 202.432C322.739 202.237 322.472 201.979 322.277 201.657C322.015 201.953 321.698 202.203 321.325 202.406C320.961 202.618 320.534 202.724 320.043 202.724C319.535 202.724 319.087 202.622 318.697 202.419C318.316 202.216 317.995 201.941 317.732 201.594C317.47 201.238 317.271 200.824 317.136 200.35C317.009 199.867 316.945 199.351 316.945 198.801C316.945 197.717 317.119 196.744 317.466 195.881C317.813 195.018 318.274 194.285 318.85 193.685C319.425 193.075 320.081 192.61 320.817 192.288C321.562 191.966 322.332 191.806 323.128 191.806C323.483 191.806 323.771 191.903 323.991 192.098C324.211 192.292 324.321 192.559 324.321 192.897C324.321 193.118 324.296 193.274 324.245 193.367C324.203 193.452 324.118 193.494 323.991 193.494C323.873 193.494 323.75 193.486 323.623 193.469C323.496 193.452 323.365 193.443 323.229 193.443C322.739 193.443 322.239 193.553 321.731 193.773C321.224 193.985 320.762 194.315 320.348 194.764C319.941 195.204 319.607 195.767 319.345 196.452C319.082 197.129 318.951 197.938 318.951 198.877C318.951 199.562 319.082 200.091 319.345 200.464C319.607 200.828 319.967 201.01 320.424 201.01C320.779 201.01 321.076 200.879 321.312 200.616C321.549 200.345 321.74 200.028 321.884 199.664V195.652C321.884 195.525 321.875 195.42 321.858 195.335C321.85 195.25 321.837 195.178 321.82 195.119C321.812 195.06 321.803 195.009 321.795 194.967C321.786 194.916 321.782 194.869 321.782 194.827C321.782 194.692 321.846 194.586 321.973 194.51C322.108 194.425 322.269 194.383 322.455 194.383C322.887 194.383 323.229 194.497 323.483 194.726C323.737 194.946 323.864 195.212 323.864 195.525V199.816C323.864 199.96 323.881 200.104 323.915 200.248C323.949 200.383 324 200.51 324.067 200.629C324.135 200.739 324.224 200.832 324.334 200.908C324.452 200.976 324.588 201.01 324.74 201.01ZM327.978 189.495C327.766 189.495 327.563 189.453 327.368 189.368C327.182 189.284 327.017 189.169 326.873 189.025C326.738 188.882 326.628 188.716 326.543 188.53C326.458 188.336 326.416 188.128 326.416 187.908C326.416 187.68 326.458 187.468 326.543 187.273C326.628 187.079 326.738 186.914 326.873 186.778C327.017 186.634 327.182 186.524 327.368 186.448C327.563 186.364 327.766 186.321 327.978 186.321C328.206 186.321 328.418 186.364 328.612 186.448C328.807 186.524 328.972 186.634 329.107 186.778C329.251 186.914 329.361 187.079 329.438 187.273C329.522 187.468 329.564 187.68 329.564 187.908C329.564 188.128 329.522 188.336 329.438 188.53C329.361 188.716 329.251 188.882 329.107 189.025C328.972 189.169 328.807 189.284 328.612 189.368C328.418 189.453 328.206 189.495 327.978 189.495ZM328.574 199.816C328.574 199.876 328.578 199.973 328.587 200.108C328.595 200.235 328.621 200.367 328.663 200.502C328.705 200.637 328.773 200.756 328.866 200.857C328.959 200.959 329.09 201.01 329.26 201.01C329.514 201.01 329.734 200.917 329.92 200.73C330.115 200.544 330.28 200.312 330.415 200.032C330.559 199.753 330.677 199.452 330.771 199.131C330.864 198.801 330.94 198.492 330.999 198.204C331.05 197.942 331.126 197.751 331.228 197.633C331.338 197.514 331.452 197.451 331.57 197.442C331.697 197.425 331.82 197.455 331.938 197.531C332.065 197.607 332.175 197.709 332.269 197.836C332.37 197.954 332.442 198.09 332.484 198.242C332.535 198.395 332.544 198.538 332.51 198.674C332.391 199.105 332.235 199.558 332.04 200.032C331.854 200.506 331.613 200.942 331.316 201.34C331.02 201.738 330.665 202.068 330.25 202.33C329.835 202.592 329.349 202.724 328.79 202.724C328.443 202.724 328.134 202.656 327.863 202.521C327.592 202.394 327.364 202.22 327.178 202C326.992 201.78 326.848 201.522 326.746 201.226C326.653 200.929 326.606 200.616 326.606 200.286V193.342C326.606 193.096 326.585 192.919 326.543 192.809C326.509 192.699 326.492 192.597 326.492 192.504C326.492 192.377 326.56 192.275 326.695 192.199C326.831 192.115 326.992 192.072 327.178 192.072C327.609 192.072 327.948 192.187 328.193 192.415C328.447 192.635 328.574 192.902 328.574 193.215V199.816ZM346.614 198.674C346.496 199.105 346.339 199.558 346.145 200.032C345.958 200.506 345.717 200.942 345.421 201.34C345.125 201.738 344.769 202.068 344.354 202.33C343.94 202.592 343.453 202.724 342.895 202.724C342.548 202.724 342.239 202.656 341.968 202.521C341.705 202.394 341.477 202.22 341.282 202C341.096 201.78 340.952 201.522 340.851 201.226C340.757 200.929 340.711 200.616 340.711 200.286V195.005C340.711 194.802 340.707 194.611 340.698 194.434C340.69 194.256 340.669 194.099 340.635 193.964C340.601 193.828 340.55 193.723 340.482 193.646C340.423 193.562 340.339 193.52 340.229 193.52C340.051 193.52 339.835 193.646 339.581 193.9C339.327 194.154 339.082 194.484 338.845 194.891C338.608 195.297 338.396 195.758 338.21 196.274C338.024 196.782 337.914 197.294 337.88 197.811V201.606C337.88 201.733 337.876 201.865 337.867 202C337.867 202.127 337.842 202.241 337.791 202.343C337.749 202.453 337.677 202.542 337.575 202.609C337.482 202.686 337.342 202.724 337.156 202.724C337.029 202.724 336.89 202.707 336.737 202.673C336.593 202.647 336.458 202.592 336.331 202.508C336.213 202.432 336.111 202.317 336.026 202.165C335.95 202.021 335.912 201.826 335.912 201.581V195.005C335.912 194.802 335.904 194.611 335.887 194.434C335.878 194.256 335.857 194.099 335.823 193.964C335.789 193.828 335.739 193.723 335.671 193.646C335.612 193.562 335.527 193.52 335.417 193.52C335.239 193.52 335.023 193.646 334.77 193.9C334.524 194.154 334.279 194.484 334.033 194.891C333.796 195.297 333.585 195.758 333.398 196.274C333.221 196.782 333.111 197.294 333.068 197.811V201.606C333.068 201.733 333.064 201.865 333.056 202C333.056 202.127 333.03 202.241 332.979 202.343C332.937 202.453 332.865 202.542 332.764 202.609C332.671 202.686 332.531 202.724 332.345 202.724C332.218 202.724 332.078 202.707 331.926 202.673C331.782 202.647 331.646 202.592 331.52 202.508C331.401 202.432 331.299 202.317 331.215 202.165C331.139 202.021 331.101 201.826 331.101 201.581V193.342C331.101 193.096 331.079 192.919 331.037 192.809C331.003 192.699 330.986 192.597 330.986 192.504C330.986 192.377 331.054 192.275 331.189 192.199C331.325 192.115 331.486 192.072 331.672 192.072C332.104 192.072 332.442 192.187 332.688 192.415C332.941 192.635 333.068 192.902 333.068 193.215V194.307C333.238 193.951 333.42 193.621 333.614 193.316C333.817 193.012 334.033 192.749 334.262 192.529C334.49 192.301 334.731 192.123 334.985 191.996C335.248 191.869 335.527 191.806 335.823 191.806C336.213 191.806 336.534 191.878 336.788 192.021C337.05 192.165 337.258 192.356 337.41 192.593C337.571 192.83 337.685 193.096 337.753 193.393C337.821 193.68 337.863 193.968 337.88 194.256C338.041 193.909 338.218 193.587 338.413 193.291C338.608 192.995 338.819 192.737 339.048 192.517C339.276 192.297 339.518 192.123 339.771 191.996C340.034 191.869 340.313 191.806 340.609 191.806C341.033 191.806 341.38 191.886 341.65 192.047C341.921 192.208 342.133 192.415 342.285 192.669C342.438 192.923 342.543 193.206 342.603 193.52C342.662 193.833 342.691 194.137 342.691 194.434V199.816C342.691 199.876 342.696 199.973 342.704 200.108C342.713 200.235 342.738 200.367 342.78 200.502C342.823 200.637 342.886 200.756 342.971 200.857C343.064 200.959 343.195 201.01 343.364 201.01C343.627 201.01 343.851 200.917 344.037 200.73C344.232 200.544 344.397 200.312 344.532 200.032C344.676 199.753 344.795 199.452 344.888 199.131C344.981 198.801 345.057 198.492 345.116 198.204C345.167 197.933 345.247 197.739 345.357 197.62C345.476 197.493 345.603 197.43 345.738 197.43C345.84 197.43 345.941 197.464 346.043 197.531C346.153 197.59 346.25 197.671 346.335 197.772C346.428 197.874 346.5 197.988 346.551 198.115C346.61 198.242 346.64 198.369 346.64 198.496C346.64 198.513 346.64 198.534 346.64 198.56C346.64 198.585 346.631 198.623 346.614 198.674Z" fill="black"/>
    <path d="M257.384 260.636H253.64C253.496 260.636 253.424 260.57 253.424 260.438V260.042C253.424 259.91 253.496 259.844 253.64 259.844H257.384C257.528 259.844 257.6 259.91 257.6 260.042V260.438C257.6 260.57 257.528 260.636 257.384 260.636ZM260.544 266H260.022C259.902 266 259.842 265.928 259.842 265.784V254.642C259.842 254.498 259.902 254.426 260.022 254.426H264.162C264.942 254.426 265.56 254.654 266.016 255.11C266.472 255.566 266.7 256.19 266.7 256.982V259.088C266.7 259.88 266.472 260.504 266.016 260.96C265.56 261.416 264.942 261.644 264.162 261.644H260.922C260.802 261.644 260.742 261.692 260.742 261.788V265.784C260.742 265.928 260.676 266 260.544 266ZM260.922 260.816H264.09C264.642 260.816 265.062 260.666 265.35 260.366C265.638 260.054 265.782 259.616 265.782 259.052V257.018C265.782 256.442 265.638 256.004 265.35 255.704C265.062 255.392 264.642 255.236 264.09 255.236H260.922C260.802 255.236 260.742 255.29 260.742 255.398V260.672C260.742 260.768 260.802 260.816 260.922 260.816ZM275.023 266H269.461C269.341 266 269.281 265.928 269.281 265.784V254.642C269.281 254.498 269.341 254.426 269.461 254.426H275.023C275.167 254.426 275.239 254.492 275.239 254.624V255.038C275.239 255.17 275.167 255.236 275.023 255.236H270.361C270.241 255.236 270.181 255.29 270.181 255.398V259.538C270.181 259.646 270.241 259.7 270.361 259.7H274.519C274.651 259.7 274.717 259.766 274.717 259.898V260.312C274.717 260.444 274.651 260.51 274.519 260.51H270.361C270.241 260.51 270.181 260.564 270.181 260.672V265.028C270.181 265.136 270.241 265.19 270.361 265.19H275.023C275.167 265.19 275.239 265.256 275.239 265.388V265.802C275.239 265.934 275.167 266 275.023 266ZM280.467 266H279.945C279.813 266 279.747 265.928 279.747 265.784V255.398C279.747 255.29 279.687 255.236 279.567 255.236H276.957C276.813 255.236 276.741 255.17 276.741 255.038V254.624C276.741 254.492 276.813 254.426 276.957 254.426H283.437C283.581 254.426 283.653 254.492 283.653 254.624V255.038C283.653 255.17 283.581 255.236 283.437 255.236H280.827C280.707 255.236 280.647 255.29 280.647 255.398V265.784C280.647 265.928 280.587 266 280.467 266ZM286.496 254.642V265.784C286.496 265.928 286.43 266 286.298 266H285.776C285.656 266 285.596 265.928 285.596 265.784V254.642C285.596 254.498 285.656 254.426 285.776 254.426H286.298C286.43 254.426 286.496 254.498 286.496 254.642ZM292.174 266H291.652C291.52 266 291.454 265.928 291.454 265.784V255.398C291.454 255.29 291.394 255.236 291.274 255.236H288.664C288.52 255.236 288.448 255.17 288.448 255.038V254.624C288.448 254.492 288.52 254.426 288.664 254.426H295.144C295.288 254.426 295.36 254.492 295.36 254.624V255.038C295.36 255.17 295.288 255.236 295.144 255.236H292.534C292.414 255.236 292.354 255.29 292.354 255.398V265.784C292.354 265.928 292.294 266 292.174 266ZM302.955 266H297.393C297.273 266 297.213 265.928 297.213 265.784V254.642C297.213 254.498 297.273 254.426 297.393 254.426H302.955C303.099 254.426 303.171 254.492 303.171 254.624V255.038C303.171 255.17 303.099 255.236 302.955 255.236H298.293C298.173 255.236 298.113 255.29 298.113 255.398V259.538C298.113 259.646 298.173 259.7 298.293 259.7H302.451C302.583 259.7 302.649 259.766 302.649 259.898V260.312C302.649 260.444 302.583 260.51 302.451 260.51H298.293C298.173 260.51 298.113 260.564 298.113 260.672V265.028C298.113 265.136 298.173 265.19 298.293 265.19H302.955C303.099 265.19 303.171 265.256 303.171 265.388V265.802C303.171 265.934 303.099 266 302.955 266ZM311.379 266H310.857C310.737 266 310.677 265.928 310.677 265.784V254.642C310.677 254.498 310.737 254.426 310.857 254.426H316.401C316.545 254.426 316.617 254.492 316.617 254.624V255.038C316.617 255.17 316.545 255.236 316.401 255.236H311.757C311.637 255.236 311.577 255.29 311.577 255.398V259.772C311.577 259.868 311.637 259.916 311.757 259.916H315.915C316.047 259.916 316.113 259.982 316.113 260.114V260.546C316.113 260.678 316.047 260.744 315.915 260.744H311.757C311.637 260.744 311.577 260.792 311.577 260.888V265.784C311.577 265.928 311.511 266 311.379 266ZM318.633 266H318.075C317.943 266 317.901 265.928 317.949 265.784L321.531 254.642C321.567 254.498 321.651 254.426 321.783 254.426H322.629C322.749 254.426 322.833 254.498 322.881 254.642L326.463 265.784C326.499 265.928 326.457 266 326.337 266H325.761C325.641 266 325.563 265.928 325.527 265.784L324.555 262.904H319.839L318.867 265.784C318.819 265.928 318.741 266 318.633 266ZM322.161 255.416L320.091 262.094H324.321L322.233 255.416H322.161ZM329.527 254.642V265.784C329.527 265.928 329.461 266 329.329 266H328.807C328.687 266 328.627 265.928 328.627 265.784V254.642C328.627 254.498 328.687 254.426 328.807 254.426H329.329C329.461 254.426 329.527 254.498 329.527 254.642ZM341.001 254.426H341.973C342.093 254.426 342.153 254.498 342.153 254.642V265.784C342.153 265.928 342.093 266 341.973 266H341.451C341.319 266 341.253 265.928 341.253 265.784V255.812H341.181L337.995 263.282C337.923 263.414 337.833 263.48 337.725 263.48H337.131C337.011 263.48 336.927 263.414 336.879 263.282L333.639 255.794H333.567V265.784C333.567 265.928 333.507 266 333.387 266H332.865C332.745 266 332.685 265.928 332.685 265.784V254.642C332.685 254.498 332.745 254.426 332.865 254.426H333.837C333.921 254.426 333.975 254.462 333.999 254.534L337.383 262.436H337.455L340.839 254.534C340.863 254.462 340.917 254.426 341.001 254.426ZM348.368 260.636H344.624C344.48 260.636 344.408 260.57 344.408 260.438V260.042C344.408 259.91 344.48 259.844 344.624 259.844H348.368C348.512 259.844 348.584 259.91 348.584 260.042V260.438C348.584 260.57 348.512 260.636 348.368 260.636Z" fill="#4E4444"/>
</svg>