<svg width="600" height="350" viewBox="0 0 600 350" fill="none" xmlns="http://www.w3.org/2000/svg">
    <path d="M101.817 43.968V42.6C101.817 42.184 101.937 41.656 102.177 41.016L102.969 38.76C103.017 38.632 103.105 38.568 103.233 38.568C103.409 38.568 103.497 38.664 103.497 38.856V43.968C103.497 44.176 103.393 44.28 103.185 44.28H102.129C101.921 44.28 101.817 44.176 101.817 43.968ZM98.1208 43.968V42.6C98.1208 42.264 98.2408 41.736 98.4808 41.016L99.2728 38.76C99.3528 38.632 99.4488 38.568 99.5608 38.568C99.7208 38.568 99.8008 38.664 99.8008 38.856V43.968C99.8008 44.176 99.6968 44.28 99.4888 44.28H98.4568C98.2328 44.28 98.1208 44.176 98.1208 43.968ZM114.92 38.568H116C116.224 38.568 116.336 38.672 116.336 38.88V50.448C116.336 51.568 116.024 52.44 115.4 53.064C114.776 53.688 113.912 54 112.808 54H110.144C109.04 54 108.168 53.688 107.528 53.064C106.904 52.44 106.592 51.568 106.592 50.448V38.904C106.592 38.68 106.704 38.568 106.928 38.568H108.008C108.232 38.568 108.344 38.68 108.344 38.904V50.376C108.344 51.768 109.008 52.464 110.336 52.464H112.592C113.936 52.464 114.608 51.768 114.608 50.376V38.904C114.608 38.68 114.712 38.568 114.92 38.568ZM121.393 54H120.337C120.113 54 120.001 53.888 120.001 53.664V38.904C120.001 38.68 120.113 38.568 120.337 38.568H121.321C121.513 38.568 121.641 38.632 121.705 38.76L128.329 50.4H128.425V38.904C128.425 38.68 128.537 38.568 128.761 38.568H129.817C130.041 38.568 130.153 38.68 130.153 38.904V53.664C130.153 53.888 130.041 54 129.817 54H128.929C128.753 54 128.585 53.896 128.425 53.688L121.825 42.168H121.729V53.664C121.729 53.888 121.617 54 121.393 54ZM141.819 54H134.283C134.059 54 133.947 53.888 133.947 53.664V38.904C133.947 38.68 134.059 38.568 134.283 38.568H141.819C142.043 38.568 142.155 38.68 142.155 38.904V39.768C142.155 39.992 142.043 40.104 141.819 40.104H135.939C135.779 40.104 135.699 40.176 135.699 40.32V45.168C135.699 45.312 135.779 45.384 135.939 45.384H141.075C141.299 45.384 141.411 45.496 141.411 45.72V46.584C141.411 46.808 141.299 46.92 141.075 46.92H135.939C135.779 46.92 135.699 46.992 135.699 47.136V52.248C135.699 52.392 135.779 52.464 135.939 52.464H141.819C142.043 52.464 142.155 52.576 142.155 52.8V53.664C142.155 53.888 142.043 54 141.819 54ZM151.404 50.448V49.68C151.404 49.456 151.516 49.344 151.74 49.344H152.82C153.044 49.344 153.156 49.456 153.156 49.68V50.304C153.156 51.744 153.868 52.464 155.292 52.464H157.404C158.828 52.464 159.54 51.728 159.54 50.256V49.44C159.54 48.288 158.588 47.536 156.684 47.184C155.884 47.04 155.084 46.872 154.284 46.68C153.484 46.488 152.804 46.12 152.244 45.576C151.684 45.016 151.404 44.256 151.404 43.296V42.12C151.404 41.016 151.716 40.152 152.34 39.528C152.98 38.888 153.852 38.568 154.956 38.568H157.62C158.708 38.568 159.572 38.888 160.212 39.528C160.852 40.152 161.172 41.016 161.172 42.12V42.72C161.172 42.96 161.068 43.08 160.86 43.08H159.756C159.548 43.08 159.444 42.96 159.444 42.72V42.288C159.444 40.832 158.732 40.104 157.308 40.104H155.268C153.844 40.104 153.132 40.864 153.132 42.384V43.344C153.132 44.16 153.668 44.72 154.74 45.024C155.22 45.152 155.748 45.272 156.324 45.384C156.9 45.48 157.476 45.616 158.052 45.792C158.644 45.952 159.18 46.16 159.66 46.416C160.14 46.656 160.524 47.032 160.812 47.544C161.116 48.04 161.268 48.648 161.268 49.368V50.448C161.268 51.552 160.948 52.424 160.308 53.064C159.668 53.688 158.804 54 157.716 54H154.956C153.868 54 153.004 53.688 152.364 53.064C151.724 52.424 151.404 51.552 151.404 50.448ZM173.092 38.568H174.172C174.396 38.568 174.508 38.672 174.508 38.88V50.448C174.508 51.568 174.196 52.44 173.572 53.064C172.948 53.688 172.084 54 170.98 54H168.316C167.212 54 166.34 53.688 165.7 53.064C165.076 52.44 164.764 51.568 164.764 50.448V38.904C164.764 38.68 164.876 38.568 165.1 38.568H166.18C166.404 38.568 166.516 38.68 166.516 38.904V50.376C166.516 51.768 167.18 52.464 168.508 52.464H170.764C172.108 52.464 172.78 51.768 172.78 50.376V38.904C172.78 38.68 172.884 38.568 173.092 38.568ZM179.589 54H178.509C178.285 54 178.173 53.888 178.173 53.664V38.904C178.173 38.68 178.285 38.568 178.509 38.568H184.125C185.229 38.568 186.093 38.888 186.717 39.528C187.341 40.152 187.653 41.016 187.653 42.12V44.784C187.653 45.904 187.341 46.776 186.717 47.4C186.093 48.024 185.229 48.336 184.125 48.336H180.165C180.005 48.336 179.925 48.408 179.925 48.552V53.664C179.925 53.888 179.813 54 179.589 54ZM180.165 46.776H183.885C185.229 46.776 185.901 46.088 185.901 44.712V42.192C185.901 40.8 185.229 40.104 183.885 40.104H180.165C180.005 40.104 179.925 40.176 179.925 40.32V46.56C179.925 46.704 180.005 46.776 180.165 46.776ZM198.678 54H191.142C190.918 54 190.806 53.888 190.806 53.664V38.904C190.806 38.68 190.918 38.568 191.142 38.568H198.678C198.902 38.568 199.014 38.68 199.014 38.904V39.768C199.014 39.992 198.902 40.104 198.678 40.104H192.798C192.638 40.104 192.558 40.176 192.558 40.32V45.168C192.558 45.312 192.638 45.384 192.798 45.384H197.934C198.158 45.384 198.27 45.496 198.27 45.72V46.584C198.27 46.808 198.158 46.92 197.934 46.92H192.798C192.638 46.92 192.558 46.992 192.558 47.136V52.248C192.558 52.392 192.638 52.464 192.798 52.464H198.678C198.902 52.464 199.014 52.576 199.014 52.8V53.664C199.014 53.888 198.902 54 198.678 54ZM203.753 54H202.673C202.449 54 202.337 53.888 202.337 53.664V38.904C202.337 38.68 202.449 38.568 202.673 38.568H208.193C209.297 38.568 210.169 38.888 210.809 39.528C211.449 40.152 211.769 41.016 211.769 42.12V44.304C211.769 45.2 211.553 45.944 211.121 46.536C210.689 47.112 210.089 47.496 209.321 47.688V47.784L212.105 53.616C212.249 53.872 212.169 54 211.865 54H210.785C210.513 54 210.313 53.888 210.185 53.664L207.497 47.856H204.329C204.169 47.856 204.089 47.928 204.089 48.072V53.664C204.089 53.888 203.977 54 203.753 54ZM204.329 46.392H207.953C209.329 46.392 210.017 45.704 210.017 44.328V42.192C210.017 40.8 209.329 40.104 207.953 40.104H204.329C204.169 40.104 204.089 40.176 204.089 40.32V46.176C204.089 46.32 204.169 46.392 204.329 46.392ZM217.22 52.512H221.156C222.532 52.512 223.22 51.832 223.22 50.472V48.912C223.22 47.552 222.484 46.872 221.012 46.872H217.22C217.06 46.872 216.98 46.944 216.98 47.088V52.272C216.98 52.432 217.06 52.512 217.22 52.512ZM217.22 45.408H220.916C222.324 45.408 223.028 44.728 223.028 43.368V42.096C223.028 40.736 222.348 40.056 220.988 40.056H217.22C217.06 40.056 216.98 40.136 216.98 40.296V45.192C216.98 45.336 217.06 45.408 217.22 45.408ZM215.228 53.664V38.904C215.228 38.68 215.34 38.568 215.564 38.568H221.204C222.308 38.568 223.172 38.88 223.796 39.504C224.42 40.112 224.732 40.968 224.732 42.072V43.392C224.732 44.816 224.06 45.736 222.716 46.152C223.324 46.2 223.844 46.472 224.276 46.968C224.708 47.448 224.924 48.088 224.924 48.888V50.496C224.924 51.6 224.604 52.464 223.964 53.088C223.34 53.696 222.476 54 221.372 54H215.564C215.34 54 215.228 53.888 215.228 53.664ZM236.272 54H228.736C228.512 54 228.4 53.888 228.4 53.664V38.904C228.4 38.68 228.512 38.568 228.736 38.568H236.272C236.496 38.568 236.608 38.68 236.608 38.904V39.768C236.608 39.992 236.496 40.104 236.272 40.104H230.392C230.232 40.104 230.152 40.176 230.152 40.32V45.168C230.152 45.312 230.232 45.384 230.392 45.384H235.528C235.752 45.384 235.864 45.496 235.864 45.72V46.584C235.864 46.808 235.752 46.92 235.528 46.92H230.392C230.232 46.92 230.152 46.992 230.152 47.136V52.248C230.152 52.392 230.232 52.464 230.392 52.464H236.272C236.496 52.464 236.608 52.576 236.608 52.8V53.664C236.608 53.888 236.496 54 236.272 54ZM256.873 38.568H258.817C259.041 38.568 259.153 38.68 259.153 38.904V53.664C259.153 53.888 259.041 54 258.817 54H257.761C257.537 54 257.425 53.888 257.425 53.664V40.92H257.329L253.609 50.328C253.513 50.536 253.369 50.64 253.177 50.64H252.025C251.817 50.64 251.681 50.536 251.617 50.328L247.825 40.896H247.729V53.664C247.729 53.888 247.625 54 247.417 54H246.361C246.137 54 246.025 53.888 246.025 53.664V38.904C246.025 38.68 246.137 38.568 246.361 38.568H248.305C248.449 38.568 248.545 38.632 248.593 38.76L252.529 48.696H252.649L256.585 38.76C256.617 38.632 256.713 38.568 256.873 38.568ZM266.451 52.464H268.899C270.243 52.464 270.915 51.768 270.915 50.376V42.192C270.915 40.8 270.243 40.104 268.899 40.104H266.451C265.123 40.104 264.459 40.8 264.459 42.192V50.376C264.459 51.768 265.123 52.464 266.451 52.464ZM269.115 54H266.259C265.155 54 264.283 53.688 263.643 53.064C263.019 52.44 262.707 51.568 262.707 50.448V42.12C262.707 41 263.019 40.128 263.643 39.504C264.283 38.88 265.155 38.568 266.259 38.568H269.115C270.219 38.568 271.083 38.888 271.707 39.528C272.347 40.152 272.667 41.016 272.667 42.12V50.448C272.667 51.552 272.347 52.424 271.707 53.064C271.083 53.688 270.219 54 269.115 54ZM287.06 38.568H289.004C289.228 38.568 289.34 38.68 289.34 38.904V53.664C289.34 53.888 289.228 54 289.004 54H287.948C287.724 54 287.612 53.888 287.612 53.664V40.92H287.516L283.796 50.328C283.7 50.536 283.556 50.64 283.364 50.64H282.212C282.004 50.64 281.868 50.536 281.804 50.328L278.012 40.896H277.916V53.664C277.916 53.888 277.812 54 277.604 54H276.548C276.324 54 276.212 53.888 276.212 53.664V38.904C276.212 38.68 276.324 38.568 276.548 38.568H278.492C278.636 38.568 278.732 38.632 278.78 38.76L282.716 48.696H282.836L286.772 38.76C286.804 38.632 286.9 38.568 287.06 38.568ZM301.006 54H293.47C293.246 54 293.134 53.888 293.134 53.664V38.904C293.134 38.68 293.246 38.568 293.47 38.568H301.006C301.23 38.568 301.342 38.68 301.342 38.904V39.768C301.342 39.992 301.23 40.104 301.006 40.104H295.126C294.966 40.104 294.886 40.176 294.886 40.32V45.168C294.886 45.312 294.966 45.384 295.126 45.384H300.262C300.486 45.384 300.598 45.496 300.598 45.72V46.584C300.598 46.808 300.486 46.92 300.262 46.92H295.126C294.966 46.92 294.886 46.992 294.886 47.136V52.248C294.886 52.392 294.966 52.464 295.126 52.464H301.006C301.23 52.464 301.342 52.576 301.342 52.8V53.664C301.342 53.888 301.23 54 301.006 54ZM306.058 54H305.002C304.778 54 304.666 53.888 304.666 53.664V38.904C304.666 38.68 304.778 38.568 305.002 38.568H305.986C306.178 38.568 306.306 38.632 306.37 38.76L312.994 50.4H313.09V38.904C313.09 38.68 313.202 38.568 313.426 38.568H314.482C314.706 38.568 314.818 38.68 314.818 38.904V53.664C314.818 53.888 314.706 54 314.482 54H313.594C313.418 54 313.25 53.896 313.09 53.688L306.49 42.168H306.394V53.664C306.394 53.888 306.282 54 306.058 54ZM322.379 54H321.299C321.075 54 320.963 53.888 320.963 53.664V40.32C320.963 40.176 320.883 40.104 320.723 40.104H317.459C317.219 40.104 317.099 39.992 317.099 39.768V38.904C317.099 38.68 317.219 38.568 317.459 38.568H326.219C326.459 38.568 326.579 38.68 326.579 38.904V39.768C326.579 39.992 326.459 40.104 326.219 40.104H322.955C322.795 40.104 322.715 40.176 322.715 40.32V53.664C322.715 53.888 322.603 54 322.379 54ZM336.939 52.464H340.971C342.315 52.464 342.987 51.768 342.987 50.376V42.192C342.987 40.8 342.315 40.104 340.971 40.104H336.939C336.779 40.104 336.699 40.176 336.699 40.32V52.248C336.699 52.392 336.779 52.464 336.939 52.464ZM334.947 53.664V38.904C334.947 38.68 335.059 38.568 335.283 38.568H341.187C342.291 38.568 343.155 38.888 343.779 39.528C344.419 40.152 344.739 41.016 344.739 42.12V50.448C344.739 51.552 344.419 52.424 343.779 53.064C343.155 53.688 342.291 54 341.187 54H335.283C335.059 54 334.947 53.888 334.947 53.664ZM356.155 54H348.619C348.395 54 348.283 53.888 348.283 53.664V38.904C348.283 38.68 348.395 38.568 348.619 38.568H356.155C356.379 38.568 356.491 38.68 356.491 38.904V39.768C356.491 39.992 356.379 40.104 356.155 40.104H350.275C350.115 40.104 350.035 40.176 350.035 40.32V45.168C350.035 45.312 350.115 45.384 350.275 45.384H355.411C355.635 45.384 355.747 45.496 355.747 45.72V46.584C355.747 46.808 355.635 46.92 355.411 46.92H350.275C350.115 46.92 350.035 46.992 350.035 47.136V52.248C350.035 52.392 350.115 52.464 350.275 52.464H356.155C356.379 52.464 356.491 52.576 356.491 52.8V53.664C356.491 53.888 356.379 54 356.155 54ZM367.9 52.464H371.932C373.276 52.464 373.948 51.768 373.948 50.376V42.192C373.948 40.8 373.276 40.104 371.932 40.104H367.9C367.74 40.104 367.66 40.176 367.66 40.32V52.248C367.66 52.392 367.74 52.464 367.9 52.464ZM365.908 53.664V38.904C365.908 38.68 366.02 38.568 366.244 38.568H372.148C373.252 38.568 374.116 38.888 374.74 39.528C375.38 40.152 375.7 41.016 375.7 42.12V50.448C375.7 51.552 375.38 52.424 374.74 53.064C374.116 53.688 373.252 54 372.148 54H366.244C366.02 54 365.908 53.888 365.908 53.664ZM384.476 33.936H385.916C386.028 33.936 386.1 33.968 386.132 34.032C386.164 34.096 386.148 34.176 386.084 34.272L383.972 36.792C383.844 36.952 383.692 37.032 383.516 37.032H382.724C382.5 37.032 382.452 36.92 382.58 36.696L383.948 34.248C384.06 34.04 384.236 33.936 384.476 33.936ZM387.116 54H379.58C379.356 54 379.244 53.888 379.244 53.664V38.904C379.244 38.68 379.356 38.568 379.58 38.568H387.116C387.34 38.568 387.452 38.68 387.452 38.904V39.768C387.452 39.992 387.34 40.104 387.116 40.104H381.236C381.076 40.104 380.996 40.176 380.996 40.32V45.168C380.996 45.312 381.076 45.384 381.236 45.384H386.372C386.596 45.384 386.708 45.496 386.708 45.72V46.584C386.708 46.808 386.596 46.92 386.372 46.92H381.236C381.076 46.92 380.996 46.992 380.996 47.136V52.248C380.996 52.392 381.076 52.464 381.236 52.464H387.116C387.34 52.464 387.452 52.576 387.452 52.8V53.664C387.452 53.888 387.34 54 387.116 54ZM394.543 54H393.463C393.239 54 393.127 53.888 393.127 53.664V40.32C393.127 40.176 393.047 40.104 392.887 40.104H389.623C389.383 40.104 389.263 39.992 389.263 39.768V38.904C389.263 38.68 389.383 38.568 389.623 38.568H398.383C398.623 38.568 398.743 38.68 398.743 38.904V39.768C398.743 39.992 398.623 40.104 398.383 40.104H395.119C394.959 40.104 394.879 40.176 394.879 40.32V53.664C394.879 53.888 394.767 54 394.543 54ZM408.889 54H401.353C401.129 54 401.017 53.888 401.017 53.664V38.904C401.017 38.68 401.129 38.568 401.353 38.568H408.889C409.113 38.568 409.225 38.68 409.225 38.904V39.768C409.225 39.992 409.113 40.104 408.889 40.104H403.009C402.849 40.104 402.769 40.176 402.769 40.32V45.168C402.769 45.312 402.849 45.384 403.009 45.384H408.145C408.369 45.384 408.481 45.496 408.481 45.72V46.584C408.481 46.808 408.369 46.92 408.145 46.92H403.009C402.849 46.92 402.769 46.992 402.769 47.136V52.248C402.769 52.392 402.849 52.464 403.009 52.464H408.889C409.113 52.464 409.225 52.576 409.225 52.8V53.664C409.225 53.888 409.113 54 408.889 54ZM413.94 54H412.884C412.66 54 412.548 53.888 412.548 53.664V38.904C412.548 38.68 412.66 38.568 412.884 38.568H413.868C414.06 38.568 414.188 38.632 414.252 38.76L420.876 50.4H420.972V38.904C420.972 38.68 421.084 38.568 421.308 38.568H422.364C422.588 38.568 422.7 38.68 422.7 38.904V53.664C422.7 53.888 422.588 54 422.364 54H421.476C421.3 54 421.132 53.896 420.972 53.688L414.372 42.168H414.276V53.664C414.276 53.888 414.164 54 413.94 54ZM430.262 54H429.182C428.958 54 428.846 53.888 428.846 53.664V40.32C428.846 40.176 428.766 40.104 428.606 40.104H425.342C425.102 40.104 424.982 39.992 424.982 39.768V38.904C424.982 38.68 425.102 38.568 425.342 38.568H434.102C434.342 38.568 434.462 38.68 434.462 38.904V39.768C434.462 39.992 434.342 40.104 434.102 40.104H430.838C430.678 40.104 430.598 40.176 430.598 40.32V53.664C430.598 53.888 430.486 54 430.262 54ZM444.608 54H437.072C436.848 54 436.736 53.888 436.736 53.664V38.904C436.736 38.68 436.848 38.568 437.072 38.568H444.608C444.832 38.568 444.944 38.68 444.944 38.904V39.768C444.944 39.992 444.832 40.104 444.608 40.104H438.728C438.568 40.104 438.488 40.176 438.488 40.32V45.168C438.488 45.312 438.568 45.384 438.728 45.384H443.864C444.088 45.384 444.2 45.496 444.2 45.72V46.584C444.2 46.808 444.088 46.92 443.864 46.92H438.728C438.568 46.92 438.488 46.992 438.488 47.136V52.248C438.488 52.392 438.568 52.464 438.728 52.464H444.608C444.832 52.464 444.944 52.576 444.944 52.8V53.664C444.944 53.888 444.832 54 444.608 54ZM462.233 54H454.697C454.473 54 454.361 53.888 454.361 53.664V38.904C454.361 38.68 454.473 38.568 454.697 38.568H462.233C462.457 38.568 462.569 38.68 462.569 38.904V39.768C462.569 39.992 462.457 40.104 462.233 40.104H456.353C456.193 40.104 456.113 40.176 456.113 40.32V45.168C456.113 45.312 456.193 45.384 456.353 45.384H461.489C461.713 45.384 461.825 45.496 461.825 45.72V46.584C461.825 46.808 461.713 46.92 461.489 46.92H456.353C456.193 46.92 456.113 46.992 456.113 47.136V52.248C456.113 52.392 456.193 52.464 456.353 52.464H462.233C462.457 52.464 462.569 52.576 462.569 52.8V53.664C462.569 53.888 462.457 54 462.233 54ZM469.66 54H468.58C468.356 54 468.244 53.888 468.244 53.664V40.32C468.244 40.176 468.164 40.104 468.004 40.104H464.74C464.5 40.104 464.38 39.992 464.38 39.768V38.904C464.38 38.68 464.5 38.568 464.74 38.568H473.5C473.74 38.568 473.86 38.68 473.86 38.904V39.768C473.86 39.992 473.74 40.104 473.5 40.104H470.236C470.076 40.104 469.996 40.176 469.996 40.32V53.664C469.996 53.888 469.884 54 469.66 54ZM484.22 52.464H488.252C489.596 52.464 490.268 51.768 490.268 50.376V42.192C490.268 40.8 489.596 40.104 488.252 40.104H484.22C484.06 40.104 483.98 40.176 483.98 40.32V52.248C483.98 52.392 484.06 52.464 484.22 52.464ZM482.228 53.664V38.904C482.228 38.68 482.34 38.568 482.564 38.568H488.468C489.572 38.568 490.436 38.888 491.06 39.528C491.7 40.152 492.02 41.016 492.02 42.12V50.448C492.02 51.552 491.7 52.424 491.06 53.064C490.436 53.688 489.572 54 488.468 54H482.564C482.34 54 482.228 53.888 482.228 53.664ZM503.436 54H495.9C495.676 54 495.564 53.888 495.564 53.664V38.904C495.564 38.68 495.676 38.568 495.9 38.568H503.436C503.66 38.568 503.772 38.68 503.772 38.904V39.768C503.772 39.992 503.66 40.104 503.436 40.104H497.556C497.396 40.104 497.316 40.176 497.316 40.32V45.168C497.316 45.312 497.396 45.384 497.556 45.384H502.692C502.916 45.384 503.028 45.496 503.028 45.72V46.584C503.028 46.808 502.916 46.92 502.692 46.92H497.556C497.396 46.92 497.316 46.992 497.316 47.136V52.248C497.316 52.392 497.396 52.464 497.556 52.464H503.436C503.66 52.464 503.772 52.576 503.772 52.8V53.664C503.772 53.888 503.66 54 503.436 54ZM154.359 90H151.767C150.663 90 149.791 89.688 149.151 89.064C148.527 88.44 148.215 87.568 148.215 86.448V78.12C148.215 77 148.527 76.128 149.151 75.504C149.791 74.88 150.663 74.568 151.767 74.568H154.359C155.463 74.568 156.327 74.888 156.951 75.528C157.575 76.152 157.887 77.016 157.887 78.12V79.104C157.887 79.344 157.775 79.464 157.551 79.464H156.471C156.247 79.464 156.135 79.344 156.135 79.104V78.192C156.135 76.8 155.471 76.104 154.143 76.104H151.959C150.631 76.104 149.967 76.8 149.967 78.192V86.376C149.967 87.768 150.631 88.464 151.959 88.464H154.143C155.471 88.464 156.135 87.768 156.135 86.376V83.688C156.135 83.528 156.063 83.448 155.919 83.448H153.543C153.319 83.448 153.207 83.344 153.207 83.136V82.248C153.207 82.024 153.319 81.912 153.543 81.912H157.407C157.727 81.912 157.887 82.08 157.887 82.416V86.448C157.887 87.568 157.575 88.44 156.951 89.064C156.327 89.688 155.463 90 154.359 90ZM161.631 90H160.431C160.223 90 160.151 89.888 160.215 89.664L164.703 74.904C164.767 74.68 164.919 74.568 165.159 74.568H166.887C167.127 74.568 167.279 74.68 167.343 74.904L171.831 89.664C171.895 89.888 171.823 90 171.615 90H170.391C170.215 90 170.103 89.888 170.055 89.664L168.927 86.16H163.119L161.991 89.664C161.927 89.888 161.807 90 161.631 90ZM165.975 76.368L163.503 84.672H168.543L166.071 76.368H165.975ZM174.232 86.448V85.68C174.232 85.456 174.344 85.344 174.568 85.344H175.648C175.872 85.344 175.984 85.456 175.984 85.68V86.304C175.984 87.744 176.696 88.464 178.12 88.464H180.232C181.656 88.464 182.368 87.728 182.368 86.256V85.44C182.368 84.288 181.416 83.536 179.512 83.184C178.712 83.04 177.912 82.872 177.112 82.68C176.312 82.488 175.632 82.12 175.072 81.576C174.512 81.016 174.232 80.256 174.232 79.296V78.12C174.232 77.016 174.544 76.152 175.168 75.528C175.808 74.888 176.68 74.568 177.784 74.568H180.448C181.536 74.568 182.4 74.888 183.04 75.528C183.68 76.152 184 77.016 184 78.12V78.72C184 78.96 183.896 79.08 183.688 79.08H182.584C182.376 79.08 182.272 78.96 182.272 78.72V78.288C182.272 76.832 181.56 76.104 180.136 76.104H178.096C176.672 76.104 175.96 76.864 175.96 78.384V79.344C175.96 80.16 176.496 80.72 177.568 81.024C178.048 81.152 178.576 81.272 179.152 81.384C179.728 81.48 180.304 81.616 180.88 81.792C181.472 81.952 182.008 82.16 182.488 82.416C182.968 82.656 183.352 83.032 183.64 83.544C183.944 84.04 184.096 84.648 184.096 85.368V86.448C184.096 87.552 183.776 88.424 183.136 89.064C182.496 89.688 181.632 90 180.544 90H177.784C176.696 90 175.832 89.688 175.192 89.064C174.552 88.424 174.232 87.552 174.232 86.448ZM191.48 90H190.4C190.176 90 190.064 89.888 190.064 89.664V76.32C190.064 76.176 189.984 76.104 189.824 76.104H186.56C186.32 76.104 186.2 75.992 186.2 75.768V74.904C186.2 74.68 186.32 74.568 186.56 74.568H195.32C195.56 74.568 195.68 74.68 195.68 74.904V75.768C195.68 75.992 195.56 76.104 195.32 76.104H192.056C191.896 76.104 191.816 76.176 191.816 76.32V89.664C191.816 89.888 191.704 90 191.48 90ZM199.371 90H198.291C198.067 90 197.955 89.888 197.955 89.664V74.904C197.955 74.68 198.067 74.568 198.291 74.568H203.811C204.915 74.568 205.787 74.888 206.427 75.528C207.067 76.152 207.387 77.016 207.387 78.12V80.304C207.387 81.2 207.171 81.944 206.739 82.536C206.307 83.112 205.707 83.496 204.939 83.688V83.784L207.723 89.616C207.867 89.872 207.787 90 207.483 90H206.403C206.131 90 205.931 89.888 205.803 89.664L203.115 83.856H199.947C199.787 83.856 199.707 83.928 199.707 84.072V89.664C199.707 89.888 199.595 90 199.371 90ZM199.947 82.392H203.571C204.947 82.392 205.635 81.704 205.635 80.328V78.192C205.635 76.8 204.947 76.104 203.571 76.104H199.947C199.787 76.104 199.707 76.176 199.707 76.32V82.176C199.707 82.32 199.787 82.392 199.947 82.392ZM214.349 88.464H216.797C218.141 88.464 218.813 87.768 218.813 86.376V78.192C218.813 76.8 218.141 76.104 216.797 76.104H214.349C213.021 76.104 212.357 76.8 212.357 78.192V86.376C212.357 87.768 213.021 88.464 214.349 88.464ZM217.013 90H214.157C213.053 90 212.181 89.688 211.541 89.064C210.917 88.44 210.605 87.568 210.605 86.448V78.12C210.605 77 210.917 76.128 211.541 75.504C212.181 74.88 213.053 74.568 214.157 74.568H217.013C218.117 74.568 218.981 74.888 219.605 75.528C220.245 76.152 220.565 77.016 220.565 78.12V86.448C220.565 87.552 220.245 88.424 219.605 89.064C218.981 89.688 218.117 90 217.013 90ZM225.503 90H224.447C224.223 90 224.111 89.888 224.111 89.664V74.904C224.111 74.68 224.223 74.568 224.447 74.568H225.431C225.623 74.568 225.751 74.632 225.815 74.76L232.439 86.4H232.535V74.904C232.535 74.68 232.647 74.568 232.871 74.568H233.927C234.151 74.568 234.263 74.68 234.263 74.904V89.664C234.263 89.888 234.151 90 233.927 90H233.039C232.863 90 232.695 89.896 232.535 89.688L225.935 78.168H225.839V89.664C225.839 89.888 225.727 90 225.503 90ZM241.56 88.464H244.008C245.352 88.464 246.024 87.768 246.024 86.376V78.192C246.024 76.8 245.352 76.104 244.008 76.104H241.56C240.232 76.104 239.568 76.8 239.568 78.192V86.376C239.568 87.768 240.232 88.464 241.56 88.464ZM244.224 90H241.368C240.264 90 239.392 89.688 238.752 89.064C238.128 88.44 237.816 87.568 237.816 86.448V78.12C237.816 77 238.128 76.128 238.752 75.504C239.392 74.88 240.264 74.568 241.368 74.568H244.224C245.328 74.568 246.192 74.888 246.816 75.528C247.456 76.152 247.776 77.016 247.776 78.12V86.448C247.776 87.552 247.456 88.424 246.816 89.064C246.192 89.688 245.328 90 244.224 90ZM262.17 74.568H264.114C264.338 74.568 264.45 74.68 264.45 74.904V89.664C264.45 89.888 264.338 90 264.114 90H263.058C262.834 90 262.722 89.888 262.722 89.664V76.92H262.626L258.906 86.328C258.81 86.536 258.666 86.64 258.474 86.64H257.322C257.114 86.64 256.978 86.536 256.914 86.328L253.122 76.896H253.026V89.664C253.026 89.888 252.922 90 252.714 90H251.658C251.434 90 251.322 89.888 251.322 89.664V74.904C251.322 74.68 251.434 74.568 251.658 74.568H253.602C253.746 74.568 253.842 74.632 253.89 74.76L257.826 84.696H257.946L261.882 74.76C261.914 74.632 262.01 74.568 262.17 74.568ZM270.116 74.904V89.664C270.116 89.888 270.004 90 269.78 90H268.7C268.476 90 268.364 89.888 268.364 89.664V74.904C268.364 74.68 268.476 74.568 268.7 74.568H269.78C270.004 74.568 270.116 74.68 270.116 74.904ZM281.905 90H274.369C274.145 90 274.033 89.888 274.033 89.664V74.904C274.033 74.68 274.145 74.568 274.369 74.568H281.905C282.129 74.568 282.241 74.68 282.241 74.904V75.768C282.241 75.992 282.129 76.104 281.905 76.104H276.025C275.865 76.104 275.785 76.176 275.785 76.32V81.168C275.785 81.312 275.865 81.384 276.025 81.384H281.161C281.385 81.384 281.497 81.496 281.497 81.72V82.584C281.497 82.808 281.385 82.92 281.161 82.92H276.025C275.865 82.92 275.785 82.992 275.785 83.136V88.248C275.785 88.392 275.865 88.464 276.025 88.464H281.905C282.129 88.464 282.241 88.576 282.241 88.8V89.664C282.241 89.888 282.129 90 281.905 90ZM291.49 86.448V85.68C291.49 85.456 291.602 85.344 291.826 85.344H292.906C293.13 85.344 293.242 85.456 293.242 85.68V86.304C293.242 87.744 293.954 88.464 295.378 88.464H297.49C298.914 88.464 299.626 87.728 299.626 86.256V85.44C299.626 84.288 298.674 83.536 296.77 83.184C295.97 83.04 295.17 82.872 294.37 82.68C293.57 82.488 292.89 82.12 292.33 81.576C291.77 81.016 291.49 80.256 291.49 79.296V78.12C291.49 77.016 291.802 76.152 292.426 75.528C293.066 74.888 293.938 74.568 295.042 74.568H297.706C298.794 74.568 299.658 74.888 300.298 75.528C300.938 76.152 301.258 77.016 301.258 78.12V78.72C301.258 78.96 301.154 79.08 300.946 79.08H299.842C299.634 79.08 299.53 78.96 299.53 78.72V78.288C299.53 76.832 298.818 76.104 297.394 76.104H295.354C293.93 76.104 293.218 76.864 293.218 78.384V79.344C293.218 80.16 293.754 80.72 294.826 81.024C295.306 81.152 295.834 81.272 296.41 81.384C296.986 81.48 297.562 81.616 298.138 81.792C298.73 81.952 299.266 82.16 299.746 82.416C300.226 82.656 300.61 83.032 300.898 83.544C301.202 84.04 301.354 84.648 301.354 85.368V86.448C301.354 87.552 301.034 88.424 300.394 89.064C299.754 89.688 298.89 90 297.802 90H295.042C293.954 90 293.09 89.688 292.45 89.064C291.81 88.424 291.49 87.552 291.49 86.448ZM313.178 74.568H314.258C314.482 74.568 314.594 74.672 314.594 74.88V86.448C314.594 87.568 314.282 88.44 313.658 89.064C313.034 89.688 312.17 90 311.066 90H308.402C307.298 90 306.426 89.688 305.786 89.064C305.162 88.44 304.85 87.568 304.85 86.448V74.904C304.85 74.68 304.962 74.568 305.186 74.568H306.266C306.49 74.568 306.602 74.68 306.602 74.904V86.376C306.602 87.768 307.266 88.464 308.594 88.464H310.85C312.194 88.464 312.866 87.768 312.866 86.376V74.904C312.866 74.68 312.97 74.568 313.178 74.568ZM319.675 90H318.595C318.371 90 318.259 89.888 318.259 89.664V74.904C318.259 74.68 318.371 74.568 318.595 74.568H324.115C325.219 74.568 326.091 74.888 326.731 75.528C327.371 76.152 327.691 77.016 327.691 78.12V80.304C327.691 81.2 327.475 81.944 327.043 82.536C326.611 83.112 326.011 83.496 325.243 83.688V83.784L328.027 89.616C328.171 89.872 328.091 90 327.787 90H326.707C326.435 90 326.235 89.888 326.107 89.664L323.419 83.856H320.251C320.091 83.856 320.011 83.928 320.011 84.072V89.664C320.011 89.888 319.899 90 319.675 90ZM320.251 82.392H323.875C325.251 82.392 325.939 81.704 325.939 80.328V78.192C325.939 76.8 325.251 76.104 323.875 76.104H320.251C320.091 76.104 320.011 76.176 320.011 76.32V82.176C320.011 82.32 320.091 82.392 320.251 82.392ZM345.284 90H337.58C337.356 90 337.244 89.888 337.244 89.664V74.904C337.244 74.68 337.356 74.568 337.58 74.568H338.66C338.884 74.568 338.996 74.68 338.996 74.904V88.2C338.996 88.344 339.076 88.416 339.236 88.416H345.284C345.508 88.416 345.62 88.536 345.62 88.776V89.664C345.62 89.888 345.508 90 345.284 90ZM348.264 90H347.064C346.856 90 346.784 89.888 346.848 89.664L351.336 74.904C351.4 74.68 351.552 74.568 351.792 74.568H353.52C353.76 74.568 353.912 74.68 353.976 74.904L358.464 89.664C358.528 89.888 358.456 90 358.248 90H357.024C356.848 90 356.736 89.888 356.688 89.664L355.56 86.16H349.752L348.624 89.664C348.56 89.888 348.44 90 348.264 90ZM352.608 76.368L350.136 84.672H355.176L352.704 76.368H352.608ZM368.542 90H367.462C367.238 90 367.126 89.888 367.126 89.664V74.904C367.126 74.68 367.238 74.568 367.462 74.568H372.982C374.086 74.568 374.958 74.888 375.598 75.528C376.238 76.152 376.558 77.016 376.558 78.12V80.304C376.558 81.2 376.342 81.944 375.91 82.536C375.478 83.112 374.878 83.496 374.11 83.688V83.784L376.894 89.616C377.038 89.872 376.958 90 376.654 90H375.574C375.302 90 375.102 89.888 374.974 89.664L372.286 83.856H369.118C368.958 83.856 368.878 83.928 368.878 84.072V89.664C368.878 89.888 368.766 90 368.542 90ZM369.118 82.392H372.742C374.118 82.392 374.806 81.704 374.806 80.328V78.192C374.806 76.8 374.118 76.104 372.742 76.104H369.118C368.958 76.104 368.878 76.176 368.878 76.32V82.176C368.878 82.32 368.958 82.392 369.118 82.392ZM385.249 69.936H386.689C386.801 69.936 386.873 69.968 386.905 70.032C386.937 70.096 386.921 70.176 386.857 70.272L384.745 72.792C384.617 72.952 384.465 73.032 384.289 73.032H383.497C383.273 73.032 383.225 72.92 383.353 72.696L384.721 70.248C384.833 70.04 385.009 69.936 385.249 69.936ZM387.889 90H380.353C380.129 90 380.017 89.888 380.017 89.664V74.904C380.017 74.68 380.129 74.568 380.353 74.568H387.889C388.113 74.568 388.225 74.68 388.225 74.904V75.768C388.225 75.992 388.113 76.104 387.889 76.104H382.009C381.849 76.104 381.769 76.176 381.769 76.32V81.168C381.769 81.312 381.849 81.384 382.009 81.384H387.145C387.369 81.384 387.481 81.496 387.481 81.72V82.584C387.481 82.808 387.369 82.92 387.145 82.92H382.009C381.849 82.92 381.769 82.992 381.769 83.136V88.248C381.769 88.392 381.849 88.464 382.009 88.464H387.889C388.113 88.464 388.225 88.576 388.225 88.8V89.664C388.225 89.888 388.113 90 387.889 90ZM397.452 90H394.86C393.756 90 392.884 89.688 392.244 89.064C391.62 88.44 391.308 87.568 391.308 86.448V78.12C391.308 77 391.62 76.128 392.244 75.504C392.884 74.88 393.756 74.568 394.86 74.568H397.452C398.556 74.568 399.42 74.888 400.044 75.528C400.668 76.152 400.98 77.016 400.98 78.12V79.104C400.98 79.344 400.868 79.464 400.644 79.464H399.564C399.34 79.464 399.228 79.344 399.228 79.104V78.192C399.228 76.8 398.564 76.104 397.236 76.104H395.052C393.724 76.104 393.06 76.8 393.06 78.192V86.376C393.06 87.768 393.724 88.464 395.052 88.464H397.236C398.564 88.464 399.228 87.768 399.228 86.376V83.688C399.228 83.528 399.156 83.448 399.012 83.448H396.636C396.412 83.448 396.3 83.344 396.3 83.136V82.248C396.3 82.024 396.412 81.912 396.636 81.912H400.5C400.82 81.912 400.98 82.08 400.98 82.416V86.448C400.98 87.568 400.668 88.44 400.044 89.064C399.42 89.688 398.556 90 397.452 90ZM406.405 74.904V89.664C406.405 89.888 406.293 90 406.069 90H404.989C404.765 90 404.653 89.888 404.653 89.664V74.904C404.653 74.68 404.765 74.568 404.989 74.568H406.069C406.293 74.568 406.405 74.68 406.405 74.904ZM413.826 88.464H416.274C417.618 88.464 418.29 87.768 418.29 86.376V78.192C418.29 76.8 417.618 76.104 416.274 76.104H413.826C412.498 76.104 411.834 76.8 411.834 78.192V86.376C411.834 87.768 412.498 88.464 413.826 88.464ZM416.49 90H413.634C412.53 90 411.658 89.688 411.018 89.064C410.394 88.44 410.082 87.568 410.082 86.448V78.12C410.082 77 410.394 76.128 411.018 75.504C411.658 74.88 412.53 74.568 413.634 74.568H416.49C417.594 74.568 418.458 74.888 419.082 75.528C419.722 76.152 420.042 77.016 420.042 78.12V86.448C420.042 87.552 419.722 88.424 419.082 89.064C418.458 89.688 417.594 90 416.49 90ZM424.979 90H423.923C423.699 90 423.587 89.888 423.587 89.664V74.904C423.587 74.68 423.699 74.568 423.923 74.568H424.907C425.099 74.568 425.227 74.632 425.291 74.76L431.915 86.4H432.011V74.904C432.011 74.68 432.123 74.568 432.347 74.568H433.403C433.627 74.568 433.739 74.68 433.739 74.904V89.664C433.739 89.888 433.627 90 433.403 90H432.515C432.339 90 432.171 89.896 432.011 89.688L425.411 78.168H425.315V89.664C425.315 89.888 425.203 90 424.979 90ZM443.602 77.688V74.904C443.602 74.68 443.714 74.568 443.938 74.568H445.21C445.434 74.568 445.546 74.68 445.546 74.904V77.688C445.546 79.208 445.498 80.688 445.402 82.128C445.306 83.568 445.242 84.384 445.21 84.576C445.178 84.768 445.074 84.864 444.898 84.864H444.25C444.042 84.864 443.93 84.744 443.914 84.504C443.85 83.88 443.778 82.784 443.698 81.216C443.634 79.648 443.602 78.472 443.602 77.688ZM445.498 86.76V89.664C445.498 89.888 445.386 90 445.162 90H444.01C443.802 90 443.698 89.88 443.698 89.64V86.76C443.698 86.552 443.802 86.448 444.01 86.448H445.162C445.386 86.448 445.498 86.552 445.498 86.76ZM450.426 74.88V76.272C450.426 76.64 450.314 77.16 450.09 77.832L449.274 80.112C449.226 80.224 449.138 80.28 449.01 80.28C448.834 80.28 448.746 80.184 448.746 79.992V74.904C448.746 74.68 448.858 74.568 449.082 74.568H450.114C450.322 74.568 450.426 74.672 450.426 74.88ZM454.122 74.88V76.272C454.122 76.672 454.002 77.192 453.762 77.832L452.97 80.112C452.922 80.224 452.818 80.28 452.658 80.28C452.514 80.28 452.442 80.184 452.442 79.992V74.904C452.442 74.68 452.546 74.568 452.754 74.568H453.81C454.018 74.568 454.122 74.672 454.122 74.88Z" fill="#686666"/>
    <path d="M197.931 113.4H201.963C203.007 113.4 203.931 113.652 204.735 114.156C205.551 114.66 206.187 115.386 206.643 116.334C207.099 117.282 207.327 118.404 207.327 119.7C207.327 120.996 207.099 122.118 206.643 123.066C206.187 124.014 205.551 124.74 204.735 125.244C203.931 125.748 203.007 126 201.963 126H197.931V113.4ZM201.657 124.506C202.917 124.506 203.871 124.086 204.519 123.246C205.179 122.406 205.509 121.224 205.509 119.7C205.509 118.176 205.179 116.994 204.519 116.154C203.871 115.314 202.917 114.894 201.657 114.894H199.569V124.506H201.657ZM212.479 126.18C211.591 126.18 210.829 125.976 210.193 125.568C209.569 125.148 209.095 124.584 208.771 123.876C208.459 123.168 208.303 122.382 208.303 121.518C208.303 120.69 208.447 119.934 208.735 119.25C209.035 118.554 209.461 118.008 210.013 117.612C210.577 117.204 211.243 117 212.011 117C212.995 117 213.793 117.33 214.405 117.99C215.029 118.65 215.341 119.562 215.341 120.726C215.341 120.93 215.317 121.212 215.269 121.572H209.905C209.941 122.616 210.199 123.408 210.679 123.948C211.171 124.488 211.807 124.758 212.587 124.758C212.959 124.758 213.349 124.716 213.757 124.632C214.177 124.536 214.543 124.404 214.855 124.236L214.999 125.64C214.339 126 213.499 126.18 212.479 126.18ZM213.739 120.474C213.739 119.874 213.589 119.388 213.289 119.016C213.001 118.632 212.581 118.44 212.029 118.44C211.489 118.44 211.039 118.608 210.679 118.944C210.331 119.28 210.097 119.79 209.977 120.474H213.739ZM210.715 114.39L213.361 112.698V114.462L210.715 115.488V114.39ZM220.264 126.18C218.92 126.18 217.9 125.76 217.204 124.92C216.508 124.068 216.16 122.976 216.16 121.644C216.16 120.264 216.508 119.148 217.204 118.296C217.9 117.432 218.932 117 220.3 117C221.032 117 221.686 117.15 222.262 117.45L222.01 118.836C221.47 118.548 220.906 118.404 220.318 118.404C219.514 118.404 218.884 118.686 218.428 119.25C217.984 119.802 217.762 120.576 217.762 121.572C217.762 122.568 217.99 123.354 218.446 123.93C218.914 124.506 219.556 124.794 220.372 124.794C220.996 124.794 221.548 124.65 222.028 124.362L222.244 125.766C222.004 125.886 221.704 125.982 221.344 126.054C220.984 126.138 220.624 126.18 220.264 126.18ZM226.796 126.18C226.004 126.18 225.32 125.982 224.744 125.586C224.168 125.178 223.724 124.626 223.412 123.93C223.112 123.234 222.962 122.454 222.962 121.59C222.962 120.726 223.112 119.946 223.412 119.25C223.724 118.554 224.168 118.008 224.744 117.612C225.32 117.204 226.004 117 226.796 117C227.576 117 228.254 117.204 228.83 117.612C229.406 118.008 229.844 118.554 230.144 119.25C230.444 119.946 230.594 120.726 230.594 121.59C230.594 122.454 230.444 123.234 230.144 123.93C229.844 124.626 229.406 125.178 228.83 125.586C228.254 125.982 227.576 126.18 226.796 126.18ZM226.796 124.794C227.492 124.794 228.032 124.512 228.416 123.948C228.8 123.384 228.992 122.598 228.992 121.59C228.992 120.582 228.8 119.802 228.416 119.25C228.032 118.686 227.492 118.404 226.796 118.404C226.076 118.404 225.524 118.686 225.14 119.25C224.756 119.802 224.564 120.582 224.564 121.59C224.564 122.61 224.756 123.402 225.14 123.966C225.524 124.518 226.076 124.794 226.796 124.794ZM238.347 117.18V126H237.015L236.907 124.92C236.667 125.316 236.343 125.628 235.935 125.856C235.527 126.072 235.077 126.18 234.585 126.18C233.661 126.18 232.971 125.874 232.515 125.262C232.071 124.638 231.849 123.75 231.849 122.598V117.18H233.415V122.4C233.415 123.192 233.529 123.786 233.757 124.182C233.997 124.566 234.393 124.758 234.945 124.758C235.329 124.758 235.677 124.65 235.989 124.434C236.301 124.218 236.565 123.918 236.781 123.534V117.18H238.347ZM239.635 117.18H241.309L243.361 124.146L245.377 117.18H247.051L244.135 126H242.569L239.635 117.18ZM248.148 117.18H249.426L249.624 118.656C250.02 118.08 250.392 117.66 250.74 117.396C251.1 117.132 251.478 117 251.874 117C252.03 117 252.168 117.018 252.288 117.054L252.126 118.836C251.97 118.8 251.79 118.782 251.586 118.782C251.19 118.782 250.818 118.884 250.47 119.088C250.122 119.28 249.87 119.508 249.714 119.772V126H248.148V117.18ZM253.475 113.4H255.041V115.182H253.475V113.4ZM253.475 117.18H255.041V126H253.475V117.18ZM257.13 117.18H258.408L258.606 118.656C259.002 118.08 259.374 117.66 259.722 117.396C260.082 117.132 260.46 117 260.856 117C261.012 117 261.15 117.018 261.27 117.054L261.108 118.836C260.952 118.8 260.772 118.782 260.568 118.782C260.172 118.782 259.8 118.884 259.452 119.088C259.104 119.28 258.852 119.508 258.696 119.772V126H257.13V117.18ZM268.187 126.18C267.155 126.18 266.261 125.94 265.505 125.46L265.703 123.876C266.471 124.476 267.263 124.776 268.079 124.776C268.511 124.776 268.847 124.686 269.087 124.506C269.339 124.326 269.465 124.062 269.465 123.714C269.465 123.45 269.405 123.234 269.285 123.066C269.177 122.898 268.991 122.736 268.727 122.58C268.463 122.424 268.055 122.22 267.503 121.968C266.855 121.668 266.381 121.326 266.081 120.942C265.781 120.558 265.631 120.06 265.631 119.448C265.631 118.728 265.883 118.14 266.387 117.684C266.891 117.228 267.569 117 268.421 117C269.285 117 270.041 117.192 270.689 117.576L270.491 119.034C270.167 118.818 269.861 118.662 269.573 118.566C269.285 118.458 268.943 118.404 268.547 118.404C268.127 118.404 267.797 118.494 267.557 118.674C267.317 118.854 267.197 119.106 267.197 119.43C267.197 119.754 267.299 120 267.503 120.168C267.719 120.336 268.133 120.558 268.745 120.834C269.597 121.218 270.197 121.608 270.545 122.004C270.893 122.388 271.067 122.898 271.067 123.534C271.067 124.362 270.809 125.01 270.293 125.478C269.777 125.946 269.075 126.18 268.187 126.18ZM278.723 117.18V126H277.391L277.283 124.92C277.043 125.316 276.719 125.628 276.311 125.856C275.903 126.072 275.453 126.18 274.961 126.18C274.037 126.18 273.347 125.874 272.891 125.262C272.447 124.638 272.225 123.75 272.225 122.598V117.18H273.791V122.4C273.791 123.192 273.905 123.786 274.133 124.182C274.373 124.566 274.769 124.758 275.321 124.758C275.705 124.758 276.053 124.65 276.365 124.434C276.677 124.218 276.941 123.918 277.157 123.534V117.18H278.723ZM280.966 117.18H282.244L282.442 118.656C282.838 118.08 283.21 117.66 283.558 117.396C283.918 117.132 284.296 117 284.692 117C284.848 117 284.986 117.018 285.106 117.054L284.944 118.836C284.788 118.8 284.608 118.782 284.404 118.782C284.008 118.782 283.636 118.884 283.288 119.088C282.94 119.28 282.688 119.508 282.532 119.772V126H280.966V117.18Z" fill="#8F8F8F"/>
    <path d="M291.889 123.36L293.011 122.194C293.803 123.03 294.647 123.668 295.541 124.108C296.451 124.533 297.404 124.746 298.401 124.746C299.604 124.746 300.594 124.46 301.371 123.888C302.149 123.316 302.537 122.59 302.537 121.71C302.537 120.918 302.259 120.309 301.701 119.884C301.159 119.459 300.257 119.143 298.995 118.938L296.773 118.586C295.292 118.351 294.199 117.919 293.495 117.288C292.791 116.643 292.439 115.777 292.439 114.692C292.439 113.416 292.938 112.382 293.935 111.59C294.933 110.798 296.238 110.402 297.851 110.402C298.922 110.402 299.985 110.578 301.041 110.93C302.097 111.282 303.058 111.788 303.923 112.448L302.955 113.768C302.119 113.137 301.269 112.661 300.403 112.338C299.538 112.015 298.665 111.854 297.785 111.854C296.685 111.854 295.791 112.111 295.101 112.624C294.427 113.123 294.089 113.768 294.089 114.56C294.089 115.279 294.331 115.829 294.815 116.21C295.299 116.591 296.099 116.87 297.213 117.046L299.413 117.398C301.085 117.677 302.303 118.153 303.065 118.828C303.843 119.503 304.231 120.434 304.231 121.622C304.231 122.297 304.085 122.92 303.791 123.492C303.513 124.049 303.109 124.533 302.581 124.944C302.068 125.34 301.445 125.655 300.711 125.89C299.993 126.11 299.201 126.22 298.335 126.22C297.118 126.22 295.945 125.978 294.815 125.494C293.701 124.995 292.725 124.284 291.889 123.36ZM307.787 114.978V121.622C307.787 122.59 308.066 123.36 308.623 123.932C309.18 124.504 309.928 124.79 310.867 124.79C311.527 124.79 312.114 124.643 312.627 124.35C313.155 124.042 313.58 123.617 313.903 123.074V114.978H315.531V126H313.903V124.724C313.478 125.223 312.972 125.597 312.385 125.846C311.813 126.095 311.168 126.22 310.449 126.22C309.188 126.22 308.161 125.824 307.369 125.032C306.577 124.24 306.181 123.213 306.181 121.952V114.978H307.787ZM326.901 126V124.834C326.432 125.274 325.889 125.611 325.273 125.846C324.672 126.066 324.026 126.176 323.337 126.176C322.56 126.176 321.834 126.029 321.159 125.736C320.484 125.443 319.898 125.047 319.399 124.548C318.9 124.035 318.504 123.426 318.211 122.722C317.932 122.018 317.793 121.27 317.793 120.478C317.793 119.686 317.932 118.945 318.211 118.256C318.504 117.552 318.9 116.951 319.399 116.452C319.898 115.939 320.484 115.535 321.159 115.242C321.848 114.949 322.582 114.802 323.359 114.802C323.99 114.802 324.606 114.912 325.207 115.132C325.823 115.337 326.38 115.645 326.879 116.056V110.6L328.507 110.226V126H326.901ZM319.399 120.456C319.399 121.057 319.502 121.622 319.707 122.15C319.927 122.678 320.22 123.133 320.587 123.514C320.954 123.895 321.386 124.196 321.885 124.416C322.384 124.636 322.919 124.746 323.491 124.746C324.18 124.746 324.818 124.614 325.405 124.35C326.006 124.071 326.498 123.69 326.879 123.206V117.75C326.498 117.281 326.006 116.914 325.405 116.65C324.804 116.371 324.166 116.232 323.491 116.232C322.347 116.232 321.379 116.635 320.587 117.442C319.795 118.249 319.399 119.253 319.399 120.456ZM343.614 124.68C344.568 124.68 345.477 124.497 346.342 124.13C347.208 123.749 347.934 123.228 348.52 122.568L349.62 123.712C348.858 124.504 347.948 125.127 346.892 125.582C345.836 126.022 344.729 126.242 343.57 126.242C342.456 126.242 341.407 126.037 340.424 125.626C339.456 125.215 338.613 124.658 337.894 123.954C337.176 123.235 336.611 122.392 336.2 121.424C335.79 120.441 335.584 119.4 335.584 118.3C335.584 117.2 335.79 116.166 336.2 115.198C336.611 114.215 337.176 113.372 337.894 112.668C338.613 111.949 339.456 111.385 340.424 110.974C341.407 110.563 342.456 110.358 343.57 110.358C344.758 110.358 345.88 110.585 346.936 111.04C348.007 111.48 348.916 112.096 349.664 112.888L348.542 114.076C347.941 113.401 347.193 112.873 346.298 112.492C345.418 112.111 344.509 111.92 343.57 111.92C342.69 111.92 341.862 112.089 341.084 112.426C340.322 112.749 339.662 113.196 339.104 113.768C338.547 114.325 338.107 115 337.784 115.792C337.462 116.569 337.3 117.405 337.3 118.3C337.3 119.195 337.462 120.038 337.784 120.83C338.107 121.607 338.547 122.282 339.104 122.854C339.676 123.411 340.344 123.859 341.106 124.196C341.884 124.519 342.72 124.68 343.614 124.68ZM353.011 114.978V121.622C353.011 122.59 353.29 123.36 353.847 123.932C354.405 124.504 355.153 124.79 356.091 124.79C356.751 124.79 357.338 124.643 357.851 124.35C358.379 124.042 358.805 123.617 359.127 123.074V114.978H360.755V126H359.127V124.724C358.702 125.223 358.196 125.597 357.609 125.846C357.037 126.095 356.392 126.22 355.673 126.22C354.412 126.22 353.385 125.824 352.593 125.032C351.801 124.24 351.405 123.213 351.405 121.952V114.978H353.011ZM364.338 112.866C364.044 112.866 363.788 112.756 363.568 112.536C363.348 112.316 363.238 112.059 363.238 111.766C363.238 111.458 363.348 111.201 363.568 110.996C363.788 110.776 364.044 110.666 364.338 110.666C364.646 110.666 364.902 110.776 365.108 110.996C365.328 111.201 365.438 111.458 365.438 111.766C365.438 112.059 365.328 112.316 365.108 112.536C364.902 112.756 364.646 112.866 364.338 112.866ZM365.152 114.978V126H363.524V114.978H365.152ZM366.806 124.482L367.796 123.426C368.295 123.895 368.852 124.262 369.468 124.526C370.099 124.775 370.737 124.9 371.382 124.9C372.262 124.9 372.981 124.717 373.538 124.35C374.095 123.983 374.374 123.507 374.374 122.92C374.374 122.451 374.205 122.084 373.868 121.82C373.545 121.541 373.032 121.351 372.328 121.248L370.414 120.984C369.314 120.823 368.493 120.5 367.95 120.016C367.422 119.517 367.158 118.85 367.158 118.014C367.158 117.09 367.547 116.327 368.324 115.726C369.101 115.11 370.091 114.802 371.294 114.802C372.086 114.802 372.834 114.919 373.538 115.154C374.257 115.389 374.953 115.755 375.628 116.254L374.77 117.354C374.154 116.943 373.553 116.635 372.966 116.43C372.394 116.225 371.807 116.122 371.206 116.122C370.458 116.122 369.842 116.291 369.358 116.628C368.889 116.965 368.654 117.405 368.654 117.948C368.654 118.417 368.815 118.784 369.138 119.048C369.461 119.297 369.981 119.473 370.7 119.576L372.614 119.84C373.714 119.987 374.535 120.317 375.078 120.83C375.635 121.329 375.914 121.996 375.914 122.832C375.914 123.301 375.797 123.749 375.562 124.174C375.342 124.585 375.027 124.944 374.616 125.252C374.22 125.545 373.751 125.78 373.208 125.956C372.665 126.117 372.079 126.198 371.448 126.198C370.539 126.198 369.681 126.051 368.874 125.758C368.082 125.45 367.393 125.025 366.806 124.482ZM378.56 112.866C378.267 112.866 378.01 112.756 377.79 112.536C377.57 112.316 377.46 112.059 377.46 111.766C377.46 111.458 377.57 111.201 377.79 110.996C378.01 110.776 378.267 110.666 378.56 110.666C378.868 110.666 379.125 110.776 379.33 110.996C379.55 111.201 379.66 111.458 379.66 111.766C379.66 112.059 379.55 112.316 379.33 112.536C379.125 112.756 378.868 112.866 378.56 112.866ZM379.374 114.978V126H377.746V114.978H379.374ZM382.151 126V114.978H383.779V116.276C384.204 115.777 384.71 115.403 385.297 115.154C385.883 114.89 386.536 114.758 387.255 114.758C388.501 114.758 389.521 115.154 390.313 115.946C391.105 116.738 391.501 117.765 391.501 119.026V126H389.895V119.356C389.895 118.388 389.616 117.618 389.059 117.046C388.501 116.474 387.753 116.188 386.815 116.188C386.155 116.188 385.561 116.335 385.033 116.628C384.519 116.921 384.101 117.339 383.779 117.882V126H382.151ZM403.509 124.834C402.893 125.289 402.248 125.633 401.573 125.868C400.913 126.088 400.187 126.198 399.395 126.198C398.603 126.198 397.855 126.051 397.151 125.758C396.462 125.465 395.86 125.061 395.347 124.548C394.848 124.035 394.452 123.433 394.159 122.744C393.866 122.04 393.719 121.285 393.719 120.478C393.719 119.686 393.858 118.945 394.137 118.256C394.43 117.567 394.819 116.965 395.303 116.452C395.787 115.939 396.359 115.535 397.019 115.242C397.694 114.949 398.405 114.802 399.153 114.802C399.886 114.802 400.568 114.949 401.199 115.242C401.844 115.535 402.394 115.939 402.849 116.452C403.318 116.965 403.685 117.567 403.949 118.256C404.228 118.945 404.367 119.686 404.367 120.478V120.984H395.325C395.442 122.069 395.89 122.971 396.667 123.69C397.444 124.409 398.376 124.768 399.461 124.768C400.033 124.768 400.59 124.68 401.133 124.504C401.676 124.328 402.13 124.079 402.497 123.756L403.509 124.834ZM399.109 116.232C398.156 116.232 397.327 116.555 396.623 117.2C395.934 117.845 395.516 118.674 395.369 119.686H402.739C402.592 118.718 402.174 117.904 401.485 117.244C400.81 116.569 400.018 116.232 399.109 116.232Z" fill="#C54B25"/>
    <path d="M263.219 202.939C262.669 202.939 262.212 202.876 261.848 202.749C261.484 202.631 261.196 202.495 260.984 202.343C260.773 202.19 260.625 202.047 260.54 201.911C260.455 201.767 260.413 201.674 260.413 201.632C260.413 201.479 260.447 201.319 260.515 201.149C260.582 200.972 260.667 200.811 260.769 200.667C260.87 200.515 260.98 200.388 261.099 200.286C261.217 200.185 261.323 200.134 261.416 200.134C261.535 200.134 261.632 200.21 261.708 200.362C261.725 200.379 261.767 200.422 261.835 200.489C261.903 200.557 261.996 200.629 262.114 200.705C262.241 200.773 262.394 200.836 262.571 200.896C262.757 200.955 262.973 200.984 263.219 200.984C263.752 200.984 264.188 200.824 264.526 200.502C264.865 200.172 265.034 199.728 265.034 199.169C265.034 198.78 264.941 198.433 264.755 198.128C264.577 197.823 264.34 197.54 264.044 197.277C263.748 197.015 263.409 196.761 263.028 196.516C262.647 196.262 262.258 195.999 261.86 195.729C261.463 195.458 261.073 195.166 260.692 194.853C260.312 194.539 259.973 194.18 259.677 193.773C259.381 193.367 259.139 192.91 258.953 192.402C258.775 191.886 258.687 191.298 258.687 190.638C258.687 190.071 258.784 189.499 258.979 188.924C259.173 188.348 259.44 187.802 259.778 187.286C260.125 186.761 260.532 186.275 260.997 185.826C261.463 185.369 261.966 184.976 262.508 184.646C263.049 184.307 263.612 184.045 264.196 183.858C264.789 183.664 265.381 183.566 265.974 183.566C266.481 183.566 266.938 183.647 267.345 183.808C267.751 183.968 268.094 184.197 268.373 184.493C268.652 184.781 268.868 185.132 269.021 185.547C269.173 185.953 269.249 186.41 269.249 186.918C269.249 187.4 269.164 187.874 268.995 188.34C268.826 188.805 268.602 189.245 268.322 189.66C268.043 190.075 267.726 190.46 267.37 190.815C267.023 191.162 266.663 191.467 266.291 191.729C265.927 191.983 265.572 192.182 265.225 192.326C264.878 192.47 264.573 192.542 264.311 192.542C264.082 192.542 263.875 192.491 263.688 192.39C263.511 192.28 263.358 192.148 263.231 191.996C263.113 191.835 263.02 191.67 262.952 191.501C262.884 191.323 262.851 191.167 262.851 191.031C262.851 190.921 262.863 190.849 262.889 190.815C262.923 190.782 262.965 190.769 263.016 190.777C263.075 190.777 263.147 190.79 263.231 190.815C263.316 190.832 263.413 190.841 263.523 190.841C263.879 190.841 264.272 190.718 264.704 190.473C265.136 190.227 265.542 189.914 265.923 189.533C266.304 189.152 266.621 188.733 266.875 188.276C267.137 187.819 267.269 187.375 267.269 186.943C267.269 186.503 267.159 186.156 266.938 185.902C266.727 185.648 266.363 185.521 265.847 185.521C265.525 185.521 265.174 185.585 264.793 185.712C264.421 185.83 264.044 186 263.663 186.22C263.282 186.44 262.914 186.706 262.559 187.02C262.203 187.333 261.89 187.68 261.619 188.061C261.348 188.433 261.128 188.839 260.959 189.279C260.798 189.711 260.718 190.164 260.718 190.638C260.718 191.137 260.807 191.586 260.984 191.983C261.171 192.373 261.412 192.728 261.708 193.05C262.013 193.371 262.355 193.668 262.736 193.938C263.117 194.209 263.507 194.48 263.904 194.751C264.302 195.013 264.691 195.288 265.072 195.576C265.453 195.855 265.792 196.169 266.088 196.516C266.393 196.854 266.634 197.235 266.812 197.658C266.998 198.073 267.091 198.551 267.091 199.093C267.091 199.618 266.989 200.117 266.786 200.591C266.591 201.056 266.321 201.463 265.974 201.81C265.627 202.157 265.216 202.432 264.742 202.635C264.268 202.838 263.76 202.939 263.219 202.939ZM276.536 202.724C276.24 202.724 275.969 202.677 275.724 202.584C275.487 202.491 275.275 202.36 275.089 202.19C274.911 202.03 274.763 201.839 274.645 201.619C274.526 201.391 274.446 201.145 274.403 200.883C274.09 201.433 273.722 201.882 273.299 202.229C272.876 202.576 272.376 202.749 271.801 202.749C271.369 202.749 270.98 202.66 270.633 202.482C270.294 202.305 270.007 202.055 269.77 201.733C269.533 201.403 269.351 201.01 269.224 200.553C269.105 200.087 269.046 199.571 269.046 199.004C269.046 198.318 269.092 197.629 269.186 196.935C269.287 196.241 269.397 195.614 269.516 195.056C269.651 194.404 269.808 193.773 269.985 193.164C270.028 193.054 270.057 192.944 270.074 192.834C270.1 192.715 270.15 192.61 270.227 192.517C270.303 192.424 270.421 192.347 270.582 192.288C270.751 192.229 271.009 192.199 271.356 192.199C271.678 192.199 271.885 192.258 271.979 192.377C272.072 192.487 272.105 192.618 272.08 192.771C272.063 192.923 272.012 193.079 271.928 193.24C271.852 193.401 271.801 193.532 271.775 193.634C271.657 194.116 271.551 194.556 271.458 194.954C271.365 195.352 271.285 195.754 271.217 196.16C271.158 196.558 271.111 196.977 271.077 197.417C271.043 197.849 271.026 198.335 271.026 198.877C271.026 199.588 271.128 200.125 271.331 200.489C271.543 200.853 271.839 201.035 272.22 201.035C272.482 201.035 272.723 200.938 272.943 200.743C273.172 200.549 273.375 200.29 273.553 199.969C273.739 199.639 273.9 199.266 274.035 198.852C274.171 198.428 274.276 197.988 274.353 197.531V193.342C274.353 193.156 274.336 193.007 274.302 192.897C274.276 192.787 274.247 192.703 274.213 192.644C274.188 192.576 274.158 192.525 274.124 192.491C274.099 192.449 274.086 192.402 274.086 192.352C274.086 192.309 274.111 192.271 274.162 192.237C274.213 192.203 274.281 192.174 274.365 192.148C274.45 192.123 274.539 192.106 274.632 192.098C274.733 192.081 274.831 192.072 274.924 192.072C275.355 192.072 275.694 192.187 275.939 192.415C276.193 192.635 276.32 192.902 276.32 193.215V199.816C276.32 199.876 276.325 199.973 276.333 200.108C276.341 200.235 276.367 200.367 276.409 200.502C276.451 200.637 276.519 200.756 276.612 200.857C276.705 200.959 276.837 201.01 277.006 201.01C277.268 201.01 277.493 200.917 277.679 200.73C277.873 200.544 278.038 200.312 278.174 200.032C278.318 199.753 278.432 199.452 278.517 199.131C278.61 198.801 278.686 198.492 278.745 198.204C278.796 197.933 278.881 197.739 278.999 197.62C279.118 197.493 279.24 197.43 279.367 197.43C279.469 197.43 279.575 197.464 279.685 197.531C279.795 197.59 279.892 197.671 279.977 197.772C280.07 197.874 280.142 197.988 280.192 198.115C280.252 198.242 280.281 198.369 280.281 198.496C280.281 198.513 280.281 198.534 280.281 198.56C280.281 198.585 280.273 198.623 280.256 198.674C280.137 199.105 279.981 199.558 279.786 200.032C279.6 200.506 279.359 200.942 279.062 201.34C278.766 201.738 278.411 202.068 277.996 202.33C277.581 202.592 277.095 202.724 276.536 202.724ZM281.767 202.724C281.259 202.724 280.798 202.635 280.383 202.457C279.968 202.279 279.613 202.017 279.316 201.67C279.029 201.314 278.804 200.879 278.644 200.362C278.491 199.838 278.415 199.232 278.415 198.547C278.415 197.548 278.555 196.66 278.834 195.881C279.113 195.094 279.494 194.421 279.977 193.862C280.459 193.295 281.018 192.847 281.652 192.517C282.287 192.178 282.96 191.958 283.671 191.856V185.979C283.671 185.792 283.654 185.644 283.62 185.534C283.595 185.424 283.565 185.34 283.531 185.28C283.506 185.213 283.476 185.162 283.442 185.128C283.417 185.086 283.404 185.043 283.404 185.001C283.404 184.95 283.43 184.908 283.48 184.874C283.531 184.84 283.599 184.811 283.684 184.785C283.768 184.76 283.857 184.743 283.95 184.734C284.052 184.717 284.149 184.709 284.242 184.709C284.674 184.709 285.012 184.823 285.258 185.052C285.512 185.272 285.639 185.538 285.639 185.852V199.816C285.639 199.96 285.656 200.104 285.689 200.248C285.723 200.383 285.774 200.51 285.842 200.629C285.918 200.739 286.011 200.832 286.121 200.908C286.24 200.976 286.375 201.01 286.527 201.01C286.79 201.01 287.014 200.917 287.2 200.73C287.395 200.544 287.56 200.312 287.695 200.032C287.839 199.753 287.953 199.452 288.038 199.131C288.131 198.801 288.207 198.492 288.267 198.204C288.317 197.933 288.402 197.739 288.521 197.62C288.639 197.493 288.762 197.43 288.889 197.43C288.99 197.43 289.096 197.464 289.206 197.531C289.316 197.59 289.413 197.671 289.498 197.772C289.591 197.874 289.663 197.988 289.714 198.115C289.773 198.242 289.803 198.369 289.803 198.496C289.803 198.513 289.803 198.534 289.803 198.56C289.803 198.585 289.794 198.623 289.777 198.674C289.667 199.105 289.515 199.558 289.32 200.032C289.134 200.506 288.889 200.942 288.584 201.34C288.288 201.738 287.932 202.068 287.518 202.33C287.103 202.592 286.616 202.724 286.058 202.724C285.609 202.724 285.215 202.631 284.877 202.444C284.538 202.258 284.272 202.013 284.077 201.708C283.789 202.004 283.455 202.245 283.074 202.432C282.702 202.626 282.266 202.724 281.767 202.724ZM282.16 201.01C282.499 201.01 282.791 200.912 283.036 200.718C283.29 200.523 283.502 200.282 283.671 199.994V193.57C283.248 193.646 282.837 193.79 282.439 194.002C282.05 194.205 281.703 194.493 281.398 194.865C281.102 195.238 280.865 195.712 280.688 196.287C280.51 196.854 280.421 197.544 280.421 198.356C280.421 198.83 280.467 199.237 280.561 199.575C280.662 199.905 280.789 200.176 280.941 200.388C281.102 200.599 281.288 200.756 281.5 200.857C281.712 200.959 281.932 201.01 282.16 201.01ZM293.345 191.184C293.666 191.184 294.005 191.129 294.36 191.019C294.716 190.9 295.067 190.743 295.414 190.549C295.77 190.346 296.104 190.109 296.417 189.838C296.739 189.559 297.018 189.258 297.255 188.937C297.5 188.606 297.695 188.264 297.839 187.908C297.983 187.544 298.055 187.18 298.055 186.816C298.055 186.664 298.025 186.503 297.966 186.334C297.915 186.165 297.826 186.008 297.699 185.864C297.581 185.72 297.42 185.602 297.217 185.509C297.014 185.407 296.764 185.356 296.468 185.356C295.892 185.356 295.342 185.492 294.817 185.763C294.301 186.034 293.819 186.402 293.37 186.867C292.922 187.333 292.511 187.879 292.139 188.505C291.775 189.123 291.462 189.783 291.199 190.485C290.945 191.188 290.746 191.911 290.603 192.656C290.467 193.401 290.399 194.125 290.399 194.827C290.399 195.631 290.471 196.414 290.615 197.176C290.759 197.929 290.988 198.598 291.301 199.182C291.622 199.766 292.041 200.235 292.558 200.591C293.074 200.938 293.709 201.111 294.462 201.111C295.012 201.111 295.507 201.031 295.947 200.87C296.387 200.709 296.764 200.536 297.077 200.35C297.39 200.155 297.632 199.977 297.801 199.816C297.97 199.647 298.063 199.558 298.08 199.55C298.19 199.364 298.313 199.254 298.448 199.22C298.592 199.186 298.728 199.203 298.854 199.271C298.99 199.338 299.113 199.444 299.223 199.588C299.333 199.723 299.417 199.871 299.477 200.032C299.544 200.193 299.574 200.354 299.565 200.515C299.557 200.675 299.502 200.807 299.4 200.908C299.383 200.925 299.32 200.989 299.21 201.099C299.1 201.209 298.943 201.344 298.74 201.505C298.537 201.666 298.287 201.835 297.991 202.013C297.695 202.199 297.361 202.368 296.988 202.521C296.616 202.681 296.201 202.812 295.744 202.914C295.296 203.016 294.809 203.066 294.284 203.066C293.353 203.066 292.52 202.872 291.783 202.482C291.047 202.093 290.421 201.543 289.904 200.832C289.396 200.113 289.007 199.245 288.736 198.229C288.465 197.214 288.33 196.08 288.33 194.827C288.33 193.981 288.419 193.113 288.597 192.225C288.774 191.336 289.033 190.473 289.371 189.635C289.718 188.788 290.137 187.993 290.628 187.248C291.119 186.495 291.677 185.839 292.304 185.28C292.93 184.722 293.62 184.282 294.373 183.96C295.126 183.63 295.935 183.465 296.798 183.465C297.263 183.465 297.699 183.537 298.105 183.681C298.512 183.825 298.859 184.04 299.146 184.328C299.443 184.616 299.675 184.976 299.845 185.407C300.014 185.83 300.099 186.326 300.099 186.893C300.099 187.426 299.993 187.946 299.781 188.454C299.578 188.962 299.303 189.444 298.956 189.901C298.609 190.35 298.203 190.765 297.737 191.146C297.28 191.526 296.794 191.856 296.277 192.136C295.77 192.407 295.253 192.618 294.729 192.771C294.204 192.923 293.7 192.999 293.218 192.999C292.896 192.999 292.621 192.902 292.393 192.707C292.173 192.504 292.062 192.187 292.062 191.755C292.062 191.662 292.067 191.569 292.075 191.476C292.092 191.374 292.113 191.285 292.139 191.209C292.164 191.124 292.194 191.057 292.228 191.006C292.27 190.955 292.312 190.93 292.354 190.93C292.397 190.93 292.435 190.942 292.469 190.968C292.511 190.993 292.562 191.023 292.621 191.057C292.689 191.09 292.778 191.12 292.888 191.146C292.998 191.171 293.15 191.184 293.345 191.184ZM308.224 202.724C307.927 202.724 307.657 202.677 307.411 202.584C307.174 202.491 306.963 202.36 306.776 202.19C306.599 202.03 306.451 201.839 306.332 201.619C306.214 201.391 306.133 201.145 306.091 200.883C305.778 201.433 305.41 201.882 304.986 202.229C304.563 202.576 304.064 202.749 303.488 202.749C303.057 202.749 302.667 202.66 302.32 202.482C301.982 202.305 301.694 202.055 301.457 201.733C301.22 201.403 301.038 201.01 300.911 200.553C300.793 200.087 300.733 199.571 300.733 199.004C300.733 198.318 300.78 197.629 300.873 196.935C300.975 196.241 301.085 195.614 301.203 195.056C301.339 194.404 301.495 193.773 301.673 193.164C301.715 193.054 301.745 192.944 301.762 192.834C301.787 192.715 301.838 192.61 301.914 192.517C301.99 192.424 302.109 192.347 302.27 192.288C302.439 192.229 302.697 192.199 303.044 192.199C303.366 192.199 303.573 192.258 303.666 192.377C303.759 192.487 303.793 192.618 303.768 192.771C303.751 192.923 303.7 193.079 303.615 193.24C303.539 193.401 303.488 193.532 303.463 193.634C303.344 194.116 303.239 194.556 303.146 194.954C303.052 195.352 302.972 195.754 302.904 196.16C302.845 196.558 302.799 196.977 302.765 197.417C302.731 197.849 302.714 198.335 302.714 198.877C302.714 199.588 302.815 200.125 303.019 200.489C303.23 200.853 303.526 201.035 303.907 201.035C304.17 201.035 304.411 200.938 304.631 200.743C304.859 200.549 305.062 200.29 305.24 199.969C305.426 199.639 305.587 199.266 305.723 198.852C305.858 198.428 305.964 197.988 306.04 197.531V193.342C306.04 193.156 306.023 193.007 305.989 192.897C305.964 192.787 305.934 192.703 305.9 192.644C305.875 192.576 305.845 192.525 305.812 192.491C305.786 192.449 305.773 192.402 305.773 192.352C305.773 192.309 305.799 192.271 305.85 192.237C305.9 192.203 305.968 192.174 306.053 192.148C306.137 192.123 306.226 192.106 306.319 192.098C306.421 192.081 306.518 192.072 306.611 192.072C307.043 192.072 307.382 192.187 307.627 192.415C307.881 192.635 308.008 192.902 308.008 193.215V199.816C308.008 199.876 308.012 199.973 308.021 200.108C308.029 200.235 308.054 200.367 308.097 200.502C308.139 200.637 308.207 200.756 308.3 200.857C308.393 200.959 308.524 201.01 308.693 201.01C308.956 201.01 309.18 200.917 309.366 200.73C309.561 200.544 309.726 200.312 309.861 200.032C310.005 199.753 310.119 199.452 310.204 199.131C310.297 198.801 310.373 198.492 310.433 198.204C310.483 197.933 310.568 197.739 310.687 197.62C310.805 197.493 310.928 197.43 311.055 197.43C311.156 197.43 311.262 197.464 311.372 197.531C311.482 197.59 311.579 197.671 311.664 197.772C311.757 197.874 311.829 197.988 311.88 198.115C311.939 198.242 311.969 198.369 311.969 198.496C311.969 198.513 311.969 198.534 311.969 198.56C311.969 198.585 311.96 198.623 311.943 198.674C311.825 199.105 311.668 199.558 311.474 200.032C311.287 200.506 311.046 200.942 310.75 201.34C310.454 201.738 310.098 202.068 309.684 202.33C309.269 202.592 308.782 202.724 308.224 202.724ZM311.918 189.495C311.706 189.495 311.503 189.453 311.309 189.368C311.122 189.284 310.957 189.169 310.813 189.025C310.678 188.882 310.568 188.716 310.483 188.53C310.399 188.336 310.356 188.128 310.356 187.908C310.356 187.68 310.399 187.468 310.483 187.273C310.568 187.079 310.678 186.914 310.813 186.778C310.957 186.634 311.122 186.524 311.309 186.448C311.503 186.364 311.706 186.321 311.918 186.321C312.146 186.321 312.358 186.364 312.553 186.448C312.747 186.524 312.912 186.634 313.048 186.778C313.192 186.914 313.302 187.079 313.378 187.273C313.463 187.468 313.505 187.68 313.505 187.908C313.505 188.128 313.463 188.336 313.378 188.53C313.302 188.716 313.192 188.882 313.048 189.025C312.912 189.169 312.747 189.284 312.553 189.368C312.358 189.453 312.146 189.495 311.918 189.495ZM312.515 199.816C312.515 199.876 312.519 199.973 312.527 200.108C312.536 200.235 312.561 200.367 312.604 200.502C312.646 200.637 312.714 200.756 312.807 200.857C312.9 200.959 313.031 201.01 313.2 201.01C313.454 201.01 313.674 200.917 313.86 200.73C314.055 200.544 314.22 200.312 314.355 200.032C314.499 199.753 314.618 199.452 314.711 199.131C314.804 198.801 314.88 198.492 314.939 198.204C314.99 197.942 315.066 197.751 315.168 197.633C315.278 197.514 315.392 197.451 315.511 197.442C315.638 197.425 315.76 197.455 315.879 197.531C316.006 197.607 316.116 197.709 316.209 197.836C316.311 197.954 316.382 198.09 316.425 198.242C316.476 198.395 316.484 198.538 316.45 198.674C316.332 199.105 316.175 199.558 315.98 200.032C315.794 200.506 315.553 200.942 315.257 201.34C314.961 201.738 314.605 202.068 314.19 202.33C313.776 202.592 313.289 202.724 312.73 202.724C312.383 202.724 312.075 202.656 311.804 202.521C311.533 202.394 311.304 202.22 311.118 202C310.932 201.78 310.788 201.522 310.687 201.226C310.593 200.929 310.547 200.616 310.547 200.286V193.342C310.547 193.096 310.526 192.919 310.483 192.809C310.45 192.699 310.433 192.597 310.433 192.504C310.433 192.377 310.5 192.275 310.636 192.199C310.771 192.115 310.932 192.072 311.118 192.072C311.55 192.072 311.888 192.187 312.134 192.415C312.388 192.635 312.515 192.902 312.515 193.215V199.816ZM316.514 198.433C316.446 198.703 316.319 198.873 316.133 198.94C315.947 199 315.76 198.991 315.574 198.915C315.396 198.839 315.244 198.708 315.117 198.521C314.999 198.335 314.965 198.132 315.016 197.912C315.143 197.337 315.325 196.702 315.562 196.008C315.807 195.305 316.048 194.607 316.285 193.913C316.158 193.718 316.057 193.524 315.98 193.329C315.904 193.126 315.866 192.914 315.866 192.694C315.866 192.474 315.947 192.246 316.107 192.009C316.277 191.763 316.476 191.539 316.704 191.336C316.941 191.133 317.182 190.968 317.428 190.841C317.682 190.705 317.897 190.638 318.075 190.638C318.388 190.638 318.621 190.743 318.773 190.955C318.934 191.167 319.015 191.45 319.015 191.806C319.015 192 318.981 192.195 318.913 192.39C318.854 192.576 318.786 192.754 318.71 192.923C318.634 193.084 318.562 193.223 318.494 193.342C318.435 193.46 318.401 193.536 318.393 193.57C318.697 194.112 319.015 194.59 319.345 195.005C319.675 195.42 319.975 195.83 320.246 196.236C320.525 196.643 320.754 197.074 320.932 197.531C321.109 197.988 321.198 198.526 321.198 199.144C321.198 199.296 321.186 199.452 321.16 199.613C321.143 199.774 321.114 199.926 321.071 200.07C321.376 200.011 321.643 199.918 321.871 199.791C322.108 199.664 322.311 199.52 322.48 199.359C322.658 199.19 322.802 199.008 322.912 198.813C323.031 198.619 323.128 198.416 323.204 198.204C323.297 197.959 323.39 197.781 323.483 197.671C323.576 197.561 323.682 197.506 323.801 197.506C323.911 197.506 324.021 197.544 324.131 197.62C324.249 197.688 324.351 197.777 324.436 197.887C324.529 197.997 324.601 198.111 324.651 198.229C324.711 198.348 324.74 198.454 324.74 198.547C324.74 198.674 324.706 198.826 324.639 199.004C324.571 199.182 324.478 199.364 324.359 199.55C324.249 199.736 324.122 199.918 323.979 200.096C323.835 200.265 323.687 200.413 323.534 200.54C323.128 200.87 322.65 201.149 322.1 201.378C321.549 201.598 320.868 201.738 320.056 201.797C319.743 202.068 319.37 202.288 318.938 202.457C318.515 202.635 318.037 202.724 317.504 202.724C317.233 202.724 316.954 202.69 316.666 202.622C316.387 202.554 316.116 202.465 315.854 202.355C315.6 202.254 315.367 202.14 315.155 202.013C314.944 201.886 314.774 201.759 314.647 201.632C314.326 201.327 314.118 201.022 314.025 200.718C313.932 200.405 313.911 200.125 313.962 199.88C314.004 199.634 314.093 199.436 314.229 199.283C314.364 199.122 314.504 199.042 314.647 199.042C314.732 199.042 314.863 199.08 315.041 199.156C315.227 199.224 315.439 199.317 315.676 199.436C315.913 199.546 316.171 199.664 316.45 199.791C316.729 199.918 317.009 200.041 317.288 200.159C317.567 200.269 317.838 200.362 318.101 200.438C318.371 200.506 318.617 200.54 318.837 200.54C318.981 200.371 319.112 200.146 319.23 199.867C319.349 199.588 319.408 199.283 319.408 198.953C319.408 198.547 319.353 198.17 319.243 197.823C319.133 197.476 318.989 197.155 318.812 196.858C318.634 196.562 318.431 196.287 318.202 196.033C317.982 195.771 317.758 195.525 317.529 195.297C317.326 195.796 317.148 196.291 316.996 196.782C316.844 197.265 316.683 197.815 316.514 198.433ZM324.715 189.495C324.503 189.495 324.3 189.453 324.105 189.368C323.919 189.284 323.754 189.169 323.61 189.025C323.475 188.882 323.365 188.716 323.28 188.53C323.196 188.336 323.153 188.128 323.153 187.908C323.153 187.68 323.196 187.468 323.28 187.273C323.365 187.079 323.475 186.914 323.61 186.778C323.754 186.634 323.919 186.524 324.105 186.448C324.3 186.364 324.503 186.321 324.715 186.321C324.943 186.321 325.155 186.364 325.35 186.448C325.544 186.524 325.709 186.634 325.845 186.778C325.989 186.914 326.099 187.079 326.175 187.273C326.259 187.468 326.302 187.68 326.302 187.908C326.302 188.128 326.259 188.336 326.175 188.53C326.099 188.716 325.989 188.882 325.845 189.025C325.709 189.169 325.544 189.284 325.35 189.368C325.155 189.453 324.943 189.495 324.715 189.495ZM325.312 199.816C325.312 199.876 325.316 199.973 325.324 200.108C325.333 200.235 325.358 200.367 325.4 200.502C325.443 200.637 325.51 200.756 325.604 200.857C325.697 200.959 325.828 201.01 325.997 201.01C326.251 201.01 326.471 200.917 326.657 200.73C326.852 200.544 327.017 200.312 327.152 200.032C327.296 199.753 327.415 199.452 327.508 199.131C327.601 198.801 327.677 198.492 327.736 198.204C327.787 197.942 327.863 197.751 327.965 197.633C328.075 197.514 328.189 197.451 328.308 197.442C328.435 197.425 328.557 197.455 328.676 197.531C328.803 197.607 328.913 197.709 329.006 197.836C329.107 197.954 329.179 198.09 329.222 198.242C329.272 198.395 329.281 198.538 329.247 198.674C329.129 199.105 328.972 199.558 328.777 200.032C328.591 200.506 328.35 200.942 328.054 201.34C327.757 201.738 327.402 202.068 326.987 202.33C326.573 202.592 326.086 202.724 325.527 202.724C325.18 202.724 324.871 202.656 324.601 202.521C324.33 202.394 324.101 202.22 323.915 202C323.729 201.78 323.585 201.522 323.483 201.226C323.39 200.929 323.344 200.616 323.344 200.286V193.342C323.344 193.096 323.323 192.919 323.28 192.809C323.246 192.699 323.229 192.597 323.229 192.504C323.229 192.377 323.297 192.275 323.433 192.199C323.568 192.115 323.729 192.072 323.915 192.072C324.347 192.072 324.685 192.187 324.931 192.415C325.185 192.635 325.312 192.902 325.312 193.215V199.816ZM327.838 193.342C327.838 193.096 327.817 192.919 327.774 192.809C327.741 192.699 327.724 192.597 327.724 192.504C327.724 192.377 327.791 192.275 327.927 192.199C328.062 192.115 328.223 192.072 328.409 192.072C328.841 192.072 329.179 192.187 329.425 192.415C329.679 192.635 329.806 192.902 329.806 193.215V194.383C329.983 194.019 330.174 193.68 330.377 193.367C330.589 193.054 330.813 192.783 331.05 192.555C331.295 192.318 331.553 192.136 331.824 192.009C332.104 191.873 332.404 191.806 332.726 191.806C333.157 191.806 333.513 191.886 333.792 192.047C334.071 192.208 334.291 192.415 334.452 192.669C334.613 192.923 334.723 193.206 334.782 193.52C334.85 193.833 334.884 194.137 334.884 194.434V199.816C334.884 199.876 334.888 199.973 334.896 200.108C334.905 200.235 334.93 200.367 334.973 200.502C335.015 200.637 335.078 200.756 335.163 200.857C335.256 200.959 335.387 201.01 335.557 201.01C335.819 201.01 336.043 200.917 336.229 200.73C336.424 200.544 336.589 200.312 336.725 200.032C336.868 199.753 336.983 199.452 337.067 199.131C337.16 198.801 337.237 198.492 337.296 198.204C337.347 197.933 337.431 197.739 337.55 197.62C337.668 197.493 337.791 197.43 337.918 197.43C338.02 197.43 338.125 197.464 338.235 197.531C338.345 197.59 338.443 197.671 338.527 197.772C338.62 197.874 338.692 197.988 338.743 198.115C338.802 198.242 338.832 198.369 338.832 198.496C338.832 198.513 338.832 198.534 338.832 198.56C338.832 198.585 338.824 198.623 338.807 198.674C338.697 199.105 338.544 199.558 338.35 200.032C338.163 200.506 337.918 200.942 337.613 201.34C337.317 201.738 336.962 202.068 336.547 202.33C336.132 202.592 335.646 202.724 335.087 202.724C334.74 202.724 334.431 202.656 334.16 202.521C333.898 202.394 333.669 202.22 333.475 202C333.288 201.78 333.145 201.522 333.043 201.226C332.95 200.929 332.903 200.616 332.903 200.286V195.005C332.903 194.802 332.899 194.611 332.891 194.434C332.882 194.256 332.857 194.099 332.814 193.964C332.781 193.828 332.726 193.723 332.649 193.646C332.582 193.562 332.484 193.52 332.357 193.52C332.171 193.52 331.943 193.646 331.672 193.9C331.401 194.154 331.134 194.484 330.872 194.891C330.61 195.297 330.377 195.758 330.174 196.274C329.979 196.782 329.856 197.294 329.806 197.811V201.606C329.806 201.733 329.801 201.865 329.793 202C329.793 202.127 329.768 202.241 329.717 202.343C329.674 202.453 329.603 202.542 329.501 202.609C329.408 202.686 329.268 202.724 329.082 202.724C328.955 202.724 328.815 202.707 328.663 202.673C328.519 202.647 328.384 202.592 328.257 202.508C328.138 202.432 328.037 202.317 327.952 202.165C327.876 202.021 327.838 201.826 327.838 201.581V193.342ZM343.212 194.434C343.212 194.916 343.127 195.411 342.958 195.919C342.797 196.427 342.552 196.909 342.222 197.366C341.9 197.815 341.498 198.221 341.016 198.585C340.542 198.94 339.992 199.211 339.365 199.397C339.45 199.618 339.56 199.829 339.695 200.032C339.839 200.227 340.008 200.396 340.203 200.54C340.398 200.684 340.622 200.798 340.876 200.883C341.138 200.967 341.439 201.01 341.777 201.01C342.285 201.01 342.721 200.917 343.085 200.73C343.449 200.536 343.754 200.282 343.999 199.969C344.253 199.656 344.456 199.304 344.608 198.915C344.761 198.526 344.875 198.132 344.951 197.734C345.01 197.447 345.129 197.256 345.307 197.163C345.493 197.062 345.679 197.036 345.865 197.087C346.06 197.138 346.225 197.248 346.36 197.417C346.504 197.578 346.563 197.772 346.538 198.001C346.504 198.263 346.445 198.564 346.36 198.902C346.284 199.241 346.166 199.584 346.005 199.931C345.844 200.278 345.637 200.62 345.383 200.959C345.137 201.289 344.833 201.585 344.469 201.848C344.105 202.11 343.677 202.322 343.187 202.482C342.696 202.643 342.133 202.724 341.498 202.724C340.906 202.724 340.33 202.605 339.771 202.368C339.221 202.14 338.73 201.81 338.299 201.378C337.876 200.938 337.533 200.4 337.271 199.766C337.017 199.122 336.89 198.395 336.89 197.582C336.89 196.761 337.004 195.999 337.232 195.297C337.461 194.586 337.761 193.972 338.134 193.456C338.506 192.94 338.929 192.538 339.403 192.25C339.877 191.954 340.364 191.806 340.863 191.806C341.227 191.806 341.553 191.869 341.841 191.996C342.137 192.123 342.387 192.305 342.59 192.542C342.793 192.771 342.945 193.046 343.047 193.367C343.157 193.689 343.212 194.044 343.212 194.434ZM339.022 197.506C339.022 197.582 339.027 197.658 339.035 197.734C339.044 197.811 339.048 197.891 339.048 197.976C339.369 197.823 339.661 197.629 339.924 197.392C340.186 197.155 340.41 196.884 340.597 196.579C340.783 196.274 340.927 195.944 341.028 195.589C341.13 195.225 341.181 194.848 341.181 194.459C341.181 194.171 341.13 193.947 341.028 193.786C340.935 193.625 340.804 193.545 340.635 193.545C340.423 193.545 340.233 193.617 340.063 193.761C339.903 193.905 339.759 194.095 339.632 194.332C339.513 194.561 339.412 194.823 339.327 195.119C339.251 195.407 339.188 195.699 339.137 195.995C339.086 196.291 339.052 196.575 339.035 196.846C339.018 197.108 339.014 197.328 339.022 197.506Z" fill="black"/>
    <path d="M254.053 260.636H250.309C250.165 260.636 250.093 260.57 250.093 260.438V260.042C250.093 259.91 250.165 259.844 250.309 259.844H254.053C254.197 259.844 254.269 259.91 254.269 260.042V260.438C254.269 260.57 254.197 260.636 254.053 260.636ZM256.438 263.444V262.796C256.438 262.664 256.504 262.598 256.636 262.598H257.158C257.29 262.598 257.356 262.664 257.356 262.796V263.39C257.356 264.59 257.938 265.19 259.102 265.19H260.974C262.138 265.19 262.72 264.584 262.72 263.372V262.616C262.72 262.088 262.504 261.674 262.072 261.374C261.64 261.074 261.118 260.858 260.506 260.726C259.894 260.594 259.276 260.456 258.652 260.312C258.04 260.168 257.518 259.904 257.086 259.52C256.654 259.136 256.438 258.62 256.438 257.972V256.982C256.438 256.19 256.666 255.566 257.122 255.11C257.578 254.654 258.196 254.426 258.976 254.426H261.064C261.844 254.426 262.462 254.654 262.918 255.11C263.374 255.566 263.602 256.19 263.602 256.982V257.486C263.602 257.618 263.536 257.684 263.404 257.684H262.882C262.75 257.684 262.684 257.618 262.684 257.486V257.036C262.684 255.836 262.102 255.236 260.938 255.236H259.084C257.932 255.236 257.356 255.848 257.356 257.072V257.972C257.356 258.8 258.094 259.358 259.57 259.646C260.182 259.766 260.794 259.904 261.406 260.06C262.03 260.216 262.558 260.498 262.99 260.906C263.422 261.314 263.638 261.866 263.638 262.562V263.444C263.638 264.236 263.41 264.86 262.954 265.316C262.498 265.772 261.88 266 261.1 266H258.976C258.196 266 257.578 265.772 257.122 265.316C256.666 264.86 256.438 264.236 256.438 263.444ZM272.882 254.426H273.386C273.518 254.426 273.584 254.492 273.584 254.624V263.444C273.584 264.236 273.356 264.86 272.9 265.316C272.456 265.772 271.844 266 271.064 266H269.048C268.268 266 267.65 265.772 267.194 265.316C266.75 264.86 266.528 264.236 266.528 263.444V254.642C266.528 254.498 266.588 254.426 266.708 254.426H267.23C267.362 254.426 267.428 254.498 267.428 254.642V263.408C267.428 263.972 267.572 264.41 267.86 264.722C268.148 265.034 268.568 265.19 269.12 265.19H270.974C271.526 265.19 271.946 265.04 272.234 264.74C272.534 264.428 272.684 263.984 272.684 263.408V254.642C272.684 254.498 272.75 254.426 272.882 254.426ZM277.63 265.19H281.086C281.638 265.19 282.058 265.04 282.346 264.74C282.646 264.428 282.796 263.984 282.796 263.408V257.018C282.796 256.442 282.646 256.004 282.346 255.704C282.058 255.392 281.638 255.236 281.086 255.236H277.63C277.51 255.236 277.45 255.29 277.45 255.398V265.028C277.45 265.136 277.51 265.19 277.63 265.19ZM276.55 265.784V254.642C276.55 254.498 276.61 254.426 276.73 254.426H281.176C281.956 254.426 282.568 254.654 283.012 255.11C283.468 255.566 283.696 256.19 283.696 256.982V263.444C283.696 264.236 283.468 264.86 283.012 265.316C282.568 265.772 281.956 266 281.176 266H276.73C276.61 266 276.55 265.928 276.55 265.784ZM295.976 266H293.708C292.928 266 292.31 265.772 291.854 265.316C291.41 264.86 291.188 264.236 291.188 263.444V256.982C291.188 256.19 291.41 255.566 291.854 255.11C292.31 254.654 292.928 254.426 293.708 254.426H295.976C296.756 254.426 297.368 254.654 297.812 255.11C298.268 255.566 298.496 256.19 298.496 256.982V257.864C298.496 258.008 298.43 258.08 298.298 258.08H297.794C297.662 258.08 297.596 258.008 297.596 257.864V257.018C297.596 256.442 297.446 256.004 297.146 255.704C296.858 255.392 296.438 255.236 295.886 255.236H293.78C293.228 255.236 292.808 255.392 292.52 255.704C292.232 256.016 292.088 256.454 292.088 257.018V263.408C292.088 263.972 292.232 264.41 292.52 264.722C292.808 265.034 293.228 265.19 293.78 265.19H295.886C296.438 265.19 296.858 265.04 297.146 264.74C297.446 264.428 297.596 263.984 297.596 263.408V262.562C297.596 262.418 297.662 262.346 297.794 262.346H298.298C298.43 262.346 298.496 262.418 298.496 262.562V263.444C298.496 264.236 298.268 264.86 297.812 265.316C297.368 265.772 296.756 266 295.976 266ZM307.388 254.426H307.892C308.024 254.426 308.09 254.492 308.09 254.624V263.444C308.09 264.236 307.862 264.86 307.406 265.316C306.962 265.772 306.35 266 305.57 266H303.554C302.774 266 302.156 265.772 301.7 265.316C301.256 264.86 301.034 264.236 301.034 263.444V254.642C301.034 254.498 301.094 254.426 301.214 254.426H301.736C301.868 254.426 301.934 254.498 301.934 254.642V263.408C301.934 263.972 302.078 264.41 302.366 264.722C302.654 265.034 303.074 265.19 303.626 265.19H305.48C306.032 265.19 306.452 265.04 306.74 264.74C307.04 264.428 307.19 263.984 307.19 263.408V254.642C307.19 254.498 307.256 254.426 307.388 254.426ZM312.045 254.642V265.784C312.045 265.928 311.979 266 311.847 266H311.325C311.205 266 311.145 265.928 311.145 265.784V254.642C311.145 254.498 311.205 254.426 311.325 254.426H311.847C311.979 254.426 312.045 254.498 312.045 254.642ZM315.132 263.444V262.796C315.132 262.664 315.198 262.598 315.33 262.598H315.852C315.984 262.598 316.05 262.664 316.05 262.796V263.39C316.05 264.59 316.632 265.19 317.796 265.19H319.668C320.832 265.19 321.414 264.584 321.414 263.372V262.616C321.414 262.088 321.198 261.674 320.766 261.374C320.334 261.074 319.812 260.858 319.2 260.726C318.588 260.594 317.97 260.456 317.346 260.312C316.734 260.168 316.212 259.904 315.78 259.52C315.348 259.136 315.132 258.62 315.132 257.972V256.982C315.132 256.19 315.36 255.566 315.816 255.11C316.272 254.654 316.89 254.426 317.67 254.426H319.758C320.538 254.426 321.156 254.654 321.612 255.11C322.068 255.566 322.296 256.19 322.296 256.982V257.486C322.296 257.618 322.23 257.684 322.098 257.684H321.576C321.444 257.684 321.378 257.618 321.378 257.486V257.036C321.378 255.836 320.796 255.236 319.632 255.236H317.778C316.626 255.236 316.05 255.848 316.05 257.072V257.972C316.05 258.8 316.788 259.358 318.264 259.646C318.876 259.766 319.488 259.904 320.1 260.06C320.724 260.216 321.252 260.498 321.684 260.906C322.116 261.314 322.332 261.866 322.332 262.562V263.444C322.332 264.236 322.104 264.86 321.648 265.316C321.192 265.772 320.574 266 319.794 266H317.67C316.89 266 316.272 265.772 315.816 265.316C315.36 264.86 315.132 264.236 315.132 263.444ZM326.301 254.642V265.784C326.301 265.928 326.235 266 326.103 266H325.581C325.461 266 325.401 265.928 325.401 265.784V254.642C325.401 254.498 325.461 254.426 325.581 254.426H326.103C326.235 254.426 326.301 254.498 326.301 254.642ZM330.162 266H329.64C329.52 266 329.46 265.928 329.46 265.784V254.642C329.46 254.498 329.52 254.426 329.64 254.426H330.126C330.234 254.426 330.306 254.462 330.342 254.534L335.868 264.038H335.94V254.642C335.94 254.498 336.006 254.426 336.138 254.426H336.642C336.774 254.426 336.84 254.498 336.84 254.642V265.784C336.84 265.928 336.774 266 336.642 266H336.228C336.12 266 336.024 265.934 335.94 265.802L330.432 256.37H330.36V265.784C330.36 265.928 330.294 266 330.162 266ZM345.626 266H340.064C339.944 266 339.884 265.928 339.884 265.784V254.642C339.884 254.498 339.944 254.426 340.064 254.426H345.626C345.77 254.426 345.842 254.492 345.842 254.624V255.038C345.842 255.17 345.77 255.236 345.626 255.236H340.964C340.844 255.236 340.784 255.29 340.784 255.398V259.538C340.784 259.646 340.844 259.7 340.964 259.7H345.122C345.254 259.7 345.32 259.766 345.32 259.898V260.312C345.32 260.444 345.254 260.51 345.122 260.51H340.964C340.844 260.51 340.784 260.564 340.784 260.672V265.028C340.784 265.136 340.844 265.19 340.964 265.19H345.626C345.77 265.19 345.842 265.256 345.842 265.388V265.802C345.842 265.934 345.77 266 345.626 266ZM351.7 260.636H347.956C347.812 260.636 347.74 260.57 347.74 260.438V260.042C347.74 259.91 347.812 259.844 347.956 259.844H351.7C351.844 259.844 351.916 259.91 351.916 260.042V260.438C351.916 260.57 351.844 260.636 351.7 260.636Z" fill="#4E4444"/>
</svg>