<svg width="600" height="350" viewBox="0 0 600 350" fill="none" xmlns="http://www.w3.org/2000/svg">
    <path d="M94.0004 43.968V42.6C94.0004 42.184 94.1204 41.656 94.3604 41.016L95.1524 38.76C95.2004 38.632 95.2884 38.568 95.4164 38.568C95.5924 38.568 95.6804 38.664 95.6804 38.856V43.968C95.6804 44.176 95.5764 44.28 95.3684 44.28H94.3124C94.1044 44.28 94.0004 44.176 94.0004 43.968ZM90.3044 43.968V42.6C90.3044 42.264 90.4244 41.736 90.6644 41.016L91.4564 38.76C91.5364 38.632 91.6324 38.568 91.7444 38.568C91.9044 38.568 91.9844 38.664 91.9844 38.856V43.968C91.9844 44.176 91.8804 44.28 91.6724 44.28H90.6404C90.4164 44.28 90.3044 44.176 90.3044 43.968ZM107.104 38.568H108.184C108.408 38.568 108.52 38.672 108.52 38.88V50.448C108.52 51.568 108.208 52.44 107.584 53.064C106.96 53.688 106.096 54 104.992 54H102.328C101.224 54 100.352 53.688 99.712 53.064C99.088 52.44 98.776 51.568 98.776 50.448V38.904C98.776 38.68 98.888 38.568 99.112 38.568H100.192C100.416 38.568 100.528 38.68 100.528 38.904V50.376C100.528 51.768 101.192 52.464 102.52 52.464H104.776C106.12 52.464 106.792 51.768 106.792 50.376V38.904C106.792 38.68 106.896 38.568 107.104 38.568ZM113.577 54H112.521C112.297 54 112.185 53.888 112.185 53.664V38.904C112.185 38.68 112.297 38.568 112.521 38.568H113.505C113.697 38.568 113.825 38.632 113.889 38.76L120.513 50.4H120.609V38.904C120.609 38.68 120.721 38.568 120.945 38.568H122.001C122.225 38.568 122.337 38.68 122.337 38.904V53.664C122.337 53.888 122.225 54 122.001 54H121.113C120.937 54 120.769 53.896 120.609 53.688L114.009 42.168H113.913V53.664C113.913 53.888 113.801 54 113.577 54ZM134.002 54H126.466C126.242 54 126.13 53.888 126.13 53.664V38.904C126.13 38.68 126.242 38.568 126.466 38.568H134.002C134.226 38.568 134.338 38.68 134.338 38.904V39.768C134.338 39.992 134.226 40.104 134.002 40.104H128.122C127.962 40.104 127.882 40.176 127.882 40.32V45.168C127.882 45.312 127.962 45.384 128.122 45.384H133.258C133.482 45.384 133.594 45.496 133.594 45.72V46.584C133.594 46.808 133.482 46.92 133.258 46.92H128.122C127.962 46.92 127.882 46.992 127.882 47.136V52.248C127.882 52.392 127.962 52.464 128.122 52.464H134.002C134.226 52.464 134.338 52.576 134.338 52.8V53.664C134.338 53.888 134.226 54 134.002 54ZM143.947 54H142.747C142.539 54 142.467 53.888 142.531 53.664L147.019 38.904C147.083 38.68 147.235 38.568 147.475 38.568H149.203C149.443 38.568 149.595 38.68 149.659 38.904L154.147 53.664C154.211 53.888 154.139 54 153.931 54H152.707C152.531 54 152.419 53.888 152.371 53.664L151.243 50.16H145.435L144.307 53.664C144.243 53.888 144.123 54 143.947 54ZM148.291 40.368L145.819 48.672H150.859L148.387 40.368H148.291ZM158.708 52.464H162.74C164.084 52.464 164.756 51.768 164.756 50.376V42.192C164.756 40.8 164.084 40.104 162.74 40.104H158.708C158.548 40.104 158.468 40.176 158.468 40.32V52.248C158.468 52.392 158.548 52.464 158.708 52.464ZM156.716 53.664V38.904C156.716 38.68 156.828 38.568 157.052 38.568H162.956C164.06 38.568 164.924 38.888 165.548 39.528C166.188 40.152 166.508 41.016 166.508 42.12V50.448C166.508 51.552 166.188 52.424 165.548 53.064C164.924 53.688 164.06 54 162.956 54H157.052C156.828 54 156.716 53.888 156.716 53.664ZM171.468 54H170.388C170.164 54 170.052 53.888 170.052 53.664V38.904C170.052 38.68 170.164 38.568 170.388 38.568H175.908C177.012 38.568 177.884 38.888 178.524 39.528C179.164 40.152 179.484 41.016 179.484 42.12V44.304C179.484 45.2 179.268 45.944 178.836 46.536C178.404 47.112 177.804 47.496 177.036 47.688V47.784L179.82 53.616C179.964 53.872 179.884 54 179.58 54H178.5C178.228 54 178.028 53.888 177.9 53.664L175.212 47.856H172.044C171.884 47.856 171.804 47.928 171.804 48.072V53.664C171.804 53.888 171.692 54 171.468 54ZM172.044 46.392H175.668C177.044 46.392 177.732 45.704 177.732 44.328V42.192C177.732 40.8 177.044 40.104 175.668 40.104H172.044C171.884 40.104 171.804 40.176 171.804 40.32V46.176C171.804 46.32 171.884 46.392 172.044 46.392ZM190.815 54H183.279C183.055 54 182.943 53.888 182.943 53.664V38.904C182.943 38.68 183.055 38.568 183.279 38.568H190.815C191.039 38.568 191.151 38.68 191.151 38.904V39.768C191.151 39.992 191.039 40.104 190.815 40.104H184.935C184.775 40.104 184.695 40.176 184.695 40.32V45.168C184.695 45.312 184.775 45.384 184.935 45.384H190.071C190.295 45.384 190.407 45.496 190.407 45.72V46.584C190.407 46.808 190.295 46.92 190.071 46.92H184.935C184.775 46.92 184.695 46.992 184.695 47.136V52.248C184.695 52.392 184.775 52.464 184.935 52.464H190.815C191.039 52.464 191.151 52.576 191.151 52.8V53.664C191.151 53.888 191.039 54 190.815 54ZM194.306 50.448V49.68C194.306 49.456 194.418 49.344 194.642 49.344H195.722C195.946 49.344 196.058 49.456 196.058 49.68V50.304C196.058 51.744 196.77 52.464 198.194 52.464H200.306C201.73 52.464 202.442 51.728 202.442 50.256V49.44C202.442 48.288 201.49 47.536 199.586 47.184C198.786 47.04 197.986 46.872 197.186 46.68C196.386 46.488 195.706 46.12 195.146 45.576C194.586 45.016 194.306 44.256 194.306 43.296V42.12C194.306 41.016 194.618 40.152 195.242 39.528C195.882 38.888 196.754 38.568 197.858 38.568H200.522C201.61 38.568 202.474 38.888 203.114 39.528C203.754 40.152 204.074 41.016 204.074 42.12V42.72C204.074 42.96 203.97 43.08 203.762 43.08H202.658C202.45 43.08 202.346 42.96 202.346 42.72V42.288C202.346 40.832 201.634 40.104 200.21 40.104H198.17C196.746 40.104 196.034 40.864 196.034 42.384V43.344C196.034 44.16 196.57 44.72 197.642 45.024C198.122 45.152 198.65 45.272 199.226 45.384C199.802 45.48 200.378 45.616 200.954 45.792C201.546 45.952 202.082 46.16 202.562 46.416C203.042 46.656 203.426 47.032 203.714 47.544C204.018 48.04 204.17 48.648 204.17 49.368V50.448C204.17 51.552 203.85 52.424 203.21 53.064C202.57 53.688 201.706 54 200.618 54H197.858C196.77 54 195.906 53.688 195.266 53.064C194.626 52.424 194.306 51.552 194.306 50.448ZM207.619 50.448V49.68C207.619 49.456 207.731 49.344 207.955 49.344H209.035C209.259 49.344 209.371 49.456 209.371 49.68V50.304C209.371 51.744 210.083 52.464 211.507 52.464H213.619C215.043 52.464 215.755 51.728 215.755 50.256V49.44C215.755 48.288 214.803 47.536 212.899 47.184C212.099 47.04 211.299 46.872 210.499 46.68C209.699 46.488 209.019 46.12 208.459 45.576C207.899 45.016 207.619 44.256 207.619 43.296V42.12C207.619 41.016 207.931 40.152 208.555 39.528C209.195 38.888 210.067 38.568 211.171 38.568H213.835C214.923 38.568 215.787 38.888 216.427 39.528C217.067 40.152 217.387 41.016 217.387 42.12V42.72C217.387 42.96 217.283 43.08 217.075 43.08H215.971C215.763 43.08 215.659 42.96 215.659 42.72V42.288C215.659 40.832 214.947 40.104 213.523 40.104H211.483C210.059 40.104 209.347 40.864 209.347 42.384V43.344C209.347 44.16 209.883 44.72 210.955 45.024C211.435 45.152 211.963 45.272 212.539 45.384C213.115 45.48 213.691 45.616 214.267 45.792C214.859 45.952 215.395 46.16 215.875 46.416C216.355 46.656 216.739 47.032 217.027 47.544C217.331 48.04 217.483 48.648 217.483 49.368V50.448C217.483 51.552 217.163 52.424 216.523 53.064C215.883 53.688 215.019 54 213.931 54H211.171C210.083 54 209.219 53.688 208.579 53.064C207.939 52.424 207.619 51.552 207.619 50.448ZM228.971 54H221.435C221.211 54 221.099 53.888 221.099 53.664V38.904C221.099 38.68 221.211 38.568 221.435 38.568H228.971C229.195 38.568 229.307 38.68 229.307 38.904V39.768C229.307 39.992 229.195 40.104 228.971 40.104H223.091C222.931 40.104 222.851 40.176 222.851 40.32V45.168C222.851 45.312 222.931 45.384 223.091 45.384H228.227C228.451 45.384 228.563 45.496 228.563 45.72V46.584C228.563 46.808 228.451 46.92 228.227 46.92H223.091C222.931 46.92 222.851 46.992 222.851 47.136V52.248C222.851 52.392 222.931 52.464 223.091 52.464H228.971C229.195 52.464 229.307 52.576 229.307 52.8V53.664C229.307 53.888 229.195 54 228.971 54ZM238.916 54H237.716C237.508 54 237.436 53.888 237.5 53.664L241.988 38.904C242.052 38.68 242.204 38.568 242.444 38.568H244.172C244.412 38.568 244.564 38.68 244.628 38.904L249.116 53.664C249.18 53.888 249.108 54 248.9 54H247.676C247.5 54 247.388 53.888 247.34 53.664L246.212 50.16H240.404L239.276 53.664C239.212 53.888 239.092 54 238.916 54ZM243.26 40.368L240.788 48.672H245.828L243.356 40.368H243.26ZM265.651 54H258.115C257.891 54 257.779 53.888 257.779 53.664V38.904C257.779 38.68 257.891 38.568 258.115 38.568H265.651C265.875 38.568 265.987 38.68 265.987 38.904V39.768C265.987 39.992 265.875 40.104 265.651 40.104H259.771C259.611 40.104 259.531 40.176 259.531 40.32V45.168C259.531 45.312 259.611 45.384 259.771 45.384H264.907C265.131 45.384 265.243 45.496 265.243 45.72V46.584C265.243 46.808 265.131 46.92 264.907 46.92H259.771C259.611 46.92 259.531 46.992 259.531 47.136V52.248C259.531 52.392 259.611 52.464 259.771 52.464H265.651C265.875 52.464 265.987 52.576 265.987 52.8V53.664C265.987 53.888 265.875 54 265.651 54ZM269.142 50.448V49.68C269.142 49.456 269.254 49.344 269.478 49.344H270.558C270.782 49.344 270.894 49.456 270.894 49.68V50.304C270.894 51.744 271.606 52.464 273.03 52.464H275.142C276.566 52.464 277.278 51.728 277.278 50.256V49.44C277.278 48.288 276.326 47.536 274.422 47.184C273.622 47.04 272.822 46.872 272.022 46.68C271.222 46.488 270.542 46.12 269.982 45.576C269.422 45.016 269.142 44.256 269.142 43.296V42.12C269.142 41.016 269.454 40.152 270.078 39.528C270.718 38.888 271.59 38.568 272.694 38.568H275.358C276.446 38.568 277.31 38.888 277.95 39.528C278.59 40.152 278.91 41.016 278.91 42.12V42.72C278.91 42.96 278.806 43.08 278.598 43.08H277.494C277.286 43.08 277.182 42.96 277.182 42.72V42.288C277.182 40.832 276.47 40.104 275.046 40.104H273.006C271.582 40.104 270.87 40.864 270.87 42.384V43.344C270.87 44.16 271.406 44.72 272.478 45.024C272.958 45.152 273.486 45.272 274.062 45.384C274.638 45.48 275.214 45.616 275.79 45.792C276.382 45.952 276.918 46.16 277.398 46.416C277.878 46.656 278.262 47.032 278.55 47.544C278.854 48.04 279.006 48.648 279.006 49.368V50.448C279.006 51.552 278.686 52.424 278.046 53.064C277.406 53.688 276.542 54 275.454 54H272.694C271.606 54 270.742 53.688 270.102 53.064C269.462 52.424 269.142 51.552 269.142 50.448ZM282.455 50.448V49.68C282.455 49.456 282.567 49.344 282.791 49.344H283.871C284.095 49.344 284.207 49.456 284.207 49.68V50.304C284.207 51.744 284.919 52.464 286.343 52.464H288.455C289.879 52.464 290.591 51.728 290.591 50.256V49.44C290.591 48.288 289.639 47.536 287.735 47.184C286.935 47.04 286.135 46.872 285.335 46.68C284.535 46.488 283.855 46.12 283.295 45.576C282.735 45.016 282.455 44.256 282.455 43.296V42.12C282.455 41.016 282.767 40.152 283.391 39.528C284.031 38.888 284.903 38.568 286.007 38.568H288.671C289.759 38.568 290.623 38.888 291.263 39.528C291.903 40.152 292.223 41.016 292.223 42.12V42.72C292.223 42.96 292.119 43.08 291.911 43.08H290.807C290.599 43.08 290.495 42.96 290.495 42.72V42.288C290.495 40.832 289.783 40.104 288.359 40.104H286.319C284.895 40.104 284.183 40.864 284.183 42.384V43.344C284.183 44.16 284.719 44.72 285.791 45.024C286.271 45.152 286.799 45.272 287.375 45.384C287.951 45.48 288.527 45.616 289.103 45.792C289.695 45.952 290.231 46.16 290.711 46.416C291.191 46.656 291.575 47.032 291.863 47.544C292.167 48.04 292.319 48.648 292.319 49.368V50.448C292.319 51.552 291.999 52.424 291.359 53.064C290.719 53.688 289.855 54 288.767 54H286.007C284.919 54 284.055 53.688 283.415 53.064C282.775 52.424 282.455 51.552 282.455 50.448ZM296.127 54H294.927C294.719 54 294.647 53.888 294.711 53.664L299.199 38.904C299.263 38.68 299.415 38.568 299.655 38.568H301.383C301.623 38.568 301.775 38.68 301.839 38.904L306.327 53.664C306.391 53.888 306.319 54 306.111 54H304.887C304.711 54 304.599 53.888 304.551 53.664L303.423 50.16H297.615L296.487 53.664C296.423 53.888 296.303 54 296.127 54ZM300.471 40.368L297.999 48.672H303.039L300.567 40.368H300.471ZM313.528 54H312.448C312.224 54 312.112 53.888 312.112 53.664V48.216L307.552 38.928C307.504 38.816 307.504 38.728 307.552 38.664C307.6 38.6 307.672 38.568 307.768 38.568H309.112C309.288 38.568 309.424 38.68 309.52 38.904L312.952 46.176H313.072L316.48 38.904C316.544 38.68 316.672 38.568 316.864 38.568H318.232C318.504 38.568 318.576 38.688 318.448 38.928L313.864 48.216V53.664C313.864 53.888 313.752 54 313.528 54ZM328.768 54H321.232C321.008 54 320.896 53.888 320.896 53.664V38.904C320.896 38.68 321.008 38.568 321.232 38.568H328.768C328.992 38.568 329.104 38.68 329.104 38.904V39.768C329.104 39.992 328.992 40.104 328.768 40.104H322.888C322.728 40.104 322.648 40.176 322.648 40.32V45.168C322.648 45.312 322.728 45.384 322.888 45.384H328.024C328.248 45.384 328.36 45.496 328.36 45.72V46.584C328.36 46.808 328.248 46.92 328.024 46.92H322.888C322.728 46.92 322.648 46.992 322.648 47.136V52.248C322.648 52.392 322.728 52.464 322.888 52.464H328.768C328.992 52.464 329.104 52.576 329.104 52.8V53.664C329.104 53.888 328.992 54 328.768 54ZM333.843 54H332.763C332.539 54 332.427 53.888 332.427 53.664V38.904C332.427 38.68 332.539 38.568 332.763 38.568H338.283C339.387 38.568 340.259 38.888 340.899 39.528C341.539 40.152 341.859 41.016 341.859 42.12V44.304C341.859 45.2 341.643 45.944 341.211 46.536C340.779 47.112 340.179 47.496 339.411 47.688V47.784L342.195 53.616C342.339 53.872 342.259 54 341.955 54H340.875C340.603 54 340.403 53.888 340.275 53.664L337.587 47.856H334.419C334.259 47.856 334.179 47.928 334.179 48.072V53.664C334.179 53.888 334.067 54 333.843 54ZM334.419 46.392H338.043C339.419 46.392 340.107 45.704 340.107 44.328V42.192C340.107 40.8 339.419 40.104 338.043 40.104H334.419C334.259 40.104 334.179 40.176 334.179 40.32V46.176C334.179 46.32 334.259 46.392 334.419 46.392ZM353.404 52.464H357.436C358.78 52.464 359.452 51.768 359.452 50.376V42.192C359.452 40.8 358.78 40.104 357.436 40.104H353.404C353.244 40.104 353.164 40.176 353.164 40.32V52.248C353.164 52.392 353.244 52.464 353.404 52.464ZM351.412 53.664V38.904C351.412 38.68 351.524 38.568 351.748 38.568H357.652C358.756 38.568 359.62 38.888 360.244 39.528C360.884 40.152 361.204 41.016 361.204 42.12V50.448C361.204 51.552 360.884 52.424 360.244 53.064C359.62 53.688 358.756 54 357.652 54H351.748C351.524 54 351.412 53.888 351.412 53.664ZM365.852 38.88V40.272C365.852 40.64 365.74 41.16 365.516 41.832L364.7 44.112C364.652 44.224 364.564 44.28 364.436 44.28C364.26 44.28 364.172 44.184 364.172 43.992V38.904C364.172 38.68 364.284 38.568 364.508 38.568H365.54C365.748 38.568 365.852 38.672 365.852 38.88ZM377.292 38.568H378.372C378.596 38.568 378.708 38.672 378.708 38.88V50.448C378.708 51.568 378.396 52.44 377.772 53.064C377.148 53.688 376.284 54 375.18 54H372.516C371.412 54 370.54 53.688 369.9 53.064C369.276 52.44 368.964 51.568 368.964 50.448V38.904C368.964 38.68 369.076 38.568 369.3 38.568H370.38C370.604 38.568 370.715 38.68 370.715 38.904V50.376C370.715 51.768 371.38 52.464 372.708 52.464H374.964C376.308 52.464 376.98 51.768 376.98 50.376V38.904C376.98 38.68 377.084 38.568 377.292 38.568ZM383.789 54H382.709C382.485 54 382.373 53.888 382.373 53.664V38.904C382.373 38.68 382.485 38.568 382.709 38.568H388.229C389.333 38.568 390.205 38.888 390.845 39.528C391.485 40.152 391.805 41.016 391.805 42.12V44.304C391.805 45.2 391.589 45.944 391.157 46.536C390.725 47.112 390.125 47.496 389.357 47.688V47.784L392.141 53.616C392.285 53.872 392.205 54 391.901 54H390.821C390.549 54 390.349 53.888 390.221 53.664L387.533 47.856H384.365C384.205 47.856 384.125 47.928 384.125 48.072V53.664C384.125 53.888 384.013 54 383.789 54ZM384.365 46.392H387.989C389.365 46.392 390.053 45.704 390.053 44.328V42.192C390.053 40.8 389.365 40.104 387.989 40.104H384.365C384.205 40.104 384.125 40.176 384.125 40.32V46.176C384.125 46.32 384.205 46.392 384.365 46.392ZM401.167 54H398.575C397.471 54 396.599 53.688 395.959 53.064C395.335 52.44 395.023 51.568 395.023 50.448V42.12C395.023 41 395.335 40.128 395.959 39.504C396.599 38.88 397.471 38.568 398.575 38.568H401.167C402.271 38.568 403.135 38.888 403.759 39.528C404.383 40.152 404.695 41.016 404.695 42.12V43.104C404.695 43.344 404.583 43.464 404.359 43.464H403.279C403.055 43.464 402.943 43.344 402.943 43.104V42.192C402.943 40.8 402.279 40.104 400.951 40.104H398.767C397.439 40.104 396.775 40.8 396.775 42.192V50.376C396.775 51.768 397.439 52.464 398.767 52.464H400.951C402.279 52.464 402.943 51.768 402.943 50.376V47.688C402.943 47.528 402.871 47.448 402.727 47.448H400.351C400.127 47.448 400.015 47.344 400.015 47.136V46.248C400.015 46.024 400.127 45.912 400.351 45.912H404.215C404.535 45.912 404.695 46.08 404.695 46.416V50.448C404.695 51.568 404.383 52.44 403.759 53.064C403.135 53.688 402.271 54 401.167 54ZM416.12 54H408.584C408.36 54 408.248 53.888 408.248 53.664V38.904C408.248 38.68 408.36 38.568 408.584 38.568H416.12C416.344 38.568 416.456 38.68 416.456 38.904V39.768C416.456 39.992 416.344 40.104 416.12 40.104H410.24C410.08 40.104 410 40.176 410 40.32V45.168C410 45.312 410.08 45.384 410.24 45.384H415.376C415.6 45.384 415.712 45.496 415.712 45.72V46.584C415.712 46.808 415.6 46.92 415.376 46.92H410.24C410.08 46.92 410 46.992 410 47.136V52.248C410 52.392 410.08 52.464 410.24 52.464H416.12C416.344 52.464 416.456 52.576 416.456 52.8V53.664C416.456 53.888 416.344 54 416.12 54ZM421.171 54H420.115C419.891 54 419.779 53.888 419.779 53.664V38.904C419.779 38.68 419.891 38.568 420.115 38.568H421.099C421.291 38.568 421.419 38.632 421.483 38.76L428.107 50.4H428.203V38.904C428.203 38.68 428.315 38.568 428.539 38.568H429.595C429.819 38.568 429.931 38.68 429.931 38.904V53.664C429.931 53.888 429.819 54 429.595 54H428.707C428.531 54 428.363 53.896 428.203 53.688L421.603 42.168H421.507V53.664C421.507 53.888 421.395 54 421.171 54ZM439.916 54H437.036C435.932 54 435.06 53.688 434.42 53.064C433.796 52.44 433.484 51.568 433.484 50.448V42.12C433.484 41 433.796 40.128 434.42 39.504C435.06 38.88 435.932 38.568 437.036 38.568H439.916C441.02 38.568 441.884 38.88 442.508 39.504C443.148 40.128 443.468 41 443.468 42.12V43.296C443.468 43.52 443.356 43.632 443.132 43.632H442.052C441.828 43.632 441.716 43.52 441.716 43.296V42.192C441.716 40.8 441.044 40.104 439.7 40.104H437.228C435.9 40.104 435.236 40.8 435.236 42.192V50.376C435.236 51.768 435.9 52.464 437.228 52.464H439.7C441.044 52.464 441.716 51.768 441.716 50.376V49.272C441.716 49.048 441.828 48.936 442.052 48.936H443.132C443.356 48.936 443.468 49.048 443.468 49.272V50.448C443.468 51.568 443.148 52.44 442.508 53.064C441.884 53.688 441.02 54 439.916 54ZM454.581 54H447.045C446.821 54 446.709 53.888 446.709 53.664V38.904C446.709 38.68 446.821 38.568 447.045 38.568H454.581C454.805 38.568 454.917 38.68 454.917 38.904V39.768C454.917 39.992 454.805 40.104 454.581 40.104H448.701C448.541 40.104 448.461 40.176 448.461 40.32V45.168C448.461 45.312 448.541 45.384 448.701 45.384H453.837C454.061 45.384 454.173 45.496 454.173 45.72V46.584C454.173 46.808 454.061 46.92 453.837 46.92H448.701C448.541 46.92 448.461 46.992 448.461 47.136V52.248C448.461 52.392 448.541 52.464 448.701 52.464H454.581C454.805 52.464 454.917 52.576 454.917 52.8V53.664C454.917 53.888 454.805 54 454.581 54ZM459.608 50.76V52.656C459.608 53.008 459.488 53.472 459.248 54.048L458.288 56.304C458.208 56.432 458.112 56.496 458 56.496C457.84 56.496 457.76 56.392 457.76 56.184V50.76C457.76 50.552 457.864 50.448 458.072 50.448H459.296C459.504 50.448 459.608 50.552 459.608 50.76ZM474.038 54H472.334C472.126 54 471.99 53.888 471.926 53.664L467.678 38.928C467.63 38.688 467.734 38.568 467.99 38.568H469.166C469.374 38.568 469.502 38.68 469.55 38.904L473.126 52.032H473.222L476.798 38.904C476.846 38.68 476.974 38.568 477.182 38.568H478.382C478.622 38.568 478.718 38.688 478.67 38.928L474.422 53.664C474.358 53.888 474.23 54 474.038 54ZM484.642 52.464H487.09C488.434 52.464 489.106 51.768 489.106 50.376V42.192C489.106 40.8 488.434 40.104 487.09 40.104H484.642C483.314 40.104 482.65 40.8 482.65 42.192V50.376C482.65 51.768 483.314 52.464 484.642 52.464ZM487.306 54H484.45C483.346 54 482.474 53.688 481.834 53.064C481.21 52.44 480.898 51.568 480.898 50.448V42.12C480.898 41 481.21 40.128 481.834 39.504C482.474 38.88 483.346 38.568 484.45 38.568H487.306C488.41 38.568 489.274 38.888 489.898 39.528C490.538 40.152 490.858 41.016 490.858 42.12V50.448C490.858 51.552 490.538 52.424 489.898 53.064C489.274 53.688 488.41 54 487.306 54ZM502.612 38.568H503.692C503.916 38.568 504.028 38.672 504.028 38.88V50.448C504.028 51.568 503.716 52.44 503.092 53.064C502.468 53.688 501.604 54 500.5 54H497.836C496.732 54 495.86 53.688 495.22 53.064C494.596 52.44 494.284 51.568 494.284 50.448V38.904C494.284 38.68 494.396 38.568 494.62 38.568H495.7C495.924 38.568 496.036 38.68 496.036 38.904V50.376C496.036 51.768 496.7 52.464 498.028 52.464H500.284C501.628 52.464 502.3 51.768 502.3 50.376V38.904C502.3 38.68 502.404 38.568 502.612 38.568ZM507.525 50.448V49.68C507.525 49.456 507.637 49.344 507.861 49.344H508.941C509.165 49.344 509.277 49.456 509.277 49.68V50.304C509.277 51.744 509.989 52.464 511.413 52.464H513.525C514.949 52.464 515.661 51.728 515.661 50.256V49.44C515.661 48.288 514.709 47.536 512.805 47.184C512.005 47.04 511.205 46.872 510.405 46.68C509.605 46.488 508.925 46.12 508.365 45.576C507.805 45.016 507.525 44.256 507.525 43.296V42.12C507.525 41.016 507.837 40.152 508.461 39.528C509.101 38.888 509.973 38.568 511.077 38.568H513.741C514.829 38.568 515.693 38.888 516.333 39.528C516.973 40.152 517.293 41.016 517.293 42.12V42.72C517.293 42.96 517.189 43.08 516.981 43.08H515.877C515.669 43.08 515.565 42.96 515.565 42.72V42.288C515.565 40.832 514.853 40.104 513.429 40.104H511.389C509.965 40.104 509.253 40.864 509.253 42.384V43.344C509.253 44.16 509.789 44.72 510.861 45.024C511.341 45.152 511.869 45.272 512.445 45.384C513.021 45.48 513.597 45.616 514.173 45.792C514.765 45.952 515.301 46.16 515.781 46.416C516.261 46.656 516.645 47.032 516.933 47.544C517.237 48.04 517.389 48.648 517.389 49.368V50.448C517.389 51.552 517.069 52.424 516.429 53.064C515.789 53.688 514.925 54 513.837 54H511.077C509.989 54 509.125 53.688 508.485 53.064C507.845 52.424 507.525 51.552 507.525 50.448ZM193.886 90H192.83C192.606 90 192.494 89.888 192.494 89.664V74.904C192.494 74.68 192.606 74.568 192.83 74.568H193.814C194.006 74.568 194.134 74.632 194.198 74.76L200.822 86.4H200.918V74.904C200.918 74.68 201.03 74.568 201.254 74.568H202.31C202.534 74.568 202.646 74.68 202.646 74.904V89.664C202.646 89.888 202.534 90 202.31 90H201.422C201.246 90 201.078 89.896 200.918 89.688L194.318 78.168H194.222V89.664C194.222 89.888 194.11 90 193.886 90ZM214.311 90H206.775C206.551 90 206.439 89.888 206.439 89.664V74.904C206.439 74.68 206.551 74.568 206.775 74.568H214.311C214.535 74.568 214.647 74.68 214.647 74.904V75.768C214.647 75.992 214.535 76.104 214.311 76.104H208.431C208.271 76.104 208.191 76.176 208.191 76.32V81.168C208.191 81.312 208.271 81.384 208.431 81.384H213.567C213.791 81.384 213.903 81.496 213.903 81.72V82.584C213.903 82.808 213.791 82.92 213.567 82.92H208.431C208.271 82.92 208.191 82.992 208.191 83.136V88.248C208.191 88.392 208.271 88.464 208.431 88.464H214.311C214.535 88.464 214.647 88.576 214.647 88.8V89.664C214.647 89.888 214.535 90 214.311 90ZM223.896 86.448V85.68C223.896 85.456 224.008 85.344 224.232 85.344H225.312C225.536 85.344 225.648 85.456 225.648 85.68V86.304C225.648 87.744 226.36 88.464 227.784 88.464H229.896C231.32 88.464 232.032 87.728 232.032 86.256V85.44C232.032 84.288 231.08 83.536 229.176 83.184C228.376 83.04 227.576 82.872 226.776 82.68C225.976 82.488 225.296 82.12 224.736 81.576C224.176 81.016 223.896 80.256 223.896 79.296V78.12C223.896 77.016 224.208 76.152 224.832 75.528C225.472 74.888 226.344 74.568 227.448 74.568H230.112C231.2 74.568 232.064 74.888 232.704 75.528C233.344 76.152 233.664 77.016 233.664 78.12V78.72C233.664 78.96 233.56 79.08 233.352 79.08H232.248C232.04 79.08 231.936 78.96 231.936 78.72V78.288C231.936 76.832 231.224 76.104 229.8 76.104H227.76C226.336 76.104 225.624 76.864 225.624 78.384V79.344C225.624 80.16 226.16 80.72 227.232 81.024C227.712 81.152 228.24 81.272 228.816 81.384C229.392 81.48 229.968 81.616 230.544 81.792C231.136 81.952 231.672 82.16 232.152 82.416C232.632 82.656 233.016 83.032 233.304 83.544C233.608 84.04 233.76 84.648 233.76 85.368V86.448C233.76 87.552 233.44 88.424 232.8 89.064C232.16 89.688 231.296 90 230.208 90H227.448C226.36 90 225.496 89.688 224.856 89.064C224.216 88.424 223.896 87.552 223.896 86.448ZM245.248 90H237.712C237.488 90 237.376 89.888 237.376 89.664V74.904C237.376 74.68 237.488 74.568 237.712 74.568H245.248C245.472 74.568 245.584 74.68 245.584 74.904V75.768C245.584 75.992 245.472 76.104 245.248 76.104H239.368C239.208 76.104 239.128 76.176 239.128 76.32V81.168C239.128 81.312 239.208 81.384 239.368 81.384H244.504C244.728 81.384 244.84 81.496 244.84 81.72V82.584C244.84 82.808 244.728 82.92 244.504 82.92H239.368C239.208 82.92 239.128 82.992 239.128 83.136V88.248C239.128 88.392 239.208 88.464 239.368 88.464H245.248C245.472 88.464 245.584 88.576 245.584 88.8V89.664C245.584 89.888 245.472 90 245.248 90ZM250.324 90H249.244C249.02 90 248.908 89.888 248.908 89.664V74.904C248.908 74.68 249.02 74.568 249.244 74.568H254.764C255.868 74.568 256.74 74.888 257.38 75.528C258.02 76.152 258.34 77.016 258.34 78.12V80.304C258.34 81.2 258.124 81.944 257.692 82.536C257.26 83.112 256.66 83.496 255.892 83.688V83.784L258.676 89.616C258.82 89.872 258.74 90 258.436 90H257.356C257.084 90 256.884 89.888 256.756 89.664L254.068 83.856H250.9C250.74 83.856 250.66 83.928 250.66 84.072V89.664C250.66 89.888 250.548 90 250.324 90ZM250.9 82.392H254.524C255.9 82.392 256.588 81.704 256.588 80.328V78.192C256.588 76.8 255.9 76.104 254.524 76.104H250.9C250.74 76.104 250.66 76.176 250.66 76.32V82.176C250.66 82.32 250.74 82.392 250.9 82.392ZM269.67 90H262.134C261.91 90 261.798 89.888 261.798 89.664V74.904C261.798 74.68 261.91 74.568 262.134 74.568H269.67C269.894 74.568 270.006 74.68 270.006 74.904V75.768C270.006 75.992 269.894 76.104 269.67 76.104H263.79C263.63 76.104 263.55 76.176 263.55 76.32V81.168C263.55 81.312 263.63 81.384 263.79 81.384H268.926C269.15 81.384 269.262 81.496 269.262 81.72V82.584C269.262 82.808 269.15 82.92 268.926 82.92H263.79C263.63 82.92 263.55 82.992 263.55 83.136V88.248C263.55 88.392 263.63 88.464 263.79 88.464H269.67C269.894 88.464 270.006 88.576 270.006 88.8V89.664C270.006 89.888 269.894 90 269.67 90ZM272.49 89.664V88.8C272.49 88.512 272.538 88.304 272.634 88.176L280.074 76.296V76.2H273.138C272.914 76.2 272.802 76.088 272.802 75.864V74.904C272.802 74.68 272.914 74.568 273.138 74.568H281.634C281.858 74.568 281.97 74.68 281.97 74.904V76.056C281.97 76.312 281.906 76.536 281.778 76.728L274.53 88.272V88.368H281.874C282.098 88.368 282.21 88.472 282.21 88.68V89.64C282.21 89.88 282.098 90 281.874 90H272.826C272.602 90 272.49 89.888 272.49 89.664ZM292.675 90H291.595C291.371 90 291.259 89.888 291.259 89.664V74.904C291.259 74.68 291.371 74.568 291.595 74.568H297.211C298.315 74.568 299.179 74.888 299.803 75.528C300.427 76.152 300.739 77.016 300.739 78.12V80.784C300.739 81.904 300.427 82.776 299.803 83.4C299.179 84.024 298.315 84.336 297.211 84.336H293.251C293.091 84.336 293.011 84.408 293.011 84.552V89.664C293.011 89.888 292.899 90 292.675 90ZM293.251 82.776H296.971C298.315 82.776 298.987 82.088 298.987 80.712V78.192C298.987 76.8 298.315 76.104 296.971 76.104H293.251C293.091 76.104 293.011 76.176 293.011 76.32V82.56C293.011 82.704 293.091 82.776 293.251 82.776ZM304.084 90H302.884C302.676 90 302.604 89.888 302.668 89.664L307.156 74.904C307.22 74.68 307.372 74.568 307.612 74.568H309.34C309.58 74.568 309.732 74.68 309.796 74.904L314.284 89.664C314.348 89.888 314.276 90 314.068 90H312.844C312.668 90 312.556 89.888 312.508 89.664L311.38 86.16H305.572L304.444 89.664C304.38 89.888 304.26 90 304.084 90ZM308.428 76.368L305.956 84.672H310.996L308.524 76.368H308.428ZM316.685 86.448V85.68C316.685 85.456 316.797 85.344 317.021 85.344H318.101C318.325 85.344 318.437 85.456 318.437 85.68V86.304C318.437 87.744 319.149 88.464 320.573 88.464H322.685C324.109 88.464 324.821 87.728 324.821 86.256V85.44C324.821 84.288 323.869 83.536 321.965 83.184C321.165 83.04 320.365 82.872 319.565 82.68C318.765 82.488 318.085 82.12 317.525 81.576C316.965 81.016 316.685 80.256 316.685 79.296V78.12C316.685 77.016 316.997 76.152 317.621 75.528C318.261 74.888 319.133 74.568 320.237 74.568H322.901C323.989 74.568 324.853 74.888 325.493 75.528C326.133 76.152 326.453 77.016 326.453 78.12V78.72C326.453 78.96 326.349 79.08 326.141 79.08H325.037C324.829 79.08 324.725 78.96 324.725 78.72V78.288C324.725 76.832 324.013 76.104 322.589 76.104H320.549C319.125 76.104 318.413 76.864 318.413 78.384V79.344C318.413 80.16 318.949 80.72 320.021 81.024C320.501 81.152 321.029 81.272 321.605 81.384C322.181 81.48 322.757 81.616 323.333 81.792C323.925 81.952 324.461 82.16 324.941 82.416C325.421 82.656 325.805 83.032 326.093 83.544C326.397 84.04 326.549 84.648 326.549 85.368V86.448C326.549 87.552 326.229 88.424 325.589 89.064C324.949 89.688 324.085 90 322.997 90H320.237C319.149 90 318.285 89.688 317.645 89.064C317.005 88.424 316.685 87.552 316.685 86.448ZM338.251 88.464H342.283C343.627 88.464 344.299 87.768 344.299 86.376V78.192C344.299 76.8 343.627 76.104 342.283 76.104H338.251C338.091 76.104 338.011 76.176 338.011 76.32V88.248C338.011 88.392 338.091 88.464 338.251 88.464ZM336.259 89.664V74.904C336.259 74.68 336.371 74.568 336.595 74.568H342.499C343.603 74.568 344.467 74.888 345.091 75.528C345.731 76.152 346.051 77.016 346.051 78.12V86.448C346.051 87.552 345.731 88.424 345.091 89.064C344.467 89.688 343.603 90 342.499 90H336.595C336.371 90 336.259 89.888 336.259 89.664ZM354.827 69.936H356.267C356.379 69.936 356.451 69.968 356.483 70.032C356.515 70.096 356.499 70.176 356.435 70.272L354.323 72.792C354.195 72.952 354.043 73.032 353.867 73.032H353.075C352.851 73.032 352.803 72.92 352.931 72.696L354.299 70.248C354.411 70.04 354.587 69.936 354.827 69.936ZM357.467 90H349.931C349.707 90 349.595 89.888 349.595 89.664V74.904C349.595 74.68 349.707 74.568 349.931 74.568H357.467C357.691 74.568 357.803 74.68 357.803 74.904V75.768C357.803 75.992 357.691 76.104 357.467 76.104H351.587C351.427 76.104 351.347 76.176 351.347 76.32V81.168C351.347 81.312 351.427 81.384 351.587 81.384H356.723C356.947 81.384 357.059 81.496 357.059 81.72V82.584C357.059 82.808 356.947 82.92 356.723 82.92H351.587C351.427 82.92 351.347 82.992 351.347 83.136V88.248C351.347 88.392 351.427 88.464 351.587 88.464H357.467C357.691 88.464 357.803 88.576 357.803 88.8V89.664C357.803 89.888 357.691 90 357.467 90ZM370.534 79.632H369.454C369.23 79.632 369.118 79.52 369.118 79.296V78.192C369.118 76.8 368.446 76.104 367.102 76.104H364.63C363.302 76.104 362.638 76.8 362.638 78.192V86.376C362.638 87.768 363.302 88.464 364.63 88.464H367.102C368.446 88.464 369.118 87.768 369.118 86.376V85.272C369.118 85.048 369.23 84.936 369.454 84.936H370.534C370.758 84.936 370.87 85.048 370.87 85.272V86.448C370.87 87.568 370.55 88.44 369.91 89.064C369.286 89.688 368.422 90 367.318 90H366.982L365.926 91.104V91.2C367.158 91.2 367.774 91.72 367.774 92.76V93.072C367.774 94.096 367.086 94.608 365.71 94.608H364.966C364.758 94.608 364.654 94.504 364.654 94.296V93.96C364.654 93.752 364.758 93.648 364.966 93.648H365.542C366.006 93.648 366.326 93.592 366.502 93.48C366.678 93.384 366.766 93.208 366.766 92.952V92.88C366.766 92.592 366.678 92.4 366.502 92.304C366.342 92.208 366.022 92.16 365.542 92.16H365.158C364.87 92.16 364.678 92.04 364.582 91.8C364.502 91.56 364.558 91.328 364.75 91.104L365.71 90H364.438C363.334 90 362.462 89.688 361.822 89.064C361.198 88.44 360.886 87.568 360.886 86.448V78.12C360.886 77 361.198 76.128 361.822 75.504C362.462 74.88 363.334 74.568 364.438 74.568H367.318C368.422 74.568 369.286 74.88 369.91 75.504C370.55 76.128 370.87 77 370.87 78.12V79.296C370.87 79.52 370.758 79.632 370.534 79.632ZM382.319 74.568H383.399C383.623 74.568 383.735 74.672 383.735 74.88V86.448C383.735 87.568 383.423 88.44 382.799 89.064C382.175 89.688 381.311 90 380.207 90H377.543C376.439 90 375.567 89.688 374.927 89.064C374.303 88.44 373.991 87.568 373.991 86.448V74.904C373.991 74.68 374.103 74.568 374.327 74.568H375.407C375.631 74.568 375.743 74.68 375.743 74.904V86.376C375.743 87.768 376.407 88.464 377.735 88.464H379.991C381.335 88.464 382.007 87.768 382.007 86.376V74.904C382.007 74.68 382.111 74.568 382.319 74.568ZM399.563 77.688V74.904C399.563 74.68 399.675 74.568 399.899 74.568H401.171C401.395 74.568 401.507 74.68 401.507 74.904V77.688C401.507 79.208 401.459 80.688 401.363 82.128C401.267 83.568 401.203 84.384 401.171 84.576C401.139 84.768 401.035 84.864 400.859 84.864H400.211C400.003 84.864 399.891 84.744 399.875 84.504C399.811 83.88 399.739 82.784 399.659 81.216C399.595 79.648 399.563 78.472 399.563 77.688ZM401.459 86.76V89.664C401.459 89.888 401.347 90 401.123 90H399.971C399.763 90 399.659 89.88 399.659 89.64V86.76C399.659 86.552 399.763 86.448 399.971 86.448H401.123C401.347 86.448 401.459 86.552 401.459 86.76ZM406.387 74.88V76.272C406.387 76.64 406.275 77.16 406.051 77.832L405.235 80.112C405.187 80.224 405.099 80.28 404.971 80.28C404.795 80.28 404.707 80.184 404.707 79.992V74.904C404.707 74.68 404.819 74.568 405.043 74.568H406.075C406.283 74.568 406.387 74.672 406.387 74.88ZM410.083 74.88V76.272C410.083 76.672 409.963 77.192 409.723 77.832L408.931 80.112C408.883 80.224 408.779 80.28 408.619 80.28C408.475 80.28 408.403 80.184 408.403 79.992V74.904C408.403 74.68 408.507 74.568 408.715 74.568H409.771C409.979 74.568 410.083 74.672 410.083 74.88Z" fill="#686666"/>
    <path d="M176.339 113.4H180.371C181.415 113.4 182.339 113.652 183.143 114.156C183.959 114.66 184.595 115.386 185.051 116.334C185.507 117.282 185.735 118.404 185.735 119.7C185.735 120.996 185.507 122.118 185.051 123.066C184.595 124.014 183.959 124.74 183.143 125.244C182.339 125.748 181.415 126 180.371 126H176.339V113.4ZM180.065 124.506C181.325 124.506 182.279 124.086 182.927 123.246C183.587 122.406 183.917 121.224 183.917 119.7C183.917 118.176 183.587 116.994 182.927 116.154C182.279 115.314 181.325 114.894 180.065 114.894H177.977V124.506H180.065ZM190.888 126.18C190 126.18 189.238 125.976 188.602 125.568C187.978 125.148 187.504 124.584 187.18 123.876C186.868 123.168 186.712 122.382 186.712 121.518C186.712 120.69 186.856 119.934 187.144 119.25C187.444 118.554 187.87 118.008 188.422 117.612C188.986 117.204 189.652 117 190.42 117C191.404 117 192.202 117.33 192.814 117.99C193.438 118.65 193.75 119.562 193.75 120.726C193.75 120.93 193.726 121.212 193.678 121.572H188.314C188.35 122.616 188.608 123.408 189.088 123.948C189.58 124.488 190.216 124.758 190.996 124.758C191.368 124.758 191.758 124.716 192.166 124.632C192.586 124.536 192.952 124.404 193.264 124.236L193.408 125.64C192.748 126 191.908 126.18 190.888 126.18ZM192.148 120.474C192.148 119.874 191.998 119.388 191.698 119.016C191.41 118.632 190.99 118.44 190.438 118.44C189.898 118.44 189.448 118.608 189.088 118.944C188.74 119.28 188.506 119.79 188.386 120.474H192.148ZM189.124 114.39L191.77 112.698V114.462L189.124 115.488V114.39ZM198.672 126.18C197.328 126.18 196.308 125.76 195.612 124.92C194.916 124.068 194.568 122.976 194.568 121.644C194.568 120.264 194.916 119.148 195.612 118.296C196.308 117.432 197.34 117 198.708 117C199.44 117 200.094 117.15 200.67 117.45L200.418 118.836C199.878 118.548 199.314 118.404 198.726 118.404C197.922 118.404 197.292 118.686 196.836 119.25C196.392 119.802 196.17 120.576 196.17 121.572C196.17 122.568 196.398 123.354 196.854 123.93C197.322 124.506 197.964 124.794 198.78 124.794C199.404 124.794 199.956 124.65 200.436 124.362L200.652 125.766C200.412 125.886 200.112 125.982 199.752 126.054C199.392 126.138 199.032 126.18 198.672 126.18ZM205.204 126.18C204.412 126.18 203.728 125.982 203.152 125.586C202.576 125.178 202.132 124.626 201.82 123.93C201.52 123.234 201.37 122.454 201.37 121.59C201.37 120.726 201.52 119.946 201.82 119.25C202.132 118.554 202.576 118.008 203.152 117.612C203.728 117.204 204.412 117 205.204 117C205.984 117 206.662 117.204 207.238 117.612C207.814 118.008 208.252 118.554 208.552 119.25C208.852 119.946 209.002 120.726 209.002 121.59C209.002 122.454 208.852 123.234 208.552 123.93C208.252 124.626 207.814 125.178 207.238 125.586C206.662 125.982 205.984 126.18 205.204 126.18ZM205.204 124.794C205.9 124.794 206.44 124.512 206.824 123.948C207.208 123.384 207.4 122.598 207.4 121.59C207.4 120.582 207.208 119.802 206.824 119.25C206.44 118.686 205.9 118.404 205.204 118.404C204.484 118.404 203.932 118.686 203.548 119.25C203.164 119.802 202.972 120.582 202.972 121.59C202.972 122.61 203.164 123.402 203.548 123.966C203.932 124.518 204.484 124.794 205.204 124.794ZM216.755 117.18V126H215.423L215.315 124.92C215.075 125.316 214.751 125.628 214.343 125.856C213.935 126.072 213.485 126.18 212.993 126.18C212.069 126.18 211.379 125.874 210.923 125.262C210.479 124.638 210.257 123.75 210.257 122.598V117.18H211.823V122.4C211.823 123.192 211.937 123.786 212.165 124.182C212.405 124.566 212.801 124.758 213.353 124.758C213.737 124.758 214.085 124.65 214.397 124.434C214.709 124.218 214.973 123.918 215.189 123.534V117.18H216.755ZM218.044 117.18H219.718L221.77 124.146L223.786 117.18H225.46L222.544 126H220.978L218.044 117.18ZM226.556 117.18H227.834L228.032 118.656C228.428 118.08 228.8 117.66 229.148 117.396C229.508 117.132 229.886 117 230.282 117C230.438 117 230.576 117.018 230.696 117.054L230.534 118.836C230.378 118.8 230.198 118.782 229.994 118.782C229.598 118.782 229.226 118.884 228.878 119.088C228.53 119.28 228.278 119.508 228.122 119.772V126H226.556V117.18ZM231.883 113.4H233.449V115.182H231.883V113.4ZM231.883 117.18H233.449V126H231.883V117.18ZM235.539 117.18H236.817L237.015 118.656C237.411 118.08 237.783 117.66 238.131 117.396C238.491 117.132 238.869 117 239.265 117C239.421 117 239.559 117.018 239.679 117.054L239.517 118.836C239.361 118.8 239.181 118.782 238.977 118.782C238.581 118.782 238.209 118.884 237.861 119.088C237.513 119.28 237.261 119.508 237.105 119.772V126H235.539V117.18ZM246.595 126.18C245.563 126.18 244.669 125.94 243.913 125.46L244.111 123.876C244.879 124.476 245.671 124.776 246.487 124.776C246.919 124.776 247.255 124.686 247.495 124.506C247.747 124.326 247.873 124.062 247.873 123.714C247.873 123.45 247.813 123.234 247.693 123.066C247.585 122.898 247.399 122.736 247.135 122.58C246.871 122.424 246.463 122.22 245.911 121.968C245.263 121.668 244.789 121.326 244.489 120.942C244.189 120.558 244.039 120.06 244.039 119.448C244.039 118.728 244.291 118.14 244.795 117.684C245.299 117.228 245.977 117 246.829 117C247.693 117 248.449 117.192 249.097 117.576L248.899 119.034C248.575 118.818 248.269 118.662 247.981 118.566C247.693 118.458 247.351 118.404 246.955 118.404C246.535 118.404 246.205 118.494 245.965 118.674C245.725 118.854 245.605 119.106 245.605 119.43C245.605 119.754 245.707 120 245.911 120.168C246.127 120.336 246.541 120.558 247.153 120.834C248.005 121.218 248.605 121.608 248.953 122.004C249.301 122.388 249.475 122.898 249.475 123.534C249.475 124.362 249.217 125.01 248.701 125.478C248.185 125.946 247.483 126.18 246.595 126.18ZM257.132 117.18V126H255.8L255.692 124.92C255.452 125.316 255.128 125.628 254.72 125.856C254.312 126.072 253.862 126.18 253.37 126.18C252.446 126.18 251.756 125.874 251.3 125.262C250.856 124.638 250.634 123.75 250.634 122.598V117.18H252.2V122.4C252.2 123.192 252.314 123.786 252.542 124.182C252.782 124.566 253.178 124.758 253.73 124.758C254.114 124.758 254.462 124.65 254.774 124.434C255.086 124.218 255.35 123.918 255.566 123.534V117.18H257.132ZM259.375 117.18H260.653L260.851 118.656C261.247 118.08 261.619 117.66 261.967 117.396C262.327 117.132 262.705 117 263.101 117C263.257 117 263.395 117.018 263.515 117.054L263.353 118.836C263.197 118.8 263.017 118.782 262.813 118.782C262.417 118.782 262.045 118.884 261.697 119.088C261.349 119.28 261.097 119.508 260.941 119.772V126H259.375V117.18Z" fill="#8F8F8F"/>
    <path d="M279.054 124.68C280.007 124.68 280.916 124.497 281.782 124.13C282.647 123.749 283.373 123.228 283.96 122.568L285.06 123.712C284.297 124.504 283.388 125.127 282.332 125.582C281.276 126.022 280.168 126.242 279.01 126.242C277.895 126.242 276.846 126.037 275.864 125.626C274.896 125.215 274.052 124.658 273.334 123.954C272.615 123.235 272.05 122.392 271.64 121.424C271.229 120.441 271.024 119.4 271.024 118.3C271.024 117.2 271.229 116.166 271.64 115.198C272.05 114.215 272.615 113.372 273.334 112.668C274.052 111.949 274.896 111.385 275.864 110.974C276.846 110.563 277.895 110.358 279.01 110.358C280.198 110.358 281.32 110.585 282.376 111.04C283.446 111.48 284.356 112.096 285.104 112.888L283.982 114.076C283.38 113.401 282.632 112.873 281.738 112.492C280.858 112.111 279.948 111.92 279.01 111.92C278.13 111.92 277.301 112.089 276.524 112.426C275.761 112.749 275.101 113.196 274.544 113.768C273.986 114.325 273.546 115 273.224 115.792C272.901 116.569 272.74 117.405 272.74 118.3C272.74 119.195 272.901 120.038 273.224 120.83C273.546 121.607 273.986 122.282 274.544 122.854C275.116 123.411 275.783 123.859 276.546 124.196C277.323 124.519 278.159 124.68 279.054 124.68ZM286.383 120.478C286.383 119.686 286.53 118.938 286.823 118.234C287.116 117.53 287.512 116.921 288.011 116.408C288.524 115.895 289.126 115.491 289.815 115.198C290.504 114.905 291.238 114.758 292.015 114.758C292.792 114.758 293.518 114.905 294.193 115.198C294.882 115.491 295.476 115.895 295.975 116.408C296.488 116.921 296.892 117.53 297.185 118.234C297.478 118.938 297.625 119.686 297.625 120.478C297.625 121.285 297.478 122.04 297.185 122.744C296.892 123.448 296.488 124.057 295.975 124.57C295.476 125.083 294.882 125.487 294.193 125.78C293.518 126.073 292.792 126.22 292.015 126.22C291.238 126.22 290.504 126.073 289.815 125.78C289.126 125.487 288.524 125.083 288.011 124.57C287.512 124.057 287.116 123.448 286.823 122.744C286.53 122.04 286.383 121.285 286.383 120.478ZM292.015 124.768C292.572 124.768 293.093 124.658 293.577 124.438C294.076 124.218 294.501 123.917 294.853 123.536C295.22 123.14 295.506 122.685 295.711 122.172C295.916 121.644 296.019 121.079 296.019 120.478C296.019 119.877 295.916 119.319 295.711 118.806C295.506 118.278 295.22 117.823 294.853 117.442C294.501 117.061 294.076 116.76 293.577 116.54C293.093 116.32 292.572 116.21 292.015 116.21C291.458 116.21 290.93 116.32 290.431 116.54C289.947 116.76 289.522 117.061 289.155 117.442C288.803 117.823 288.517 118.278 288.297 118.806C288.092 119.319 287.989 119.877 287.989 120.478C287.989 121.079 288.092 121.644 288.297 122.172C288.502 122.685 288.781 123.14 289.133 123.536C289.5 123.917 289.932 124.218 290.431 124.438C290.93 124.658 291.458 124.768 292.015 124.768ZM300.701 112.866C300.408 112.866 300.151 112.756 299.931 112.536C299.711 112.316 299.601 112.059 299.601 111.766C299.601 111.458 299.711 111.201 299.931 110.996C300.151 110.776 300.408 110.666 300.701 110.666C301.009 110.666 301.266 110.776 301.471 110.996C301.691 111.201 301.801 111.458 301.801 111.766C301.801 112.059 301.691 112.316 301.471 112.536C301.266 112.756 301.009 112.866 300.701 112.866ZM301.515 114.978V126H299.887V114.978H301.515ZM304.291 126V114.978H305.919V116.276C306.345 115.777 306.851 115.403 307.437 115.154C308.024 114.89 308.677 114.758 309.395 114.758C310.642 114.758 311.661 115.154 312.453 115.946C313.245 116.738 313.641 117.765 313.641 119.026V126H312.035V119.356C312.035 118.388 311.757 117.618 311.199 117.046C310.642 116.474 309.894 116.188 308.955 116.188C308.295 116.188 307.701 116.335 307.173 116.628C306.66 116.921 306.242 117.339 305.919 117.882V126H304.291ZM321.4 126V110.6H332.422V112.096H323.094V117.596H329.21V119.07H323.094V126H321.4ZM332.145 120.478C332.145 119.686 332.291 118.938 332.585 118.234C332.878 117.53 333.274 116.921 333.773 116.408C334.286 115.895 334.887 115.491 335.577 115.198C336.266 114.905 336.999 114.758 337.777 114.758C338.554 114.758 339.28 114.905 339.955 115.198C340.644 115.491 341.238 115.895 341.737 116.408C342.25 116.921 342.653 117.53 342.947 118.234C343.24 118.938 343.387 119.686 343.387 120.478C343.387 121.285 343.24 122.04 342.947 122.744C342.653 123.448 342.25 124.057 341.737 124.57C341.238 125.083 340.644 125.487 339.955 125.78C339.28 126.073 338.554 126.22 337.777 126.22C336.999 126.22 336.266 126.073 335.577 125.78C334.887 125.487 334.286 125.083 333.773 124.57C333.274 124.057 332.878 123.448 332.585 122.744C332.291 122.04 332.145 121.285 332.145 120.478ZM337.777 124.768C338.334 124.768 338.855 124.658 339.339 124.438C339.837 124.218 340.263 123.917 340.615 123.536C340.981 123.14 341.267 122.685 341.473 122.172C341.678 121.644 341.781 121.079 341.781 120.478C341.781 119.877 341.678 119.319 341.473 118.806C341.267 118.278 340.981 117.823 340.615 117.442C340.263 117.061 339.837 116.76 339.339 116.54C338.855 116.32 338.334 116.21 337.777 116.21C337.219 116.21 336.691 116.32 336.193 116.54C335.709 116.76 335.283 117.061 334.917 117.442C334.565 117.823 334.279 118.278 334.059 118.806C333.853 119.319 333.751 119.877 333.751 120.478C333.751 121.079 333.853 121.644 334.059 122.172C334.264 122.685 334.543 123.14 334.895 123.536C335.261 123.917 335.694 124.218 336.193 124.438C336.691 124.658 337.219 124.768 337.777 124.768ZM347.211 114.978V121.622C347.211 122.59 347.489 123.36 348.047 123.932C348.604 124.504 349.352 124.79 350.291 124.79C350.951 124.79 351.537 124.643 352.051 124.35C352.579 124.042 353.004 123.617 353.327 123.074V114.978H354.955V126H353.327V124.724C352.901 125.223 352.395 125.597 351.809 125.846C351.237 126.095 350.591 126.22 349.873 126.22C348.611 126.22 347.585 125.824 346.793 125.032C346.001 124.24 345.605 123.213 345.605 121.952V114.978H347.211ZM357.723 126V114.978H359.351V116.54C359.674 115.968 360.099 115.528 360.627 115.22C361.155 114.897 361.756 114.736 362.431 114.736C362.636 114.736 362.82 114.751 362.981 114.78C363.142 114.795 363.304 114.831 363.465 114.89V116.386C363.274 116.327 363.084 116.283 362.893 116.254C362.702 116.21 362.512 116.188 362.321 116.188C361.646 116.188 361.052 116.386 360.539 116.782C360.026 117.163 359.63 117.721 359.351 118.454V126H357.723ZM369.681 124.724C370.268 124.724 370.833 124.607 371.375 124.372C371.918 124.137 372.424 123.793 372.893 123.338L373.905 124.438C373.319 124.995 372.659 125.428 371.925 125.736C371.192 126.044 370.429 126.198 369.637 126.198C368.86 126.198 368.127 126.051 367.437 125.758C366.748 125.465 366.154 125.061 365.655 124.548C365.157 124.035 364.761 123.426 364.467 122.722C364.174 122.018 364.027 121.27 364.027 120.478C364.027 119.686 364.174 118.945 364.467 118.256C364.761 117.552 365.157 116.943 365.655 116.43C366.154 115.917 366.748 115.513 367.437 115.22C368.127 114.912 368.86 114.758 369.637 114.758C370.429 114.758 371.199 114.912 371.947 115.22C372.71 115.528 373.377 115.953 373.949 116.496L372.915 117.684C372.475 117.229 371.969 116.877 371.397 116.628C370.825 116.379 370.246 116.254 369.659 116.254C369.102 116.254 368.574 116.364 368.075 116.584C367.577 116.804 367.144 117.105 366.777 117.486C366.425 117.867 366.147 118.315 365.941 118.828C365.736 119.341 365.633 119.891 365.633 120.478C365.633 121.079 365.736 121.644 365.941 122.172C366.161 122.685 366.447 123.133 366.799 123.514C367.166 123.881 367.599 124.174 368.097 124.394C368.596 124.614 369.124 124.724 369.681 124.724ZM375.813 126V110.6L377.441 110.226V116.276C377.866 115.777 378.372 115.403 378.959 115.154C379.545 114.89 380.198 114.758 380.917 114.758C382.163 114.758 383.183 115.154 383.975 115.946C384.767 116.738 385.163 117.765 385.163 119.026V126H383.557V119.356C383.557 118.388 383.278 117.618 382.721 117.046C382.163 116.474 381.415 116.188 380.477 116.188C379.817 116.188 379.223 116.335 378.695 116.628C378.181 116.921 377.763 117.339 377.441 117.882V126H375.813ZM397.171 124.834C396.555 125.289 395.91 125.633 395.235 125.868C394.575 126.088 393.849 126.198 393.057 126.198C392.265 126.198 391.517 126.051 390.813 125.758C390.124 125.465 389.522 125.061 389.009 124.548C388.51 124.035 388.114 123.433 387.821 122.744C387.528 122.04 387.381 121.285 387.381 120.478C387.381 119.686 387.52 118.945 387.799 118.256C388.092 117.567 388.481 116.965 388.965 116.452C389.449 115.939 390.021 115.535 390.681 115.242C391.356 114.949 392.067 114.802 392.815 114.802C393.548 114.802 394.23 114.949 394.861 115.242C395.506 115.535 396.056 115.939 396.511 116.452C396.98 116.965 397.347 117.567 397.611 118.256C397.89 118.945 398.029 119.686 398.029 120.478V120.984H388.987C389.104 122.069 389.552 122.971 390.329 123.69C391.106 124.409 392.038 124.768 393.123 124.768C393.695 124.768 394.252 124.68 394.795 124.504C395.338 124.328 395.792 124.079 396.159 123.756L397.171 124.834ZM392.771 116.232C391.818 116.232 390.989 116.555 390.285 117.2C389.596 117.845 389.178 118.674 389.031 119.686H396.401C396.254 118.718 395.836 117.904 395.147 117.244C394.472 116.569 393.68 116.232 392.771 116.232ZM401.239 123.536V116.364H398.863V114.978H401.239V112.184L402.845 111.766V114.978H406.167V116.364H402.845V123.118C402.845 123.705 402.977 124.13 403.241 124.394C403.505 124.643 403.938 124.768 404.539 124.768C404.847 124.768 405.119 124.746 405.353 124.702C405.603 124.658 405.867 124.585 406.145 124.482V125.912C405.867 126.015 405.551 126.088 405.199 126.132C404.862 126.176 404.532 126.198 404.209 126.198C403.256 126.198 402.523 125.971 402.009 125.516C401.496 125.061 401.239 124.401 401.239 123.536ZM409.489 123.536V116.364H407.113V114.978H409.489V112.184L411.095 111.766V114.978H414.417V116.364H411.095V123.118C411.095 123.705 411.227 124.13 411.491 124.394C411.755 124.643 412.188 124.768 412.789 124.768C413.097 124.768 413.369 124.746 413.603 124.702C413.853 124.658 414.117 124.585 414.395 124.482V125.912C414.117 126.015 413.801 126.088 413.449 126.132C413.112 126.176 412.782 126.198 412.459 126.198C411.506 126.198 410.773 125.971 410.259 125.516C409.746 125.061 409.489 124.401 409.489 123.536ZM425.101 124.834C424.485 125.289 423.839 125.633 423.165 125.868C422.505 126.088 421.779 126.198 420.987 126.198C420.195 126.198 419.447 126.051 418.743 125.758C418.053 125.465 417.452 125.061 416.939 124.548C416.44 124.035 416.044 123.433 415.751 122.744C415.457 122.04 415.311 121.285 415.311 120.478C415.311 119.686 415.45 118.945 415.729 118.256C416.022 117.567 416.411 116.965 416.895 116.452C417.379 115.939 417.951 115.535 418.611 115.242C419.285 114.949 419.997 114.802 420.745 114.802C421.478 114.802 422.16 114.949 422.791 115.242C423.436 115.535 423.986 115.939 424.441 116.452C424.91 116.965 425.277 117.567 425.541 118.256C425.819 118.945 425.959 119.686 425.959 120.478V120.984H416.917C417.034 122.069 417.481 122.971 418.259 123.69C419.036 124.409 419.967 124.768 421.053 124.768C421.625 124.768 422.182 124.68 422.725 124.504C423.267 124.328 423.722 124.079 424.089 123.756L425.101 124.834ZM420.701 116.232C419.747 116.232 418.919 116.555 418.215 117.2C417.525 117.845 417.107 118.674 416.961 119.686H424.331C424.184 118.718 423.766 117.904 423.077 117.244C422.402 116.569 421.61 116.232 420.701 116.232Z" fill="#C54B25"/>
    <path d="M252.428 202.724C251.852 202.724 251.294 202.618 250.752 202.406C250.21 202.195 249.728 201.882 249.305 201.467C248.89 201.052 248.556 200.54 248.302 199.931C248.056 199.321 247.934 198.615 247.934 197.811C247.934 197.066 248.039 196.334 248.251 195.614C248.463 194.895 248.755 194.256 249.127 193.697C249.499 193.13 249.944 192.673 250.46 192.326C250.985 191.979 251.556 191.806 252.174 191.806C252.622 191.806 253.003 191.899 253.316 192.085C253.63 192.263 253.883 192.483 254.078 192.745C254.273 192.999 254.412 193.274 254.497 193.57C254.59 193.867 254.637 194.129 254.637 194.357C254.637 194.527 254.59 194.679 254.497 194.814C254.412 194.95 254.307 195.064 254.18 195.157C254.053 195.25 253.913 195.322 253.761 195.373C253.608 195.415 253.473 195.432 253.354 195.424C253.236 195.415 253.139 195.373 253.062 195.297C252.995 195.221 252.974 195.106 252.999 194.954C252.965 194.844 252.931 194.709 252.897 194.548C252.872 194.387 252.821 194.235 252.745 194.091C252.677 193.938 252.58 193.812 252.453 193.71C252.326 193.6 252.153 193.545 251.933 193.545C251.696 193.545 251.463 193.659 251.234 193.888C251.014 194.108 250.815 194.412 250.638 194.802C250.468 195.191 250.329 195.644 250.219 196.16C250.117 196.676 250.066 197.227 250.066 197.811C250.066 198.327 250.13 198.784 250.257 199.182C250.392 199.579 250.578 199.914 250.815 200.185C251.052 200.455 251.332 200.663 251.653 200.807C251.983 200.942 252.339 201.01 252.72 201.01C253.228 201.01 253.668 200.917 254.04 200.73C254.421 200.536 254.743 200.282 255.005 199.969C255.267 199.656 255.479 199.304 255.64 198.915C255.8 198.526 255.919 198.132 255.995 197.734C256.054 197.447 256.173 197.256 256.351 197.163C256.537 197.062 256.723 197.036 256.909 197.087C257.104 197.138 257.269 197.248 257.404 197.417C257.548 197.578 257.607 197.772 257.582 198.001C257.548 198.263 257.485 198.564 257.392 198.902C257.307 199.241 257.18 199.584 257.011 199.931C256.841 200.278 256.626 200.62 256.363 200.959C256.109 201.289 255.796 201.585 255.424 201.848C255.051 202.11 254.616 202.322 254.116 202.482C253.625 202.643 253.062 202.724 252.428 202.724ZM265.504 197.709C265.521 197.607 265.576 197.523 265.669 197.455C265.771 197.387 265.885 197.341 266.012 197.315C266.139 197.29 266.27 197.29 266.405 197.315C266.549 197.341 266.672 197.4 266.773 197.493C266.883 197.578 266.96 197.701 267.002 197.861C267.053 198.014 267.049 198.213 266.989 198.458C266.913 198.813 266.786 199.148 266.608 199.461C266.439 199.766 266.223 200.036 265.961 200.273C265.699 200.51 265.39 200.697 265.034 200.832C264.679 200.967 264.281 201.035 263.841 201.035C263.604 201.035 263.38 201.022 263.168 200.997C262.965 200.972 262.766 200.925 262.571 200.857C262.25 201.416 261.835 201.865 261.327 202.203C260.819 202.55 260.193 202.724 259.448 202.724C258.788 202.724 258.221 202.592 257.747 202.33C257.273 202.076 256.88 201.729 256.566 201.289C256.253 200.84 256.021 200.324 255.868 199.74C255.724 199.156 255.652 198.538 255.652 197.887C255.652 196.93 255.762 196.076 255.982 195.322C256.211 194.561 256.473 193.917 256.77 193.393C257.066 192.859 257.358 192.453 257.646 192.174C257.942 191.895 258.162 191.755 258.306 191.755C258.475 191.755 258.627 191.831 258.763 191.983C258.907 192.127 259.008 192.301 259.067 192.504C259.135 192.699 259.152 192.897 259.118 193.101C259.093 193.304 258.995 193.46 258.826 193.57C258.725 193.731 258.602 193.917 258.458 194.129C258.323 194.34 258.191 194.607 258.064 194.929C257.946 195.242 257.844 195.627 257.76 196.084C257.675 196.541 257.633 197.091 257.633 197.734C257.633 198.285 257.679 198.763 257.772 199.169C257.874 199.575 258.009 199.918 258.179 200.197C258.356 200.468 258.555 200.671 258.775 200.807C259.004 200.942 259.245 201.01 259.499 201.01C259.871 201.01 260.176 200.921 260.413 200.743C260.659 200.557 260.866 200.316 261.035 200.02C260.426 199.495 259.96 198.83 259.639 198.026C259.326 197.214 259.169 196.338 259.169 195.398C259.169 194.992 259.211 194.607 259.296 194.243C259.389 193.871 259.52 193.545 259.689 193.266C259.867 192.986 260.087 192.766 260.35 192.605C260.612 192.436 260.917 192.352 261.264 192.352C261.568 192.352 261.856 192.462 262.127 192.682C262.398 192.902 262.635 193.206 262.838 193.596C263.041 193.985 263.198 194.446 263.308 194.979C263.426 195.513 263.485 196.092 263.485 196.719C263.485 197.201 263.456 197.679 263.396 198.153C263.337 198.627 263.244 199.084 263.117 199.524C263.21 199.558 263.295 199.579 263.371 199.588C263.456 199.588 263.545 199.588 263.638 199.588C263.917 199.588 264.162 199.537 264.374 199.436C264.594 199.334 264.78 199.199 264.933 199.029C265.085 198.86 265.208 198.661 265.301 198.433C265.394 198.204 265.462 197.963 265.504 197.709ZM260.54 195.297C260.54 195.881 260.629 196.435 260.807 196.96C260.993 197.485 261.234 197.942 261.53 198.331C261.581 197.916 261.606 197.519 261.606 197.138C261.606 196.698 261.598 196.291 261.581 195.919C261.573 195.538 261.543 195.212 261.492 194.941C261.45 194.671 261.386 194.459 261.302 194.307C261.226 194.146 261.12 194.065 260.984 194.065C260.688 194.065 260.54 194.476 260.54 195.297ZM266.888 189.495C266.676 189.495 266.473 189.453 266.278 189.368C266.092 189.284 265.927 189.169 265.783 189.025C265.648 188.882 265.538 188.716 265.453 188.53C265.368 188.336 265.326 188.128 265.326 187.908C265.326 187.68 265.368 187.468 265.453 187.273C265.538 187.079 265.648 186.914 265.783 186.778C265.927 186.634 266.092 186.524 266.278 186.448C266.473 186.364 266.676 186.321 266.888 186.321C267.116 186.321 267.328 186.364 267.522 186.448C267.717 186.524 267.882 186.634 268.018 186.778C268.161 186.914 268.271 187.079 268.348 187.273C268.432 187.468 268.475 187.68 268.475 187.908C268.475 188.128 268.432 188.336 268.348 188.53C268.271 188.716 268.161 188.882 268.018 189.025C267.882 189.169 267.717 189.284 267.522 189.368C267.328 189.453 267.116 189.495 266.888 189.495ZM267.484 199.816C267.484 199.876 267.489 199.973 267.497 200.108C267.506 200.235 267.531 200.367 267.573 200.502C267.616 200.637 267.683 200.756 267.776 200.857C267.869 200.959 268.001 201.01 268.17 201.01C268.424 201.01 268.644 200.917 268.83 200.73C269.025 200.544 269.19 200.312 269.325 200.032C269.469 199.753 269.588 199.452 269.681 199.131C269.774 198.801 269.85 198.492 269.909 198.204C269.96 197.942 270.036 197.751 270.138 197.633C270.248 197.514 270.362 197.451 270.48 197.442C270.607 197.425 270.73 197.455 270.849 197.531C270.976 197.607 271.086 197.709 271.179 197.836C271.28 197.954 271.352 198.09 271.395 198.242C271.445 198.395 271.454 198.538 271.42 198.674C271.301 199.105 271.145 199.558 270.95 200.032C270.764 200.506 270.523 200.942 270.227 201.34C269.93 201.738 269.575 202.068 269.16 202.33C268.745 202.592 268.259 202.724 267.7 202.724C267.353 202.724 267.044 202.656 266.773 202.521C266.503 202.394 266.274 202.22 266.088 202C265.902 201.78 265.758 201.522 265.656 201.226C265.563 200.929 265.517 200.616 265.517 200.286V193.342C265.517 193.096 265.495 192.919 265.453 192.809C265.419 192.699 265.402 192.597 265.402 192.504C265.402 192.377 265.47 192.275 265.605 192.199C265.741 192.115 265.902 192.072 266.088 192.072C266.52 192.072 266.858 192.187 267.104 192.415C267.357 192.635 267.484 192.902 267.484 193.215V199.816ZM270.011 193.342C270.011 193.096 269.99 192.919 269.947 192.809C269.913 192.699 269.896 192.597 269.896 192.504C269.896 192.377 269.964 192.275 270.1 192.199C270.235 192.115 270.396 192.072 270.582 192.072C271.014 192.072 271.352 192.187 271.598 192.415C271.852 192.635 271.979 192.902 271.979 193.215V194.383C272.156 194.019 272.347 193.68 272.55 193.367C272.761 193.054 272.986 192.783 273.223 192.555C273.468 192.318 273.726 192.136 273.997 192.009C274.276 191.873 274.577 191.806 274.898 191.806C275.33 191.806 275.686 191.886 275.965 192.047C276.244 192.208 276.464 192.415 276.625 192.669C276.786 192.923 276.896 193.206 276.955 193.52C277.023 193.833 277.057 194.137 277.057 194.434V199.816C277.057 199.876 277.061 199.973 277.069 200.108C277.078 200.235 277.103 200.367 277.146 200.502C277.188 200.637 277.251 200.756 277.336 200.857C277.429 200.959 277.56 201.01 277.729 201.01C277.992 201.01 278.216 200.917 278.402 200.73C278.597 200.544 278.762 200.312 278.897 200.032C279.041 199.753 279.156 199.452 279.24 199.131C279.333 198.801 279.41 198.492 279.469 198.204C279.52 197.933 279.604 197.739 279.723 197.62C279.841 197.493 279.964 197.43 280.091 197.43C280.192 197.43 280.298 197.464 280.408 197.531C280.518 197.59 280.616 197.671 280.7 197.772C280.793 197.874 280.865 197.988 280.916 198.115C280.975 198.242 281.005 198.369 281.005 198.496C281.005 198.513 281.005 198.534 281.005 198.56C281.005 198.585 280.996 198.623 280.979 198.674C280.869 199.105 280.717 199.558 280.522 200.032C280.336 200.506 280.091 200.942 279.786 201.34C279.49 201.738 279.134 202.068 278.72 202.33C278.305 202.592 277.818 202.724 277.26 202.724C276.913 202.724 276.604 202.656 276.333 202.521C276.071 202.394 275.842 202.22 275.647 202C275.461 201.78 275.317 201.522 275.216 201.226C275.123 200.929 275.076 200.616 275.076 200.286V195.005C275.076 194.802 275.072 194.611 275.063 194.434C275.055 194.256 275.03 194.099 274.987 193.964C274.953 193.828 274.898 193.723 274.822 193.646C274.755 193.562 274.657 193.52 274.53 193.52C274.344 193.52 274.116 193.646 273.845 193.9C273.574 194.154 273.307 194.484 273.045 194.891C272.783 195.297 272.55 195.758 272.347 196.274C272.152 196.782 272.029 197.294 271.979 197.811V201.606C271.979 201.733 271.974 201.865 271.966 202C271.966 202.127 271.94 202.241 271.89 202.343C271.847 202.453 271.775 202.542 271.674 202.609C271.581 202.686 271.441 202.724 271.255 202.724C271.128 202.724 270.988 202.707 270.836 202.673C270.692 202.647 270.557 202.592 270.43 202.508C270.311 202.432 270.21 202.317 270.125 202.165C270.049 202.021 270.011 201.826 270.011 201.581V193.342ZM281.373 194.383V194.954C281.965 195.674 282.499 196.414 282.973 197.176C283.455 197.929 283.861 198.725 284.191 199.562C284.53 200.4 284.788 201.285 284.966 202.216C285.152 203.147 285.245 204.15 285.245 205.225C285.245 206.308 285.16 207.307 284.991 208.221C284.83 209.143 284.598 209.935 284.293 210.595C283.997 211.263 283.633 211.784 283.201 212.156C282.778 212.529 282.308 212.715 281.792 212.715C281.335 212.715 280.954 212.601 280.649 212.372C280.345 212.152 280.099 211.856 279.913 211.483C279.735 211.119 279.604 210.705 279.52 210.239C279.443 209.774 279.405 209.3 279.405 208.817V194.827C279.38 194.802 279.35 194.772 279.316 194.738C279.291 194.704 279.266 194.671 279.24 194.637C279.037 194.434 278.851 194.247 278.682 194.078C278.521 193.9 278.44 193.706 278.44 193.494C278.44 193.367 278.487 193.24 278.58 193.113C278.673 192.978 278.826 192.897 279.037 192.872C279.079 192.872 279.13 192.868 279.189 192.859C279.249 192.851 279.321 192.847 279.405 192.847V185.458C279.405 185.272 279.388 185.124 279.354 185.014C279.329 184.904 279.299 184.819 279.266 184.76C279.24 184.692 279.211 184.641 279.177 184.607C279.151 184.565 279.139 184.523 279.139 184.48C279.139 184.43 279.164 184.387 279.215 184.354C279.266 184.32 279.333 184.29 279.418 184.265C279.503 184.239 279.591 184.222 279.685 184.214C279.786 184.197 279.883 184.188 279.977 184.188C280.408 184.188 280.747 184.303 280.992 184.531C281.246 184.751 281.373 185.018 281.373 185.331V192.694C281.678 192.669 281.982 192.648 282.287 192.631C282.592 192.605 282.888 192.584 283.176 192.567C283.464 192.542 283.726 192.525 283.963 192.517C284.208 192.508 284.42 192.504 284.598 192.504C284.885 192.504 285.135 192.559 285.347 192.669C285.558 192.779 285.664 192.969 285.664 193.24C285.664 193.333 285.651 193.469 285.626 193.646C285.609 193.824 285.579 194.006 285.537 194.192C285.503 194.379 285.452 194.539 285.385 194.675C285.326 194.81 285.254 194.878 285.169 194.878C285.127 194.878 285.093 194.865 285.067 194.84C285.05 194.806 285.017 194.772 284.966 194.738C284.924 194.704 284.856 194.671 284.763 194.637C284.678 194.603 284.547 194.577 284.369 194.561L281.373 194.383ZM283.277 205.225C283.277 204.632 283.235 204.019 283.15 203.384C283.074 202.757 282.956 202.123 282.795 201.479C282.634 200.828 282.435 200.185 282.198 199.55C281.961 198.907 281.686 198.285 281.373 197.684V208.817C281.373 209.021 281.382 209.241 281.398 209.478C281.415 209.715 281.445 209.93 281.487 210.125C281.538 210.32 281.602 210.48 281.678 210.607C281.762 210.743 281.868 210.811 281.995 210.811C282.181 210.811 282.355 210.675 282.516 210.404C282.676 210.133 282.812 209.748 282.922 209.249C283.032 208.758 283.117 208.17 283.176 207.484C283.243 206.807 283.277 206.054 283.277 205.225ZM295.896 197.709C295.913 197.607 295.968 197.523 296.062 197.455C296.163 197.387 296.277 197.341 296.404 197.315C296.531 197.29 296.662 197.29 296.798 197.315C296.942 197.341 297.064 197.4 297.166 197.493C297.276 197.578 297.352 197.701 297.395 197.861C297.445 198.014 297.441 198.213 297.382 198.458C297.306 198.813 297.179 199.148 297.001 199.461C296.832 199.766 296.616 200.036 296.354 200.273C296.091 200.51 295.782 200.697 295.427 200.832C295.071 200.967 294.674 201.035 294.233 201.035C293.996 201.035 293.772 201.022 293.561 200.997C293.357 200.972 293.159 200.925 292.964 200.857C292.642 201.416 292.228 201.865 291.72 202.203C291.212 202.55 290.586 202.724 289.841 202.724C289.181 202.724 288.614 202.592 288.14 202.33C287.666 202.076 287.272 201.729 286.959 201.289C286.646 200.84 286.413 200.324 286.261 199.74C286.117 199.156 286.045 198.538 286.045 197.887C286.045 196.93 286.155 196.076 286.375 195.322C286.604 194.561 286.866 193.917 287.162 193.393C287.458 192.859 287.75 192.453 288.038 192.174C288.334 191.895 288.554 191.755 288.698 191.755C288.868 191.755 289.02 191.831 289.155 191.983C289.299 192.127 289.401 192.301 289.46 192.504C289.528 192.699 289.545 192.897 289.511 193.101C289.485 193.304 289.388 193.46 289.219 193.57C289.117 193.731 288.994 193.917 288.851 194.129C288.715 194.34 288.584 194.607 288.457 194.929C288.339 195.242 288.237 195.627 288.152 196.084C288.068 196.541 288.025 197.091 288.025 197.734C288.025 198.285 288.072 198.763 288.165 199.169C288.267 199.575 288.402 199.918 288.571 200.197C288.749 200.468 288.948 200.671 289.168 200.807C289.396 200.942 289.638 201.01 289.892 201.01C290.264 201.01 290.569 200.921 290.806 200.743C291.051 200.557 291.258 200.316 291.428 200.02C290.818 199.495 290.353 198.83 290.031 198.026C289.718 197.214 289.562 196.338 289.562 195.398C289.562 194.992 289.604 194.607 289.688 194.243C289.782 193.871 289.913 193.545 290.082 193.266C290.26 192.986 290.48 192.766 290.742 192.605C291.005 192.436 291.309 192.352 291.656 192.352C291.961 192.352 292.249 192.462 292.52 192.682C292.79 192.902 293.027 193.206 293.23 193.596C293.434 193.985 293.59 194.446 293.7 194.979C293.819 195.513 293.878 196.092 293.878 196.719C293.878 197.201 293.848 197.679 293.789 198.153C293.73 198.627 293.637 199.084 293.51 199.524C293.603 199.558 293.688 199.579 293.764 199.588C293.848 199.588 293.937 199.588 294.03 199.588C294.31 199.588 294.555 199.537 294.767 199.436C294.987 199.334 295.173 199.199 295.325 199.029C295.478 198.86 295.6 198.661 295.693 198.433C295.786 198.204 295.854 197.963 295.896 197.709ZM290.933 195.297C290.933 195.881 291.021 196.435 291.199 196.96C291.385 197.485 291.627 197.942 291.923 198.331C291.974 197.916 291.999 197.519 291.999 197.138C291.999 196.698 291.991 196.291 291.974 195.919C291.965 195.538 291.936 195.212 291.885 194.941C291.842 194.671 291.779 194.459 291.694 194.307C291.618 194.146 291.512 194.065 291.377 194.065C291.081 194.065 290.933 194.476 290.933 195.297ZM303.057 202.724C302.76 202.724 302.49 202.677 302.244 202.584C302.007 202.491 301.796 202.36 301.609 202.19C301.432 202.03 301.284 201.839 301.165 201.619C301.047 201.391 300.966 201.145 300.924 200.883C300.611 201.433 300.243 201.882 299.819 202.229C299.396 202.576 298.897 202.749 298.321 202.749C297.89 202.749 297.5 202.66 297.153 202.482C296.815 202.305 296.527 202.055 296.29 201.733C296.053 201.403 295.871 201.01 295.744 200.553C295.626 200.087 295.566 199.571 295.566 199.004C295.566 198.318 295.613 197.629 295.706 196.935C295.808 196.241 295.918 195.614 296.036 195.056C296.172 194.404 296.328 193.773 296.506 193.164C296.548 193.054 296.578 192.944 296.595 192.834C296.62 192.715 296.671 192.61 296.747 192.517C296.823 192.424 296.942 192.347 297.103 192.288C297.272 192.229 297.53 192.199 297.877 192.199C298.199 192.199 298.406 192.258 298.499 192.377C298.592 192.487 298.626 192.618 298.601 192.771C298.584 192.923 298.533 193.079 298.448 193.24C298.372 193.401 298.321 193.532 298.296 193.634C298.177 194.116 298.072 194.556 297.979 194.954C297.885 195.352 297.805 195.754 297.737 196.16C297.678 196.558 297.632 196.977 297.598 197.417C297.564 197.849 297.547 198.335 297.547 198.877C297.547 199.588 297.648 200.125 297.852 200.489C298.063 200.853 298.359 201.035 298.74 201.035C299.003 201.035 299.244 200.938 299.464 200.743C299.692 200.549 299.896 200.29 300.073 199.969C300.259 199.639 300.42 199.266 300.556 198.852C300.691 198.428 300.797 197.988 300.873 197.531V193.342C300.873 193.156 300.856 193.007 300.822 192.897C300.797 192.787 300.767 192.703 300.733 192.644C300.708 192.576 300.678 192.525 300.645 192.491C300.619 192.449 300.606 192.402 300.606 192.352C300.606 192.309 300.632 192.271 300.683 192.237C300.733 192.203 300.801 192.174 300.886 192.148C300.97 192.123 301.059 192.106 301.152 192.098C301.254 192.081 301.351 192.072 301.444 192.072C301.876 192.072 302.215 192.187 302.46 192.415C302.714 192.635 302.841 192.902 302.841 193.215V199.816C302.841 199.876 302.845 199.973 302.854 200.108C302.862 200.235 302.887 200.367 302.93 200.502C302.972 200.637 303.04 200.756 303.133 200.857C303.226 200.959 303.357 201.01 303.526 201.01C303.789 201.01 304.013 200.917 304.199 200.73C304.394 200.544 304.559 200.312 304.694 200.032C304.838 199.753 304.952 199.452 305.037 199.131C305.13 198.801 305.206 198.492 305.266 198.204C305.316 197.933 305.401 197.739 305.52 197.62C305.638 197.493 305.761 197.43 305.888 197.43C305.989 197.43 306.095 197.464 306.205 197.531C306.315 197.59 306.412 197.671 306.497 197.772C306.59 197.874 306.662 197.988 306.713 198.115C306.772 198.242 306.802 198.369 306.802 198.496C306.802 198.513 306.802 198.534 306.802 198.56C306.802 198.585 306.793 198.623 306.776 198.674C306.658 199.105 306.501 199.558 306.307 200.032C306.12 200.506 305.879 200.942 305.583 201.34C305.287 201.738 304.931 202.068 304.517 202.33C304.102 202.592 303.615 202.724 303.057 202.724ZM311.042 202.724C310.737 202.724 310.424 202.677 310.103 202.584C309.789 202.491 309.502 202.33 309.239 202.102C308.985 201.873 308.774 201.573 308.604 201.2C308.444 200.819 308.363 200.341 308.363 199.766C308.363 198.928 308.473 198.043 308.693 197.112C308.922 196.173 309.248 195.14 309.671 194.015H307.69H307.398C307.39 194.269 307.373 194.59 307.348 194.979C307.331 195.369 307.297 195.784 307.246 196.224C307.195 196.664 307.128 197.108 307.043 197.557C306.967 198.005 306.869 198.42 306.751 198.801C306.666 199.072 306.531 199.228 306.345 199.271C306.167 199.313 305.989 199.283 305.812 199.182C305.634 199.072 305.49 198.915 305.38 198.712C305.27 198.509 305.244 198.297 305.304 198.077C305.371 197.815 305.431 197.497 305.481 197.125C305.532 196.744 305.57 196.346 305.596 195.932C305.63 195.508 305.655 195.09 305.672 194.675C305.689 194.252 305.701 193.875 305.71 193.545C305.388 193.367 305.122 193.143 304.91 192.872C304.699 192.593 304.593 192.263 304.593 191.882C304.593 191.704 304.627 191.543 304.694 191.399C304.771 191.247 304.868 191.12 304.986 191.019C305.105 190.909 305.244 190.828 305.405 190.777C305.566 190.718 305.731 190.688 305.9 190.688C306.053 190.688 306.209 190.71 306.37 190.752C306.539 190.794 306.696 190.87 306.84 190.98C306.992 191.09 307.128 191.234 307.246 191.412C307.365 191.59 307.462 191.81 307.538 192.072C307.75 192.098 307.927 192.119 308.071 192.136C308.224 192.144 308.351 192.153 308.452 192.161C308.554 192.17 308.638 192.174 308.706 192.174C308.774 192.174 308.841 192.174 308.909 192.174H310.268C310.344 192.174 310.454 192.22 310.598 192.313C310.75 192.407 310.898 192.529 311.042 192.682C311.186 192.826 311.304 192.982 311.397 193.151C311.499 193.321 311.537 193.481 311.512 193.634C311.512 193.685 311.482 193.807 311.423 194.002C311.364 194.197 311.292 194.442 311.207 194.738C311.122 195.035 311.029 195.377 310.928 195.767C310.826 196.147 310.733 196.549 310.648 196.973C310.564 197.396 310.492 197.836 310.433 198.293C310.373 198.742 310.344 199.182 310.344 199.613C310.344 199.791 310.365 199.965 310.407 200.134C310.45 200.303 310.513 200.455 310.598 200.591C310.682 200.718 310.788 200.819 310.915 200.896C311.05 200.972 311.207 201.01 311.385 201.01C311.681 201.01 311.935 200.917 312.146 200.73C312.358 200.544 312.536 200.312 312.68 200.032C312.824 199.753 312.938 199.452 313.022 199.131C313.116 198.801 313.192 198.492 313.251 198.204C313.302 197.933 313.386 197.739 313.505 197.62C313.623 197.493 313.746 197.43 313.873 197.43C313.975 197.43 314.08 197.464 314.19 197.531C314.3 197.59 314.398 197.671 314.482 197.772C314.576 197.874 314.647 197.988 314.698 198.115C314.757 198.242 314.787 198.369 314.787 198.496C314.787 198.538 314.783 198.572 314.774 198.598C314.766 198.623 314.762 198.648 314.762 198.674C314.643 199.105 314.487 199.558 314.292 200.032C314.106 200.506 313.865 200.942 313.568 201.34C313.272 201.738 312.917 202.068 312.502 202.33C312.087 202.592 311.601 202.724 311.042 202.724ZM317.529 202.724C316.954 202.724 316.395 202.618 315.854 202.406C315.312 202.195 314.829 201.882 314.406 201.467C313.992 201.052 313.657 200.54 313.403 199.931C313.158 199.321 313.035 198.615 313.035 197.811C313.035 197.066 313.141 196.334 313.353 195.614C313.564 194.895 313.856 194.256 314.229 193.697C314.601 193.13 315.045 192.673 315.562 192.326C316.086 191.979 316.658 191.806 317.275 191.806C317.724 191.806 318.105 191.899 318.418 192.085C318.731 192.263 318.985 192.483 319.18 192.745C319.374 192.999 319.514 193.274 319.599 193.57C319.692 193.867 319.738 194.129 319.738 194.357C319.738 194.527 319.692 194.679 319.599 194.814C319.514 194.95 319.408 195.064 319.281 195.157C319.154 195.25 319.015 195.322 318.862 195.373C318.71 195.415 318.575 195.432 318.456 195.424C318.338 195.415 318.24 195.373 318.164 195.297C318.096 195.221 318.075 195.106 318.101 194.954C318.067 194.844 318.033 194.709 317.999 194.548C317.974 194.387 317.923 194.235 317.847 194.091C317.779 193.938 317.682 193.812 317.555 193.71C317.428 193.6 317.254 193.545 317.034 193.545C316.797 193.545 316.564 193.659 316.336 193.888C316.116 194.108 315.917 194.412 315.739 194.802C315.57 195.191 315.43 195.644 315.32 196.16C315.219 196.676 315.168 197.227 315.168 197.811C315.168 198.327 315.231 198.784 315.358 199.182C315.494 199.579 315.68 199.914 315.917 200.185C316.154 200.455 316.433 200.663 316.755 200.807C317.085 200.942 317.44 201.01 317.821 201.01C318.329 201.01 318.769 200.917 319.142 200.73C319.522 200.536 319.844 200.282 320.106 199.969C320.369 199.656 320.58 199.304 320.741 198.915C320.902 198.526 321.021 198.132 321.097 197.734C321.156 197.447 321.274 197.256 321.452 197.163C321.638 197.062 321.825 197.036 322.011 197.087C322.205 197.138 322.37 197.248 322.506 197.417C322.65 197.578 322.709 197.772 322.684 198.001C322.65 198.263 322.586 198.564 322.493 198.902C322.409 199.241 322.282 199.584 322.112 199.931C321.943 200.278 321.727 200.62 321.465 200.959C321.211 201.289 320.898 201.585 320.525 201.848C320.153 202.11 319.717 202.322 319.218 202.482C318.727 202.643 318.164 202.724 317.529 202.724ZM321.097 185.979C321.097 185.792 321.08 185.644 321.046 185.534C321.021 185.424 320.991 185.34 320.957 185.28C320.932 185.213 320.902 185.162 320.868 185.128C320.843 185.086 320.83 185.043 320.83 185.001C320.83 184.95 320.855 184.908 320.906 184.874C320.957 184.84 321.025 184.811 321.109 184.785C321.194 184.76 321.283 184.743 321.376 184.734C321.478 184.717 321.575 184.709 321.668 184.709C322.1 184.709 322.438 184.823 322.684 185.052C322.938 185.272 323.064 185.538 323.064 185.852V194.383C323.242 194.019 323.433 193.68 323.636 193.367C323.847 193.054 324.072 192.783 324.309 192.555C324.554 192.318 324.812 192.136 325.083 192.009C325.362 191.873 325.663 191.806 325.984 191.806C326.416 191.806 326.771 191.886 327.051 192.047C327.33 192.208 327.55 192.415 327.711 192.669C327.872 192.923 327.982 193.206 328.041 193.52C328.109 193.833 328.143 194.137 328.143 194.434V199.816C328.143 199.876 328.147 199.973 328.155 200.108C328.164 200.235 328.189 200.367 328.231 200.502C328.274 200.637 328.337 200.756 328.422 200.857C328.515 200.959 328.646 201.01 328.815 201.01C329.078 201.01 329.302 200.917 329.488 200.73C329.683 200.544 329.848 200.312 329.983 200.032C330.127 199.753 330.242 199.452 330.326 199.131C330.419 198.801 330.495 198.492 330.555 198.204C330.605 197.942 330.682 197.751 330.783 197.633C330.893 197.514 331.007 197.451 331.126 197.442C331.253 197.425 331.38 197.455 331.507 197.531C331.634 197.607 331.744 197.709 331.837 197.836C331.93 197.954 331.998 198.09 332.04 198.242C332.091 198.395 332.099 198.538 332.065 198.674C331.947 199.105 331.79 199.558 331.596 200.032C331.41 200.506 331.168 200.942 330.872 201.34C330.576 201.738 330.22 202.068 329.806 202.33C329.391 202.592 328.904 202.724 328.346 202.724C327.999 202.724 327.69 202.656 327.419 202.521C327.157 202.394 326.928 202.22 326.733 202C326.547 201.78 326.403 201.522 326.302 201.226C326.209 200.929 326.162 200.616 326.162 200.286V195.005C326.162 194.802 326.158 194.611 326.149 194.434C326.141 194.256 326.116 194.099 326.073 193.964C326.039 193.828 325.984 193.723 325.908 193.646C325.84 193.562 325.743 193.52 325.616 193.52C325.43 193.52 325.201 193.646 324.931 193.9C324.66 194.154 324.393 194.484 324.131 194.891C323.868 195.297 323.636 195.758 323.433 196.274C323.238 196.782 323.115 197.294 323.064 197.811V201.606C323.064 201.733 323.06 201.865 323.052 202C323.052 202.127 323.026 202.241 322.976 202.343C322.933 202.453 322.861 202.542 322.76 202.609C322.667 202.686 322.527 202.724 322.341 202.724C322.214 202.724 322.074 202.707 321.922 202.673C321.778 202.647 321.643 202.592 321.516 202.508C321.397 202.432 321.296 202.317 321.211 202.165C321.135 202.021 321.097 201.826 321.097 201.581V185.979ZM336.648 194.434C336.648 194.916 336.564 195.411 336.395 195.919C336.234 196.427 335.988 196.909 335.658 197.366C335.337 197.815 334.935 198.221 334.452 198.585C333.978 198.94 333.428 199.211 332.802 199.397C332.886 199.618 332.996 199.829 333.132 200.032C333.276 200.227 333.445 200.396 333.64 200.54C333.834 200.684 334.059 200.798 334.312 200.883C334.575 200.967 334.875 201.01 335.214 201.01C335.722 201.01 336.158 200.917 336.521 200.73C336.885 200.536 337.19 200.282 337.436 199.969C337.689 199.656 337.893 199.304 338.045 198.915C338.197 198.526 338.312 198.132 338.388 197.734C338.447 197.447 338.565 197.256 338.743 197.163C338.929 197.062 339.116 197.036 339.302 197.087C339.496 197.138 339.661 197.248 339.797 197.417C339.941 197.578 340 197.772 339.975 198.001C339.941 198.263 339.882 198.564 339.797 198.902C339.721 199.241 339.602 199.584 339.441 199.931C339.281 200.278 339.073 200.62 338.819 200.959C338.574 201.289 338.269 201.585 337.905 201.848C337.541 202.11 337.114 202.322 336.623 202.482C336.132 202.643 335.569 202.724 334.935 202.724C334.342 202.724 333.767 202.605 333.208 202.368C332.658 202.14 332.167 201.81 331.735 201.378C331.312 200.938 330.969 200.4 330.707 199.766C330.453 199.122 330.326 198.395 330.326 197.582C330.326 196.761 330.44 195.999 330.669 195.297C330.897 194.586 331.198 193.972 331.57 193.456C331.943 192.94 332.366 192.538 332.84 192.25C333.314 191.954 333.8 191.806 334.3 191.806C334.664 191.806 334.99 191.869 335.277 191.996C335.574 192.123 335.823 192.305 336.026 192.542C336.229 192.771 336.382 193.046 336.483 193.367C336.593 193.689 336.648 194.044 336.648 194.434ZM332.459 197.506C332.459 197.582 332.463 197.658 332.472 197.734C332.48 197.811 332.484 197.891 332.484 197.976C332.806 197.823 333.098 197.629 333.36 197.392C333.623 197.155 333.847 196.884 334.033 196.579C334.219 196.274 334.363 195.944 334.465 195.589C334.566 195.225 334.617 194.848 334.617 194.459C334.617 194.171 334.566 193.947 334.465 193.786C334.372 193.625 334.241 193.545 334.071 193.545C333.86 193.545 333.669 193.617 333.5 193.761C333.339 193.905 333.195 194.095 333.068 194.332C332.95 194.561 332.848 194.823 332.764 195.119C332.688 195.407 332.624 195.699 332.573 195.995C332.522 196.291 332.489 196.575 332.472 196.846C332.455 197.108 332.451 197.328 332.459 197.506ZM336.039 189.774C336.234 189.791 336.45 189.804 336.687 189.812C336.89 189.829 337.135 189.842 337.423 189.851C337.711 189.851 338.032 189.855 338.388 189.863V185.458C338.388 185.272 338.371 185.124 338.337 185.014C338.312 184.904 338.282 184.819 338.248 184.76C338.223 184.692 338.193 184.641 338.159 184.607C338.134 184.565 338.121 184.523 338.121 184.48C338.121 184.43 338.146 184.387 338.197 184.354C338.248 184.32 338.316 184.29 338.4 184.265C338.485 184.239 338.574 184.222 338.667 184.214C338.769 184.197 338.866 184.188 338.959 184.188C339.391 184.188 339.729 184.303 339.975 184.531C340.229 184.751 340.355 185.018 340.355 185.331V189.889C341.151 189.889 341.989 189.88 342.869 189.863C343.758 189.846 344.646 189.817 345.535 189.774C345.654 189.647 345.747 189.601 345.814 189.635C345.891 189.669 345.937 189.749 345.954 189.876C345.979 190.003 345.984 190.16 345.967 190.346C345.95 190.532 345.916 190.714 345.865 190.892C345.814 191.061 345.743 191.209 345.649 191.336C345.565 191.463 345.467 191.526 345.357 191.526C344.316 191.552 343.394 191.569 342.59 191.577C341.794 191.577 341.049 191.577 340.355 191.577V199.816C340.355 200.24 340.436 200.544 340.597 200.73C340.757 200.917 340.973 201.01 341.244 201.01C341.507 201.01 341.731 200.917 341.917 200.73C342.112 200.544 342.277 200.312 342.412 200.032C342.556 199.753 342.67 199.452 342.755 199.131C342.848 198.801 342.924 198.492 342.983 198.204C343.034 197.933 343.119 197.739 343.237 197.62C343.356 197.493 343.479 197.43 343.605 197.43C343.707 197.43 343.813 197.464 343.923 197.531C344.033 197.59 344.13 197.671 344.215 197.772C344.308 197.874 344.38 197.988 344.431 198.115C344.49 198.242 344.52 198.369 344.52 198.496C344.52 198.513 344.52 198.534 344.52 198.56C344.52 198.585 344.511 198.623 344.494 198.674C344.384 199.105 344.232 199.558 344.037 200.032C343.851 200.506 343.605 200.942 343.301 201.34C343.005 201.738 342.649 202.068 342.234 202.33C341.82 202.592 341.333 202.724 340.774 202.724C340.427 202.724 340.106 202.669 339.81 202.559C339.522 202.457 339.272 202.288 339.061 202.051C338.849 201.822 338.684 201.526 338.565 201.162C338.447 200.798 338.388 200.358 338.388 199.842V191.577C338.1 191.577 337.842 191.577 337.613 191.577C337.393 191.569 337.207 191.56 337.055 191.552C336.877 191.543 336.72 191.535 336.585 191.526C336.382 191.526 336.204 191.438 336.052 191.26C335.891 191.074 335.781 190.87 335.722 190.65C335.654 190.43 335.646 190.231 335.696 190.054C335.739 189.868 335.853 189.774 336.039 189.774ZM340.762 189.774C340.956 189.791 341.172 189.804 341.409 189.812C341.612 189.829 341.858 189.842 342.146 189.851C342.433 189.851 342.755 189.855 343.11 189.863V185.458C343.11 185.272 343.093 185.124 343.06 185.014C343.034 184.904 343.005 184.819 342.971 184.76C342.945 184.692 342.916 184.641 342.882 184.607C342.856 184.565 342.844 184.523 342.844 184.48C342.844 184.43 342.869 184.387 342.92 184.354C342.971 184.32 343.038 184.29 343.123 184.265C343.208 184.239 343.297 184.222 343.39 184.214C343.491 184.197 343.589 184.188 343.682 184.188C344.113 184.188 344.452 184.303 344.697 184.531C344.951 184.751 345.078 185.018 345.078 185.331V189.889C345.874 189.889 346.712 189.88 347.592 189.863C348.48 189.846 349.369 189.817 350.258 189.774C350.376 189.647 350.469 189.601 350.537 189.635C350.613 189.669 350.66 189.749 350.677 189.876C350.702 190.003 350.706 190.16 350.689 190.346C350.673 190.532 350.639 190.714 350.588 190.892C350.537 191.061 350.465 191.209 350.372 191.336C350.287 191.463 350.19 191.526 350.08 191.526C349.039 191.552 348.117 191.569 347.312 191.577C346.517 191.577 345.772 191.577 345.078 191.577V199.816C345.078 200.24 345.159 200.544 345.319 200.73C345.48 200.917 345.696 201.01 345.967 201.01C346.229 201.01 346.453 200.917 346.64 200.73C346.834 200.544 346.999 200.312 347.135 200.032C347.279 199.753 347.393 199.452 347.478 199.131C347.571 198.801 347.647 198.492 347.706 198.204C347.757 197.933 347.841 197.739 347.96 197.62C348.078 197.493 348.201 197.43 348.328 197.43C348.43 197.43 348.535 197.464 348.646 197.531C348.756 197.59 348.853 197.671 348.938 197.772C349.031 197.874 349.103 197.988 349.153 198.115C349.213 198.242 349.242 198.369 349.242 198.496C349.242 198.513 349.242 198.534 349.242 198.56C349.242 198.585 349.234 198.623 349.217 198.674C349.107 199.105 348.954 199.558 348.76 200.032C348.574 200.506 348.328 200.942 348.023 201.34C347.727 201.738 347.372 202.068 346.957 202.33C346.542 202.592 346.056 202.724 345.497 202.724C345.15 202.724 344.828 202.669 344.532 202.559C344.244 202.457 343.995 202.288 343.783 202.051C343.572 201.822 343.407 201.526 343.288 201.162C343.17 200.798 343.11 200.358 343.11 199.842V191.577C342.823 191.577 342.564 191.577 342.336 191.577C342.116 191.569 341.93 191.56 341.777 191.552C341.6 191.543 341.443 191.535 341.308 191.526C341.104 191.526 340.927 191.438 340.774 191.26C340.614 191.074 340.504 190.87 340.444 190.65C340.377 190.43 340.368 190.231 340.419 190.054C340.461 189.868 340.576 189.774 340.762 189.774ZM353.812 194.434C353.812 194.916 353.728 195.411 353.559 195.919C353.398 196.427 353.152 196.909 352.822 197.366C352.501 197.815 352.099 198.221 351.616 198.585C351.142 198.94 350.592 199.211 349.966 199.397C350.05 199.618 350.16 199.829 350.296 200.032C350.44 200.227 350.609 200.396 350.804 200.54C350.998 200.684 351.223 200.798 351.477 200.883C351.739 200.967 352.039 201.01 352.378 201.01C352.886 201.01 353.322 200.917 353.686 200.73C354.049 200.536 354.354 200.282 354.6 199.969C354.854 199.656 355.057 199.304 355.209 198.915C355.361 198.526 355.476 198.132 355.552 197.734C355.611 197.447 355.729 197.256 355.907 197.163C356.093 197.062 356.28 197.036 356.466 197.087C356.66 197.138 356.826 197.248 356.961 197.417C357.105 197.578 357.164 197.772 357.139 198.001C357.105 198.263 357.046 198.564 356.961 198.902C356.885 199.241 356.766 199.584 356.605 199.931C356.445 200.278 356.237 200.62 355.983 200.959C355.738 201.289 355.433 201.585 355.069 201.848C354.705 202.11 354.278 202.322 353.787 202.482C353.296 202.643 352.733 202.724 352.099 202.724C351.506 202.724 350.931 202.605 350.372 202.368C349.822 202.14 349.331 201.81 348.899 201.378C348.476 200.938 348.133 200.4 347.871 199.766C347.617 199.122 347.49 198.395 347.49 197.582C347.49 196.761 347.604 195.999 347.833 195.297C348.062 194.586 348.362 193.972 348.734 193.456C349.107 192.94 349.53 192.538 350.004 192.25C350.478 191.954 350.965 191.806 351.464 191.806C351.828 191.806 352.154 191.869 352.441 191.996C352.738 192.123 352.987 192.305 353.19 192.542C353.394 192.771 353.546 193.046 353.647 193.367C353.757 193.689 353.812 194.044 353.812 194.434ZM349.623 197.506C349.623 197.582 349.627 197.658 349.636 197.734C349.644 197.811 349.648 197.891 349.648 197.976C349.97 197.823 350.262 197.629 350.524 197.392C350.787 197.155 351.011 196.884 351.197 196.579C351.383 196.274 351.527 195.944 351.629 195.589C351.73 195.225 351.781 194.848 351.781 194.459C351.781 194.171 351.73 193.947 351.629 193.786C351.536 193.625 351.405 193.545 351.235 193.545C351.024 193.545 350.833 193.617 350.664 193.761C350.503 193.905 350.359 194.095 350.232 194.332C350.114 194.561 350.012 194.823 349.928 195.119C349.852 195.407 349.788 195.699 349.737 195.995C349.687 196.291 349.653 196.575 349.636 196.846C349.619 197.108 349.615 197.328 349.623 197.506Z" fill="black"/>
    <path d="M235.42 260.636H231.676C231.532 260.636 231.46 260.57 231.46 260.438V260.042C231.46 259.91 231.532 259.844 231.676 259.844H235.42C235.564 259.844 235.636 259.91 235.636 260.042V260.438C235.636 260.57 235.564 260.636 235.42 260.636ZM242.486 266H240.218C239.438 266 238.82 265.772 238.364 265.316C237.92 264.86 237.698 264.236 237.698 263.444V256.982C237.698 256.19 237.92 255.566 238.364 255.11C238.82 254.654 239.438 254.426 240.218 254.426H242.486C243.266 254.426 243.878 254.654 244.322 255.11C244.778 255.566 245.006 256.19 245.006 256.982V257.864C245.006 258.008 244.94 258.08 244.808 258.08H244.304C244.172 258.08 244.106 258.008 244.106 257.864V257.018C244.106 256.442 243.956 256.004 243.656 255.704C243.368 255.392 242.948 255.236 242.396 255.236H240.29C239.738 255.236 239.318 255.392 239.03 255.704C238.742 256.016 238.598 256.454 238.598 257.018V263.408C238.598 263.972 238.742 264.41 239.03 264.722C239.318 265.034 239.738 265.19 240.29 265.19H242.396C242.948 265.19 243.368 265.04 243.656 264.74C243.956 264.428 244.106 263.984 244.106 263.408V262.562C244.106 262.418 244.172 262.346 244.304 262.346H244.808C244.94 262.346 245.006 262.418 245.006 262.562V263.444C245.006 264.236 244.778 264.86 244.322 265.316C243.878 265.772 243.266 266 242.486 266ZM250.046 265.19H252.098C252.65 265.19 253.07 265.04 253.358 264.74C253.658 264.428 253.808 263.984 253.808 263.408V257.018C253.808 256.442 253.658 256.004 253.358 255.704C253.07 255.392 252.65 255.236 252.098 255.236H250.046C249.494 255.236 249.074 255.392 248.786 255.704C248.498 256.016 248.354 256.454 248.354 257.018V263.408C248.354 263.972 248.498 264.41 248.786 264.722C249.074 265.034 249.494 265.19 250.046 265.19ZM252.188 266H249.974C249.194 266 248.576 265.772 248.12 265.316C247.676 264.86 247.454 264.236 247.454 263.444V256.982C247.454 256.19 247.676 255.566 248.12 255.11C248.576 254.654 249.194 254.426 249.974 254.426H252.188C252.968 254.426 253.58 254.654 254.024 255.11C254.48 255.566 254.708 256.19 254.708 256.982V263.444C254.708 264.236 254.48 264.86 254.024 265.316C253.58 265.772 252.968 266 252.188 266ZM258.573 254.642V265.784C258.573 265.928 258.507 266 258.375 266H257.853C257.733 266 257.673 265.928 257.673 265.784V254.642C257.673 254.498 257.733 254.426 257.853 254.426H258.375C258.507 254.426 258.573 254.498 258.573 254.642ZM262.433 266H261.911C261.791 266 261.731 265.928 261.731 265.784V254.642C261.731 254.498 261.791 254.426 261.911 254.426H262.397C262.505 254.426 262.577 254.462 262.613 254.534L268.139 264.038H268.211V254.642C268.211 254.498 268.277 254.426 268.409 254.426H268.913C269.045 254.426 269.111 254.498 269.111 254.642V265.784C269.111 265.928 269.045 266 268.913 266H268.499C268.391 266 268.295 265.934 268.211 265.802L262.703 256.37H262.631V265.784C262.631 265.928 262.565 266 262.433 266ZM277.656 266H277.134C277.014 266 276.954 265.928 276.954 265.784V254.642C276.954 254.498 277.014 254.426 277.134 254.426H282.678C282.822 254.426 282.894 254.492 282.894 254.624V255.038C282.894 255.17 282.822 255.236 282.678 255.236H278.034C277.914 255.236 277.854 255.29 277.854 255.398V259.772C277.854 259.868 277.914 259.916 278.034 259.916H282.192C282.324 259.916 282.39 259.982 282.39 260.114V260.546C282.39 260.678 282.324 260.744 282.192 260.744H278.034C277.914 260.744 277.854 260.792 277.854 260.888V265.784C277.854 265.928 277.788 266 277.656 266ZM287.628 265.19H289.68C290.232 265.19 290.652 265.04 290.94 264.74C291.24 264.428 291.39 263.984 291.39 263.408V257.018C291.39 256.442 291.24 256.004 290.94 255.704C290.652 255.392 290.232 255.236 289.68 255.236H287.628C287.076 255.236 286.656 255.392 286.368 255.704C286.08 256.016 285.936 256.454 285.936 257.018V263.408C285.936 263.972 286.08 264.41 286.368 264.722C286.656 265.034 287.076 265.19 287.628 265.19ZM289.77 266H287.556C286.776 266 286.158 265.772 285.702 265.316C285.258 264.86 285.036 264.236 285.036 263.444V256.982C285.036 256.19 285.258 255.566 285.702 255.11C286.158 254.654 286.776 254.426 287.556 254.426H289.77C290.55 254.426 291.162 254.654 291.606 255.11C292.062 255.566 292.29 256.19 292.29 256.982V263.444C292.29 264.236 292.062 264.86 291.606 265.316C291.162 265.772 290.55 266 289.77 266ZM301.429 254.426H301.933C302.065 254.426 302.131 254.492 302.131 254.624V263.444C302.131 264.236 301.903 264.86 301.447 265.316C301.003 265.772 300.391 266 299.611 266H297.595C296.815 266 296.197 265.772 295.741 265.316C295.297 264.86 295.075 264.236 295.075 263.444V254.642C295.075 254.498 295.135 254.426 295.255 254.426H295.777C295.909 254.426 295.975 254.498 295.975 254.642V263.408C295.975 263.972 296.119 264.41 296.407 264.722C296.695 265.034 297.115 265.19 297.667 265.19H299.521C300.073 265.19 300.493 265.04 300.781 264.74C301.081 264.428 301.231 263.984 301.231 263.408V254.642C301.231 254.498 301.297 254.426 301.429 254.426ZM305.798 266H305.276C305.156 266 305.096 265.928 305.096 265.784V254.642C305.096 254.498 305.156 254.426 305.276 254.426H309.38C310.16 254.426 310.778 254.654 311.234 255.11C311.69 255.566 311.918 256.19 311.918 256.982V258.692C311.918 259.364 311.744 259.916 311.396 260.348C311.06 260.78 310.598 261.056 310.01 261.176V261.248L312.152 265.784C312.224 265.928 312.182 266 312.026 266H311.468C311.312 266 311.204 265.928 311.144 265.784L309.02 261.248H306.176C306.056 261.248 305.996 261.302 305.996 261.41V265.784C305.996 265.928 305.93 266 305.798 266ZM306.176 260.474H309.29C309.842 260.474 310.268 260.324 310.568 260.024C310.868 259.712 311.018 259.274 311.018 258.71V257.018C311.018 256.454 310.868 256.016 310.568 255.704C310.268 255.392 309.842 255.236 309.29 255.236H306.176C306.056 255.236 305.996 255.29 305.996 255.398V260.312C305.996 260.42 306.056 260.474 306.176 260.474ZM319.32 266H317.052C316.272 266 315.654 265.772 315.198 265.316C314.754 264.86 314.532 264.236 314.532 263.444V256.982C314.532 256.19 314.754 255.566 315.198 255.11C315.654 254.654 316.272 254.426 317.052 254.426H319.32C320.1 254.426 320.712 254.654 321.156 255.11C321.612 255.566 321.84 256.19 321.84 256.982V257.864C321.84 258.008 321.774 258.08 321.642 258.08H321.138C321.006 258.08 320.94 258.008 320.94 257.864V257.018C320.94 256.442 320.79 256.004 320.49 255.704C320.202 255.392 319.782 255.236 319.23 255.236H317.124C316.572 255.236 316.152 255.392 315.864 255.704C315.576 256.016 315.432 256.454 315.432 257.018V263.408C315.432 263.972 315.576 264.41 315.864 264.722C316.152 265.034 316.572 265.19 317.124 265.19H319.23C319.782 265.19 320.202 265.04 320.49 264.74C320.79 264.428 320.94 263.984 320.94 263.408V262.562C320.94 262.418 321.006 262.346 321.138 262.346H321.642C321.774 262.346 321.84 262.418 321.84 262.562V263.444C321.84 264.236 321.612 264.86 321.156 265.316C320.712 265.772 320.1 266 319.32 266ZM325.17 266H324.648C324.528 266 324.468 265.928 324.468 265.784V254.642C324.468 254.498 324.528 254.426 324.648 254.426H325.17C325.302 254.426 325.368 254.498 325.368 254.642V259.556C325.368 259.664 325.428 259.718 325.548 259.718H330.588C330.708 259.718 330.768 259.664 330.768 259.556V254.642C330.768 254.498 330.828 254.426 330.948 254.426H331.47C331.602 254.426 331.668 254.498 331.668 254.642V265.784C331.668 265.928 331.602 266 331.47 266H330.948C330.828 266 330.768 265.928 330.768 265.784V260.69C330.768 260.582 330.708 260.528 330.588 260.528H325.548C325.428 260.528 325.368 260.582 325.368 260.69V265.784C325.368 265.928 325.302 266 325.17 266ZM340.475 266H334.913C334.793 266 334.733 265.928 334.733 265.784V254.642C334.733 254.498 334.793 254.426 334.913 254.426H340.475C340.619 254.426 340.691 254.492 340.691 254.624V255.038C340.691 255.17 340.619 255.236 340.475 255.236H335.813C335.693 255.236 335.633 255.29 335.633 255.398V259.538C335.633 259.646 335.693 259.7 335.813 259.7H339.971C340.103 259.7 340.169 259.766 340.169 259.898V260.312C340.169 260.444 340.103 260.51 339.971 260.51H335.813C335.693 260.51 335.633 260.564 335.633 260.672V265.028C335.633 265.136 335.693 265.19 335.813 265.19H340.475C340.619 265.19 340.691 265.256 340.691 265.388V265.802C340.691 265.934 340.619 266 340.475 266ZM345.919 266H345.397C345.265 266 345.199 265.928 345.199 265.784V255.398C345.199 255.29 345.139 255.236 345.019 255.236H342.409C342.265 255.236 342.193 255.17 342.193 255.038V254.624C342.193 254.492 342.265 254.426 342.409 254.426H348.889C349.033 254.426 349.105 254.492 349.105 254.624V255.038C349.105 255.17 349.033 255.236 348.889 255.236H346.279C346.159 255.236 346.099 255.29 346.099 255.398V265.784C346.099 265.928 346.039 266 345.919 266ZM353.478 266H352.956C352.824 266 352.758 265.928 352.758 265.784V255.398C352.758 255.29 352.698 255.236 352.578 255.236H349.968C349.824 255.236 349.752 255.17 349.752 255.038V254.624C349.752 254.492 349.824 254.426 349.968 254.426H356.448C356.592 254.426 356.664 254.492 356.664 254.624V255.038C356.664 255.17 356.592 255.236 356.448 255.236H353.838C353.718 255.236 353.658 255.29 353.658 255.398V265.784C353.658 265.928 353.598 266 353.478 266ZM364.258 266H358.696C358.576 266 358.516 265.928 358.516 265.784V254.642C358.516 254.498 358.576 254.426 358.696 254.426H364.258C364.402 254.426 364.474 254.492 364.474 254.624V255.038C364.474 255.17 364.402 255.236 364.258 255.236H359.596C359.476 255.236 359.416 255.29 359.416 255.398V259.538C359.416 259.646 359.476 259.7 359.596 259.7H363.754C363.886 259.7 363.952 259.766 363.952 259.898V260.312C363.952 260.444 363.886 260.51 363.754 260.51H359.596C359.476 260.51 359.416 260.564 359.416 260.672V265.028C359.416 265.136 359.476 265.19 359.596 265.19H364.258C364.402 265.19 364.474 265.256 364.474 265.388V265.802C364.474 265.934 364.402 266 364.258 266ZM370.332 260.636H366.588C366.444 260.636 366.372 260.57 366.372 260.438V260.042C366.372 259.91 366.444 259.844 366.588 259.844H370.332C370.476 259.844 370.548 259.91 370.548 260.042V260.438C370.548 260.57 370.476 260.636 370.332 260.636Z" fill="#4E4444"/>
</svg>